<?xml version="1.0" encoding="utf-8"?>
<!-- Generator: Adobe Illustrator 23.0.3, SVG Export Plug-In . SVG Version: 6.00 Build 0)  -->
<svg version="1.1"
	 id="svg8" xmlns:cc="http://creativecommons.org/ns#" xmlns:dc="http://purl.org/dc/elements/1.1/" xmlns:inkscape="http://www.inkscape.org/namespaces/inkscape" xmlns:rdf="http://www.w3.org/1999/02/22-rdf-syntax-ns#" xmlns:sodipodi="http://sodipodi.sourceforge.net/DTD/sodipodi-0.dtd" xmlns:svg="http://www.w3.org/2000/svg"
	 xmlns="http://www.w3.org/2000/svg" xmlns:xlink="http://www.w3.org/1999/xlink" x="0px" y="0px" viewBox="0 0 671.1 182.3"
	 style="enable-background:new 0 0 671.1 182.3;" xml:space="preserve">
<style type="text/css">
	.st0{fill:#FFFFFF;stroke:#000000;stroke-miterlimit:10;}
	.st1{font-family:'MyriadPro-Regular';}
	.st2{font-size:12px;}
	.st3{fill:none;stroke:#000000;stroke-miterlimit:10;}
	.st4{fill:#FFFFFF;stroke:#C91517;stroke-miterlimit:10;}
	.st5{fill:none;stroke:#C91517;stroke-miterlimit:10;}
</style>
<sodipodi:namedview  bordercolor="#666666" borderopacity="1.0" id="base" inkscape:current-layer="layer1" inkscape:cx="284.27627" inkscape:cy="182.72055" inkscape:document-units="mm" inkscape:guide-bbox="true" inkscape:pageopacity="0.0" inkscape:pageshadow="2" inkscape:window-height="995" inkscape:window-maximized="1" inkscape:window-width="2520" inkscape:window-x="20" inkscape:window-y="65" inkscape:zoom="0.99437388" pagecolor="#ffffff" showborder="true" showgrid="false" showguides="true" width="200mm">
	<inkscape:grid  dotted="false" empspacing="4" id="grid815" spacingx="10" spacingy="10" type="xygrid" units="mm">
		</inkscape:grid>
</sodipodi:namedview>
<g id="layer1" transform="translate(0,-177)" inkscape:groupmode="layer" inkscape:label="Layer 1">
</g>
<path class="st0" d="M104.9,43c0,19.9,0,39.9,0.1,59.8c0,17,0,34.1,0.1,51.1"/>
<text transform="matrix(1 0 0 1 102.0386 170.8185)" class="st1 st2">0</text>
<g>
	<polyline class="st0" points="88.8,153.9 98.8,134.4 104.7,123 	"/>
	<line class="st0" x1="98.8" y1="153.9" x2="94.9" y2="142.1"/>
	<path class="st0" d="M71,153.9"/>
	<line class="st0" x1="61.5" y1="153.9" x2="104.8" y2="80.5"/>
	<polyline class="st0" points="83.1,153.9 79.1,142.3 75.1,130.8 	"/>
	<line class="st0" x1="71" y1="153.9" x2="79.1" y2="142.3"/>
	<line class="st0" x1="83.1" y1="117.2" x2="88.8" y2="130.8"/>
	<line class="st0" x1="96.8" y1="148.1" x2="93.9" y2="153.9"/>
	<line class="st0" x1="101.6" y1="142.1" x2="98.8" y2="134.4"/>
	<path class="st0" d="M101.6,145.2"/>
	<line class="st0" x1="70.6" y1="138.5" x2="73.3" y2="142.3"/>
	<line class="st0" x1="65.4" y1="147.3" x2="67.9" y2="153.1"/>
	<line class="st0" x1="81.3" y1="148.6" x2="76.9" y2="153.9"/>
	<polyline class="st0" points="91.3,103.3 96.9,113.2 94.5,117.2 91.3,122.4 96.8,130.8 	"/>
	<polyline class="st0" points="98.5,124 100.2,118.5 96.9,113.2 	"/>
	<line class="st0" x1="91.3" y1="122.4" x2="91.3" y2="129.3"/>
	<polyline class="st0" points="94.9,127.9 88.8,138.1 87.5,140.4 84.1,146.2 86.7,153.9 	"/>
	<line class="st0" x1="90.2" y1="144.3" x2="88.8" y2="138.1"/>
	<path class="st0" d="M86,112.3"/>
	<path class="st0" d="M80.7,121.2"/>
	<polyline class="st0" points="78.4,125.2 64.1,128.8 56.1,130.8 49.8,153.9 	"/>
	<line class="st0" x1="56" y1="153.9" x2="64.1" y2="128.8"/>
	<polyline class="st0" points="104.7,58 73.3,95 43,130.8 23.4,153.9 	"/>
	<polyline class="st0" points="45.9,153.9 43.5,142.3 41.5,132.5 	"/>
	<polyline class="st0" points="73.3,95 74.9,105.9 76.1,114.4 71,120.3 	"/>
	<polyline class="st0" points="104.7,72.2 91.3,86.1 91.3,95 	"/>
	<polyline class="st0" points="91.3,86.1 81.9,95 79.1,103.3 	"/>
	<polyline class="st0" points="104.7,101.8 98.8,103.3 98.8,109.4 	"/>
	<polyline class="st3" points="104.8,110.5 101.6,113.9 103.6,118.1 101.6,121.9 	"/>
	<line class="st0" x1="98.8" y1="105.9" x2="102" y2="109.4"/>
	<polyline class="st0" points="61.5,138.1 63,143.2 60,149.4 	"/>
	<polyline class="st0" points="85.5,91.6 85.5,103.3 80.7,108.6 	"/>
	<line class="st0" x1="85.5" y1="103.3" x2="87.4" y2="107.7"/>
	<polyline class="st0" points="43.7,144.3 40.5,149.4 37.8,153.9 	"/>
	<line class="st0" x1="42.3" y1="153.1" x2="40.5" y2="149.4"/>
	<polyline class="st0" points="31.5,144.3 33,149.4 34.2,153.9 	"/>
	<line class="st0" x1="29.9" y1="153.9" x2="33" y2="149.4"/>
	<line class="st0" x1="26.5" y1="150.2" x2="27.6" y2="153.9"/>
	<polyline class="st0" points="65.4,122.4 63.3,117.2 58.5,121.9 63.3,117.2 74.9,105.9 	"/>
	<polyline class="st3" points="61.5,126.4 58.5,121.9 51.1,127.9 47.9,153.9 	"/>
	<line class="st3" x1="45.9" y1="136.2" x2="51.1" y2="127.9"/>
	<line class="st3" x1="49.5" y1="141.3" x2="45.9" y2="145.2"/>
	<line class="st3" x1="49.5" y1="123" x2="22.7" y2="145.2"/>
	<line class="st3" x1="104.7" y1="48.7" x2="48.5" y2="85"/>
	<line class="st3" x1="51.2" y1="105.5" x2="48.5" y2="85"/>
	<line class="st3" x1="29" y1="101.2" x2="48.5" y2="85"/>
	<line class="st3" x1="43.7" y1="116.8" x2="38.7" y2="93.1"/>
	<line class="st3" x1="77.7" y1="82.8" x2="72" y2="69.8"/>
	<line class="st3" x1="77.7" y1="89.6" x2="67.7" y2="92.8"/>
	<line class="st3" x1="3.3" y1="153.1" x2="29" y2="101.2"/>
	<line class="st3" x1="10" y1="139.6" x2="16.2" y2="153.1"/>
	<line class="st3" x1="16.8" y1="125.9" x2="22.5" y2="138.5"/>
	<line class="st3" x1="17.6" y1="147.3" x2="22.5" y2="138.5"/>
	<line class="st3" x1="19.6" y1="153.9" x2="17.6" y2="147.3"/>
	<line class="st3" x1="35.3" y1="127.1" x2="29" y2="101.2"/>
	<line class="st3" x1="28.2" y1="128.8" x2="33.5" y2="119.7"/>
	<line class="st3" x1="26.5" y1="123" x2="31.3" y2="110.5"/>
</g>
<g>
	<polyline class="st0" points="120.7,153.6 110.7,134.2 104.9,122.8 	"/>
	<line class="st0" x1="110.7" y1="153.6" x2="114.7" y2="141.9"/>
	<path class="st0" d="M138.5,153.6"/>
	<line class="st0" x1="148.1" y1="153.6" x2="104.8" y2="80.2"/>
	<polyline class="st0" points="126.4,153.6 130.4,142.1 134.5,130.5 	"/>
	<line class="st0" x1="138.5" y1="153.6" x2="130.4" y2="142.1"/>
	<line class="st0" x1="126.4" y1="116.9" x2="120.7" y2="130.5"/>
	<line class="st0" x1="112.8" y1="147.9" x2="115.7" y2="153.6"/>
	<line class="st0" x1="107.9" y1="141.9" x2="110.7" y2="134.2"/>
	<path class="st0" d="M107.9,145"/>
	<line class="st0" x1="139" y1="138.2" x2="136.2" y2="142.1"/>
	<line class="st0" x1="144.2" y1="147.1" x2="141.7" y2="152.8"/>
	<line class="st0" x1="128.3" y1="148.3" x2="132.7" y2="153.6"/>
	<polyline class="st0" points="118.3,103.1 112.7,113 115.1,116.9 118.3,122.1 112.8,130.5 	"/>
	<polyline class="st0" points="111,123.7 109.3,118.3 112.7,113 	"/>
	<line class="st0" x1="118.3" y1="122.1" x2="118.3" y2="129.1"/>
	<polyline class="st0" points="114.7,127.6 120.7,137.9 122.1,140.1 125.5,145.9 122.9,153.6 	"/>
	<line class="st0" x1="119.4" y1="144" x2="120.7" y2="137.9"/>
	<path class="st0" d="M123.6,112.1"/>
	<path class="st0" d="M128.8,121"/>
	<polyline class="st0" points="131.2,125 145.5,128.5 153.5,130.5 159.8,153.6 	"/>
	<line class="st0" x1="153.6" y1="153.6" x2="145.5" y2="128.5"/>
	<polyline class="st0" points="104.9,57.8 136.2,94.7 166.6,130.5 186.2,153.6 	"/>
	<polyline class="st0" points="163.7,153.6 166.1,142 168.1,132.2 	"/>
	<polyline class="st0" points="136.2,94.7 134.7,105.7 133.5,114.1 138.5,120.1 	"/>
	<polyline class="st0" points="104.9,71.9 118.3,85.9 118.3,94.7 	"/>
	<polyline class="st0" points="118.3,85.9 127.7,94.7 130.4,103.1 	"/>
	<polyline class="st0" points="104.9,101.5 110.7,103.1 110.7,109.1 	"/>
	<polyline class="st3" points="104.8,110.3 107.9,113.6 106,117.8 107.9,121.6 	"/>
	<line class="st0" x1="110.7" y1="105.7" x2="107.5" y2="109.1"/>
	<polyline class="st0" points="148.1,137.9 146.6,142.9 149.5,149.2 	"/>
	<polyline class="st0" points="124.1,91.3 124.1,103.1 128.8,108.4 	"/>
	<line class="st0" x1="124.1" y1="103.1" x2="122.1" y2="107.4"/>
	<polyline class="st0" points="165.9,144 169,149.2 171.7,153.6 	"/>
	<line class="st0" x1="167.2" y1="152.8" x2="169" y2="149.2"/>
	<polyline class="st0" points="178,144 176.6,149.2 175.3,153.6 	"/>
	<line class="st0" x1="179.6" y1="153.6" x2="176.6" y2="149.2"/>
	<line class="st0" x1="183.1" y1="149.9" x2="182" y2="153.6"/>
	<polyline class="st0" points="144.2,122.1 146.2,116.9 151.1,121.6 146.2,116.9 134.7,105.7 	"/>
	<polyline class="st3" points="148.1,126.2 151.1,121.6 158.4,127.6 161.7,153.6 	"/>
	<line class="st3" x1="163.7" y1="135.9" x2="158.4" y2="127.6"/>
	<line class="st3" x1="160.1" y1="141.1" x2="163.7" y2="145"/>
	<line class="st3" x1="160" y1="122.8" x2="186.8" y2="145"/>
	<line class="st3" x1="104.9" y1="48.4" x2="161.1" y2="84.7"/>
	<line class="st3" x1="158.4" y1="105.2" x2="161.1" y2="84.7"/>
	<line class="st3" x1="180.6" y1="100.9" x2="161.1" y2="84.7"/>
	<line class="st3" x1="165.9" y1="116.5" x2="170.8" y2="92.8"/>
	<line class="st3" x1="131.9" y1="82.6" x2="137.6" y2="69.6"/>
	<line class="st3" x1="131.9" y1="89.4" x2="141.8" y2="92.5"/>
	<line class="st3" x1="206.3" y1="152.8" x2="180.6" y2="100.9"/>
	<line class="st3" x1="199.6" y1="139.3" x2="193.4" y2="152.8"/>
	<line class="st3" x1="192.8" y1="125.6" x2="187.1" y2="138.2"/>
	<line class="st3" x1="192" y1="147.1" x2="187.1" y2="138.2"/>
	<line class="st3" x1="189.9" y1="153.6" x2="192" y2="147.1"/>
	<line class="st3" x1="174.3" y1="126.9" x2="180.6" y2="100.9"/>
	<line class="st3" x1="181.4" y1="128.5" x2="176.1" y2="119.5"/>
	<line class="st3" x1="183.1" y1="122.8" x2="178.3" y2="110.3"/>
</g>
<text transform="matrix(1 0 0 1 66.7033 25.8834)" class="st1 st2">Affine line $\aff^1 \an$</text>
<path class="st0" d="M341.8,43.1c0,19.9,0,39.9,0.1,59.8c0,17,0,34.1,0.1,51.1"/>
<text transform="matrix(1 0 0 1 339.0003 170.9535)" class="st1 st2">0</text>
<g>
	<polyline class="st4" points="325.8,154 335.8,134.6 341.7,123.2 	"/>
	<line class="st4" x1="335.8" y1="154" x2="331.9" y2="142.3"/>
	<path class="st4" d="M308,154"/>
	<line class="st4" x1="298.4" y1="154" x2="341.7" y2="80.6"/>
	<polyline class="st4" points="320.1,154 316.1,142.5 312.1,130.9 	"/>
	<line class="st4" x1="308" y1="154" x2="316.1" y2="142.5"/>
	<line class="st4" x1="320.1" y1="117.3" x2="325.8" y2="130.9"/>
	<line class="st4" x1="333.7" y1="148.2" x2="330.9" y2="154"/>
	<line class="st4" x1="338.6" y1="142.3" x2="335.8" y2="134.6"/>
	<path class="st4" d="M338.6,145.4"/>
	<line class="st4" x1="307.5" y1="138.6" x2="310.3" y2="142.5"/>
	<line class="st4" x1="302.3" y1="147.4" x2="304.8" y2="153.2"/>
	<line class="st4" x1="318.3" y1="148.7" x2="313.8" y2="154"/>
	<polyline class="st4" points="328.3,103.4 333.8,113.4 331.4,117.3 328.3,122.5 333.7,130.9 	"/>
	<polyline class="st4" points="335.5,124.1 337.2,118.7 333.8,113.4 	"/>
	<line class="st4" x1="328.3" y1="122.5" x2="328.3" y2="129.4"/>
	<polyline class="st4" points="331.9,128 325.8,138.3 324.5,140.5 321.1,146.3 323.6,154 	"/>
	<line class="st4" x1="327.2" y1="144.4" x2="325.8" y2="138.3"/>
	<path class="st4" d="M323,112.5"/>
	<path class="st4" d="M317.7,121.4"/>
	<polyline class="st4" points="315.3,125.4 301.1,128.9 293,130.9 286.8,154 	"/>
	<line class="st4" x1="292.9" y1="154" x2="301.1" y2="128.9"/>
	<polyline class="st4" points="341.7,58.1 310.3,95.1 279.9,130.9 260.3,154 	"/>
	<polyline class="st4" points="282.8,154 280.5,142.4 278.5,132.6 	"/>
	<polyline class="st4" points="310.3,95.1 311.9,106.1 313.1,114.5 308,120.5 	"/>
	<polyline class="st4" points="341.7,72.3 328.3,86.3 328.3,95.1 	"/>
	<polyline class="st4" points="328.3,86.3 318.8,95.1 316.1,103.4 	"/>
	<polyline class="st4" points="341.7,101.9 335.8,103.4 335.8,109.5 	"/>
	<polyline class="st5" points="341.7,110.7 338.6,114 340.6,118.2 338.6,122 	"/>
	<line class="st4" x1="335.8" y1="106.1" x2="339" y2="109.5"/>
	<polyline class="st4" points="298.4,138.3 299.9,143.3 297,149.6 	"/>
	<polyline class="st4" points="322.4,91.7 322.4,103.4 317.7,108.8 	"/>
	<line class="st4" x1="322.4" y1="103.4" x2="324.4" y2="107.8"/>
	<polyline class="st4" points="280.6,144.4 277.5,149.6 274.8,154 	"/>
	<line class="st4" x1="279.3" y1="153.2" x2="277.5" y2="149.6"/>
	<polyline class="st4" points="268.5,144.4 269.9,149.5 271.2,154 	"/>
	<line class="st4" x1="266.9" y1="154" x2="269.9" y2="149.5"/>
	<line class="st4" x1="263.5" y1="150.3" x2="264.6" y2="154"/>
	<polyline class="st4" points="302.3,122.5 300.3,117.3 295.5,122 300.3,117.3 311.9,106.1 	"/>
	<polyline class="st5" points="298.4,126.6 295.5,122 288.1,128 284.9,154 	"/>
	<line class="st5" x1="282.8" y1="136.3" x2="288.1" y2="128"/>
	<line class="st5" x1="286.4" y1="141.5" x2="282.8" y2="145.4"/>
	<line class="st5" x1="286.5" y1="123.2" x2="259.7" y2="145.4"/>
	<line class="st3" x1="341.7" y1="48.8" x2="285.5" y2="85.1"/>
	<line class="st3" x1="288.2" y1="105.6" x2="285.5" y2="85.1"/>
	<line class="st3" x1="266" y1="101.3" x2="285.5" y2="85.1"/>
	<line class="st3" x1="280.6" y1="116.9" x2="275.7" y2="93.2"/>
	<line class="st3" x1="314.7" y1="83" x2="308.9" y2="70"/>
	<line class="st5" x1="314.7" y1="89.8" x2="304.7" y2="92.9"/>
	<line class="st3" x1="240.3" y1="153.2" x2="266" y2="101.3"/>
	<line class="st3" x1="247" y1="139.7" x2="253.1" y2="153.2"/>
	<line class="st3" x1="253.8" y1="126" x2="259.4" y2="138.6"/>
	<line class="st3" x1="254.5" y1="147.4" x2="259.4" y2="138.6"/>
	<line class="st3" x1="256.6" y1="154" x2="254.5" y2="147.4"/>
	<line class="st3" x1="272.2" y1="127.3" x2="266" y2="101.3"/>
	<line class="st3" x1="265.2" y1="128.9" x2="270.4" y2="119.8"/>
	<line class="st3" x1="263.5" y1="123.2" x2="268.2" y2="110.7"/>
</g>
<g>
	<polyline class="st4" points="357.7,153.8 347.7,134.3 341.8,122.9 	"/>
	<line class="st4" x1="347.7" y1="153.8" x2="351.6" y2="142"/>
	<path class="st4" d="M375.5,153.8"/>
	<line class="st4" x1="385" y1="153.8" x2="341.7" y2="80.3"/>
	<polyline class="st4" points="363.4,153.8 367.4,142.2 371.4,130.7 	"/>
	<line class="st4" x1="375.5" y1="153.8" x2="367.4" y2="142.2"/>
	<line class="st4" x1="363.4" y1="117.1" x2="357.7" y2="130.7"/>
	<line class="st4" x1="349.8" y1="148" x2="352.6" y2="153.8"/>
	<line class="st4" x1="344.9" y1="142" x2="347.7" y2="134.3"/>
	<path class="st4" d="M344.9,145.1"/>
	<line class="st4" x1="376" y1="138.3" x2="373.2" y2="142.2"/>
	<line class="st4" x1="381.2" y1="147.2" x2="378.7" y2="153"/>
	<line class="st4" x1="365.2" y1="148.4" x2="369.7" y2="153.8"/>
	<polyline class="st4" points="355.2,103.2 349.7,113.1 352.1,117.1 355.2,122.3 349.8,130.7 	"/>
	<polyline class="st4" points="348,123.9 346.3,118.4 349.7,113.1 	"/>
	<line class="st4" x1="355.2" y1="122.3" x2="355.2" y2="129.2"/>
	<polyline class="st4" points="351.6,127.8 357.7,138 359,140.3 362.4,146.1 359.8,153.8 	"/>
	<line class="st4" x1="356.3" y1="144.1" x2="357.7" y2="138"/>
	<path class="st4" d="M360.5,112.2"/>
	<path class="st4" d="M365.8,121.1"/>
	<polyline class="st4" points="368.1,125.1 382.4,128.7 390.5,130.7 396.7,153.8 	"/>
	<line class="st4" x1="390.6" y1="153.8" x2="382.4" y2="128.7"/>
	<polyline class="st4" points="341.8,57.9 373.2,94.9 403.6,130.7 423.2,153.8 	"/>
	<polyline class="st4" points="400.7,153.8 403,142.2 405,132.4 	"/>
	<polyline class="st4" points="373.2,94.9 371.6,105.8 370.4,114.3 375.5,120.2 	"/>
	<polyline class="st4" points="341.8,72 355.2,86 355.2,94.9 	"/>
	<polyline class="st4" points="355.2,86 364.6,94.9 367.4,103.2 	"/>
	<polyline class="st4" points="341.8,101.7 347.7,103.2 347.7,109.2 	"/>
	<polyline class="st4" points="341.7,110.4 344.9,113.7 342.9,118 344.9,121.8 	"/>
	<line class="st4" x1="347.7" y1="105.8" x2="344.5" y2="109.2"/>
	<polyline class="st4" points="385,138 383.5,143.1 386.5,149.3 	"/>
	<polyline class="st4" points="361.1,91.5 361.1,103.2 365.8,108.5 	"/>
	<line class="st4" x1="361.1" y1="103.2" x2="359.1" y2="107.5"/>
	<polyline class="st4" points="402.8,144.1 406,149.3 408.7,153.8 	"/>
	<line class="st4" x1="404.2" y1="153" x2="406" y2="149.3"/>
	<polyline class="st4" points="415,144.1 413.6,149.3 412.3,153.8 	"/>
	<line class="st4" x1="416.6" y1="153.8" x2="413.6" y2="149.3"/>
	<line class="st4" x1="420" y1="150.1" x2="418.9" y2="153.8"/>
	<polyline class="st4" points="381.2,122.3 383.2,117.1 388,121.8 383.2,117.1 371.6,105.8 	"/>
	<polyline class="st4" points="385,126.3 388,121.8 395.4,127.8 398.6,153.8 	"/>
	<line class="st4" x1="400.7" y1="136.1" x2="395.4" y2="127.8"/>
	<line class="st4" x1="397.1" y1="141.2" x2="400.7" y2="145.1"/>
	<line class="st4" x1="397" y1="122.9" x2="423.8" y2="145.1"/>
	<line class="st0" x1="341.8" y1="48.5" x2="398" y2="84.9"/>
	<line class="st0" x1="395.3" y1="105.4" x2="398" y2="84.9"/>
	<line class="st0" x1="417.5" y1="101.1" x2="398" y2="84.9"/>
	<line class="st0" x1="402.8" y1="116.7" x2="407.8" y2="93"/>
	<line class="st0" x1="368.8" y1="82.7" x2="374.6" y2="69.7"/>
	<line class="st4" x1="368.8" y1="89.5" x2="378.8" y2="92.6"/>
	<line class="st0" x1="443.2" y1="153" x2="417.5" y2="101.1"/>
	<line class="st0" x1="436.5" y1="139.4" x2="430.4" y2="153"/>
	<line class="st0" x1="429.7" y1="125.7" x2="424.1" y2="138.3"/>
	<line class="st0" x1="429" y1="147.2" x2="424.1" y2="138.3"/>
	<line class="st0" x1="426.9" y1="153.8" x2="429" y2="147.2"/>
	<line class="st0" x1="411.2" y1="127" x2="417.5" y2="101.1"/>
	<line class="st0" x1="418.3" y1="128.7" x2="413.1" y2="119.6"/>
	<line class="st0" x1="420" y1="122.9" x2="415.3" y2="110.4"/>
</g>
<text transform="matrix(1 0 0 1 296.993 25.8838)" class="st1 st2">open ball $B(r)_+$</text>
<path class="st0" d="M341.8,43.1c0,5,0,10,0,15.1c0,14.9,0,29.9,0.1,44.8c0,17,0,34.1,0.1,51.1"/>
<path class="st4" d="M341.9,58.1C341.9,63.2,341.8,53.1,341.9,58.1c0,14.9,0,29.9,0.1,44.8c0,17,0,34.1,0.1,51.1"/>
<path class="st0" d="M566.3,43.3c0,19.9,0,39.9,0.1,59.8c0,17,0,34.1,0.1,51.1"/>
<text transform="matrix(1 0 0 1 563.4634 171.1487)" class="st1 st2">0</text>
<g>
	<polyline class="st0" points="550.3,154.2 560.3,134.8 566.1,123.4 	"/>
	<line class="st0" x1="560.3" y1="154.2" x2="556.3" y2="142.5"/>
	<path class="st4" d="M532.5,154.2"/>
	<line class="st4" x1="522.9" y1="154.2" x2="566.2" y2="80.8"/>
	<polyline class="st4" points="544.6,154.2 540.5,142.7 536.5,131.1 	"/>
	<line class="st4" x1="532.5" y1="154.2" x2="540.5" y2="142.7"/>
	<line class="st4" x1="544.6" y1="117.5" x2="550.3" y2="131.1"/>
	<line class="st0" x1="558.2" y1="148.4" x2="555.3" y2="154.2"/>
	<line class="st0" x1="563.1" y1="142.5" x2="560.3" y2="134.8"/>
	<path class="st4" d="M563.1,145.5"/>
	<line class="st4" x1="532" y1="138.8" x2="534.8" y2="142.7"/>
	<line class="st4" x1="526.8" y1="147.6" x2="529.3" y2="153.4"/>
	<line class="st4" x1="542.7" y1="148.9" x2="538.3" y2="154.2"/>
	<polyline class="st4" points="552.7,103.6 558.3,113.6 555.9,117.5 552.7,122.7 558.2,131.1 	"/>
	<polyline class="st4" points="560,124.3 561.7,118.9 558.3,113.6 	"/>
	<line class="st4" x1="552.7" y1="122.7" x2="552.7" y2="129.6"/>
	<polyline class="st4" points="556.3,128.2 550.3,138.5 548.9,140.7 545.5,146.5 548.1,154.2 	"/>
	<line class="st4" x1="551.6" y1="144.6" x2="550.3" y2="138.5"/>
	<path class="st4" d="M547.4,112.7"/>
	<path class="st4" d="M542.2,121.6"/>
	<polyline class="st4" points="539.8,125.6 525.5,129.1 517.5,131.1 511.2,154.2 	"/>
	<line class="st4" x1="517.4" y1="154.2" x2="525.5" y2="129.1"/>
	<polyline class="st4" points="566.1,58.3 534.8,95.3 504.4,131.1 484.8,154.2 	"/>
	<polyline class="st4" points="507.3,154.2 504.9,142.6 502.9,132.8 	"/>
	<polyline class="st4" points="534.8,95.3 536.3,106.3 537.5,114.7 532.5,120.7 	"/>
	<polyline class="st4" points="566.1,72.5 552.7,86.5 552.7,95.3 	"/>
	<polyline class="st4" points="552.7,86.5 543.3,95.3 540.5,103.6 	"/>
	<polyline class="st4" points="566.1,102.1 560.3,103.6 560.3,109.7 	"/>
	<polyline class="st3" points="566.2,110.9 563.1,114.2 565,118.4 563.1,122.2 	"/>
	<line class="st4" x1="560.3" y1="106.3" x2="563.5" y2="109.7"/>
	<polyline class="st4" points="522.9,138.5 524.4,143.5 521.5,149.8 	"/>
	<polyline class="st4" points="546.9,91.9 546.9,103.6 542.2,109 	"/>
	<line class="st4" x1="546.9" y1="103.6" x2="548.8" y2="108"/>
	<polyline class="st4" points="505.1,144.6 502,149.8 499.3,154.2 	"/>
	<line class="st4" x1="503.7" y1="153.4" x2="502" y2="149.8"/>
	<polyline class="st4" points="493,144.6 494.4,149.7 495.7,154.2 	"/>
	<line class="st4" x1="491.3" y1="154.2" x2="494.4" y2="149.7"/>
	<line class="st4" x1="487.9" y1="150.5" x2="489" y2="154.2"/>
	<polyline class="st4" points="526.8,122.7 524.8,117.5 519.9,122.2 524.8,117.5 536.3,106.3 	"/>
	<polyline class="st5" points="522.9,126.8 519.9,122.2 512.6,128.2 509.3,154.2 	"/>
	<line class="st5" x1="507.3" y1="136.5" x2="512.6" y2="128.2"/>
	<line class="st5" x1="510.9" y1="141.7" x2="507.3" y2="145.5"/>
	<line class="st5" x1="511" y1="123.4" x2="484.2" y2="145.5"/>
	<line class="st3" x1="566.1" y1="49" x2="509.9" y2="85.3"/>
	<line class="st3" x1="512.6" y1="105.8" x2="509.9" y2="85.3"/>
	<line class="st3" x1="490.4" y1="101.5" x2="509.9" y2="85.3"/>
	<line class="st3" x1="505.1" y1="117.1" x2="500.2" y2="93.4"/>
	<line class="st3" x1="539.1" y1="83.2" x2="533.4" y2="70.2"/>
	<line class="st5" x1="539.1" y1="90" x2="529.2" y2="93.1"/>
	<line class="st3" x1="464.7" y1="153.4" x2="490.4" y2="101.5"/>
	<line class="st3" x1="471.4" y1="139.9" x2="477.6" y2="153.4"/>
	<line class="st3" x1="478.2" y1="126.2" x2="483.9" y2="138.8"/>
	<line class="st3" x1="479" y1="147.6" x2="483.9" y2="138.8"/>
	<line class="st3" x1="481.1" y1="154.2" x2="479" y2="147.6"/>
	<line class="st3" x1="496.7" y1="127.5" x2="490.4" y2="101.5"/>
	<line class="st3" x1="489.6" y1="129.1" x2="494.9" y2="120"/>
	<line class="st3" x1="487.9" y1="123.4" x2="492.7" y2="110.9"/>
</g>
<g>
	<polyline class="st0" points="582.1,154 572.2,134.5 566.3,123.1 	"/>
	<line class="st0" x1="572.2" y1="154" x2="576.1" y2="142.2"/>
	<path class="st4" d="M600,154"/>
	<line class="st4" x1="609.5" y1="154" x2="566.2" y2="80.5"/>
	<polyline class="st4" points="587.9,154 591.9,142.4 595.9,130.9 	"/>
	<line class="st4" x1="600" y1="154" x2="591.9" y2="142.4"/>
	<line class="st4" x1="587.9" y1="117.2" x2="582.1" y2="130.9"/>
	<line class="st0" x1="574.2" y1="148.2" x2="577.1" y2="154"/>
	<line class="st0" x1="569.4" y1="142.2" x2="572.2" y2="134.5"/>
	<path class="st4" d="M569.4,145.3"/>
	<line class="st4" x1="600.4" y1="138.5" x2="597.7" y2="142.4"/>
	<line class="st4" x1="605.6" y1="147.4" x2="603.1" y2="153.2"/>
	<line class="st4" x1="589.7" y1="148.6" x2="594.1" y2="154"/>
	<polyline class="st4" points="579.7,103.4 574.1,113.3 576.5,117.2 579.7,122.5 574.2,130.9 	"/>
	<polyline class="st4" points="572.4,124.1 570.8,118.6 574.1,113.3 	"/>
	<line class="st4" x1="579.7" y1="122.5" x2="579.7" y2="129.4"/>
	<polyline class="st4" points="576.1,128 582.1,138.2 583.5,140.5 586.9,146.3 584.3,154 	"/>
	<line class="st4" x1="580.8" y1="144.3" x2="582.1" y2="138.2"/>
	<path class="st4" d="M585,112.4"/>
	<path class="st4" d="M590.3,121.3"/>
	<polyline class="st4" points="592.6,125.3 606.9,128.9 614.9,130.9 621.2,154 	"/>
	<line class="st4" x1="615" y1="154" x2="606.9" y2="128.9"/>
	<polyline class="st4" points="566.3,58.1 597.7,95 628,130.9 647.6,154 	"/>
	<polyline class="st4" points="625.1,154 627.5,142.3 629.5,132.6 	"/>
	<polyline class="st4" points="597.7,95 596.1,106 594.9,114.5 600,120.4 	"/>
	<polyline class="st4" points="566.3,72.2 579.7,86.2 579.7,95 	"/>
	<polyline class="st4" points="579.7,86.2 589.1,95 591.9,103.4 	"/>
	<polyline class="st4" points="566.3,101.8 572.2,103.4 572.2,109.4 	"/>
	<polyline class="st0" points="566.2,110.6 569.4,113.9 567.4,118.2 569.4,122 	"/>
	<line class="st4" x1="572.2" y1="106" x2="569" y2="109.4"/>
	<polyline class="st4" points="609.5,138.2 608,143.3 611,149.5 	"/>
	<polyline class="st4" points="585.5,91.7 585.5,103.4 590.3,108.7 	"/>
	<line class="st4" x1="585.5" y1="103.4" x2="583.6" y2="107.7"/>
	<polyline class="st4" points="627.3,144.3 630.5,149.5 633.2,154 	"/>
	<line class="st4" x1="628.7" y1="153.2" x2="630.5" y2="149.5"/>
	<polyline class="st4" points="639.5,144.3 638,149.5 636.8,154 	"/>
	<line class="st4" x1="641.1" y1="154" x2="638" y2="149.5"/>
	<line class="st4" x1="644.5" y1="150.3" x2="643.4" y2="154"/>
	<polyline class="st4" points="605.6,122.5 607.6,117.2 612.5,122 607.6,117.2 596.1,106 	"/>
	<polyline class="st4" points="609.5,126.5 612.5,122 619.9,128 623.1,154 	"/>
	<line class="st4" x1="625.1" y1="136.2" x2="619.9" y2="128"/>
	<line class="st4" x1="621.5" y1="141.4" x2="625.1" y2="145.3"/>
	<line class="st4" x1="621.5" y1="123.1" x2="648.3" y2="145.3"/>
	<line class="st0" x1="566.3" y1="48.7" x2="622.5" y2="85.1"/>
	<line class="st0" x1="619.8" y1="105.6" x2="622.5" y2="85.1"/>
	<line class="st0" x1="642" y1="101.3" x2="622.5" y2="85.1"/>
	<line class="st0" x1="627.3" y1="116.9" x2="632.3" y2="93.2"/>
	<line class="st0" x1="593.3" y1="82.9" x2="599" y2="69.9"/>
	<line class="st4" x1="593.3" y1="89.7" x2="603.3" y2="92.8"/>
	<line class="st0" x1="667.7" y1="153.2" x2="642" y2="101.3"/>
	<line class="st0" x1="661" y1="139.6" x2="654.8" y2="153.2"/>
	<line class="st0" x1="654.2" y1="125.9" x2="648.5" y2="138.5"/>
	<line class="st0" x1="653.4" y1="147.4" x2="648.5" y2="138.5"/>
	<line class="st0" x1="651.4" y1="154" x2="653.4" y2="147.4"/>
	<line class="st0" x1="635.7" y1="127.2" x2="642" y2="101.3"/>
	<line class="st0" x1="642.8" y1="128.9" x2="637.5" y2="119.8"/>
	<line class="st0" x1="644.5" y1="123.1" x2="639.7" y2="110.6"/>
</g>
<text transform="matrix(1 0 0 1 507.2822 25.8836)" class="st1 st2">open annulus $S(s, r)_+$</text>
<path class="st0" d="M566.3,43.3c0,5,0,10,0,15.1c0,14.9,0,29.9,0.1,44.8c0,17,0,34.1,0.1,51.1"/>
<path class="st4" d="M566.3,57.7C566.3,60.4,566.3,55,566.3,57.7c0,8.1,0,16.2,0.1,24.3c0,9.2,0,18.5,0.1,27.7"/>
<text transform="matrix(1 0 0 1 253.1161 171.1492)" class="st1 st2">$r$</text>
<text transform="matrix(1 0 0 1 416.6195 170.7357)" class="st1 st2">$r$</text>
<text transform="matrix(1 0 0 1 478.4888 170.9833)" class="st1 st2">$r$</text>
<text transform="matrix(1 0 0 1 641.9922 170.5698)" class="st1 st2">$r$</text>
<text transform="matrix(1 0 0 1 539.8099 170.653)" class="st1 st2">$s$</text>
<text transform="matrix(1 0 0 1 580.776 170.6532)" class="st1 st2">$s$</text>
</svg>
