<?xml version="1.0" encoding="utf-8"?>
<!-- Generator: Adobe Illustrator 23.0.3, SVG Export Plug-In . SVG Version: 6.00 Build 0)  -->
<svg version="1.1"
	 id="svg8" inkscape:version="0.92.4 (unknown)" sodipodi:docname="figure.svg" xmlns:cc="http://creativecommons.org/ns#" xmlns:dc="http://purl.org/dc/elements/1.1/" xmlns:inkscape="http://www.inkscape.org/namespaces/inkscape" xmlns:rdf="http://www.w3.org/1999/02/22-rdf-syntax-ns#" xmlns:sodipodi="http://sodipodi.sourceforge.net/DTD/sodipodi-0.dtd" xmlns:svg="http://www.w3.org/2000/svg"
	 xmlns="http://www.w3.org/2000/svg" xmlns:xlink="http://www.w3.org/1999/xlink" x="0px" y="0px" viewBox="0 0 680.3 233"
	 style="enable-background:new 0 0 680.3 233;" xml:space="preserve">
<style type="text/css">
	.st0{fill:none;stroke:#000000;stroke-miterlimit:10;}
	.st1{font-family:'MyriadPro-Regular';}
	.st2{font-size:12px;}
</style>
<sodipodi:namedview  bordercolor="#666666" borderopacity="1.0" id="base" inkscape:current-layer="layer1" inkscape:cx="284.27627" inkscape:cy="182.72055" inkscape:document-units="mm" inkscape:guide-bbox="true" inkscape:pageopacity="0.0" inkscape:pageshadow="2" inkscape:window-height="995" inkscape:window-maximized="1" inkscape:window-width="2520" inkscape:window-x="20" inkscape:window-y="65" inkscape:zoom="0.99437388" pagecolor="#ffffff" showborder="true" showgrid="false" showguides="true" width="200mm">
	<inkscape:grid  dotted="false" empspacing="4" id="grid815" spacingx="10" spacingy="10" type="xygrid" units="mm">
		</inkscape:grid>
</sodipodi:namedview>
<g id="layer1" transform="translate(0,-177)" inkscape:groupmode="layer" inkscape:label="Layer 1">
</g>
<line class="st0" x1="365.3" y1="35" x2="365.3" y2="123.4"/>
<circle cx="365.3" cy="123.4" r="2.8"/>
<text transform="matrix(1 0 0 1 370.2327 116.9639)" class="st1 st2">$|\cdot|_0$</text>
<circle cx="365.3" cy="35" r="2.8"/>
<text transform="matrix(1 0 0 1 373.5509 29.5722)" class="st1 st2">$|\cdot|_{\infty, 1}$</text>
<line class="st0" x1="365.3" y1="123.4" x2="268.5" y2="210.2"/>
<text transform="matrix(0.3593 -4.058641e-04 1.129073e-03 1 239.869 228.4167)" class="st1 st2">$|\cdot|_{2, \infty}$</text>
<circle cx="268.5" cy="210.2" r="2.8"/>
<line class="st0" x1="310.5" y1="210.2" x2="365.3" y2="123.4"/>
<circle cx="310.5" cy="210.2" r="2.8"/>
<text transform="matrix(0.3055 0 0 1 300.2312 228.4178)" class="st1 st2">$|\cdot|_{3, \infty}$</text>
<circle cx="359.7" cy="210.2" r="2.8"/>
<line class="st0" x1="359.7" y1="210.2" x2="365.3" y2="123.4"/>
<text transform="matrix(0.5032 0 0 1 345.5006 228.4178)" class="st1 st2">$|\cdot|_{5, \infty}$</text>
<line class="st0" x1="429.2" y1="210.2" x2="365.3" y2="123.4"/>
<text transform="matrix(1 0 0 1 382.2674 210.2033)" class="st1 st2">$\ldots$</text>
<circle cx="429.2" cy="210.2" r="2.8"/>
<text transform="matrix(0.5032 0 0 1 407.4002 228.4167)" class="st1 st2">$|\cdot|_{p, \infty}$</text>
<text transform="matrix(1 0 0 1 440.4461 210.2029)" class="st1 st2">$\ldots$</text>
</svg>
