<?xml version="1.0" encoding="utf-8"?>
<!-- Generator: Adobe Illustrator 23.0.3, SVG Export Plug-In . SVG Version: 6.00 Build 0)  -->
<svg version="1.1"
	 id="svg8" inkscape:version="0.92.4 (unknown)" sodipodi:docname="figure.svg" xmlns:cc="http://creativecommons.org/ns#" xmlns:dc="http://purl.org/dc/elements/1.1/" xmlns:inkscape="http://www.inkscape.org/namespaces/inkscape" xmlns:rdf="http://www.w3.org/1999/02/22-rdf-syntax-ns#" xmlns:sodipodi="http://sodipodi.sourceforge.net/DTD/sodipodi-0.dtd" xmlns:svg="http://www.w3.org/2000/svg"
	 xmlns="http://www.w3.org/2000/svg" xmlns:xlink="http://www.w3.org/1999/xlink" x="0px" y="0px" viewBox="0 0 680.3 188.5"
	 style="enable-background:new 0 0 680.3 188.5;" xml:space="preserve">
<style type="text/css">
	.st0{fill:none;stroke:#264191;stroke-width:3;stroke-miterlimit:10;}
	.st1{fill:#9A9A99;}
	.st2{fill:none;stroke:#007BC4;stroke-width:3;stroke-linecap:round;stroke-miterlimit:10;}
	.st3{fill:#020203;}
	.st4{font-family:'ArialMT';}
	.st5{font-size:12px;}
	.st6{fill:none;stroke:#A71C17;stroke-width:3;stroke-miterlimit:10;}
	.st7{fill:none;stroke:#020203;stroke-miterlimit:10;}
	.st8{fill:#FFFFFF;}
	.st9{fill:#007BC4;}
</style>
<sodipodi:namedview  bordercolor="#666666" borderopacity="1.0" id="base" inkscape:current-layer="layer1" inkscape:cx="284.27627" inkscape:cy="182.72055" inkscape:document-units="mm" inkscape:guide-bbox="true" inkscape:pageopacity="0.0" inkscape:pageshadow="2" inkscape:window-height="995" inkscape:window-maximized="1" inkscape:window-width="2520" inkscape:window-x="20" inkscape:window-y="65" inkscape:zoom="0.99437388" pagecolor="#ffffff" showborder="true" showgrid="false" showguides="true" width="200mm">
	<inkscape:grid  dotted="false" empspacing="4" id="grid815" spacingx="10" spacingy="10" type="xygrid" units="mm">
		</inkscape:grid>
</sodipodi:namedview>
<g id="layer1" transform="translate(0,-177)" inkscape:groupmode="layer" inkscape:label="Layer 1">
</g>
<path class="st0" d="M156.3,53.5c-4,4-23.3,24.4-23.7,56.6c-0.3,33.4,20.1,54.6,23.9,58.4"/>
<g>
	<path class="st1" d="M433.3-37.7c0-0.4,0.3-0.7,0.7-0.7s0.7,0.3,0.7,0.7v289.8c0,0.4-0.3,0.7-0.7,0.7s-0.7-0.3-0.7-0.7V-37.7z"/>
	<path class="st1" d="M468.8,240.4c0.3-0.1,0.7,0,0.8,0.3s0,0.7-0.3,0.9c-0.3,0.1-0.7,0-0.8-0.3c-0.1-0.1-0.1-0.4,0-0.6
		c0-0.1-0.1,0.1,0,0.1c0-0.1,0,0.1,0,0.1v0.1l-0.4-0.4c-0.1-0.1-0.1-0.4,0-0.6c0.1-0.1,0.3-0.1,0.4,0l0.5,0.3h0.1l0,0H469
		L468.8,240.4C468.9,240.2,468.7,240.4,468.8,240.4 M434.9,222.9c-0.1-0.1-0.3-0.3-0.3-0.4v-0.4c0.1-0.3,0.3-0.4,0.5-0.6
		c1.1-0.3,2,0.6,2.9,1c3.3,2,6.7,3.3,10.4,5.4c1.8,1,3.3,2,4.9,3.1s3.4,2.1,4.8,3.1c1.6,1.3,3.5,2.3,5.7,2.9
		c1.1,0.3,2.5,0.9,3.4,1.3l1,0.6l1.1,0.7c0.1,0,0.3,0.1,0.3,0.3c0.1,0.1,0.3,0.1,0.3,0.6v0.3c0,0.1,0,0.3-0.1,0.3l-0.3,0.3
		c-0.4,0.3-0.5,0.1-0.7,0.1s-0.3,0-0.4-0.1l-1.1-0.7l-0.8-0.4c-1-0.4-2-0.9-3.1-1.1c-2.3-0.7-4.5-1.9-6.3-3.3c-1.2-1-3-2-4.6-3.1
		s-3-2-4.8-3.1c-3.4-2.1-6.8-3.4-10.2-5.6c-0.8-0.6-1.8-1-1.8-1C435.2,223.2,434.9,223.1,434.9,222.9L434.9,222.9z"/>
	<path class="st1" d="M452.3,248c0.4,0,0.7,0.4,0.7,0.9s-0.4,0.7-0.8,0.7s-0.7-0.4-0.7-0.9c0-0.3,0.3-0.6,0.5-0.6
		c0.1,0-0.1,0.1-0.1,0.1c0.1,0-0.1,0.1-0.1,0.1l0.1-0.1l1.2-1.9c0.1-0.1,0.3-0.1,0.5-0.1c0.1,0.1,0.1,0.3,0.1,0.4
		c-0.4,1-0.7,1.7-0.7,1.9c0,0-0.1-0.3,0-0.1c0,0-0.1-0.3-0.1-0.1l-0.1-0.1C452.7,248.1,452.2,248,452.3,248 M456.8,235.5
		c0.3,0,0.4,0.3,0.4,0.6c0,0.1-0.1,0.3-0.4,0.4c-0.1,0,0.3-0.1,0.1-0.1l0,0l-0.1,0.1l-0.3,1l-0.8,3.1l-0.8,2.7l-0.5,2.1l-0.5,2.1
		c-0.3,0.7-0.5,1.3-0.8,1.6c-0.1,0.1-0.3,0.3-0.4,0.3h-0.3c-0.1,0-0.3,0-0.7-0.3c-0.1-0.1-0.1-0.3-0.1-0.3c-0.1-0.6,0-0.4,0-0.4
		c0-0.1,0.1-0.3,0.3-0.4c0,0,0.3-0.4,0.5-1l0.7-2l0.5-2.1l0.8-2.7l1-3.1l0.4-1.1l0.3-0.4C456.3,235.5,456.6,235.4,456.8,235.5"/>
	<path class="st1" d="M486.9,231.9c0.3,0.1,0.4,0.4,0.3,0.7c-0.1,0.3-0.4,0.4-0.7,0.3c0,0-0.1,0-0.1-0.1h0.1h-0.1H486
		c-0.4,0-1,0.1-1.6,0.6c-0.1,0.1-0.4,0-0.4-0.1c-0.1-0.1,0-0.4,0.1-0.4c0.7-0.3,1.4-0.6,1.8-0.7
		C486.2,231.8,486.5,231.8,486.9,231.9 M463.2,239.4c-0.1,0.3-0.4,0.4-0.7,0.3c-0.3-0.1-0.4-0.4-0.3-0.7v-0.2c0.3-0.3,0.5-0.6,1-0.9
		c0.4-0.6,1.4-1.1,2.5-1.6l3.5-0.9c3.3-0.9,7.4-2,10.8-2.9l4.1-0.9l1.8-0.3c0.1,0,0.3,0,0.3,0l0.7,0.1c0.1,0,0.1,0,0.3,0.1l0.1,0.1
		c0.3,0.4,0.1,0.6,0,0.7c-0.1,0.6-0.5,0.7-1,0.9c-0.1,0-0.1,0.1-0.3,0.1l-1.6,0.3l-4.1,0.9c-3.4,0.7-7.5,1.7-10.8,2.4l-3.4,0.7
		c-1.1,0.1-1.9,0.4-2.6,0.7C463.4,238.9,463.2,239.1,463.2,239.4"/>
	<path class="st1" d="M465.4,213.8c0.3-0.1,0.7,0,0.8,0.3s0,0.7-0.3,0.9c-0.1,0-0.3,0-0.4,0c-0.3,0-1.1-0.1-2-0.7
		c-0.1-0.1-0.3-0.3-0.1-0.6c0.1-0.1,0.3-0.3,0.4-0.1C464.5,213.9,465.3,213.8,465.4,213.8 M437.1,211.8c-0.3,0-0.5-0.1-0.5-0.4
		c0-0.3,0.1-0.6,0.4-0.6c2.7-0.6,6,0,9.3,0.4c2,0.3,3.5,0.9,5.9,1.6c1.9,0.6,4.6,0.7,7.2,0.7h3.1h1h1.2h1.2c0.5,0,1,0.4,1,1
		s-0.4,1-1,1h-1.2h-1.1h-1h-3.1c-2.6,0-5.4-0.1-7.6-0.9c-2.3-0.7-3.8-1.3-5.7-1.7C442.8,212.1,439.7,211.5,437.1,211.8 M466.6,214.4
		c0,0.6-0.4,1-1,1c-0.5,0-1-0.4-1-1s0.4-1,1-1C466.2,213.4,466.6,213.8,466.6,214.4"/>
	<path class="st1" d="M463.2,213.9c-0.1,0.3-0.4,0.4-0.7,0.3c-0.3-0.1-0.4-0.4-0.3-0.7l0.1-0.1l0,0l0,0c0,0-0.1,0.3-0.1,0.1v0.3
		c0-0.1,0.1,0.3,0.1,0.3l0.1,0.1h0.1l-0.3,0.1l0.1-0.1l0,0c0,0-0.1-0.3,0-0.1l-0.1-0.1c0,0-0.3-0.1-0.1-0.1s0.1,0,0.3,0.1
		c0,0-0.3-0.1-0.1-0.1h-0.1l0,0h0.1l0.7-0.3l3.4-1.7c1.2-0.7,3-1.4,5-2.3l6.7-2.7c4.4-1.7,7.9-3,10.9-4.1c1.5-0.6,2.9-1.1,4-1.7
		l1.2-0.7l0.8-0.4l0.1-0.1l0,0l0,0L495,200v0.3c0-0.1,0.1,0.3,0,0.1c0-0.1,0.3,0.3,0.1,0.3s0.3,0.1,0.1,0.1h0.1h-0.1l-1.4,0.7
		c-0.1,0.1-0.4,0-0.5-0.1s0-0.4,0.1-0.4l1.2-1l0.3-0.3c0.1,0,0-0.1,0.4-0.1c0.3,0,0.5,0.3,0.7,0.6v0.4l-0.3,0.4l-0.8,0.9l-1.5,0.9
		c-1.2,0.6-2.6,1.3-4.1,1.9c-3,1.1-6.5,2.3-10.9,4l-6.7,2.6c-2,0.9-3.8,1.6-4.9,2.1l-3.5,1.6l-0.7,0.3l-0.4,0.1
		c-0.1,0-0.4,0.1-0.7-0.1c-0.1,0-0.1-0.1-0.1-0.3c-0.1-0.3-0.1-0.4,0-0.6l0.1-0.3c0.1-0.1,0.3-0.3,0.5-0.3l-0.1,0.1l0.4-0.3l0,0
		l0.3-0.1c0.3,0,0.5,0.3,0.5,0.6L463.2,213.9z"/>
	<path class="st1" d="M486.5,206.9c0.3,0,0.5,0.1,0.5,0.4c0,0.3-0.1,0.6-0.4,0.6l0,0c-1.1,0-1.8,0-2,0.1h0.1l-0.3,0.1l0,0l0.1-0.3
		v0.1c0,0.1,0-0.1,0-0.1l0,0l0.1,0.3l0.5,1.1c1.5,3.3,3.3,7.6,5.2,11.9c1,2.1,2,3.9,3,5.7c0.4,0.9,0.8,1.7,1.2,2.6l0.4,1.3v0.1
		c0,0.7,0,1.1-0.1,1.4l-1.6-0.3l0,0c0-0.3,0-0.9,0.1-1.4c0.1-0.6,0.5-1.1,1-1.7c0.1-0.1,0.4-0.1,0.5,0s0.1,0.3,0,0.4
		c-0.4,0.6-0.5,1-0.5,1.3l0.1,0.7v0.1c0,0-0.1-0.1,0,0c0.4,0.3,0.4,0.9,0.1,1.3c-0.3,0.3-0.7,0.4-1.1,0.3c-0.5-0.3-0.5-0.6-0.5-0.9
		l-0.3-0.6c0,0,0-0.1-0.1-0.1l-0.3-1.1l-1.1-2.4c-0.8-1.7-1.9-3.6-3-5.7c-1.9-4.4-3.5-8.7-4.9-12l-0.2-1.3l-0.1-0.7
		c0-0.3,0-0.6,0.3-0.9l0.1-0.1c0.4-0.1,0.5-0.1,0.7,0h0.3h-0.1C484.7,207.1,485.6,207.1,486.5,206.9"/>
	<path class="st1" d="M490.6,205.2c-0.1-0.1-0.3-0.3-0.3-0.4c0-0.4,0.1-0.4,0.1-0.4l0.1-0.1l0.3-0.1l1.5-0.4l4.4-0.9
		c2-0.4,4.5-1.1,7.2-1.9c2.9-0.7,5.9-1.6,8.9-2.1c4.1-0.7,8.2-1,11.4-1.1l3.5-0.3l0.7-0.1h0.1c0,0,0.1,0,0.1-0.1
		c0,0-0.3,0.3-0.3,0.1c0.1-0.1-0.1,0.3-0.1,0.3v0.1l0,0l-0.3-0.6c-0.1-0.1-0.4-0.3-0.5-0.4h-0.1l-0.3,0.3c-0.1,0.1-0.3,0.3-0.5,0.1
		c-0.1-0.1-0.3-0.3-0.1-0.4c0.1-0.3,0.3-0.4,0.4-0.7c0.1-0.1,0.4-0.3,0.7-0.3c0.4,0,1,0.1,1.4,0.4s0.7,0.6,1,1
		c0.1,0.1,0.3,0.4,0.3,0.7s-0.1,0.9-0.4,1.1l-0.1,0.1c-0.5,0.3-1.1,0.3-1.5,0.3c-1,0.1-2.3,0.1-3.7,0.3c-3.1,0.1-7.2,0.4-11.2,1.1
		c-3,0.6-6,1.3-8.9,2c-2.7,0.7-5.3,1.3-7.4,1.7l-4.4,0.7l-1.5,0.3H491C490.9,205.2,490.9,205.3,490.6,205.2 M491.1,204.1
		c0.3,0,0.5,0.1,0.5,0.4c0,0.3-0.1,0.6-0.4,0.6H491l0,0c0,0,0.1-0.1,0.1,0c0,0,0.1-0.1,0.1,0c-0.3,0.1-0.5,0.1-0.8,0
		c-0.1-0.3-0.1-0.6,0-0.9c0.3-0.1,0.5-0.1,0.8,0c0,0.1,0.1,0.1,0.1,0.3c0,0.1-0.1-0.3-0.1-0.3C491.3,204.3,491,204.2,491.1,204.1
		C491.1,204.2,490.8,204.1,491.1,204.1L491.1,204.1L491.1,204.1z"/>
	<path class="st1" d="M512.9,222.8c-0.1,0.4-0.5,0.7-1,0.6c-0.4-0.1-0.7-0.6-0.5-1c0.1-0.4,0.5-0.7,1-0.6c0.4,0.1,0.5,0.4,0.5,0.7
		c0,0.1,0-0.3,0-0.3v-0.1l-0.1-0.1l-0.1-0.1l0,0h0.1c0.1,0,0.4,0.1,0.4,0.3c0,0.1,0,0.1,0,0.3L512.9,222.8
		C512.9,222.8,512.9,222.6,512.9,222.8 M500.4,204.3c-0.3,0.1-0.5,0.1-0.7-0.1c-0.1-0.3-0.1-0.6,0.1-0.7c0.7-0.6,1.5-0.9,2.2-0.6
		c0.7,0.3,1.4,0.9,2,1.6c1.2,1.4,2.3,3.6,3.4,5.4l3.5,6.6c0.5,1.1,1.1,2.1,1.4,3l0.4,0.7l0.1,1.1v0.3l0,0c0.1,0.4,0.1,0.9-0.3,1.3
		l-0.1,0.1l-0.1,0.1l-0.3,0.1c-0.4,0-0.8-0.1-1.1-0.6c-0.3-0.4-0.3-0.9-0.3-1.1l-0.1-0.7l-0.3-0.9c-0.3-0.7-0.7-1.6-1.2-2.7
		c-1-1.9-2.3-4.3-3.4-6.6c-1-2-1.9-4.1-2.9-5.4c-0.4-0.7-1-1.1-1.4-1.3C501.2,204.1,501,204.1,500.4,204.3"/>
	<path class="st1" d="M436.3,184.2c-0.3,0.1-0.5-0.1-0.7-0.4c0-0.3,0-0.4,0.3-0.6c0.3-0.1,0.7-0.3,1.5-0.4l3.1-0.7
		c1.1-0.1,2.3-0.4,3.7-0.6c1.2-0.1,2.6-0.1,4-0.1c1.9-0.1,4.2-0.3,7.2-0.7c2.2-0.3,4.6-1,7.4-1.6l15-3.4l16.5-3.7l7.9-1.7l5.7-1.1
		c2.5-0.4,3.8-0.4,4.9-0.3c2.9,0.1,6.8,0.3,10.5,0c2.3-0.1,4.4,0,6,0c1,0.1,1.8,0.3,2.6,0.6l1.1,0.3c1.1,0.3,2.7,0.3,4.2,0.1
		c0.7,0,1.5-0.3,2.3-0.6l1.6-0.3l0,0H541c0,0-0.1,0.3-0.1,0.1v0.3c0-0.1,0.1,0.3,0.1,0.3l0.1,0.1c-0.1,0,0.1,0,0,0H541h-1.4
		c-0.1,0-0.4-0.1-0.4-0.4c0-0.1,0.1-0.4,0.3-0.4l1.4-0.1h0.3h0.1c0.1,0,0.4,0.4,0.3,0.6l-0.1,0.3c-0.4,0.3-1,0.4-1.6,0.6
		c-0.8,0.3-1.8,0.6-2.6,0.7c-1.6,0.1-3.3,0-4.5-0.4l-1.1-0.4c-0.5,0-1.4,0.1-2.2,0.1c-1.8,0-3.7-0.1-6,0c-3.8,0.3-7.8,0.1-10.8,0
		c-1,0-2.2,0-4.6,0.4l-5.6,1.1l-7.9,1.7l-16.5,3.7l-15,3.3c-2.7,0.6-5.3,1.1-7.5,1.6c-3.1,0.4-5.4,0.6-7.4,0.7c-1.5,0-2.7,0-4,0.1
		l-3.7,0.4l-3,0.6L436.3,184.2z"/>
	<path class="st1" d="M543.5,189.9c0.3-0.3,0.7-0.1,1,0.1c0.3,0.3,0.1,0.7-0.1,1c-0.3,0.3-0.7,0.1-1-0.1l0,0l0,0l-1.4-1.3
		c-0.1-0.1-0.1-0.4,0-0.6c0.1-0.1,0.3-0.1,0.4-0.1l1.2,0.7l0.3,0.1l0,0h-0.1C543.7,189.8,543.3,189.9,543.5,189.9 M532.6,171.3
		c0,0.3-0.1,0.6-0.4,0.6s-0.4-0.1-0.5-0.3l-0.1-0.3c0-0.1-0.1-0.1,0-0.4c0.1-0.4,0.5-0.4,0.8-0.4l0.3,0.1c0.3,0.3,0.5,0.7,1,1.1
		c0.8,1.1,1.6,2.9,2.7,4.7l3.4,6.3c1,1.7,1.9,3.1,2.9,4.3l1.8,2.1l0.3,0.4c0.1,0.1,0.3,0.1,0.3,0.7c0.1,0.6-0.3,1.1-0.8,1.1
		c-0.5,0.1-1.1-0.3-1.1-0.9l0,0c0-0.1,0,0.3,0,0.1c0-0.1,0.1,0.1,0,0.1l0,0l-0.3-0.3l-1.8-2.1c-1-1.3-2-2.7-3-4.6l-3.3-6.4l-2.5-4.7
		l-0.7-1.1l0,0l0,0l0.1,0.1h0.3l0.3-0.1C532.3,171.6,532.6,171.3,532.6,171.3L532.6,171.3L532.6,171.3z M544.8,190.5
		c0,0.6-0.4,1-1,1c-0.5,0-1-0.4-1-1s0.4-1,1-1C544.4,189.5,544.8,189.9,544.8,190.5"/>
	<path class="st1" d="M530.4,193.1c0.4,0.1,0.5,0.7,0.4,1.1c-0.1,0.4-0.7,0.6-1.1,0.4c-0.4-0.1-0.5-0.7-0.4-1.1
		c0.1-0.3,0.4-0.4,0.7-0.4c0.1,0-0.3,0-0.1,0h-0.1c0.1,0-0.1,0.1-0.1,0c0.1,0-0.1,0.1-0.1,0.1l-0.1,0.1l0,0c0-0.3,0-0.7-0.1-1.3
		c0-0.1,0.1-0.4,0.3-0.4c0.1,0,0.3,0,0.4,0.1l0.7,1.4v0.1l0,0C530.7,193.3,530.5,193.2,530.4,193.1
		C530.7,193.2,530.4,193.1,530.4,193.1 M523.2,173c0.1,0.1,0.1,0.3,0.3,0.4l0,0v0.1l0.3,1.9c0.4,2.9,1.6,7,3.3,10.7
		c0.8,1.9,1.8,3.3,2.5,4.4l1,1.4c0.4,0.6,0.4,1.1,0.4,1.3c0,0.1,0.1,0.4,0,0.6c0,0.1,0.1,0.1-0.3,0.6c-0.1,0.1-0.3,0.1-0.4,0.3
		c-0.4,0.1-0.5,0-0.7,0l-0.3-0.1c-0.1-0.1-0.3-0.3-0.3-0.4l-0.3-0.9l-1-1.4c-0.7-1.1-1.6-2.7-2.5-4.7c-1.6-3.9-2.9-8.1-3.3-11.3v-2
		v-0.4l0.1-0.3l0.3-0.1C522.6,172.9,522.9,172.9,523.2,173 M523.4,173.9c0,0.3-0.1,0.6-0.4,0.6c-0.3,0-0.4-0.1-0.5-0.4V174l0,0
		c0,0,0.3,0.1,0.1,0.1c0,0,0.3,0.1,0.1,0h0.1c0,0,0.3-0.1,0.1,0l0.1-0.1c-0.1,0.3-0.5,0.3-0.8,0.1c-0.3-0.1-0.3-0.6-0.1-0.9
		c0.1-0.3,0.5-0.3,0.8-0.1c0.1,0.1,0.1,0.3,0.3,0.4v0.1L523.4,173.9z"/>
	<path class="st1" d="M558,155.2c0.1-0.4,0.5-0.6,1-0.4c0.4,0.1,0.5,0.6,0.4,1s-0.5,0.6-1,0.4c-0.3-0.1-0.4-0.4-0.5-0.7
		c0-0.1,0,0.3,0,0.1c0-0.1,0.1,0.1,0.1,0.1l0.1,0.1h0.1l0,0H557c-0.1,0-0.4-0.1-0.4-0.3c0-0.1,0.1-0.3,0.3-0.4l1.2-0.4l0,0l0,0
		L558,155.2C558,154.9,558,155.2,558,155.2 M537.9,168c0.3,0,0.5,0.1,0.5,0.4c0,0.3-0.1,0.6-0.4,0.6l-0.4,0.1h-0.1
		c0,0-0.4,0-0.5-0.1c-0.1-0.3-0.1-0.4-0.1-0.6c0.1-0.4,0.3-0.4,0.4-0.4l0.4-0.3l4.2-2.9l6.3-4.1l4.9-3c1.6-1,2.7-1.7,3.7-2.3
		l1.2-0.7c0.1-0.1,0.4-0.3,0.7-0.1c0.1,0,0.1,0,0.4,0.1c0.1,0.1,0.1,0.1,0.3,0.3c0.3,0.4,0.1,0.6,0.1,0.6c0,0.3-0.1,0.4-0.4,0.6
		l-1.4,0.9c-0.8,0.6-2,1.4-3.7,2.4l-5,2.9l-6.3,3.9c-1.9,1.1-3.4,2.1-4.4,2.7l-0.7,0.3c0,0,0.1-0.1,0.1,0l0.1-0.1
		c0,0,0.1-0.4,0.1-0.3c0,0.1-0.1-0.4,0-0.3C538,168.6,537.7,168.2,537.9,168C537.9,168.1,537.8,168,537.9,168L537.9,168L537.9,168z"
		/>
	<path class="st1" d="M506.3,171.8c0.1,0.3,0.1,0.6,0,0.7c-0.1,0.1-0.5,0.1-0.7,0c-0.1-0.1-0.3-0.4-0.3-0.7s0-0.6,0.1-0.7
		c0.1-0.6,0.5-1,1.1-1.6c1.1-1.1,2.7-2.6,5-4.3c2.9-2.1,6.3-4.7,10.1-7.3c2-1.3,4.1-2.7,6.4-4.1c4.9-2.9,10.5-5.7,15.1-8.3
		c1.8-1,3.3-2,4.5-2.9c2-1.3,3.4-1.9,4.5-2.3l6.3-2.4c0.5-0.3,1.2-0.4,1.8-0.7c0.8-0.4,1.6-1,2.5-1.6l1.4-1c0-0.1,0.1-0.1,0.3-0.1
		c0,0-0.1,0.3-0.1,0.1c0,0-0.1,0.3-0.1,0.1c0-0.1,0,0.6,0,0.4c0-0.1,0.1,0.4,0.1,0.3c-0.1-0.1,0.1,0.1,0.1,0.1h-0.1
		c-0.5,0-1.8,0.1-3.5,0.6c-0.1,0-0.4-0.1-0.4-0.3c0-0.1,0.1-0.4,0.3-0.4l3.7-1.1l0.8-0.1c0.1,0,0.5,0,0.7,0.4
		c0.3,0.3,0.1,0.7,0.1,0.9s-0.1,0.1-0.1,0.3c-0.4,0.6-1.1,1-1.9,1.4c-0.8,0.6-1.8,1.3-2.7,1.7c-0.8,0.4-1.5,0.6-2,0.7L553,142
		c-1,0.4-2.3,1-4.2,2.1c-1.2,0.9-2.9,1.9-4.6,2.9c-4.6,2.6-10.4,5.4-15.1,8.3c-2.3,1.3-4.4,2.6-6.4,4c-3.7,2.4-7.2,4.9-10.1,7
		c-2.2,1.7-4,3-4.9,4c-0.4,0.4-0.8,0.9-1,1.1L506.3,171.8L506.3,171.8z"/>
	<path class="st1" d="M499,191.9c0.3,0.4,0.1,0.9-0.1,1.1c-0.4,0.3-0.8,0.1-1.1-0.1c-0.1-0.1-0.1-0.4-0.1-0.7c0-0.1,0,0.3,0,0.3v0.1
		c0-0.1-1.6-1.4-2.3-2.9c-0.1-0.1,0-0.4,0.1-0.4c0.1-0.1,0.3,0,0.4,0.1c0.4,0.4,1.1,1,1.6,1.4l0.8,0.6
		C498.6,191.6,498.8,191.6,499,191.9 M482.6,179.8c0,0.3-0.3,0.4-0.5,0.4c-0.3,0-0.4-0.3-0.4-0.4c0-0.1,0-0.4,0.1-0.6
		s0.3-0.3,0.5-0.3c0.3,0,0.7,0,1,0c0.7,0.1,1.6,0.4,2.5,0.9c1,0.4,2.2,1.1,3.3,2.1c1.2,1.1,2.2,2.6,3.1,4c0.7,1,1.4,2.1,1.9,2.9
		c1.1,1.3,2.9,2,3.8,2.4l0.8,0.6l0.3,0.1l0.1,0.3c0.1,0.3,0.1,0.6,0,0.7c-0.1,0.4-0.4,0.4-0.5,0.4c-0.3,0.1-0.4,0-0.5,0l-0.7-0.1
		c-1.2-0.6-3.3-1.3-4.8-3.1c-0.8-1-1.4-2.1-2-3.1c-1-1.4-1.8-2.9-2.7-3.9c-1-0.9-1.9-1.4-2.7-2c-0.8-0.4-1.5-0.9-2.2-1l-0.5-0.1
		c0,0,0.1,0,0,0C482.3,180,482.6,179.6,482.6,179.8"/>
	<path class="st1" d="M464.2,182.3c0-0.3,0.1-0.6,0.4-0.6c0.1,0,0.4,0,0.5,0.3l-0.1-0.1h-0.3h-0.1l0,0l0.3-0.3l1.2-1.9l1.8-2.9
		c0.8-1.3,1.5-2.3,2.2-3.3c1.6-2,3.8-4.3,5.3-6.1c2.2-2.4,3.1-3.6,5-4.1c0.1-0.1,0.4,0,0.5,0.3c0,0.1,0,0.4-0.1,0.4
		c-0.8,0.4-1.2,0.9-1.8,1.6l-2.2,3c-1.6,2-4,4.3-5.4,6.1c-0.7,0.9-1.5,1.9-2.2,3l-1.9,2.9c-0.5,0.9-1.1,1.4-1.5,1.9
		c-0.3,0.1-0.4,0.4-0.7,0.4c-0.1,0-0.3,0.1-0.5,0C464.3,182.6,464.2,182.5,464.2,182.3"/>
	<path class="st1" d="M491.7,183.2c0.3-0.1,0.5-0.1,0.7,0c0.1,0.1,0.1,0.6,0,0.7l0,0v-0.1c0,0-0.1-0.3,0-0.3c0,0.1-0.3-0.3-0.1-0.1
		c0.1,0-0.1,0-0.1,0h0.3l2-0.7l4.1-1.6c1-0.4,1.8-0.7,2.5-1.1c0.7-0.3,1.2-0.7,1.5-1c0.1-0.1,0.4-0.3,0.5-0.1h0.1c0,0,0.1,0,0.1,0.1
		l0.1,0.3c0.1,0.1,0.1,0.4,0,0.6c-0.4,0.6-1,1.1-1.8,1.6c-0.8,0.4-1.8,0.9-2.7,1.1l-4.1,1.4c-0.8,0.3-1.6,0.6-2.3,0.6h-0.4
		c-0.1,0-0.4,0-0.5-0.3s-0.1-0.6,0-0.7L491.7,183.2z"/>
	<path class="st1" d="M435.6,135.9c0.3-0.1,0.5,0.1,0.7,0.4c0.1,0.3-0.1,0.6-0.4,0.7c-0.1,0-0.3,0-0.4,0l-0.4-0.1
		c-0.1-0.1-0.3-0.3-0.1-0.4c0-0.1,0.1-0.1,0.3-0.1L435.6,135.9z"/>
	<path class="st1" d="M435.4,136.7c-0.3,0.1-0.5,0-0.7-0.1c-0.1-0.3,0-0.6,0.1-0.7c0.1-0.1,0.4-0.1,0.5,0h0.1
		c0.3,0.1,0.3,0.4,0.1,0.6C435.7,136.6,435.6,136.6,435.4,136.7L435.4,136.7z"/>
	<path class="st1" d="M436.3,135.3c0.3,0,0.4,0.3,0.4,0.6s-0.3,0.4-0.5,0.4l-0.3-0.1c0,0-0.1-0.1-0.3-0.3c0-0.3,0-0.4,0.1-0.6
		c0.3-0.3,0.4-0.1,0.5-0.3l1.4-0.1c1.8-0.1,4.1,0,7.1-0.1c1.5-0.1,3.3-0.3,5.4-0.6l3.4-0.1c1.8-0.1,3.8-0.6,6-0.9l5.2-0.9
		c2.6-0.4,5.3-0.9,8.3-1.4s6.3-1.6,9.7-2.4c2.6-0.6,5.3-1.1,7.9-1.6l10.2-1.7l8.9-1.3l9-1.1c2.5-0.3,4.4-0.4,6.1-0.4h6h3.8
		c3.5-0.1,7.4-1.4,11.3-0.9c1.6,0.3,3.4-0.1,5.2-0.4c2-0.3,4.6-1,6.9-1.1c1.2-0.1,2.5,0,3.5,0s2,0,2.6-0.1h0.1h0.1c0,0-0.1,0,0,0
		l-0.1,0.1l-0.1,0.3c0-0.1,0,0.3,0,0.3v0.1l-0.3-0.1l-1-0.6c-0.1-0.1-0.3-0.3-0.1-0.4c0-0.1,0.3-0.3,0.4-0.3c1,0.3,1.5,0.3,1.9,0.6
		l0.3,0.3c0.1,0.1,0.3,0.4,0.1,0.7c-0.1,0.4-0.4,0.7-0.7,0.9c0,0-0.1,0-0.1,0.1c-0.8,0.3-1.9,0.3-3,0.3c-1.2,0-2.3,0-3.4,0
		c-2.2,0.1-4.6,0.7-6.8,1.1c-1.8,0.3-3.7,0.7-5.7,0.3c-3.5-0.6-7.2,0.7-11,0.7h-3.8H525c-1.6,0-3.7,0.1-6,0.4l-8.9,1.1l-8.9,1.3
		l-10.1,1.7c-2.6,0.4-5.2,0.9-7.8,1.6c-3.3,0.7-6.5,1.7-9.7,2.4c-3,0.6-5.9,1-8.3,1.4l-5.2,0.9c-2.2,0.3-4.4,0.7-6.1,0.9l-3.3,0.1
		c-2,0.1-3.8,0.4-5.4,0.4c-3.1,0.1-5.4,0-7.1,0l-1.2,0.1h-0.1c0,0,0.1-0.1,0.1,0l0.1-0.1l0.1-0.3c0,0,0-0.3,0-0.1
		c0,0.1-0.1-0.3-0.1-0.1L436.3,135.3C436.4,135.4,436.3,135.3,436.3,135.3L436.3,135.3z"/>
	<path class="st1" d="M559.7,107.4c0.1-0.1,0.4-0.1,0.5,0.1c0.1,0.1,0.1,0.4-0.1,0.6c0,0-0.1,0-0.1,0.1l-0.4,0.3
		c-0.1,0.1-0.4,0.1-0.5-0.1c-0.1-0.1-0.1-0.3,0-0.4L559.7,107.4z M545.6,120.1c0,0.3-0.3,0.6-0.5,0.4c-0.1,0-0.1,0-0.3-0.1
		s-0.1-0.3-0.1-0.4v-0.3l0.1-0.4l0.5-0.7c2.2-1.9,5.9-3.7,9-6.3c1.5-1.1,2.7-2.4,3.7-3.4l1-1.1l0.1-0.3l0,0v0.1v0.1
		c0,0,0.1,0.4,0,0.3c0-0.1,0.3,0.4,0.1,0.3c-0.1-0.1,0.3,0.3,0.3,0.1c-0.4-0.3-0.5-0.9-0.3-1.3c0.3-0.4,0.8-0.6,1.2-0.3l0,0
		c0.1,0.1,0.3,0.4,0.4,0.6v0.4l-0.1,0.4l-0.3,0.6l-1.1,1.3c-1,1.1-2.3,2.4-4,3.6c-3.4,2.6-7.2,4.4-9.1,6L545.6,120.1l-0.1,0.3l0,0
		l0,0C545.6,120.3,545.6,120.1,545.6,120.1 M561,107.7c0,0.6-0.4,1-1,1s-1-0.4-1-1s0.4-1,1-1C560.6,106.9,561,107.3,561,107.7"/>
	<path class="st1" d="M561.2,133.2c0.1,0.4,0,0.9-0.4,1.1c-0.4,0.1-0.8,0-1-0.4c0-0.1-0.1-0.3,0-0.4c0-0.1,0,0.3,0,0.3v0.1l-0.1-0.1
		l-0.7-0.4c-0.5-0.3-1.4-0.6-1.8-0.7c-0.1,0-0.3-0.3-0.3-0.4c0-0.1,0.1-0.3,0.3-0.3c0.5,0,1.4,0.1,2,0.3l1,0.3l0.4,0.3
		C560.9,132.7,561,132.9,561.2,133.2 M547.3,124.7c0,0.3-0.1,0.6-0.4,0.6s-0.5-0.1-0.5-0.4c-0.1-0.4-0.1-0.9-0.1-1.1
		c0-0.3,0.3-0.7,0.5-0.9c0.4-0.1,0.7-0.1,1,0l1,0.6c0.8,0.7,1.6,1.7,2.3,2.7c0.8,1.1,1.6,2.1,2.5,3.1c1.1,1.1,2.6,2,4,2.7
		c0.5,0.3,1.1,0.4,1.6,0.4l0.8,0.1h0.1l0,0c0,0-0.3,0.1-0.1,0c0.5-0.3,1.1-0.1,1.4,0.4c0.3,0.6,0.1,1.1-0.4,1.4c0,0,0,0-0.1,0
		c-0.4,0.3-0.7,0.1-1.1,0.1l-1.1-0.1c-0.5-0.1-1.2-0.3-1.9-0.6c-1.5-0.7-3.3-1.9-4.5-3.3c-1-1.1-1.8-2.4-2.5-3.4s-1.4-2-1.9-2.6
		l-0.5-0.4H547h0.1l0,0L547.3,124.7z M561.4,133.6c0,0.6-0.4,1.1-1.1,1.1c-0.5,0-1.1-0.4-1.1-1.1c0-0.6,0.4-1.1,1.1-1.1
		C560.9,132.6,561.4,133,561.4,133.6"/>
	<path class="st1" d="M530.8,140.2c0.3,0,0.7,0.1,0.7,0.6c0,0.3-0.1,0.7-0.5,0.7c-0.1,0-0.3,0-0.4-0.1c-0.1-0.1-0.4-0.4-0.8-1.1
		c-0.1-0.4-0.1-0.6-0.1-0.9v0.1v-0.1l-0.3-0.4c-0.1-0.1,0-0.4,0.1-0.6c0.1-0.1,0.4,0,0.4,0.1c0.1,0.3,0.4,0.4,0.4,0.9v-0.1l0.1,0.3
		l0.5,0.7l0.1,0.1l0,0h-0.1C530.9,140.2,530.7,140.2,530.8,140.2 M518.9,123.6c0.3,0,0.5,0.3,0.5,0.6s-0.1,0.4-0.4,0.4l0,0v0.1
		c0,0.3,0.1,0.9,0.4,1.4c0.5,1.4,1.4,3.1,2.6,4.7c1.4,2,3.1,3.7,4.6,5c1.1,0.9,1.8,1.4,2.5,1.9l1,0.6c0.7,0.4,1.2,1.1,1.6,1.9
		c0.3,0.4,0.1,1.1-0.3,1.4s-1.1,0.1-1.4-0.3c-0.3-0.4-0.7-0.9-1.1-1.1l-0.8-0.6c-0.7-0.6-1.5-1.1-2.6-2.1c-1.5-1.4-3.4-3.1-4.8-5.4
		c-1.2-1.9-2-3.7-2.5-5.4c-0.3-0.7-0.3-1.4-0.3-2c0-0.3,0.1-0.6,0.3-0.9C518.4,123.6,518.7,123.6,518.9,123.6"/>
	<path class="st1" d="M514.6,122.9c0.3,0.1,0.4,0.4,0.3,0.7c-0.1,0.3-0.3,0.4-0.5,0.4c-0.1,0-0.4-0.1-0.5-0.4s0-0.4,0-0.4l0.3-0.4
		l1-0.9c0.8-0.9,1.9-1.9,3.1-3.1c1-1,1.9-2.3,3-3.7c1.2-1.6,2.6-3.1,4-4.6c0.7-0.7,1.5-1.4,2-2c1-0.9,1.5-1.3,2.2-1.6
		c0.5-0.1,1.1-0.3,1.5-0.3c0.3,0,0.4,0,0.5,0.1c0.1,0,0.3,0.1,0.3,0.3c0,0.1,0,0.4-0.1,0.4c-0.1,0.1-0.4,0.1-0.5,0l-0.1-0.1
		c0,0,0.3,0.3,0.1,0.1h0.1c0,0,0.1,0,0,0l-0.3,0.1l-1.1,0.6c-0.4,0.3-1,0.6-1.9,1.4c-0.7,0.6-1.4,1.1-2,1.9c-1.4,1.4-2.7,3-4,4.4
		c-1.1,1.4-2.2,2.6-3.3,3.7c-1.4,1.3-2.5,2.4-3.3,3.1l-1,0.9l-0.1,0.1l0,0v-0.1c0,0,0-0.3,0-0.1c0,0.1-0.3-0.4-0.1-0.3
		C514.9,123,514.6,122.9,514.6,122.9"/>
	<path class="st1" d="M524.5,87.6c0.1,0.3,0.1,0.6,0,0.7c-0.3,0.1-0.5,0.1-0.7,0c0-0.1-0.1-0.1-0.1-0.3s0.1,0.3,0.1,0.3
		c-0.1-0.1,0.3,0.1,0.1,0.1h0.1l0,0l-0.4,0.1c-0.4,0.1-0.8,0.4-1.2,0.9c-0.1,0.1-0.4,0.1-0.5,0s-0.1-0.3,0-0.6
		c0.4-0.4,0.8-0.9,1.4-1.1l0.5-0.3l0.3-0.1C524.1,87.4,524.2,87.3,524.5,87.6 M497.8,126.6c0.3-0.1,0.5,0,0.7,0.3
		c0.1,0.3,0,0.6-0.3,0.7l-0.5,0.1c-0.1,0-0.4-0.1-0.5-0.3c-0.3-0.3-0.3-0.7-0.3-1c0.1-0.7,0.4-1.6,1-2.6l1.9-3.9l2.9-5.3
		c2.3-4.1,5.2-7.6,7.5-10.2c1.9-2.1,3.7-4.1,5-6l4.2-5.6c0.5-0.7,1.1-1.6,1.8-2.6l1.4-2l1-0.7l0.3-0.1h0.1h0.1c0.1,0,0.3,0,0.4,0.1
		c0.3,0.3,0.3,0.4,0.3,0.6l-0.1,0.3l-0.3,0.3l-0.5,0.7l-1.4,2c-0.5,1-1,1.9-1.5,2.9l-4.2,5.6c-1.5,2-3.3,4-5.3,6.1
		c-2.3,2.4-5.2,5.7-7.5,9.7l-3,5.1l-2.2,3.9c-0.5,0.9-0.8,1.7-0.8,2.1v0.1C498,126.7,498,126.6,497.8,126.6
		C498,126.7,497.8,126.6,497.8,126.6L497.8,126.6z"/>
	<path class="st1" d="M514.4,102.8c-0.3-0.1-0.4-0.4-0.3-0.7c0.1-0.3,0.3-0.3,0.5-0.3h-0.1l0.4-0.1l1.1-0.6c0.8-0.6,1.9-1.1,3.1-1.7
		c2.7-1.1,5.4-1.9,7.8-2.1l4.4-0.4h0.1l0.8,0.1c0.3,0,0.4,0.3,0.4,0.4s0,0.1-0.1,0.3l-0.8,0.6h-0.1l-4.4,0.6
		c-2.3,0.3-4.9,0.7-7.5,1.9c-1.2,0.4-2.3,1-3.1,1.4l-1.1,0.6C515,102.8,514.9,103,514.4,102.8"/>
	<path class="st1" d="M504.4,152.3c0.4,0,0.5,0.4,0.5,0.7s-0.4,0.6-0.7,0.6s-0.5-0.4-0.5-0.7s0.1-0.4,0.3-0.6c0.1,0-0.3,0.1-0.1,0.1
		c0-0.1-0.1,0.3-0.1,0.1v0.1v0.3c0,0-1.1-0.9-1.8-1.6c-0.1-0.1-0.1-0.4,0-0.6c0.1-0.1,0.3-0.1,0.4,0c0.5,0.4,1.6,0.7,2.3,1.3
		L504.4,152.3L504.4,152.3z M481.6,133.4c-0.3,0-0.5-0.3-0.5-0.6s0.1-0.4,0.4-0.6c0.4,0,0.8,0.1,1.2,0.3c0.4,0.3,0.8,0.6,1.1,1
		l2.7,3.3c2.2,2.4,6.1,5.3,9.8,8.1c1.6,1.3,3.1,2.6,4.4,3.6l1.5,1.4l1.8,2l0.1,0.1l0.1,0.1c0,0-0.1-0.1,0.1,0.1c0,0,0.1,0.1,0.1,0.3
		c0.1,0.4,0,0.7-0.1,0.9l-0.4,0.3c-0.4,0.1-0.8,0-1.2-0.1l-0.1-0.1l-1.9-1.9l-1.4-1.4c-1.1-1-2.6-2.3-4.2-3.6
		c-3.7-2.9-7.6-5.7-9.9-8.4c-1.1-1.4-1.9-2.6-2.6-3.4l-0.8-1C482,133.6,481.9,133.4,481.6,133.4"/>
	<path class="st1" d="M512,136.3c-0.3-0.3-0.1-0.6,0-0.9c0.1-0.3,0.5-0.1,0.8,0c0.1,0.3,0.1,0.6,0,0.9c-0.1,0.1-0.3,0.1-0.4,0.1
		c-0.1,0,0.1,0,0.1,0h0.1l-0.1,0.1l-1.4,0.7c-0.1,0.1-0.4,0-0.5-0.1s0-0.4,0.1-0.4l1.2-0.9l0.1-0.1v0.1c0,0,0,0.3,0,0.1
		c0,0,0,0.3,0,0.1v0.1C511.9,136,512,136.3,512,136.3 M498.2,147.5c0.3,0.1,0.4,0.4,0.3,0.7c-0.1,0.3-0.4,0.4-0.7,0.3
		c-0.4-0.1-0.8-0.4-1.1-0.7s-0.4-0.9-0.4-1.3c0-0.9,0.5-1.9,1.5-2.9c1.2-1.3,3.1-2.4,5-3.6l2.9-1.6l4.2-2.3l1.4-0.6
		c0.4-0.1,0.5-0.3,1-0.1c0.1,0,0.3-0.1,0.4,0.4c0,0.1,0,0.3,0,0.4c-0.1,0.3-0.1,0.3-0.1,0.3l-1.9,1.1l-4.4,2.3l-2.9,1.4
		c-1.9,1-3.8,2.1-4.9,3.3c-0.8,0.7-1.2,1.4-1.2,1.9c0,0.1,0,0.4,0.1,0.6C497.7,147.2,498,147.3,498.2,147.5"/>
	<path class="st1" d="M494.4,149c-0.3-0.1-0.3-0.6,0-0.7c0.1-0.1,0.4-0.3,0.7-0.1c1.2,0.9,2,2.7,2.6,4.6c0.3,1.4,0.4,2.7,0.5,4
		l0.3,2.7l0.3,1c0,0.1,0.1,0.3,0.1,0.4v0.1c0.1,0.1,0.1,0.4,0,0.6c0,0,0,0-0.1,0c-0.3,0.1-0.5,0.1-1,0c-0.1,0-0.3-0.1-0.3-0.3
		c-0.3-0.4-0.5-0.9-0.7-1.4c-0.1-0.9-0.3-1.9-0.3-2.9c-0.1-1.3-0.1-2.6-0.4-3.7C495.8,151.5,495.1,149.7,494.4,149"/>
	<path class="st1" d="M434.1,105.7c-0.4,0.1-0.7,0-0.8-0.4c-0.1-0.4,0-0.7,0.4-0.9l122.6-47.7c0.4-0.1,0.7,0,0.8,0.4s0,0.7-0.4,0.9
		L434.1,105.7z"/>
	<path class="st1" d="M554.5,58.4c-0.3,0-0.5-0.3-0.5-0.6s0.1-0.6,0.4-0.6s1.6-0.7,3-1.6l3.1-1.4l0.5-0.1c0.1,0,0.3-0.3,0.5,0
		c0.1,0.1,0.1,0.4,0.1,0.6c-0.1,0.3-0.1,0.1-0.3,0.3l-0.5,0.3c-0.1,0.1-0.4,0-0.5-0.1s0-0.4,0.1-0.4l0.4-0.3c0,0,0,0.1,0,0v0.1v0.1
		v0.1c0-0.1,0.3,0.1,0.1,0.1h0.1h0.1H561l-0.4,0.1l-3,1.6C556.5,57.5,555.4,58.4,554.5,58.4"/>
	<path class="st1" d="M564.3,71.3c0.3-0.1,0.5,0,0.7,0.3c0.1,0.3,0,0.6-0.3,0.7s-0.5,0-0.7-0.3c0-0.1,0-0.3,0-0.4v0.1
		c0-0.1,0,0.3,0,0.1l0,0l-0.3-0.3c-0.1-0.1-0.1-0.4,0-0.6c0.1-0.1,0.3-0.1,0.4,0l0.4,0.1C564.4,71.3,564.3,71.3,564.3,71.3
		L564.3,71.3z M550.4,61c0.1,0.3,0.1,0.6,0,0.7c-0.3,0.1-0.5,0.1-0.7,0c0,0,0-0.1-0.1-0.1l-0.1-0.3l0.1-0.3c0.1-0.1,0.3-0.1,0.4-0.1
		L550.4,61L550.4,61l-0.4-0.2c0.3-0.1,0.7-0.1,1,0c0.1,0,0.1,0,0.3,0.1c2,1.1,5.4,3.3,8.3,5.3c1.5,1,2.6,2.1,3.5,2.9l1.1,0.9
		l0.8,0.7c0.4,0.4,0.5,1.1,0.1,1.6c-0.3,0.4-1,0.6-1.4,0.3l-1-0.6l-1.2-1c-1.1-0.9-2-1.9-3.4-2.9c-2.7-2.1-6-4.3-7.9-5.7
		c-0.1,0-0.1-0.1-0.3-0.3c-0.1-0.3-0.4-0.4-0.4-0.7l0.4,0.3h0.1c0,0,0.3-0.3,0.3-0.1c0,0,0.1-0.3,0.1-0.1c0,0.1,0-0.3,0-0.1
		C550.4,61.2,550.3,61,550.4,61"/>
	<path class="st1" d="M550.5,67.3c0.3,0,0.5,0.1,0.5,0.4s-0.1,0.6-0.4,0.6l0,0c-2.7,0-4.8-2-7.2-1.1c-0.1,0-0.4,0-0.4-0.3
		c0-0.1,0-0.4,0.3-0.4c1.5-0.4,2.9-0.3,4,0.1C548.4,66.8,549.4,67.3,550.5,67.3"/>
	<path class="st1" d="M563.1,62.5c0.3-0.3,0.5-0.3,0.8,0s0.3,0.6,0,0.9s-0.5,0.3-0.8,0c-0.1-0.1-0.1-0.3-0.1-0.6c0-0.1,0,0.3,0,0.3
		c0-0.1,0.1,0.3,0.1,0.1l0.1,0.1c-0.1,0,0.1,0.1,0.1,0.1l-1.1,0.1c-0.1,0-0.4-0.1-0.4-0.3c0-0.1,0-0.4,0.3-0.4L563.1,62.5
		L563.1,62.5C563.2,62.4,562.9,62.5,563.1,62.5 M556.9,66.2c0.3,0.1,0.4,0.4,0.4,0.7c0,0.3-0.3,0.4-0.5,0.4c-0.1,0-0.4-0.1-0.5-0.3
		c-0.1-0.3,0-0.4,0-0.6c0.1-0.3,0.3-0.4,0.5-0.6c1-0.9,2.3-1.4,3.5-2l2.3-1.3c0,0,0.1,0,0.1-0.1l0.4-0.1h0.3c0.1,0,0.3,0,0.3,0.1
		c0.4,0.3,0.3,0.6,0.3,0.6l-0.1,0.3c-0.1,0.3-0.3,0.4-0.4,0.6c0,0-0.1,0-0.1,0.1l-2.6,1.1c-1.2,0.6-2.6,1-3.4,1.6l-0.3,0.1l0,0
		c0,0,0-0.4,0-0.3C557.2,66.7,556.9,66.2,556.9,66.2C557.1,66.4,556.9,66.2,556.9,66.2"/>
	<path class="st1" d="M541,63.7c-0.3-0.3-0.4-0.7-0.1-1c0.3-0.3,0.7-0.4,1-0.1l28.7,22.2c0.3,0.3,0.4,0.7,0.1,1
		c-0.3,0.3-0.7,0.4-1,0.1L541,63.7z"/>
	<path class="st1" d="M560.8,78.8c-0.1-0.3,0-0.7,0.3-1c0.3-0.1,0.7,0,1,0.3l10.4,23.6c0.1,0.3,0,0.7-0.3,1c-0.3,0.1-0.7,0-1-0.3
		L560.8,78.8z"/>
	<path class="st1" d="M567.7,76.3c0.1-0.3,0.5-0.3,0.8-0.1c0.3,0.1,0.3,0.6,0.1,0.9c-0.1,0.3-0.5,0.3-0.8,0.1
		c-0.1-0.1-0.3-0.3-0.3-0.4s0,0.3,0,0.3v0.1l0.1,0.1l0,0h-0.5c-0.1,0-0.4-0.1-0.4-0.3c0-0.1,0.1-0.3,0.3-0.4L567.7,76.3L567.7,76.3
		C567.8,76.1,567.6,76.3,567.7,76.3 M561,79.7c0.1-0.3,0.4-0.3,0.7-0.1c0.1,0.1,0.3,0.3,0.3,0.6v-0.4c0,0.1-0.1-0.3-0.1-0.3
		l-0.1-0.1c0.1,0-0.3,0-0.1,0h-0.1l0,0l0,0l0.4-0.1l1.2-0.6c1-0.4,1.9-1,2.9-1.6l1.9-1c0.1-0.1,0.3-0.1,0.4-0.3h0.3
		c0.1,0,0.3,0.1,0.3,0.3c0.3,0.3,0.1,0.4,0.1,0.6c0,0.1-0.1,0.3-0.3,0.4c-0.5,0.4-1.2,0.7-2.2,1.1s-1.9,1-3,1.4l-1.2,0.4l-0.4,0.1
		h-0.3h-0.3c-0.1,0-0.3-0.1-0.3-0.4C560.9,79.8,560.9,79.7,561,79.7"/>
	<path class="st1" d="M554.5,87.4c0.1,0.3,0.1,0.6,0,0.7c-0.3,0.1-0.5,0.1-0.7,0c-0.1-0.1-0.1-0.3-0.1-0.3v0.1l-0.8-1.1
		c-0.1-0.1-0.1-0.4,0-0.6s0.4-0.1,0.4,0L554.5,87.4z M527.2,72.5c0.1,0.3,0,0.6-0.1,0.7c-0.3,0.1-0.5,0.1-0.7-0.1l-0.3-0.4
		c0-0.1-0.1-0.6,0.1-0.7c0.4-0.4,0.8-0.3,1.1-0.1c0.7,0.1,1.6,0.7,2.9,1.3c2.6,1.4,6,3.4,9.5,5.7c3.5,2.3,7.2,4.3,10.1,5.7l3.4,1.7
		l1,0.6c0.3,0.1,0.5,0.4,0.5,0.7c0,0.1,0.1,0.1,0,0.6c0,0.1,0,0.1-0.1,0.3c-0.3,0.4-0.4,0.4-0.5,0.4c-0.3,0.1-0.7,0.1-1,0l-1.1-0.6
		l-3.5-1.9c-2.9-1.6-6.5-3.6-10.2-5.9c-3.5-2.4-6.8-4.6-9.3-6l-2.5-1.4l-0.3-0.1c0,0,0.3,0,0.1,0c-0.1,0,0.3-0.3,0.3-0.3
		C527.1,72.7,527.1,72.4,527.2,72.5L527.2,72.5L527.2,72.5z"/>
	<path class="st1" d="M544.8,80.7c0.1-0.1,0.5-0.1,0.7,0c0.1,0.1,0.1,0.6,0,0.7l0,0l0.1-0.1v0.1v0.4l0.1,1.9l0.7,5.3l0.8,5.4
		c0.3,1.4,0.4,2.4,0.4,3c0,0.3-0.3,0.4-0.4,0.4c-0.3,0-0.4-0.1-0.4-0.4l-0.4-2.7l-0.8-5.4l-0.6-5.5l-0.1-1.9
		C544.5,81.4,544.4,81.1,544.8,80.7"/>
	<path class="st1" d="M557.5,83.3c-0.3-0.3-0.3-0.7,0-1s0.7-0.3,1,0s0.3,0.7,0,1c-0.3,0.1-0.5,0.3-0.8,0.1c-0.1,0,0.1,0,0.1,0
		c-0.1,0,0.1,0,0.1,0l-1,0.3c-0.1,0.1-0.4,0-0.4-0.3c0-0.1,0-0.3,0.1-0.4l0.5-0.6v0.1c0,0,0,0.3,0,0.1v0.2
		C557.3,83,557.5,83.4,557.5,83.3 M548.9,85.4c-0.3,0.1-0.5-0.1-0.7-0.3c-0.1-0.3,0-0.6,0.3-0.6c1.6-0.7,3.8-1.3,5.7-1.9l1.9-0.4
		c0.7-0.1,1.1-0.3,1.8-0.3c0.3,0,0.5,0.1,0.7,0.4l0.1,0.4c0,0.1,0,0.3,0,0.4l-0.1,0.3c-0.1,0.3-0.4,0.3-0.8,0.3l0,0l-1.2,0.3
		l-1.9,0.3C552.7,84.5,550.4,85,548.9,85.4"/>
	<path class="st1" d="M494.8,104.3c0.3-0.3,0.7-0.1,0.8,0.1c0.3,0.3,0.1,0.7-0.1,0.9c-0.1,0-0.1,0.1-0.3,0.1c-0.4,0-0.8,0-1.2-0.3
		c-0.5-0.3-1-0.6-1.4-1.3c-0.1-0.1,0-0.4,0.1-0.6c0.1-0.1,0.4,0,0.4,0.1c0.3,0.4,0.7,0.6,1.1,0.7L494.8,104.3L494.8,104.3
		L494.8,104.3z M465.5,95.6c0,0.3-0.3,0.4-0.5,0.4c-0.3,0-0.4-0.3-0.4-0.6c0.1-0.9,0.5-1.7,1.2-2.1s1.6-0.4,2.7-0.1
		c1.5,0.4,3.4,1.4,5.4,2.6c2.2,1.1,4.5,2.6,6.9,3.7c2,0.9,3.8,1.7,5.6,2.3l4.2,1.3c1.1,0.3,1.9,0.6,2.7,0.6h1l0.8,0.1
		c0.4,0,0.7,0.3,0.8,0.6c0,0.1,0.1,0.1,0.1,0.6c0,0.1,0,0.1,0,0.3c-0.1,0.3-0.1,0.4-0.3,0.4c-0.3,0.3-0.5,0.4-1,0.4H494h-1.2
		c-1-0.1-1.9-0.4-3-0.7l-4.4-1.4c-1.8-0.6-3.7-1.4-5.7-2.4c-2.5-1.3-4.8-2.7-6.9-3.9c-2-1.3-3.8-2.3-5-2.7c-0.8-0.3-1.4-0.3-1.8-0.1
		C465.9,94.6,465.7,94.8,465.5,95.6"/>
	<path class="st1" d="M484.5,101.7c-0.1,0.1-0.4,0-0.5-0.1c-0.3-0.1-0.3-0.4-0.3-0.6v-0.2l0.1-0.3l1.1-0.7l6-3.4l4.9-2.6l2.3-1h0.1
		h0.5c0.1,0,0.5,0,0.8,0.4c0.1,0.3,0.1,0.9,0,1l-0.1,0.1l-0.3,0.1l-3,1.9c-0.1,0.1-0.4,0-0.5-0.1s0-0.4,0.1-0.4
		c1.5-1.1,2.3-1.9,2.5-2.1l0,0l0,0c0,0,0,0.3,0,0.1c0-0.1,0.1,0.4,0.1,0.3s0.4,0.4,0.3,0.3c-0.1,0,0.4,0.1,0.3,0.1
		c-0.1,0,0.3,0,0.3,0h0.1l-0.4,0.1h-0.1l-2.2,0.9l-4.9,2.4l-6,3.1L484.5,101.7L484.5,101.7L484.5,101.7z M484.3,100.6
		c0.3,0,0.5,0.1,0.5,0.4s0,0.4-0.3,0.6l-0.3,0.1l0,0c-0.3,0.1-0.5,0-0.7-0.3s0-0.6,0.3-0.7s0.5,0,0.7,0.3c0,0.1,0,0.1,0,0.3
		s-0.1-0.3,0-0.3c0,0.1-0.1-0.3-0.1-0.1C484.6,100.8,484.3,100.6,484.3,100.6C484.5,100.6,484.2,100.6,484.3,100.6L484.3,100.6z"/>
	<path class="st1" d="M494.7,113.3c0.3,0.3,0.1,0.9-0.3,1c-0.3,0.1-0.8,0.1-1-0.3c-0.1-0.4-0.1-0.9,0.3-1c0.3-0.1,0.7-0.1,0.8,0.1
		l-0.1-0.1c0.1,0-0.3-0.1-0.3-0.1H494l0.1-0.1c0.1-0.1,0.4-0.1,0.5,0c0,0,0.1,0.1,0.1,0.3v0.3L494.7,113.3L494.7,113.3
		C494.8,113.3,494.7,113.1,494.7,113.3 M486.4,103.3c-0.1,0.3-0.4,0.4-0.7,0.4s-0.4-0.3-0.4-0.4s-0.1-0.4,0.3-0.6
		c0.4-0.3,0.5,0,0.7,0.1l0.5,0.6l1.2,2c1.1,1.7,2.7,3.3,4,4.7l1.6,2l0.5,0.9l0,0H494h-0.3c0.5,0,0.8,0.6,0.8,1s-0.5,0.9-1,0.9
		s-0.8-0.4-1-0.6l-0.5-0.9l-1.5-2c-1.2-1.4-2.9-3.1-4-5.1l-1.1-2.1l-0.3-0.6l0,0c0,0,0.3,0.1,0.1,0.1s0.4,0,0.3,0
		c-0.1,0,0.3-0.1,0.1-0.1C486.2,103.6,486.4,103.3,486.4,103.3L486.4,103.3z M494.8,113.7c0,0.6-0.4,1-1,1c-0.5,0-1-0.4-1-1
		s0.4-1,1-1C494.4,112.7,494.8,113.1,494.8,113.7"/>
	<path class="st1" d="M434.1,53.2c-0.3,0.1-0.7,0-0.8-0.4c-0.1-0.4,0-0.7,0.4-0.9L534.2,7.4c0.3-0.1,0.7,0,0.8,0.4
		c0.1,0.3,0,0.7-0.4,0.9L434.1,53.2z"/>
	<path class="st1" d="M504.8,19.8c0.3-0.1,0.5,0,0.7,0.1s0.1,0.4-0.1,0.6l-0.1,0.1l0,0c0,0,0,0.1-0.3,0.1s-0.5-0.3-0.5-0.4V20
		l0.1-0.3l0.5-1c0.5-0.7,1.2-1.6,1.9-2.7c1.6-2.6,3.3-6.7,4.9-10.4c0.8-1.7,1.6-3.1,2.2-4.3c0.5-1,0.8-1.7,1.1-2.3l0.5-1.3l0.5-0.9
		l0.1-0.3l0,0c0,0-0.1,0.1,0,0.1c0.1-0.6,0.8-0.9,1.4-0.6c0.5,0.1,0.8,0.9,0.5,1.4c-0.1,0.3-0.3,0.4-0.4,0.6l0.1-0.1h0.1l0,0v0.3
		l-0.4,0.6L517,0.1l-1.2,2.4c-0.7,1.1-1.5,2.4-2.3,4.1c-1.8,3.4-3.4,7.7-5.3,10.4c-0.8,1.1-1.6,2-2,2.7l-0.7,0.7v0.1l0,0
		c0,0,0.1-0.3,0.1-0.1v-0.3c0,0.1-0.1-0.3-0.1-0.1c0,0.1-0.3-0.3-0.3-0.1c0.1,0-0.3,0-0.3,0L504.8,19.8
		C504.8,19.8,504.8,19.9,504.8,19.8 M518.1-2.5c0,0.6-0.4,1-1,1c-0.5,0-1-0.4-1-1s0.4-1,1-1C517.7-3.5,518.1-3.1,518.1-2.5"/>
	<path class="st1" d="M541.8,19.1c0.3,0.3,0.4,0.7,0.1,1c-0.3,0.3-0.7,0.4-1,0.1s-0.4-0.7-0.1-1C541.1,19.1,541.4,18.9,541.8,19.1
		l-0.3-0.1c0.1,0-0.1,0-0.1,0h-0.1C541.4,18.9,541.7,18.9,541.8,19.1L541.8,19.1L541.8,19.1L541.8,19.1L541.8,19.1L541.8,19.1z
		 M518.9,18.1c-0.3,0-0.4-0.3-0.4-0.6s0.3-0.4,0.5-0.4l3.7-0.3l5.4-0.4c2.9-0.1,5.3,0.3,7.6,1.1l3.4,1l1.2,0.3h0.4h-0.1
		c0.5-0.3,1.2,0.1,1.4,0.7c0.3,0.6-0.1,1.3-0.7,1.4h-0.1h-0.5l-0.8-0.1l-1.4-0.4l-3.4-1.1c-2.2-0.7-4.4-1.3-6.9-1.3h-5.6
		C521,18.2,519.6,18.2,518.9,18.1 M542.2,19.9c0,0.6-0.5,1.1-1.1,1.1s-1.1-0.6-1.1-1.1c0-0.6,0.5-1.1,1.1-1.1S542.2,19.4,542.2,19.9
		"/>
	<path class="st1" d="M530.8,67.5c-0.1,0.1-0.5,0.1-0.7,0c-0.1-0.1-0.1-0.4-0.1-0.7l1.5-2.9c0.7-1.3,1.6-3,2.9-5l2.3-3.4
		c1.9-2.7,3.5-4.6,5.2-6.6l5-6.3c1.5-1.9,2.2-3.1,3-4.3l1-1.3l1.2-1.6l0.3-0.4l0,0l0,0v0.1c0-0.3,0.1-0.6,0.3-0.7l0,0
		c0,0-0.1,0.3-0.1,0.1c0,0-0.1,0.6-0.1,0.4s0.1,0.6,0.1,0.4c0-0.1,0.3,0.3,0.1,0.3c-0.1,0,0.1,0.1,0.1,0.1c-0.3,0-1,0.1-1.9,0.4
		c-0.1,0-0.4,0-0.4-0.3c0-0.1,0-0.3,0.1-0.4l1.9-1.3l0.4-0.3c0,0,0.3-0.1,0.5-0.1c0.3,0,0.5,0.3,0.8,0.4c0.1,0.3,0.3,0.6,0.3,0.9
		c0,0.7-0.4,1-0.7,1.4l-1.2,1.7l-1,1.1c-0.8,1.1-1.5,2.4-3.1,4.3l-5.2,6.1c-1.8,2-3.4,3.7-5.3,6.3l-2.3,3.3l-3,4.7
		C531.9,66.2,531.3,67,530.8,67.5"/>
	<path class="st1" d="M521.1,47.5c0.4-0.3,0.8-0.3,1.2,0.1c0.3,0.4,0.3,0.9-0.1,1.3c-0.4,0.4-0.8,0.3-1.2-0.1
		c-0.3-0.3-0.3-0.7-0.1-1c0-0.1-0.1,0.3-0.1,0.3c0-0.1,0,0.3,0,0.3c0-0.1,0,0.3,0,0.1v0.1l0.1,0.1l0,0c-0.1-0.1-0.7-0.3-1.4-0.4
		c-0.1,0-0.3-0.3-0.3-0.4c0-0.1,0.1-0.3,0.3-0.3L521.1,47.5L521.1,47.5L521.1,47.5L521.1,47.5L521.1,47.5
		C521.3,47.4,521,47.5,521.1,47.5 M476.2,37.4c0.3-0.1,0.5,0.1,0.7,0.4c0.1,0.3,0,0.6-0.3,0.6h-0.1v-0.1c0,0,0-0.4,0-0.3
		c0,0.1-0.1-0.3-0.1-0.3l-0.1-0.1l0,0l1.4,0.1l4.6,0.6c1.5,0.1,3,0.6,4.6,0.9l3.4,0.9c1.8,0.4,3.7,0.6,5.7,0.9c3,0.4,5.7,1.1,8,1.9
		c2.3,0.7,4.5,1.6,6.5,2.4c2.2,0.9,4.4,1.6,6.3,1.7c1.1,0.1,2.2,0.1,3.3,0.1h1.4c0.1,0,0.3,0,0.4,0l0.4,0.1l0.3,0.3
		c0.1,0.1,0.1,0.3,0.1,0.4c0,0.3,0,0.4,0,0.6c-0.1,0.6-0.4,0.6-0.7,0.7c-0.1,0-0.3,0.1-0.4,0.1H520c-1,0-2.3,0-3.5-0.1
		c-2.2-0.3-4.5-1.1-6.8-2c-4-1.7-8.3-3.4-14.2-4.3c-1.9-0.3-4-0.6-5.9-1l-3.4-0.9c-1.6-0.4-3-0.9-4.4-1.1l-4.5-0.7
		c-0.7-0.1-1.1-0.1-1.5-0.4l-0.3-0.3c-0.1-0.1-0.3-0.4-0.1-0.7c0.1-0.3,0.3-0.3,0.3-0.4L476.2,37.4z"/>
	<path class="st1" d="M516.5,47.5c0.3-0.1,0.5,0,0.7,0.3c0.1,0.3,0,0.6-0.3,0.7c-0.3,0.1-0.4,0.1-0.7,0.1c-0.1,0-0.4-0.3-0.4-0.4
		v-0.4c0.1-0.4,0.4-0.7,0.7-1c0.5-0.6,1.4-1.3,2.5-2.1l4-2.9l6.3-4.1l3.1-2c1.5-1,2.7-1.6,3.8-2.1l3.3-1.9l1.2-0.7
		c0.1-0.1,0.3-0.1,0.4-0.1l0,0c0,0-0.3,0.1-0.1,0.1c0.1-0.1-0.1,0.4-0.1,0.3c0-0.1,0,0.3,0,0.3l0,0l-0.1-0.1
		c-0.1-0.1-0.3-0.3-0.1-0.6c0-0.1,0.1-0.1,0.3-0.1h0.7c0.1,0,0.4,0.1,0.5,0.4c0.1,0.3,0.1,0.6,0,0.9c0,0.1-0.1,0.3-0.3,0.4
		c-0.4,0.4-1,0.7-1.6,1l-3.3,1.9c-1.1,0.6-2.3,1.1-3.7,2.1l-3.3,2l-6.3,4l-4.2,2.7c-1.1,0.7-1.9,1.3-2.3,1.9l-0.4,0.6l0,0v-0.1
		c0,0-0.1-0.3-0.1-0.1C516.6,47.8,516.3,47.7,516.5,47.5L516.5,47.5L516.5,47.5z"/>
	<path class="st1" d="M533.2,51.1c-0.1-0.3-0.1-0.6,0.1-0.9c0.3-0.1,0.5-0.1,0.8,0.1c0.1,0.3,0.1,0.6-0.1,0.9
		C533.9,51.4,533.6,51.4,533.2,51.1l0.3,0.1c0,0,0.1,0,0,0l0,0c-0.1,0-0.4-0.1-0.3-0.4v-0.1v0.1v0.1C533.2,51,533.4,51.2,533.2,51.1
		 M518.8,50.7c0.1-0.3,0.4-0.4,0.7-0.3c0.3,0.1,0.4,0.4,0.3,0.6c0,0-0.1-0.3,0-0.1l0,0l1.1,0.1c1.1,0,2.7-0.3,4.4-0.6
		c1.9-0.3,3.7-0.6,5.2-0.7h1.6h1.4h0.4c0.1,0,0.4,0,0.7,0.6c0.3,0.4,0,1-0.4,1.1c-0.4,0.3-1,0-1.1-0.4l0,0c0-0.1,0.3,0.3,0.1,0.3
		c-0.1-0.1,0.3,0.1,0.1,0.1h0.1h-0.1H532h-1.6c-1.4,0-3.1,0.1-5,0.4c-1.8,0.3-3.4,0.4-4.6,0.3c-0.5,0-1.1,0-1.5-0.3
		c-0.3-0.1-0.4-0.3-0.5-0.4C518.7,51.1,518.8,50.8,518.8,50.7 M534.7,50.7c0,0.4-0.4,0.9-0.8,0.9s-0.8-0.4-0.8-0.9
		c0-0.4,0.4-0.9,0.8-0.9C534.3,49.7,534.7,50.1,534.7,50.7"/>
	<path class="st1" d="M436.3,78c-0.3,0.1-0.5,0-0.7-0.3c-0.1-0.3,0-0.6,0.3-0.7l2.7-1.4c2.2-1,5.7-2.1,9.1-3.6
		c2-0.9,3.8-1.6,5.3-2.3l2.2-1l1-0.4c0.4-0.1,0.8,0.1,1,0.6c0.1,0.3,0,0.7-0.4,0.9l-0.8,0.4l-2.2,1c-1.5,0.7-3.3,1.4-5.4,2.3
		c-3.5,1.3-7.2,2.4-9.1,3.3L436.3,78z"/>
	<path class="st1" d="M463.8,55.1c-0.1-0.3,0-0.6,0.3-0.7c0.3-0.1,0.5,0,0.7,0.3c0,0.1,0,0.1,0,0.3c0,0.3-0.1,0.6-0.3,0.9l-0.8,1.6
		c-0.1,0.1-0.3,0.3-0.5,0.1c-0.1-0.1-0.3-0.3-0.1-0.4l0.5-1.6L463.8,55.1L463.8,55.1L463.8,55.1z M448.2,71.8c0-0.1,0-0.4,0.1-0.6
		v-0.1l0.3-0.3l2.2-2.6c1.4-1.4,3.1-2.9,4.6-4.4c2.3-2.3,3.8-4.6,5-6.7c0.7-1,1.4-2,1.9-2.6l0.7-0.6l0.4-0.3c0.1,0,0.4-0.1,0.8,0
		c0.5,0.1,0.7,0.7,0.5,1.3c-0.1,0.4-0.5,0.7-1,0.6c-0.1,0,0.4,0,0.3,0h0.1l0,0l-0.4,0.4c-0.5,0.6-1.1,1.4-1.8,2.4
		c-1.4,2-3.1,4.4-5.6,6.7c-1.6,1.4-3.4,2.9-4.8,4.1l-2.3,2.4l-0.3,0.3l-0.1,0.1h-0.1h-0.3C448.5,72.3,448.4,72.1,448.2,71.8
		 M448.8,70.8c0.1-0.3,0.5-0.3,0.7-0.1c0.3,0.1,0.3,0.4,0.1,0.7l-0.1,0.4l0,0v-0.1c0,0,0-0.3,0-0.1c0,0-0.1-0.3-0.1-0.1
		c0,0-0.3-0.3-0.3-0.1h-0.3c0.3,0,0.5,0.3,0.5,0.6c0,0.3-0.3,0.6-0.5,0.6s-0.5-0.3-0.5-0.6c0-0.1,0-0.3,0.1-0.3l0.1-0.1L448.8,70.8z
		"/>
	<path class="st1" d="M451.4,72.1c-0.3,0-0.4-0.3-0.4-0.6s0.3-0.4,0.5-0.4c1.8,0,4.4,0.4,7.2,1.1c2.2,0.6,3.8,1.6,5.3,2.3l1.5,0.9
		l1.1,0.4h0.3l0,0l-0.1,0.1c0-0.1,0.1-0.1,0.3-0.1c0.1,0-0.1,0.1-0.1,0.1l0,0v-0.7c0-0.1,0-0.4,0.3-0.4c0.1,0,0.3,0,0.4,0.1l0.3,0.9
		c0.1,0.3,0.1,0.4,0.1,0.7c0,0.1,0,0.3-0.1,0.3c-0.1,0.3-0.5,0.6-0.8,0.7s-0.5,0.1-0.8,0c-0.5,0-1.1-0.3-1.5-0.4l-1.6-0.9
		c-1.4-0.9-2.9-1.7-4.8-2.3C455.5,73,452.9,72.3,451.4,72.1"/>
	<path class="st1" d="M477.3,61.4c0.1-0.3,0.4-0.4,0.5-0.3c0.3,0.1,0.4,0.4,0.3,0.6c-0.1,0.3-0.4,0.4-0.5,0.3
		c-0.1,0-0.3-0.1-0.3-0.3l0.1,0.1c0-0.1,0.1,0.1,0.1,0.1h0.1h-0.4c-0.1,0-0.4-0.1-0.4-0.3s0.1-0.3,0.3-0.4l0.4-0.1h0.1
		c0,0-0.1,0.1,0,0l0,0C477.4,61.1,477.3,61.5,477.3,61.4 M459.1,71.3c-0.1-0.3-0.1-0.6,0.1-0.7c0.1-0.1,0.4-0.1,0.7,0
		c0.1,0.1,0.3,0.1,0.4,0.1l1-0.3c0.8-0.3,1.9-1,3.1-1.7l4.2-2.6c2-1.3,3.5-2.3,4.6-3l1.1-0.9l1.4-0.9c0.7-0.3,1.4-0.6,1.8-0.6h0.3
		c0,0,0.1,0,0.3,0.1s0.1,0.1,0.1,0.3c0,0.3,0,0.3,0,0.4c-0.1,0.3-0.3,0.3-0.3,0.3l-1.4,0.9l-1.1,0.9l-1.1,1l-4.8,3l-4.2,2.4
		c-1.4,0.7-2.5,1.3-3.5,1.6c-0.5,0.1-1,0.1-1.4,0.1C459.8,71.8,459.4,71.7,459.1,71.3"/>
	<path class="st1" d="M483.8,68.1c0.4-0.1,0.8,0,1,0.4c0.1,0.4,0,0.9-0.4,1s-0.8,0-1-0.4c-0.1-0.3,0-0.6,0.1-0.9l-0.1,0.1
		c0.1-0.1-0.1,0.4-0.1,0.3s0,0.3,0,0.3c0-0.1,0.1,0.1,0.1,0.1l0,0c-0.1-0.1-0.5-0.3-1.1-0.4c-0.1,0-0.3-0.3-0.3-0.4s0.1-0.3,0.4-0.3
		L483.8,68.1L483.8,68.1L483.8,68.1L483.8,68.1L483.8,68.1z M470.9,67.5c0.3-0.1,0.5,0,0.7,0.3c0.1,0.1,0,0.4-0.1,0.6l0,0v-0.1v-0.1
		c0,0.1,0-0.3,0-0.3s-0.1-0.3-0.1-0.1c0,0.1-0.3-0.1-0.1-0.1H471l0,0h0.1l1.6-0.1c1.6-0.1,3.4-0.4,5.2-0.1c1.2,0.1,2.5,0.6,3.5,0.7
		c1.1,0.1,2,0.3,2,0.1c0.1,0,0.4,0,0.5,0l0.3,0.1c0.1,0.1,0.1,0.1,0.3,0.3c0.1,0.4,0.1,0.6,0,0.7c0,0.1-0.1,0.3-0.3,0.4
		c-0.5,0.3-0.8,0.3-1.4,0.3h-1.6c-1.4-0.1-2.6-0.6-3.7-0.7c-1.5-0.3-3.1-0.1-4.9-0.1l-1.8-0.1c-0.3,0-0.5,0-0.7-0.4
		c-0.1-0.3,0-0.7,0.1-0.9L470.9,67.5z"/>
	<path class="st1" d="M496.1,54.7c0.1-0.3,0.5-0.4,1-0.3c0.3,0.1,0.4,0.6,0.3,1c-0.1,0.3-0.5,0.4-1,0.3c-0.3-0.1-0.4-0.3-0.4-0.6
		c0-0.1,0.1,0.3,0.1,0.3l0.1,0.1c-0.1-0.1,0.3,0.1,0.1,0.1h0.1h0.1c-0.5,0.1-1.9,1-2.2,1.4c-0.1,0.1-0.4,0.1-0.5,0s-0.1-0.3-0.1-0.4
		c0.4-0.9,1.5-1.7,2.3-2.1L496.1,54.7L496.1,54.7L496.1,54.7L496.1,54.7z M479.6,67c0.3-0.1,0.5-0.1,0.7,0c0.1,0.1,0.1,0.6,0,0.7
		l-0.3,0.4l0,0l0,0V68c0,0-0.1-0.3,0-0.3c0,0.1-0.3-0.3-0.1-0.1c0.1,0.1-0.3-0.1-0.3-0.1h-0.1h0.1c0.4-0.3,1.4-0.9,2.6-1.9
		c2.5-2.1,5.6-5.3,8.9-7.7c1.8-1.3,3.3-2.1,4.4-2.9l1-0.6c0.1,0,0.3-0.1,0.3-0.1h0.3h0.1c0.1,0,0.3,0.1,0.4,0.3l0.3,0.4
		c0.1,0.4,0,0.7-0.1,0.9c0,0.1-0.1,0.1-0.3,0.3l-1,0.6c-1.1,0.7-2.6,1.4-4.2,2.7c-3.3,2.3-6.4,5.1-9,7.3c-1.2,1-2.3,1.7-3,1.9
		c-0.1,0-0.3,0.1-0.5,0.1c-0.1,0-0.3-0.1-0.4-0.3c-0.1-0.3-0.1-0.4,0-0.6C478.9,67.4,479.2,67.3,479.6,67"/>
	<path class="st1" d="M491.8,64.1c-0.3,0.1-0.5,0-0.7-0.3c-0.1-0.3,0-0.4,0.1-0.6c0.8-0.7,2.3-0.7,4-0.9c1.1,0,2,0,3,0.1
		c1.2,0.1,2.5,0.4,3.7,0.4c1,0,2,0,3.1-0.4c0.8-0.1,1.5-0.3,2.2-0.4c0.1,0,0.4,0,0.4,0.3c0,0.1,0,0.3-0.1,0.4l-2,1.3
		c-1.4,0.4-2.5,0.7-3.7,0.7c-1.4,0-2.7-0.1-4-0.3c-1-0.1-1.8-0.3-2.7-0.3C493.7,63.8,492.2,64,491.8,64.1"/>
	<path class="st1" d="M434.3,121.4c0.1-0.3,0.4-0.4,0.7-0.3c0.3,0.1,0.4,0.3,0.4,0.6v-0.1c0,0.1-0.1-0.3-0.1-0.3l-0.1-0.1h0.1
		l1.4-0.4c1.2-0.4,3-1.3,5.2-2.3l7.1-3.4l4.1-1.9c2.5-1.1,5-2.1,7.2-3l4.2-1.7c0.7-0.1,1.1-0.3,1.5-0.1c0.3,0,0.7,0.1,0.8,0.7
		c0.1,0.3,0,0.6-0.1,0.7l-0.1,0.1c-0.3,0.3-0.8,0.6-1.5,0.9s-1.4,0.6-2,0.6c-0.1,0-0.4-0.1-0.4-0.3c0-0.1,0.1-0.3,0.3-0.4
		c1.1-0.4,2.6-1.4,2.6-1.6c0,0,0,0.3,0,0.1c0-0.1,0,0.3,0,0.3c0-0.1,0.3,0.4,0.1,0.3c-0.1-0.1,0.4,0.1,0.3,0.1c-0.1,0,0.1,0,0.1,0
		h0.1l0,0l-1,0.3l-4.4,1.7c-2.3,0.9-4.8,1.9-7.2,2.9l-4.1,1.7l-7.2,3.1c-2,1-4,1.7-5.3,2.1c-0.7,0.1-1.2,0.3-1.6,0.4
		c-0.3,0-0.4,0-0.7-0.1C434.5,122.1,434.2,121.7,434.3,121.4"/>
	<path class="st1" d="M463.5,123.7c0-0.4,0.4-0.7,0.7-0.7c0.4,0,0.7,0.4,0.7,0.7c0,0.4-0.4,0.7-0.7,0.7c-0.3,0-0.5-0.3-0.5-0.6v0.1
		c0-0.1,0.1,0.1,0,0.1l0,0l-0.1-0.1c-0.1-0.1-0.3-0.3-0.1-0.6l0.1-0.1h0.1l0,0v0.1C463.6,123.4,463.5,123.7,463.5,123.7L463.5,123.7
		z M447.3,119c-0.1-0.1-0.1-0.1-0.1-0.3c-0.1-0.6,0.1-0.6,0.3-0.6c0.1-0.1,0.3-0.1,0.5-0.3l1.2-0.3c0.5,0,1.2-0.1,1.9-0.1
		c1.2,0.1,1.8,1.1,2.3,1.4c1.2,0.9,4.2,1,6.9,1.7c1.4,0.3,2.5,0.9,3.4,1.3l1.1,0.6l0.4,0.4c0.1,0.1,0.4,0.4,0.3,1
		c-0.1,0.6-0.7,0.9-1.2,0.6c-0.3-0.1-0.5-0.3-0.5-0.6c0-0.1,0.1,0.3,0.1,0.3c0-0.1,0.1,0.1,0.1,0.1l0,0h-0.1l-1-0.6
		c-0.8-0.4-1.8-0.9-3-1.1c-2.5-0.6-5.4-0.6-7.5-2.1c-0.8-0.7-1.4-1.3-1.5-1.3c-0.4-0.1-1,0-1.6-0.1l-1.2-0.1h-0.4
		C447.4,119.1,447.4,119.3,447.3,119 M448,118.3c0.1,0.3,0.1,0.6,0,0.7c0,0-0.1,0.1-0.3,0.1l0,0l0,0c0,0,0.1-0.1,0.1,0
		c-0.3,0.1-0.5,0.1-0.7-0.1c-0.1-0.3-0.1-0.6,0.1-0.7C447.6,118,447.8,118,448,118.3c0.1,0.1,0.1,0.3,0.1,0.4s0-0.3,0-0.3
		C448.1,118.6,448,118.3,448,118.3L448,118.3z"/>
	<path class="st1" d="M456.3,118.7c0-0.3,0.3-0.4,0.5-0.4c0.3,0,0.4,0.3,0.4,0.6l0,0l-0.1,0.7l0.1,0.4h0.1l0.7-0.1l1.9-1l2.5-1.4
		l2.9-1.9c1.5-0.7,3.1-1.4,5.7-2.3c0.1,0,0.4,0,0.4,0.3c0,0.1,0,0.4-0.1,0.4c-2.5,1.3-4,2.1-5.2,3.1l-3,1.7l-2.6,1.4
		c-0.8,0.3-1.5,0.6-2.2,0.7l-1,0.1c-0.3,0-0.7-0.1-0.8-0.4c-0.3-0.3-0.4-0.7-0.4-1L456.3,118.7z"/>
	<path class="st1" d="M471.9-25.7c0.1-0.3,0.5-0.4,0.8-0.1c0.3,0.1,0.4,0.6,0.1,0.9c-0.1,0.1-0.3,0.3-0.4,0.3l-1.1,0.6
		c-0.1,0.1-0.4,0-0.5-0.1s0-0.4,0.1-0.4L471.9-25.7z M436.8-5.1c-0.3,0-0.5-0.1-0.5-0.4s0.1-0.6,0.3-0.6c0.8-0.3,1.6-1,2.7-1.4
		c0.7-0.3,1.2-0.1,1.6-0.4c0.8-0.3,2-1.1,3.1-2c1.6-1.1,3.1-2,5.2-3.1c2.6-1.4,6.1-3.6,9.5-5.7c1.8-1.1,3.4-2,4.6-2.6
		c1.1-0.4,1.8-0.6,2.3-0.9c1-0.4,2-1.3,3-2.1l1.9-1.3l1.4-0.9l0.1-0.1h0.1l0,0c0.4-0.3,1.1-0.1,1.4,0.3c0.3,0.4,0.1,1.1-0.3,1.4
		c0,0-0.1,0-0.1,0.1l0,0l0,0l-0.1,0.1l-1.2,0.9l-1.8,1.3c-1,0.7-2,1.7-3.4,2.3c-0.7,0.3-1.2,0.4-2.2,0.9c-1.2,0.6-2.9,1.4-4.5,2.4
		c-3.4,2-6.9,4.1-9.7,5.6c-2,1-3.5,1.9-5,2.9c-1.1,0.7-2.3,1.7-3.5,2.1c-0.8,0.3-1.4,0.1-1.6,0.3C438.7-5.8,437.8-5.4,436.8-5.1
		 M473.4-25.5c0,0.6-0.4,1-1,1s-1-0.4-1-1s0.4-1,1-1S473.4-26.1,473.4-25.5"/>
	<path class="st1" d="M477.5-8.2c0.1-0.4,0.4-0.6,0.8-0.4c0.4,0.1,0.5,0.4,0.4,0.9c0,0.1-0.1,0.1-0.1,0.3c-0.3,0.2-0.5,0.2-0.8,0.2
		H477l-1.6-0.3c-0.1,0-0.3-0.3-0.3-0.4s0.1-0.3,0.4-0.3h1.5l0.5-0.1h0.1l0,0C477.5-8.4,477.4-8.1,477.5-8.2 M456-15.7
		c0.1,0.3-0.1,0.6-0.4,0.7c-0.3,0.1-0.5,0-0.5-0.3l-0.1-0.4c0-0.1,0-0.3,0-0.6c0.1-0.3,0.3-0.4,0.5-0.4h0.4c0.5,0.1,1.1,0.4,1.8,0.7
		c1.4,0.6,3.4,1.1,5.6,1.9l3.3,1c2.6,0.7,5.4,1.4,7.8,2.1l2.9,0.9c0.7,0.3,1.2,0.6,1.5,1c0.1,0.1,0.3,0.4,0.3,0.6c0,0.3,0,0.7-0.4,1
		h-0.1h-0.1h-0.1h-0.3c-0.3,0-0.4-0.1-0.5-0.3l-1.2-0.4l-2.7-0.9c-2.3-0.7-5.2-1.4-7.8-2.3l-3.3-1.1c-2.2-0.7-4.1-1.4-5.7-2.3
		l-1.5-0.9l0,0h0.1c0,0,0.3-0.1,0.1-0.1C455.7-15.5,455.9-15.8,456-15.7v-0.1V-15.7z"/>
	<path class="st1" d="M484.5-18.5c-0.1-0.4,0.1-1,0.5-1.1s1,0.1,1.1,0.6c0.1,0.4-0.1,1-0.5,1.1c-0.3,0.1-0.5,0-0.8-0.1l0.1,0.1
		c-0.1-0.1,0.3,0.1,0.3,0.1c-0.1,0,0.1,0,0.1,0c-0.1,0,0.1,0,0.1,0l-0.4,0.1c-0.4,0.1-0.8,0.4-1.2,0.7c-0.1,0.1-0.4,0.1-0.5,0
		s-0.1-0.3,0-0.4c0.3-0.6,0.7-1,1.1-1.3l0.3-0.3l0,0v0.1v0.1C484.5-19,484.5-18.5,484.5-18.5L484.5-18.5z M472.1-11.2
		c-0.1-0.1-0.1-0.4,0.1-0.7s0.3-0.1,0.3-0.1h0.1l1.1-0.3c0.8-0.3,2-1.1,3.3-2c2.2-1.4,4.4-3,6-4.1c1-0.6,1.6-1,1.9-1.1
		c0.3-0.1,0.7-0.1,1,0.1l0.1,0.1c0.1,0.1,0.1,0.3,0.1,0.4v0.1c0,0.4-0.3,0.7-0.5,0.9c-0.1,0-0.8,0.4-1.8,1c-1.6,1-3.8,2.6-6.1,4
		c-1.4,0.7-2.6,1.7-3.7,2c-0.5,0.1-1.1,0.1-1.4,0.1h-0.1C472.5-10.9,472.4-10.8,472.1-11.2 M473-12.1c0.3,0,0.5,0.3,0.5,0.6
		s-0.3,0.4-0.4,0.6h-0.3l0,0h0.1l0,0c0,0,0.1-0.3,0.1-0.1c-0.1,0.3-0.4,0.4-0.7,0.3c-0.3-0.1-0.4-0.4-0.3-0.7
		c0.1-0.3,0.4-0.4,0.7-0.3C472.9-11.9,472.9-11.9,473-12.1C473-12,472.7-12.1,473-12.1c0,0-0.2,0-0.2,0l0,0H473z"/>
	<path class="st1" d="M434.6,20.1c0.3-0.1,0.5,0,0.7,0.3c0.1,0.3,0,0.6-0.1,0.7c0,0,0.1-0.3,0.1-0.1c0,0.1,0-0.3,0-0.3
		c0,0.1,0-0.1,0-0.1l0,0l0.1,0.1l1.1,0.3c1.1,0.1,2.6,0,5.2-0.9c2.2-0.6,4.9-1.7,8.3-3c4-1.4,8-2.7,12.4-4c4.9-1.4,10.4-2.6,15-3.7
		l5.9-1.3l2-0.6l0.3-0.1l0,0l-0.1,0.1l-0.1,0.1c0-0.1-0.1,0.4-0.1,0.3s0.1,0.6,0,0.4c-0.1-0.6,0.1-1.1,0.5-1.3
		c0.4-0.1,1,0.1,1.2,0.6c0.1,0.4,0,0.9-0.1,1.1c-0.3,0.4-0.7,0.6-1,0.7l-2.2,0.7l-5.9,1.3c-4.8,1.1-10.1,2.3-15,3.6
		c-4.2,1.1-8.4,2.4-12.3,3.7c-3.4,1.1-6.3,2.3-8.6,2.9c-2.6,0.7-4.4,0.9-5.7,0.6c-0.5-0.1-1.1-0.3-1.4-0.6c-0.1-0.1-0.3-0.3-0.4-0.4
		c0-0.1-0.1-0.3-0.1-0.4C434.3,20.4,434.5,20.2,434.6,20.1"/>
	<path class="st1" d="M497-10.7c-0.1-0.3,0-0.4,0.1-0.6c0.3-0.1,0.4,0,0.5,0.1v0.1c0.1,0.4-0.1,0.6-0.3,0.9l-0.5,1.7
		c-0.1,0.1-0.3,0.3-0.5,0.1c-0.1-0.1-0.3-0.3-0.1-0.4l0.7-1.6L497-10.7L497-10.7C497-10.8,497.1-10.7,497-10.7 M476.6,10.6
		c-0.3-0.1-0.3-0.4-0.3-0.6c0.1-0.4,0.1-0.3,0.1-0.3l0.1-0.1l0.4-0.3l1.5-1.3l5-4.9l4.1-4c2.3-2.4,4.1-4.4,5.7-6.4l2.6-3.3l0.7-0.7
		c0.1-0.1,0.3-0.4,0.8-0.6c0.4-0.1,1,0.1,1.1,0.7c0.1,0.4-0.1,1-0.7,1.1c-0.1,0,0.1-0.1,0.1,0l-0.5,0.9l-2.6,3.3
		c-1.6,2-3.5,4.1-6,6.4l-4.1,3.9l-5.2,4.7l-1.5,1.3l-0.4,0.3l-0.1,0.1h-0.1C477,10.6,477,10.9,476.6,10.6 M476.6,9.8
		c0.3-0.1,0.5,0,0.7,0.3c0.1,0.1,0.1,0.3,0,0.4v-0.1v-0.1c0,0,0-0.3,0-0.1c0.1,0.3-0.1,0.6-0.4,0.7c-0.3,0.1-0.5-0.1-0.7-0.4
		C476.3,10.1,476.4,9.8,476.6,9.8S476.7,9.8,476.6,9.8C476.8,9.6,476.6,9.8,476.6,9.8L476.6,9.8z"/>
	<path class="st1" d="M484.6,10.9c-0.3-0.1-0.4-0.4-0.3-0.7c0.1-0.3,0.3-0.4,0.5-0.4c0.8,0.1,2.7-0.4,5.3-1.3l5-1.7
		c2.3-0.9,4.8-1.9,6.8-2.7L505,3c0.5-0.1,0.8-0.3,1.4,0c0.3,0.1,0.4,0.7,0.3,1l-0.3,0.3L505,5.5c-0.1,0.1-0.4,0.1-0.5,0
		s-0.1-0.3,0-0.4l1.1-1.4l0,0V4c0,0,0.1,0.3,0.1,0.1c-0.1-0.1,0.4,0.1,0.3,0.1c-0.1,0,0.1,0,0.1,0l-0.5,0.1l-3.1,1.1
		c-2,0.9-4.5,1.9-6.8,2.7l-5.2,1.6C488,10.6,486,11.4,484.6,10.9"/>
	<path class="st1" d="M461.3,13.6c0.1-0.3,0.4-0.3,0.7-0.1c0.1,0.1,0.3,0.3,0.3,0.6l0.3,1.3c0.3,1.4,1.1,3.3,1.9,5.4
		c0.7,1.7,1.5,3.6,2.2,5c0.5,1.1,1.1,2.1,1.4,2.6l0.1,0.1l0.1,0.1l0,0l-0.1-0.1l-0.3-0.1c0.1,0-0.4,0-0.3,0c0.1,0-0.3,0.1-0.3,0.1
		c0.1,0-0.3,0.1-0.1,0.1v0.2v-0.1c0-0.6-0.1-1.9-0.7-3.9c0-0.1,0-0.4,0.3-0.4c0.1,0,0.4,0,0.4,0.3l1.4,4l0.1,0.4
		c0,0.1,0.1,0.3-0.1,0.7s-0.8,0.4-1.1,0.4l-0.5-0.3l-0.1-0.1c-0.4-0.6-1-1.6-1.6-2.9c-0.7-1.6-1.5-3.4-2.2-5.1
		c-0.8-2.1-1.4-4.1-1.6-5.7C461,14.8,461,14.1,461.3,13.6"/>
	<path class="st1" d="M463.2,14.5c0.1,0.3,0,0.6-0.3,0.7s-0.5,0-0.7-0.3c-0.3-0.6-0.1-1.1,0.3-2.1l1-2.1c0.7-1.4,1.2-3.6,2-5.6
		c0.7-1.6,1.4-3,2-4.1c0.7-1.1,1.2-1.9,1.8-2.3l0.1-0.1c0.3-0.1,0.5-0.4,1.1-0.1c0.3,0.1,0.4,0.6,0.4,0.9l-0.1,0.3l-1,1.7
		c-0.1,0.1-0.3,0.3-0.5,0.1c-0.1-0.1-0.1-0.3-0.1-0.4l0.4-1v-0.5l0,0c0,0,0.1,0.3,0.1,0.1l0.1,0.1c0,0,0.3,0.1,0.1,0.1h0.3
		c-0.1,0,0.3-0.1,0.3-0.1l0.1-0.1l-0.1,0.1l-0.1,0.1c-0.3,0.3-0.8,1-1.5,1.9c-0.7,1-1.4,2.3-2,3.7c-0.8,1.9-1.5,3.9-2.3,5.4l-1.1,2
		C463.2,13.9,463.2,14.4,463.2,14.5"/>
	<path class="st1" d="M451.9,17.6c0,0.3-0.3,0.6-0.5,0.4c-0.3,0-0.4-0.3-0.4-0.4c0-0.3-0.5-1.1-0.5-2.4c0-0.7,0.4-1.3,0.7-1.9
		c0.5-1.1,1.4-2.4,2.2-4c0.7-1.3,1.2-2.6,1.9-4l1.5-3.7l0.8-2.1l0.4-1.3l0.3-0.7c0.1-0.4,0.5-0.7,1-0.6c0.3,0.1,0.5,0.4,0.5,0.7v0.7
		L459.4,0l-1,2.3L456.8,6c-0.7,1.3-1.4,2.7-2,4l-2.3,3.9c-0.3,0.7-0.5,1.1-0.5,1.4C451.6,16.2,452.1,16.8,451.9,17.6"/>
	<path class="st1" d="M398.4,236.4c0,0.3-0.1,0.6-0.4,0.6s-0.5-0.1-0.5-0.4s0.1-0.6,0.4-0.6c0.1,0,0.3,0,0.4,0.1s-0.3-0.1-0.1-0.1
		H398c0.1,0-0.1,0-0.1,0l0,0l0.7-0.3c0.1-0.1,0.4,0,0.5,0.1s0,0.4-0.1,0.4l-0.5,0.4l0,0c0,0,0.1-0.1,0-0.1L398.4,236.4
		C398.4,236.5,398.4,236.2,398.4,236.4 M433.9,217.9c-0.1,0.3-0.4,0.4-0.7,0.4c-0.3,0-0.4-0.3-0.4-0.4c0,0,0.1,0.3,0.1,0.1l0,0h-0.3
		l-1.5,0.1c-1.5,0.1-3.3,0.9-5.7,2c-3.5,1.6-8.2,4.1-12.3,6.4l-4.1,2.4l-3.7,2.1l-2,1.4l-1.8,1.6l-1.1,1l-1.6,1.3l-0.7,0.4l-0.3,0.1
		c-0.1,0,0,0.1-0.4,0h-0.1c-0.1,0-0.1-0.1-0.3-0.3v-0.1c-0.1-0.4,0.1-0.4,0.1-0.6l0.5-0.7l1.6-1.4l1.1-1l2-1.6l2-1.4l3.7-2.3
		l4.1-2.4c4.2-2.4,8.7-4.9,12.4-6.6c2.6-1.1,4.5-1.9,6.1-2.1c0.7,0,1.4,0,1.8,0.1c0.3,0,0.4,0.1,0.7,0.3l0.3,0.4L433.9,217.9z"/>
	<path class="st1" d="M403.3,232.7c-0.3-0.3-0.4-0.9-0.1-1.1c0.3-0.3,0.7-0.4,1.1-0.1c0.8,0.6,1.1,1.7,1.4,3l1.1,5.1
		c0.4,2.3,1.1,4.4,1.6,6l0.5,1.4l0.3,0.6l0,0c0,0-0.3-0.1-0.1-0.1c0,0-0.3-0.1-0.1-0.1s-0.4,0-0.3,0h-0.1c0.1,0-0.3,0.1-0.1,0.1
		l-0.1,0.1l0,0v-0.3l0.1-1.1c0-0.9,0-1.9,0.4-2.6c0.1-0.1,0.3-0.3,0.5-0.1c0.1,0.1,0.3,0.3,0.1,0.4c-0.1,0.4-0.1,1.4,0,2.3l0.1,1.1
		v0.4c0,0.1,0,0.4-0.1,0.7l0.1-0.1l-0.4,0.4c-0.1,0.1-0.4,0.1-0.5,0.1c-0.3,0-0.4-0.1-0.5-0.3c-0.3-0.3-0.4-0.4-0.7-0.9l-0.7-1.7
		c-0.5-1.7-1.1-4-1.5-6.3l-1-5.1l-0.4-1.6L403.3,232.7z"/>
	<path class="st1" d="M390.6,244.4c-0.3-0.1-0.4-0.4-0.3-0.7s0.4-0.4,0.7-0.3c0,0,0.1,0,0.1,0.1l0,0h0.5c0.4,0,0.8-0.3,1.4-0.6
		c0.1-0.1,0.4-0.1,0.5,0.1c0.1,0.1,0.1,0.4,0,0.6c-0.5,0.4-1.1,0.7-1.6,1C391.3,244.4,390.9,244.5,390.6,244.4 M401.7,239.2
		c0.1,0.3,0,0.6-0.3,0.7c-0.3,0.1-0.5,0-0.7-0.3c0,0,0,0,0-0.1c-0.3-0.9,0.1-1.6,0.3-2.4V237l0,0l-0.1-0.1l0.1,0.1l0,0h-0.3l-1,0.3
		c-0.7,0.3-1.2,1-1.9,1.7l-1.8,1.7l-2.6,2.1l-1.9,1.4c-0.3,0.4-0.7,0.4-1.1,0.3c-0.4-0.3-0.4-0.7-0.3-1.1c0.3-0.4,0.7-0.6,1-0.9
		l1.4-1l2.6-2l1.8-1.6c0.7-0.7,1.4-1.6,2.3-2c0.5-0.1,1-0.3,1.5-0.3l0.7,0.1c0.3,0.1,0.5,0.3,0.7,0.7v0.1c0,0.4-0.1,0.7-0.3,1
		L401.7,239.2z M391.6,243.7c0,0.4-0.4,0.9-0.8,0.9s-0.8-0.4-0.8-0.9c0-0.4,0.4-0.9,0.8-0.9S391.6,243.2,391.6,243.7"/>
	<path class="st1" d="M407.9,244.4c0.3,0,0.5,0.1,0.5,0.4c0,0.3-0.1,0.6-0.4,0.6s-0.5-0.1-0.5-0.4v-0.2l0,0v-0.4l-0.1-0.7
		c-0.1-0.1-0.1-0.4,0-0.6c0.1-0.1,0.3-0.1,0.4,0c0.4,0.3,0.4,0.9,0.4,1.3v0.4l0,0c0,0-0.1-0.1,0-0.1l-0.1-0.1H408
		C408.2,244.5,407.8,244.4,407.9,244.4 M407.5,244.8c0-0.3,0.3-0.4,0.5-0.4c0.3,0,0.4,0.3,0.4,0.6v0.1l-0.1,0.1l-0.1,0.1
		c-0.1,0-0.1,0.1-0.5,0.1C407.6,245.4,407.5,245.1,407.5,244.8L407.5,244.8z"/>
	<path class="st1" d="M421.1,241.4c0.1-0.3,0.5-0.3,0.7,0c0.3,0.1,0.3,0.6,0,0.7c-0.1,0.3-0.5,0.3-0.7,0L421,242v-0.2v-0.1l-0.1-0.4
		v-1.1c0-0.1,0.1-0.3,0.4-0.3c0.1,0,0.3,0.1,0.3,0.3l0.1,1l0.1,0.3l-0.1-0.1c0,0-0.3,0-0.1,0c0,0-0.3,0-0.1,0
		C421.4,241.2,421,241.5,421.1,241.4 M415,227.4c-0.1-0.3,0-0.6,0.1-0.7c0.3-0.1,0.5,0,0.7,0.1c1.2,1.7,1.9,4.9,3,7.9
		c0.5,1.6,1.1,2.9,1.6,4l0.5,1.1l0.5,0.9c0.1,0.1,0.3,0.4,0.3,0.6c0,0.1,0.1,0.1-0.1,0.6l-0.1,0.1c-0.4,0.4-0.5,0.1-0.8,0.1
		s-0.4-0.1-0.5-0.3l-0.7-1.1l-0.7-1.3c-0.5-1.3-1.2-2.7-1.6-4.3C416.5,232.2,416,229.1,415,227.4"/>
	<path class="st1" d="M420.9,239.4c0.3,0.1,0.4,0.4,0.3,0.7s-0.4,0.4-0.5,0.3c-0.1,0-0.4,0-0.7,0.1c-0.3,0.3-0.7,0.6-1,1
		c-0.7,1-1.5,2.4-2.2,3.7l-2.2,3.9l-0.8,1.4l-0.1,0.3l0,0v-0.1c0,0,0-0.3,0-0.1c0,0,0-0.3,0-0.1c0,0-0.1-0.3-0.1-0.1
		c0.1,0.1-0.4-0.4-0.3-0.3c0.1,0-0.4-0.1-0.3-0.1s-0.4,0-0.3,0s-0.1,0.1-0.1,0.1l0,0c0.1-0.1,0.3-0.1,0.5-0.1c0.1,0-0.3,0-0.1,0
		h-0.1c0.1,0,0.7-0.6,1.4-1.6c0.1-0.1,0.4-0.1,0.5,0s0.1,0.3,0.1,0.4l-0.8,1.6l-0.1,0.4l0,0l0,0v-0.1c0,0.1,0,0.4-0.1,0.6l-0.1,0.1
		l-0.1,0.1c-0.1,0.1-0.5,0.1-0.8,0s-0.3-0.3-0.4-0.4c-0.1-0.3,0-0.4,0-0.4l0.1-0.6l0.7-1.4l2.2-3.9c0.8-1.4,1.6-2.7,2.6-3.9
		c0.4-0.6,1-1,1.4-1.1C419.8,239.2,420.3,239.1,420.9,239.4"/>
	<path class="st1" d="M430.7,253.5c0.4,0.1,0.5,0.4,0.5,0.7c-0.1,0.4-0.4,0.6-0.7,0.6c-0.4-0.1-0.5-0.4-0.5-0.7s0.3-0.4,0.5-0.6
		c0.1,0-0.1,0-0.1,0c0.1,0-0.1,0.1-0.1,0.1v-0.1c0.1-0.1,0.3-0.3,0.4-0.1L430.7,253.5l0.2,0.1l0,0l0,0L430.7,253.5
		C430.8,253.5,430.5,253.5,430.7,253.5 M421.3,241.1c0.3,0.1,0.4,0.4,0.3,0.7s-0.3,0.4-0.5,0.3h-0.3c-0.1,0-0.3-0.1-0.4-0.3
		c-0.1-0.1-0.1-0.4,0-0.7l0.3-0.3c0.3-0.3,0.7-0.3,1.1-0.4c1.1-0.1,2.2,0.6,3.3,1.6c1.1,1,2.3,2.3,3.3,4c1.1,1.9,1.8,3.9,2.3,5.4
		l0.4,1.7l0.1,0.6v0.1c0,0-0.1-0.1,0-0.1c0.3,0.6,0.1,1.1-0.4,1.4c-0.4,0.3-1,0.1-1.2-0.3c-0.3-0.3-0.3-0.4-0.3-0.6l-0.1-0.6
		l-0.4-1.7c-0.4-1.6-1.1-3.4-2-5c-0.8-1.6-1.9-2.9-2.7-3.7c-1-0.9-1.8-1.4-2.2-1.4H421l0,0c0,0,0.1-0.3,0.1-0.1c0,0.1,0-0.4,0.1-0.3
		C421.4,241.5,421.3,241.2,421.3,241.1L421.3,241.1L421.3,241.1z"/>
	<path class="st1" d="M430.5,206.5c-0.1,0.3-0.4,0.3-0.7,0.1c-0.1-0.1-0.3-0.4-0.3-0.6v0.3c0-0.1,0.3,0.3,0.1,0.3h0.1l-0.5,0.1
		l-2.3,0.4l-3,0.4c-1.2,0.1-2.7,0.4-4.5,0.7l-3.3,0.7l-8.3,1.9l-6.1,1.3l-5.4,1.3c-2.3,0.6-4.5,1.1-6.5,1.9c-2.7,0.9-5,2-6.8,2.7
		l-2.3,1c-0.4,0.1-0.4,0.3-0.4,0.4c0,0.3-0.1,0.4-0.4,0.4c-0.1,0-0.4-0.1-0.4-0.3c-0.1-0.4,0.1-1,0.5-1.4c0.5-0.4,1.2-0.9,2.3-1.4
		c1.8-0.9,4.2-2,6.9-2.9c2-0.7,4.2-1.3,6.5-1.9l5.4-1.3l6.1-1.3l8.4-1.9l3.4-0.7c1.9-0.4,3.4-0.6,4.6-0.7l3-0.3l2.3-0.3h0.8
		c0.1,0,0.3,0,0.4,0.3C430.7,206.1,430.5,206.3,430.5,206.5"/>
	<path class="st1" d="M389.5,212.9c0.3,0,0.5,0.3,0.5,0.6s-0.3,0.6-0.4,0.6c-0.4,0-0.5,0.1-0.7,0.3c-0.1,0.3-0.3,0.7-0.3,1.4
		l-0.4,6.1l-0.3,8v5l0.1,3.1v0.4l0,0l0,0c0,0-0.1-0.3-0.1-0.1c0,0-0.3-0.3-0.1-0.1c0.1,0-0.3-0.1-0.3-0.1c0.1,0-0.3,0-0.3,0
		c0.1,0-0.3,0.1-0.3,0.1c0.1,0-0.1,0.1-0.1,0.1l0,0v-0.1c0.1-0.6,0.1-1.9-0.1-3.9c0-0.1,0.1-0.4,0.3-0.4c0.1,0,0.4,0.1,0.4,0.3
		c0.4,2,0.5,3.3,0.5,4v0.4v0.1c0,0.1,0,0.3-0.4,0.6s-0.7,0-0.8-0.1l-0.3-0.3l-0.1-0.6l-0.1-3.4l0.1-5l0.4-8.1
		c0.1-2.6,0.4-4.7,0.5-6.3c0.1-0.7,0.3-1.4,0.5-1.9C388.3,213.2,388.9,212.9,389.5,212.9"/>
	<path class="st1" d="M386.1,227.1c0.3,0.1,0.3,0.6,0.1,0.7c-0.1,0.3-0.4,0.3-0.7,0.1h-0.3l-0.8,0.3c-0.7,0.3-1.6,0.7-2.6,1.3
		c-2,1.1-4.1,2.7-5.7,4.1c-1.1,0.7-1.8,1.4-2,1.6c-0.1,0.1-0.4,0.1-0.5,0s-0.1-0.3-0.1-0.4c0.1-0.7,1-1.3,1.9-2.3
		c1.6-1.3,3.8-2.9,6-4.1c1-0.6,1.9-1.1,2.9-1.4l1.1-0.3C385.6,226.8,385.9,226.9,386.1,227.1"/>
	<path class="st1" d="M384.5,217.6c0.1,0.3,0,0.6-0.3,0.7c-0.3,0.1-0.5,0-0.7-0.1c-0.1-0.3-0.8-0.7-1.6-0.7c-1-0.1-2.3,0-4.1,0.6
		c-1.9,0.6-4.1,1.9-6.3,3l-2.9,1.4l-5.7,2.9c-2.2,1-4.1,1.7-5.4,2.1l-1.4,0.3h-0.4h-0.3c-0.1,0-0.3-0.1-0.3-0.4
		c0-0.1,0.1-0.4,0.1-0.4l0.1-0.1l0.3-0.1l0.4-0.1l1.9-0.7c0.1,0,0.4,0,0.4,0.3c0,0.1,0,0.4-0.1,0.4l-1.8,0.9l-0.4,0.3l0,0l0,0v-0.1
		c0,0,0-0.4,0-0.3c0,0-0.1-0.3-0.1-0.1c0,0-0.3-0.1-0.1-0.1c0,0-0.3,0-0.1,0c0.1,0-0.1,0-0.1,0c0.1,0,0,0,0,0l0.3-0.1l1.2-0.4
		c1.4-0.4,3.3-1.1,5.4-2.1l5.7-2.9l2.9-1.4c2.2-1.1,4.4-2.4,6.5-3.1c1.8-0.6,3.4-0.7,4.5-0.4C383.1,216.5,384.1,216.9,384.5,217.6"
		/>
	<path class="st1" d="M372,222.8c0,0.3-0.4,0.4-0.5,0.4c-0.3,0-0.4-0.3-0.4-0.6l0.1-0.7l0,0c0,0,0.1,0.3,0.1,0.1
		c0,0,0.3,0.1,0.1,0.1c-0.1,0,0.3,0,0.3,0c-0.1,0,0.3-0.1,0.1,0l0.1-0.1l-0.8,1.7c-0.8,2-1.8,4.6-2.2,6.6l-0.3,1.1v0.4
		c0.1,0.1,0.1,0.3,0,0.6l0,0v-0.3c0,0.1-0.1-0.3-0.1-0.3h-0.1c0.1,0,0.3,0.1,0.3,0.4v0.1l-0.1,0.3c-0.1,0.1-0.5,0.3-0.8,0.1
		c-0.1-0.1-0.3-0.1-0.4-0.4c-0.3-0.7,0-1.6,0.1-2.6c0.5-2.1,1.5-4.7,2.3-6.7c0.4-1,0.7-1.6,1.1-2c0.1-0.1,0.3-0.3,0.7-0.1
		c0.3,0.1,0.3,0.3,0.4,0.4v0.3L372,222.8z"/>
	<path class="st1" d="M398.3,223.6c0.4,0.1,0.5,0.6,0.4,0.9c-0.1,0.4-0.5,0.6-0.8,0.4c-0.4-0.1-0.5-0.6-0.4-0.9
		c0-0.3,0.3-0.4,0.4-0.4s-0.1,0.1-0.1,0c0.1,0-0.1,0.1-0.1,0.1l0,0l0.1-0.3l1-1.4c0.1-0.1,0.3-0.1,0.5-0.1c0.1,0.1,0.1,0.3,0.1,0.4
		l-0.5,1.6v0.1l0,0c0,0-0.1-0.3,0-0.1l-0.1-0.1l-0.1-0.1C398.5,223.8,398.3,223.6,398.3,223.6 M405.9,211.1c0-0.3,0.3-0.6,0.5-0.4
		c0.1,0,0.3,0.1,0.4,0.3c0.3,0.4,0.1,0.6,0,0.9l-0.3,0.7l-1.2,2.3c-1.5,2.6-3.5,5.7-5,8l-1.1,1.6l-0.4,0.3c-0.1,0.1,0,0.3-0.5,0.4
		c-0.4,0.1-0.8-0.1-0.8-0.6c-0.1-0.4,0.1-0.9,0.5-0.9c0.1,0-0.3,0.1-0.1,0c0,0-0.1,0.1-0.1,0l0,0l0.3-0.4l1.1-1.6
		c1.5-2.3,3.5-5.3,5-7.9l1.4-2.1L405.9,211.1L405.9,211.1L405.9,211.1C405.9,210.9,405.9,211.1,405.9,211.1"/>
	<path class="st1" d="M362.6,201.8c-0.1-0.3,0-0.6,0.3-0.7c0.3-0.1,0.5,0,0.7,0.3c0.3,0.4,0,0.6,0,0.9l-0.4,1l-1.5,3.1l-4.4,8.1
		l-1.9,3.6l-1.2,2.1l-0.1,0.1l-0.4,0.3h-0.3c0,0-0.1,0-0.1-0.1c-0.1-0.1-0.1-0.1-0.1-0.3v-0.6v-0.1l1.2-2.1l1.9-3.6l4.4-8.1l1.5-3
		L362.6,201.8L362.6,201.8C362.4,201.6,362.6,201.8,362.6,201.8"/>
	<path class="st1" d="M348.5,219.1c-0.3,0.3-0.5,0.3-0.8,0s-0.3-0.6,0-0.9c0.3-0.3,0.5-0.3,0.8,0c0.1,0.1,0.1,0.3,0.1,0.6
		c0,0.1,0-0.3,0-0.3c0,0.1-0.3-0.3-0.1-0.3c0.1,0.1-0.3-0.1-0.1-0.1h-0.1l0,0h0.1l1.1-0.7c0.1-0.1,0.4-0.1,0.5,0.1
		c0.1,0.1,0.1,0.4,0,0.4l-1.1,1L348.5,219.1L348.5,219.1C348.4,219.1,348.5,218.9,348.5,219.1 M434.1,173.3
		c-0.1,0.3-0.5,0.3-0.7,0.1c-0.3-0.1-0.3-0.4-0.1-0.7l0.3-0.4l0,0c0,0-0.3-0.1-1-0.1s-1.5,0-2.7,0.3c-2.6,0.6-6.1,1.9-10.1,3.1
		l-4.1,1.3c-1.8,0.6-3.5,1.1-5.6,1.9c-2.2,0.9-4.6,1.9-7.5,3.1c-2.2,1-4.5,2.1-6.9,3.4l-5.2,2.4l-9,4.3l-4.1,2.1
		c-2.9,1.6-5.9,3.3-8.6,5.1c-1.4,0.9-2.6,1.9-3.8,2.7l-3.1,2.3c-1.2,0.9-1.9,1.4-2.3,1.9c-0.3,0.3-0.5,0.7-0.8,1.1l-0.5,0.7
		c-0.7,1-1.5,1.9-2.2,2.6l-1.1,1l-1.1,1.4l-1.2,1.3l-0.8,1.1l-1.4,1.7l-0.5,0.9c-0.3,0.4-0.8,0.6-1,0.7c0,0-0.1,0-0.1,0.1l-0.5,0.3
		l-0.3,0.1H348c-0.1,0-0.1,0-0.3,0s-0.3-0.1-0.4-0.1c-0.3-0.3-0.1-0.4-0.1-0.6c0-0.3,0.1-0.4,0.3-0.6l0.7-0.6c0,0,0.1,0,0.1-0.1
		l0.4-0.1l0,0l0.4-0.7l1.4-1.9l1-1.1l1.1-1.3c0.4-0.6,0.8-1,1.2-1.4l1.1-1c0.7-0.7,1.4-1.6,2-2.4l0.5-0.7c0.3-0.4,0.4-0.9,1-1.3
		c0.5-0.6,1.2-1.1,2.5-2l3.1-2.3c1.2-0.9,2.5-1.9,4-2.9c2.7-1.9,5.7-3.6,8.6-5.1l4.1-2.1l9.1-4.3l5.2-2.4c2.3-1.1,4.8-2.4,6.9-3.4
		c2.9-1.3,5.3-2.3,7.5-3.1c2-0.7,4-1.4,5.6-1.9l4.1-1.3c4-1.3,7.5-2.6,10.2-3.1c1.4-0.3,2.3-0.3,3-0.3s1.4,0.1,1.8,0.6
		c0.1,0.3,0.3,0.7,0.1,1C434.5,172.8,434.3,173,434.1,173.3"/>
	<path class="st1" d="M362.6,216.9c0.3,0,0.5,0.3,0.5,0.6s-0.3,0.6-0.5,0.6c-0.3,0-0.5-0.3-0.5-0.6c0-0.1,0-0.3,0.1-0.3l-0.1,0.1
		c0-0.1,0,0.1,0,0.1l0,0L362,217c0-0.1,0.1-0.4,0.3-0.4s0.3,0,0.4,0.1l0.1,0.3l0,0l0,0L362.6,216.9
		C362.7,217.1,362.4,216.9,362.6,216.9 M367.2,200.1c-0.1,0.3-0.4,0.4-0.7,0.3c-0.3-0.1-0.4-0.4-0.3-0.7c0.1-0.1,0.1-0.3,0.3-0.4
		c0.1-0.1,0.5-0.3,0.7,0c0.1,0.1,0.1,0.3,0.1,0.4c0,0.3,0,0.6,0,1c-0.3,1.9-0.8,5-1.9,8.3l-1.6,5.1l-0.4,1.6l-0.1,1
		c-0.1,0.3,0,0.7-0.3,1.3c-0.1,0.3-0.5,0.3-0.8,0.1c-0.3-0.1-0.3-0.6-0.1-0.9v-0.1l0.1-0.7l0.1-1l0.4-1.7l1.6-5.1
		c1-3.1,1.6-6.3,1.9-8.1l0.1-0.7l0,0c0,0,0.1,0.3,0.1,0.1c0,0,0.3,0.1,0.1,0.1c-0.1,0,0.4,0,0.3,0
		C366.9,200.1,367.3,199.9,367.2,200.1l0.1-0.1L367.2,200.1z"/>
	<path class="st1" d="M386.9,187.5c-0.3,0-0.5-0.1-0.5-0.4s0.1-0.6,0.4-0.6c0.4-0.1,1,0.1,1.2,0.4c0.3,0.3,0.4,0.7,0.5,1.1
		c0.1,0.9,0.1,2,0.1,3.3c0,2.4-0.4,5-0.8,7.3l-1.1,5.4c0,0.1-0.1,0.1-0.1,0.3l-0.3,0.3c-0.1,0.1-0.4,0.1-0.5,0c0,0,0,0,0-0.1
		l-0.1-0.3c0-0.1,0-0.3,0-0.3l1.2-5.3c0.4-2.3,0.8-4.7,0.8-7c0-1.1,0-2.3-0.1-3l-0.3-0.7C387.1,187.5,387.1,187.5,386.9,187.5"/>
	<path class="st1" d="M386.7,195.3c0.1,0.3,0,0.6-0.3,0.7c-0.3,0.1-0.5,0-0.5-0.3c0,0,0.3,0.3,0.1,0.1c-0.1,0,0.3,0,0.3,0
		c-0.1,0,0.1,0,0.1,0l-0.4,0.4l-1.5,1.7c-0.7,0.7-1.5,1.3-2.2,1.9c-1,0.6-1.6,0.9-2.3,1.4c-0.1,0.1-0.4,0.1-0.5,0s-0.1-0.3,0-0.4
		c0.7-0.9,1.4-1.3,2-2c0.8-0.6,1.5-1.1,2.2-1.7l1.6-1.6l0.5-0.6c0.1,0,0.3-0.1,0.4-0.1C386.3,194.9,386.5,195.2,386.7,195.3"/>
	<path class="st1" d="M433.7,150c0.4-0.1,0.7,0.1,0.8,0.6c0.1,0.4-0.1,0.7-0.5,0.9l-121.7,25.3c-0.4,0.1-0.7-0.1-0.8-0.6
		c-0.1-0.4,0.1-0.7,0.5-0.9L433.7,150z"/>
	<path class="st1" d="M327.4,199.2c0.3,0.1,0.3,0.6,0.1,0.9c-0.1,0.3-0.5,0.3-0.8,0.1c-0.3-0.1-0.3-0.6-0.1-0.9
		c0.1-0.1,0.3-0.3,0.5-0.3c0.1,0-0.3,0-0.1,0h-0.1l0.3-0.3c0.1-0.1,0.4-0.1,0.5,0s0.1,0.3,0.1,0.4l-0.1,0.3v-0.1v-0.1
		C327.7,199.5,327.4,199.2,327.4,199.2 M345.7,172.5c0,0.3-0.3,0.4-0.5,0.4s-0.4-0.3-0.4-0.6v-0.7v0.1l0.3,0.1c-0.1,0,0.3,0,0.3,0
		l0,0l-1.2,1.6l-3,4.3l-3.8,5.9c-2,3.4-4.1,6.7-5.6,9.3l-1.4,2.4c-0.4,0.7-0.5,1.1-0.8,1.6l-0.8,1.4l-0.7,1.3l-0.3,0.4l-0.1,0.1
		l-0.1,0.1c0,0-0.1,0.1-0.4,0.1s-0.5-0.3-0.5-0.4c-0.1-0.3,0.1-0.7,0.4-0.9c0.3-0.1,0.7,0.1,0.8,0.4c0,0.1,0,0.1,0,0.3v-0.3
		c0,0.1-0.3-0.4-0.1-0.3c0.1,0.1-0.4-0.1-0.3-0.1s-0.3,0-0.1,0c0.1,0-0.3,0-0.1,0h-0.1l0,0l0.3-0.3l0.7-1.1l0.7-1.4
		c0.1-0.4,0.4-1,0.8-1.9l1.4-2.4c1.5-2.6,3.4-5.9,5.6-9.3l3.8-5.9l3-4.3c0.7-0.9,1.1-1.6,1.6-1.9c0.1-0.1,0.4-0.1,0.7,0
		c0.3,0.1,0.4,0.4,0.4,0.6C345.8,171.6,345.8,172,345.7,172.5 M327.7,199.8c0,0.4-0.3,0.7-0.7,0.7c-0.4,0-0.7-0.3-0.7-0.7
		s0.3-0.7,0.7-0.7C327.4,199.1,327.7,199.3,327.7,199.8"/>
	<path class="st1" d="M319.5,191.3c-0.3,0.1-0.5,0.1-0.7,0c-0.1-0.3-0.1-0.6,0-0.7c0.3-0.1,0.5-0.1,0.7,0s0.1,0.3,0.1,0.4
		c0,0.1,0-0.3,0-0.1c0,0.1-0.1-0.3-0.1-0.1c0,0.1-0.1-0.1-0.1-0.1h-0.1l0,0h0.1l1.1-0.3c0.1,0,0.4,0,0.4,0.3c0,0.1,0,0.4-0.1,0.4
		l-1.1,0.6L319.5,191.3L319.5,191.3L319.5,191.3C319.5,191.3,319.7,191.2,319.5,191.3 M334.5,186.5c0,0.3-0.3,0.6-0.5,0.6
		s-0.4-0.3-0.5-0.6l0.1,0.1h-0.1c-0.3,0-1,0.1-1.6,0.4c-1.5,0.6-3.3,1.4-5,2.1c-1.8,0.7-3.4,1.1-4.8,1.6l-1.6,0.6l-0.7,0.1h-0.1
		h-0.3c-0.1,0-0.3,0-0.3-0.1c-0.4-0.3-0.3-0.6-0.1-0.7l0.1-0.1l0.3-0.3l0.7-0.4l1.9-0.6c1.2-0.4,2.9-0.9,4.6-1.4
		c1.8-0.7,3.7-1.4,5.2-2c0.7-0.3,1.4-0.4,1.9-0.4c0.3,0,0.5,0,0.8,0.3C334.4,185.8,334.5,186.2,334.5,186.5"/>
	<path class="st1" d="M359.4,165.9c0.3,0,0.4,0.3,0.4,0.6s-0.3,0.4-0.5,0.4h-0.4l-0.1,0.1c-0.1,0.1-0.1,0.6-0.3,1.1
		c-0.1,1.1-0.1,2.6-0.7,5.1l-1.1,4l-2.5,8.3l-1.5,6c-0.3,1.4-0.5,2.6-0.5,3.4c-0.1,1-0.4,1.9-1,2.3c-0.3,0.1-0.7,0.3-1,0.3l-1.1-0.3
		c-0.1,0-0.3-0.3-0.3-0.4c0-0.1,0.3-0.3,0.4-0.3l0.8,0.1l0.3-0.1c0.1-0.1,0.3-0.6,0.3-1.6c0.1-0.9,0.3-2.1,0.5-3.6l1.5-6.1l2.5-8.3
		l1.2-3.9c0.7-2.4,0.7-3.7,0.8-5c0-0.6,0.1-1.1,0.5-1.6c0.1-0.3,0.4-0.4,0.7-0.6C358.7,165.7,359,165.7,359.4,165.9"/>
	<path class="st1" d="M351.3,192.9c-0.1,0.3-0.4,0.4-0.7,0.4c-0.3-0.1-0.4-0.3-0.4-0.6l0,0c0-0.1,0.3,0.3,0.3,0.1c0,0,0.1,0,0,0
		l-0.3,0.1c-0.4,0.1-1.2,0.7-2,1.3l-2.7,2.3l-6.4,5.6l-4.1,3.7l-2.9,2.7l-0.7,0.9l-0.1,0.1l0,0l0,0v-0.1c0,0,0-0.3,0-0.1
		c0,0-0.1-0.3,0-0.1c0,0.1-0.3-0.3-0.1-0.1H331h-0.1h-0.1l1.4-1.3c0.1-0.1,0.4-0.1,0.5,0s0.1,0.4,0,0.6l-1.1,1.1l-0.4,0.4
		c0,0-0.1,0.1-0.4,0s-0.3-0.3-0.3-0.4c0-0.4,0.1-0.4,0.3-0.6l0.7-0.9l2.7-2.9l4-3.9l6.4-5.6l2.9-2.4c0.8-0.7,1.6-1.1,2.3-1.4
		c0.3-0.1,0.7-0.3,1,0c0.1,0.1,0.4,0.3,0.4,0.6L351.3,192.9z"/>
	<path class="st1" d="M343.2,214.2c-0.1,0.3-0.4,0.4-0.7,0.3c-0.3-0.1-0.4-0.4-0.3-0.7s0.4-0.4,0.7-0.3c0.1,0,0.3,0.1,0.3,0.4
		c0,0.1-0.1-0.3-0.1-0.3l-0.1-0.1c0.1,0-0.3,0-0.3,0c0.1,0-0.3,0-0.1,0h-0.1l0,0v-0.1l0.4-1.1c0-0.1,0.3-0.3,0.4-0.3
		s0.3,0.3,0.3,0.4l-0.3,1.1L343.2,214.2L343.2,214.2z M348.4,196.2c-0.3,0-0.5-0.3-0.5-0.6s0.1-0.4,0.4-0.6c0.1,0,0.4,0,0.5,0.3
		l0.1,0.4v0.7l-0.5,1.9c-0.5,1.6-1.2,3.6-2,5.7c-0.8,2.1-1.8,4.3-2.3,6c-0.3,1-0.5,1.9-0.7,2.6l-0.3,1.3c0,0,0-0.1,0,0
		s0,0.1-0.1,0.3c-0.3,0.3-0.5,0.1-0.7,0.1c-0.3-0.3-0.3-0.4-0.3-0.6v-1.3c0.1-0.9,0.4-1.9,0.7-2.9c0.7-1.9,1.6-4,2.5-6l2.2-5.7
		l0.5-1.7v-0.3v0.1c0,0,0.3,0.3,0.1,0.1C348.1,196.1,348.5,196.2,348.4,196.2"/>
	<path class="st1" d="M384.4,163.2c-0.3-0.1-0.4-0.4-0.3-0.7s0.4-0.4,0.5-0.3c0.3,0,0.4,0.3,0.5,0.4c0.1,0.1,0.1,0.4,0.1,0.7
		c0,0.4-0.1,1-0.3,1.6c-0.4,1.3-1.2,3-2.3,4.9c-2.3,3.7-5.7,7.9-8.2,11.2c-1.1,1.6-2,2.9-2.3,3.6l-0.1,0.3l0,0l-0.1-0.1h0.1l0.7-0.3
		c0.1-0.1,0.4,0,0.4,0.1c0.1,0.1,0,0.4-0.1,0.4c-0.5,0.3-1,0.6-1.4,0.4c-0.3-0.1-0.4-0.4-0.4-0.6l0.1-0.7c0.4-1,1.2-2.3,2.3-3.9
		c2.5-3.4,5.6-7.6,7.9-11.3c1.2-1.9,2-3.4,2.3-4.6C384.2,164,384.4,163.6,384.4,163.2L384.4,163.2L384.4,163.2z"/>
	<path class="st1" d="M359.7,178.6c0,0.3-0.1,0.4-0.4,0.4s-0.4-0.1-0.4-0.4c0-0.3,0.1-0.4,0.4-0.4c0.1,0,0.1,0,0.3,0h-0.1
		c0.1,0-0.1,0-0.1,0l0,0l1-0.3c0.1,0,0.4,0,0.4,0.3c0,0.1,0,0.4-0.3,0.4l-1,0.4l0,0l0,0l0,0v-0.1
		C359.7,178.8,359.7,178.5,359.7,178.6 M375.8,174c0.3,0,0.5,0.3,0.5,0.6s-0.3,0.6-0.5,0.6c-1.2,0-2.3-0.1-4.1,0.1
		c-1.2,0.3-2.9,0.9-4.6,1.4l-5.4,1.9l-2.2,0.6h-0.1h-0.1c0,0-0.1,0.1-0.3-0.1c-0.1-0.1-0.1-0.3,0-0.4c0.1-0.4,0.1-0.3,0.3-0.3h0.1
		l2-0.7l5.6-1.7c1.8-0.6,3.3-1.1,4.8-1.4C373.5,173.9,374.7,174.2,375.8,174"/>
	<path class="st1" d="M381.9,173.5c0.1-0.1,0.5-0.3,0.7,0c0.1,0.1,0.1,0.3,0.1,0.4v1.6c0,1.6,0.1,3.7,0.4,5.7
		c0.1,1.4,0.4,2.6,0.7,3.4c0.1,0.4,0.3,0.6,0.4,0.7c0.1,0.1,0.3,0.1,0.5,0c0.1-0.1,0.4,0,0.4,0.1s0,0.3-0.1,0.4
		c-0.4,0.3-0.8,0.3-1.2,0.1c-0.4-0.1-0.7-0.6-1-1c-0.5-1-1-2.3-1.2-3.7c-0.3-2.1-0.4-4.3-0.3-6C381.5,174.8,381.5,174,381.9,173.5"
		/>
	<path class="st1" d="M382.9,180.2c0.3,0,0.4,0.3,0.4,0.6s-0.3,0.4-0.5,0.4l0,0c-0.5-0.1-1.1,0.1-1.6,0.6l-1.5,1.4
		c-0.1,0.1-0.4,0.1-0.5-0.1c-0.1-0.1-0.1-0.4,0-0.4c0.4-0.3,0.8-1,1.5-1.4C381.2,180.6,382,180,382.9,180.2"/>
	<path class="st1" d="M431.9,133.2c-0.3,0-0.5-0.1-0.5-0.4c0-0.3,0.1-0.6,0.4-0.6h0.1h0.5l0,0l-0.1-0.4c-0.1-0.1-0.1-0.4,0.1-0.6
		c0.1-0.1,0.4-0.1,0.5,0c0.3,0.3,0.4,0.4,0.4,0.7s0,0.6-0.3,0.7C432.6,133.2,432.2,133.2,431.9,133.2"/>
	<path class="st1" d="M431.5,131.6c0,0.3-0.3,0.4-0.5,0.3c-0.3,0-0.4-0.3-0.3-0.6s0.3-0.4,0.5-0.3c0.1,0,0.3,0.1,0.3,0.3v-0.1
		l-0.1-0.1l0,0C431.6,131.3,431.6,131.4,431.5,131.6c0,0.1-0.1,0.1-0.1,0.3l0,0l0,0L431.5,131.6
		C431.5,131.7,431.5,131.4,431.5,131.6 M431.6,131.4c0,0.3-0.3,0.6-0.5,0.6s-0.5-0.3-0.5-0.6s0.3-0.6,0.5-0.6
		C431.4,130.9,431.6,131.2,431.6,131.4"/>
	<path class="st1" d="M432.7,131.2c0.1,0.3,0.1,0.6-0.1,0.7c-0.3,0.1-0.5,0.1-0.7-0.1c0,0,0,0,0-0.1c-0.1-0.4,0-0.7,0.1-0.9l0.4-0.4
		l-0.1,0.1c0,0,0,0.3,0,0.1c0-0.1,0.1,0.3,0.1,0.3c0-0.1,0.1,0.1,0.1,0.1l0,0l-0.4,0.1c-1.2,0.1-2.9,0.3-4.4,0.7
		c-1.8,0.4-4.2,1.1-6.4,1.6c-2.6,0.4-4.1,0-6.4,0.4c-1.6,0.3-3.5,0.9-6,1.4l-4.1,0.9l-7.6,1.3c-3,0.4-6.1,0.9-9.4,1.3
		c-6.8,0.7-12.8,0.7-18.7,0.6l-6.5-0.1h-6.8c-3.1,0-5.7-0.6-8.2-1.1c-5.2-1.3-11.3-2-16.3-2.7c-4.5-0.6-8.7-1.6-11.4-1.7
		c-1.1,0-1.9,0-2.5,0.1c-1.1,0.3-2.2,1.4-3.8,1.7c-0.7,0.1-1.4,0-1.9,0c-0.8,0-1.9,0.4-3,0.7l-2.2,0.6l-1,0.3
		c-0.5,0.1-1.1,0.4-1.5,0.9c-0.3,0.1-0.7,0.4-1,0.6c-0.3,0.1-0.4,0-0.7,0c-0.3-0.1-0.4-0.4-0.4-0.6s0-0.3,0-0.3v-0.1
		c0.1-0.1,0.3-0.4,0.4-0.4l0.7-0.4c0.5-0.4,1.1-0.9,1.9-1.1l1.1-0.3l2.2-0.6c1.1-0.3,2.2-0.7,3.3-0.7h1.6c1.2-0.3,2.2-1.3,3.7-1.7
		c1-0.3,1.9-0.3,3-0.1c3,0.1,7.1,1.1,11.6,1.7c5,0.7,11.2,1.4,16.6,2.7c2.3,0.6,4.8,1.1,7.8,1.3h6.8l6.5,0.1
		c5.7,0.1,11.7,0.1,18.4-0.6c3.1-0.3,6.4-0.7,9.3-1.3l7.6-1.3l4-0.7c2.3-0.4,4.4-1,6-1.3c2.6-0.4,4.2,0.1,6.5-0.3
		c2-0.3,4.5-1,6.4-1.4c1.6-0.4,3.3-0.4,4.4-0.6c0.4,0,0.5,0,0.8,0.1c0.1,0,0.3,0.1,0.4,0.4c0,0.1,0,0.3-0.1,0.4L432.7,131.2l0.3-0.1
		L432.7,131.2L432.7,131.2z"/>
	<path class="st1" d="M333.7,134.4c-0.3,0.1-0.5,0-0.7-0.1s-0.1-0.4,0.1-0.6l-0.1,0.1c0,0,0,0.3,0,0.1c0-0.1,0.1,0.4,0,0.3l0.1,0.1
		c0,0,0.1,0.1,0.1,0l0,0c-0.1,0,0,0,0,0H333l-1.1,0.3c-0.8,0.3-1.8,1.3-3.1,2.7l-3.1,3l-3.3,2.9l-5.4,4.9l-5.2,4.4l-1,0.9l0,0v-0.3
		c0,0.1-0.1-0.1-0.1-0.1l0,0c0.3,0,1.1-0.1,1.9-0.4c0.1,0,0.4,0,0.4,0.3c0,0.1,0,0.4-0.3,0.4c-1.2,0.4-1.9,0.9-2.6,0.6
		c-0.1,0-0.4-0.3-0.5-0.6c0-0.3,0.1-0.4,0.1-0.6c0.3-0.4,0.5-0.7,1.1-1.1l5.2-4.4l5.4-4.9l3.1-2.9l3.1-3c1.5-1.4,2.5-2.6,3.7-2.9
		c0.5-0.1,1-0.3,1.4-0.3h0.4l0.3,0.1c0,0,0.1,0,0.3,0.3C334,134,333.8,134.3,333.7,134.4"/>
	<path class="st1" d="M357.9,140.7c0.1,0.3,0,0.6-0.3,0.7c-0.3,0.1-0.5,0-0.7-0.3l0,0l-0.4,0.1c-0.5,0.3-1.5,1-2.9,2l-5.4,4.3
		l-14,11.3l-4.6,3.9l-1.9,1.6l-0.5,0.4l-0.4,0.1h-0.4c-0.3-0.1-0.4-0.6-0.4-0.7l0.1-0.3c0.1-0.1,0.3-0.3,0.4-0.3l0.8-0.4
		c0.1-0.1,0.4,0,0.5,0.1s0,0.3,0,0.4l-0.3,0.4v0.1l0,0c0,0,0-0.3,0-0.1c0,0.1,0,0.4,0,0.6v-0.1c0,0,0-0.3,0-0.1c0,0.1-0.1-0.4,0-0.3
		c0,0.1-0.3-0.3-0.1-0.3c0,0-0.3-0.1-0.1-0.1c0.1,0-0.3,0-0.3,0h-0.1h-0.1l0,0l0.4-0.3l1.9-1.6l4.6-3.9l14-11.3l5.4-4.3
		c1.5-1,2.5-1.7,3.3-2c0.4-0.1,0.7-0.3,1.1-0.1C357.5,140.2,357.8,140.4,357.9,140.7"/>
	<path class="st1" d="M342.1,134.9c0.3-0.1,0.5-0.1,0.7,0.1c0.1,0.3,0.1,0.4-0.1,0.7c-0.1,0.1-0.4,0.1-0.5,0.1l-0.4-0.1l-0.5-0.4
		l-1.6-1.7c-0.5-0.6-1.4-1.3-2.2-2.1c-1.5-1.7-2.9-4.4-4.2-6.7c-1.4-2.3-2.6-4.3-3.7-5.6c-1-1-1.9-1.3-3-1.6
		c-1.1-0.3-1.9-0.4-2.3-0.4l0,0l0.1-0.3v0.1l0.4,0.4c0.1,0.1,0.1,0.4,0,0.6c-0.1,0.1-0.3,0.1-0.4,0c-0.4-0.3-0.7-0.6-0.8-1
		c-0.1-0.1-0.1-0.6,0-0.7c0.1-0.3,0.4-0.3,0.5-0.4c0.7-0.3,1.8-0.1,2.7,0c1.2,0.3,2.7,0.7,4,2.1c1.2,1.4,2.3,3.6,3.7,5.9
		c1.4,2.4,2.6,5,4,6.6c0.7,0.9,1.4,1.4,2,2.1l1.5,1.7l0.4,0.4l0,0h-0.1L342.1,134.9z"/>
	<path class="st1" d="M331.5,122.4c-0.1,0.3-0.5,0.3-0.7,0.1c-0.1-0.1-0.3-0.4-0.1-0.7l0,0v-0.1l-0.4-0.6l-1.6-1.6
		c-1-0.9-1.6-1.9-2.6-2.7c-1.9-1.4-5.6-1.7-9.3-1.6c-2.9,0-5.3,0-7.5-0.3l-2.3-0.4c-1-0.1-2.2-0.1-3.1-0.1h-1.2h-0.1h-0.1l0,0
		l0.1-0.1c0,0,0.1-0.4,0.1-0.3v-0.3c0,0.1-0.1-0.3-0.1-0.1l-0.1-0.1l0,0h0.1l0.8,0.1c0.7,0.1,1.6,0.3,2.3,0.9
		c0.1,0.1,0.1,0.3,0.1,0.6c-0.1,0.1-0.3,0.1-0.4,0.1c-0.5-0.3-1.4-0.4-2-0.6h-1H302c-0.1,0-0.3,0-0.5-0.3l0.1,0.1
		c-0.1-0.1-0.4-0.4-0.4-0.7s0.1-0.4,0.1-0.6c0.1-0.3,0.4-0.4,0.7-0.4h0.1h1.2c1,0,2.2-0.1,3.4,0.1l2.2,0.4c2,0.3,4.4,0.3,7.2,0.3
		c3.7,0,7.6,0,10.1,2c1.1,1,1.8,2,2.6,2.9c0.5,0.6,1.2,1.1,1.6,1.7l0.5,0.9C331.6,121.7,331.6,122.1,331.5,122.4"/>
	<path class="st1" d="M301.9,128.7c-0.1,0.3-0.4,0.3-0.7,0.1c-0.3-0.1-0.3-0.4-0.1-0.7c0.1-0.3,0.4-0.3,0.7-0.1l0,0
		c0.1,0-0.3-0.1-0.1-0.1c0.1,0-0.1,0-0.1,0c0.1,0-0.1,0-0.1,0l0,0l0.7-0.7c0.1-0.1,0.4-0.1,0.5,0s0.1,0.3,0,0.4L301.9,128.7
		L301.9,128.7C301.9,128.7,302.1,128.6,301.9,128.7 M316.7,114.7c0.3,0.1,0.3,0.6,0,0.7c-0.1,0.3-0.5,0.3-0.7,0h-0.1l-0.5,0.1
		c-0.4,0.1-1.1,0.6-1.8,1.4c-1.4,1.3-2.7,3.6-4.8,5.7c-1.6,1.7-3.4,3.4-4.9,4.6l-1.6,1.3l-0.4,0.3l0,0c-0.3,0.1-0.5,0.1-0.7-0.1
		c0,0-0.1-0.1-0.1-0.3v-0.3l0.1-0.1l0.5-0.4l1.5-1.1c1.4-1.3,3.3-2.9,4.8-4.6c1.9-2.1,3.4-4.3,4.8-5.7c0.8-0.9,1.5-1.3,2.2-1.6
		l0.8-0.1C316.1,114.4,316.4,114.4,316.7,114.7"/>
	<path class="st1" d="M317.2,113.4c-0.3-0.1-0.4-0.4-0.3-0.7s0.3-0.3,0.5-0.3l0,0h-0.1l-0.1,0.1c0.1,0-0.3,0.4-0.1,0.3
		c0-0.1,0,0.3,0,0.3l0,0l-0.1-0.3l-1.6-2.1c-0.7-1.1-1.5-2.6-2.3-4.3c-1.4-2.6-2.7-5.6-4.2-8.3c-1.5-2.6-3.3-4.6-4.6-5.9l-1.2-1
		l-0.3-0.1l0,0c0,0,0.3,0,0.1,0c-0.1,0-0.3,0-0.4-0.1h0.1c0,0,0.4,0,0.3,0s0.4-0.3,0.4-0.1c-0.1,0.1,0.1-0.3,0.1-0.3v-0.1v0.1
		c0.1,0.3,0.5,1,1.2,1.7c0.1,0.1,0.1,0.4,0,0.6c-0.1,0.1-0.3,0.1-0.4,0l-1.6-1.6l-0.4-0.4c0-0.1-0.1-0.1-0.1-0.4s0.1-0.7,0.4-0.9
		c0.1-0.1,0.3-0.1,0.4-0.1c0.5,0,0.8,0.1,1.2,0.4l1.4,1.1c1.5,1.4,3.3,3.6,4.9,6.3c1.6,2.9,3,5.9,4.2,8.4c0.8,1.7,1.5,3.1,2.2,4.1
		l1.4,2.3c0.1,0.3,0.4,0.4,0.3,0.9c0,0.3-0.5,0.6-0.7,0.4H317.2z"/>
	<path class="st1" d="M365.6,135.2c0.1,0.3,0,0.6-0.3,0.7c-0.3,0.1-0.5,0-0.7-0.3c-0.4-0.7-1.1-1.3-1.9-2.1c-0.4-0.6-0.7-1.1-1.1-2
		c-0.5-1.3-1.4-2.9-2.6-4.7c-0.7-1-1.5-2-2.3-2.9c-1.1-1.3-2.3-2.3-3.5-3.3c-1.8-1.4-3-2.4-4.1-3l-1.8-1.1c-0.7-0.7-1.2-1.6-1.1-2.3
		c0-0.4,0.3-0.7,0.5-1c0.3-0.3,0.7-0.4,1.2-0.6c0.1,0,0.4,0.1,0.4,0.3c0,0.1,0,0.4-0.3,0.4c-0.4,0.1-0.7,0.4-0.8,0.6l-0.1,0.3
		c0,0.1,0.3,0.6,0.8,0.9l1.8,1.1c1.1,0.7,2.5,1.7,4.2,3.1c1.2,1,2.5,2.1,3.7,3.6c0.8,1,1.8,2,2.5,3.1c1.2,2,1.9,3.7,2.5,4.9l0.8,1.9
		C364.5,133.4,365.2,134.2,365.6,135.2"/>
	<path class="st1" d="M346.6,113c0.1-0.3,0.4-0.4,0.7-0.4c0.3,0,0.4,0.3,0.4,0.6c0,0.1-0.1,0.4-0.3,0.6l-0.4,0.1l-0.7-0.1l-1.5-0.3
		c-1.6-0.3-4.2,0.4-6.5,0c-2-0.4-3.7-1.9-5.4-3.3c-1.2-1-2.3-1.7-2.9-2.7c0,0,0-0.1-0.1-0.1c-0.1-0.4,0-0.9,0.1-1.1
		c0.3-0.3,0.5-0.4,0.8-0.6c0.1,0,0.4,0,0.4,0.3c0,0.1,0,0.3-0.1,0.4l-0.1,0.1h0.1l0.1,0.1c0.3,0.4,1.4,1.3,2.6,2.3
		c1.6,1.4,3.3,2.7,4.8,3.1c1.9,0.4,4.4-0.3,6.4,0c0.7,0.1,1.2,0.3,1.6,0.4l0.4,0.1l0,0h-0.1l-0.1,0.1
		C346.8,112.9,346.6,113,346.6,113"/>
	<path class="st1" d="M432.6,91c0.3,0,0.5,0.3,0.4,0.6l0,0c0,0.3-0.1,0.3-0.3,0.4l-0.1,0.1l-0.7,0.1c-0.5,0-1.2,0.1-1.8,0
		c-0.1,0-0.1-0.1-0.3-0.1c-0.1-0.1-0.3-0.3-0.3-0.6c0-0.3,0.1-0.4,0.1-0.6c0.1-0.1,0.4-0.1,0.5,0l0,0l-0.1-0.1h0h0.1
		c0.1,0,0.1,0,0.3,0c0.3,0.1,0.8,0.1,1.4,0.1L432.6,91L432.6,91z M432.4,92.1c-0.3,0-0.5-0.3-0.5-0.6c0-0.3,0.1-0.6,0.4-0.6h0.1
		h-0.1c0.3,0,0.5,0.1,0.7,0.4c0,0.3-0.1,0.6-0.4,0.7c-0.3,0-0.5-0.1-0.5-0.4c0-0.1,0.1,0.3,0.1,0.1C432.2,91.8,432.3,92,432.4,92.1
		L432.4,92.1C432.3,92,432.4,92.1,432.4,92.1L432.4,92.1z"/>
	<path class="st1" d="M433.7,93.1c-0.3,0.1-0.5,0.1-0.7-0.1c-0.1-0.1-0.1-0.4,0-0.7l0,0c0,0-0.1,0.3,0,0.3c0,0,0,0.3,0,0.1
		c0,0,0.1,0.3,0.1,0.1l0.1,0.1h0.1h-0.5l-2,0.1c-0.7,0-1.4-0.1-2-0.4c-1-0.4-1.5-1.3-2-1.7c-0.8-0.7-2.2-1.1-4-1.4s-4-0.4-6.1-0.6
		c-5.3-0.6-11.4-2.1-18.3-3c-6.1-0.7-12.3-1.1-18.3-2.4c-6.5-1.4-14.2-3.1-21.4-5.7c-3.3-1.1-6.3-2.6-8.9-4l-7.2-4
		c-2.2-1.1-4.4-2-6.1-2.7c-2.2-0.9-3.8-2-5.2-2.7c-0.8-0.4-1.5-0.9-2.5-1.1c-1.9-0.6-4.5-0.6-6.7-0.7c-2.3-0.1-3.7-0.7-4.9-1
		c-1.1-0.3-2.2-0.3-3.3-0.3l-1.5-0.1h-0.1c-0.7-0.3-1.2-0.6-1.9-0.9c-0.1-0.1-0.3-0.3-0.1-0.6c0.1-0.1,0.3-0.1,0.4-0.1
		c0.7,0.1,1.2,0,1.8,0h0.1l1.5,0.1c1.1,0,2.3,0,3.5,0.3c1.4,0.4,2.6,0.9,4.6,1s4.8,0,7.1,0.6c1.1,0.3,2,0.7,2.9,1.3
		c1.5,0.9,2.9,1.9,5,2.7c1.8,0.7,4,1.6,6.3,2.9l7.2,3.9c2.6,1.4,5.6,2.7,8.7,3.9c7.1,2.6,14.6,4.3,21.1,5.7c6,1.3,12,1.9,18.1,2.6
		c3.5,0.4,6.8,1,9.9,1.6c3,0.6,5.9,1.1,8.4,1.4c4.5,0.4,8.6,0.3,10.9,2.3c0.8,0.7,1.2,1.4,1.8,1.6c0.4,0.3,1,0.3,1.5,0.4L433,92
		l0.7,0.1c0.1,0,0.4,0.1,0.4,0.6C433.9,92.8,433.7,93,433.7,93.1"/>
	<path class="st1" d="M320.6,63.7c0.3,0,0.4,0.3,0.4,0.6c0,0.3-0.3,0.4-0.5,0.4c-1-0.1-1.9,0.3-3.4,1l-2.5,1.3l-8.3,4.3
		c-1.2,0.6-2.3,1.1-3,1.4l-0.4,0.1c-0.1,0-0.4,0.1-0.5-0.3c-0.1-0.3,0-0.4,0.1-0.6l0.4-0.4c0.1-0.1,0.4-0.1,0.5,0s0.1,0.4,0,0.6
		l-0.3,0.3l0,0v-0.1c0,0-0.1-0.3-0.1-0.1l-0.1-0.1h-0.1l0.2-0.3l2.9-1.4l8.2-4.4l2.6-1.3C318,64,319.2,63.4,320.6,63.7"/>
	<path class="st1" d="M316.1,38.5c0,0.4-0.4,0.7-1,0.7c-0.4,0-0.7-0.4-0.7-1s0.4-0.7,1-0.7c0.3,0,0.5,0.3,0.7,0.6c0,0.1,0-0.1,0-0.1
		l0,0V38.5l1.2,2.6c0.1,0.1,0,0.4-0.1,0.4c-0.1,0.1-0.4,0-0.4-0.1c-0.7-1.3-1.2-2-1.5-2.3l0,0h0.1h0.1h0.1c-0.1,0,0.4-0.1,0.3-0.1
		s0.3-0.3,0.3-0.1c0,0,0.1-0.3,0.1-0.1C316.1,38.8,316.1,38.4,316.1,38.5 M327.1,62c0.3,0.1,0.4,0.4,0.3,0.7
		c-0.1,0.3-0.3,0.4-0.5,0.3c-0.7-0.1-1.1-0.6-1.6-1.3s-1.1-1.9-1.9-3.3c-1-1.6-2-3.4-3.3-5.7c-2-3.9-3.8-8.3-4.9-11.3
		c-0.4-1.1-0.5-1.9-0.7-2.4c0-0.1,0-0.1,0-0.3c0-0.1,0-0.4,0.1-0.6l0.3-0.4c0.1-0.1,0.5-0.3,1,0c0.1,0,0.1,0.1,0.3,0.3l0.1,0.1
		l0.1,0.3c0,0.1,0,0.1,0.1,0.3l0.7,2.1c1,3,2.6,7.3,4.5,11.2l3.1,5.7l1.6,3.3C326.6,61.5,326.9,61.8,327.1,62"/>
	<path class="st1" d="M318.2,84.3c0,0.3-0.3,0.4-0.5,0.3c-0.3,0-0.4-0.3-0.4-0.6s0.3-0.4,0.5-0.3c0.1,0,0.1,0,0.3,0.1l-0.1-0.1h-0.1
		c0.1,0-0.1,0-0.1,0l0,0l0.7-0.4c0.1-0.1,0.4,0,0.5,0.1s0,0.4-0.1,0.4L318.2,84.3L318.2,84.3L318.2,84.3L318.2,84.3
		C318.2,84.4,318.3,84.1,318.2,84.3 M340.1,68.8c0.3,0.1,0.4,0.4,0.3,0.7c-0.1,0.3-0.4,0.4-0.7,0.3c-0.1,0-0.5,0-1.1,0.3l-2.3,1.3
		c-2,1.3-4.9,3-7.6,4.7c-1.6,1.1-3.1,2.1-4.2,3.1l-2.9,2.6c-0.8,0.7-1.5,1.3-2,1.7l-1.4,0.9c0,0,0.1,0.1-0.4,0
		c-0.1,0-0.3-0.1-0.3-0.3c-0.1-0.4,0-0.4,0-0.4v-0.1l1.2-1.1l2-1.7l2.9-2.6c1.2-1,2.6-2.1,4.4-3.3c2.7-1.9,5.6-3.4,7.8-4.7
		c1-0.6,1.8-1,2.5-1.3C338.7,68.8,339.4,68.5,340.1,68.8"/>
	<path class="st1" d="M344.6,54c0.1,0.3,0.1,0.6-0.1,0.7c-0.3,0.1-0.5,0.1-0.7-0.1c-1-1.1-1.4-2-1.9-2.7c-1-1.3-2.7-2.9-4.2-4
		c-2-1.7-4.1-2.7-6-4.4c-1.4-1.1-2.6-2.4-4.6-4c-1.4-1-3.1-1.4-4.5-2.1c-0.8-0.4-1.5-1.1-1.9-1.7l-0.5-0.9c-0.1-0.3-0.3-0.7-0.1-1.3
		c0-0.1,0.1-0.3,0.3-0.4c0.3-0.3,0.5-0.3,0.8-0.3l0.5,0.1l1.8,0.9c0.1,0.1,0.3,0.3,0.1,0.4c-0.1,0.1-0.3,0.3-0.4,0.1
		c-0.8-0.3-1.4-0.3-1.6-0.3h-0.1c0,0,0.1-0.1,0.1,0c0,0,0.1-0.4,0.1-0.3c0,0.1,0-0.4,0-0.3c0,0.1,0,0.4,0,0.6s0-0.3,0-0.1v-0.1l0,0
		l0.3,0.6c0.3,0.4,0.8,1,1.2,1.3c1.2,0.6,3,1,4.8,2.3c2.2,1.6,3.5,3,4.8,4c1.8,1.6,3.7,2.6,5.9,4.6c1.5,1.4,3.3,3.1,4.2,4.6
		C343.5,52,343.8,52.8,344.6,54"/>
	<path class="st1" d="M330.7,16.1c0,0.3-0.3,0.4-0.5,0.4c-0.3,0-0.4-0.3-0.4-0.6l-0.3-0.4l0.1,0.1h0.3c-0.1,0,0.3-0.3,0.3-0.1
		c0,0.1,0-0.3,0-0.3v0.1c0,0.1,0-0.1,0-0.1l0.1,0.3L330.7,16.1c1,2.1,1.5,4.4,1.9,7.1c0.8,4.3,2.3,8.6,3.5,11.4c1,2,1.2,4.3,1.9,6
		c0.3,0.9,0.7,1.6,1.2,2.3l1.8,2.7l1.1,1.9c1.5,2.6,3.4,4,4.6,6.4s1.5,5.3,2.2,8.6c0.3,1.3,0.5,2.3,1,3.6c0.4,1,1,2.1,1.5,3.3
		c0.3,0.6,0.5,1.1,0.8,1.9l0.1,0.9v0.1l0,0c0,0-0.3-0.1-0.1-0.1c0.5,0.3,0.8,0.9,0.5,1.4c-0.3,0.6-0.8,0.9-1.4,0.6
		c-0.3-0.1-0.5-0.3-0.7-0.6c-0.3-0.4-0.4-0.9-0.4-1.1l-0.1-0.6l-0.5-1.6c-0.5-1.1-1.1-2.3-1.5-3.4c-0.5-1.3-0.8-2.6-1.1-3.9
		c-0.7-3.4-1-6.1-1.9-8c-1-2-2.9-3.6-4.5-6.4l-1-1.9l-1.8-2.7c-0.5-0.7-1-1.6-1.4-2.6c-0.8-2.1-1.1-4.3-1.9-6
		c-1.2-3-2.9-7.3-3.7-11.9c-0.4-2.6-0.8-4.9-1.6-6.7l-0.4-0.9c-0.1-0.3-0.4-0.6-0.3-1.1v-0.1l0.4-0.4h0.5c0.3,0.1,0.4,0.3,0.5,0.4
		C330.6,15.1,330.8,15.5,330.7,16.1 M353,73c0,0.6-0.4,1.1-1.1,1.1c-0.5,0-1.1-0.4-1.1-1.1c0-0.6,0.4-1.1,1.1-1.1
		C352.6,71.8,353,72.4,353,73"/>
	<path class="st1" d="M432.3,112.9c0.1,0.3,0.1,0.6-0.1,0.7c-0.1,0.1-0.5,0.1-0.7,0c-0.1-0.1-0.5-0.3-1.2-0.3h-2.9
		c-1.6,0-3.7-0.3-6.1-0.6c-4.2-0.4-9.7-0.7-14.8-1.6c-2.3-0.4-4.5-0.9-6.5-1.3l-6.3-1.3l-2.2-0.7l-0.4-0.1h0.1c0,0,0.3-0.1,0.1,0
		c-0.1,0,0.3-0.3,0.3-0.1s0.1-0.3,0.1-0.3c0,0.1-0.1,0.3-0.3,0.4c-0.1,0,0.1-0.3,0.1-0.1c0,0.1,0-0.1,0-0.1l0.1,0.6
		c0,0.1-0.1,0.4-0.3,0.4s-0.3,0-0.4-0.1l-0.5-0.7c-0.1-0.1-0.1-0.3-0.1-0.6c0-0.1,0.1-0.4,0.4-0.6c0.1-0.1,0.4-0.1,0.5-0.1l0.7,0.1
		l2,0.6l6.3,1.3c2,0.4,4.2,1,6.5,1.3c5.2,0.9,10.6,1.1,14.8,1.6c2.6,0.3,4.5,0.6,6,0.6l3,0.3C431.4,112.1,431.9,112.3,432.3,112.9"
		/>
	<path class="st1" d="M394.3,107.3c0.1,0.1,0.1,0.6,0,0.7s-0.5,0.1-0.7,0c-0.7-0.7-1.2-1.4-2.5-2.7c-1.5-1.6-3.8-3.9-6.4-5.9
		c-1.2-1-2.6-1.9-4.1-2.6c-0.8-0.4-1.6-0.9-2.6-1.1c-1.1-0.3-2.2-0.6-3.3-0.9c-1.8-0.4-3.4-0.6-4.8-0.6c-1.2,0-2.3,0.1-3,0.4
		l-0.5,0.4l-0.1,0.1c0,0.1,0.1,0.3,0.4,0.6c0.3,0.3,0.7,0.6,1.2,0.7c0.1,0.1,0.3,0.3,0.1,0.4c-0.1,0.1-0.3,0.3-0.4,0.1
		c-0.5-0.3-1.1-0.6-1.4-0.9c-0.4-0.3-0.7-0.6-0.7-1c-0.1-0.4,0-0.9,0.1-1.1c0.3-0.3,0.5-0.6,1-0.7c0.8-0.4,1.9-0.6,3.4-0.7
		s3.1,0,5,0.3c1.2,0.3,2.3,0.6,3.5,0.9c1,0.3,1.9,0.7,2.7,1.1c1.5,0.9,2.9,1.7,4.2,2.9c2.7,2.1,4.9,4.4,6.4,6.1
		C393.2,105.8,393.8,106.7,394.3,107.3"/>
	<path class="st1" d="M370.6,125c0,0.3-0.1,0.4-0.3,0.6c-0.3,0-0.4-0.1-0.5-0.3c-0.1-0.1,0.1-0.4,0.3-0.6c0.1,0,0.1,0,0.3,0
		c0.1,0-0.1,0-0.1,0c0.1,0-0.1,0-0.1,0l0.5-0.6c0.1-0.1,0.4-0.1,0.5,0s0.1,0.4,0,0.6l-0.7,0.7l0.1-0.1l0,0L370.6,125 M394.3,112.1
		c0.3,0,0.5,0.3,0.5,0.6s-0.1,0.6-0.4,0.6c-0.5,0.1-0.8-0.1-1.4-0.3c-0.5-0.1-1.1-0.3-1.8-0.1c-0.7,0.1-1.8,0.7-3.3,1.4
		c-1.9,1-4.4,2-6.5,3.3c-2.6,1.4-4.8,3.1-6.7,4.6l-2.5,2l-1.5,1.1l-0.4,0.3l-0.3,0.1h-0.3c-0.1,0-0.3-0.1-0.3-0.3v-0.3l0.1-0.3
		l0.4-0.4l1.2-1.3l2.5-2.1c1.9-1.6,4.2-3.1,6.8-4.7c2.3-1.3,4.8-2.3,6.7-3.1c1.5-0.7,2.6-1.4,3.7-1.6
		C392.8,111.4,394.3,112.1,394.3,112.1"/>
	<path class="st1" d="M377.1,97c-0.1,0.3-0.4,0.4-0.7,0.4c-0.3-0.1-0.4-0.3-0.4-0.6c0.1-0.7,0.3-1,0.4-1.3c0,0,0.1-0.3,0.4-0.3
		c0.4,0,0.5,0.3,0.7,0.4c0,0.3,0,0.3,0,0.4l-0.3,0.7c-0.5,1-1.5,2.1-2.9,3.4l-4.2,4.4c-1.8,1.7-3.1,3.1-4.1,4.1l-0.8,1.1l-0.1,0.3
		l0,0c0.1,0.1,0.1,0.4,0,0.6c-0.1,0.1-0.3,0.1-0.5,0c-0.1-0.1-0.3-0.3-0.4-0.6c0-0.3,0-0.4,0.1-0.7c0.1-0.4,0.4-0.9,1-1.4
		c1-1.1,2.3-2.7,4-4.4l4.2-4.3c1.2-1.3,2.2-2.4,2.6-3.1l0.3-0.4v0.1c0,0,0,0.3,0,0.1c0-0.1,0.3,0.3,0.1,0.3c0,0,0.3,0.1,0.1,0.1
		s0.3,0,0.3,0h0.1c-0.1,0,0.1-0.1,0.1-0.1L377.1,97z"/>
	<path class="st1" d="M371,92.6c0.3,0,0.5,0.1,0.5,0.4s-0.1,0.6-0.4,0.6c-1.9,0.3-3.1-0.1-4.9-1l-3.5-1.9c-1.5-0.9-3.3-1.7-5-2.6
		c-1.6-0.7-3.4-1.1-4.8-1.4c-1.2-0.3-2.2-0.3-2.9-0.3h-0.1l-0.8-0.3c-0.3-0.1-0.4-0.4-0.4-0.6s0.1-0.4,0.3-0.4h0.1h0.1l0.7-0.1h0.1
		c0.7,0,1.8,0,3.1,0.3c1.5,0.3,3.3,0.7,5,1.4c1.9,0.9,3.7,1.9,5.2,2.6l3.5,1.9C368.4,92.4,369.2,92.7,371,92.6"/>
	<path class="st1" d="M358.9,90.7c0.1,0.3,0,0.6-0.3,0.7s-0.5,0-0.7-0.3l0.1,0.1h-0.3l-1.4,0.4c-1.2,0.6-2.9,1.3-4.5,2.1
		c-1.9,0.9-3.8,1.7-5.4,2.3c-0.8,0.3-1.5,0.3-2,0.3c-0.3,0-0.5-0.1-0.8-0.3c-0.3-0.1-0.3-0.4-0.4-0.7c0-0.1,0.1-0.4,0.3-0.4
		s0.4,0.1,0.4,0.3l0.1,0.1l0.4,0.1c0.4,0,1-0.1,1.6-0.4c1.5-0.6,3.3-1.4,5.2-2.4c1.6-0.9,3.3-1.6,4.6-2.1c0.7-0.3,1.2-0.4,1.8-0.4
		c0.3,0,0.5,0,0.7,0C358.5,90.1,358.7,90.4,358.9,90.7"/>
	<path class="st1" d="M367.5,115.6c-0.1,0.3-0.5,0.4-0.8,0.3s-0.4-0.6-0.3-0.9s0.5-0.4,0.8-0.3c0.1,0.1,0.3,0.3,0.3,0.6
		c0,0.1,0-0.1,0-0.1c0,0.1-0.1-0.1-0.1-0.1l-0.1-0.1l0,0l1.4,0.7c0.1,0.1,0.3,0.3,0.1,0.6c-0.1,0.1-0.3,0.3-0.4,0.1L367,116l0,0
		c0,0,0.3-0.1,0.1,0h0.1L367.5,115.6C367.5,115.7,367.6,115.4,367.5,115.6 M379.6,115.7c0,0.1-0.1,0.4-0.3,0.4c-0.3,0.1-0.1,0-0.3,0
		h-0.1h-1l-3.7,0.1c-1.5,0-3.3,0.1-4.8,0c-1.4,0-2.5-0.3-2.9-0.4c-0.1,0-0.1-0.1-0.3-0.1l-0.3-0.3c0-0.1-0.1-0.1-0.1-0.6
		c0-0.1,0.1-0.3,0.1-0.4c0.3-0.3,0.3-0.1,0.4-0.3h0.3c0.1,0,0.1,0,0.3,0c0.3,0.1,1.4,0.3,2.5,0.4c1.4,0.1,3.1,0,4.6,0l3.7,0.1l1,0.1
		h0.1h0.1C379.5,115.3,379.6,115.3,379.6,115.7 M378.9,116.3c-0.3,0-0.5-0.3-0.5-0.6c0-0.3,0.1-0.4,0.4-0.6l0,0h-0.1l-0.1,0.1
		l-0.1,0.1v0.1c0,0,0,0.3,0,0.1c0-0.3,0.1-0.6,0.4-0.7c0.3,0,0.5,0.1,0.7,0.4c0,0.3-0.1,0.6-0.4,0.7
		C379,116.3,379,116.3,378.9,116.3C378.9,116.3,379,116.3,378.9,116.3L378.9,116.3z"/>
	<path class="st1" d="M384.6,117.4c0.1,0.1,0.1,0.6,0,0.7s-0.5,0.1-0.7,0s-0.3-0.1-0.4-0.1s-0.4,0.1-0.7,0.3
		c-0.7,0.4-1.4,1.1-1.9,2.1c-1.2,1.9-2.2,4.4-2,7.1c0,1,0,1.9,0.3,2.7c0,0.1-0.1,0.4-0.3,0.4s-0.3,0-0.4-0.1
		c-0.4-0.9-0.7-1.9-0.8-2.9c-0.1-3,0.8-5.9,2.2-8c0.8-1.1,1.6-2,2.5-2.4c0.4-0.3,0.8-0.4,1.2-0.4C383.8,117,384.2,117.1,384.6,117.4
		"/>
	<path class="st1" d="M433.9,66.7c0.3,0.1,0.3,0.4,0.1,0.7c-0.1,0.3-0.4,0.3-0.7,0.1c-0.3-0.1-0.8-0.3-1.9-0.1l-5,0.4l-6.9,0.7
		l-5.4,0.3c-3.5,0.1-7.6,0.3-11.9,0.7c-3.5,0.3-6.7,0.4-9.3,0.6c-2.6,0-4.8,0-6.5-0.1l-4.5-0.3c-0.1,0-0.3,0-0.3-0.1
		c-0.1-0.1-0.3,0-0.4-0.3v-0.1c-0.1-0.6,0.3-0.6,0.4-0.7c0.1,0,0.3-0.1,0.3-0.1h1.8l3,0.1c1.8,0.1,4,0.1,6.4,0.1
		c2.6,0,5.7-0.1,9.3-0.4c4.2-0.4,8.3-0.6,11.9-0.7l5.4-0.3l6.9-0.6c2.2-0.1,3.8-0.3,5.2-0.3C432.6,66.2,433.4,66.4,433.9,66.7"/>
	<path class="st1" d="M385.2,49c-0.1,0.4-0.5,0.7-1,0.7c-0.4-0.1-0.7-0.6-0.7-1c0-0.1,0.1-0.3,0.1-0.4l0.1-0.1c0,0,0.1-0.1,0.3-0.1
		c0.4-0.1,0.5,0,0.7,0l0.5,0.1l1.2,0.4c0.8,0.1,1.6,0.4,2.3,0.9c0.1,0.1,0.3,0.3,0.1,0.6c-0.1,0.1-0.3,0.3-0.5,0.1
		c-0.5-0.3-1.4-0.6-2-0.7h-1.1H385c0,0,0.1-0.1,0.1,0c0,0,0.1-0.3,0.1-0.1C385,49.2,385.2,48.8,385.2,49c0,0,0,0.1-0.1,0.3
		C385,49.2,385.2,48.8,385.2,49 M406.3,67.8c0.3,0,0.4,0.3,0.4,0.6c0,0.3-0.3,0.4-0.5,0.4c-1.1-0.1-1.6-1-2.5-1.7
		c-0.5-0.4-1.5-1-2.7-1.6s-2.6-1.4-4-2.4c-1.5-1.1-2.9-2.7-4.2-4.4c-1.2-1.4-2.3-3-3.4-4.4c-1.1-1.3-2.3-2.4-3.3-3.3l-1.5-1.1
		l-0.4-0.3l-0.1-0.1l-0.1-0.1c-0.1-0.1-0.4-0.3-0.4-0.9c0-0.4,0.4-0.9,1-0.7c0.3,0,0.5,0.3,0.7,0.4c0,0.1-0.3-0.3-0.1-0.3
		c0.1,0.1-0.3-0.1-0.1-0.1H385l0,0l0,0l0.8,0.4c0.3,0.3,1,0.7,1.6,1.3c1,0.9,2.2,2,3.4,3.6c1.1,1.4,2.2,3,3.4,4.4
		c1.4,1.7,2.7,3.1,4,4.1c2.6,2.1,5,2.9,6.5,4.3C405.5,67.1,405.9,67.7,406.3,67.8"/>
	<path class="st1" d="M401.9,72c0.3,0,0.4,0.3,0.4,0.6c0,0.3-0.3,0.4-0.5,0.4c-0.8-0.1-1.8,0.1-3.1,0.6c-1.5,0.6-3.1,1.3-4.5,1.9
		l-1.2,0.3c-0.1,0-0.4,0-0.7,0c-0.3-0.1-0.5-0.4-0.5-0.7c0-0.1,0-0.3,0-0.4l0.4-0.4l0.5-0.6c0.1-0.1,0.4-0.1,0.5,0s0.1,0.3,0,0.4
		l-0.3,0.6l0,0v-0.1c0,0-0.1-0.3-0.1-0.1c0.1,0.1,0.1,0.3,0.3,0.4c0,0.1-0.3-0.3-0.1-0.3s-0.3-0.1-0.1-0.1l0,0l1-0.3
		c1.4-0.4,3-1.3,4.6-1.7C399.7,72,400.8,71.7,401.9,72"/>
	<path class="st1" d="M432.6,42.8c-0.3,0.1-0.5,0-0.7-0.3c-0.1-0.3,0-0.6,0.3-0.7c0,0,0,0,0.1,0l0.5-0.1l0,0l0,0v0.1l0.1,0.3l0,0
		h-0.3l-1.2-0.1l-3.8-0.6c-1.4-0.1-3.1-0.3-4.9-0.7c-1.9-0.3-3.8-1-5.7-1.4c-2.2-0.6-4.2-1-6-1.6c-1.2-0.4-2-1-2.9-1.4
		c-1-0.4-1.8-0.9-3.1-1.1c-1.9-0.4-4.4-0.6-7.1-0.6c-1.6,0-3.1-0.3-4.6-0.4c-2.2-0.3-4.5-0.6-6.8-0.9c-3.1-0.6-6.3-1.3-9.1-2.1
		c-2.3-0.6-4.2-1.3-6.1-1.7c-2.9-0.7-5.6-0.7-7.8-0.9l-2.7-0.1h-0.7c-0.3,0-0.5,0-1-0.4c-0.5-0.6-0.5-1.1-0.4-1.4l0.3-0.9
		c0.3-0.4,0.5-0.7,0.8-1c0.5-0.4,1.1-0.6,1.6-0.7c0.3,0,0.7,0,1,0.3c0.3,0.1,0.4,0.4,0.4,0.7c0.1,0.4,0,1-0.4,1.4s-0.8,0.3-1.1,0.3
		h-0.5c-0.1,0-0.1,0-0.3,0l0,0c-0.1,0-0.3,0-0.5-0.1c-0.3-0.1-0.4-0.3-0.5-0.6l-0.3-0.9c0-0.1,0.1-0.4,0.3-0.4c0.1,0,0.3,0,0.4,0.1
		l0.3,0.4l0,0H360l0,0c0.1-0.1,0.3-0.3,0.5-0.3c0.1,0,0.1,0,0.3,0h0.5l0,0c0,0-0.1,0.1-0.1,0c0,0-0.3,0.3-0.3,0.1l-0.1,0.3
		c0-0.1,0.1,0.3,0,0.3l0.1,0.1l0.3,0.1c-0.1,0,0.4,0,0.3,0s0.3,0,0.3,0l-0.7,0.4l-0.4,0.6l0,0v-0.1v0c0,0.1-0.1-0.4,0-0.3
		c0,0.1-0.4-0.4-0.3-0.4c0,0,0.1,0,0.1,0.1s-0.3-0.1-0.1-0.1h-0.1h0.1l0.7,0.1l2.6,0.3c2.2,0.1,5,0.1,8.2,1c2,0.6,4,1.3,6.1,1.9
		c2.9,0.7,6,1.4,9,2c2.3,0.4,4.5,0.6,6.7,0.9c1.5,0.1,3,0.4,4.5,0.4c2.7,0,5.3,0.1,7.5,0.6c1.6,0.4,2.7,1,3.7,1.4
		c1,0.6,1.8,1.1,2.6,1.6c1.5,0.6,3.5,1.1,5.9,1.7c1.9,0.6,3.7,1.1,5.4,1.6l4.9,0.7L432,41l1.4,0.6l0.4,0.3c0.1,0.1,0.3,0.3,0.1,0.6
		v-0.4c0.1,0.1,0.1,0.3,0.1,0.4l-0.3,0.3L432.6,42.8z"/>
	<path class="st1" d="M342.8,2.3c-0.3,0.1-0.7,0.1-0.8-0.1c-0.1-0.3-0.1-0.7,0.1-0.9c0.3-0.1,0.7-0.1,0.8,0.1c0.1,0.1,0.1,0.4,0,0.6
		c0,0.1,0-0.3,0-0.3c0,0.1,0-0.1,0-0.1V1.5l0,0l1.5,1.4c0.1,0.1,0.1,0.4,0,0.6c-0.1,0.1-0.3,0.1-0.4,0.1l-1.8-1.1l0,0l0,0h0.1h0.1
		C342.5,2.3,342.9,2.2,342.8,2.3 M359.2,24.8c0.3,0.1,0.3,0.4,0.1,0.7c-0.1,0.3-0.4,0.3-0.7,0.1c-1-0.7-2.2-1.7-3.7-3.6
		c-1.1-1.3-2.2-3.1-3.4-5.1c-2.5-3.9-4.9-8.6-7.1-11.6c-1.1-1.6-1.9-2.4-2.3-2.9L342,2.3L341.9,2c0-0.1-0.3-0.1,0-0.6
		c0-0.1,0.1-0.3,0.3-0.3c0.4-0.3,0.4-0.1,0.5,0l0.3,0.1l0.1,0.1c0.4,0.4,1.4,1.4,2.5,3.1c2.2,3.3,4.6,8,6.9,11.9
		c1.2,2,2.3,3.7,3.3,5C357.2,23.2,358.3,24.1,359.2,24.8"/>
	<path class="st1" d="M356.7,26.8c0,0.3-0.3,0.4-0.5,0.4s-0.4-0.3-0.4-0.6l-0.1-0.4l-0.7-0.7c-0.7-0.6-1.8-1.1-3.1-1.6
		c-2.6-0.7-6.3-0.9-9.1-0.3c-1,0.1-1.8,0.3-2.3,0.6l-0.5,0.4l-0.1,0.3c0,0.1-0.1,0.4-0.3,0.4c-0.1,0-0.3-0.1-0.4-0.3
		c-0.1-0.3,0-0.7,0.1-1s0.4-0.6,0.7-0.9c0.7-0.4,1.5-0.7,2.6-1c3.1-0.6,6.9-0.4,9.8,0.4c1.5,0.4,2.7,1.1,3.5,1.9
		c0.4,0.3,0.7,0.7,1,1C356.7,26.1,356.8,26.4,356.7,26.8"/>
	<path class="st1" d="M382.4,34.8c0.1,0.3,0.1,0.6-0.1,0.7c-0.3,0.1-0.5,0.1-0.7,0c-0.5-0.7-1.1-1-2.5-0.6c-0.8,0.1-1.9,0.7-3.3,1.4
		c-3.3,1.6-7.6,3.6-11.3,5.7c-1.8,1-3.4,2-4.5,2.9c-0.5,0.4-1,0.9-1.2,1.1c-0.3,0.3-0.3,0.6-0.3,0.6c0,0.1-0.1,0.4-0.3,0.4
		c-0.1,0-0.4,0-0.4-0.3c-0.1-0.4,0.1-0.9,0.4-1.3c0.3-0.4,0.8-0.9,1.4-1.3c1.2-1,2.7-2,4.6-3c3.7-2.1,8-4.3,11.2-5.9
		c1.4-0.7,2.5-1.3,3.4-1.6C380.5,33.2,381.8,33.9,382.4,34.8"/>
	<path class="st1" d="M434.8,10.8c0.1-0.3,0.4-0.3,0.7-0.3c0.3,0.1,0.3,0.6,0.3,0.7l-0.1,0.3l-0.4,0.3l-1.5,0.6l-2.3,0.4l-5.9,0.9
		c-2.5,0.3-5.2,0.7-8.2,1c-2.9,0.3-5.9,0.3-9.4,0.3l-6.9,0.3c-4,0.1-8,0.1-12,0s-7.8-0.4-11.2-0.7l-5.2-0.6l-3.8-0.4
		c-1-0.1-1.6,0-2,0h-0.4l0,0l0,0h0.1c0,0,0.3-0.3,0.1-0.1c-0.1,0.1,0.1-0.6,0.1-0.4c0,0.1,0-0.4,0-0.3s-0.1-0.1-0.1-0.1s-0.1,0,0,0
		l0,0c0.7,0.3,2.3,1,4,1c0.1,0,0.4,0.1,0.4,0.3c0,0.1-0.1,0.4-0.3,0.4c-1.9,0.3-3.8-0.4-4.5-0.6l-0.3-0.1l-0.3-0.1
		c-0.1-0.1-0.3-0.6-0.1-0.7c0.1-0.4,0.4-0.4,0.5-0.4l0.5-0.1c0.5,0,1.4-0.1,2.3,0l3.8,0.4l5.2,0.6c3.3,0.3,7.1,0.6,11,0.7
		c4,0.1,7.9,0,11.9,0l6.9-0.3c3.4-0.1,6.5-0.1,9.3-0.4c2.9-0.3,5.6-0.6,8-1l5.9-0.9l2.3-0.4L434.8,10.8l0.3-0.1l0,0L434.8,10.8
		C434.9,10.6,434.8,10.9,434.8,10.8 M435.2,11.6c-0.3,0-0.4-0.3-0.4-0.6c0-0.1,0.1-0.4,0.4-0.4h0.3c0.3,0,0.5,0.3,0.5,0.6
		C435.7,11.5,435.4,11.6,435.2,11.6s-0.4-0.3-0.4-0.6c0-0.1,0-0.1,0-0.3c0-0.1,0,0.4-0.1,0.3c0-0.1,0.1,0.3,0,0.1
		c0-0.1,0.1,0.3,0.1,0.1C434.9,11.5,435,11.6,435.2,11.6L435.2,11.6z"/>
	<path class="st1" d="M371-16.4c0-0.3,0.3-0.4,0.5-0.4c0.3,0,0.4,0.3,0.4,0.6c0,0.1,0,0.1-0.1,0.3l0.1-0.1l0,0l0.3,1.7
		c0,0.1-0.1,0.4-0.3,0.4c-0.1,0-0.4-0.1-0.4-0.3l-0.4-1.4C371.1-16,371-16.1,371-16.4 M380,12.8c0,0.3-0.3,0.4-0.5,0.4
		c-0.3,0-0.4-0.3-0.4-0.6c0.1-1.3,0-1.9-0.8-3.7c-0.7-1.4-1.5-3.4-2.2-5.7c-0.5-1.6-1-3.3-1.4-5.3l-1.4-6.1c-0.5-2.4-1.2-4.4-1.6-6
		l-0.4-1.3l-0.1-0.3l0,0c0,0,0.3,0.1,0.1,0.1c-0.4-0.3-0.5-0.7-0.3-1.1c0.3-0.4,0.7-0.6,1.1-0.3l0,0c0.5,0.3,0.4,0.6,0.5,0.9
		l0.5,1.4c0.4,1.6,1.1,3.7,1.6,6.1l1.4,6.3c0.4,1.9,0.8,3.6,1.2,5.1c0.7,2.3,1.5,4.3,2,5.7C380.1,10.2,380.3,11.4,380,12.8
		 M372.4-16.4c0,0.4-0.4,0.9-0.8,0.9s-0.8-0.4-0.8-0.9s0.4-0.9,0.8-0.9C372-17.2,372.4-16.8,372.4-16.4"/>
	<path class="st1" d="M377.3,5.2c0,0.3-0.3,0.4-0.5,0.4c-0.3,0-0.4-0.3-0.4-0.6c0.1-1.1,0.3-2,0-2.4c-0.1-0.4-0.5-0.7-1.2-1.1
		l-3.5-1.7c-2.3-1.1-5.3-2.6-7.4-3.6L363-4.4l-0.4-0.1l0,0h0.1h0.1c-0.1,0,0.1-0.3,0.1-0.3c0,0.1,0-0.3,0-0.1l0.1,0.1
		c0.1,0.1,0.5,0.6,1.2,1c0.1,0.1,0.3,0.3,0.1,0.6c-0.1,0.1-0.3,0.3-0.4,0.1L362.4-4L362-4.4c-0.1-0.1-0.3-0.6,0-0.9
		c0.1-0.3,0.4-0.3,0.7-0.3h0.7l1.6,0.4l7.4,3.7c1.5,0.7,2.6,1.3,3.5,1.9c0.8,0.6,1.5,1.1,1.6,2C377.5,3.1,377.5,4.1,377.3,5.2"/>
	<path class="st1" d="M392.7-21.1c0.1,0.4-0.1,0.7-0.4,0.9c-0.4,0.1-0.7-0.1-0.8-0.4c-0.1-0.4,0.1-0.7,0.4-0.9c0.1,0,0.3,0,0.4,0
		l0,0c0.1,0,0,0,0.1,0l0.3,0.1c0.8,0.3,2,1.1,2.9,2.1c0.1,0.1,0.1,0.4,0,0.6c-0.1,0.1-0.3,0.1-0.4,0c-0.7-0.7-2-1.4-2.6-1.4h0.1
		l0.1-0.1l0.1-0.1l0.1-0.3v-0.1C392.7-20.8,392.7-21.2,392.7-21.1 M434.3-18.2c0.3,0,0.5,0.1,0.5,0.4s-0.1,0.6-0.4,0.6
		c-0.8,0.1-2,0-3.5-0.1l-2.5-0.4l-3-0.4L419-19c-6.9-0.7-14.2-0.6-20-0.6l-4.1-0.1l-2.6-0.1l-0.7-0.1l-0.3-0.1
		c-0.1-0.1-0.4-0.3-0.1-0.9l0.1-0.1c0.1-0.1,0.4-0.3,0.5-0.1l0,0h-0.1h0.1h0.3l2.9-0.1l4.1,0.1c5.9,0.1,13.1,0,20.2,0.9l6.4,0.9
		l3,0.6l2.5,0.6C432.7-18.2,433.8-18.1,434.3-18.2"/>
	<path class="st1" d="M400.7-20.2c-0.1,0.3-0.4,0.4-0.7,0.4c-0.3,0-0.4-0.3-0.4-0.6c0.3-1.3,0.5-3,0.5-5.4v-3.7l-0.1-4.1
		c0-0.4,0-0.7,0.3-1c0.1-0.1,0.3-0.6,0.8-0.4c0.3,0,0.4,0.3,0.4,0.3v0.1l0.5,1.9c0,0.1,0,0.4-0.3,0.4c-0.1,0-0.4,0-0.4-0.3l-0.5-1.1
		l-0.1-0.3l0,0c0,0,0.1,0.1,0.1,0c0,0,0.3,0,0.1,0c0,0,0.3,0,0.1,0c-0.1,0,0.4-0.3,0.3-0.1c-0.1,0.1,0.1-0.3,0.1-0.3
		c0,0.1,0-0.1,0-0.1l0,0l0.1,0.6l0.1,4.3l-0.1,3.7C401.4-23.4,401-21.7,400.7-20.2"/>
	<path class="st1" d="M400.7-20.4c0.3,0,0.5,0.3,0.5,0.6c0,0.3-0.3,0.6-0.5,0.6l0,0c-0.5,0-2.2,0.4-4.2,1.1s-4.5,1.7-6.8,2.6
		s-4.4,1.9-5.7,2.4l-1.2,0.7c0,0,0-0.1,0,0c0,0,0-0.3,0-0.1c0,0-0.1-0.3,0-0.1l-0.1-0.1h-0.1h0.3c0.1,0,0.4,0.1,0.4,0.3
		c0,0.1-0.1,0.4-0.3,0.4c-0.3,0-0.4,0.1-0.5,0s-0.3-0.4-0.1-0.6l0.1-0.3c0.3-0.3,0.7-0.4,1.4-0.9c1.4-0.7,3.4-1.6,5.7-2.6
		c2.3-1,4.8-1.9,6.8-2.7C398.1-19.8,399.7-20.4,400.7-20.4"/>
	<path class="st1" d="M414.2-16.8c-0.3,0-0.5-0.1-0.5-0.4s0.1-0.6,0.4-0.6c0.1,0,0.3-0.1,0.4,0c0.3,0.1,0.4,0.6,0.4,0.7
		c-0.1,0.3-0.3,0.4-0.4,0.7l-1.9,1.7c-1.8,1.6-4.1,3.4-6.3,5.4c-1.8,1.6-3.4,3-4.5,4.3c-0.5,0.6-1,1.1-1.1,1.6L400.6-3l0.1,0.3
		c0.1,0.1,0.1,0.4,0,0.6c-0.1,0.1-0.3,0.1-0.4,0c-0.3-0.1-0.4-0.4-0.4-0.7s0-0.6,0.1-0.9c0.1-0.6,0.5-1.3,1.1-1.9
		c1.1-1.4,2.7-3,4.5-4.6c2.3-2,4.6-3.9,6.4-5.3l1.9-1.6l0.1-0.1l0,0v0.1v0.1c0-0.1,0.3,0.4,0.1,0.3C413.8-17,414.1-16.8,414.2-16.8
		C413.9-16.8,414.2-16.8,414.2-16.8"/>
	<path class="st1" d="M432-3.8c0.3,0,0.5,0.3,0.5,0.6s-0.3,0.6-0.5,0.6c-0.5,0-1.1,0.1-2,0.3L428.1-2L421-1l-5,0.6
		c-1.4,0.1-2.5,0.3-3.1-0.1c-0.1,0-0.1-0.1-0.1-0.1c-0.1-0.1-0.3-0.4-0.3-0.6c0-0.1,0-0.4,0.1-0.6c0.1-0.1,0.3-0.3,0.5-0.1
		c0.1,0,0.1,0.1,0.1,0.3l0,0l0,0c0.1,0,0.1,0,0.3,0.1c0.5,0.3,3.8,0,7.5-0.4l7.1-1l1.9-0.3C430.8-3.7,431.4-3.8,432-3.8"/>
	<path class="st1" d="M434.3,251.5c0.3-0.1,0.5,0,0.7,0.1c0.1,0.1,0.1,0.4,0,0.6l-0.3,0.3l-0.1,0.1c-0.1,0-0.4,0.1-0.5,0
		c-0.4-0.1-0.5-0.6-0.5-0.9l0.1-0.6c0-0.1,0.1-0.1,0.1-0.3c0.4-0.6,1-0.6,1.4-0.7c0.3,0,0.5,0.1,0.7,0.3l0.3,0.3l0.1,0.6
		c0,0.3,0,0.7-0.1,1c-0.3,1.3-1.6,2.4-2.7,3c-0.4,0.3-1,0.4-1.5,0.3c-0.4,0-0.8-0.3-1.1-0.7c-0.3-0.4-0.3-0.7-0.3-1.1
		c0.1-1.1,0.8-2,1.5-2.7s1.5-1.4,2.2-1.9c0.3-0.1,0.7-0.4,1.1-0.6c0.5-0.1,1,0,1.2,0.3c0.3,0.1,0.5,0.4,0.7,0.7
		c0.4,0.6,0.3,1.3,0.1,2c-0.3,0.9-0.7,1.6-1.2,2.3c-0.7,1-1.8,1.3-2.6,1.3c-0.1,0-0.5,0.3-1.2,0.1c-0.7-0.1-1-0.7-1.1-1l-0.3-0.9
		c0-0.7,0.1-1.3,0.4-1.7s0.7-0.7,1.1-1.1c0.8-0.6,1.6-1.1,2.6-1.3c0.5-0.1,1.2-0.1,1.8,0.1c0.5,0.3,1,0.7,1.2,1.3
		c0.5,1,0.4,2.3,0.1,3.4s-1,2.3-1.8,3c-1,0.9-2.2,1.3-3.4,1c-1.1-0.4-1.8-1.6-1.9-2.6c-0.3-1-0.1-2.3,0.4-3.3c0.5-1.1,1.6-1.7,2.6-2
		s2-0.4,3-0.1c0.8,0.1,1.8,0.4,2.2,1.3c0.4,0.6,0.4,1.3,0.1,1.9c-0.1,0.6-0.5,1.1-1,1.7c-0.8,1-2,2-3.4,2.4
		c-1.2,0.4-2.5,0.6-3.5,0.3c-1.1-0.1-2-0.7-2.6-1.7c-0.3-0.7-0.3-1.3-0.1-1.9s0.5-1,0.8-1.4c1.1-1.1,2.9-1.6,4.4-1.7
		c0.7-0.1,1.4-0.1,2,0c0.8,0.1,1.6,0.6,2.2,1.3c0.3,0.4,0.4,1,0.3,1.4c0,0.4-0.3,0.9-0.4,1.3c-0.4,0.7-1.2,1.4-2,1.9
		c-1,0.4-2,0.7-3.1,0.3c-0.5-0.3-1.1-0.7-1.2-1.1c-0.3-0.4-0.3-1-0.3-1.6v-0.1c0.1-1,0.8-1.7,1.5-2.3s1.5-0.9,2.2-0.9
		c0.8,0,1.6,0.3,2,1s0.4,1.7,0.1,2.9c0,0.1-0.3,0.3-0.4,0.3s-0.3-0.3-0.3-0.4c0.1-1.1,0-1.9-0.3-2c-0.3-0.3-0.5-0.3-1-0.1
		c-0.4,0.1-1,0.4-1.2,0.9c-0.3,0.4-0.4,0.7-0.4,0.9v0.1v0.4l0,0c0.3,0.1,0.8,0.1,1.5-0.1c0.4-0.1,1-0.6,1.2-1l0.3-0.4l0,0
		c0,0-0.3-0.3-0.8-0.3c-0.4,0-1,0-1.5,0c-1.2,0.3-2.6,0.9-3,1.3l-0.1,0.3c0.1,0.1,0.4,0.4,1,0.6c0.7,0.1,1.5,0.1,2.3-0.1
		c1-0.3,1.9-1,2.5-1.7c0.3-0.3,0.5-0.7,0.5-0.9v-0.1l0,0c0,0-0.3-0.1-0.8-0.1c-0.7-0.1-1.4,0-2,0.3c-0.7,0.3-1.1,0.6-1.1,0.9
		c-0.3,0.6-0.3,1.1-0.3,1.7c0.1,0.6,0.3,0.7,0.4,0.9c0.3,0.1,0.8,0,1.4-0.3c0.4-0.4,1-1.1,1.1-2c0.3-0.9,0.3-1.6,0-1.9L436,252h-0.5
		c-0.5,0.1-1.2,0.6-1.8,1l-0.5,0.6l-0.1,0.1v-0.1v0.3c0,0-0.1-0.1,0,0l-0.1-0.1l-0.3-0.1c0.1,0-0.1,0,0,0h0.7c0.4,0,1-0.1,1.2-0.4
		c0.4-0.4,0.7-1.1,1-1.6v-0.9h-0.1l0,0h0.1l-0.5,0.3c-1.2,0.9-2.7,2.6-2.7,3v0.3v-0.1c0,0-0.3-0.1-0.1-0.1h0.4
		c0.8-0.3,1.8-1.4,1.9-1.9V252v0.1l0.1,0.1c0,0,0.3,0.1,0.1,0.1s0.3,0,0.3,0c-0.1,0,0.4,0,0.3,0h-0.3l0,0l0,0c0,0.1-0.1,0.1-0.1,0.3
		l-0.1,0.1l0,0c0,0,0.1-0.1,0-0.1v-0.3c0,0.1-0.1-0.4-0.1-0.4c0,0.1-0.3-0.3-0.3-0.3C434.6,251.7,434.3,251.5,434.3,251.5
		C434.5,251.5,434.2,251.5,434.3,251.5L434.3,251.5z"/>
	<path class="st1" d="M432.7-36.4c0,0.3-0.1,0.6-0.4,0.6s-0.4,0-0.5-0.3c-0.3-0.6-0.4-1.1-0.3-1.7c0.1-0.6,0.4-1.1,0.8-1.7l1.5-1.6
		c0.4-0.3,0.7-0.4,1.1-0.6c0.3,0,0.4,0,0.7,0.1c0.3,0.1,0.4,0.3,0.5,0.6c0.4,0.6,0.3,1.3,0.1,1.7c0,0.3-0.3,0.6-0.4,0.7l-0.7,0.4
		c-0.4,0.1-0.8,0.1-1.2,0.3c-0.5,0-1.1-0.1-1.5-0.6c-0.5-0.6-0.7-1.3-0.5-1.7c0.1-0.4,0.4-0.9,0.5-1.1c0.5-0.6,1.2-1.1,2-1.4
		c0.5-0.1,1.1-0.3,1.6-0.1c0.3,0,0.7-0.1,1.4,0.3c0.7,0.4,0.7,1.1,0.8,1.6v1.1c0,1.4-1,2.7-2.2,3.3c-1,0.4-2,0.3-3-0.3
		c-0.8-0.6-1.5-1.4-1.6-2.6v-0.1c-0.1-1.4,0.5-2.7,1.5-3.4c0.8-0.6,1.6-0.7,2.3-0.9c0.8-0.1,1.6,0.1,2,0.9c0.4,0.4,0.5,1.1,0.5,1.6
		c0,0.4,0,1-0.1,1.4c-0.1,1-1.1,1.7-1.9,2.1c-0.8,0.4-1.8,0.7-2.6,0.9c-0.5,0.1-1.1,0.4-2,0.1H431c-0.7-0.3-1.1-1-1.2-1.6
		s-0.1-1.1-0.1-1.7c0.3-1.6,1.2-2.6,2.3-3.1c1.1-0.7,2.3-1.1,3.4-1.1c0.5,0,1,0,1.5,0c0.5,0.1,1.1,0.4,1.5,1s0.5,1.4,0.4,2.1
		c-0.1,1-1,1.6-1.4,2.1c-1,1-2.2,1.4-3.4,1.6c-0.4,0-1.1,0.1-1.8,0c-1.1-0.3-1.9-1-2.3-2c-0.5-1.4,0-2.6,0.7-3.4
		c0.8-1.1,2.2-1.7,3.5-1.9c1.2-0.3,2.6-0.1,3.5,0.1c0.7,0.1,1.5,0.4,1.9,1.3c0.1,0.3,0.4,0.9,0.3,1.7c-0.3,1.1-1.1,1.6-1.9,2
		s-1.6,0.7-2.3,1c-1,0.3-1.8,0.4-2.6,0.1l-0.4-0.1c-0.3-0.1-0.5-0.3-0.7-0.9c-0.1-0.4,0-0.9,0.1-1.1l0.4-0.7c0.3-0.3,0.5-0.4,1-0.4
		l0,0h0.4c0.1,0,0.4,0.1,0.4,0.3v0.1v0.3l0,0v-0.1c0.1,0.3,0.1,0.7-0.1,1l-0.1,0.3V-40c0,0.1-0.1-0.6,0-0.4c0,0.1-0.3-0.4-0.3-0.3
		l-0.1-0.1h0.1c0.1,0,0.7,0,1.4-0.3c0.7-0.1,1.5-0.4,2-0.9l0.7-0.4l0.1-0.1v-0.3l0,0l-0.5-0.1c-0.7-0.1-1.6,0-2.6,0.1
		c-1,0.3-1.6,0.7-1.9,1.1l-0.3,0.6v0.1c0.1,0.3,0.3,0.4,0.4,0.4h1c0.8,0,1.5-0.1,2-0.6l1-0.9c0-0.1,0-0.1-0.1-0.3l0,0h-0.1h-1
		c-0.7,0.1-1.5,0.4-2.2,1c-0.7,0.4-1,1-1,1.3v0.6l0,0l-0.1-0.1c0,0-0.3-0.1-0.1-0.1c0,0,0.1,0,0.1,0.1c0.1,0-0.3-0.1-0.1-0.1h0.8
		c0.5,0,1.2-0.1,1.8-0.4c0.5-0.3,0.7-0.4,0.8-0.6l0.1-0.7v-0.1l0,0h-0.1c-0.4,0.1-0.8,0.3-1,0.4c-0.4,0.4-0.5,0.9-0.5,1.1v0.1
		c0,0.3,0.3,0.7,0.5,0.9c0.3,0.3,0.5,0.3,0.8,0.1c0.5-0.1,1-0.7,1-1.3v-0.7V-41v0.1c0,0,0.3,0.1,0.1,0.1h0.1h-0.5l-0.7,0.1
		c-0.4,0.1-0.8,0.4-1.1,0.7l-0.1,0.1V-40c0,0-0.1-0.4,0-0.3c0,0.1-0.3-0.3-0.1-0.3l0.3,0.1h0.5h0.1l0,0c0,0-0.1,0.3-0.1,0.1v-0.1
		v-0.1l0,0c0,0,0.4,0.3,0.3,0.3s0.1,0,0.1,0l-0.3,0.1l-1.4,1.3c-0.4,0.4-0.7,0.7-1,1C432.7-36.8,432.6-36.7,432.7-36.4"/>
	<path class="st1" d="M433-57.6c-0.4-0.3-0.4-0.7-0.1-1.1c0.3-0.4,0.7-0.4,1.1-0.1c0.4,0.3,0.4,0.7,0.1,1.1
		C433.8-57.4,433.4-57.3,433-57.6l0.1,0.1l0,0C433.1-57.4,433-57.4,433-57.6L433-57.6L433-57.6C432.8-57.6,433-57.4,433-57.6
		 M433.1-58.6c0.7-0.1,1.2,0.4,1.4,1.1c0.1,0.6-0.3,1.1-0.8,1.4l0,0l-0.4,0.3l-2,1.1c-1.4,0.9-2.7,1.6-4.2,1.9
		c-0.7,0.1-1.2,0.3-1.6,0.3c-0.1,0-0.4,0.1-0.8,0c-0.5-0.1-0.8-0.4-1.1-0.7c-0.1-0.3-0.3-0.6-0.4-1c0-0.6,0-0.9,0.1-1.3
		c0.1-0.6,0.4-1.1,0.7-1.6l0.5-1l0.4-0.7c0.3-0.4,0.5-1,1.1-1.3c0.3-0.1,0.5-0.3,0.8-0.3l0.8,0.1c0.7,0.1,1,0.6,1.2,0.9l0.4,0.4
		l0.3,0.3l0.8,0.6l1,0.7c0.4,0.4,1,0.9,1.2,1c0.7,0.3,1.2,0.4,1.6,0.4l0.7-0.1l0.3-0.1l0.1-0.3c0.1-0.3,0.4-0.6,0.4-1v-0.9v-0.1
		l0.1,0.1l-0.1-0.1h0.1h-0.1l0,0l0,0h-0.1h-0.1c-0.1,0-0.1,0-0.3,0.1l0,0l0,0H435l0.5-0.1c-0.1,0.1-0.3,0.1-0.4,0.3l-0.4,0.1
		l0.1-0.1l-0.3,0.3c-0.1,0.1-0.3,0.3-0.5,0.3l-0.3,0.1c-0.4,0.3-1,0-1.2-0.4c0-0.1-0.1-0.3-0.1-0.4v-0.4c0-0.1,0-0.4,0.1-0.6
		l0.3-0.4l0.1,0.1l0.4-0.7c0.1-0.1,0.1-0.3,0.3-0.4l0.3-0.3l0.4-0.3l0.3-0.1l0.1-0.1c0.1,0,0.1-0.1,0.3-0.1l0.3-0.1l0.3-0.1h0.4h0.1
		h0.3c0.4,0,0.8,0.1,1.2,0.4c0.1,0.1,0.5,0.3,1,0.7c0.4,0.6,0.5,1.1,0.7,1.7c0.1,0.7,0,1.4-0.1,1.9c-0.1,0.9-0.4,1.9-1,2.6l-0.4,0.6
		c-0.4,0.4-1.1,0.9-1.6,1s-1.1,0.3-1.9,0.1c-0.8-0.1-1.6-0.4-2.5-0.9c-0.8-0.4-1.5-1-2-1.6l-0.5-0.6l-0.8-0.6l-0.7-0.6l-0.1-0.6
		l-0.3-0.4l0,0l0,0l0,0l-0.4,0.4l-0.3,0.6l-0.4,0.9l-0.4,1.1v0.3c0,0.1,0,0,0,0.1l-0.1-0.1l-0.3-0.1h-0.1h0.3l1.1-0.1
		c1.1-0.3,2.3-1,3.5-1.7l1.9-1.1C432.4-58.3,432.6-58.6,433.1-58.6 M433.9-56.8c-0.1,0.3-0.5,0.4-0.8,0.3c-0.3-0.1-0.4-0.6-0.3-0.9
		v0.3v0.1c0,0,0.3,0.3,0.1,0.1l0.3,0.1c-0.1,0,0.4,0,0.3,0c-0.3,0.1-0.7-0.1-0.8-0.4c-0.1-0.3,0.1-0.7,0.4-0.9s0.7,0.1,0.8,0.4v0.1
		l-0.1,0.4L433.9-56.8l0.1-0.3L433.9-56.8z"/>
	<path class="st1" d="M432.7,269.3c-0.4,0.1-0.7-0.1-0.8-0.4c-0.1-0.4,0.1-0.7,0.4-0.9c0.4-0.1,0.7,0.1,0.8,0.4
		C433.3,268.7,433.1,269.1,432.7,269.3c0,0,0.3-0.1,0.1-0.1l0,0C433,269.3,432.8,269.3,432.7,269.3L432.7,269.3L432.7,269.3
		C432.7,269.3,432.8,269.3,432.7,269.3 M433.9,268.7L433.9,268.7l-0.1,0.1h-0.1c-0.1,0-0.3,0.1-0.4,0c0,0-0.3,0-0.5,0.3
		c-0.3,0.3-0.7,0.6-1,1c-0.5,0.9-0.8,1.9-0.7,2.3c0,0.1,0.1,0.3,0.5,0.4h0.8c0.5-0.1,1.2-0.3,1.8-0.7c0.7-0.4,1.2-1.1,1.4-1.7
		l0.1-0.6v-0.4l-0.3-0.4l-0.4-0.4l-0.8-0.1h-1H433l0.1-0.1c0,0.1-0.1,0.1-0.1,0.3l0.1-0.1l0,0v-0.1v0.1c0.1,0.4-0.1,0.9-0.5,0.9
		c-0.3,0.1-0.7,0-0.8-0.4l-0.1-0.3l0.1,0.1c-0.1-0.3-0.3-0.6-0.4-1c0-0.1,0-0.1,0-0.3c0-0.3,0.3-0.6,0.4-0.9s0.5-0.6,1-0.7
		s1-0.3,1.4-0.3c0.7,0,1.4,0,2.2,0.4c0.5,0.3,1,0.6,1.2,1c0.4,0.6,0.7,1.1,0.8,1.7c0.1,0.7,0,1.3-0.1,1.6c-0.1,0.4-0.3,0.9-0.5,1.3
		c-0.5,1-1.5,2-2.6,2.6c-0.8,0.4-1.8,0.7-2.6,0.7c-0.5,0-1.1,0-1.5-0.1c-0.8-0.3-1.6-0.9-1.9-1.9c-0.4-1.3,0.1-2.7,1-3.9
		c0.4-0.6,0.8-1,1.4-1.4c0.5-0.3,1.1-0.6,1.8-0.6c0.1,0,0.3,0.1,0.4,0.3c0.1,0.1,0.3,0.4,0.4,0.7
		C434.3,268.3,434.3,268.5,433.9,268.7 M433.9,269c-0.3,0.3-0.5,0.1-0.8,0c-0.3-0.3-0.1-0.6,0-0.9c0.1,0,0.1-0.1,0.3-0.1l0,0
		l-0.1,0.3c0-0.3,0.3-0.4,0.5-0.4c0.1,0,0.3,0.1,0.4,0.3v0.3C434.2,268.5,434.1,268.8,433.9,269"/>
</g>
<line class="st2" x1="434.1" y1="56.6" x2="433.8" y2="171.6"/>
<circle class="st3" cx="434.1" cy="57" r="4.1"/>
<circle class="st3" cx="433.9" cy="171" r="4.1"/>
<text transform="matrix(1 0 0 1 447.5837 56.6178)" class="st3 st4 st5">$b$</text>
<text transform="matrix(1 0 0 1 448.105 169.1804)" class="st3 st4 st5">$a$</text>
<path class="st6" d="M156.5,53.5c4,4,23.3,24.4,23.7,56.6c0.3,33.4-20.1,54.6-23.9,58.4"/>
<circle class="st3" cx="156.5" cy="54" r="4.1"/>
<circle class="st3" cx="156.4" cy="168" r="4.1"/>
<text transform="matrix(1 0 0 1 188.2468 109.7092)" class="st3 st4 st5">$n$</text>
<text transform="matrix(1 0 0 1 107.4525 109.7093)" class="st3 st4 st5">$n$</text>
<text transform="matrix(1 0 0 1 170.5619 54.7641)" class="st3 st4 st5">$\phi^{-1}(b)$</text>
<text transform="matrix(1 0 0 1 169.3474 173.7459)" class="st3 st4 st5">$\phi^{-1}(a)$</text>
<text transform="matrix(1 0 0 1 144.5828 25.7432)" class="st3 st4 st5">$\sk(E)$</text>
<g>
	<g>
		<line class="st7" x1="224.1" y1="109.7" x2="283.2" y2="109.7"/>
		<g>
			<path class="st3" d="M289.2,109.7c-2.8,1.1-6.4,2.9-8.5,4.8l1.7-4.8l-1.7-4.8C282.9,106.9,286.4,108.7,289.2,109.7z"/>
		</g>
	</g>
</g>
<text transform="matrix(1 0 0 1 241.7338 101.4367)" class="st3 st4 st5">$\phi$</text>
<text transform="matrix(1 0 0 1 409.5561 127.0426)" class="st3 st4 st5">$n$</text>
<rect x="437.4" y="20.8" class="st8" width="64.5" height="22.1"/>
<g>
	<text transform="matrix(1 0 0 1 441.7234 33.941)" class="st9 st4 st5">$\sk(\sP)$</text>
</g>
</svg>
