<?xml version="1.0" encoding="utf-8"?>
<!-- Generator: Adobe Illustrator 23.0.3, SVG Export Plug-In . SVG Version: 6.00 Build 0)  -->
<svg version="1.1"
	 id="svg8" inkscape:version="0.92.4 (unknown)" sodipodi:docname="figure.svg" xmlns:cc="http://creativecommons.org/ns#" xmlns:dc="http://purl.org/dc/elements/1.1/" xmlns:inkscape="http://www.inkscape.org/namespaces/inkscape" xmlns:rdf="http://www.w3.org/1999/02/22-rdf-syntax-ns#" xmlns:sodipodi="http://sodipodi.sourceforge.net/DTD/sodipodi-0.dtd" xmlns:svg="http://www.w3.org/2000/svg"
	 xmlns="http://www.w3.org/2000/svg" xmlns:xlink="http://www.w3.org/1999/xlink" x="0px" y="0px" viewBox="0 0 680.3 144.4"
	 style="enable-background:new 0 0 680.3 144.4;" xml:space="preserve">
<style type="text/css">
	.st0{fill:#020203;}
	.st1{font-family:'ArialMT';}
	.st2{font-size:12px;}
	.st3{fill:none;stroke:#7B7878;stroke-width:2;stroke-linecap:round;stroke-linejoin:round;stroke-miterlimit:10;}
	.st4{fill:none;stroke:#020203;stroke-miterlimit:10;}
	.st5{fill:none;stroke:#F08300;stroke-miterlimit:10;}
	.st6{fill:none;stroke:#000000;stroke-miterlimit:10;}
	.st7{font-family:'MyriadPro-Regular';}
	.st8{fill:#F08300;}
</style>
<sodipodi:namedview  bordercolor="#666666" borderopacity="1.0" id="base" inkscape:current-layer="layer1" inkscape:cx="284.27627" inkscape:cy="182.72055" inkscape:document-units="mm" inkscape:guide-bbox="true" inkscape:pageopacity="0.0" inkscape:pageshadow="2" inkscape:window-height="995" inkscape:window-maximized="1" inkscape:window-width="2520" inkscape:window-x="20" inkscape:window-y="65" inkscape:zoom="0.99437388" pagecolor="#ffffff" showborder="true" showgrid="false" showguides="true" width="200mm">
	<inkscape:grid  dotted="false" empspacing="4" id="grid815" spacingx="10" spacingy="10" type="xygrid" units="mm">
		</inkscape:grid>
</sodipodi:namedview>
<g id="layer1" transform="translate(0,-177)" inkscape:groupmode="layer" inkscape:label="Layer 1">
</g>
<text transform="matrix(1 0 0 1 156.5484 18.7331)" class="st0 st1 st2">$\sC_2$</text>
<text transform="matrix(0.594 0 0 1 171.1446 44.9253)" class="st0 st1 st2">$\sC_{2,\eta}$</text>
<text transform="matrix(0.5235 0 0 1 232.2027 44.9248)" class="st0 st1 st2">$\sC_{2,s}$</text>
<rect x="157.7" y="24.6" class="st3" width="125.8" height="114.2"/>
<path class="st4" d="M197.9,55.8c-13.5,10.2-15.8,18.3-15.6,23.8c0.6,14.7,20.3,21.7,18.6,35.9c-1,7.8-7.9,13.9-13.2,17.6"/>
<line class="st4" x1="234.1" y1="55.8" x2="262.9" y2="84.5"/>
<line class="st5" x1="262.9" y1="71.6" x2="234.1" y2="100.3"/>
<line class="st5" x1="234.1" y1="89.2" x2="262.9" y2="118"/>
<line class="st4" x1="262.9" y1="105" x2="234.1" y2="133.8"/>
<g>
	<g>
		<line class="st6" x1="303.1" y1="96.7" x2="398.5" y2="96.7"/>
		<g>
			<path d="M404.5,96.7c-2.8,1.1-6.4,2.9-8.5,4.8l1.7-4.8L396,92C398.2,93.9,401.7,95.7,404.5,96.7z"/>
		</g>
	</g>
</g>
<text transform="matrix(1 0 0 1 313.0655 114.0043)" class="st7 st2">contraction </text>
<text transform="matrix(1 0 0 1 424.084 20.6421)" class="st0 st1 st2">$\sC_1$</text>
<text transform="matrix(0.594 0 0 1 438.6801 46.8343)" class="st0 st1 st2">$\sC_{1,\eta}$</text>
<text transform="matrix(0.5235 0 0 1 499.7383 46.8338)" class="st0 st1 st2">$\sC_{1,s}$</text>
<rect x="425.2" y="26.5" class="st3" width="125.8" height="112.3"/>
<path class="st4" d="M465.5,57.7c-13.5,9.9-15.8,17.9-15.6,23.2c0.6,14.3,20.3,21.1,18.6,35c-1,7.6-7.9,13.5-13.2,17.1"/>
<line class="st4" x1="503.3" y1="62.5" x2="530.4" y2="108.9"/>
<line class="st4" x1="507.1" y1="131" x2="530.4" y2="91.2"/>
<circle class="st8" cx="525.2" cy="100.1" r="3.7"/>
<text transform="matrix(1 0 0 1 340.8174 85.7122)" class="st7 st2">$f$</text>
</svg>
