<?xml version="1.0" encoding="utf-8"?>
<!-- Generator: Adobe Illustrator 23.0.3, SVG Export Plug-In . SVG Version: 6.00 Build 0)  -->
<svg version="1.1"
	 id="svg8" inkscape:version="0.92.4 (unknown)" sodipodi:docname="figure.svg" xmlns:cc="http://creativecommons.org/ns#" xmlns:dc="http://purl.org/dc/elements/1.1/" xmlns:inkscape="http://www.inkscape.org/namespaces/inkscape" xmlns:rdf="http://www.w3.org/1999/02/22-rdf-syntax-ns#" xmlns:sodipodi="http://sodipodi.sourceforge.net/DTD/sodipodi-0.dtd" xmlns:svg="http://www.w3.org/2000/svg"
	 xmlns="http://www.w3.org/2000/svg" xmlns:xlink="http://www.w3.org/1999/xlink" x="0px" y="0px" viewBox="0 0 680.3 340.2"
	 style="enable-background:new 0 0 680.3 340.2;" xml:space="preserve">
<style type="text/css">
	.st0{fill:none;stroke:#C21B18;stroke-miterlimit:10;}
	.st1{fill:none;stroke:#065394;stroke-miterlimit:10;}
	.st2{fill:none;stroke:#747272;stroke-width:2;stroke-linecap:round;stroke-linejoin:round;stroke-miterlimit:10;}
	.st3{fill:#030405;}
	.st4{font-family:'ArialMT';}
	.st5{font-size:12px;}
	.st6{fill:none;stroke:#020203;stroke-miterlimit:10;}
	.st7{fill:#020203;}
	.st8{fill:#065394;}
	.st9{fill:#C21B18;}
	.st10{fill:none;stroke:#030304;stroke-miterlimit:10;}
	.st11{fill:#030304;}
	.st12{fill:none;stroke:#737171;stroke-width:2;stroke-linecap:round;stroke-linejoin:round;stroke-miterlimit:10;}
	.st13{fill:none;stroke:#020203;stroke-width:0.5;stroke-miterlimit:10;}
	.st14{font-size:2.0113px;}
	.st15{fill:#007BC4;}
	.st16{font-family:'MyriadPro-Regular';}
</style>
<sodipodi:namedview  bordercolor="#666666" borderopacity="1.0" id="base" inkscape:current-layer="layer1" inkscape:cx="284.27627" inkscape:cy="182.72055" inkscape:document-units="mm" inkscape:guide-bbox="true" inkscape:pageopacity="0.0" inkscape:pageshadow="2" inkscape:window-height="995" inkscape:window-maximized="1" inkscape:window-width="2520" inkscape:window-x="20" inkscape:window-y="65" inkscape:zoom="0.99437388" pagecolor="#ffffff" showborder="true" showgrid="false" showguides="true" width="200mm">
	<inkscape:grid  dotted="false" empspacing="4" id="grid815" spacingx="10" spacingy="10" type="xygrid" units="mm">
		</inkscape:grid>
</sodipodi:namedview>
<g id="layer1" transform="translate(0,-177)" inkscape:groupmode="layer" inkscape:label="Layer 1">
</g>
<path class="st0" d="M99,289.5c0.7-1.1,10-14.2,26.8-14c16.5,0.1,25.5,12.9,26.3,14"/>
<path class="st1" d="M99,289.5c0.7,1.1,10,14.2,26.8,14c16.5-0.1,25.5-12.9,26.3-14"/>
<rect x="60.5" y="39.6" class="st2" width="148" height="167.8"/>
<text transform="matrix(1 0 0 1 72.8728 30.5562)" class="st3 st4 st5">$\mathscr E$</text>
<text transform="matrix(1 0 0 1 99.3527 59.0088)" class="st3 st4 st5">$\mathscr E_\eta$</text>
<text transform="matrix(1 0 0 1 155.0171 59.0085)" class="st3 st4 st5">$\mathscr E_s$</text>
<path class="st6" d="M150.2,69.6c6.2,6.4,28.6,31.2,28.3,68.1c-0.3,36.1-22,60.2-28.3,66.7"/>
<path class="st6" d="M174.5,69.6c-6.2,6.4-28.6,31.2-28.3,68.1c0.3,36.1,22,60.2,28.3,66.7"/>
<path class="st6" d="M82.8,136.6c0-6.8,0.4-13.8,2.1-20.4c0.7-3,1.7-6.5,4-8.7c2.5-2.5,5.6-1,7.8,1c2.5,2.2,4.4,5.3,7.2,7.1
	c3.3,2.1,5.5-1.5,6.8-4.1c3-5.9,4.7-12.6,6.5-18.9c1.9-6.7,3.5-13.5,5.1-20.3c0.2-0.8,0.4-1.6,0.6-2.4 M82.8,136.6
	c0,6.9,0.5,13.9,2.2,20.6c0.8,3,1.9,6.9,4.5,8.9c2.7,1.9,5.6-0.1,7.6-2c2.3-2.2,4.2-5.2,7-6.8c3.2-1.8,5.4,2,6.6,4.5
	c3.1,6.2,4.9,13.2,6.7,19.9c1.8,6.7,3.5,13.5,5,20.2c0.2,0.9,0.4,1.8,0.6,2.6"/>
<text transform="matrix(1 0 0 1 124.4292 140.7292)" class="st7 st4 st5">$F_1$</text>
<text transform="matrix(1 0 0 1 181.409 140.7291)" class="st7 st4 st5">$F_2$</text>
<circle class="st7" cx="99" cy="289.5" r="2.9"/>
<circle class="st7" cx="152.1" cy="289.5" r="2.9"/>
<circle class="st8" cx="162.3" cy="189.1" r="2.9"/>
<circle class="st9" cx="162.2" cy="84.9" r="2.9"/>
<text transform="matrix(1 0 0 1 72.1636 293.264)" class="st7 st4 st5">$F_1$</text>
<text transform="matrix(1 0 0 1 160.3487 301.324)" class="st7 st4 st5">$F_2$</text>
<text transform="matrix(1 0 0 1 111.9956 246.0272)" class="st7 st4 st5">$\Delta(\mathscr E)$</text>
<path class="st10" d="M315.1,67.4c5.7,12.6,14,35.6,14.1,65.4c0.1,30.3-8.4,53.6-14.1,66.3"/>
<text transform="matrix(1 0 0 1 290.8806 26.8371)" class="st11 st4 st5">$\mathscr P$</text>
<line class="st10" x1="360.9" y1="78.3" x2="398.9" y2="193"/>
<line class="st10" x1="357.8" y1="195.3" x2="407.3" y2="75.4"/>
<text transform="matrix(1 0 0 1 305.8658 55.2897)" class="st11 st4 st5">$\mathscr P_\eta$</text>
<text transform="matrix(1 0 0 1 373.7799 55.2897)" class="st11 st4 st5">$\mathscr P_s$</text>
<rect x="290.8" y="35.9" class="st12" width="137.8" height="167.8"/>
<text transform="matrix(1 0 0 1 343.544 98.2699)" class="st7 st4 st5">$F_1$</text>
<text transform="matrix(1 0 0 1 398.9438 113.5465)" class="st7 st4 st5">$F_2$</text>
<circle class="st7" cx="330.3" cy="286.2" r="2.9"/>
<circle class="st7" cx="383.5" cy="286.2" r="2.9"/>
<text transform="matrix(1 0 0 1 303.4961 289.8823)" class="st7 st4 st5">$F_1$</text>
<text transform="matrix(1 0 0 1 390.482 289.8822)" class="st7 st4 st5">$F_2$</text>
<text transform="matrix(1 0 0 1 330.3255 244.0277)" class="st7 st4 st5">$\Delta(\mathscr P)$</text>
<line class="st6" x1="330.3" y1="286.2" x2="383.5" y2="286.2"/>
<line class="st13" x1="-2.1" y1="216" x2="697.2" y2="216"/>
<line class="st13" x1="247.9" y1="15.1" x2="247.9" y2="327.3"/>
<line class="st13" x1="27.8" y1="12.7" x2="27.8" y2="327.3"/>
<text transform="matrix(6.123234e-17 -1 1 6.123234e-17 19.2847 126.5316)" class="st7 st4 st5">model</text>
<text transform="matrix(6.123234e-17 -1 1 6.123234e-17 19.2847 318.8138)" class="st7 st4 st5">dual graph</text>
<rect x="519.8" y="36.1" class="st2" width="148" height="167.8"/>
<text transform="matrix(1 0 0 1 532.1774 27.0333)" class="st3 st4 st5">$\mathscr E’$</text>
<text transform="matrix(1 0 0 1 558.6572 55.4859)" class="st3 st4 st5">$\mathscr E’_\eta$</text>
<text transform="matrix(1 0 0 1 607.5351 55.4857)" class="st3 st4 st5">$\mathscr E’_s$</text>
<path class="st6" d="M542.1,133c0-6.8,0.4-13.8,2.1-20.4c0.7-3,1.7-6.5,4-8.7c2.5-2.5,5.6-1,7.8,1c2.5,2.2,4.4,5.3,7.2,7.1
	c3.3,2.1,5.5-1.5,6.8-4.1c3-5.9,4.7-12.6,6.5-18.9c1.9-6.7,3.5-13.5,5.1-20.3c0.2-0.8,0.4-1.6,0.6-2.4 M542.1,133
	c0,6.9,0.5,13.9,2.2,20.6c0.8,3,1.9,6.9,4.5,8.9c2.7,1.9,5.6-0.1,7.6-2c2.3-2.2,4.2-5.2,7-6.8c3.2-1.8,5.4,2,6.6,4.5
	c3.1,6.2,4.9,13.2,6.7,19.9s3.5,13.5,5,20.2c0.2,0.9,0.4,1.8,0.6,2.6"/>
<line class="st6" x1="634.9" y1="72.6" x2="608.9" y2="98.6"/>
<line class="st6" x1="640.3" y1="78.1" x2="614.4" y2="104.1"/>
<line class="st6" x1="609.8" y1="88.7" x2="635.8" y2="114.7"/>
<line class="st6" x1="635.8" y1="108.6" x2="609.8" y2="134.5"/>
<line class="st6" x1="609.8" y1="128" x2="635.8" y2="153.9"/>
<line class="st6" x1="635" y1="188.9" x2="609.1" y2="162.9"/>
<line class="st6" x1="640.5" y1="183.4" x2="614.5" y2="157.5"/>
<line class="st6" x1="610" y1="172.8" x2="635.9" y2="146.8"/>
<text transform="matrix(1 0 0 1 629.2104 68.9184)" class="st7 st4 st5">$\scriptstyle{G_1}$</text>
<text transform="matrix(1 0 0 1 642.046 80.1267)" class="st7 st4 st5">$\scriptstyle{G_2}$</text>
<text transform="matrix(1 0 0 1 642.0461 186.4003)" class="st7 st4 st5">$\scriptstyle{G_3}$</text>
<text transform="matrix(1 0 0 1 635.578 198.1854)" class="st7 st4 st5">$\scriptstyle{G_4}$</text>
<line class="st13" x1="473.2" y1="15.1" x2="473.2" y2="327.3"/>
<text transform="matrix(0.1858 0 0 1 627.3574 101.6888)" class="st7 st4 st5">$\scriptstyle{F_1}$</text>
<text transform="matrix(8.512039e-02 0 0 1 627.3574 128.1542)" class="st7 st4 st5">$\scriptstyle{F_2}$</text>
<text transform="matrix(0.13 0 0 1 627.3574 140.9266)" class="st7 st4 st5">$\scriptstyle{F_3}$</text>
<text transform="matrix(0.2013 0 0 1 627.3574 166.9593)" class="st7 st4 st5">$\scriptstyle{F_4}$</text>
<circle class="st7" cx="537.5" cy="264.3" r="2.9"/>
<line class="st6" x1="537.5" y1="264.3" x2="558.1" y2="284.9"/>
<circle class="st7" cx="537.2" cy="305.5" r="2.9"/>
<line class="st6" x1="537.2" y1="305.5" x2="557.8" y2="284.9"/>
<circle class="st7" cx="558" cy="284.8" r="2.9"/>
<line class="st6" x1="558.2" y1="284.8" x2="579.5" y2="284.8"/>
<circle class="st7" cx="579.3" cy="284.8" r="2.9"/>
<line class="st6" x1="579.5" y1="284.8" x2="600.8" y2="284.8"/>
<circle class="st7" cx="600.6" cy="284.8" r="2.9"/>
<line class="st6" x1="600.8" y1="284.8" x2="622.1" y2="284.8"/>
<circle class="st7" cx="622" cy="284.8" r="2.9"/>
<circle class="st7" cx="642.6" cy="264.2" r="2.9"/>
<line class="st6" x1="642.6" y1="264.2" x2="622" y2="284.8"/>
<circle class="st7" cx="642.8" cy="305.4" r="2.9"/>
<line class="st6" x1="642.8" y1="305.4" x2="622.2" y2="284.8"/>
<text transform="matrix(1 0 0 1 511.2748 266.3625)" class="st7 st4 st5">$\scriptstyle{G_1}$</text>
<text transform="matrix(1 0 0 1 510.5383 308.9944)" class="st7 st4 st5">$\scriptstyle{G_2}$</text>
<text transform="matrix(1 0 0 1 649.7237 266.9511)" class="st7 st4 st5">$\scriptstyle{G_3}$</text>
<text transform="matrix(1 0 0 1 555.0768 277.2755)" class="st7 st4 st14">$\scriptstyle{F_1}$</text>
<text transform="matrix(1 0 0 1 576.4069 277.2755)" class="st7 st4 st14">$\scriptstyle{F_2}$</text>
<text transform="matrix(1 0 0 1 597.7379 277.2755)" class="st7 st4 st14">$\scriptstyle{F_3}$</text>
<text transform="matrix(1 0 0 1 611.4773 302.6393)" class="st7 st4 st14">$\scriptstyle{F_4}$</text>
<text transform="matrix(1 0 0 1 566.3438 244.0277)" class="st3 st4 st5">$\Delta(\mathscr E’)$</text>
<text transform="matrix(1 0 0 1 181.4091 170.5501)" class="st15 st16 st5">$2$</text>
<text transform="matrix(1 0 0 1 152.896 277.2751)" class="st15 st16 st5">$2$</text>
<text transform="matrix(1 0 0 1 644.7003 101.7002)" class="st15 st16 st5">$\ts 2$</text>
<text transform="matrix(1 0 0 1 644.7004 128.154)" class="st15 st16 st5">$\ts 2$</text>
<text transform="matrix(1 0 0 1 644.7003 140.9499)" class="st15 st16 st5">$\ts 2$</text>
<text transform="matrix(1 0 0 1 644.7004 166.9593)" class="st15 st16 st5">$\ts 2$</text>
<text transform="matrix(0.4242 0 0 1 552.8298 299.9334)" class="st15 st16 st5">$\ts 2$</text>
<text transform="matrix(0.4242 0 0 1 573.2335 299.9328)" class="st15 st16 st5">$\ts 2$</text>
<text transform="matrix(0.4242 0 0 1 592.5497 299.9325)" class="st15 st16 st5">$\ts 2$</text>
<text transform="matrix(0.4242 0 0 1 629.2101 288.8807)" class="st15 st16 st5">$\ts 2$</text>
</svg>
