<?xml version="1.0" encoding="utf-8"?>
<!-- Generator: Adobe Illustrator 23.0.3, SVG Export Plug-In . SVG Version: 6.00 Build 0)  -->
<svg version="1.1"
	 id="svg8" inkscape:version="0.92.4 (unknown)" sodipodi:docname="figure.svg" xmlns:cc="http://creativecommons.org/ns#" xmlns:dc="http://purl.org/dc/elements/1.1/" xmlns:inkscape="http://www.inkscape.org/namespaces/inkscape" xmlns:rdf="http://www.w3.org/1999/02/22-rdf-syntax-ns#" xmlns:sodipodi="http://sodipodi.sourceforge.net/DTD/sodipodi-0.dtd" xmlns:svg="http://www.w3.org/2000/svg"
	 xmlns="http://www.w3.org/2000/svg" xmlns:xlink="http://www.w3.org/1999/xlink" x="0px" y="0px" viewBox="0 0 719.4 219.7"
	 style="enable-background:new 0 0 719.4 219.7;" xml:space="preserve">
<style type="text/css">
	.st0{fill:#010202;}
	.st1{fill:#007BC4;}
	.st2{fill:none;stroke:#000000;stroke-miterlimit:10;}
	.st3{font-family:'ArialMT';}
	.st4{font-size:12px;}
	.st5{fill:none;stroke:#000000;stroke-width:0.5;stroke-miterlimit:10;}
</style>
<sodipodi:namedview  bordercolor="#666666" borderopacity="1.0" id="base" inkscape:current-layer="layer1" inkscape:cx="284.27627" inkscape:cy="182.72055" inkscape:document-units="mm" inkscape:guide-bbox="true" inkscape:pageopacity="0.0" inkscape:pageshadow="2" inkscape:window-height="995" inkscape:window-maximized="1" inkscape:window-width="2520" inkscape:window-x="20" inkscape:window-y="65" inkscape:zoom="0.99437388" pagecolor="#ffffff" showborder="true" showgrid="false" showguides="true" width="200mm">
	<inkscape:grid  dotted="false" empspacing="4" id="grid815" spacingx="10" spacingy="10" type="xygrid" units="mm">
		</inkscape:grid>
</sodipodi:namedview>
<g id="layer1" transform="translate(0,-177)" inkscape:groupmode="layer" inkscape:label="Layer 1">
</g>
<g>
	<path class="st0" d="M301.1,52c-0.3-0.2-0.3-0.6-0.2-0.8c0.2-0.3,0.6-0.3,0.8-0.1c0.3,0.2,0.3,0.6,0.2,0.8
		c-0.1,0.2-0.4,0.3-0.6,0.2c-0.1,0,0.2,0,0.1,0h0.1l0,0l-0.2,0.1c-0.1,0.1-0.3,0.1-0.4,0c0,0-0.1-0.1-0.1-0.2v-0.2l0,0L301.1,52
		L301.1,52z M289.9,81.5h-0.1l-0.3-0.2c-0.1-0.1-0.2-0.3-0.2-0.5c0.1-0.6,0.3-1.4,0.7-2.4l1.6-4l2.6-6.3l2.2-5.4l1-3.1
		c0.7-2.1,1.4-4,2-5.5l0.6-1.4l0.3-0.8l0.3-0.6l0.1-0.2c0.1-0.1,0-0.2,0.4-0.3s0.8,0,1,0.4c0.1,0.2,0.1,0.4,0,0.5l-0.2,0.7l-0.3,1
		l-0.6,1.4c-0.6,1.5-1.3,3.4-2,5.4l-1.1,3.1l-2.3,5.4l-2.8,6.3l-1.7,3.9l-0.8,2.1c0,0.2-0.2,0.3-0.3,0.4L289.9,81.5z"/>
	<path class="st0" d="M307.4,56.7c0-0.3,0.3-0.5,0.6-0.5c0.3,0.1,0.5,0.3,0.5,0.6c-0.1,0.3-0.3,0.5-0.6,0.5c-0.1,0-0.2-0.1-0.3-0.1
		c-0.1-0.1,0.2,0.1,0.1,0.1s0.2,0,0.1,0h0.1l-1.3,0.5c-0.1,0.1-0.3,0-0.4-0.1s0-0.3,0.1-0.3l0.9-0.7l0.2-0.2l0,0l0,0v0.1L307.4,56.7
		z M296.1,65.4c0-0.2,0.2-0.4,0.4-0.4c0.2,0,0.4,0.1,0.4,0.3c0,0.1-0.1,0,0,0c0.7-0.2,2.5-1.7,4.3-3.6c1.5-1.5,3.1-3,4.4-4.1
		l1.6-1.2c0,0,0.1-0.1,0.2-0.1l0.3-0.1c0.1,0,0.1-0.1,0.5,0c0.2,0.1,0.4,0.2,0.4,0.4c0.2,0.5,0,0.5-0.1,0.6l-0.2,0.3l-0.1,0.1
		l-1.5,1.2c-1.3,1-2.9,2.5-4.4,3.9c-1.3,1.2-2.6,2.3-3.7,2.9c-0.5,0.3-1,0.5-1.4,0.6c-0.2,0-0.5,0-0.7-0.2
		C296.2,65.8,296.1,65.6,296.1,65.4"/>
	<path class="st0" d="M292.6,71.4c0.1-0.2,0.3-0.3,0.5-0.2c0.2,0.1,0.3,0.3,0.2,0.5c-0.1,0.4-0.4,0.8-0.8,1
		c-0.6,0.3-1.3-0.1-1.9-0.6s-1.3-1.3-2-2.2c-0.9-1.3-1.8-2.7-2.5-3.9c-0.3-0.6-0.6-1.2-0.8-1.9c-0.1-0.3-0.1-0.7,0-1
		c0-0.1,0.1-0.2,0.2-0.3c0.3-0.3,0.7-0.5,1.2-0.6c0.1,0,0.3,0.1,0.3,0.2c0,0.1,0,0.2-0.1,0.2c-0.3,0.3-0.2,0.4-0.2,0.5s0,0.2,0,0.4
		v0.3l0.7,1.4c0.6,1.2,1.5,2.6,2.3,3.8c0.8,1.3,1.5,2.2,2,2.6C292.3,71.8,292.4,71.9,292.6,71.4"/>
	<path class="st0" d="M292.9,43.6c-0.3,0-0.5-0.3-0.5-0.6s0.3-0.5,0.6-0.5c0.3,0,0.5,0.3,0.5,0.6c0,0.1,0,0.2-0.1,0.2
		c0,0.1,0.1-0.1,0.1-0.1v-0.1l0.3,1.9c0,0.1-0.1,0.3-0.2,0.3s-0.3,0-0.3-0.2l-0.5-1.4l-0.2-0.3l0,0h0.1h0.1
		C292.7,43.6,293,43.6,292.9,43.6 M297.9,60c0.1,0.2-0.1,0.4-0.3,0.5c-0.2,0-0.4,0-0.4-0.2c-0.4-0.7-0.7-1.8-1.2-3.3l-0.7-3.1
		l-0.8-3c-0.4-1.6-1-3.2-1.5-4.6l-0.7-2.5v-0.1v-0.4v-0.2c0-0.1,0-0.2,0.3-0.4c0.2-0.1,0.4-0.2,0.6-0.1c0.4,0.2,0.3,0.3,0.4,0.4
		l0.2,0.3v0.1l0.7,2.4c0.5,1.4,1.1,3,1.5,4.7l0.7,3.1l0.6,3.2L297.9,60z"/>
	<path class="st0" d="M330.4,62.3c0-0.3,0.3-0.6,0.7-0.5c0.3,0,0.6,0.3,0.5,0.7c0,0.3-0.3,0.6-0.7,0.5c-0.2,0-0.4-0.2-0.5-0.5
		c0-0.1,0.1,0.2,0.1,0.2l0.1,0.1h0.1l-0.2-0.1c-0.1,0-0.3-0.2-0.2-0.3C330.3,62.3,330.4,62.3,330.4,62.3l0.2-0.3l0,0l0,0v0.1
		C330.4,62.1,330.4,62.4,330.4,62.3 M315.3,92.4c-0.1,0.2-0.4,0.2-0.5,0c-0.2-0.1-0.2-0.4,0-0.5l0,0l0,0V92c0,0,0,0.3,0,0.2
		c0-0.1,0.2,0.3,0.1,0.2l0.1,0.1h0.1l0,0l-0.2,0.1c-0.3,0.2-1,0.1-1.2-0.5c-0.3-0.9,0.2-1.9,0.8-3.1c0.7-1.3,1.6-2.8,2.6-4.5
		l3.5-5.5c2.7-4.1,4.7-8.2,6.5-11.5c0.9-1.7,1.8-3,2.5-4l1-1.2c0,0-0.1,0.3-0.1,0.2s0,0.4,0,0.3c0-0.1,0.2,0.3,0.1,0.2
		s0.3,0.2,0.2,0.2h0.1c-0.4-0.1-0.6-0.4-0.5-0.7c0-0.3,0.3-0.5,0.6-0.5h0.3c0.2,0,0.5,0.4,0.6,0.6c0,0.2,0,0.4-0.1,0.5l-1,1.3
		c-0.7,1-1.5,2.3-2.4,3.9l-2.9,5.4c-1.1,2-2.3,4.1-3.7,6.2l-3.6,5.4l-2.7,4.4c-0.6,1.1-0.9,2-0.9,2.2l0.1,0.1l0.2-0.1h0.2
		c0.1,0,0.2,0.1,0.3,0.2c0.1,0.2,0,0.3,0,0.4L315.3,92.4z"/>
	<path class="st0" d="M303.6,86.4c0,0.2-0.2,0.4-0.4,0.4c-0.2,0-0.3-0.1-0.4-0.3c-0.1-0.6-0.2-1.5,0-3.1l0.8-4.3l1.7-7.9
		c0.5-1.8,0.7-3,1.1-3.7c0.2-0.4,0.5-0.7,0.8-0.7c0.3-0.1,0.6,0,1,0.1c0.1,0.1,0.2,0.2,0.2,0.4c0,0.1-0.2,0.2-0.3,0.2
		c-0.6-0.1-0.6-0.1-0.7,0.4l-0.6,3.6l-1.9,7.9l-0.9,4.2C303.6,85,303.6,85.8,303.6,86.4"/>
	<path class="st0" d="M314.7,66.5c0-0.2,0.2-0.4,0.4-0.4c0.2,0,0.4,0.2,0.4,0.4c0,0.2-0.2,0.4-0.4,0.4c-0.1,0,0.2,0,0.1,0l0,0
		l-0.9,0.7c-0.1,0.1-0.3,0.1-0.4,0s-0.1-0.3,0-0.4L314.7,66.5l0-0.2l0,0l0,0C314.7,66.4,314.7,66.6,314.7,66.5 M305.2,78.1
		c0-0.2,0.2-0.4,0.4-0.4c0.2,0,0.3,0.2,0.4,0.3v-0.1l-0.1-0.1h-0.2h-0.1c0.2-0.1,1.9-2.8,3.8-5.5c1.2-1.7,2.6-3.3,3.6-4.6l1.3-1.2
		l0.4-0.4c0.1-0.1,0.1-0.2,0.5-0.2c0.2,0,0.4,0.2,0.5,0.4c0,0.3-0.1,0.3-0.1,0.3l-1.4,1.9c-1.1,1.3-2.5,2.8-3.7,4.5l-3.1,4.1
		l-1.1,1.2c-0.2,0.1-0.3,0.3-0.6,0.2c-0.2,0-0.3-0.2-0.4-0.3L305.2,78.1z"/>
	<path class="st0" d="M305.2,73.4c0,0.2-0.2,0.4-0.4,0.3c-0.1,0-0.2-0.1-0.3-0.2l-0.3-0.5c0,0,0-0.1-0.1-0.1l-0.6-1.6
		c-0.2-0.7-0.4-1.4-0.3-2.2V69c0.2-0.8,0.8-1.6,1.7-2.1c0.1-0.1,0.3,0,0.4,0.1s0,0.2,0,0.3c-0.6,0.6-0.8,1.2-0.7,1.8v0.1
		c0,0.5,0.1,1.1,0.2,1.7l0.4,1.7v0.1L305.2,73.4z"/>
	<path class="st0" d="M309.9,88.5c0.2-0.1,0.4-0.1,0.5,0s0.1,0.4,0,0.5l-0.4,0.3c-0.2,0.1-0.5,0-0.6-0.2c-0.4-0.4-0.2-0.9-0.1-1.4
		c0.2-1.1,0.8-2.6,1.4-4.2c0.8-1.9,1.7-3.9,2.6-5.5c0.5-0.8,0.9-1.4,1.4-1.9c0.4-0.4,0.8-0.9,1.3-0.6c0.2,0.1,0.2,0.3,0.2,0.4
		s-0.1,0.2-0.3,0.2l0,0c-0.2,0.2-0.8,1.2-1.4,2.5c-0.9,1.6-1.8,3.6-2.6,5.4c-0.7,1.6-1.2,3-1.5,4l-0.2,0.8l0,0v-0.1
		C310.2,88.8,309.9,88.6,309.9,88.5L309.9,88.5L309.9,88.5z"/>
	<path class="st0" d="M312.4,82.1c0.2,0,0.4,0.2,0.4,0.4c0,0.2-0.1,0.3-0.3,0.4c-0.3,0.1-0.5-0.1-0.7-0.3c-0.4-0.5-0.6-1.3-0.8-2.2
		l-0.3-2.2v-0.9c0-0.2,0.1-0.3,0.3-0.4l0.3-0.1c0.1,0,0.1,0,0.2,0l0.2,0.1c0.1,0.1,0.2,0.3,0.2,0.5v0.7l0.2,2.1l0.3,1.5L312.4,82.1
		h0.1H312.4z"/>
	<path class="st0" d="M317.4,83.9c-0.2,0-0.4-0.1-0.5-0.3c0-0.2,0.1-0.4,0.3-0.4l3.1-0.8c2.3-0.4,4.9-0.8,6.9-1
		c0.2,0,0.3,0.1,0.3,0.2s-0.1,0.3-0.2,0.3c-1.9,0.3-4.4,0.9-6.7,1.4L317.4,83.9z"/>
	<path class="st0" d="M323.4,73.6c0.1,0.2,0,0.4-0.2,0.5s-0.3,0-0.5-0.1c-0.7-0.8-0.5-2.3-0.3-4.1l1-6.8l0.3-2.7v-0.1l0.1-0.5l0,0
		v0.1c0-0.1,0.2,0.4,0.1,0.3c-0.1-0.1,0.3,0.2,0.2,0.2c-0.1,0,0.3,0,0.2,0c-0.1,0,0.3-0.1,0.2,0h0.1v0.1l-0.7,1.8
		c0,0.1-0.2,0.2-0.3,0.2c-0.1,0-0.2-0.2-0.2-0.3l0.5-2.3l0.1-0.2c0.1-0.1,0.4-0.3,0.6-0.3c0.3,0,0.4,0.2,0.5,0.3
		c0.2,0.3,0.2,0.5,0.2,0.8v0.1l-0.3,2.8l-1.1,6.8C323.4,71.9,323.2,73.1,323.4,73.6"/>
	<path class="st0" d="M324.4,77c-0.2,0-0.4-0.1-0.4-0.4c0-0.2,0.1-0.4,0.3-0.4c0.7-0.2,1.8,0,3.2,0.3c2.8,0.8,6.2,2,8,3
		c0.1,0.1,0.2,0.2,0.1,0.4c-0.1,0.1-0.2,0.2-0.3,0.1c-1.8-0.7-5.2-1.8-8-2.4C325.9,77.2,324.8,77,324.4,77"/>
	<path class="st0" d="M328.3,69.1c-0.2,0-0.4-0.1-0.4-0.3c0-0.2,0.1-0.3,0.2-0.4c0.3-0.1,0.8-0.5,1.5-1.1l5.2-3.9l3.7-2.3
		c0.1-0.1,0.3,0,0.4,0.1s0,0.3-0.1,0.4l-3.3,2.6l-5.2,4C329.4,68.7,328.8,69.1,328.3,69.1"/>
	<path class="st0" d="M344.9,79.3c0.1-0.2,0.3-0.3,0.5-0.2c0.2,0.1,0.3,0.3,0.2,0.5c-0.1,0.1-0.2,0.2-0.4,0.2c-0.1,0,0.1,0,0.1,0
		l-1.4,0.9c-0.1,0.1-0.3,0-0.4-0.1s-0.1-0.3,0.1-0.4l1-0.8L344.9,79.3L344.9,79.3L344.9,79.3z M323.3,101.8
		c-0.2-0.1-0.3-0.3-0.2-0.5c0.1-0.2,0.3-0.3,0.5-0.2c0.1,0,0.1,0.1,0.1,0.1c0.2,0.3,0,0.5,0,0.6l-0.2,0.3V102c0,0-0.1-0.2,0-0.1
		C323.5,102,323.2,101.7,323.3,101.8l-0.2,0L323.3,101.8l-0.1-0.1c0.5-0.3,1.2-1,2-1.9c1.2-1.3,2.7-3.1,4.7-5.4l6.3-6.8l3.8-4
		c1.4-1.4,2.6-2.5,3.5-3.3l1-0.8c0.2-0.2,0.3-0.3,0.6-0.4c0.2,0,0.4,0.1,0.5,0.3c0,0.1,0,0.1,0,0.2c-0.1,0.3-0.1,0.2-0.2,0.3
		l-1.5,1.5l-2.9,3.1l-3.7,4l-6.4,6.7c-2,2.2-3.5,4-4.9,5.3c-0.9,0.9-1.5,1.6-2.2,2c-0.3,0.1-0.7,0-0.8-0.3c-0.1-0.3,0.1-0.4,0.2-0.5
		l-0.1,0.1l0.1-0.3v0.1C323.2,101.6,323.4,101.9,323.3,101.8"/>
	<path class="st0" d="M327.4,99.5c-0.1,0.2-0.3,0.3-0.5,0.2c-0.2-0.1-0.2-0.3-0.2-0.5c0.1-0.2,0.2-0.4,0.5-0.5
		c0.7-0.2,1.2,0.3,1.7,0.8c1.8,1.9,4.2,4.7,5.5,5.2c0.1,0,0.2,0.2,0.2,0.3c0,0.1-0.2,0.2-0.3,0.2c-0.9-0.2-1.9-1-3-2l-3.1-2.9
		L327.4,99.5C327.3,99.4,327.4,99.4,327.4,99.5"/>
	<path class="st0" d="M329.1,81.2c0-0.2,0.2-0.3,0.4-0.3c0.2,0,0.3,0.2,0.3,0.4c0,0.2-0.2,0.3-0.4,0.3S329.1,81.4,329.1,81.2
		l0.1,0.2c0-0.1,0.2,0.1,0.1,0.1h0.1C329.3,81.5,329.1,81.4,329.1,81.2C329.1,81.3,329.1,81.3,329.1,81.2L329.1,81.2z M328.3,95.2
		c-0.2-0.1-0.2-0.4-0.1-0.5s0.2-0.2,0.4-0.2h-0.2l-0.1,0.1l-0.1,0.1c0.1-0.1,0.3-1.5,0.4-3.2l0.2-3.6l0.1-3.6v-2.4v-0.1l0.1-0.5
		c0,0,0,0,0-0.1c0.1-0.2,0.3-0.3,0.5-0.2c0.4,0.1,0.5,0.4,0.6,0.7v0.1c0.1,0.6,0.1,1.5,0.1,2.6L330,88l-0.4,3.7l-0.4,2.5L329,95
		l-0.2,0.3C328.8,95.2,328.5,95.3,328.3,95.2"/>
	<path class="st0" d="M333,90.9c-0.1-0.2,0-0.4,0.2-0.5s0.4,0,0.5,0.1c0.3,0.5,1.2,1.7,2.3,2.9c1.4,1.7,3.1,3.2,3.8,2.9
		c0.1-0.1,0.3,0,0.4,0.2c0,0.1,0,0.3-0.1,0.3c-0.7,0.4-1.5,0-2.4-0.5c-0.8-0.6-1.7-1.4-2.5-2.2C334.1,92.8,333.3,91.6,333,90.9"/>
	<path class="st0" d="M340.6,86.7c0.1,0.2-0.1,0.4-0.3,0.5c-0.2,0-0.4-0.1-0.5-0.3c-0.1-0.3-0.1-0.6-0.1-0.8c0-0.2,0.1-0.4,0.3-0.5
		c0.6-0.3,1.1,0.1,1.7,0.5c2,1.7,3.6,5.2,5,6c0.1,0.1,0.2,0.2,0.1,0.4c-0.1,0.1-0.2,0.2-0.3,0.1c-1.9-0.8-3.6-4.4-5.3-5.7
		c-0.4-0.3-0.7-0.5-0.7-0.5l0.1-0.1L340.6,86.7z"/>
	<path class="st0" d="M340.5,80.2c-0.2-0.1-0.3-0.3-0.2-0.5c0.1-0.1,0.2-0.2,0.3-0.2h-0.1c0,0,0.7-0.7,1.3-1.7l1.5-2.6l1.6-2.9
		l1.2-2.1l0.1-0.1l0.6-0.4c0.1-0.1,0.3-0.1,0.4,0.1c0,0.1,0.1,0.1,0.1,0.2l-0.1,0.7c0,0.1,0,0.1-0.1,0.2L346,73l-1.6,3
		c-0.6,1-1.1,1.8-1.7,2.6l-1.1,1.3l-0.5,0.4C341,80.2,340.8,80.3,340.5,80.2"/>
	<path class="st0" d="M326.7,115.9c-0.1-0.2-0.1-0.4,0-0.5s0.3-0.1,0.5,0c0.1,0,0.6,0.1,1.5-0.2c0.9-0.3,2.1-0.8,3.5-1.6
		c2.2-1.1,4.7-2.7,7.4-4.4l5.3-3.1c1.6-0.9,3-1.6,4-2l0.9-0.1c0.2,0,0.5,0.1,0.6,0.4c0.2,0.4,0,0.6-0.2,0.8l-0.7,0.9
		c-0.1,0.1-0.3,0.1-0.4,0s-0.1-0.2,0-0.4l0.5-0.8l0.1-0.2v0.1l0.1,0.1h0.1l0,0l-0.5,0.2c-0.9,0.3-2.2,1.1-3.8,2l-5.2,3.2
		c-2.7,1.6-5.3,3.2-7.5,4.3c-1.5,0.7-2.7,1.2-3.7,1.4C328,116.3,327.2,116.4,326.7,115.9"/>
	<path class="st0" d="M338.7,111.8c0-0.2,0.1-0.4,0.3-0.4c0.2,0,0.4,0.1,0.4,0.3c0.1,0.6,0.4,1.5,0.8,2.6l1.5,3.7
		c0.6,1.6,1.3,3.1,2,4.3l0.8,1.2l0.3,0.3c0.1-0.1,0.3,0,0.4,0.1s0,0.3-0.1,0.3c-0.3,0.2-0.7,0-1.1-0.3c-0.5-0.5-1-1.3-1.6-2.2
		l-1.7-3.4l-1.4-3.8C339.1,113.4,338.8,112.4,338.7,111.8"/>
	<path class="st0" d="M342.3,119c0-0.2,0.2-0.4,0.4-0.4c0.2,0,0.3,0.2,0.4,0.3l0,0l-0.1-0.1c0.1,0,1.4-0.6,2.8-1.5l4.4-2.7l1.6-0.9
		c0.4-0.2,0.6-0.4,1-0.4c0.1,0,0.2,0.2,0.2,0.3c0,0.1-0.1,0.2-0.2,0.2l-2.2,1.5l-4.3,2.9c-0.9,0.5-1.8,1-2.5,1.3
		c-0.3,0.1-0.6,0.2-0.9,0.2C342.6,119.6,342.3,119.3,342.3,119"/>
	<path class="st0" d="M347.5,118.8c-0.2-0.1-0.2-0.4,0-0.5c0.1-0.1,0.3-0.2,0.5-0.1l2.1,1.3c1.2,0.9,2.5,1.8,3.5,2.7
		c0.6,0.6,1,1.1,1,1.6c0,0.2-0.1,0.3-0.3,0.3c-0.1,0-0.2,0-0.2-0.1l-1.2-0.9c-1-0.9-2.3-1.9-3.4-2.7L347.5,118.8z"/>
	<path class="st0" d="M345.5,108c0.2-0.1,0.4-0.1,0.5,0.1s0.1,0.4,0,0.5v0.1c0.1,0.5,1,1.4,2.1,2c1.1,0.8,2.4,1.3,3.2,1.1
		c0.1,0,0.3,0.1,0.3,0.2s0,0.3-0.2,0.3c-1.1,0.5-2.6,0-3.9-0.8c-0.8-0.5-1.5-1.2-1.9-1.8c-0.2-0.3-0.4-0.6-0.4-0.9
		C345.1,108.6,345.2,108.2,345.5,108"/>
	<path class="st0" d="M348.5,111c-0.2-0.1-0.3-0.3-0.2-0.5c0-0.1,0.2-0.2,0.3-0.3l0,0l0.9-0.8c1-1,2.3-2.6,3.7-4
		c1.3-1.1,2.5-2,3.5-2.1c0.2,0,0.3,0.1,0.3,0.3c0,0.1-0.1,0.2-0.2,0.3c-0.7,0.2-1.7,1.1-2.8,2.3c-1.4,1.3-2.7,2.9-3.8,4l-0.9,0.7
		C349.1,111,348.8,111.1,348.5,111"/>
	<path class="st0" d="M304,57.8c0,0.2-0.3,0.3-0.5,0.3s-0.3-0.2-0.3-0.4v-0.1l0.1-0.1l0.3-0.2c0.3,0,0.3,0.2,0.4,0.2
		C304.1,57.7,304,57.7,304,57.8v1v0.9v-0.2l-0.1-0.1l-0.1-0.1c0.1,0-0.3,0-0.2,0c0.1,0-0.2,0.1-0.2,0.1l-0.1,0.1v0.1v-0.3l0.2-3.3
		c0.3-2.5,0.9-4.8,2.2-5c0.1,0,0.3,0.1,0.3,0.2c0,0.1,0,0.3-0.2,0.3c-0.3,0.1-0.6,0.6-0.8,1.4c-0.2,0.9-0.4,2-0.5,3.2
		c-0.1,1.3-0.1,2.5-0.3,3.4c-0.1,0.3-0.1,0.5-0.3,0.6c-0.1,0.1-0.2,0.1-0.3,0.1c-0.2,0-0.3-0.1-0.4-0.3s0-0.2,0-0.3v-0.9v-0.8v-0.2
		l0,0v0.1c0,0,0.1,0.2,0.1,0.1c-0.1-0.1,0.5,0.1,0.3,0.1c-0.1,0,0.2-0.1,0.2-0.1C303.8,58,304,57.8,304,57.8L304,57.8z"/>
	<path class="st0" d="M296.8,48.8c0.2,0.1,0.2,0.4,0.1,0.5c0,0.1-0.1,0.1-0.2,0.2c-0.1,0-0.4,0-0.5-0.2c-0.2-0.5,0-0.7,0.2-1
		c0,0,0-0.1,0.1-0.1c0.9-1.1,2.5-2.8,3.9-4.1c0.1-0.1,0.3-0.1,0.4,0s0.1,0.3,0,0.4c-1.3,1.4-2.7,3.1-3.4,4.3c0,0,0,0.1-0.1,0.1
		l-0.3,0.4l0,0v-0.1c0,0,0-0.3,0-0.2C296.9,49.1,296.7,48.8,296.8,48.8"/>
	<path class="st0" d="M289.4,66.7c0.2-0.1,0.4,0,0.5,0.2s0,0.4-0.1,0.5s-0.3,0.2-0.5,0c-0.3-0.2-0.3-0.5-0.3-0.7
		c0-0.6,0.3-1.6,0.7-2.7l2-4.7l0.8-1.7l0.3-0.5l0.3-0.2c0.1,0,0.3,0,0.3,0.1l0.1,0.2c0,0.2-0.1,0.3-0.3,0.3c-0.1,0-0.2-0.1-0.3-0.2
		v0.1l0.1,0.1h0.2h0.1c-0.1,0.1-1.7,3.9-2.6,6.8l-0.7,2.1l-0.1,0.5v-0.1l-0.1-0.1c0.1,0.1-0.3-0.1-0.2-0.1L289.4,66.7z"/>
	<path class="st0" d="M287.3,66.6c0.2,0,0.4,0.1,0.5,0.3c0,0.2-0.1,0.4-0.2,0.4c-0.8,0.3-2-0.2-3.3-1c-1.2-0.7-2.3-1.7-3.3-2.9
		c-0.7-1.1-1.2-2.2-1.1-3.3c0-0.2,0.1-0.3,0.3-0.3c0.1,0,0.2,0.1,0.3,0.2c0.1,0.9,0.7,1.7,1.4,2.5c0.8,1.1,1.9,2,3,2.7
		C286,66.3,287.1,66.7,287.3,66.6"/>
	<path class="st0" d="M349.7,160.7c0.3,0,0.6,0.2,0.6,0.5s-0.2,0.6-0.5,0.6s-0.6-0.2-0.6-0.5c0-0.1,0-0.2,0.1-0.3v0.2
		c0-0.1,0,0.2,0,0.2c0-0.1,0.1,0.2,0.1,0.1l0,0c-0.1-0.1-0.8-0.5-2-0.8c-0.1,0-0.2-0.2-0.2-0.3s0.2-0.2,0.3-0.2l1.8,0.4L349.7,160.7
		L349.7,160.7L349.7,160.7z M325.9,143.4c0-0.2,0.2-0.4,0.4-0.4c0.4-0.1,0.4,0,0.4,0.1l1.3,0.8l3,2.6l5.7,5.3c3,2.8,6.2,5.2,8.8,6.8
		c0.9,0.6,1.8,1,2.5,1.4l1.5,0.6h0.1c0.2,0.1,0.2,0,0.5,0.2c0.2,0.1,0.2,0.4,0.2,0.6c-0.1,0.4-0.3,0.4-0.4,0.5
		c-0.3,0.1-0.4,0.1-0.6,0.1h-0.1l-1.8-0.6c-0.8-0.3-1.7-0.8-2.7-1.4c-2.7-1.7-5.9-4.1-9-6.9l-5.6-5.4l-2.9-2.6l-0.9-0.8L326,144
		l-0.1-0.1C326,143.7,325.9,143.7,325.9,143.4 M326.8,143.2c0.2,0.1,0.2,0.4,0.1,0.5s-0.3,0.2-0.4,0.1h-0.1l0,0h0.1h0.1h0.1
		c-0.2,0.1-0.5,0-0.6-0.2s0-0.5,0.2-0.6C326.4,142.9,326.6,143,326.8,143.2v0.1C326.8,143.4,326.8,143.2,326.8,143.2L326.8,143.2
		L326.8,143.2z"/>
	<path class="st0" d="M340.1,156.5c0.2,0,0.4,0.1,0.5,0.3v0.3l0.1,2.2l-0.1,8.6l0.1,5.8v1.1v0.3V175l-0.1-0.1l-0.1-0.1h-0.2
		c0.1,0-0.2,0.1-0.1,0l0.4-0.9c0-0.1,0.2-0.2,0.3-0.2c0.1,0,0.2,0.2,0.2,0.3l-0.2,1.1c0,0.2,0,0.3-0.3,0.5c-0.1,0.1-0.3,0.1-0.5,0.1
		c-0.4-0.2-0.5-0.5-0.5-0.8l-0.2-1.1c-0.1-1.5-0.1-3.6-0.1-5.9l0.1-8.5l0.1-1.7l0.1-0.5l0.1-0.2l0.1-0.1
		C339.8,156.7,339.8,156.5,340.1,156.5 M340.6,157.4c0,0.2-0.2,0.4-0.4,0.4c-0.2,0-0.4-0.1-0.4-0.3l-0.1-0.3l0.1,0.1l0.1,0.1h0.1
		h0.1c-0.2,0-0.4-0.2-0.4-0.5c0-0.2,0.2-0.4,0.5-0.4c0.2,0,0.4,0.2,0.4,0.5c0,0,0,0,0,0.1V157L340.6,157.4z"/>
	<path class="st0" d="M344,159.1c-0.2,0-0.4-0.2-0.4-0.4s0.1-0.3,0.3-0.4l2.9-1.1l5.4-1.8l5.4-1.4l2.2-0.5l0.2-0.1l0,0l-0.1,0.1v0.1
		v0.1l0,0c-0.1-0.1-0.2-0.2-0.1-0.4c0.1-0.1,0.2-0.1,0.3-0.1l0.3,0.1c0.2,0.1,0.3,0.5,0.1,0.7c-0.4,0.6-1.3,0.9-2.5,1.3l-5.4,1.5
		l-5.5,1.5l-2,0.6L344,159.1z"/>
	<path class="st0" d="M349.6,159.9c-0.1,0.2-0.3,0.3-0.5,0.1c-0.2-0.1-0.2-0.3-0.2-0.5c0.1-0.3,0.6-0.6,0.9-0.5s0.6,0.3,0.9,0.5
		c1.1,1,2.1,3.1,3.3,5.3l2.4,5.1l0.9,1.5l0.3,0.3h-0.1c0.1-0.1,0.3-0.1,0.4,0s0.1,0.2,0,0.3c-0.1,0.2-0.4,0.2-0.6,0.1
		c-0.6-0.3-1.2-1.3-1.9-2.5l-2.4-4.4c-1.1-2.2-2.2-4.3-3-5.1L349.6,159.9L349.6,159.9z"/>
	<path class="st0" d="M345.7,139.5c0.1-0.2,0.3-0.3,0.5-0.3c0.2,0.1,0.3,0.3,0.3,0.5c-0.1,0.2-0.3,0.3-0.5,0.3c-0.1,0-0.1,0-0.2-0.1
		h0.1l-0.4-0.1c-0.1,0-0.2-0.2-0.2-0.3s0.1-0.2,0.3-0.2h0.3l0,0h-0.1l-0.1,0.1L345.7,139.5z M330.1,135.6c0-0.1-0.1-0.1-0.1-0.2
		c-0.1-0.3,0.1-0.4,0.1-0.4c0.2-0.2,0.4-0.2,0.5-0.3c0.1,0,0.1,0,0.2,0c0.9,0.1,2.1,0.6,3.5,1.1c1.7,0.5,3.6,1,5.4,1.5l4.7,1.2
		l1.3,0.5l0.4,0.2l0.2,0.1c0.1,0.1,0.2,0.1,0.2,0.4c0,0.2-0.1,0.3-0.3,0.4c-0.3,0.1-0.3,0-0.4,0l-1.6-0.2l-4.8-1.1
		c-1.8-0.5-3.8-1-5.5-1.6c-1.5-0.5-2.7-1-3.3-1.1c-0.1,0-0.1,0-0.2-0.1l-0.2-0.1L330.1,135.6z M331.3,135.6c0.2,0.1,0.2,0.4,0,0.5
		c-0.1,0.2-0.4,0.2-0.5,0c-0.3-0.2-0.5-0.3-0.7-0.7c-0.1-0.2,0-0.5,0.2-0.5c0.2-0.1,0.5,0,0.5,0.2c0,0,0,0,0,0.1v-0.1L331.3,135.6z"
		/>
	<path class="st0" d="M342,137.4c-0.2,0.1-0.4,0.1-0.5-0.1c-0.1-0.2-0.1-0.4,0-0.5c0.5-0.5,1.4-1.6,2.1-2.6l1.8-2.3
		c0.7-0.7,1.4-1.5,2-1.8l0.5-0.2c0.2,0,0.4,0.1,0.5,0.2c0.3,0.4,0.1,0.8-0.2,1.5c-0.1,0.1-0.2,0.2-0.4,0.2c-0.1,0-0.2-0.2-0.2-0.3
		l0.1-0.7v-0.2l0.1,0.1h0.1l0,0c-0.3,0.2-1.1,1.1-1.7,2l-1.8,2.2C343.6,135.9,342.6,136.9,342,137.4"/>
	<path class="st0" d="M342.9,139.7c-0.2,0.1-0.4,0-0.5-0.2s0-0.4,0.1-0.5c0.4-0.3,1-0.2,1.5,0c0.5,0.3,0.9,0.7,1.4,1.2
		c2.2,2.9,4.2,7.8,5.5,8.3c0.1,0.1,0.2,0.2,0.2,0.4c0,0.1-0.2,0.2-0.3,0.2c-1-0.3-1.9-1.7-2.9-3.4c-1.1-1.7-2.1-3.5-3.2-4.8
		c-0.4-0.5-0.8-0.9-1.1-1.1C343.3,139.7,343.1,139.6,342.9,139.7"/>
	<path class="st0" d="M346.4,134.1c0-0.2,0.2-0.4,0.4-0.4c0.2,0,0.4,0.2,0.4,0.4c0,0.9,0.3,1,0.9,1.3l1.9,0.7l2.5,1.2
		c2,1.3,4,2.9,5.3,4.7c0.1,0.1,0.1,0.3-0.1,0.4c-0.1,0.1-0.3,0.1-0.4,0c-1.4-1.5-3.5-2.8-5.5-3.9l-2.3-1.4l-1.8-1
		c-0.3-0.1-0.7-0.3-1-0.6C346.5,135.1,346.3,134.7,346.4,134.1"/>
	<path class="st0" d="M352.7,140.2c0-0.2,0.2-0.4,0.4-0.4c0.2,0,0.4,0.2,0.4,0.4c0,0-0.2-0.2-0.1-0.1c0.1,0-0.2-0.1-0.2-0.1h-0.1
		c0.2-0.1,1.2-1.3,2.4-2.8l3.3-4.1c1.1-1.2,2-2.3,2.9-2.5c0.2,0,0.3,0,0.4,0.1s0.2,0.2,0.2,0.4c0,0,0,0,0,0.1l-0.1,0.1
		c-0.1,0.1-0.2,0.3-0.3,0.3c-0.3,0.1-1.3,1-2.3,2.2l-3.4,4l-2.1,2.3c-0.3,0.3-0.5,0.5-0.8,0.6c-0.1,0.1-0.4,0.1-0.6-0.1
		C352.7,140.6,352.7,140.4,352.7,140.2"/>
	<path class="st0" d="M329.6,188.8c0.2,0.1,0.3,0.4,0.1,0.6c-0.1,0.2-0.4,0.3-0.6,0.1c-0.1,0-0.1-0.1-0.1-0.1l-1-1.7
		c-0.1-0.1,0-0.3,0.1-0.4c0.1-0.1,0.3,0,0.4,0.1L329.6,188.8z M315.9,160.9c0.1,0.2,0,0.4-0.2,0.5c-0.1,0.1-0.3,0-0.4,0l0,0h0.1
		c0,0,0.3-0.1,0.2,0c-0.1,0,0.2-0.3,0.2-0.2C315.8,161.2,315.9,160.9,315.9,160.9L315.9,160.9l0.4,1l1.1,2.5l2.7,5.5l3.3,6.4
		c1.7,3.4,3.4,6.5,4.7,8.8l1.7,3.2l0.2,0.5l0.1,0.2v0.2c0,0.1,0,0.4-0.4,0.7c-0.3,0.2-0.8,0.1-1-0.2s-0.1-0.7,0.1-0.9
		c0.1-0.1-0.2,0.3-0.2,0.2s-0.1,0.2-0.1,0.2c0-0.1,0,0.2,0,0.2c0-0.1,0,0.1,0,0.1l-0.2-0.4l-1.7-3.1c-1.3-2.4-3-5.4-4.7-8.9
		l-4.2-8.5l-1.7-3.5l-1.1-2.6c-0.2-0.6-0.3-1-0.2-1.3l0.1-0.3c0.1-0.1,0.2-0.2,0.4-0.2c0.3,0,0.4,0.2,0.4,0.2L315.9,160.9z"/>
	<path class="st0" d="M321,196.8c0,0.2-0.1,0.4-0.3,0.4c-0.2,0-0.4-0.1-0.4-0.3s0.1-0.4,0.3-0.4c0.1,0-0.1,0.1-0.1,0.1l0.5-0.9
		c0.1-0.1,0.2-0.2,0.4-0.1c0.1,0.1,0.2,0.2,0.1,0.3L321,196.8L321,196.8v0.1V196.8L321,196.8z M327,183.8c0.1,0.2-0.1,0.4-0.3,0.5
		c-0.2,0.1-0.4,0-0.5-0.2l-0.2-0.3c-0.1,0-0.6,0.4-1,1.2s-0.9,1.8-1.3,2.9c-0.4,1.2-0.8,2.5-1.1,3.9l-0.7,2.8l-0.7,1.8l-0.3,0.6
		c-0.1,0.1,0,0.2-0.3,0.4c-0.2,0.1-0.4,0-0.6-0.2l0,0c-0.1-0.2,0-0.3,0-0.3l0.7-2.5l0.7-2.8c0.3-1.4,0.7-2.7,1.2-4
		c0.6-1.6,1.3-2.9,2.1-3.8c0.4-0.4,0.7-0.7,1.2-0.8C326.5,182.9,326.9,183.3,327,183.8"/>
	<path class="st0" d="M329.3,185.2c-0.1-0.2,0-0.4,0.1-0.5c0.3-0.2,0.3-0.1,0.4-0.1c0.4,0.1,0.9,0.3,1.6,0.7l2.6,1.2l3.5,1.6
		c1.9,0.9,3.5,1.5,3.9,1.3c0.1-0.1,0.3,0,0.3,0.2c0,0.1,0,0.2-0.1,0.3c-0.8,0.7-2.7,0.1-4.7-0.5l-3.6-1.6l-2.5-1.4l-1.1-0.6
		l-0.3-0.2C329.5,185.4,329.4,185.5,329.3,185.2"/>
	<path class="st0" d="M312.5,189.3c0.1,0.1,0.2,0.3,0,0.5c-0.1,0.1-0.3,0.2-0.5,0c-0.1-0.1-0.2-0.3,0-0.5l0.1-0.1H312l0.1-0.2
		c0.1-0.1,0.2-0.2,0.4-0.1c0.1,0.1,0.2,0.2,0.1,0.3v0.2v-0.1L312.5,189.3L312.5,189.3z M323,174.1c0.2,0,0.3,0.2,0.3,0.5
		c0,0.2-0.2,0.3-0.4,0.3c-0.3,0-0.8,0.1-1.3,0.5s-1.2,1-1.8,1.9c-0.5,0.6-1,1.4-1.5,2.4c-1.1,1.9-2.2,4.4-3.2,6.4
		c-0.6,1.2-1.2,2.1-1.7,2.8l-0.6,0.8l-0.2,0.2l-0.1,0.1c-0.1,0-0.1,0.1-0.4,0c-0.1,0-0.2-0.2-0.2-0.3l0.1-0.3l0.5-1.1l1.5-2.8
		c1-2.1,2.1-4.5,3.2-6.5c0.6-1,1.1-1.8,1.7-2.5C320.4,174.7,321.9,173.8,323,174.1"/>
	<path class="st0" d="M322,166.8c-0.3-0.1-0.5-0.5-0.3-0.8c0.1-0.3,0.4-0.4,0.7-0.4l2.9,1l4.6,1.5c1.8,0.6,3.4,1.1,4.3,1.5
		c0.1,0,0.1,0.1,0.2,0.1c0.2,0.1,0.3,0.3,0.4,0.6c0.1,0.2,0,0.5-0.1,0.7c-0.2,0.3-0.5,0.3-0.7,0.3l-0.4-0.1
		c-0.9-0.2-1.9-0.9-2.5-1.3c-0.1-0.1-0.2-0.2-0.1-0.4c0.1-0.1,0.2-0.2,0.3-0.1c0.8,0.2,2,0.6,2.5,0.6l0,0h-0.1l-0.1,0.1
		c0,0-0.1,0.3-0.1,0.2s0,0.3,0,0.2s0.1,0.3,0.1,0.2s0.2,0.2,0.1,0.2s0.1,0.1,0.1,0.1l0,0c-0.1,0-0.1,0-0.2-0.1
		c-0.6-0.3-2.1-0.9-3.9-1.5l-4.6-1.7L322,166.8z M323.1,166.6c0.1,0.2,0.1,0.4-0.1,0.5s-0.4,0.1-0.5-0.1l-0.4-0.4l-0.1-0.1l0,0h0.1
		c-0.2,0-0.4-0.2-0.3-0.4c0-0.2,0.2-0.4,0.4-0.3l0,0c0.3,0.1,0.3,0.1,0.4,0.3L323.1,166.6z"/>
	<path class="st0" d="M329,170.2c-0.2,0.1-0.4-0.1-0.5-0.3c0-0.1,0-0.3,0.1-0.4c0.1-0.1,0.5-0.1,0.6,0c0.5,0.3,0.4,0.9,0.5,1.5
		l0.3,2.4c0.1,2.1,0.4,4,0.9,5.4c0.2,0.9,0.5,1.5,0.8,1.7c0.1,0.1,0.2,0.2,0.1,0.4c-0.1,0.1-0.2,0.1-0.3,0.1
		c-0.7-0.1-1.3-0.8-1.7-1.8c-0.6-1.6-0.9-3.6-1.1-5.7l-0.1-2.7l-0.1-0.8v-0.1c0,0,0.2,0.2,0.1,0.1
		C328.7,170.1,329.1,170.2,329,170.2"/>
	<path class="st0" d="M305.7,205.1c0.3,0.1,0.5,0.4,0.4,0.7s-0.4,0.5-0.7,0.4c-0.3-0.1-0.5-0.4-0.4-0.7v0.1v0.1l-0.7-1.1l-1.7-2.3
		c-0.1-0.1-0.1-0.3,0-0.4c0.1-0.1,0.3-0.1,0.4,0l2.2,2.4L305.7,205.1l0.2,0.1l0,0l0,0C305.8,205.1,305.6,205,305.7,205.1
		 M294.9,173.5c0.1,0.2,0,0.4-0.2,0.5s-0.4,0-0.5-0.1l-0.2-0.2h0.1h0.1c-0.1,0,0.3-0.1,0.2-0.1c-0.1,0.1,0.2-0.3,0.2-0.2v-0.1v-0.1
		l0.4,1.2l1,2.7l2.6,6.9l1.5,4c0.8,2.1,1.4,4.2,2.1,6.3l1.4,4.5c0.7,2,1.3,3.6,1.8,4.7l0.6,1.4l0.2,0.4c0,0.1,0.1,0.1,0.1,0.5
		c-0.1,0.3-0.4,0.6-0.7,0.5c-0.5-0.1-0.4-0.2-0.5-0.3c-0.3-0.3-0.6-0.9-1.1-1.7c-0.6-1.2-1.2-2.8-1.9-4.9l-1.4-4.5l-2-6.3l-1.4-4
		l-2.4-6.9c-0.5-1.7-0.8-2.9-1-3.7v-0.5c0-0.1,0-0.3,0.2-0.4c0.2-0.2,0.6-0.1,0.7,0C294.7,173.2,294.7,173.3,294.9,173.5"/>
	<path class="st0" d="M292.5,205.9c0.2,0.1,0.3,0.4,0.2,0.7c-0.1,0.2-0.4,0.3-0.7,0.2c-0.2-0.1-0.3-0.4-0.2-0.7
		c0-0.1,0.1-0.2,0.2-0.2v0.1l-0.1,0.1l0.5-1c0.1-0.1,0.2-0.2,0.4-0.1c0.1,0.1,0.2,0.2,0.2,0.3l-0.2,0.8v0.2l0,0v-0.1l-0.1-0.1
		C292.7,206.1,292.4,205.9,292.5,205.9 M301,192.6c0.2,0.1,0.3,0.3,0.2,0.5c-0.1,0.2-0.3,0.3-0.4,0.2c-0.3-0.1-0.5,0-0.9,0.3
		c-0.3,0.3-0.7,0.7-1.1,1.3l-1.5,2.6c-1,1.8-2,4-2.9,5.9l-1.4,3l-0.1,0.1l-0.2,0.2c-0.1,0.1-0.1,0.3-0.6,0.1
		c-0.2-0.1-0.3-0.2-0.4-0.3c-0.1-0.3,0-0.3,0-0.4v-0.2v-0.1l1.3-3c0.9-1.9,1.9-4.1,2.9-6c0.6-1.1,1.2-2,1.7-2.7
		C298.8,193,300,192.2,301,192.6"/>
	<path class="st0" d="M303.6,200c-0.2,0-0.4-0.1-0.5-0.3c0-0.2,0.1-0.4,0.3-0.4c0.7-0.2,1.4,0.1,1.8,0.5l1.2,1.3
		c0.3,0.3,0.8,0.5,1.3,0.7c0,0,0.1,0,0.1,0.1c0.6,0.4,1.4,0.8,1.9,1.5c0.1,0.1,0.1,0.3,0,0.4c-0.1,0.1-0.2,0.1-0.3,0
		c-0.6-0.4-1.4-0.6-2.1-0.8h-0.1c-0.5-0.3-1.1-0.6-1.6-1.1l-1-1.4C304.2,200,304,199.9,303.6,200"/>
	<path class="st0" d="M297.7,183.8c0.1,0.2,0.1,0.4-0.1,0.5c-0.1,0.1-0.3,0.1-0.5,0c-0.2-0.2-0.5-0.3-0.4-0.7
		c0.1-0.3,0.4-0.5,0.6-0.5c0.6-0.2,1.3,0,2.2,0.2c1.2,0.4,2.5,1,3.6,1.5c1,0.4,2,0.7,3,0.8l1.7,0.4l1,0.5c0.2,0.2,0.3,0.5,0.1,0.8
		c-0.1,0.2-0.4,0.3-0.6,0.2l-0.8-0.2l-1.7-0.3c-1-0.2-2.1-0.4-3.3-0.9c-1.2-0.5-2.4-1.2-3.5-1.5l-1.6-0.5h-0.1l0,0h0.1
		C297.4,184.1,297.6,183.9,297.7,183.8L297.7,183.8L297.7,183.8L297.7,183.8z"/>
	<path class="st0" d="M295.7,182.5c0.2,0,0.3,0.2,0.3,0.5c0,0.2-0.2,0.3-0.4,0.3c-0.9-0.1-1.6,0.3-2.5,1.3c-0.6,0.6-1.3,1.5-2.2,2.6
		c-0.9,1.2-1.8,2.8-3.2,4.9l-3.2,4.8l-2.9,4.3l-1.9,2.6l-1.5,2l-0.1,0.1l-0.1-0.2h0.3c0.1,0,0.3,0.1,0.3,0.2c0,0.1-0.1,0.3-0.2,0.3
		l-0.5,0.1c-0.1,0-0.3-0.1-0.4-0.2c-0.2-0.3,0-0.6,0.1-0.8l1.1-1.7l2-3l2.9-4.3l3.1-4.8c1.3-2.1,2.3-3.7,3.2-4.9
		c0.9-1.2,1.7-2,2.3-2.7C293.4,182.7,294.5,182.2,295.7,182.5"/>
	<path class="st0" d="M284.9,195.4c0.2-0.1,0.4,0,0.5,0.2s0,0.4-0.2,0.5c-0.1,0.1-0.2,0.1-0.2,0.4c-0.1,0.9,0.7,2.9,1.8,5.1
		c1.9,4.1,4.6,8.7,6,11.9c0.1,0.1,0,0.3-0.1,0.4c-0.1,0.1-0.3,0-0.4-0.1c-1.5-3-4.3-7.6-6.4-11.7c-0.7-1.6-1.3-3-1.6-4.2
		C284.1,196.8,284.1,195.8,284.9,195.4"/>
	<path class="st0" d="M251.8,211.9c0,0.3-0.3,0.5-0.5,0.5c-0.3,0-0.5-0.3-0.5-0.5c0-0.3,0.2-0.5,0.5-0.5h-0.1c0.1,0-0.2,0.1-0.1,0.1
		H251l1.8-3.3c0.1-0.1,0.2-0.2,0.4-0.1c0.1,0.1,0.2,0.2,0.1,0.4l-1.1,2.7L251.8,211.9L251.8,211.9L251.8,211.9L251.8,211.9z
		 M263.9,171.5c0,0.2-0.2,0.4-0.4,0.4c-0.2,0-0.3-0.1-0.4-0.3v-0.2l0.1,0.1l0.1,0.1h0.2h0.2L263.9,171.5l0-0.1l-0.7,2.7l-1.2,5.6
		l-1.1,4.4c-0.5,2-1.3,4.2-2.1,6.5l-3.6,10.2c-0.8,2.2-1.3,4-1.7,5.5l-0.9,3.6l-0.5,1.5c-0.1,0.3-0.1,0.5-0.3,0.7s-0.5,0.3-0.7,0.1
		l0,0c-0.3-0.2-0.2-0.4-0.2-0.4l0.1-0.8l0.3-1.4l0.9-3.6c0.4-1.6,1-3.4,1.8-5.6l3.5-10.2c0.8-2.4,1.5-4.5,2-6.5l1.1-4.4l1.2-5.6
		c0.4-1.2,0.7-2.1,1-2.6l0.3-0.4c0.1-0.1,0.2-0.2,0.5-0.2c0.2,0,0.4,0.2,0.4,0.3C264,171.2,263.9,171.3,263.9,171.5"/>
	<path class="st0" d="M257.3,192.8c0.2,0.1,0.3,0.3,0.2,0.5c-0.1,0.2-0.3,0.3-0.5,0.2l-0.3-0.1l0.1-0.1v0.1l0.7,1.9
		c0.8,2,1.4,4.8,2.2,7.7l1.1,4.6c0.3,1.3,0.7,2.5,1.1,3.4c0.5,1.4,1,2.3,1.2,2.5H263l-0.1,0.1l0,0c0-0.2,0-0.6-0.1-1.2
		c0-0.1,0.1-0.3,0.2-0.3s0.3,0.1,0.3,0.2c0.2,0.8,0.4,1.3,0.1,1.7c-0.1,0.2-0.4,0.3-0.6,0.2c-0.6-0.2-1-0.9-1.5-1.9
		c-0.6-1.1-1.2-2.6-1.7-4.3l-1.2-4.6c-0.7-3-1.4-5.8-2-7.7c-0.3-0.9-0.6-1.7-0.6-2.3c0-0.3,0.1-0.7,0.4-0.8
		C256.7,192.5,257,192.6,257.3,192.8"/>
	<path class="st0" d="M260,184.6c-0.1-0.2,0.1-0.5,0.3-0.5l0,0c0.4-0.1,0.4,0.1,0.4,0.1c0.3,0.3,0.5,0.7,0.8,1.4l1.3,2.7l2.5,5.3
		c1.5,3,3.4,5.5,4.8,7.3l1.5,2.1l0.5,0.6l0.1,0.1l0,0h-0.1c0.1,0,0.2,0,0.3,0.1c0,0-0.3-0.1-0.2-0.1h-0.1l0.1-0.2
		c0.1-0.1,0.2-0.2,0.4-0.1c0.1,0,0.2,0.1,0.2,0.2v0.5c0,0.2,0,0.4-0.3,0.6c-0.1,0.1-0.2,0.1-0.3,0.1c-0.4,0.1-0.7-0.1-0.9-0.3
		c-0.7-0.5-1.4-1.5-2.3-2.7c-1.5-1.9-3.3-4.4-4.9-7.6l-2.5-5.4l-1.2-3l-0.4-0.9L260,184.6z M260.9,184.7c0,0.2-0.1,0.4-0.3,0.5
		c-0.2,0-0.4-0.1-0.4-0.2l-0.1-0.2c-0.1-0.2,0-0.5,0.2-0.6s0.5,0,0.6,0.2s0.1,0.4-0.1,0.6C260.6,184.9,260.8,184.7,260.9,184.7
		C260.8,184.8,260.9,184.6,260.9,184.7v-0.2V184.7z"/>
	<path class="st0" d="M269.6,198.2c0.2,0.1,0.2,0.4,0,0.5c-0.1,0.1-0.3,0.2-0.5,0.1c-0.2-0.2-0.2-0.1-0.4,0c-0.5,0.5-1,2.8-1.1,5
		c-0.1,1.3-0.1,2.6-0.1,3.6v1.1c0,0.1,0,0.1,0,0.2l-0.1,0.4v0.1v-0.1c0,0-0.1-0.2,0-0.2l-0.1-0.1l-0.1-0.1h-0.1l0.2-0.1
		c0.1-0.1,0.3-0.1,0.4,0s0.1,0.2,0,0.3l-0.2,0.4l-0.2,0.2c-0.1,0.1-0.4,0.1-0.5,0c-0.4-0.2-0.4-0.5-0.5-0.8c0,0,0-0.1,0-0.2v-1.2
		c0-1,0-2.3,0.2-3.7c0.2-1.6,0.5-3.2,1-4.3c0.2-0.6,0.5-1,0.9-1.3C268.6,197.8,269.2,197.9,269.6,198.2"/>
	<path class="st0" d="M269.8,186.3c0.2,0.1,0.3,0.3,0.1,0.5c-0.1,0.2-0.3,0.2-0.5,0.2c-0.2-0.1-0.4-0.1-0.6,0.1
		c-0.2,0.2-0.4,0.5-0.6,0.9c-0.3,0.6-0.5,1.4-0.6,2.1c-0.2,0.6-0.2,1.1-0.2,1.3c0,0.1-0.1,0.3-0.2,0.3s-0.2,0-0.2-0.1
		c-0.3-0.3-0.4-0.9-0.4-1.6c0.1-0.9,0.4-1.7,0.8-2.5c0.3-0.5,0.6-0.9,1-1.2C268.8,186.1,269.4,186,269.8,186.3"/>
	<path class="st0" d="M258.5,205.4c0.1-0.2,0.4-0.2,0.5-0.1l0.1,0.1c0.2,0.3,0.1,0.3,0.1,0.4l-0.9,2.9l-1.4,3.9
		c-0.4,1.2-0.7,2.2-0.7,2.5c0,0.1-0.1,0.3-0.3,0.2c-0.1,0-0.2-0.1-0.2-0.2c-0.1-0.6,0.2-1.6,0.5-2.8l1.2-3.9l0.8-2l0.2-0.6
		L258.5,205.4z"/>
	<path class="st0" d="M252.3,206.6c0-0.2,0.2-0.4,0.4-0.4s0.4,0.2,0.4,0.4l0.3,2.4c0.1,1.1,0.3,2.1,0.6,3.1c0.1,0.1,0,0.3-0.2,0.3
		c-0.1,0-0.3,0-0.3-0.1c-0.5-1-0.9-2-1.1-3.1L252.3,206.6z"/>
	<path class="st0" d="M260.8,212.6c0.2-0.1,0.4,0,0.5,0.2s0,0.4-0.2,0.5c-0.1,0.1-0.2,0.2-0.3,0.5l-0.2,1.4
		c-0.2,1.2-0.5,2.8-1.3,4.3c-0.1,0.1-0.2,0.2-0.4,0.1c-0.1-0.1-0.2-0.2-0.1-0.3c0.6-1.5,0.7-3,0.8-4.2
		C259.9,214,260,212.9,260.8,212.6"/>
	<path class="st0" d="M259.4,183.5c0.2,0,0.4,0.1,0.4,0.3s-0.1,0.4-0.3,0.4c-0.5,0.1-1,0.6-1.8,1.3l-1.6,1.2l-1.6,1.4
		c-2,1.8-4.3,4.3-6.2,6.6c-1,1.1-1.8,2.1-2.3,2.9l-0.5,0.9l-0.1,0.2c0.1,0.1,0.1,0.3,0,0.4c-0.1,0.1-0.2,0.1-0.3,0.1
		c-0.3-0.1-0.4-0.5-0.3-0.8c0.1-0.5,0.4-1.1,0.8-1.8l1.7-2.5c1.9-2.3,4.3-4.9,6.3-6.8l1.7-1.4l1.6-1.2
		C258,184.1,258.6,183.6,259.4,183.5"/>
	<path class="st0" d="M249.9,194.8c0.2-0.1,0.4-0.1,0.5,0c0.1,0.2,0.1,0.4,0,0.5l0,0c-0.7,0.6-0.9,1.8-1,3c0,1.2,0.1,2.3,0.1,2.8
		c0,0.2-0.1,0.3-0.3,0.3c-0.1,0-0.3-0.1-0.3-0.2c-0.1-0.5-0.3-1.6-0.2-2.9C248.8,197.1,249,195.7,249.9,194.8"/>
	<path class="st0" d="M244.1,155.1c-0.1,0.2-0.3,0.3-0.5,0.2h0.1h0.1C243.8,155.3,244.1,155.1,244.1,155.1L244.1,155.1L244.1,155.1
		c-0.2,0.2-0.5,0.4-0.8,0.3h0.1l-0.3,0.1l-0.8,0.6l-2.7,2.1l-3.9,3.4c-1.4,1.2-3,2.3-4.5,3.7c-0.4,0.3-0.7,1-1.2,1.6
		c-1.2,1.6-2.7,2.9-4,4.2l-4.3,4.3l-5.8,5.8l-1.9,2l-0.1,0.1l-0.2,0.2l0.1-0.1v-0.1c0,0.1,0-0.3,0-0.2v-0.2l-0.1-0.1
		c0.1,0.1-0.2-0.2-0.2-0.1h-0.1l2.1-0.5c0.1,0,0.3,0,0.3,0.2c0,0.1,0,0.3-0.1,0.3l-2,1l-0.2,0.1l-0.3,0.1c-0.2,0-0.4-0.1-0.6-0.3
		c-0.2-0.3-0.1-0.5-0.1-0.7l0.2-0.4c0,0,0-0.1,0.1-0.1l2.1-2.2l5.8-5.9l4.3-4.3c1.4-1.4,2.8-2.7,3.9-4.1c0.4-0.5,0.8-1.2,1.4-1.8
		c1.6-1.5,3.2-2.6,4.5-3.7l4-3.4l2.7-2.1l1.1-0.7c0.3-0.2,0.7-0.3,1.1-0.2c0.3,0.1,0.5,0.3,0.5,0.6
		C244.2,155.1,244.1,155,244.1,155.1"/>
	<path class="st0" d="M226.3,169.1c0.1-0.2,0.4-0.2,0.6-0.1l0,0c0.2,0.2,0.1,0.2,0.1,0.2l0.3,1.2l0.9,2.6l0.9,2.8
		c0.3,1.2,0.6,2.6,0.9,4l1,6.3c0.2,1.7,0.5,2.9,0.7,3.6l0.3,0.8l0.1,0.2c0.2,0.1,0.2,0.3,0.2,0.4c0,0.1-0.1,0.2-0.3,0.2
		c-0.5,0.1-0.9-0.5-1.2-1.2c-0.4-0.8-0.7-2-1.1-3.7l-1-6.3l-0.8-3.9l-0.8-2.8l-0.7-2.7l-0.2-0.9v-0.3v-0.1
		C226.2,169.3,226.1,169.3,226.3,169.1 M227,169.6c0,0.2-0.2,0.4-0.4,0.4s-0.4-0.1-0.4-0.3v-0.2l0,0l0,0l0,0l0.1,0.1
		c-0.2-0.1-0.2-0.4-0.1-0.6c0.1-0.2,0.4-0.2,0.6-0.1C227.1,169.2,227.1,169.4,227,169.6v-0.1v-0.1V169.6z"/>
	<path class="st0" d="M234.6,165c0,0.2-0.2,0.4-0.4,0.4s-0.3-0.1-0.4-0.3v-0.3c0-0.1,0-0.2,0.2-0.3c0.2-0.2,0.4-0.1,0.5-0.1
		c0.3,0.1,0.3,0.3,0.4,0.5c0.3,0.6,0.7,1.6,1.1,2.9l0.9,3.2c0.7,2.7,1.5,5.4,2.2,7.7l1.2,3.8l0.5,1l0.2,0.2l0,0
		c0.2,0,0.3,0.1,0.3,0.3c0,0.1,0,0.2-0.1,0.3c-0.3,0.2-0.6,0-0.9-0.3c-0.4-0.4-0.7-1-1.1-1.8l-1.2-3c-0.7-2.4-1.5-5.1-2.2-7.8
		l-0.8-3.2l-0.7-2.6l-0.2-0.5l0,0l0.1,0.1l0.1,0.1c-0.1,0,0.4,0,0.3,0C234.2,165.2,234.5,165,234.6,165
		C234.4,165.1,234.6,164.9,234.6,165L234.6,165z"/>
	<path class="st0" d="M232.8,178.7c0.2-0.1,0.4-0.1,0.5,0.1c0.1,0.2,0.1,0.4-0.1,0.5c-0.5,0.3-0.8,0.4-1.2,0.8
		c-0.6,0.6-1.3,1.6-2.2,2.7l-2.4,2.8l-1.2,1.6c-0.1,0.1-0.2,0.2-0.4,0.1c-0.1-0.1-0.2-0.2-0.1-0.3c0.1-0.4,0.5-1,1.1-1.8l2.2-2.9
		c0.9-1.1,1.8-2.1,2.5-2.7C232.1,179.1,232.4,179,232.8,178.7"/>
	<path class="st0" d="M237.7,177.3c0.2,0,0.4,0.1,0.5,0.3c0,0.2-0.1,0.4-0.3,0.5l0,0c-0.1,0-0.5,0.3-0.8,0.8c-1.1,1.8-1.9,5-2.5,6.5
		c-0.1,0.1-0.2,0.2-0.4,0.1c-0.1-0.1-0.2-0.2-0.2-0.3l1.4-4.4c0.3-0.8,0.6-1.6,1-2.3C236.8,177.9,237.1,177.4,237.7,177.3"/>
	<path class="st0" d="M235.5,160.5c0.1,0,0.2,0.2,0.2,0.3s-0.1,0.2-0.3,0.2l-1.2-0.1c-0.5,0-1.1-0.1-2,0l-2,0.3
		c-1.3,0.2-2.8,0.2-4.5,0.4c-1.1,0.2-2.2,0.4-3.5,0.8c-1.3,0.4-2.6,1-4.1,1.8c-1.7,0.8-3.3,1.9-4.9,2.8c-1,0.5-2,0.9-2.8,1.2
		c-1,0.3-1.9,0.8-2.7,1.2l-1.9,1.2l-1.2,0.6c-0.3,0.2-0.4,0.3-0.7,0.3h-0.1c-0.1,0-0.2-0.1-0.2-0.3s0.1-0.2,0.1-0.2l0.3-0.2l0.6-0.4
		c0.1-0.1,0.2,0,0.3,0c0.1,0.1,0,0.2,0,0.2l-0.6,0.6l0,0l0,0v-0.1V171l-0.1-0.1l-0.2-0.1h-0.1l0,0h0.1l0,0l1.6-0.9l1.9-1.2
		c0.8-0.5,1.7-1,2.8-1.4c0.8-0.3,1.7-0.7,2.6-1.2c1.6-0.8,3.2-1.9,4.9-2.8c1.5-0.8,2.9-1.4,4.2-1.9c1.3-0.4,2.5-0.7,3.6-0.8
		c1.8-0.3,3.3-0.2,4.5-0.4c0.7-0.1,1.4-0.2,2-0.3c1,0,1.6,0,2.2,0.1L235.5,160.5z"/>
	<path class="st0" d="M222,162.3c0.1,0.1,0.2,0.2,0.1,0.3c0,0.1-0.2,0.2-0.3,0.2c-0.2-0.1-0.6-0.1-0.9,0c-0.3,0.1-0.7,0.5-1.2,1.4
		l-0.4,0.9c-0.2,0.4-0.5,0.7-0.7,0.9c-0.5,0.5-0.8,1.3-1.1,2c-0.5,0.8-0.6,1.4-0.8,2.2c0,0.1-0.1,0.2-0.2,0.1
		c-0.1,0-0.1-0.1-0.1-0.2c0.1-0.8,0.1-1.5,0.5-2.4c0.3-0.6,0.6-1.5,1.3-2.1c0.2-0.2,0.4-0.4,0.6-0.8l0.5-0.9c0.6-1,1.1-1.4,1.6-1.6
		C221.2,162.1,221.7,162.2,222,162.3"/>
	<path class="st0" d="M239.6,146c0.2,0.1,0.2,0.4,0.1,0.5c-0.1,0.1-0.3,0.2-0.5,0.1c-0.3-0.1-0.6-0.2-1-0.1l-2.4,0.7l-5.4,1.8
		c-2.2,0.7-4.8,1.6-7.6,2.8c-2.3,0.9-4.5,1.9-6.6,2.7c-2.5,0.8-4.7,1-6.3,0.9c-1.5-0.1-2.5-0.5-3-0.7c-0.1-0.1-0.2-0.2-0.2-0.4
		c0-0.1,0.2-0.2,0.3-0.2c0.6,0,1.5,0.3,2.9,0.3c1.5,0,3.4-0.3,5.8-1.2c2-0.7,4.2-1.8,6.5-2.8c2.8-1.1,5.5-2.1,7.7-2.8l5.5-1.7
		C237.7,145.5,238.8,145.4,239.6,146"/>
	<path class="st0" d="M227.6,147.5c0.2,0.1,0.2,0.3,0.1,0.5c-0.1,0.1-0.2,0.2-0.4,0.2c-0.3-0.1-0.5-0.2-0.8-0.5l-1.3-1.3
		c-1.1-1.3-2.3-3.2-3.4-4.7l-1.1-1.6l-0.4-0.4h-0.1h0.1c-0.1,0-0.1,0-0.2,0h0.1l-0.3,0.4c-0.1,0.1-0.2,0.2-0.4,0.1
		c-0.1-0.1-0.2-0.2-0.1-0.3c0.1-0.5,0.1-0.9,0.6-1.2c0.1,0,0.1-0.1,0.2-0.1c0.6-0.1,1,0.4,1.4,0.8l1.2,1.6c1.1,1.6,2.2,3.5,3.2,4.8
		C226.8,146.9,227.5,147.5,227.6,147.5"/>
	<path class="st0" d="M231.8,150.2c0.2,0.1,0.2,0.4,0.1,0.5c-0.1,0.2-0.3,0.2-0.5,0.1c0,0-0.7,0.1-1.5,0.4c-0.9,0.4-1.8,1-2.6,1.8
		s-1.4,1.7-1.6,2.6c0,0.1,0,0.1-0.1,0.2l-0.2,0.4c-0.1,0.1-0.2,0.2-0.4,0.2c-0.1,0-0.1-0.1-0.2-0.2l-0.2-0.6c0-0.1,0-0.1,0-0.2
		c0.2-1.2,1-2.3,1.9-3.2c0.9-0.8,2-1.5,3-1.9C230.4,150.1,231.2,149.8,231.8,150.2"/>
	<path class="st0" d="M260.9,50.1c-0.3-0.1-0.4-0.4-0.3-0.6c0.1-0.3,0.4-0.4,0.6-0.3c0.1,0,0.2,0.1,0.3,0.2l1.2,1.5
		c0.1,0.1,0.1,0.3,0,0.4c-0.1,0.1-0.3,0.1-0.4,0l-1-0.9L260.9,50.1L260.9,50.1z M270.3,82.9c0-0.2,0.2-0.4,0.4-0.4
		c0.2,0,0.4,0.2,0.4,0.4v1l-0.1,0.5c-0.1,0.2-0.4,0.4-0.7,0.4c-0.4-0.1-0.5-0.3-0.6-0.5l-0.4-0.8c-0.4-1-0.8-2.3-1.2-4.2l-2.2-9.2
		l-2-7.4l-1.3-5.5c-0.3-1.5-0.7-2.6-1-3.5l-0.8-1.8l-0.6-1.1c-0.2-0.4-0.3-0.5-0.4-1s0.3-1,0.9-1.1c0.4,0,0.7,0.1,0.9,0.4l0.4,0.6
		l0.7,1.2l0.8,2.1l1,3.7l1.2,5.5l1.9,7.5l1.9,9.2l1,4.1l0.3,0.8v0.1l0,0l-0.1-0.1c0.1,0-0.3,0-0.2,0h-0.2l-0.1,0.1l-0.1,0.1
		L270.3,82.9z"/>
	<path class="st0" d="M265.8,65.3c0-0.2,0.2-0.4,0.4-0.4c0.2,0,0.3,0.1,0.4,0.3v0.1l0,0c0,0-0.3-0.1-0.2-0.1c0.1,0-0.3,0-0.2,0
		l-0.1,0.1l0.1-0.1l0.2-0.5l0.7-2.2c0.5-1.7,0.9-4,1.4-6.4l0.9-3.7l1-3.2l0.6-1.3l0.3-0.3l0.3-0.1c0.2,0,0.4,0.1,0.5,0.3
		c0.2,0.4,0,0.4,0,0.5l-0.3,1.2l-0.6,2.2c0,0.1-0.2,0.2-0.3,0.2c-0.1,0-0.2-0.2-0.2-0.3l0.6-2.9v-0.4l0.1,0.1c0,0,0.3,0.2,0.2,0.1
		c-0.1,0,0.5,0,0.3,0c-0.1,0,0.2-0.2,0.2-0.1v-0.1l-0.4,1.2l-0.8,3.2l-0.9,3.7c-0.6,2.4-1.1,4.7-1.6,6.5c-0.3,1-0.6,1.8-0.9,2.3
		s-0.4,0.8-0.9,1c-0.3,0.1-0.6-0.2-0.7-0.4L265.8,65.3z"/>
	<path class="st0" d="M268.1,68.3c0.1-0.2,0.4-0.2,0.5-0.1c0.2,0.1,0.2,0.4,0.1,0.5c-0.6,0.7-0.5,1.8-0.7,2.8
		c-0.3,1.4-1.5,2.7-3,2.8c-1,0-2-0.7-2.9-2c-0.3-0.5-0.7-1-1-1.8c-0.4-0.8-0.7-1.7-0.9-2.6c-0.6-2.2-0.6-4.3-0.5-5.5v-0.1l0.2-0.5
		c0.1-0.1,0-0.3,0.3-0.4c0,0,0.1,0,0.2,0c0.3,0.1,0.3,0.3,0.3,0.4l0.2,0.5v0.1c0.1,1.2,0.2,3.1,0.8,5.1l0.9,2.5l0.9,1.6
		c0.7,1.1,1.3,1.4,1.7,1.5c0.8,0.1,1.8-0.6,2.2-1.7C267.5,70.6,267.3,69.3,268.1,68.3"/>
	<path class="st0" d="M263.6,58.1c0,0.2-0.2,0.4-0.4,0.4c-0.2,0-0.3-0.1-0.4-0.3c-0.1-0.6-0.1-1.3,0-2.1c0.3-1.6,0.8-3.6,1.3-5.5
		c0.7-1.9,1.4-3.7,2-4.9c0.1-0.1,0.2-0.2,0.4-0.1c0.1,0.1,0.2,0.2,0.1,0.3l-1.4,5c-0.6,1.9-1.1,3.9-1.4,5.4L263.6,58.1z"/>
	<path class="st0" d="M270.1,70.2c0.2,0.1,0.2,0.4,0.1,0.5c-0.1,0.2-0.4,0.2-0.5,0.1l0,0c-0.1,0,0.3,0.1,0.2,0.1h0.1l0,0l-0.2,0.4
		v0.2l0,0l-0.1-0.1h-0.1c0.1,0-0.3,0-0.2,0h-0.1l0.7-0.8c0.4-0.6,0.9-1.5,1.4-2.7l2.6-5.1c0.1-0.1,0.2-0.2,0.4-0.1
		c0.1,0.1,0.2,0.2,0.1,0.3c-0.8,1.9-1.4,3.7-2,5.3c-0.6,1.3-1.1,2.3-1.7,3l-0.7,0.7l-0.3,0.3l-0.2,0.1c-0.1,0-0.4,0.1-0.6-0.1
		c-0.4-0.5-0.3-0.9-0.1-1.3l0.2-0.5l0.2-0.2C269.7,70.1,269.9,70.1,270.1,70.2"/>
	<path class="st0" d="M271.9,79.9c0.1-0.2,0.3-0.3,0.5-0.2c0.2,0.1,0.3,0.3,0.2,0.5l0,0l-0.2,0.3c0,0-0.1,0.2-0.3,0.1
		c-0.2,0-0.3-0.2-0.3-0.3v-0.2l0.9-2l2-4.7c0.1-0.1,0.2-0.2,0.4-0.2c0.1,0.1,0.2,0.2,0.2,0.4l-1.3,3.3l-1.2,3l-0.1,0.3v0.1v-0.1
		v-0.1c0,0.1-0.4-0.2-0.2-0.2c0.1,0-0.3,0.1-0.3,0.1c0.1-0.1-0.1,0.1-0.1,0.1L271.9,79.9z"/>
	<path class="st0" d="M245.1,58.2c-0.4-0.2-0.5-0.7-0.3-1.1c0.2-0.4,0.7-0.5,1.1-0.3c0.4,0.2,0.5,0.7,0.3,1.1
		c-0.1,0.2-0.3,0.4-0.6,0.4c-0.1,0,0.3-0.1,0.2-0.1s0.2-0.2,0.2-0.1c-0.1,0.1,0.1-0.2,0.1-0.1l0,0l-0.1,0.5c0.1,0.7,1,2.2,1.6,3.3
		c0.1,0.1,0,0.3-0.1,0.4c-0.1,0.1-0.3,0-0.4-0.1c-0.7-0.9-1.8-2.3-2.1-3.5l-0.2-0.4l-0.1-0.1l0,0v0.1l0.1,0.1
		C245,58.1,245.2,58.3,245.1,58.2 M255.5,91.3c0-0.2,0.2-0.4,0.4-0.4c0.2,0,0.4,0.1,0.4,0.3l0.1,0.6v0.1c0,0.1,0,0.1-0.1,0.3
		c-0.1,0.2-0.4,0.2-0.6,0.2c-0.4-0.1-0.4-0.3-0.5-0.5l-0.4-0.7l-0.8-2.5l-1.1-3.8l-1.4-4.4c-0.7-2.2-1.7-4.6-2.4-7.4
		c-0.8-2.9-1.3-5.8-1.7-8.1l-0.9-3.7l-0.6-1.7c-0.2-0.4-0.4-0.7-0.5-0.9c-0.3-0.3-0.4-0.6-0.5-0.8l-0.1-0.1l0,0v0.1l0.1,0.1
		c0-0.1,0.3,0.2,0.2,0.2s0.3,0.1,0.2,0.1s0.3,0,0.2,0c-0.5,0-0.9-0.3-0.9-0.8c0-0.3,0.2-0.7,0.5-0.8c0.3-0.2,0.7-0.1,0.9,0.1
		c0.5,0.3,0.4,0.5,0.4,0.6l0.1,0.2c0.3,0.3,0.6,0.7,0.9,1.3l0.7,2.1l0.9,3.9c0.4,2.4,0.9,5.2,1.6,8c0.7,2.6,1.6,5.1,2.3,7.4l1.3,4.5
		l1,3.9l0.7,2.3l0.3,0.9l0,0l-0.1-0.1c0,0-0.3-0.1-0.2-0.1s-0.3,0-0.2,0l-0.2,0.1c0.1,0-0.1,0.2-0.1,0.1V92L255.5,91.3z"/>
	<path class="st0" d="M252.2,58c-0.1-0.2,0-0.5,0.2-0.6s0.5,0,0.6,0.2s0,0.5-0.2,0.6l0,0l0.1-0.1L253,58l-0.5,1.4
		c0,0.1-0.2,0.2-0.3,0.2s-0.2-0.2-0.2-0.3l0.2-1.2L252.2,58L252.2,58L252.2,58C252.2,57.9,252.2,58.1,252.2,58 M249.3,72.2
		c-0.2,0.1-0.4,0.1-0.5,0s-0.1-0.3,0-0.4l0.8-2.9l1-4.7l0.9-4.4l0.4-1.4L252,58c0-0.1,0-0.2,0.2-0.4s0.5-0.1,0.6,0
		c0.2,0.2,0.1,0.3,0.1,0.3c0,0.4-0.1,1.1-0.2,2.1l-1,4.4l-1.2,4.7l-0.7,2C249.7,71.6,249.6,72,249.3,72.2"/>
	<path class="st0" d="M237,64.7c-0.2,0.1-0.5,0.1-0.6-0.1s-0.1-0.5,0.1-0.6c0.2-0.1,0.4-0.1,0.6,0.1c0,0.1,0,0,0,0l1.8,1.3
		c0.1,0.1,0.2,0.3,0.1,0.4c-0.1,0.1-0.2,0.2-0.4,0.1l-1.5-0.8l-0.3-0.2l0,0l0,0h0.1C236.8,64.8,237,64.6,237,64.7 M251.2,73.1
		c0.1-0.2,0.3-0.3,0.5-0.3c0.2,0.1,0.3,0.2,0.3,0.4c-0.1,0.5-0.7,0.8-1.2,0.8s-1.2-0.2-1.8-0.5c-0.5-0.2-1.2-0.5-1.9-1
		c-0.8-0.5-1.7-1.3-2.7-2.1c-1.7-1.4-3.9-2.8-5.6-3.9l-1.7-1.3l-0.5-0.4l-0.2-0.2c0-0.1-0.2-0.1-0.1-0.4c0.1-0.2,0.3-0.4,0.5-0.3
		l0,0l0.3,0.2l2.3,1.4c1.7,1.2,3.8,2.6,5.6,4l2.6,2.1l1.7,1c0.6,0.3,1.1,0.5,1.5,0.5C251.1,73.2,251.2,73.2,251.2,73.1"/>
	<path class="st0" d="M252.2,85.1c0-0.2,0.2-0.4,0.4-0.3c0.2,0,0.3,0.2,0.3,0.4v0.4l-0.1-0.1c0.1,0-0.3-0.1-0.2-0.1h-0.1h-0.1
		l0.3-0.4l1.6-2.8l2.7-4.8c1.3-2,2.6-3.8,3.8-4.6c0.1-0.1,0.3-0.1,0.4,0.1c0.1,0.1,0.1,0.3,0,0.3c-0.9,0.9-1.9,2.8-3,4.9l-2.7,4.7
		c-0.7,1.2-1.3,2.2-1.8,2.8l-0.4,0.4c-0.1,0.1-0.2,0.2-0.5,0.2c-0.2,0-0.4-0.1-0.5-0.3C252,85.7,252.1,85.5,252.2,85.1"/>
	<path class="st0" d="M253.2,80.3c0.2,0,0.4,0.2,0.4,0.4c0,0.2-0.2,0.4-0.4,0.4h-2c-0.7,0.1-1.6,0-2.5,0l-2.4-0.3l-1.7-0.3l-0.6-0.2
		h-0.1l-0.5-0.3c-0.2-0.2-0.2-0.6,0-0.8c0.2-0.2,0.4-0.2,0.6-0.1l0.3,0.1h0.1l0.5,0.2l1.5,0.4l2.3,0.4l2.4,0.3L253.2,80.3z"/>
	<path class="st0" d="M250,100.5c0.1,0.2,0.1,0.4-0.1,0.5c-0.2,0.1-0.4,0.1-0.5,0c-1.1-1.2-1.7-1.4-2.8-2.2l-2.1-1.8
		c-1.3-1.1-2.9-2.6-4.8-4.1c-2.4-1.9-5.2-3.9-7.9-5.8l-3.8-2.8l-3.5-2.3l-2.4-1.4l-1.2-0.8c-0.3-0.2-0.6-0.3-0.9-0.7
		c-0.1-0.1-0.1-0.1-0.1-0.2c-0.1-0.2-0.1-0.4-0.1-0.7c0.1-0.4,0.6-0.7,0.8-0.7l0.6,0.1c0.5,0.1,1.1,0.3,1.7,0.6
		c0.7,0.3,1.3,0.6,1.7,1c0.1,0.1,0.1,0.3,0,0.4s-0.2,0.1-0.3,0.1c-0.4-0.3-1-0.5-1.6-0.7c-0.6-0.1-1.2-0.2-1.5-0.2l0,0l0.1-0.1
		l0.1-0.1v-0.2c0,0.1-0.1-0.4,0-0.3c0,0.1-0.1-0.2-0.1-0.2l-0.1-0.1l0,0c0.1,0,0.2,0.1,0.2,0.2l0.7,0.4l1.1,0.7l2.4,1.4L229,83
		l3.8,2.8c2.6,1.9,5.4,3.9,7.9,5.9c1.9,1.6,3.5,3.1,4.8,4.2l1.9,1.8C248.3,98.7,248.9,99.2,250,100.5"/>
	<path class="st0" d="M230.1,69.2c-0.3,0-0.5-0.2-0.5-0.5s0.2-0.5,0.5-0.5s0.5,0.2,0.5,0.5v0.1v-0.1l0.5,3c0,0.1-0.1,0.3-0.2,0.3
		c-0.1,0-0.3-0.1-0.3-0.2l-0.6-2.2l-0.2-0.5V69l0,0l0.1,0.1L230.1,69.2L230.1,69.2z M233.4,87.3c-0.2,0-0.4-0.1-0.4-0.3
		c0-0.2,0.1-0.4,0.3-0.4l0.1-0.1c0.2-0.5,0.1-1.9-0.3-3.7c-0.3-1.3-0.7-2.8-1.2-4.3l-0.8-2.4c-0.7-2.3-1.2-4.7-1.5-6.2v-0.8v-0.3
		v-0.2c0-0.1,0-0.2,0.3-0.3c0.2-0.1,0.5,0,0.6,0.2c0.2,0.2,0.1,0.3,0.2,0.4l0.2,0.7c0.3,1.5,0.8,3.8,1.5,6l0.8,2.5
		c0.4,1.6,0.8,3.1,1.1,4.5c0.2,1.3,0.3,2.4,0.2,3.2C234.3,86.5,234.1,87.2,233.4,87.3"/>
	<path class="st0" d="M237.4,93.5c0.4,0.1,0.6,0.4,0.6,0.8c-0.1,0.3-0.3,0.6-0.6,0.6L235,95l-2,0.2l-1.5,0.3l-2,0.4l-1.4,0.3
		l-0.7,0.2l-0.7,0.1l-0.5,0.1c-0.1,0-0.2,0-0.2,0h-0.2c-0.4-0.1-0.6-0.4-0.6-0.8c0-0.1,0-0.2,0.1-0.2l0.2-0.3
		c0.1-0.1,0.1-0.1,0.2-0.1l0.5-0.2l0.6-0.3l0.8-0.3L229,94l2.1-0.4l1.7-0.2l2.1-0.1L237.4,93.5z M237.2,94c0.1-0.2,0.3-0.2,0.5-0.1
		s0.2,0.3,0.1,0.5c-0.1,0.2-0.3,0.2-0.5,0.1l-0.1-0.1l0.1,0.1c-0.1-0.1,0.1,0.1,0.1,0.1c-0.2,0-0.3-0.2-0.3-0.4
		c0-0.2,0.2-0.3,0.3-0.3l0,0l0,0h-0.1L237.2,94L237.2,94z M237.6,94.5c-0.2,0-0.4-0.1-0.5-0.3c0-0.2,0.1-0.4,0.3-0.5
		c0.1,0,0.2,0,0.2,0s0.1-0.1,0.2,0.2c0.1,0.1,0.1,0.3,0,0.4C237.7,94.6,237.6,94.5,237.6,94.5"/>
	<path class="st0" d="M243.4,95.7c0.2,0.1,0.3,0.3,0.2,0.5s-0.3,0.3-0.4,0.2c-0.3-0.1-0.9,0.1-1.8,0.9c-0.8,0.7-1.8,1.7-2.7,2.7
		l-1.6,2l-1.5,1.9l-0.6,0.9c0,0.1-0.1,0.1-0.2,0.2l-0.3,0.2c-0.1,0.1-0.3,0.1-0.4,0c-0.1-0.1-0.2-0.4-0.2-0.6c0-0.1,0-0.2,0-0.2
		l0.6-1.1l1.5-2l1.7-2c1-1.1,2-2.1,3-2.8C241.8,95.8,242.7,95.4,243.4,95.7"/>
	<path class="st0" d="M227.6,86.3c0.1,0.2-0.1,0.4-0.3,0.5c-0.2,0-0.4,0-0.5-0.2c-0.3-0.7-0.7-1-2.2-0.8c-0.8,0.1-1.9,0.4-3.1,0.8
		l-2.9,1l-3,1h-0.1h-0.8c-0.1,0-0.2-0.2-0.2-0.3c0-0.1,0-0.1,0.1-0.2l0.6-0.5c0,0,0.1,0,0.1-0.1l2.9-1.2l2.9-1
		c1.2-0.4,2.4-0.7,3.4-0.7c0.9-0.1,1.6,0.1,2.1,0.4C227.2,85.3,227.4,85.8,227.6,86.3"/>
	<path class="st0" d="M239.9,121.7c0.2,0,0.4,0.2,0.3,0.4c0,0.2-0.1,0.3-0.3,0.3c-0.6,0.1-1.4,0.1-2.4,0l-2.6-0.3l-2.9-0.5l-5-0.6
		l-6.4-0.9l-6.3-0.9c-2.5-0.3-4.6-0.5-6.3-0.6l-4.1-0.1c-1.3-0.1-2.2-0.1-2.8-0.5c-0.3-0.2-0.5-0.6-0.4-0.9c0-0.3,0.2-0.6,0.3-0.9
		c0.1-0.1,0.2-0.2,0.4-0.1c0.1,0.1,0.2,0.2,0.1,0.3l-0.1,0.7c0,0.1,0,0.1,0.4,0.1l2.1-0.1h4.2c1.8,0.1,3.9,0.2,6.5,0.5l6.4,0.8
		l6.4,0.9l5,0.7l2.9,0.6l2.5,0.5L239.9,121.7z"/>
	<path class="st0" d="M208.3,100.6c-0.2,0.1-0.4,0-0.4-0.2c-0.1-0.2,0-0.4,0.2-0.4c0.2-0.1,0.4,0,0.4,0.2v0.1l0,0
		C208.5,100.5,208.4,100.6,208.3,100.6c-0.2,0-0.3,0-0.4-0.1v0.1l0.1,0.1h0.1L208.3,100.6z M210.6,117.5c0,0.2-0.2,0.4-0.4,0.4
		s-0.3-0.1-0.4-0.3l-0.1-1.5l-0.1-2.5l-0.1-2.7c-0.1-1.1-0.4-2.3-0.7-3.4l-0.9-4.2l-0.2-2.1v-0.7v-0.2l0.1-0.1
		c0-0.1,0.1-0.2,0.4-0.2c0.1,0,0.3,0.1,0.3,0.3l0.1,0.9l0.4,1.9l1,4.2c0.3,1.2,0.6,2.4,0.7,3.6l0.1,2.8L210.6,117.5z"/>
	<path class="st0" d="M213.7,116.6c0.2-0.1,0.4,0,0.5,0.2s0,0.4-0.2,0.5c-0.3,0.1-0.6,0.3-1.1,0.8l-1.3,1.7
		c-1.2,1.6-2.6,3.6-3.6,5.3l-0.9,1.5c-0.2,0.4-0.2,0.6-0.1,0.6c0.1,0.1,0.1,0.3-0.1,0.4c-0.1,0.1-0.2,0.1-0.3,0
		c-0.4-0.2-0.4-0.8-0.2-1.2c0.1-0.5,0.4-1.1,0.7-1.8c1-1.8,2.5-3.7,3.7-5.3c0.5-0.7,0.9-1.3,1.4-1.8
		C212.9,116.9,213.4,116.7,213.7,116.6"/>
	<path class="st0" d="M222.4,118.6c-0.2,0.2-0.4,0.2-0.6,0c-0.3-0.3-0.1-0.3-0.1-0.4l0.2-2.8l0.1-3.3c0-1.1-0.2-2.3-0.3-3.5
		l-0.3-3.8v-0.1l0.1-0.5l0.1-0.2c0-0.1,0-0.2,0.3-0.2c0.1,0,0.2,0,0.2,0c0.4,0.1,0.3,0.2,0.3,0.4l0.2,0.4v0.1l0.5,3.7
		c0.1,1.2,0.3,2.4,0.3,3.6l-0.2,3.4l-0.3,2l-0.1,0.6l-0.1,0.2C222.5,118.4,222.6,118.4,222.4,118.6 M221.8,118.1
		c0.1-0.2,0.3-0.3,0.5-0.1c0.1,0.1,0.2,0.2,0.2,0.3l0,0c0,0-0.1-0.2,0-0.1c0.1,0.2,0,0.4-0.2,0.5s-0.4,0-0.5-0.2s0-0.4,0.2-0.5
		L221.8,118.1C221.9,118,221.8,118.1,221.8,118.1"/>
	<path class="st0" d="M220.9,112.9c0.2,0,0.4,0.2,0.4,0.4c0,0.2-0.2,0.4-0.4,0.4c-0.8,0.1-2-0.2-3.3-0.7c-0.8-0.4-1.7-0.8-2.5-1.5
		c-0.6-0.5-1.1-1.1-1.5-1.9c-0.3-0.8-0.3-1.7-0.2-2.5c0-0.1,0.2-0.2,0.3-0.2s0.2,0.1,0.2,0.3c0,0.8,0.3,1.4,0.6,1.9
		c0.3,0.6,0.7,1.2,1.2,1.6c0.6,0.6,1.4,1,2.2,1.4C219.2,112.6,220.3,112.9,220.9,112.9"/>
	<path class="st0" d="M227,119.8c0.2,0,0.4,0.2,0.4,0.4c0,0.2-0.1,0.3-0.2,0.4l-0.7,0.8l-0.9,1.4l-1.2,2.2l-0.9,1.7
		c0,0.1-0.2,0.2-0.3,0.2s-0.2-0.1-0.2-0.2c-0.1-0.5,0.1-1.2,0.3-2l1.3-2.3l1.1-1.4C226.1,120.3,226.4,119.8,227,119.8"/>
	<path class="st0" d="M239.3,112c0,0.2-0.2,0.3-0.5,0.3c-0.1,0-0.2-0.1-0.3-0.3c0-0.1,0.1,0.2,0.1,0.1l0,0c-0.4-0.1-1.9,0-3.8,0.1
		c-1.3,0-2.7,0.2-3.9,0.1c-0.7,0-1.3-0.1-1.7-0.4l-0.1-0.1c-0.4-0.5-0.3-1.1,0-1.5c0.1-0.1,0.3-0.1,0.4-0.1c0.1,0.1,0.1,0.2,0.1,0.3
		c-0.1,0.3,0,0.3,0.1,0.3s0.1,0,0.2,0.1c0.2,0.1,0.6,0.2,1.2,0.2c1.1,0.1,2.4-0.1,3.7-0.1l3,0.1l0.9,0.2l0.4,0.2
		C239.3,111.6,239.4,111.8,239.3,112"/>
	<path class="st0" d="M235.6,110.6c0.2,0,0.4,0.2,0.4,0.4c0,0.2-0.2,0.4-0.4,0.4c-0.6,0-1.1-0.3-1.8-0.8s-1.4-1.1-2.1-1.8
		c-1-1.1-1.8-2.2-2-3.2c0-0.2,0.1-0.4,0.3-0.4s0.3,0.1,0.4,0.2c0.3,0.7,1.1,1.8,2.1,2.7C233.7,109.4,235.2,110.6,235.6,110.6"/>
	<path class="st0" d="M233.9,112.3c0.1,0.2,0.1,0.4-0.1,0.5c-0.2,0.1-0.4,0.1-0.5-0.1c0,0,0,0,0-0.1l0.1,0.1l0.2,0.1h0.1l0,0
		c-0.4,0.2-1.4,1.9-2.2,2.4c-0.1,0.1-0.3,0.1-0.4-0.1c-0.1-0.1-0.1-0.3,0.1-0.4c0.3-0.2,0.8-0.9,1.2-1.5l0.6-0.8l0.3-0.3l0.2-0.1
		C233.6,112.1,233.8,112.2,233.9,112.3"/>
	<path class="st0" d="M252.5,95c0.2-0.1,0.4,0,0.5,0.2s0,0.4-0.1,0.5c-0.3,0.2-0.7,0.2-1.1,0c-0.3-0.2-0.6-0.5-1-0.8l-0.9-1.2
		c-1-1.5-2.1-3.3-2.7-4.6l-0.2-0.9v-0.4c0.1-0.1,0.4-0.2,0.5-0.2c0.1,0.1,0.2,0.2,0.1,0.4c0,0,0,0.1-0.1,0.1l0.1-0.1v-0.1v-0.1
		l0.5,0.7c0.6,1.2,1.8,3.1,2.8,4.5l0.8,1.2l0.7,0.7L252.5,95z"/>
	<path class="st0" d="M249.5,90c0.1,0.2,0.1,0.4-0.1,0.5c-0.2,0.1-0.4,0.1-0.5-0.1c-0.1-0.1-1.6-0.8-3.1-1.4
		c-0.8-0.4-1.6-0.5-2.3-0.8c-0.7-0.2-1.3-0.7-1.5-1.4c0-0.1,0.1-0.3,0.2-0.3c0.1,0,0.3,0,0.3,0.2c0.2,0.5,0.6,0.7,1.2,0.8
		c0.7,0.1,1.5,0.2,2.5,0.6l2.1,1C248.8,89.4,249.3,89.6,249.5,90"/>
	<path class="st0" d="M247.6,87c0.2-0.1,0.4,0.1,0.5,0.3c0.1,0.2,0,0.4-0.2,0.5s-0.4,0-0.5,0c-0.4-0.3-0.4-0.6-0.5-1l-0.4-1.5
		c-0.2-1-0.5-1.9-0.7-2.1c-0.1-0.1-0.1-0.1-0.1-0.2l0,0c-0.1-0.1-0.2-0.3-0.1-0.4c0,0,0,0,0.1-0.1s0.4-0.2,0.6-0.1
		c0.1,0,0.1,0.1,0.2,0.1c0.6,0.6,0.7,1.6,1,2.6l0.3,1.7l0.1,0.5l-0.1-0.1L247.6,87z"/>
	<path class="st0" d="M243.6,85.8c0.2,0.1,0.2,0.3,0.1,0.5c-0.1,0.2-0.3,0.2-0.5,0.2c-0.8-0.4-1.3-1.7-1.7-3.5
		c-0.2-1-0.4-2.2-0.5-3.2l-0.2-2.3c-0.1-0.4-0.1-0.5-0.4-0.5c-0.1,0-0.3-0.1-0.2-0.3c0-0.1,0.1-0.2,0.2-0.2c0.5,0,0.9,0.4,1.1,0.9
		c0.2,0.6,0.3,1.4,0.5,2.4l0.5,3.1C242.8,84.5,243.3,85.7,243.6,85.8"/>
	<path class="st0" d="M240.8,78c0.2-0.1,0.4-0.1,0.5,0s0.1,0.4,0,0.5c-0.3,0.3-0.8,0.3-1.1,0.1c-0.3-0.2-0.7-0.5-1-0.9
		s-0.6-1-0.8-1.7l-1.8-5.1l-0.3-0.8l-0.1-0.2l0,0h0.1c-0.1,0,0.3-0.1,0.2-0.1l0.1-0.1v1.2c0,0.1-0.1,0.3-0.2,0.3
		c-0.1,0-0.3-0.1-0.3-0.2l-0.1-1.1c0-0.2-0.1-0.4,0.2-0.6s0.5,0.1,0.6,0.2c0.4,0.5,0.7,1.4,1.2,2.6l1.4,3.5c0.3,0.7,0.5,1.1,0.7,1.5
		l0.7,0.7L240.8,78L240.8,78z"/>
	<path class="st0" d="M280.9,82.2c0.2-0.1,0.4-0.1,0.5,0.1c0.1,0.1,0.1,0.3,0,0.5c-0.1,0.1-0.4,0.2-0.6,0.1c-0.4-0.2-0.4-0.6-0.4-1
		v-1.7c0.1-0.7,0.3-1.5,0.4-2.2l0.5-2.2l0.8-3c0.3-0.9,0.5-1.6,1.1-1.8c0.1,0,0.3,0,0.3,0.2c0,0.1,0,0.3-0.1,0.3
		c-0.3,0.2-0.8,2.5-1.2,4.6l-0.5,2.2c-0.2,0.7-0.4,1.4-0.4,2V82l0.1,0.4l0,0l-0.1-0.1c0,0-0.3-0.1-0.2-0.1
		C281.2,82.1,280.9,82.2,280.9,82.2"/>
	<path class="st0" d="M282.1,77.8c0.2,0,0.3,0.2,0.3,0.5c0,0.2-0.2,0.3-0.5,0.3l0,0c-0.7-0.2-1.3-0.2-2-0.6s-1.4-1.1-2.1-1.7
		c-0.6-0.6-1.4-1-1.8-1.5c0,0-0.1-0.1-0.1-0.2c-0.1-0.2-0.1-0.4,0-0.6s0.3-0.2,0.4-0.3c0.1,0,0.3,0.1,0.3,0.2s0,0.2,0,0.2l0,0V74
		h0.1c0.1,0,0.1,0.1,0.1,0.1c0.2,0.3,0.9,0.8,1.6,1.4c0.7,0.7,1.3,1.4,1.9,1.7C280.8,77.7,281.4,77.7,282.1,77.8"/>
	<path class="st0" d="M282.8,75.1c0,0.2-0.2,0.4-0.4,0.4c-0.2,0-0.4-0.2-0.4-0.4l0,0c0-0.3,0.1-0.9,0.4-1.6s0.9-1.7,2-2.9
		c0.1-0.1,0.3-0.1,0.4,0s0.1,0.3,0,0.4c-1,1.2-1.6,2.1-1.8,2.8C282.7,74.4,282.7,74.8,282.8,75.1"/>
	<path class="st0" d="M296.2,82c0.2-0.1,0.4-0.1,0.5,0.1s0.1,0.4-0.1,0.5c-0.1,0.1-0.3,0.2-0.5,0.2c-0.4-0.1-0.5-0.4-0.5-0.7
		l0.1-1.2c0.2-1.2,0.8-2.7,1.3-4.2l1.6-4.5l0.8-2c0.1-0.1,0.2-0.2,0.4-0.2c0.1,0,0.2,0.2,0.2,0.3c-0.1,0.6,0,1.1-0.3,2.2L298,77
		c-0.6,1.6-1.1,3.1-1.3,4.1l-0.1,1.1l-0.1-0.1L296.2,82L296.2,82z"/>
	<path class="st0" d="M297.3,76.7c0.2-0.1,0.4,0.1,0.5,0.3c0.1,0.2-0.1,0.4-0.3,0.5c-0.5,0.2-1,0.1-1.3-0.2
		c-0.4-0.3-0.6-0.8-0.7-1.3c-0.1-1,0.1-2.2,0.5-3.3c0.1-0.1,0.2-0.2,0.4-0.2c0.1,0,0.2,0.2,0.2,0.3c-0.3,1.1-0.3,2.2-0.1,2.9
		C296.5,76.5,296.8,76.8,297.3,76.7"/>
	<path class="st0" d="M297.3,80.1c-0.2,0-0.4-0.1-0.5-0.3c0-0.2,0.1-0.4,0.3-0.5l0,0c1.2-0.2,2.2,0.5,3.3-0.4c0.1-0.1,0.3-0.1,0.4,0
		s0.1,0.3,0,0.4c-0.7,0.6-1.4,0.8-2,0.8C298.3,80.1,297.8,80,297.3,80.1"/>
	<path class="st0" d="M297.6,74c0-0.2,0.1-0.4,0.3-0.4c0.2,0,0.4,0.1,0.4,0.3c0,0,0,0,0,0.1v-0.1l-0.1-0.1l-0.1-0.1
		c0.1,0-0.2,0-0.1,0s1.6-1.3,2.7-2.3c0.1-0.1,0.3-0.1,0.4,0s0.1,0.3,0,0.4l-1.9,1.9l-0.7,0.6l-0.4,0.2
		C297.9,74.4,297.6,74.2,297.6,74"/>
	<path class="st0" d="M299.6,78.6c0.1-0.2,0.4-0.2,0.5-0.1c0.2,0.1,0.2,0.3,0.1,0.5l-0.2,0.2c-0.1,0.1-0.4,0.1-0.5,0
		c-0.2-0.2-0.2-0.3-0.2-0.4c-0.1-0.7,0.2-2.1,0.7-3.4c0.4-0.9,0.9-1.6,1.6-1.9c0.1,0,0.3,0,0.3,0.2c0,0.1,0,0.3-0.1,0.3
		c-0.4,0.2-0.8,0.9-1,1.7c-0.3,0.8-0.5,1.7-0.6,2.3l-0.1,0.7l0,0v-0.1v-0.1c0,0-0.3-0.2-0.2-0.1c0.1,0-0.2,0-0.2,0
		C299.8,78.4,299.6,78.6,299.6,78.6L299.6,78.6z"/>
	<path class="st0" d="M311.6,85.9c0.2,0,0.4,0.2,0.4,0.4c0,0.2-0.1,0.4-0.4,0.4c0,0,0,0-0.1,0l-0.2-0.1c-0.1,0-0.2-0.1-0.2-0.3
		c0-0.3,0.1-0.4,0.2-0.4l1-0.6l1.6-1c0.1-0.1,0.3-0.1,0.4,0.1c0.1,0.1,0.1,0.3-0.1,0.4l-2,1.4l-0.4,0.3l0,0v-0.1v-0.1
		c0,0.1-0.2-0.3-0.1-0.2L311.6,85.9L311.6,85.9z"/>
	<path class="st0" d="M313.2,84.5c0.1-0.2,0.4-0.2,0.5-0.1s0.2,0.3,0.1,0.5l-0.1,0.2l-0.1,0.1c-0.2,0.1-0.5,0-0.6-0.2
		c-0.2-0.3-0.1-0.5,0-0.7c0.2-0.7,0.7-1.7,1.4-2.7l0.8-0.6c0.1-0.1,0.3-0.1,0.4,0.1c0.1,0.1,0.1,0.2,0,0.3l-0.4,0.7
		c-0.7,1-1.1,1.9-1.2,2.4l-0.1,0.3l0,0l0,0v-0.1c0,0.1-0.2-0.2-0.1-0.2s-0.3-0.1-0.2-0.1h-0.1L313.2,84.5L313.2,84.5z"/>
	<path class="st0" d="M326.6,109.6c0-0.2,0.2-0.4,0.4-0.4c0.2,0,0.4,0.1,0.4,0.3l-0.1-0.2l-0.1-0.1h-0.1h0.1l1.2-0.6
		c2-0.8,4.6-0.4,7.1-0.4c0.2,0,0.3,0.1,0.3,0.3c0,0.1-0.1,0.3-0.3,0.3c-2.6,0.1-5.2-0.1-6.8,0.6l-1.1,0.5l-0.4,0.1h-0.3
		C326.7,109.9,326.6,109.7,326.6,109.6"/>
	<path class="st0" d="M330,109c0,0.2-0.2,0.4-0.4,0.3c-0.2,0-0.4-0.2-0.3-0.4l0,0c0.1-0.5,0.1-1,0.3-1.5c0.2-0.5,0.7-0.9,1.5-1.2
		c0.1-0.1,0.3,0,0.4,0.2c0.1,0.1,0,0.3-0.1,0.3C329.8,107.3,330.2,107.8,330,109"/>
	<path class="st0" d="M331.5,124.1c0.2,0,0.3,0.2,0.3,0.5c0,0.2-0.2,0.3-0.5,0.3l0,0l0,0h0.1l0.1-0.1l0.1-0.1v-0.1v-0.1
		c0.2,0.4,2,1.8,4,3.1c2,1.3,4.2,2.5,5,2.4c0.1,0,0.3,0.1,0.3,0.2c0,0.1-0.1,0.3-0.2,0.3c-0.7,0.1-1.6-0.3-2.7-0.8
		c-1.7-0.9-3.6-2.1-5.1-3.2l-1.6-1.3c-0.2-0.2-0.3-0.3-0.4-0.5c0-0.2,0.1-0.4,0.3-0.5L331.5,124.1z"/>
	<path class="st0" d="M336.8,127.7c0,0.2-0.2,0.4-0.4,0.4c-0.2,0-0.3-0.1-0.4-0.3c-0.1-0.5,0.2-0.7,0.5-1l1.1-1.1
		c1-0.7,1.9-1.3,2.7-1.4c0.1,0,0.3,0.1,0.3,0.2s-0.1,0.2-0.2,0.3c-0.5,0.2-1.4,0.9-2.2,1.6l-1.2,1L336.8,127.7L336.8,127.7
		L336.8,127.7z"/>
	<path class="st0" d="M336.3,127.5c0.1-0.2,0.3-0.3,0.5-0.3c0.2,0.1,0.3,0.3,0.3,0.5l0,0c0,0.1,0.1,1.1,0.4,2
		c0.4,0.9,0.9,1.6,1.4,1.5c0.1,0,0.3,0.1,0.3,0.2c0,0.1-0.1,0.3-0.2,0.3c-0.9,0.1-1.6-0.8-2.1-1.8
		C336.4,129.1,336.1,128.2,336.3,127.5"/>
	<path class="st0" d="M323.3,153.9c0,0.2-0.1,0.4-0.3,0.4c-0.2,0-0.4-0.1-0.4-0.3v-0.5c0-0.2,0.2-0.3,0.4-0.4c0.6-0.2,1,0.2,1.5,0.7
		s1.1,1.1,1.7,1.8c0.6,0.8,1.1,1.8,1.6,2.7l2.5,4.9l0.7,1.2l0.1,0.1H331c0.1,0-0.3,0.1-0.2,0.1l0,0c0.1-0.2,0.2-0.2,0.4-0.2
		c0.1,0,0.2,0.2,0.2,0.3c0,0.2-0.2,0.4-0.4,0.4c-0.4,0-0.5-0.3-0.8-0.6l-1.4-2.3l-1.9-3.4c-0.5-0.9-1-1.9-1.5-2.6
		c-0.7-1-1.3-1.7-1.8-2.1L323.3,153.9L323.3,153.9L323.3,153.9L323.3,153.9L323.3,153.9L323.3,153.9z"/>
	<path class="st0" d="M328,158.4c0.2,0.1,0.3,0.3,0.2,0.5c-0.1,0.2-0.3,0.3-0.5,0.2c-0.3-0.1-0.5-0.5-0.4-0.8c0.1-0.5,0.5-0.9,1-1.4
		c0.8-0.8,1.8-1.6,2.8-2.2c1-0.6,1.9-1.1,2.6-1.1c0.2,0,0.3,0.2,0.3,0.4s-0.2,0.3-0.4,0.3c-0.5,0-2.2,0.9-3.6,2.1
		c-0.7,0.6-1.3,1.1-1.7,1.6L328,158.4L328,158.4z"/>
	<path class="st0" d="M331.8,154.8c0.2-0.1,0.4,0,0.5,0.2s0,0.4-0.1,0.5c0,0-0.2,0.6-0.3,1.3c0,0.8,0,1.7,0.3,2.3
		c0.2,0.5,0.5,0.8,0.8,0.9h0.1c0.2,0.1,0.4,0.1,0.8,0c0.1-0.1,0.3,0,0.3,0.2c0,0.1,0,0.2-0.1,0.3c-0.4,0.3-0.8,0.5-1.3,0.5h-0.1
		c-0.8-0.2-1.2-0.8-1.4-1.5c-0.3-0.8-0.3-1.8-0.3-2.7C331.1,155.9,331.2,155.1,331.8,154.8"/>
	<path class="st0" d="M328.1,139.2c-0.1-0.2,0.1-0.4,0.3-0.5c0.2-0.1,0.4,0,0.5,0.2c0.1,0.3,2.4,2.5,4.7,4.2c1.3,1,2.5,1.8,3.2,2
		c0.1,0,0.2,0.2,0.2,0.3s-0.1,0.2-0.3,0.2c-1,0-2.3-0.8-3.7-1.8c-1.2-0.9-2.3-1.9-3.2-2.8l-1.1-1.1
		C328.4,139.6,328.2,139.5,328.1,139.2"/>
	<path class="st0" d="M334.9,144.4c-0.1,0.2-0.3,0.3-0.5,0.3c-0.2-0.1-0.3-0.3-0.3-0.5c0.2-0.7,0.8-1.3,1.4-1.8s1.2-0.9,1.7-0.6
		c0.2,0.1,0.2,0.3,0.1,0.4c-0.1,0.1-0.3,0.2-0.4,0.1c0,0-0.5,0.1-1,0.5C335.5,143.4,335.1,144,334.9,144.4"/>
	<path class="st0" d="M335.4,143.7c0.1-0.2,0.3-0.2,0.5-0.1c0.2,0.1,0.2,0.3,0.1,0.5l0,0c-0.6,0.8-0.1,2.8,1.7,3.6
		c0.1,0.1,0.2,0.2,0.1,0.4c-0.1,0.1-0.2,0.2-0.4,0.1C335.5,147.4,334.6,145.1,335.4,143.7"/>
	<path class="st0" d="M312.4,164.8c0.1-0.2,0.3-0.2,0.5-0.1c0.2,0.1,0.2,0.3,0.1,0.5c0,0,0,0-0.1,0.1s0.1-0.1,0.1-0.1
		c-0.1,0.4,0.8,4.2,1.5,6.3c0,0.1,0,0.3-0.2,0.3c-0.1,0-0.3,0-0.3-0.2l-1.2-3.9l-0.4-1.8l-0.1-0.6
		C312.3,165.2,312.3,165.1,312.4,164.8"/>
	<path class="st0" d="M314,168.5c-0.1,0.2-0.4,0.2-0.5,0.1c-0.2-0.1-0.2-0.4-0.1-0.5l0,0l0.2-0.3c0,0,0.1-0.2,0.4-0.1
		c0.2,0,0.3,0.2,0.3,0.3c0,0.3,0,0.2-0.1,0.3l-0.8,1.5l-2.1,3.6l-1,1.5c-0.3,0.4-0.6,0.7-0.9,0.8c-0.1,0-0.3,0-0.3-0.2
		c0-0.1,0-0.3,0.2-0.3c0.4-0.2,1.8-2.3,2.8-4.3l1.3-2.5l0.2-0.4c0,0,0,0.2,0,0.1c0-0.1,0.4,0.3,0.3,0.3s0.3-0.1,0.3,0
		c-0.1,0,0.1-0.1,0.1-0.1L314,168.5z"/>
	<path class="st0" d="M314,169.5c-0.1-0.2,0.1-0.4,0.3-0.5c0.2-0.1,0.4,0.1,0.5,0.3l0,0c0.3,1.5,1,2.5,1.8,3.7
		c0.1,0.1,0.1,0.3-0.1,0.4c-0.1,0.1-0.3,0.1-0.4-0.1C315.3,172.1,314.5,171,314,169.5"/>
	<path class="st0" d="M303.3,169.9c0.1-0.2,0.3-0.3,0.5-0.2s0.3,0.3,0.2,0.5l0,0c-0.2,0.5-0.2,2.5,0.1,4.5c0.2,2,0.6,3.9,0.8,4.2
		c0.1,0.1,0,0.3-0.1,0.4c-0.1,0.1-0.3,0-0.4-0.1c-0.2-0.3-0.3-0.9-0.5-1.6c-0.3-1.2-0.5-2.8-0.7-4.3
		C303.1,171.8,303,170.6,303.3,169.9"/>
	<path class="st0" d="M305.2,174.9c-0.2,0-0.4-0.1-0.5-0.3c0-0.2,0.1-0.4,0.3-0.5l0,0c0.6-0.1,1.1,0.3,1.8,0.7
		c1,0.7,2.1,1.6,2.8,2.3l0.8,0.7l0,0c0,0-0.2-0.1-0.1,0c0.1,0-0.4,0.4-0.4,0.3c0-0.1,0,0.1,0,0.1l-0.1-0.2c-0.1-0.1-0.1-0.3,0-0.4
		c0.1-0.1,0.3-0.1,0.4,0l0.2,0.2v0.1l0,0c0,0,0.1,0.2,0,0.3s-0.2,0.1-0.3,0.1c-0.2-0.1-0.2-0.1-0.4-0.2l-2.5-2
		C306.5,175.4,305.4,174.9,305.2,174.9"/>
	<path class="st0" d="M303.9,174.8c0.2-0.1,0.4,0.1,0.5,0.3s-0.1,0.4-0.3,0.5l0,0c-0.1,0-0.8,0.8-1.2,1.7c-0.4,1-0.6,2-0.4,2.4
		c0.1,0.1,0,0.3-0.1,0.4c-0.1,0.1-0.3,0-0.4-0.1c-0.4-0.7-0.1-1.9,0.3-2.9C302.7,176,303.1,175,303.9,174.8"/>
	<path class="st0" d="M285.4,173.3c0.1,0.2,0.1,0.4-0.1,0.5s-0.4,0.1-0.5,0c0,0,0.2,0,0.1,0c-0.4,0.4-1,2-1.5,3.8
		c-0.8,2.3-1.4,4.6-1.8,5.8c0,0.1-0.2,0.2-0.3,0.2c-0.1,0-0.2-0.2-0.2-0.3c0.2-1.2,0.8-3.6,1.4-6c0.4-1.3,0.8-2.4,1.2-3.2
		c0.2-0.4,0.4-0.7,0.6-0.9C284.6,173,285.1,173,285.4,173.3"/>
	<path class="st0" d="M284.1,177.5c-0.1,0.2-0.3,0.3-0.5,0.3c-0.2-0.1-0.3-0.2-0.3-0.4l0.1-0.3c0.1-0.1,0.2-0.2,0.4-0.2
		c0.3,0,0.4,0.2,0.4,0.3c0.2,0.3,0.4,0.7,0.5,1.2l1.1,4l0.5,1.3l0.1,0.1h-0.1l0,0c0.1-0.1,0.2-0.2,0.4-0.1c0.1,0.1,0.2,0.2,0.1,0.3
		c-0.1,0.2-0.3,0.4-0.5,0.3c-0.4-0.1-0.5-0.4-0.7-0.8c-0.6-1.3-1.1-3.4-1.7-4.9l-0.3-1v-0.1l0,0c0,0,0.3,0.1,0.2,0.1
		c-0.1,0,0.2-0.1,0.2,0C284,177.7,284.2,177.5,284.1,177.5"/>
	<path class="st0" d="M285.6,181.4c0.2,0,0.4,0.2,0.3,0.4c0,0.2-0.2,0.4-0.4,0.3l0,0c-0.3-0.1-0.6,0.1-1,0.8s-0.8,1.7-1.3,3
		c-0.1,0.1-0.2,0.2-0.4,0.1c-0.1-0.1-0.2-0.2-0.1-0.3c0.5-1.2,0.8-2.3,1.2-3.1C284.3,181.9,284.8,181.3,285.6,181.4"/>
	<path class="st0" d="M262.3,194.3c0.1-0.2,0.3-0.3,0.5-0.2s0.3,0.3,0.2,0.5l0,0c-0.4,0.8-0.4,2.2-1.2,3.9c-0.1,0.1-0.2,0.2-0.4,0.1
		c-0.1-0.1-0.2-0.2-0.1-0.4C262,196.7,261.7,195.4,262.3,194.3"/>
	<path class="st0" d="M267,204c0-0.2,0.3-0.3,0.5-0.3s0.3,0.2,0.3,0.4c-0.2,0.9,0.3,2.7,1.1,4.3c0.5,1.2,1.2,2.3,2,2.7
		c0.1,0.1,0.2,0.2,0.1,0.4c-0.1,0.1-0.2,0.2-0.3,0.1c-1-0.4-1.9-1.5-2.6-2.7C267.2,207.1,266.7,205.2,267,204"/>
	<path class="st0" d="M252.4,160.3l0.1,0.1c0.2,0.3,0,0.4,0,0.5s0,0.1-0.1,0.2l-1.3,2.2c-1.2,2.1-2,4.4-2,4.4c0,0.1-0.1,0.3-0.2,0.3
		c-0.1,0-0.2,0-0.2,0c-0.2-0.1-0.2-0.3-0.2-0.4c0-0.4,0.2-1.1,0.5-1.9l1.2-2.8l1.3-2.3c0-0.1,0.1-0.1,0.2-0.2l0.3-0.1
		C252,160.3,252.1,160.1,252.4,160.3 M252.4,161.3c-0.1,0.2-0.3,0.3-0.5,0.3c-0.2-0.1-0.3-0.3-0.3-0.5l0,0l0.2-0.5l0,0
		c0,0,0,0.2,0,0.1l0.1,0.1l0.1,0.1c-0.2,0-0.2-0.2-0.2-0.4c0-0.1,0.1-0.1,0.1-0.1c0.1-0.1,0.4,0,0.5,0.1
		C252.7,160.8,252.5,161,252.4,161.3"/>
	<path class="st0" d="M250.6,164.4c-0.2-0.1-0.2-0.3-0.1-0.5c0.1-0.2,0.3-0.2,0.5-0.1l0,0c0.5,0.3,0.7,1,1.2,1.9l2.4,4.9l1.1,2
		l0.4,0.5l0.1,0.1l0,0c0.1,0,0.3,0.1,0.3,0.2c0,0.1-0.1,0.3-0.2,0.3c-0.3,0.1-0.6-0.1-0.8-0.4c-0.8-0.9-1.8-3-2.8-5
		C251.7,166.3,250.7,164.5,250.6,164.4"/>
	<path class="st0" d="M250.8,166.4c0.2-0.1,0.4-0.1,0.5,0.1c0.1,0.2,0.1,0.4-0.1,0.5c0,0,0,0-0.1,0c-0.1,0.1-1.5,3.7-2.1,5.2
		c-0.1,0.1-0.2,0.2-0.4,0.1c-0.1-0.1-0.2-0.2-0.2-0.3l1.1-3.2l0.6-1.6C250.5,166.9,250.5,166.7,250.8,166.4"/>
	<path class="st0" d="M243.8,155.5c-0.1,0.2-0.3,0.3-0.5,0.3c-0.2-0.1-0.3-0.2-0.3-0.4c0.1-0.6,0.5-1,1-1.4l1.5-0.9l0.4-0.3
		c0.1-0.1,0.2-0.2,0.3-0.2h0.2c0.1,0,0.2,0,0.3,0.1l0.1,0.5c0,0.1-0.1,0.3-0.1,0.3L246,154l-1.5,0.8
		C244.2,155,243.9,155.3,243.8,155.5"/>
	<path class="st0" d="M244.2,152.4c-0.1-0.2,0-0.4,0.2-0.5s0.4,0,0.5,0.2v0.1c0,0.1,0,0.2-0.2,0.4l-0.2,0.1l0.1-0.1l0.1-0.1v0.2
		c0,0.1-0.2,0.3-0.3,0.2c-0.1,0-0.2-0.1-0.2-0.3L244.2,152.4L244.2,152.4L244.2,152.4z"/>
	<path class="st0" d="M245,152.6c0.2,0,0.4,0.2,0.4,0.4s-0.1,0.4-0.3,0.4c-0.6,0.1-0.7,0.3-0.9,0.6l-1,1.2l0,0v-0.1V155v-0.1
		c0,0.1-0.1-0.2-0.1-0.2c0,0.1-0.2-0.2-0.2-0.2c0.1,0-0.2-0.1-0.2-0.1c0.1,0-0.2,0-0.2,0h-0.1l0.6-0.5l1.5-1
		c0.1-0.1,0.3-0.1,0.4,0.1c0.1,0.1,0.1,0.3,0,0.4l-1.3,1.3l-0.8,0.6l-0.1,0.1c-0.1,0-0.2,0.1-0.4,0c-0.3-0.2-0.2-0.4-0.2-0.5
		l0.2-0.3l0.9-1.1C243.6,153.1,244.1,152.6,245,152.6"/>
	<path class="st0" d="M238.6,145.9c-0.2-0.1-0.2-0.4-0.1-0.5l0.1-0.1l0.2-0.1c0.1,0,0.2-0.1,0.3-0.1h2.2h1.3h0.1l1.3,0.4
		c0.1,0.1,0.2,0.2,0.2,0.4c0,0.1-0.1,0.2-0.2,0.2l-1.3,0.2h-0.1l-1.3-0.1l-2.2-0.1c-0.1,0-0.2,0-0.3-0.1L238.6,145.9z"/>
	<path class="st0" d="M239.1,135.1c0.1,0.2,0.1,0.4,0,0.5s-0.3,0.1-0.4,0.1c-0.3-0.1-2.3,0-4.6,0.1l-3-0.1l-2.5-0.3l-1.2-0.2
		l-0.6-0.1c-0.2,0-0.3-0.1-0.4-0.2c-0.1-0.1-0.2-0.2-0.2-0.4c0,0,0,0,0-0.1c0-0.3,0.2-0.3,0.3-0.5c0.1-0.1,0.3-0.2,0.4-0.2h0.6
		l1.2,0.1l2.5,0.3l2.9,0.1l3.1,0.1C238,134.7,238.7,134.7,239.1,135.1"/>
	<path class="st0" d="M235.6,136.2c0.2,0.1,0.3,0.3,0.3,0.5s-0.2,0.3-0.3,0.3l-0.5,0.2c-0.6,0.4-1.3,1.1-1.8,1.8
		c-0.7,0.8-1.3,1.6-1.3,1.9c0,0.2-0.1,0.3-0.3,0.3c-0.1,0-0.2-0.1-0.2-0.2c-0.3-0.7,0.2-1.6,0.9-2.6c0.7-0.9,1.4-1.6,2.2-2
		C234.9,136.2,235.2,136.1,235.6,136.2"/>
	<path class="st0" d="M210.1,120.7c0.2,0.1,0.3,0.3,0.2,0.5s-0.3,0.3-0.5,0.2c-0.7-0.2-1.2-0.4-2-0.5c-1.1-0.1-2.7,0.4-4.2,0.8
		l-1.8,0.4c-0.1,0-0.1,0-0.2,0l-0.5-0.2c-0.1-0.1-0.2-0.3-0.1-0.4l0.1-0.1l0.4-0.2c0.1,0,0.1,0,0.2,0l1.7-0.3
		c1.5-0.4,3.2-0.9,4.5-0.8C208.9,120.1,209.5,120.4,210.1,120.7"/>
	<path class="st0" d="M208.8,109.2c0.1-0.2,0.4-0.2,0.5,0c0.1,0.1,0.2,0.3,0.1,0.5c-0.2,0.3-0.6,0.4-0.9,0.4l-1-0.3
		c-0.9-0.4-1.9-1.1-2.9-1.9l-2.1-2L202,105c-0.1-0.2-0.3-0.5,0-0.8c0.1-0.1,0.3-0.1,0.4,0c0.1,0.1,0.1,0.2,0,0.2v-0.1
		c0.1,0.2,1.4,1.4,2.9,2.5c0.9,0.8,1.9,1.5,2.6,1.9L208.8,109.2L208.8,109.2L208.8,109.2z"/>
	<path class="st0" d="M206.2,106.5c-0.1,0.2-0.3,0.3-0.5,0.3c-0.2-0.1-0.3-0.2-0.3-0.4c0-0.2-0.2-0.4-0.5-0.8
		c-0.5-0.7-1-1.6-0.6-2.6c0.1-0.1,0.2-0.2,0.4-0.2c0.1,0,0.2,0.2,0.2,0.3c-0.2,0.8,0.3,1.3,0.8,1.8
		C206,105.4,206.4,105.9,206.2,106.5"/>
	<path class="st0" d="M232.2,127.1c-0.2,0.2-0.5,0.2-0.7,0s-0.2-0.5,0-0.7s0.5-0.2,0.7,0c0.1,0.1,0.2,0.3,0.2,0.4s0-0.1,0-0.1
		l0.1,0.3c0,0.1,0,0.3-0.2,0.3c-0.1,0-0.2,0-0.3-0.1l-0.1-0.1h0.1L232.2,127.1L232.2,127.1C232.1,127.2,232.3,127.1,232.2,127.1
		 M234.9,133.6l-0.1,0.1c-0.3,0.2-0.4,0.1-0.5,0.1s-0.2-0.1-0.3-0.2l-1.1-1.6l-0.9-1.9l-0.6-1.9c-0.1-0.6-0.3-1-0.2-1.4
		c0-0.1,0.1-0.2,0.2-0.3c0.1-0.1,0.2-0.2,0.5-0.2c0.1,0,0.2,0,0.3,0.1l0.2,0.2c0.1,0.1,0.1,0.2,0.1,0.4l0.2,0.9l0.6,1.8l0.8,1.8
		l0.9,1.5c0.1,0.1,0.1,0.2,0.1,0.4C235.1,133.3,235.1,133.4,234.9,133.6 M234.6,133.5c-0.2-0.1-0.2-0.3-0.1-0.5
		c0.1-0.2,0.3-0.2,0.5-0.1c0.2,0.1,0.2,0.3,0.1,0.5c0,0,0,0.1-0.1,0.1l0.1-0.1c0,0-0.1,0.2-0.3,0.2c-0.2,0.1-0.3,0-0.4-0.2
		c-0.1-0.1,0-0.3,0.1-0.3l0,0l0,0v0.1v0.1L234.6,133.5L234.6,133.5z M235.1,133.5c0,0.2-0.2,0.4-0.4,0.3c-0.2,0-0.4-0.2-0.3-0.4l0,0
		l0.1-0.2l0.1-0.1c0,0,0-0.2,0.3-0.2c0.2,0,0.3,0.1,0.3,0.3v0.2L235.1,133.5z"/>
	<path class="st0" d="M232.4,130.6c-0.2,0-0.4-0.1-0.5-0.3c0-0.1,0-0.3,0.1-0.4l0,0l-0.1,0.1v0.2l0.1,0.2l0.1,0.1h0.1
		c-0.1,0-1-0.1-2.2-0.1c-0.9,0-2,0-2.9,0.1c-1.4,0.1-2.4,0.5-3.2,0.9c-0.7,0.4-1.2,0.9-1.8,0.8c-0.1,0-0.2-0.2-0.2-0.3
		s0.1-0.2,0.2-0.2l1.3-1.1c0.8-0.6,1.9-1.2,3.5-1.4c1-0.1,2.1-0.1,3.1,0l2,0.3l0.6,0.3c0.1,0.1,0.3,0.2,0.2,0.5
		C232.7,130.6,232.5,130.6,232.4,130.6"/>
	<path class="st1" d="M328.7,128c0-8.1-2.2-15.8-6-22.3c-7.7-13.2-22-22-38.3-22c-8.1,0-15.8,2.2-22.3,6c-13.2,7.7-22,22-22,38.3
		c0,8.1,2.2,15.8,6,22.3c7.7,13.2,22,22,38.3,22c8.1,0,15.8-2.2,22.3-6C319.9,158.6,328.7,144.3,328.7,128 M330.8,128
		c0,17.1-9.2,32-23,40.1c-6.9,4-14.8,6.3-23.4,6.3c-17.1,0-32-9.2-40.1-23c-4-6.9-6.3-14.8-6.3-23.4c0-17.1,9.2-32,23-40.1
		c6.9-4,14.8-6.3,23.4-6.3c17.1,0,32,9.2,40.1,23C328.5,111.5,330.8,119.4,330.8,128"/>
</g>
<g>
	<path class="st0" d="M600.8,126.3c-0.1-0.2,0-0.5,0.2-0.6c0.1-0.1,0.3-0.1,0.4,0h-0.1l0,0l1.6-0.4l2.9-1l14.9-5
		c3.1-1,5.7-1.8,7.5-2.3c0.8-0.2,1.3-0.4,1.7-0.3l0.3,0.1c0.1,0.1,0.1,0.4,0,0.5c-0.2,0.3-0.2,0.2-0.4,0.3l-0.6,0.3
		c-0.2,0.1-0.4,0-0.4-0.2c-0.1-0.2,0-0.3,0.2-0.4l0.6-0.3l0,0c0,0-0.1,0.2-0.1,0.1v0.2c0-0.1,0.2,0.3,0.1,0.2
		c-0.1-0.1,0.2,0.1,0.2,0.1c-0.1,0,0.1,0,0.1,0l-2.7,0.8l-6,2.1l-14.9,5l-2.9,1l-1.5,0.3h-0.4C601.2,126.6,601,126.6,600.8,126.3"/>
	<path class="st0" d="M610.7,122.9c0,0.3-0.2,0.5-0.4,0.5s-0.5-0.2-0.5-0.4c-0.1-1,0.4-2,1.3-3.1l1.7-2.2l2.9-3.3
		c1.1-1.3,2.2-2.8,3.3-4.2l4-5.4l2-2.5l0.3-0.2l0.2-0.1c0.1,0,0.3,0,0.5,0.2c0.1,0.2,0,0.3,0,0.3l-0.3,0.5c-0.1,0.2-0.3,0.2-0.4,0.1
		c-0.1-0.1-0.2-0.3-0.1-0.4l0.1-0.3l0,0c0,0,0,0.2,0,0.1c0,0,0.2,0.2,0.1,0.2l0.2,0.1c-0.1,0,0.3,0,0.2,0l0.1-0.1
		c-0.1,0.1,0-0.1,0-0.1l-0.5,0.8l-1.4,2l-4,5.5c-1.1,1.5-2.2,3-3.4,4.3l-2.9,3.2l-1.7,2.2C611.1,121.6,610.7,122.2,610.7,122.9"/>
	<path class="st0" d="M622.7,119.9c0.2,0.2,0.2,0.5,0.1,0.7c-0.2,0.2-0.5,0.2-0.7,0.1l0,0l-0.1-0.1c0,0,0.9-0.2,0.5,0
		C622.1,120.8,622.6,119.9,622.7,119.9L622.7,119.9l1.2,1.4c2.4,2.6,6.5,6.9,8.7,10.5c0.1,0.2,0,0.4-0.1,0.4c-0.2,0.1-0.4,0-0.4-0.1
		c-1.6-2.5-4.3-5.6-6.7-8.1l-2.8-2.9l-0.6-0.7l-0.1-0.1l-0.1-0.1c0-0.1,0.1-0.5,0.3-0.6c0.3-0.1,0.3,0,0.4,0L622.7,119.9z"/>
	<path class="st0" d="M628.8,122.1c-0.2-0.2-0.2-0.5,0-0.7s0.5-0.2,0.7,0c0.1,0,0.1,0.1,0.1,0.2c0.1,0.2-0.2-0.2-0.1-0.2
		c0.1,0.1,2.8,1,5.9,1.8c3.2,0.8,6.7,1.5,9,1.3c0.2,0,0.3,0.1,0.4,0.3c0,0.2-0.1,0.3-0.3,0.4c-2.5,0.3-6.1-0.4-9.4-1.2l-4.2-1.1
		l-1.3-0.4l-0.4-0.1C629,122.2,629,122.3,628.8,122.1"/>
	<path class="st0" d="M626.5,115c0.2-0.2,0.5-0.2,0.7,0s0.2,0.4,0.1,0.6l0,0l0,0c0,0,0.1-0.3,0-0.2c0,0.1-0.8-0.5-0.5-0.5
		C626.9,114.9,626.5,115,626.5,115l2-1.9l4.3-4c1.6-1.3,3.2-2.5,4.6-3.3c0.2-0.1,0.4,0,0.4,0.1c0.1,0.1,0,0.3-0.1,0.4
		c-1.3,0.9-2.8,2.2-4.2,3.5c-1.8,1.5-3.4,3.1-4.7,4.2l-1.4,1.3l-0.3,0.3l-0.1,0.1h-0.2c-0.1,0-0.4-0.1-0.5-0.4
		c-0.1-0.4,0.1-0.4,0.1-0.4L626.5,115z"/>
	<path class="st0" d="M608.3,85.4c-0.2-0.1-0.4-0.3-0.3-0.6c0.1-0.2,0.3-0.4,0.6-0.3c0.8,0.2,1.5,1.1,2.3,2.1l2.9,3.9
		c1.7,2.4,3.5,4.7,5.5,5.9c0.2,0.1,0.2,0.3,0.1,0.4c-0.1,0.1-0.3,0.2-0.4,0.1c-2.3-1.2-4.3-3.5-6.1-5.8
		C610.8,88.3,609.1,85.7,608.3,85.4"/>
	<path class="st0" d="M614.7,91.5c-0.3,0-0.5-0.2-0.5-0.4c0-0.2,0.2-0.5,0.4-0.5c0.4,0,1.6-0.9,3.5-2.3l4.7-3.1
		c2.2-1.5,4.6-3.2,6.6-4.6l2.8-2.1c0.3-0.2,0.5-0.4,0.9-0.4c0.1,0,0.3,0.1,0.4,0.2c0.2,0.4,0,0.5-0.1,0.7s-0.3,0.2-0.4,0.1
		c-0.1-0.1-0.2-0.3-0.1-0.4l0.1-0.2v0.1l0.1,0.1l0.1,0.1c-0.1,0,0.2,0,0.2,0l-3.2,2.5c-2,1.5-4.3,3.2-6.5,4.8l-4.7,3.1l-2.4,1.6
		C615.7,91.2,615.2,91.5,614.7,91.5"/>
	<path class="st0" d="M621.3,89.8c-0.2,0.1-0.5,0-0.6-0.3c-0.1-0.2,0-0.5,0.3-0.6l0,0c0.4-0.1,0.9,0,1.2,0.2L623,90
		c0.8,0.9,2.1,2,3.7,2.9c1.7,1,3.6,1.7,5.5,1.8c0.2,0,0.3,0.2,0.3,0.3c0,0.2-0.2,0.3-0.3,0.3c-2.1-0.1-4.1-0.9-5.9-1.8
		c-1.7-1-3.1-2.1-4-3l-0.8-0.8C621.5,89.7,621.4,89.7,621.3,89.8"/>
	<path class="st0" d="M626.7,82.5c0.1,0.2,0.1,0.5-0.2,0.6c-0.2,0.1-0.5,0.1-0.6-0.2c-0.4-0.6-0.5-1.1-0.6-1.8c0-0.4-0.1-1,0-1.7
		c0.2-1.8,1-4.1,2-6.2c1-2,2.2-3.8,3.6-4.5c0.2-0.1,0.4,0,0.4,0.1c0.1,0.2,0,0.3-0.1,0.4c-2.2,1.3-4.7,6.8-5,10.2v1.7
		C626.3,81.7,626.4,82,626.7,82.5"/>
	<path class="st0" d="M607.7,76.7c0.2,0.2,0.1,0.5-0.1,0.7c-0.2,0.2-0.5,0.1-0.7-0.1l0,0c-0.6-0.7-1-1.9-1.9-3.4
		c-0.8-1.4-2.3-3-3.5-5.3c-2.3-4.4-3.3-10.3-1.9-14.5c0.1-0.2,0.2-0.3,0.4-0.2s0.3,0.2,0.2,0.4c-1.3,3.9-0.2,9.7,2.1,13.9
		c1.1,2.2,2.6,3.8,3.4,5.3C606.7,75,607.2,76.2,607.7,76.7"/>
	<path class="st0" d="M603.2,65.5c0.2-0.1,0.5-0.1,0.6,0.2c0.1,0.2,0.1,0.4-0.1,0.6l-0.1,0.1c-0.1,0-0.3,0.2-0.6-0.1
		c-0.2-0.2-0.2-0.4-0.2-0.4c0.1-0.4,0.2-0.5,0.4-0.8l1-1.2c1.5-1.8,3.8-4.4,6.4-7.2l5.2-5.6c1.5-1.7,2.8-3.2,3.6-4.3
		c0.1-0.2,0.3-0.2,0.5-0.1c0.1,0.1,0.2,0.3,0.1,0.4c-0.7,1.2-1.9,2.8-3.4,4.6l-5,5.9c-2.6,2.8-5,5.4-6.4,7.1l-1.2,1.4l-0.2,0.2l0,0
		v-0.1v-0.1V66l-0.1-0.2c0.1,0.1-0.3-0.2-0.2-0.2h-0.2L603.2,65.5C603.3,65.5,603.2,65.5,603.2,65.5"/>
	<path class="st0" d="M618.2,73c0,0.3-0.2,0.5-0.5,0.4c-0.3,0-0.5-0.2-0.4-0.5c0-0.8-0.2-1.5,0-2.8c0.1-0.9,0.3-1.8,0.6-3l1.3-5.7
		c0.7-2.4,1.4-4.7,2.1-6.6c0.7-1.9,1.4-3.5,2.3-4.7c0.1-0.1,0.3-0.2,0.5-0.1c0.1,0.1,0.2,0.3,0.1,0.4c-0.7,1.2-1.4,2.8-2,4.6
		c-0.6,1.9-1.2,4.2-1.8,6.6l-1.4,5.7c-0.3,1.2-0.6,2.1-0.6,2.9C618,71.3,618.2,72.1,618.2,73"/>
	<path class="st0" d="M621.3,66.4c0,0.3-0.3,0.4-0.5,0.4s-0.4-0.3-0.4-0.5c0.1-0.4,0-0.9,0.3-1.6c0.3-0.8,1-1.8,2-3.1
		c1-1.1,2.2-2.4,3.5-3.6c4.4-4.1,9.5-8.2,12.6-11.4c0.1-0.1,0.3-0.1,0.5,0c0.1,0.1,0.1,0.3,0,0.5c-3,3.4-8,7.7-12.2,11.8
		c-1.3,1.3-2.6,2.5-3.5,3.5c-1,1.2-1.7,2.1-2,2.7C621.4,65.5,621.4,65.8,621.3,66.4"/>
	<path class="st0" d="M623.1,66.5c-0.2,0.1-0.5,0.1-0.6-0.1s-0.1-0.5,0.1-0.6c0.2-0.1,0.6,0,0.7,0.1c0.3,0.3,0.2,0.6,0.3,0.8
		c0.1,0.3,0.7,0.7,1.8,0.7c1.2,0.1,2.8-0.3,4.7-1.3c0.2-0.1,0.4,0,0.4,0.1c0.1,0.2,0,0.4-0.1,0.4c-3.9,2.1-6.9,1.9-7.7,0.4l-0.2-0.6
		l0,0l0,0l0.1,0.1c-0.1,0,0.4,0.1,0.3,0.1C622.7,66.5,623.1,66.4,623.1,66.5"/>
	<path class="st0" d="M630,84c0.2,0.1,0.3,0.4,0.2,0.6s-0.4,0.3-0.6,0.2l0,0l-0.2-0.1l0,0h0.1c-0.1,0,0.3-0.2,0.2-0.1
		s0.2-0.4,0.2-0.3S629.9,84.1,630,84L630,84c0,0.2,1.4,1.2,3.5,2.1c2.3,0.9,5.5,1.6,9.3,1.4c0.2,0,0.3,0.1,0.3,0.3
		c0,0.2-0.1,0.3-0.3,0.3c-2.4,0.2-4.6,0-6.4-0.4c-2.7-0.6-4.7-1.5-6-2.3l-1.2-0.9l-0.2-0.2c0-0.1,0.1-0.5,0.3-0.6
		C629.7,83.7,629.8,83.9,630,84"/>
	<path class="st0" d="M588.9,78.2c0.3,0,0.5,0.2,0.4,0.5c0,0.2-0.2,0.4-0.4,0.4s-0.5-0.1-0.6-0.3c-0.4-0.7,0-1.4,0.4-2.4l1.4-3.8
		c1-2.9,2-6.3,2.7-9.1c0.5-2.1,0.9-3.7,0.8-4.4V59l0,0l0.2,0.1h0.1c0,0-0.5,0.5-1.1,1.5c-0.1,0.2-0.3,0.2-0.4,0.1
		c-0.1-0.1-0.2-0.3-0.1-0.4c0.5-0.9,0.8-1.5,1.1-1.8c0.1-0.1,0.3-0.2,0.5-0.2c0.5,0,0.6,0.5,0.7,0.8c0.2,1-0.1,2.7-0.5,4.8
		c-0.7,2.9-1.8,6.4-2.8,9.3l-1.7,4.2l-0.4,1.1v0.1l-0.1-0.1L588.9,78.2z"/>
	<path class="st0" d="M592.6,75.6c0-0.3,0.3-0.4,0.5-0.4c0.3,0,0.4,0.3,0.4,0.5v0.1c0,0.1-0.1,0.3-0.3,0.4c-0.3,0.2-0.5,0-0.6,0
		c0,0,0.2,0,0.1,0c-0.1,0,0.4-0.1,0.3-0.1c-0.2,0.1-0.4,0.1-0.6-0.1c-0.1-0.1-0.1-0.2-0.1-0.3c0-0.2,0.3-0.3,0.4-0.3h0.1h-0.1
		C592.9,75.4,592.6,75.6,592.6,75.6L592.6,75.6z"/>
	<path class="st0" d="M591.2,75.9c0.2-0.1,0.5-0.1,0.6,0.1s0.1,0.5-0.1,0.6c-0.3,0.2-0.6,0.4-0.9,0.3c-0.5-0.1-0.7-0.7-0.7-1.1
		c0-0.5,0.1-1,0.3-1.5c0.7-1.5,2.4-2.5,3.8-3.8c1.8-1.5,3.4-3.3,3.5-3.6c0-0.2,0.2-0.4,0.4-0.3c0.2,0,0.3,0.1,0.3,0.3
		c0.1,0.7-0.4,1.3-1,2.1c-0.6,0.8-1.5,1.7-2.3,2.5c-1.6,1.4-3.2,2.4-3.7,3.4C591.1,75.3,591.1,75.8,591.2,75.9L591.2,75.9L591,76
		L591.2,75.9z"/>
	<path class="st0" d="M593.2,67.1c0,0.3-0.2,0.5-0.4,0.5s-0.5-0.2-0.5-0.4c-0.1-0.9-0.5-1.6-1.7-2.6l-3.3-2.3l-2.9-2.1
		c-0.8-0.8-1.5-1.6-1.7-2.2c-0.1-0.2,0-0.4,0.2-0.4c0.1,0,0.3,0,0.4,0.1c0.4,0.4,1.1,0.9,1.9,1.5l2.9,2.2l3.2,2.5
		C592.4,64.9,593.1,65.9,593.2,67.1"/>
	<path class="st0" d="M581.7,72.5c0.1,0.2,0.1,0.5-0.1,0.6c-0.2,0.1-0.5,0.1-0.6-0.1c-0.3-0.5-1.2-1-2.2-2.2
		c-0.6-0.7-1.2-1.5-1.8-2.5c-0.9-1.4-1.7-3.1-2.7-4.9c-1.2-2.1-3-4.2-4.6-6.3c-1-1.3-2.1-2.5-2.9-3.8c-1.4-2.3-1.5-4.8-1.1-6.6
		c0.2-0.9,0.6-1.6,1.2-2.1c0.5-0.5,1.3-0.6,1.8-0.2c0.2,0.1,0.2,0.3,0.1,0.4c-0.1,0.1-0.3,0.2-0.4,0.1c-0.4-0.2-0.7-0.1-1,0.2
		c-0.5,0.5-0.9,1.7-1,3c0,1.4,0.3,3,1.3,4.5c0.7,1.2,1.9,2.3,2.9,3.7c1.6,2,3.4,4.1,4.7,6.4c1,1.9,1.8,3.6,2.5,5
		c0.6,1,1.1,1.9,1.6,2.5C580.4,71.4,581.2,71.8,581.7,72.5"/>
	<path class="st0" d="M572.1,60.5c0.2,0.1,0.3,0.4,0.1,0.6c-0.1,0.2-0.4,0.3-0.6,0.1c-0.5-0.3-0.7-0.8-0.6-1.4
		c0.1-0.6,0.3-1.3,0.7-2.1c0.7-1.6,1.9-3.8,3-6.4c1.2-2.7,2-5.7,2.8-8.3l1-3.2l0.5-1.7V38v0.1l0.1,0.1h0.1h0.1l-0.2,0.2
		c-0.1,0.1-0.3,0.1-0.5,0c-0.1-0.1-0.1-0.3,0-0.4c0.2-0.2,0.3-0.4,0.5-0.5c0.1,0,0.3,0,0.4,0.1c0.3,0.4,0.1,0.6,0,1l-0.3,1.3
		l-0.9,3.2c-0.8,2.7-1.6,5.8-2.7,8.5c-1.1,2.6-2.4,4.8-3.1,6.4c-0.4,0.8-0.6,1.4-0.7,1.8C571.9,60.4,571.9,60.5,572.1,60.5"/>
	<path class="st0" d="M571.7,62c0,0.3-0.3,0.4-0.5,0.4c-0.3,0-0.4-0.3-0.4-0.5c0.1-0.7,0-1.3-0.7-1.9c-1.3-1-4.4-1.4-6.9-1.1
		c-2.6,0.2-3.9,1.5-3.4,3.5c0,0.2-0.1,0.4-0.2,0.4c-0.2,0-0.3-0.1-0.4-0.2c-0.4-1.2-0.2-2.3,0.5-3.2s1.9-1.4,3.4-1.6
		c2.7-0.3,6,0.1,7.6,1.5C571.7,60,571.9,61.1,571.7,62"/>
	<path class="st0" d="M576.5,64c0.2-0.1,0.5,0,0.6,0.3c0.1,0.2,0,0.5-0.3,0.6l-1.4,0.6l-10,4.7l-2.8,1.1l-0.9,0.3
		c-0.2,0.1-0.3,0.3-0.7,0c-0.1-0.1-0.2-0.3-0.1-0.5c0-0.1,0.1-0.1,0.2-0.1l1.1-0.6l2.7-1.3c3.5-1.6,7.7-3.6,10.1-4.6L576.5,64z"/>
	<path class="st0" d="M584.3,76c-0.2,0.1-0.5,0-0.6-0.3c-0.1-0.2,0-0.5,0.3-0.6h0.1h0.2c0.1,0,0.3,0.2,0.3,0.3
		c0.1,0.3-0.1,0.4-0.1,0.4l-0.3,0.3l-2.9,1.9c-2.9,1.9-7,4.5-11.1,7l-5.7,3.3c-1.6,0.9-3,1.6-3.9,1.9c-0.2,0.1-0.4,0-0.4-0.2
		c-0.1-0.2,0-0.4,0.2-0.4c0.8-0.3,2.2-1,3.8-1.9c5.2-2.9,12.3-7.5,16.7-10.5l2.4-1.6l0.5-0.4l0.1-0.1l0,0l0,0v0.1
		c0-0.1,0.3,0.6,0.1,0.5c-0.1-0.1,0.3,0.1,0.3,0.1C584.1,76.1,584.3,76,584.3,76L584.3,76z"/>
	<path class="st0" d="M572.9,81.1c-0.2-0.2-0.2-0.5,0-0.7s0.4-0.2,0.6,0l0.3,0.3c0.1,0.2,0,0.5-0.1,0.6c-0.3,0.3-0.5,0.2-0.7,0.2
		c-0.6,0-1.6-0.3-2.7-0.6c-2.1-0.6-4.7-1.5-6.8-2l-2.4-0.6h-0.3l0.1-0.2v0.1c0.1,0.2,0,0.4-0.1,0.4c-0.1,0.1-0.3,0-0.4-0.1
		c-0.2-0.2-0.3-0.6-0.1-0.9c0.3-0.4,0.8-0.4,1.4-0.3l2.1,0.3c2.2,0.6,4.8,1.5,6.8,2.1l2.3,0.7h0.3l0,0h-0.1l-0.1,0.1
		c0.1-0.1-0.2,0.3-0.1,0.3V81.1L572.9,81.1L572.9,81.1z"/>
	<path class="st0" d="M577.4,78.3c0.2-0.1,0.5,0.1,0.6,0.3c0.1,0.2-0.1,0.5-0.3,0.6l0,0l-0.2,0.2c-0.5,0.8-1,2.6-1.3,4.5
		s-0.3,3.8,0.1,4.7c0.1,0.2,0,0.4-0.2,0.4c-0.2,0.1-0.3,0-0.4-0.2c-0.7-1.3-0.5-3.7-0.1-5.9c0.2-1.1,0.4-2.1,0.7-3
		C576.5,79.1,576.7,78.5,577.4,78.3"/>
	<path class="st0" d="M591.8,84c0.2-0.1,0.5,0,0.6,0.2s0,0.5-0.2,0.6c-0.5,0.2-1.4,1-2.6,2.1l-2.5,2.3l-6.3,6.2l-2.7,2.7l-1.6,1.5
		c-0.1,0.1-0.3,0.1-0.5,0c-0.1-0.1-0.1-0.3,0-0.4l1.6-1.6l8.8-9.1l2.5-2.4C590.2,85,591.1,84.3,591.8,84"/>
	<path class="st0" d="M587,88c0.1-0.2,0.4-0.3,0.6-0.1c0.2,0.1,0.3,0.4,0.1,0.6l0,0l-0.2,0.6l-0.1,1.6c0,1.5,0.1,3.8,0.4,6.2
		c0.3,2.3,0.8,4.6,1.7,6c0.1,0.2,0,0.4-0.1,0.5c-0.2,0.1-0.3,0-0.4-0.1c-1-1.5-1.5-3.8-1.9-6.2c-0.4-2.4-0.5-4.7-0.5-6.3
		C586.6,89.2,586.7,88.5,587,88"/>
	<path class="st0" d="M587.5,87.7c-0.1,0.2-0.4,0.4-0.6,0.3c-0.2-0.1-0.3-0.3-0.3-0.6v0.2l0.1,0.1c-0.5-0.3-4.7,0.1-7.2,1.3
		c-0.7,0.3-1.3,0.6-1.6,1c-0.3,0.3-0.3,0.6-0.1,1c0.1,0.2,0,0.4-0.1,0.4c-0.1,0.1-0.3,0-0.4-0.1c-0.4-0.6-0.4-1.3,0-1.8
		c0.4-0.6,1-1,1.8-1.4c1.6-0.7,3.6-1.2,5.4-1.4c0.8-0.1,1.6-0.1,2.1,0c0.3,0,0.5,0.1,0.7,0.3C587.5,87,587.7,87.4,587.5,87.7"/>
	<path class="st0" d="M599.3,89c0.3,0,0.5,0.2,0.5,0.5s-0.2,0.5-0.4,0.5c-0.7,0-1.3-0.1-2.2,0.1c-1.4,0.4-3.3,1.8-4.7,3.2
		c-0.8,0.7-1.4,1.4-1.8,2c-0.1,0.1-0.3,0.2-0.5,0.1c-0.1-0.1-0.2-0.3-0.1-0.4c0.3-0.7,0.9-1.6,1.6-2.4c1.6-1.6,3.6-3.1,5.3-3.5
		C598,88.8,598.8,89,599.3,89"/>
	<path class="st0" d="M598.4,112c0.1,0.2-0.1,0.5-0.3,0.6s-0.4-0.1-0.5-0.3l0.1,0.1l0.1,0.1l0,0l-2.3,0.7l-2.6,0.8l-3.1,0.9
		l-4.3,1.1c-1.9,0.4-3.9,0.6-5.6,0.6c-2.8,0.1-4.9-0.3-6.1-1c-0.6-0.3-1-0.8-0.9-1.3s0.5-0.9,1.2-1.1c0.2-0.1,0.4,0,0.4,0.2
		c0.1,0.2,0,0.3-0.2,0.4c-0.9,0.4-0.9,0.6,0,1c1,0.5,3,0.8,5.6,0.7c1.7-0.1,3.6-0.3,5.4-0.7l4.3-1l3.1-0.8l2.6-0.7l1.9-0.6l0.6-0.1
		C597.9,111.5,598.3,111.6,598.4,112"/>
	<path class="st0" d="M589.1,113.6c-0.3,0-0.4-0.3-0.4-0.5V113c0-0.1,0.1,0.5,0,0.4c0-0.1,0.2,0.2,0.1,0.2h0.1l-2.6-1.3
		c-0.8-0.4-1.7-0.9-2.8-1.6c-0.9-0.6-1.9-1.5-2.9-2.4c-1.9-1.7-3.7-3.8-5-5.2l-0.9-1.1l-0.2-0.2c0,0,0.3,0.1,0.2,0
		c-0.1,0,0.4-0.1,0.3-0.1c-0.1,0.1,0.2-0.2,0.2-0.2v-0.1v0.1c0.1,0.4,0.5,1.2,1,2.4c0.1,0.2,0,0.4-0.1,0.4c-0.2,0.1-0.3,0-0.4-0.1
		l-1.1-2l-0.3-0.7v-0.4c0-0.2,0.3-0.4,0.5-0.5c0.6-0.1,0.7,0.2,1,0.4l1,0.9c1.3,1.4,3.1,3.5,4.9,5.1c1,0.9,1.9,1.7,2.7,2.3
		c1,0.7,1.8,1.2,2.6,1.7l1.8,1.1l0.5,0.3l0.2,0.1l0.1,0.2c0,0.1,0.1,0.2-0.1,0.4C589.4,113.6,589.2,113.6,589.1,113.6"/>
	<path class="st0" d="M590.2,114.3c0.2,0.2,0.3,0.4,0.1,0.6s-0.4,0.3-0.6,0.1l0,0h-0.3c-1.1,0.4-2.8,2.2-4.5,4.1
		c-1.6,1.9-2.9,3.7-3.1,4.2c-0.1,0.2-0.3,0.3-0.4,0.2c-0.2-0.1-0.2-0.2-0.2-0.4c0.1-0.5,0.6-1.2,1.3-2.1c1.1-1.5,2.5-3.3,4-4.8
		c0.7-0.7,1.4-1.3,2-1.7C589,114.2,589.6,113.9,590.2,114.3"/>
	<path class="st0" d="M595.3,114.5c0.2,0.1,0.4,0.4,0.3,0.6c-0.1,0.2-0.3,0.3-0.6,0.3c-0.9-0.3-1.1-1.3-1.8-2.3
		c-0.8-1.2-2-2.7-3.1-4.3c-0.9-1.4-1.7-2.8-1.7-4.1c0.1-0.6,0.4-1.1,0.8-1.4c0.1-0.1,0.4-0.1,0.5,0.1c0.1,0.1,0.1,0.2,0,0.4
		c-0.2,0.3-0.2,0.5-0.1,0.8c0,0.9,0.7,2.2,1.6,3.5c1,1.6,2.2,3.1,3,4.5L595.3,114.5z"/>
	<path class="st0" d="M597.5,121.3c0.3-0.1,0.5,0.1,0.6,0.4c0.1,0.2-0.1,0.5-0.3,0.5c-0.8,0.2-1.3,0.2-2.1,0.3
		c-0.9,0.1-2.4,0.3-4.7,0.7l-6.4,1.5l-7.9,1.9l-8.1,1.9l-8.2,1.8l-4.8,0.9l-1.2,0.2h-0.3c-0.1,0-0.1,0.1-0.4-0.1
		c-0.1-0.1-0.1-0.3,0-0.5l0,0c0.2-0.2,0.3-0.1,0.6-0.2l2-0.5l3.8-0.9l8.2-1.8l8.1-1.9l7.9-1.9l6.4-1.4c2.3-0.5,3.8-0.6,4.8-0.7
		C596.4,121.4,596.9,121.5,597.5,121.3"/>
	<path class="st0" d="M573.7,126.5c0.3,0,0.5,0.1,0.5,0.4s-0.1,0.5-0.4,0.5l0,0c-1,0.1-1.7,1.5-2.2,3.1c-0.4,1.6-0.5,3.1-0.5,3.6
		c0,0.2-0.2,0.3-0.3,0.3c-0.2,0-0.3-0.1-0.3-0.3c0-0.6,0-2.1,0.4-3.8C571.4,128.6,572.1,126.8,573.7,126.5"/>
	<path class="st0" d="M572.3,125.7c0.3,0,0.4,0.2,0.4,0.5c0,0.2-0.2,0.4-0.5,0.4c-0.8,0-1.7-0.4-3-1.1l-2.4-1.6
		c-2.2-1.6-4.9-3.6-7.1-5c-1.1-0.7-2-1.2-2.5-1.4l-0.3-0.1l0,0l0.1-0.1l0.1,0.3c0.1,0.2,0,0.4-0.2,0.4c-0.2,0.1-0.3,0-0.4-0.2
		c-0.2-0.3-0.2-0.7,0-1c0.5-0.5,1.1-0.1,1.8,0.2c2.5,1.1,6.2,3.8,9.2,5.9l2.3,1.7C571,125.4,571.8,125.6,572.3,125.7"/>
	<path class="st0" d="M577.1,114.7c0.1-0.2,0.4-0.3,0.6-0.2c0.2,0.1,0.3,0.3,0.2,0.5c-0.1,0.3-0.4,0.4-0.6,0.4
		c-0.5,0.1-1.3,0-2.1-0.3c-0.8-0.2-1.8-0.6-3-1.2l-2.8-1.7l-2.8-2l-3.5-2.8l-3-2.5c-1.8-1.5-3.3-2.2-3.8-2.2l0,0l0.1-0.1
		c0,0.1,0.3,0.8,1.2,1.8c0.1,0.1,0.1,0.3,0,0.5c-0.1,0.1-0.3,0.1-0.5,0c-0.8-0.8-1.2-1.4-1.4-1.9c-0.2-0.4-0.1-0.9,0.3-1.1
		c0.6-0.4,1.3-0.1,2.1,0.2c0.9,0.4,1.9,1,3,1.8l3,2.5l3.5,2.8l2.7,2l2.7,1.7c1.1,0.6,2,1,2.7,1.3l1.4,0.3h0.4h-0.1L577.1,114.7z"/>
	<path class="st0" d="M580.3,108.5c0,0.3-0.1,0.5-0.4,0.5c-0.2,0-0.5-0.1-0.5-0.4c0-0.1-0.4-0.4-1.1-0.6l-2.9-0.7l-3.2-0.9
		c-0.9-0.4-1.7-0.9-2.3-2.2c-0.1-0.2,0-0.4,0.2-0.4c0.2-0.1,0.3,0,0.4,0.1c0.6,1.1,1.1,1.1,2,1.4l3.1,1c1.1,0.3,2.1,0.5,3,0.8
		C579.4,107.4,580.2,107.7,580.3,108.5"/>
	<path class="st0" d="M602.9,102.4c0.1-0.2,0.4-0.3,0.6-0.2c0.2,0.1,0.3,0.4,0.2,0.6c0,0,0,0-0.1,0.1l-0.9,0.8l-0.9,0.8l-0.1,0.1
		v-0.1c0,0,0-0.3,0-0.2c0,0.1-0.2-0.3-0.1-0.3c0.1,0.1-0.2-0.2-0.2-0.1c0.1,0-0.2,0-0.1,0h0.2c1,0,3-0.2,5.3-0.5
		c2.4-0.4,5-0.8,7.2-1.4c1.7-0.4,3.1-0.9,4-1.3l0.5-0.2h0.1l-0.1,0.1l0.1-0.1l-0.1,0.1c0-0.1-0.1,0.3-0.1,0.2c0-0.1,0,0.3,0,0.2
		c0-0.1,0.1,0.3,0.1,0.2c0-0.1,0,0.1,0,0c-0.4-0.2-1.7-0.6-2.7-0.6c-0.2,0-0.3-0.1-0.3-0.3c0-0.2,0.1-0.3,0.3-0.3
		c0.8-0.1,1.7-0.1,2.4,0l0.9,0.2l0.4,0.2c0.2,0.1,0.4,0.5,0.3,0.9c0,0,0,0.1-0.1,0.1c-0.3,0.5-0.7,0.5-1,0.7c-1,0.5-2.5,1-4.3,1.4
		c-2.3,0.5-5,1-7.4,1.3s-4.3,0.5-5.5,0.4L601,105c-0.1-0.1-0.3-0.5-0.2-0.7c0.2-0.3,0.2-0.2,0.3-0.2l0.2-0.1l0.9-0.6L602.9,102.4z"
		/>
	<path class="st0" d="M609.8,100.5c0.3,0,0.4,0.3,0.4,0.5c0,0.3-0.3,0.4-0.5,0.4l-0.9,0.1c-0.4,0.1-0.8,0.2-1.3-0.2
		c-0.3-0.4-0.2-0.7-0.1-0.9c0.2-0.6,0.7-1.1,1.2-1.6c0.9-0.9,1.2-2.1,2.5-2.5c0.2-0.1,0.4,0,0.4,0.2c0.1,0.2,0,0.3-0.2,0.4
		c-0.9,0.4-0.9,1.5-1.9,2.7l-0.8,1l-0.2,0.3l0,0v-0.1l-0.1-0.2l0,0l0.4,0.1C609,100.5,609.4,100.4,609.8,100.5"/>
	<path class="st0" d="M607.5,106.2c-0.3,0-0.5-0.1-0.5-0.4c0-0.2,0.1-0.4,0.3-0.5c0.4-0.1,0.9-0.3,1.5,0.1c0.7,0.5,0.7,1.3,0.7,2.1
		c0.1,0.9,0.1,1.8,0.3,2.7c0.1,1,0.4,1.9,1,2.6c0.1,0.1,0.1,0.3,0,0.5c-0.1,0.1-0.3,0.1-0.4,0c-0.9-0.7-1.4-1.7-1.7-2.7
		c-0.2-1.1-0.2-2.1-0.3-3l-0.1-1l-0.1-0.3C608.1,106.1,607.8,106.1,607.5,106.2"/>
	<path class="st0" d="M600.9,142.9c0-0.3,0.1-0.5,0.4-0.5c0.2,0,0.4,0.1,0.5,0.3l-0.1-0.1c0.3,0.1,2.6-0.5,5-1.6l5.2-2.4
		c1.8-0.7,3.4-1.1,4.6-1.2c1.2-0.1,2.1-0.1,2.6,0c0.2,0,0.3,0.2,0.3,0.3c0,0.2-0.1,0.3-0.3,0.3c-0.6,0.1-1.4,0.1-2.5,0.3
		s-2.6,0.6-4.2,1.4l-5.3,2.4c-1.5,0.6-2.9,1.1-4,1.4c-0.5,0.1-1,0.2-1.4,0.2C601.5,143.6,601,143.4,600.9,142.9"/>
	<path class="st0" d="M608.5,141.2c0.1-0.2,0.4-0.4,0.6-0.3c0.2,0.1,0.4,0.4,0.3,0.6l0,0c-0.3,0.6,3,7.2,5.5,8.6
		c0.2,0.1,0.2,0.3,0.1,0.4c-0.1,0.2-0.3,0.2-0.4,0.1c-1.4-0.7-2.9-2.7-4.1-4.7c-0.6-1-1.1-2-1.5-2.8
		C608.5,142.4,608.2,141.8,608.5,141.2"/>
	<path class="st0" d="M613.9,140.3c-0.2-0.2-0.1-0.5,0.1-0.7l0,0c0.3-0.2,0.3-0.1,0.4-0.1l0.8,0.4l1.4,0.8c1.8,1.2,4,2.6,5.5,3.4
		c0.2,0.1,0.2,0.3,0.1,0.4c-0.1,0.1-0.2,0.2-0.4,0.2c-1.6-0.6-3.9-1.9-5.8-3l-1.5-1l-0.4-0.3C614.1,140.5,614.1,140.6,613.9,140.3"
		/>
	<path class="st0" d="M620.7,141.3c0.2-0.2,0.5-0.2,0.7-0.1c0.2,0.2,0.2,0.4,0.1,0.6l-0.1,0.2l0,0v-0.1c0,0.1-0.1-0.2-0.1-0.2
		l-0.1-0.1c0.1,0-0.2,0-0.2,0l1.1-0.6c2.1-1,5.3-3.1,7.2-4.2c0.2-0.1,0.4,0,0.4,0.1c0.1,0.1,0,0.3-0.1,0.4c-1.9,1.3-4.9,3.4-7,4.7
		c-0.7,0.3-1.1,0.6-1.6,0.6c-0.1,0-0.3,0-0.5-0.1c-0.3-0.2-0.2-0.6-0.1-0.8L620.7,141.3z"/>
	<path class="st0" d="M600.6,132.8c-0.2-0.1-0.3-0.4-0.2-0.6c0.1-0.2,0.4-0.3,0.6-0.2l0,0c1.5,0.9,7.9-1.1,11.9-1
		c0.2,0,0.3,0.1,0.3,0.3s-0.1,0.3-0.3,0.3c-1.8,0-4.3,0.6-6.7,1C603.9,133,601.9,133.5,600.6,132.8"/>
	<path class="st0" d="M609.3,131.5c0-0.3,0.3-0.4,0.5-0.4c0.3,0,0.4,0.3,0.4,0.5c0,0,0,0,0,0.1c-0.2,0.6,0.3,3.8,2.3,3.5
		c0.2,0,0.3,0.1,0.4,0.3c0,0.2-0.1,0.3-0.3,0.4c-1.4,0.2-2.4-0.7-2.8-1.8C609.3,133.1,609.2,132.1,609.3,131.5"/>
	<path class="st0" d="M616.9,124.2c-0.2-0.1-0.4-0.3-0.3-0.6c0.1-0.2,0.3-0.4,0.6-0.3l0,0c0.6,0.2,1.1,0.8,1.7,1.5l2.9,3.5
		c0.9,1.1,1.8,1.8,2,1.7c0.2,0,0.3,0.1,0.4,0.3c0,0.2-0.1,0.3-0.2,0.4c-0.6,0.1-1.2-0.3-1.8-0.9C620.2,128,617.9,124.5,616.9,124.2"
		/>
	<path class="st0" d="M623.1,127.5c0.3,0,0.4,0.3,0.4,0.5c0,0.3-0.3,0.4-0.5,0.4l0,0c-0.2,0-0.4,0.1-0.8,0.4c-1.1,1.2-2,3.9-2,4.8
		c0,0.2-0.2,0.3-0.3,0.3c-0.2,0-0.3-0.1-0.3-0.3c0-0.8,0.4-2.2,1-3.6c0.3-0.7,0.7-1.3,1.1-1.8C622,127.8,622.5,127.4,623.1,127.5"/>
	<path class="st0" d="M601,157.8c0.2,0.2,0.2,0.5,0.1,0.7c-0.1,0.2-0.4,0.2-0.5,0.1c-0.1,0-0.2-0.1-0.3-0.3s0.1-0.5,0.2-0.6
		c0.3-0.2,0.5-0.2,0.8-0.3l2.3-0.2l3.7-0.1c3.3,0,7.4-0.2,11.1-0.4l4.6-0.3c1.2-0.1,1.9-0.1,2.3-0.1c0.2,0,0.4,0.2,0.3,0.5
		c0,0.2-0.2,0.3-0.4,0.3l-2.1,0.2c-3.9,0.3-10.6,0.9-15.7,1h-5l-1.2,0.1h-0.1l0.1-0.1c0,0,0.2-0.2,0.1-0.2c0,0.1,0-0.3,0-0.2
		C601.2,158.2,601,157.8,601,157.8L601,157.8z"/>
	<path class="st0" d="M616.5,157.7c0.1-0.2,0.4-0.4,0.6-0.3c0.2,0.1,0.4,0.4,0.3,0.6l0,0c-0.2,0.5,0.2,2.8,1.1,5.2
		c0.8,2.4,1.9,4.8,2.7,5.9c0.1,0.1,0.1,0.3-0.1,0.5c-0.1,0.1-0.3,0.1-0.5,0c-1-1.2-2.1-3.6-3-6.1c-0.4-1.2-0.8-2.4-1-3.4
		C616.4,159.2,616.3,158.4,616.5,157.7"/>
	<path class="st0" d="M619.7,157.4c0,0.3-0.3,0.4-0.5,0.4s-0.4-0.3-0.4-0.5c0.1-0.8,0.9-1.1,1.8-1.4c1-0.3,2.2-0.5,3.6-0.8
		c3.3-0.4,7.3-0.9,10.1-2.1c0.2-0.1,0.4,0,0.4,0.2c0.1,0.2,0,0.3-0.2,0.4c-2.9,1.5-6.8,2.1-10.1,2.7c-1.4,0.2-2.6,0.4-3.5,0.6
		l-1,0.3L619.7,157.4z"/>
	<path class="st0" d="M623.6,159.8c0.1-0.2,0.3-0.4,0.6-0.3c0.2,0.1,0.4,0.3,0.3,0.6l0,0v0.1l-0.1-0.2c0.1,0,0.8-0.3,1.2-1.1
		c0.1-0.2,0.3-0.2,0.4-0.1c0.2,0.1,0.2,0.3,0.2,0.4c-0.3,0.8-0.9,1.3-1.4,1.6c-0.3,0.1-0.6,0.2-0.9,0
		C623.6,160.6,623.5,160.1,623.6,159.8"/>
	<path class="st0" d="M608.6,180.1c0.1-0.2,0.3-0.4,0.6-0.3c0.2,0.1,0.4,0.3,0.3,0.6l-0.8,2.4l-1.1,3.5l-1.8,4.9l-2.5,5.9l-0.8,1.8
		l-0.4,0.8c-0.1,0.1-0.3,0.2-0.5,0.1c-0.1,0-0.1-0.1-0.1-0.2c-0.1-0.3,0-0.3,0.1-0.4l1.2-3l2-5.3l1.8-4.8l1.1-3.5L608.6,180.1z"/>
	<path class="st0" d="M613,186c0.1-0.2,0.4-0.3,0.7-0.1c0.1,0.1,0.2,0.1,0.2,0.3v0.3l-0.1,1.4l-0.2,2.6l-0.4,4.7
		c-0.2,1.9-0.4,3.5-0.4,4.7l0.1,1.3c0.1,0.3,0.1,0.3,0.2,0.3c0.2,0,0.3,0.2,0.2,0.4c0,0.2-0.2,0.3-0.3,0.3c-0.8,0-1.1-1.1-1.1-2.3
		c0-1.3,0.1-2.9,0.2-4.8l0.4-4.7l0.4-2.9l0.1-0.8v-0.2C612.9,186.2,612.8,186.3,613,186 M613.8,186.4c0,0.3-0.3,0.4-0.5,0.4
		s-0.4-0.2-0.4-0.5l0,0l0,0c0,0,0.1,0.2,0,0.1c-0.1-0.2,0-0.5,0.3-0.6c0.2-0.1,0.5,0,0.6,0.3C613.9,186.2,613.9,186.4,613.8,186.4
		C613.8,186.6,613.8,186.4,613.8,186.4L613.8,186.4z"/>
	<path class="st0" d="M619.2,187.1c0.1,0.2,0.1,0.5-0.1,0.6c-0.2,0.1-0.4,0.1-0.6,0l-0.1-0.1l-0.1-0.3c0-0.4,0.4-0.4,0.5-0.4
		c0.5,0,0.6,0.2,0.9,0.4l1.3,1.1c0.6,0.5,1.2,1.2,1.8,2.1c1.6,2.4,3.1,5.7,4.6,8.6c0.7,1.4,1.4,2.6,2.1,3.4c0.6,0.7,1.1,1,1.6,0.9
		c0.2-0.1,0.4,0,0.4,0.2c0.1,0.2,0,0.3-0.2,0.4c-0.8,0.4-1.7-0.1-2.4-0.9c-2.4-2.7-4.6-8.5-7-11.8c-0.6-0.8-1.1-1.5-1.7-2l-1.3-1.1
		l-0.3-0.2l0,0l0,0c0,0,0.2,0,0.1,0h0.2c-0.1,0,0.3-0.2,0.2-0.1c-0.1,0,0.1-0.2,0.1-0.2c0,0.1,0-0.3,0-0.2
		C619.2,187.4,619.2,187.1,619.2,187.1L619.2,187.1z"/>
	<path class="st0" d="M621.1,195.7c0.1,0.2,0.1,0.5-0.1,0.6c-0.2,0.1-0.5,0.1-0.6-0.1c-0.4-0.6,0-1.2,0.4-1.8c1.3-2,4.3-4.7,6.8-6.9
		l2.8-2.1c0.2-0.1,0.4-0.1,0.5,0.1c0.1,0.1,0.1,0.3,0,0.4l-2.5,2.4c-1.7,1.4-3.6,3.1-5,4.6c-0.7,0.7-1.3,1.4-1.7,2l-0.3,0.6
		L621.1,195.7z"/>
	<path class="st0" d="M617.7,179.7c0.1-0.2,0.4-0.3,0.6-0.2c0.2,0.1,0.3,0.3,0.2,0.6l0,0V180c0,0.1-0.2-0.3-0.1-0.2
		c0.1,0.1-0.3-0.1-0.3-0.1c0.1,0-0.2,0-0.2,0h-0.1l2.3-2.3c1.9-1.8,4.2-3.4,5.8-4.2c0.4-0.1,0.7-0.2,1-0.2c0.2,0,0.5,0.1,0.7,0.3
		c0.3,0.4,0.1,0.7-0.1,1l-0.9,1.2c-0.1,0.1-0.3,0.2-0.5,0c-0.1-0.1-0.2-0.3-0.1-0.4l0.7-1.1l0.1-0.3v0.1c0-0.1,0.2,0.1,0.2,0.1
		l-0.6,0.3c-1.5,0.6-3.7,2.2-5.6,3.9l-2,1.8l-0.6,0.5l-0.2,0.1c-0.1,0-0.2,0-0.4-0.1c-0.2-0.2-0.2-0.4-0.2-0.5L617.7,179.7z"/>
	<path class="st0" d="M619.1,178.4c-0.2-0.1-0.3-0.4-0.2-0.6c0.1-0.2,0.4-0.3,0.6-0.2c1,0.6,3.4,1.4,5.8,2.3c2.2,1,4.2,2.1,5.1,3.3
		c0.1,0.2,0.1,0.4-0.1,0.5c-0.1,0.1-0.3,0.1-0.4-0.1c-0.8-0.9-2.8-1.8-5-2.7C622.6,180,620.3,179.1,619.1,178.4"/>
	<path class="st0" d="M607.6,175.5c-0.2,0.2-0.5,0.1-0.7-0.1c-0.1-0.2-0.1-0.4,0-0.6c0.4-0.5,1.3-1,2.5-1.7c1.9-1,4.2-2,6.3-2.8
		c1.5-0.5,2.7-0.9,3.5-1h0.5c0.2,0,0.4,0.3,0.4,0.5c0,0.4-0.2,0.4-0.3,0.5l-0.6,0.4c-0.2,0.1-0.4,0-0.5-0.1s-0.1-0.3,0.1-0.4
		l0.5-0.4l0.1-0.1l0,0v0.1v0.1l0.1,0.1c-0.1-0.1,0.2,0.1,0.2,0.1s-1.6,0.5-3.4,1.3c-2.1,0.8-4.4,1.8-6.2,2.7
		C608.9,174.8,608,175.2,607.6,175.5"/>
	<path class="st0" d="M610.7,171.5c-0.1,0.3-0.3,0.4-0.6,0.4c-0.2-0.1-0.4-0.3-0.4-0.5c0.2-1.1,0.4-1.9,0.1-2.9
		c-0.1-0.6-0.3-1.2-0.6-2c-0.1-0.2,0-0.4,0.2-0.4c0.1-0.1,0.3,0,0.4,0.1c0.5,0.7,0.8,1.4,1.1,1.9
		C611.3,169.5,610.9,170.4,610.7,171.5"/>
	<path class="st0" d="M588.7,177.8c0.2,0.2,0.2,0.5,0,0.7s-0.5,0.2-0.6,0l-0.1-0.1h0.1h0.1l0,0c-0.3,0.6-0.3,3.1,0,6.1
		c0.2,2.1,0.5,4.5,0.9,6.7l0.6,3.7c0.3,1.7,0.6,2.9,0.8,3.7c0.2,0.7,0.4,1.1,0.4,1.5c0,0.2-0.2,0.3-0.4,0.3c-0.1,0-0.3-0.1-0.3-0.2
		l-0.5-1.2c-0.3-0.8-0.7-2-1-3.8l-0.6-3.7c-0.4-2.2-0.7-4.5-1-6.7c-0.2-2.1-0.2-4-0.1-5.3c0.1-0.6,0.2-1.1,0.5-1.5
		c0.1-0.2,0.4-0.4,0.7-0.4C588.4,177.5,588.6,177.7,588.7,177.8"/>
	<path class="st0" d="M589,188.5c0.2,0.1,0.3,0.4,0.1,0.6c-0.1,0.2-0.4,0.3-0.6,0.2l-0.3,0.2L587,191c-1.6,2-3.7,5-5.5,7.8l-2.1,3.5
		l-0.5,1l-0.1,0.2c0,0-0.1-0.2,0-0.1c0,0.1-0.3-0.2-0.2-0.1c0.2,0,0.3,0.2,0.3,0.4s-0.1,0.3-0.3,0.3s-0.4-0.2-0.4-0.4
		c0-0.5,0.3-1.2,0.8-2.1c1.7-3.2,4.9-8,7.1-11c0.6-0.7,1.1-1.2,1.5-1.6C588,188.4,588.6,188.2,589,188.5"/>
	<path class="st0" d="M595.2,173.4c0-0.3,0.3-0.4,0.5-0.4c0.3,0,0.4,0.3,0.4,0.5l0,0c-0.1,0.6,0.6,3.6,1.3,6.7l1,4.2l0.3,1.5
		c0.1,0.4,0.2,0.6,0,0.9c-0.1,0.2-0.3,0.2-0.5,0.2c-0.2-0.1-0.2-0.3-0.2-0.4l-1.4-6.1l-1.1-4.3C595.4,174.9,595.2,174,595.2,173.4"
		/>
	<path class="st0" d="M599.3,183.2c0.1,0.3-0.1,0.5-0.4,0.6c-0.2,0-0.4-0.1-0.5-0.3L598,183c-0.1-0.1-0.2-0.1-0.4,0
		c-0.5,0.2-1.4,1.6-2,3.2c-0.5,1-0.8,2.1-1,2.9l-0.2,1v0.3c0.1,0.1,0.2,0.3,0.1,0.5c-0.1,0.1-0.2,0.1-0.4,0.1
		c-0.7-0.2-0.6-1.1-0.5-2c0.1-1,0.4-2.1,0.7-3.2c0.7-1.8,1.5-3.5,2.8-4c0.6-0.2,1.2,0,1.5,0.4C599,182.4,599.2,182.8,599.3,183.2"/>
	<path class="st0" d="M590.8,175.8c0.1,0.2,0.1,0.5-0.1,0.6c-0.2,0.1-0.4,0.1-0.6-0.1c-0.5-0.5-1.3-0.9-2.7-1.4
		c-1.1-0.4-2.2-1-3.8-1.2c-0.9-0.1-2-0.2-3.2-0.1c-3.7,0.4-8.4,3-11.3,5l-2,1.3l-0.2,0.2l0,0V180v-0.2l-0.1-0.2
		c0,0.1-0.2-0.1-0.1-0.1l0,0h0.1c0.2,0,0.4,0.1,0.4,0.3c0,0.1,0,0.3-0.2,0.4l-0.3,0.1c-0.1,0-0.3,0.1-0.5-0.1
		c-0.2-0.2-0.1-0.4-0.1-0.5c0.1-0.4,0.4-0.6,0.7-0.9l1.5-1.2c3.1-2.1,7.7-4.8,11.9-5.4c1.4-0.2,2.5-0.1,3.6,0.1
		c1.8,0.3,3.1,1,4.1,1.4C589.3,174.5,590.2,175.1,590.8,175.8"/>
	<path class="st0" d="M576.1,176.1c0.2,0.1,0.4,0.3,0.3,0.6c-0.1,0.2-0.3,0.4-0.6,0.3c-0.2,0-0.5,0.1-0.9,0.4
		c-1.4,1.3-2.9,4.4-3.8,7.3c-0.7,1.9-1.2,3.6-1.1,4.5c0,0.2-0.1,0.3-0.3,0.3s-0.3-0.1-0.3-0.3c-0.2-1.1,0.1-2.9,0.7-4.9
		c0.7-2,1.6-4.1,2.7-5.8C573.8,177,574.9,175.7,576.1,176.1"/>
	<path class="st0" d="M597.2,163.4c0.2,0.1,0.3,0.4,0.2,0.6c-0.1,0.2-0.4,0.3-0.6,0.2c-0.2-0.1-0.9-0.1-1.9-0.1h-2
		c-1.5,0.1-3.5,0.4-5.9,0.8l-5,0.6c-2.4,0.2-4.7,0.2-6.7-0.1c-1.9-0.2-3.6-0.6-4.7-1c-0.7-0.3-1.3-0.7-1.3-1.4
		c0-0.3,0.3-0.5,0.6-0.6l0.9-0.2c0.2,0,0.3,0.1,0.4,0.3c0,0.2-0.1,0.3-0.3,0.4l-0.7,0.2c-0.1,0.1-0.1-0.2,0-0.2l0.8,0.4
		c1,0.4,2.5,0.8,4.4,1s4.2,0.3,6.5,0.1l5-0.6c2.4-0.3,4.4-0.7,6-0.8h2.1C596,163.1,596.7,163.1,597.2,163.4"/>
	<path class="st0" d="M581.5,165.3c0.3,0,0.5,0.1,0.5,0.4c0,0.3-0.1,0.5-0.4,0.5c-0.8,0.1-1.3-0.4-1.9-1.1l-1.1-1.2l-3.4-3.5
		l-1.5-1.7l-0.4-0.5l0,0c0,0,0.2,0.1,0.1,0h0.1c-0.1,0,0.3,0,0.2,0h-0.1c-0.1,0,0.4-0.2,0.3-0.1c-0.1,0.1,0.2-0.3,0.2-0.2l0.1-0.1
		c0,0.1,0-0.2,0-0.1v0.1c0.1,0.3-0.1,0.6-0.3,0.7l0.1-0.1l-0.1,0.2c-0.1,0.2-0.2,0.3-0.4,0.2c0,0-0.1,0-0.1-0.1l-0.2-0.1
		c0,0,0.1,0,0,0c-0.3-0.1-0.5-0.3-0.5-0.6l-0.1-0.5l0.1-0.4c0.1-0.2,0.3-0.4,0.6-0.4h0.1c0.6,0,0.7,0.3,0.8,0.4l0.5,0.6l1.3,1.8
		l3.1,3.8l1.1,1.2C581,165.2,581.2,165.4,581.5,165.3"/>
	<path class="st0" d="M591.6,164.8c0-0.3,0.3-0.4,0.5-0.4s0.4,0.2,0.4,0.4c0,0.5-0.3,0.7-0.6,1l-0.9,0.7c0,0-0.1,0-0.1,0.1l-0.8,0.5
		c-0.2,0.1-0.4,0.1-0.5,0s-0.1-0.3-0.1-0.4c0.2-0.4,0.5-0.7,0.7-1l0.1-0.1l0.9-0.6L591.6,164.8C591.6,164.7,591.6,164.8,591.6,164.8
		"/>
	<path class="st0" d="M592.5,164.7c0.1,0.2,0,0.5-0.3,0.6c-0.2,0.1-0.5,0-0.6-0.2l0.1,0.1c0,0-0.7,0.3-1.3,0.9
		c-0.7,0.6-1.4,1.4-2,2.1l-0.9,0.9l-0.2,0.2c0,0,0-0.1,0,0v-0.1c0,0.1-0.2-0.3-0.1-0.2c0.1,0.1-0.2-0.1-0.1-0.1
		c0.2,0,0.3,0.2,0.3,0.4c0,0.1-0.1,0.2-0.1,0.2s-0.2,0.1-0.4,0c-0.3-0.2-0.2-0.4-0.1-0.6c0.1-0.4,0.4-0.8,0.9-1.4
		c0.8-0.9,1.7-1.8,2.5-2.5c0.4-0.3,0.8-0.6,1.2-0.8c0.2-0.1,0.4-0.1,0.6-0.1C592.2,164.3,592.4,164.5,592.5,164.7"/>
	<path class="st0" d="M580.6,153.5c-0.2-0.2-0.2-0.5-0.1-0.7c0.2-0.2,0.5-0.2,0.7-0.1c0.2,0.2,0.2,0.5,0.1,0.7
		C581.1,153.6,580.9,153.6,580.6,153.5l0.2,0.1c-0.1,0,0.2,0,0.2,0C580.9,153.6,580.7,153.6,580.6,153.5L580.6,153.5
		C580.6,153.4,580.7,153.5,580.6,153.5 M593,161.5c0.2-0.1,0.5,0,0.6,0.3c0.1,0.2,0,0.5-0.2,0.6c-1.3,0.7-3-0.5-5.2-2.3l-3.2-3
		l-2.2-2l-1.3-1.1l-0.4-0.3H581h0.1c-0.4,0-0.7-0.2-0.7-0.6c0-0.3,0.1-0.5,0.3-0.6c0.6-0.4,1.1-0.1,1.6,0.2l1.6,1.2l2.2,2.1l3.1,3.1
		c1,1,1.9,1.7,2.5,2.1C592.3,161.6,592.7,161.7,593,161.5"/>
	<path class="st0" d="M597.8,141.4c0.3,0,0.5,0.2,0.5,0.4s-0.1,0.4-0.3,0.5c-0.7,0.2-1.4,0.1-2.7,0.2c-0.8,0-1.9,0.2-3.1,0.4
		c-2,0.4-4.4,1.2-6.7,1.9c-2.6,0.8-4.9,1.3-6.8,1.7l-2.2,0.2c-0.5,0-1,0-1.2-0.3c-0.1-0.1-0.1-0.4,0.1-0.5c0.1-0.1,0.3-0.1,0.4,0
		h0.7c0.8-0.1,2-0.3,3.4-0.7l5.2-1.5c2.3-0.7,4.7-1.6,6.8-2.1c1.3-0.2,2.4-0.4,3.3-0.4C596.7,141.2,597.4,141.4,597.8,141.4"/>
	<path class="st0" d="M579.6,131.4c-0.2,0-0.4-0.1-0.5-0.4c0-0.2,0.1-0.4,0.4-0.5c0.2,0,0.4,0.1,0.5,0.4c0,0.1,0,0.3-0.1,0.4
		c-0.1,0.1,0.1-0.2,0.1-0.1v-0.1l0,0c0.1,0.2,0,0.4-0.2,0.4C579.7,131.5,579.6,131.5,579.6,131.4l-0.2,0.1l0,0l0,0
		C579.5,131.4,579.7,131.3,579.6,131.4 M589.2,139.6c0.3,0,0.5,0.2,0.5,0.4s-0.1,0.4-0.3,0.5c-0.5,0.1-1.1-0.1-1.5-0.5l-1.3-1.5
		c-1.4-1.7-3.7-4-5.5-5.6l-1.8-1.5c-0.1-0.1-0.2-0.1-0.2-0.2c0-0.1-0.1,0-0.1-0.4c0-0.1,0-0.2,0.1-0.3c0.3-0.4,0.4-0.2,0.6-0.2
		c0.1,0,0.2,0,0.3,0.1c0.4,0.3,1.1,0.8,1.9,1.6c1.8,1.7,4.1,3.9,5.6,5.7l1.1,1.5C588.9,139.6,589.1,139.6,589.2,139.6"/>
	<path class="st0" d="M597.8,130.9c0.1-0.3,0.3-0.4,0.6-0.3c0.2,0,0.3,0.2,0.3,0.3c0.1,0.2-0.1,0.5-0.2,0.6
		c-0.4,0.3-0.8,0.3-1.4,0.3l-2.1,0.1l-3,0.2l-5,0.2l-2.1,0.2h-0.1h-1.6h0.1l0.1-0.1l0.1-0.1l0.1-0.2c0,0.1,0-0.3,0-0.2v-0.1l0.5,0.2
		c0.2,0.1,0.3,0.2,0.2,0.4c-0.1,0.1-0.2,0.2-0.3,0.2l-0.8-0.1l-0.2-0.1c-0.1-0.1-0.3-0.3-0.3-0.5c0-0.4,0.2-0.5,0.4-0.6
		c0.4-0.3,1-0.4,1.7-0.5h0.1h2.2l5-0.1l3-0.1l2.3,0.1h0.6h0.1l-0.1,0.1C598,130.6,597.8,131,597.8,130.9"/>
	<path class="st0" d="M590,128c-0.3,0-0.5-0.2-0.6-0.5c0-0.3,0.2-0.5,0.5-0.6c0.3,0,0.5,0.2,0.6,0.5c0,0.2-0.1,0.3-0.2,0.4
		c-0.1,0.1,0.1-0.1,0.1-0.1v-0.1v0.4c0,0.2-0.1,0.3-0.3,0.3c-0.1,0-0.3-0.1-0.3-0.2l-0.2-0.3l0,0h0.1h0.1
		C589.7,128,590.1,128,590,128 M591.3,132.2c0.2,0.1,0.4,0.3,0.3,0.6c-0.1,0.2-0.2,0.3-0.4,0.3c-0.5,0-0.5-0.3-0.5-0.4
		c-0.4-0.9-0.8-2.8-1.1-4.2l-0.1-0.7l-0.1-0.4c0-0.3,0.3-0.6,0.6-0.6s0.6,0.3,0.6,0.6c0,0.2-0.1,0.4-0.2,0.5c-0.1,0,0.2-0.2,0.1-0.1
		c0,0.1,0.1-0.2,0.1-0.2c0,0.1,0-0.1,0-0.1l0.1,0.8l0.5,2.6l0.3,1.1l0.1,0.3l0,0v-0.1C591.5,132.3,591.2,132.2,591.3,132.2
		 M590.5,127.5c0,0.3-0.3,0.6-0.6,0.6s-0.6-0.3-0.6-0.6c0-0.3,0.3-0.6,0.6-0.6C590.2,126.9,590.5,127.1,590.5,127.5"/>
	<path class="st0" d="M594.1,132.9c0.3-0.1,0.5,0.1,0.6,0.3c0.1,0.3-0.1,0.5-0.3,0.6l0,0c-0.3,0-0.9,0.7-1.4,1.5l-1.2,2.4
		c-0.1,0.2-0.3,0.2-0.4,0.1c-0.2-0.1-0.2-0.3-0.2-0.4c0.2-0.6,0.6-1.6,1.1-2.5C592.7,134.1,593.2,133.2,594.1,132.9"/>
	<path class="st0" d="M598.1,152.2c0.2-0.1,0.5-0.1,0.6,0.1c0.1,0.2,0.1,0.5-0.1,0.6c-0.6,0.5-1.4,0.2-2.4-0.1s-2.1-0.8-3.2-1.2
		l-2.2-1c-0.5-0.4-0.9-0.6-1-1c-0.1-0.2,0-0.4,0.2-0.4c0,0,0,0,0.1,0c0.3,0,0.7,0.1,1.2,0.3l2.3,1.1l3,1.3l1.1,0.3L598.1,152.2
		L598.1,152.2z"/>
	<path class="st0" d="M580.4,147.1c-0.2-0.1-0.3-0.4-0.2-0.6c0.1-0.2,0.3-0.3,0.5-0.2c0,0-0.2,0-0.1,0c0.1,0-0.3,0.2-0.2,0.1
		c0.1-0.1-0.1,0.2-0.1,0.2c0-0.1,0,0.1,0,0.1c-0.1-0.3-0.6-1.3-1.5-2.6c-0.7-1-1.5-2-2.3-3c-0.9-1.1-1.7-1.7-2.4-1.9
		c-0.6-0.2-1.4-0.3-1.7-0.3h-0.1l0.1-0.1l0.4,0.4c0.1,0.1,0.2,0.3,0,0.5c-0.1,0.1-0.3,0.2-0.4,0.1c-0.4-0.3-0.7-0.5-0.9-0.8
		c-0.1-0.3,0-0.6,0.2-0.8c0.6-0.6,1.6-0.5,2.6-0.3c1.2,0.4,2.1,1.3,3.1,2.4c0.8,1,1.7,2.1,2.4,3.1c0.6,1,1,1.8,1.3,2.4
		c0.1,0.3,0.2,0.6,0.2,0.9c0,0.2-0.1,0.4-0.3,0.5C580.8,147.3,580.5,147.2,580.4,147.1"/>
	<path class="st0" d="M575.7,141.7c0.1,0.2-0.1,0.5-0.3,0.6s-0.5-0.1-0.6-0.3s-0.1-0.2-0.3-0.2c-0.8,0-2.6,1.1-4.4,2.8
		c-1.4,1.2-2.6,2.7-3.7,3.9l-1,1c-0.3,0.3-0.6,0.5-1.1,0.5c-0.2,0-0.4-0.2-0.5-0.4l-0.1-0.6c0-0.2,0.1-0.3,0.3-0.4
		c0.2,0,0.3,0.1,0.3,0.3l0.1,0.3h-0.2l0.4-0.4l0.9-1c1-1.1,2.3-2.7,3.7-4c1.3-1.2,2.6-2.1,3.7-2.6c0.5-0.2,1.1-0.4,1.5-0.3
		C575.1,140.9,575.6,141.2,575.7,141.7"/>
	<path class="st0" d="M559.5,140.5c-0.2,0-0.5-0.2-0.5-0.4s0.2-0.5,0.4-0.5s0.5,0.2,0.5,0.4v0.1c0,0.1,0-0.2,0-0.2v-0.1l0.5,0.5
		c0.1,0.1,0.1,0.3,0,0.5c-0.1,0.1-0.3,0.1-0.4,0.1L559.5,140.5L559.5,140.5L559.5,140.5L559.5,140.5z M568.4,143.7
		c0.2,0.1,0.3,0.4,0.1,0.6c-0.1,0.1-0.1,0.1-0.2,0.2c-0.3,0.1-0.5,0-0.8,0l-1.1-0.2l-1.5-0.4c-1.5-0.6-3.2-1.7-4.5-2.5l-0.8-0.7
		l-0.3-0.2c-0.1-0.1-0.1,0-0.2-0.3c-0.1-0.2,0-0.4,0.2-0.5c0.4-0.2,0.4,0,0.5,0l1.2,0.6c1.3,0.8,3,1.9,4.3,2.4l1.4,0.5l1.1,0.4
		L568.4,143.7z"/>
	<path class="st0" d="M580.6,145.9c0.1,0.2-0.1,0.5-0.3,0.6s-0.5-0.1-0.6-0.3l0,0l0.1,0.2l0,0c-1.5,0-6.7,3.3-9.5,5.5
		c-0.1,0.1-0.3,0.1-0.5-0.1c-0.1-0.1-0.1-0.3,0.1-0.5c1.6-1.3,3.9-2.9,6.1-4.2c1.1-0.6,2-1.1,2.8-1.5l1-0.3
		C580.1,145.4,580.6,145.5,580.6,145.9"/>
	<path class="st1" d="M579.5,73.5c-0.5-0.5-0.5-1.3,0-1.7c0.5-0.5,1.3-0.5,1.7,0l18.9,18.9c0.5,0.5,0.5,1.3,0,1.7
		c-0.5,0.5-1.3,0.5-1.7,0L579.5,73.5z"/>
	<path class="st1" d="M600.1,92.4c-0.5,0.5-1.3,0.5-1.7,0c-0.5-0.5-0.5-1.3,0-1.7l19.1-18.9c0.5-0.5,1.3-0.5,1.7,0
		c0.5,0.5,0.5,1.3,0,1.7L600.1,92.4z"/>
	<path class="st1" d="M598,91.5c0-0.7,0.6-1.2,1.2-1.2s1.2,0.6,1.2,1.2v76c0,0.7-0.6,1.2-1.2,1.2s-1.2-0.6-1.2-1.2V91.5z"/>
	<path class="st1" d="M598.4,168.4c-0.5-0.5-0.5-1.3,0-1.7c0.5-0.5,1.3-0.5,1.7,0l18.9,18.9c0.5,0.5,0.5,1.3,0,1.7
		c-0.5,0.5-1.3,0.5-1.7,0L598.4,168.4z"/>
	<path class="st1" d="M580.9,187.2c-0.5,0.5-1.3,0.5-1.7,0c-0.5-0.5-0.5-1.3,0-1.7l19.1-18.9c0.5-0.5,1.3-0.5,1.7,0
		c0.5,0.5,0.5,1.3,0,1.7L580.9,187.2z"/>
</g>
<g>
	<line class="st2" x1="434.7" y1="74" x2="447.6" y2="86.9"/>
	<circle cx="434.7" cy="74" r="2"/>
	<line class="st2" x1="460.6" y1="74" x2="447.7" y2="86.9"/>
	<circle cx="460.6" cy="74" r="2"/>
	<line class="st2" x1="434.8" y1="187" x2="447.7" y2="174.1"/>
	<circle cx="434.8" cy="187" r="2"/>
	<line class="st2" x1="460.7" y1="187" x2="447.8" y2="174.1"/>
	<circle cx="460.7" cy="187" r="2"/>
	<circle cx="447.9" cy="174.1" r="2"/>
	<text transform="matrix(1 0 0 1 454.2635 177.2073)" class="st1 st3 st4">$2$</text>
	<circle cx="447.8" cy="87.1" r="2"/>
	<line class="st2" x1="447.7" y1="174.1" x2="447.7" y2="147.6"/>
	<circle cx="447.7" cy="147.6" r="2"/>
	<text transform="matrix(1 0 0 1 454.1966 151.4018)" class="st1 st3 st4">$2$</text>
	<text transform="matrix(1 0 0 1 454.2635 117.2631)" class="st1 st3 st4">$2$</text>
	<text transform="matrix(1 0 0 1 454.2633 92.7324)" class="st1 st3 st4">$2$</text>
	<line class="st2" x1="447.8" y1="87.1" x2="447.8" y2="113.6"/>
	<circle cx="447.8" cy="113.6" r="2"/>
	<line class="st2" x1="447.7" y1="147.6" x2="447.8" y2="113.6"/>
</g>
<text transform="matrix(1 0 0 1 468.9928 17.6881)" class="st3 st4">$E$ of type $\mathrm{I}_3^*$</text>
<text transform="matrix(1 0 0 1 441.6686 53.212)" class="st3 st4">$\Delta(\sE)$</text>
<g>
	<g>
		<line class="st2" x1="490" y1="127.2" x2="534.5" y2="127.2"/>
		<g>
			<path d="M540.6,127.2c-2.8,1.1-6.4,2.9-8.5,4.8l1.7-4.8l-1.7-4.8C534.2,124.4,537.7,126.2,540.6,127.2z"/>
		</g>
	</g>
</g>
<text transform="matrix(1 0 0 1 505.6649 115.3771)" class="st3 st4">$i_\sE$</text>
<text transform="matrix(1 0 0 1 649.9059 41.2037)" class="st3 st4">$E\an$</text>
<circle cx="71.5" cy="96.8" r="3"/>
<circle cx="31.7" cy="122.9" r="3"/>
<circle cx="44.2" cy="168.8" r="3"/>
<circle cx="91.7" cy="171.1" r="3"/>
<circle cx="108.6" cy="126.6" r="3"/>
<circle cx="286.4" cy="82.7" r="3.4"/>
<circle cx="241.9" cy="111.8" r="3.4"/>
<circle cx="255.9" cy="163.1" r="3.4"/>
<circle cx="309" cy="165.6" r="3.4"/>
<circle cx="327.9" cy="115.9" r="3.4"/>
<line class="st2" x1="31.7" y1="122.9" x2="44.2" y2="168.8"/>
<line class="st2" x1="91.7" y1="171.1" x2="44.2" y2="168.8"/>
<line class="st2" x1="108.6" y1="126.6" x2="91.7" y2="171.1"/>
<line class="st2" x1="71.5" y1="96.8" x2="108.6" y2="126.6"/>
<line class="st2" x1="31.7" y1="122.9" x2="71.5" y2="96.8"/>
<text transform="matrix(1 0 0 1 43.9943 78.9518)" class="st3 st4">$\Delta(\sE)$</text>
<text transform="matrix(1 0 0 1 336.9642 53.8241)" class="st3 st4">$E\an$</text>
<g>
	<text transform="matrix(1 0 0 1 266.4567 132.8549)" class="st1 st3 st4">$\sk(\sE)$</text>
</g>
<g>
	<text transform="matrix(1 0 0 1 640.968 147.2324)" class="st1 st3 st4">$\sk(\sE)$</text>
</g>
<path class="st2" d="M490,127.2c-1.3,0-2.3-1-2.3-2.3s1-2.3,2.3-2.3"/>
<text transform="matrix(1 0 0 1 127.5416 17.6881)" class="st3 st4">$E$ of type $\mathrm{I}_5$</text>
<line class="st5" x1="388.5" y1="-3.1" x2="388.5" y2="225.6"/>
<g>
	<g>
		<line class="st2" x1="540.6" y1="145.1" x2="493.3" y2="145.1"/>
		<g>
			<path d="M494.1,150.1c-1.2-2.1-3.2-3.8-5.3-5.1c2.1-1.3,4-3,5.3-5.1h1.2c-1.3,2-2.9,3.7-4.8,5.1c1.9,1.3,3.6,3.1,4.9,5.1H494.1z"
				/>
			<path d="M497.1,150.1c-1.2-2.1-3.2-3.8-5.3-5.1c2.1-1.3,4-3,5.3-5.1h1.2c-1.3,2-2.9,3.7-4.8,5.1c1.9,1.3,3.6,3.1,4.9,5.1H497.1z"
				/>
		</g>
	</g>
</g>
<text transform="matrix(1 0 0 1 505.665 163.882)" class="st3 st4">$r_\sE$</text>
<g>
	<g>
		<line class="st2" x1="130" y1="120.9" x2="174.6" y2="120.9"/>
		<g>
			<path d="M180.6,120.9c-2.8,1.1-6.4,2.9-8.5,4.8l1.7-4.8l-1.7-4.8C174.2,118,177.8,119.8,180.6,120.9z"/>
		</g>
	</g>
</g>
<text transform="matrix(1 0 0 1 145.6875 109.0271)" class="st3 st4">$i_\sE$</text>
<path class="st2" d="M130,120.9c-1.3,0-2.3-1-2.3-2.3s1-2.3,2.3-2.3"/>
<g>
	<g>
		<line class="st2" x1="180.6" y1="138.7" x2="133.3" y2="138.7"/>
		<g>
			<path d="M134.1,143.8c-1.2-2.1-3.2-3.8-5.3-5.1c2.1-1.3,4-3,5.3-5.1h1.2c-1.3,2-2.9,3.7-4.8,5.1c1.9,1.3,3.6,3.1,4.9,5.1H134.1z"
				/>
			<path d="M137.2,143.8c-1.2-2.1-3.2-3.8-5.3-5.1c2.1-1.3,4-3,5.3-5.1h1.2c-1.3,2-2.9,3.7-4.8,5.1c1.9,1.3,3.6,3.1,4.9,5.1H137.2z"
				/>
		</g>
	</g>
</g>
<text transform="matrix(1 0 0 1 145.6876 157.532)" class="st3 st4">$r_\sE$</text>
</svg>
