<?xml version="1.0" encoding="utf-8"?>
<!-- Generator: Adobe Illustrator 23.0.3, SVG Export Plug-In . SVG Version: 6.00 Build 0)  -->
<svg version="1.1"
	 id="svg8" inkscape:version="0.92.4 (unknown)" sodipodi:docname="figure.svg" xmlns:cc="http://creativecommons.org/ns#" xmlns:dc="http://purl.org/dc/elements/1.1/" xmlns:inkscape="http://www.inkscape.org/namespaces/inkscape" xmlns:rdf="http://www.w3.org/1999/02/22-rdf-syntax-ns#" xmlns:sodipodi="http://sodipodi.sourceforge.net/DTD/sodipodi-0.dtd" xmlns:svg="http://www.w3.org/2000/svg"
	 xmlns="http://www.w3.org/2000/svg" xmlns:xlink="http://www.w3.org/1999/xlink" x="0px" y="0px" viewBox="0 0 225 328.2"
	 style="enable-background:new 0 0 225 328.2;" xml:space="preserve">
<style type="text/css">
	.st0{fill:#020203;}
	.st1{fill:none;stroke:#020203;stroke-miterlimit:10;}
	.st2{fill:#007BC4;}
	.st3{fill:none;stroke:#007BC4;stroke-miterlimit:10;}
	.st4{fill:#F08534;}
	.st5{font-family:'MyriadPro-Regular';}
	.st6{font-size:12px;}
</style>
<circle class="st0" cx="182.6" cy="310.5" r="2.6"/>
<line class="st1" x1="160.5" y1="320" x2="182.6" y2="310.5"/>
<line class="st1" x1="182.6" y1="310.5" x2="202" y2="296.7"/>
<sodipodi:namedview  bordercolor="#666666" borderopacity="1.0" id="base" inkscape:current-layer="layer1" inkscape:cx="284.27627" inkscape:cy="182.72055" inkscape:document-units="mm" inkscape:guide-bbox="true" inkscape:pageopacity="0.0" inkscape:pageshadow="2" inkscape:window-height="995" inkscape:window-maximized="1" inkscape:window-width="2520" inkscape:window-x="20" inkscape:window-y="65" inkscape:zoom="0.99437388" pagecolor="#ffffff" showborder="true" showgrid="false" showguides="true" width="200mm">
	<inkscape:grid  dotted="false" empspacing="4" id="grid815" spacingx="10" spacingy="10" type="xygrid" units="mm">
		</inkscape:grid>
</sodipodi:namedview>
<g id="layer1" transform="translate(0,-177)" inkscape:groupmode="layer" inkscape:label="Layer 1">
</g>
<line class="st1" x1="127" y1="112.1" x2="141" y2="126.2"/>
<circle class="st0" cx="126.5" cy="111.6" r="2.6"/>
<line class="st1" x1="155.1" y1="111.4" x2="141" y2="125.4"/>
<circle class="st0" cx="155.6" cy="110.9" r="2.6"/>
<line class="st1" x1="124.1" y1="271.4" x2="124.1" y2="250.9"/>
<line class="st1" x1="124.1" y1="250.9" x2="124.1" y2="230.5"/>
<circle class="st0" cx="124.1" cy="250.9" r="2.6"/>
<circle class="st0" cx="124.1" cy="230.5" r="2.6"/>
<circle class="st0" cx="184.4" cy="32.8" r="2.6"/>
<line class="st1" x1="161.2" y1="38.5" x2="184.4" y2="32.8"/>
<circle class="st0" cx="161.2" cy="16" r="2.6"/>
<line class="st1" x1="161.2" y1="40" x2="161.2" y2="16"/>
<circle class="st2" cx="111.2" cy="85.9" r="2.6"/>
<line class="st3" x1="121.1" y1="55.2" x2="111.2" y2="85.9"/>
<circle class="st0" cx="116.1" cy="31.7" r="2.6"/>
<line class="st3" x1="146.7" y1="58" x2="121" y2="55.7"/>
<circle class="st2" cx="147" cy="58" r="2.6"/>
<line class="st3" x1="160" y1="80.3" x2="146.8" y2="58.2"/>
<circle class="st2" cx="160.1" cy="80.2" r="2.6"/>
<line class="st3" x1="111.2" y1="85.9" x2="160" y2="80.3"/>
<line class="st1" x1="121.1" y1="55.2" x2="116.1" y2="31.7"/>
<circle class="st2" cx="120.9" cy="55.7" r="2.6"/>
<circle class="st0" cx="116.1" cy="7.8" r="2.6"/>
<line class="st1" x1="116.1" y1="31.7" x2="116.1" y2="7.8"/>
<circle class="st2" cx="161.2" cy="39" r="2.6"/>
<line class="st3" x1="147" y1="58.3" x2="161.2" y2="39"/>
<circle class="st2" cx="111.7" cy="325.6" r="2.6"/>
<line class="st3" x1="121.6" y1="294.8" x2="111.7" y2="325.6"/>
<line class="st3" x1="147.2" y1="297.7" x2="121.6" y2="295.3"/>
<circle class="st2" cx="147.6" cy="297.7" r="2.6"/>
<line class="st3" x1="160.5" y1="320" x2="147.4" y2="297.9"/>
<circle class="st2" cx="160.7" cy="319.9" r="2.6"/>
<line class="st3" x1="111.7" y1="325.6" x2="160.5" y2="320"/>
<line class="st3" x1="121.6" y1="294.8" x2="124.1" y2="272.4"/>
<circle class="st2" cx="121.5" cy="295.3" r="2.6"/>
<circle class="st2" cx="124.1" cy="273.1" r="2.6"/>
<text transform="matrix(1 0 0 1 129.6413 276.6295)" class="st4 st5 st6">$1$</text>
<line class="st3" x1="141" y1="167.8" x2="141" y2="147.4"/>
<line class="st3" x1="141" y1="146.7" x2="141" y2="126.2"/>
<line class="st3" x1="141" y1="168.5" x2="141" y2="189"/>
<circle class="st2" cx="141" cy="167.8" r="2.6"/>
<circle class="st2" cx="141" cy="147.4" r="2.6"/>
<circle class="st2" cx="141" cy="126.2" r="2.6"/>
<line class="st1" x1="127" y1="203" x2="141" y2="189"/>
<circle class="st0" cx="126.5" cy="203.5" r="2.6"/>
<line class="st1" x1="155.1" y1="203.8" x2="141" y2="189.7"/>
<circle class="st0" cx="155.6" cy="204.3" r="2.6"/>
<circle class="st2" cx="141" cy="189" r="2.6"/>
<circle class="st0" cx="185.2" cy="271.7" r="2.6"/>
<line class="st1" x1="162" y1="277.4" x2="185.2" y2="271.7"/>
<circle class="st0" cx="162" cy="254.9" r="2.6"/>
<line class="st1" x1="162" y1="278.9" x2="162" y2="254.9"/>
<circle class="st2" cx="162" cy="277.9" r="2.6"/>
<line class="st3" x1="147.8" y1="297.2" x2="162" y2="277.9"/>
<circle class="st0" cx="202" cy="296.7" r="2.6"/>
<text transform="matrix(1 0 0 1 41.8102 162.5682)" class="st2 st5 st6">$\sk(C)$</text>
</svg>
