<?xml version="1.0" encoding="utf-8"?>
<!-- Generator: Adobe Illustrator 23.0.3, SVG Export Plug-In . SVG Version: 6.00 Build 0)  -->
<svg version="1.1"
	 id="svg8" inkscape:version="0.92.4 (unknown)" sodipodi:docname="figure.svg" xmlns:cc="http://creativecommons.org/ns#" xmlns:dc="http://purl.org/dc/elements/1.1/" xmlns:inkscape="http://www.inkscape.org/namespaces/inkscape" xmlns:rdf="http://www.w3.org/1999/02/22-rdf-syntax-ns#" xmlns:sodipodi="http://sodipodi.sourceforge.net/DTD/sodipodi-0.dtd" xmlns:svg="http://www.w3.org/2000/svg"
	 xmlns="http://www.w3.org/2000/svg" xmlns:xlink="http://www.w3.org/1999/xlink" x="0px" y="0px" viewBox="0 0 680.3 236.5"
	 style="enable-background:new 0 0 680.3 236.5;" xml:space="preserve">
<style type="text/css">
	.st0{fill:#020203;}
	.st1{font-family:'ArialMT';}
	.st2{font-size:12px;}
	.st3{fill:none;stroke:#7B7878;stroke-width:2;stroke-linecap:round;stroke-linejoin:round;stroke-miterlimit:10;}
	.st4{fill:none;stroke:#020203;stroke-miterlimit:10;}
	.st5{font-family:'MyriadPro-Regular';}
</style>
<sodipodi:namedview  bordercolor="#666666" borderopacity="1.0" id="base" inkscape:current-layer="layer1" inkscape:cx="284.27627" inkscape:cy="182.72055" inkscape:document-units="mm" inkscape:guide-bbox="true" inkscape:pageopacity="0.0" inkscape:pageshadow="2" inkscape:window-height="995" inkscape:window-maximized="1" inkscape:window-width="2520" inkscape:window-x="20" inkscape:window-y="65" inkscape:zoom="0.99437388" pagecolor="#ffffff" showborder="true" showgrid="false" showguides="true" width="200mm">
	<inkscape:grid  dotted="false" empspacing="4" id="grid815" spacingx="10" spacingy="10" type="xygrid" units="mm">
		</inkscape:grid>
</sodipodi:namedview>
<g id="layer1" transform="translate(0,-177)" inkscape:groupmode="layer" inkscape:label="Layer 1">
</g>
<text transform="matrix(1 0 0 1 188.7557 28.5248)" class="st0 st1 st2">$C$</text>
<text transform="matrix(1 0 0 1 136.5911 206.9214)" class="st0 st1 st2">$\spec K$</text>
<circle class="st0" cx="206.9" cy="203.7" r="2.7"/>
<text transform="matrix(1 0 0 1 522.8901 203.7396)" class="st0 st1 st2">$\spec R$</text>
<circle class="st0" cx="407.3" cy="203.7" r="2.7"/>
<circle class="st0" cx="474.8" cy="203.7" r="2.7"/>
<text transform="matrix(1 0 0 1 399.2635 220.0617)" class="st0 st1 st2">$\eta$</text>
<text transform="matrix(1 0 0 1 466.0753 220.0611)" class="st0 st1 st2">$\mathfrak m$</text>
<rect x="383" y="194.2" class="st3" width="125.8" height="35.1"/>
<path class="st4" d="M211.1,67.7c-13.5,11.7-15.8,21.1-15.6,27.5c0.6,17,20.3,25,18.6,41.4c-1,9-7.9,16-13.2,20.3"/>
<g>
	<g>
		<line class="st4" x1="248.3" y1="207" x2="355.2" y2="207"/>
		<g>
			<path class="st0" d="M361.3,207c-2.8,1.1-6.4,2.9-8.5,4.8l1.7-4.8l-1.7-4.8C354.9,204.2,358.4,206,361.3,207z"/>
		</g>
	</g>
</g>
<path class="st4" d="M248.3,207c-1.4,0-2.5-1.1-2.5-2.5s1.1-2.5,2.5-2.5"/>
<g>
	<g>
		<line class="st4" x1="242.2" y1="107.3" x2="349.1" y2="107.3"/>
		<g>
			<path class="st0" d="M355.2,107.3c-2.8,1.1-6.4,2.9-8.5,4.8l1.7-4.8l-1.7-4.8C348.8,104.5,352.3,106.3,355.2,107.3z"/>
		</g>
	</g>
</g>
<path class="st4" d="M242.2,107.3c-1.4,0-2.5-1.1-2.5-2.5s1.1-2.5,2.5-2.5"/>
<g>
	<g>
		<line class="st4" x1="440.5" y1="168" x2="440.5" y2="181.8"/>
		<g>
			<path class="st0" d="M440.5,187.8c-1.1-2.8-2.9-6.4-4.8-8.5l4.8,1.7l4.8-1.7C443.4,181.5,441.6,185,440.5,187.8z"/>
		</g>
	</g>
</g>
<g>
	<g>
		<line class="st4" x1="206.9" y1="168" x2="206.9" y2="181.8"/>
		<g>
			<path class="st0" d="M206.9,187.8c-1.1-2.8-2.9-6.4-4.8-8.5l4.8,1.7l4.8-1.7C209.7,181.5,207.9,185,206.9,187.8z"/>
		</g>
	</g>
</g>
<text transform="matrix(1 0 0 1 426.8855 112.1)" class="st5 st2">\Huge ?</text>
</svg>
