<?xml version="1.0" encoding="utf-8"?>
<!-- Generator: Adobe Illustrator 23.0.3, SVG Export Plug-In . SVG Version: 6.00 Build 0)  -->
<svg version="1.1"
	 id="svg8" inkscape:version="0.92.4 (unknown)" sodipodi:docname="figure.svg" xmlns:cc="http://creativecommons.org/ns#" xmlns:dc="http://purl.org/dc/elements/1.1/" xmlns:inkscape="http://www.inkscape.org/namespaces/inkscape" xmlns:rdf="http://www.w3.org/1999/02/22-rdf-syntax-ns#" xmlns:sodipodi="http://sodipodi.sourceforge.net/DTD/sodipodi-0.dtd" xmlns:svg="http://www.w3.org/2000/svg"
	 xmlns="http://www.w3.org/2000/svg" xmlns:xlink="http://www.w3.org/1999/xlink" x="0px" y="0px" viewBox="0 0 680.3 114.6"
	 style="enable-background:new 0 0 680.3 114.6;" xml:space="preserve">
<style type="text/css">
	.st0{fill:#020203;}
	.st1{font-family:'ArialMT';}
	.st2{font-size:12px;}
	.st3{fill:none;stroke:#727070;stroke-width:2;stroke-linecap:round;stroke-linejoin:round;stroke-miterlimit:10;}
	.st4{fill:none;stroke:#000000;stroke-miterlimit:10;}
</style>
<sodipodi:namedview  bordercolor="#666666" borderopacity="1.0" id="base" inkscape:current-layer="layer1" inkscape:cx="284.27627" inkscape:cy="182.72055" inkscape:document-units="mm" inkscape:guide-bbox="true" inkscape:pageopacity="0.0" inkscape:pageshadow="2" inkscape:window-height="995" inkscape:window-maximized="1" inkscape:window-width="2520" inkscape:window-x="20" inkscape:window-y="65" inkscape:zoom="0.99437388" pagecolor="#ffffff" showborder="true" showgrid="false" showguides="true" width="200mm">
	<inkscape:grid  dotted="false" empspacing="4" id="grid815" spacingx="10" spacingy="10" type="xygrid" units="mm">
		</inkscape:grid>
</sodipodi:namedview>
<g id="layer1" transform="translate(0,-177)" inkscape:groupmode="layer" inkscape:label="Layer 1">
</g>
<text transform="matrix(1 0 0 1 198.2257 37.168)" class="st0 st1 st2">$\spec K$</text>
<circle class="st0" cx="214.9" cy="57.6" r="2.7"/>
<circle class="st0" cx="437.3" cy="57.6" r="2.7"/>
<circle class="st0" cx="504.8" cy="57.6" r="2.7"/>
<text transform="matrix(1 0 0 1 429.2743 75.9226)" class="st0 st1 st2">$\eta$</text>
<text transform="matrix(1 0 0 1 496.0861 75.922)" class="st0 st1 st2">$\mathfrak m$</text>
<rect x="413" y="48.1" class="st3" width="125.8" height="37.3"/>
<g>
	<g>
		<line class="st4" x1="264.5" y1="62.8" x2="371.4" y2="62.8"/>
		<g>
			<path d="M377.5,62.8c-2.8,1.1-6.4,2.9-8.5,4.8l1.7-4.8L369,58C371.1,60,374.6,61.8,377.5,62.8z"/>
		</g>
	</g>
</g>
<path class="st4" d="M264.5,62.8c-1.4,0-2.5-1.1-2.5-2.5s1.1-2.5,2.5-2.5"/>
<g>
	<text transform="matrix(1 0 0 1 413.0188 37.1679)" class="st1 st2">$\spec R$</text>
</g>
<text transform="matrix(1 0 0 1 312.2808 105.9369)" class="st1 st2">residue fields: </text>
<text transform="matrix(1 0 0 1 429.0229 105.937)" class="st1 st2">$K$</text>
<text transform="matrix(1 0 0 1 496.7192 105.937)" class="st1 st2">$k$</text>
</svg>
