<?xml version="1.0" encoding="utf-8"?>
<!-- Generator: Adobe Illustrator 23.0.3, SVG Export Plug-In . SVG Version: 6.00 Build 0)  -->
<svg version="1.1"
	 id="svg8" inkscape:version="0.92.4 (unknown)" sodipodi:docname="figure.svg" xmlns:cc="http://creativecommons.org/ns#" xmlns:dc="http://purl.org/dc/elements/1.1/" xmlns:inkscape="http://www.inkscape.org/namespaces/inkscape" xmlns:rdf="http://www.w3.org/1999/02/22-rdf-syntax-ns#" xmlns:sodipodi="http://sodipodi.sourceforge.net/DTD/sodipodi-0.dtd" xmlns:svg="http://www.w3.org/2000/svg"
	 xmlns="http://www.w3.org/2000/svg" xmlns:xlink="http://www.w3.org/1999/xlink" x="0px" y="0px" viewBox="0 0 723.4 291.5"
	 style="enable-background:new 0 0 723.4 291.5;" xml:space="preserve">
<style type="text/css">
	.st0{fill:none;stroke:#030304;stroke-linecap:round;stroke-linejoin:round;stroke-miterlimit:10;}
	.st1{fill:none;stroke:#030304;stroke-linecap:round;stroke-linejoin:round;}
	.st2{fill:none;stroke:#030304;stroke-linecap:round;stroke-linejoin:round;stroke-dasharray:6.0201,6.0201;}
	.st3{fill:#020203;}
	.st4{font-family:'ArialMT';}
	.st5{font-size:7.673px;}
	.st6{fill:none;stroke:#030304;stroke-miterlimit:10;}
	.st7{fill:none;stroke:#030304;stroke-miterlimit:10;stroke-dasharray:5.3333,5.3333;}
	.st8{font-size:14.9788px;}
	.st9{font-size:12px;}
	.st10{font-family:'MyriadPro-Regular';}
</style>
<sodipodi:namedview  bordercolor="#666666" borderopacity="1.0" id="base" inkscape:current-layer="layer1" inkscape:cx="284.27627" inkscape:cy="182.72055" inkscape:document-units="mm" inkscape:guide-bbox="true" inkscape:pageopacity="0.0" inkscape:pageshadow="2" inkscape:window-height="995" inkscape:window-maximized="1" inkscape:window-width="2520" inkscape:window-x="20" inkscape:window-y="65" inkscape:zoom="0.99437388" pagecolor="#ffffff" showborder="true" showgrid="false" showguides="true" width="200mm">
	<inkscape:grid  dotted="false" empspacing="4" id="grid815" spacingx="10" spacingy="10" type="xygrid" units="mm">
		</inkscape:grid>
</sodipodi:namedview>
<g id="layer1" transform="translate(0,-177)" inkscape:groupmode="layer" inkscape:label="Layer 1">
</g>
<path class="st0" d="M25.6,116.6c0-3.1,0.1-6.2,0.3-9.3s0.5-6.2,0.9-9.2c0.4-2.9,0.9-6,2.4-8.6c0.6-1,1.5-2.1,2.8-1.6
	c1.2,0.4,2.1,1.7,2.8,2.7c0.7,1,1.4,2.1,2.1,3.2c0.7,1.1,1.4,2.5,2.6,3.2c2.4,1.6,3.9-4.3,4.3-5.7c0.9-2.9,1.5-5.8,2.1-8.7
	c0.6-3,1.2-6,1.8-9c0.6-3,1.1-6,1.6-9.1c0.5-3,1-6,1.5-9c0.1-0.7,0.2-1.4,0.3-2.2 M25.6,116.6c0,3.1,0.1,6.2,0.3,9.3s0.5,6.3,1,9.4
	c0.3,1.6,0.6,3.2,1,4.7c0.4,1.4,0.8,2.9,1.7,4c2,2.6,4.4-0.5,5.6-2.2c0.7-1.1,1.4-2.1,2-3.2c0.6-1,1.4-2.4,2.6-2.9
	c1.4-0.6,2.2,1.2,2.7,2.1c0.6,1.4,1.1,2.8,1.5,4.3c0.9,3,1.5,6,2.2,9.1c0.6,3,1.2,5.9,1.7,8.9c0.6,3,1.1,6.1,1.6,9.1s1,6,1.5,9.1
	c0.1,0.8,0.2,1.6,0.4,2.4"/>
<g>
	<line class="st0" x1="161.7" y1="86.5" x2="161.7" y2="134.7"/>
	<line class="st0" x1="139.5" y1="73.5" x2="166.4" y2="97.5"/>
	<line class="st0" x1="121" y1="97.7" x2="148" y2="73.7"/>
	<line class="st0" x1="125.4" y1="134.7" x2="125.4" y2="86.5"/>
	<line class="st0" x1="148.5" y1="147.6" x2="121.6" y2="123.5"/>
	<g>
		<g>
			<line class="st1" x1="166.4" y1="123.7" x2="164.7" y2="125.2"/>
			<line class="st2" x1="161.4" y1="128.2" x2="142.8" y2="144.8"/>
			<line class="st1" x1="141.1" y1="146.3" x2="139.5" y2="147.8"/>
		</g>
	</g>
</g>
<g>
	<line class="st0" x1="373.1" y1="173.7" x2="373.1" y2="45.2"/>
	<line class="st0" x1="350.9" y1="150.7" x2="385.9" y2="150.7"/>
	<line class="st0" x1="350.9" y1="167.6" x2="385.9" y2="167.6"/>
	<line class="st0" x1="350.9" y1="55.8" x2="385.9" y2="55.8"/>
	<line class="st0" x1="350.9" y1="72.8" x2="385.9" y2="72.8"/>
	<text transform="matrix(1.5639 0 0 1 360.8078 112.8666)" class="st3 st4 st5">2</text>
</g>
<g>
	<line class="st6" x1="423.7" y1="214.2" x2="457.1" y2="180.7"/>
	<line class="st6" x1="419.3" y1="207.2" x2="452.7" y2="173.7"/>
	<line class="st6" x1="423.7" y1="155.5" x2="457.1" y2="189"/>
	<line class="st6" x1="423.7" y1="166.5" x2="457.1" y2="133"/>
	<line class="st6" x1="424.1" y1="22.8" x2="457.6" y2="56.2"/>
	<line class="st6" x1="419.7" y1="29.8" x2="453.2" y2="63.2"/>
	<line class="st6" x1="424.1" y1="81.4" x2="457.6" y2="48"/>
	<line class="st6" x1="424.1" y1="70.4" x2="457.6" y2="103.9"/>
	<g>
		<g>
			<line class="st6" x1="452" y1="145.2" x2="452" y2="142.2"/>
			<line class="st7" x1="452" y1="136.9" x2="452" y2="96.9"/>
			<line class="st6" x1="452" y1="94.2" x2="452" y2="91.2"/>
		</g>
	</g>
	<text transform="matrix(1 0 0 1 426.1615 180.746)" class="st3 st4 st8">2</text>
	<text transform="matrix(1 0 0 1 426.6723 149.7463)" class="st3 st4 st8">2</text>
	<text transform="matrix(1 0 0 1 426.1617 98.8213)" class="st3 st4 st8">2</text>
	<text transform="matrix(1 0 0 1 426.1615 67.3999)" class="st3 st4 st8">2</text>
	<text transform="matrix(1 0 0 1 438.6526 123.726)" class="st3 st4 st8">2</text>
</g>
<g>
	<line class="st6" x1="699.4" y1="215.6" x2="699.4" y2="27.9"/>
	<line class="st6" x1="665" y1="200" x2="705.3" y2="200"/>
	<line class="st6" x1="673.9" y1="206.6" x2="673.9" y2="174.8"/>
	<line class="st6" x1="665.3" y1="129.2" x2="705.7" y2="129.2"/>
	<line class="st6" x1="674.3" y1="135.8" x2="674.3" y2="104"/>
	<line class="st6" x1="665.3" y1="58.4" x2="705.7" y2="58.4"/>
	<line class="st6" x1="674.3" y1="65" x2="674.3" y2="33.2"/>
	<text transform="matrix(1 0 0 1 684.8265 216.2166)" class="st3 st4 st9">2</text>
	<text transform="matrix(1 0 0 1 684.8265 145.8851)" class="st3 st4 st9">2</text>
	<text transform="matrix(1 0 0 1 684.8265 73.554)" class="st3 st4 st9">2</text>
	<text transform="matrix(1 0 0 1 708.6254 99.8215)" class="st3 st4 st9">3</text>
</g>
<g>
	<line class="st6" x1="580.3" y1="208.5" x2="620.6" y2="208.5"/>
	<line class="st6" x1="580.3" y1="166.9" x2="620.6" y2="166.9"/>
	<line class="st6" x1="580.3" y1="125.3" x2="620.6" y2="125.3"/>
	<line class="st6" x1="580.3" y1="83.2" x2="620.6" y2="83.2"/>
	<line class="st6" x1="580.3" y1="39.7" x2="620.6" y2="39.7"/>
	<line class="st6" x1="614.1" y1="215.3" x2="614.1" y2="162.2"/>
	<line class="st6" x1="586.1" y1="171.1" x2="586.1" y2="77.4"/>
	<line class="st6" x1="614.1" y1="88.8" x2="614.1" y2="35.1"/>
	<text transform="matrix(1 0 0 1 573.7007 147.5152)" class="st3 st4 st9">4</text>
	<text transform="matrix(1 0 0 1 599.6616 162.0166)" class="st3 st4 st9">3</text>
	<text transform="matrix(1 0 0 1 599.6616 120.2607)" class="st3 st4 st9">2</text>
	<text transform="matrix(1 0 0 1 599.6616 79.2624)" class="st3 st4 st9">3</text>
	<text transform="matrix(1 0 0 1 623.4878 60.1509)" class="st3 st4 st9">2</text>
	<text transform="matrix(1 0 0 1 623.4878 193.5387)" class="st3 st4 st9">2</text>
</g>
<g>
	<line class="st6" x1="497.3" y1="215.1" x2="537.7" y2="215.1"/>
	<line class="st6" x1="497.3" y1="173.4" x2="537.7" y2="173.4"/>
	<line class="st6" x1="497.3" y1="131.8" x2="537.7" y2="131.8"/>
	<line class="st6" x1="497.3" y1="89.8" x2="537.7" y2="89.8"/>
	<line class="st6" x1="497.3" y1="46.2" x2="537.7" y2="46.2"/>
	<line class="st6" x1="531.1" y1="221.8" x2="531.1" y2="168.7"/>
	<line class="st6" x1="503.2" y1="177.6" x2="503.2" y2="128.9"/>
	<line class="st6" x1="531.1" y1="138.3" x2="531.1" y2="41.6"/>
	<text transform="matrix(1 0 0 1 490.7643 154.1156)" class="st3 st4 st9">4</text>
	<text transform="matrix(1 0 0 1 516.7253 168.618)" class="st3 st4 st9">3</text>
	<text transform="matrix(1 0 0 1 516.7253 126.861)" class="st3 st4 st9">5</text>
	<text transform="matrix(1 0 0 1 516.7253 85.8628)" class="st3 st4 st9">3</text>
	<text transform="matrix(1 0 0 1 540.5515 66.7513)" class="st3 st4 st9">6</text>
	<text transform="matrix(1 0 0 1 540.5515 200.1391)" class="st3 st4 st9">2</text>
	<line class="st6" x1="506.1" y1="57.2" x2="506.1" y2="21.6"/>
	<text transform="matrix(1 0 0 1 493.6999 33.7424)" class="st3 st4 st9">2</text>
	<text transform="matrix(1 0 0 1 516.7253 40.1617)" class="st3 st4 st9">4</text>
</g>
<g>
	<path class="st0" d="M95.8,150.8c-7.3-6.3-22-21-21.7-40.9c0.3-19.1,14.4-33.2,21.7-39.5"/>
	<path class="st0" d="M74.1,150.8c8.1-6.3,24.5-21,24.1-41c-0.3-19.1-16-33.1-24.2-39.4"/>
</g>
<g>
	<line class="st0" x1="210.5" y1="154.9" x2="210.5" y2="71.9"/>
	<line class="st0" x1="183.1" y1="147.2" x2="219.2" y2="147.2"/>
	<line class="st0" x1="183.1" y1="113.4" x2="219.2" y2="113.4"/>
	<line class="st0" x1="183.1" y1="81.2" x2="219.2" y2="81.2"/>
	<text transform="matrix(0.8071 0 0 1 206.0058 66.1882)" class="st10 st9">6</text>
	<text transform="matrix(0.8071 0 0 1 188.0087 75.3264)" class="st10 st9">3</text>
	<text transform="matrix(0.8071 0 0 1 188.0087 109.5759)" class="st10 st9">2</text>
</g>
<g>
	<line class="st0" x1="263.1" y1="154.7" x2="263.1" y2="71.7"/>
	<line class="st0" x1="235.8" y1="146.9" x2="271.8" y2="146.9"/>
	<line class="st0" x1="235.8" y1="113.2" x2="271.8" y2="113.2"/>
	<line class="st0" x1="235.8" y1="80.9" x2="271.8" y2="80.9"/>
	<text transform="matrix(0.8071 0 0 1 258.6712 65.9239)" class="st10 st9">4</text>
	<text transform="matrix(0.8071 0 0 1 240.6736 75.0626)" class="st10 st9">2</text>
</g>
<g>
	<line class="st0" x1="319.2" y1="154.9" x2="319.2" y2="71.9"/>
	<line class="st0" x1="291.8" y1="147.2" x2="327.9" y2="147.2"/>
	<line class="st0" x1="291.8" y1="113.4" x2="327.9" y2="113.4"/>
	<line class="st0" x1="291.8" y1="81.2" x2="327.9" y2="81.2"/>
	<text transform="matrix(0.8071 0 0 1 314.7352 66.1882)" class="st10 st9">3</text>
</g>
<text transform="matrix(1 0 0 1 96.638 137.5758)" class="st10 st9">2</text>
<text transform="matrix(0.2689 0 0 1 34.0061 257.5409)" class="st10 st9">$\mathrm I_0$</text>
<text transform="matrix(0.2689 0 0 1 78.6126 257.5409)" class="st10 st9">$\mathrm I_1$</text>
<text transform="matrix(0.2689 0 0 1 131.4341 257.5412)" class="st10 st9">$\mathrm I_n$</text>
<text transform="matrix(0.4648 0 0 1 183.7 257.541)" class="st10 st9">$\mathrm{II}$</text>
<text transform="matrix(0.4648 0 0 1 234.2427 257.541)" class="st10 st9">$\mathrm{III}$</text>
<text transform="matrix(0.4648 0 0 1 290.5988 257.5411)" class="st10 st9">$\mathrm{IV}$</text>
<text transform="matrix(0.2689 0 0 1 354.2244 257.5412)" class="st10 st9">$\mathrm I_0^*$</text>
<text transform="matrix(0.2689 0 0 1 426.1618 257.5408)" class="st10 st9">$\mathrm I_n^*$</text>
<text transform="matrix(0.4648 0 0 1 497.1925 257.5411)" class="st10 st9">$\mathrm{II}^*$</text>
<text transform="matrix(0.4648 0 0 1 577.1696 257.5407)" class="st10 st9">$\mathrm{III}^*$</text>
<text transform="matrix(0.4648 0 0 1 666.3073 257.5413)" class="st10 st9">$\mathrm{IV}^*$</text>
</svg>
