<?xml version="1.0" encoding="utf-8"?>
<!-- Generator: Adobe Illustrator 23.0.3, SVG Export Plug-In . SVG Version: 6.00 Build 0)  -->
<svg version="1.1"
	 id="svg8" inkscape:version="0.92.4 (unknown)" sodipodi:docname="figure.svg" xmlns:cc="http://creativecommons.org/ns#" xmlns:dc="http://purl.org/dc/elements/1.1/" xmlns:inkscape="http://www.inkscape.org/namespaces/inkscape" xmlns:rdf="http://www.w3.org/1999/02/22-rdf-syntax-ns#" xmlns:sodipodi="http://sodipodi.sourceforge.net/DTD/sodipodi-0.dtd" xmlns:svg="http://www.w3.org/2000/svg"
	 xmlns="http://www.w3.org/2000/svg" xmlns:xlink="http://www.w3.org/1999/xlink" x="0px" y="0px" viewBox="0 0 680.3 335.3"
	 style="enable-background:new 0 0 680.3 335.3;" xml:space="preserve">
<style type="text/css">
	.st0{fill:#010202;}
	.st1{font-family:'MyriadPro-Regular';}
	.st2{font-size:12px;}
	.st3{fill:none;stroke:#B51817;stroke-width:1.5;stroke-miterlimit:10;stroke-dasharray:3.9859,3.9859;}
	.st4{fill:#B51817;}
	.st5{fill:none;stroke:#010202;stroke-width:0.5;stroke-miterlimit:10;}
</style>
<sodipodi:namedview  bordercolor="#666666" borderopacity="1.0" id="base" inkscape:current-layer="layer1" inkscape:cx="284.27627" inkscape:cy="182.72055" inkscape:document-units="mm" inkscape:guide-bbox="true" inkscape:pageopacity="0.0" inkscape:pageshadow="2" inkscape:window-height="995" inkscape:window-maximized="1" inkscape:window-width="2520" inkscape:window-x="20" inkscape:window-y="65" inkscape:zoom="0.99437388" pagecolor="#ffffff" showborder="true" showgrid="false" showguides="true" width="200mm">
	<inkscape:grid  dotted="false" empspacing="4" id="grid815" spacingx="10" spacingy="10" type="xygrid" units="mm">
		</inkscape:grid>
</sodipodi:namedview>
<g id="layer1" transform="translate(0,-177)" inkscape:groupmode="layer" inkscape:label="Layer 1">
</g>
<g>
	<path class="st0" d="M335.8,36.2c0-0.3,0.3-0.6,0.6-0.6c0.3,0,0.6,0.3,0.6,0.6V293c0,0.3-0.3,0.6-0.6,0.6c-0.3,0-0.6-0.3-0.6-0.6
		V36.2z"/>
	<path class="st0" d="M368.8,282.6c0.3-0.1,0.6,0,0.8,0.2c0.1,0.3,0,0.6-0.2,0.8c-0.3,0.1-0.6,0-0.8-0.2c-0.1-0.2-0.1-0.4,0-0.5
		c0-0.1-0.1,0.2-0.1,0.1c0-0.1,0,0.2,0,0.1c0-0.1,0,0.1,0,0.1l-0.3-0.4c-0.1-0.1-0.1-0.3,0-0.5c0.1-0.1,0.3-0.1,0.4-0.1l0.4,0.2
		l0.1,0l0,0l-0.1,0l-0.1,0C368.9,282.5,368.7,282.6,368.8,282.6 M337.3,267.1c-0.2-0.1-0.3-0.2-0.3-0.4l0-0.4
		c0.1-0.2,0.3-0.4,0.5-0.5c1.1-0.2,1.9,0.5,2.7,0.9c3.1,1.8,6.2,2.9,9.6,4.8c1.6,0.9,3,1.8,4.5,2.8c1.5,1,3.2,1.9,4.4,2.8
		c1.5,1.1,3.3,2,5.3,2.6c1.1,0.3,2.2,0.7,3.2,1.2l0.9,0.5l1,0.6c0.1,0.1,0.2,0.1,0.3,0.2c0.1,0.1,0.2,0.2,0.3,0.5l0,0.3
		c0,0.1-0.1,0.2-0.1,0.3l-0.2,0.2c-0.4,0.2-0.5,0.1-0.7,0.1c-0.1,0-0.2-0.1-0.3-0.1l-1.1-0.7l-0.7-0.4c-0.8-0.4-2-0.8-2.9-1.1
		c-2.2-0.6-4.1-1.7-5.8-2.9c-1.1-0.8-2.8-1.8-4.4-2.8c-1.5-1-2.8-1.8-4.4-2.8c-3.2-1.9-6.3-3-9.5-4.9c-0.8-0.5-1.6-0.9-1.6-0.9
		c-0.2,0-0.5-0.1-0.7-0.3L337.3,267.1z"/>
	<path class="st0" d="M353.5,289.4c0.4,0.1,0.7,0.4,0.6,0.8c-0.1,0.4-0.4,0.7-0.8,0.6c-0.4-0.1-0.7-0.4-0.6-0.8
		c0-0.3,0.2-0.5,0.5-0.6c0.1,0-0.2,0.1-0.1,0.1c0.1-0.1-0.1,0.1-0.1,0.1l0.1-0.1l1.1-1.6c0.1-0.1,0.3-0.2,0.5-0.1
		c0.1,0.1,0.2,0.3,0.1,0.4c-0.4,0.9-0.6,1.5-0.7,1.7c0,0-0.1-0.2-0.1-0.2c0,0-0.2-0.2-0.1-0.2c0,0-0.2-0.1-0.1-0.1
		C353.8,289.5,353.4,289.3,353.5,289.4 M357.6,278.2c0.3,0.1,0.4,0.3,0.3,0.6c0,0.2-0.2,0.3-0.4,0.3c-0.1,0,0.2-0.1,0.2-0.1l0,0
		l-0.1,0.2l-0.3,0.9l-0.7,2.8l-0.8,2.4l-0.5,1.9l-0.6,1.9c-0.2,0.6-0.5,1.1-0.8,1.4c-0.1,0.1-0.3,0.2-0.4,0.2l-0.3,0
		c-0.1,0-0.3,0.1-0.6-0.3c-0.1-0.1-0.1-0.2-0.2-0.3c-0.1-0.4,0-0.4,0-0.4c0-0.2,0.1-0.3,0.2-0.4c0,0,0.3-0.4,0.5-0.8l0.6-1.8
		l0.6-1.9l0.8-2.4l0.9-2.8l0.4-1l0.3-0.4C357.2,278.3,357.4,278.2,357.6,278.2"/>
	<path class="st0" d="M385.6,275.1c0.2,0.1,0.4,0.3,0.3,0.6c-0.1,0.2-0.3,0.4-0.6,0.3c-0.1,0-0.1-0.1-0.2-0.1l0.1,0.1l-0.1,0l-0.4,0
		c-0.4,0-0.9,0.2-1.5,0.4c-0.2,0.1-0.4,0-0.4-0.2c-0.1-0.2,0-0.3,0.2-0.4c0.7-0.3,1.2-0.5,1.7-0.6
		C385.1,275.1,385.3,275,385.6,275.1 M363.6,281.7c-0.1,0.2-0.4,0.4-0.6,0.3c-0.2-0.1-0.4-0.4-0.3-0.6c0,0,0-0.1,0.1-0.1
		c0.2-0.3,0.5-0.5,0.9-0.7c0.4-0.5,1.2-1,2.2-1.4l3.3-0.8c3-0.8,6.8-1.8,10-2.5l3.9-0.7l1.6-0.2c0.1,0,0.2,0,0.3,0l0.7,0.1
		c0.1,0,0.1,0,0.3,0.2c0,0,0.1,0.1,0.1,0.2c0.2,0.4,0.1,0.5,0,0.6c-0.2,0.5-0.5,0.6-0.9,0.8c-0.1,0-0.2,0.1-0.3,0.1l-1.6,0.2
		l-3.8,0.7c-3.2,0.6-7,1.5-10.1,2.2l-3.1,0.7c-1.1,0.2-1.8,0.4-2.4,0.6C363.8,281.3,363.6,281.5,363.6,281.7"/>
	<path class="st0" d="M365.6,259c0.3-0.1,0.6,0,0.7,0.3c0.1,0.3,0,0.6-0.3,0.7c-0.1,0-0.2,0-0.3,0c-0.2,0-1-0.1-1.9-0.6
		c-0.2-0.1-0.2-0.3-0.1-0.4c0.1-0.1,0.2-0.2,0.4-0.2C364.8,259.1,365.5,259,365.6,259 M339.3,257.3c-0.3,0-0.5-0.1-0.5-0.4
		c0-0.2,0.1-0.5,0.4-0.5c2.5-0.5,5.6-0.1,8.7,0.4c1.9,0.3,3.3,0.8,5.5,1.4c1.8,0.5,4.3,0.6,6.7,0.6l2.9,0l0.9,0l1.1,0l1.1,0
		c0.5,0,0.8,0.4,0.8,0.8c0,0.5-0.4,0.8-0.8,0.8l-1.1,0l-1.1,0l-0.9,0l-2.9,0c-2.4-0.1-5-0.2-7.1-0.8c-2.2-0.6-3.6-1.2-5.3-1.5
		C344.6,257.5,341.7,257,339.3,257.3 M366.7,259.5c0,0.5-0.4,0.8-0.8,0.8c-0.5,0-0.8-0.4-0.8-0.8c0-0.5,0.4-0.8,0.8-0.8
		C366.4,258.7,366.7,259,366.7,259.5"/>
	<path class="st0" d="M363.7,259.1c-0.1,0.2-0.4,0.3-0.6,0.2s-0.3-0.4-0.2-0.6c0-0.1,0.1-0.1,0.1-0.2l0,0l-0.1,0.1
		c0,0-0.1,0.3-0.1,0.2c0-0.1,0,0.3,0,0.2c0-0.1,0.2,0.2,0.1,0.2l0.1,0.1c0,0,0.1,0,0.1,0l-0.2,0.1l0.1-0.1l0,0.1c0,0-0.1-0.2,0-0.1
		c0,0-0.2-0.1-0.1-0.1c0.1,0-0.2-0.1-0.2-0.1c0.1,0,0.2,0,0.2,0.1c0.1,0-0.2-0.1-0.1-0.1c0.1,0-0.1,0-0.1,0l0,0l0.1-0.1l0.6-0.3
		l3.1-1.6c1.2-0.6,2.8-1.3,4.7-2l6.2-2.4c4.1-1.6,7.4-2.7,10.2-3.7c1.4-0.5,2.6-1,3.7-1.5l1.2-0.6l0.7-0.4l0.2-0.1l0,0l0,0.1
		c0,0-0.1,0.2-0.1,0.1c0-0.1,0,0.3,0,0.2c0-0.1,0.1,0.2,0,0.2c0-0.1,0.2,0.2,0.2,0.2c-0.1-0.1,0.2,0.1,0.2,0.1l0.1,0l-0.2,0
		l-1.2,0.6c-0.2,0.1-0.4,0-0.5-0.1c-0.1-0.1-0.1-0.3,0.1-0.4l1.2-0.9l0.3-0.2c0.1,0,0-0.1,0.4-0.1c0.3,0,0.5,0.3,0.6,0.5l0,0.4
		l-0.2,0.4l-0.7,0.7l-1.3,0.7c-1.1,0.5-2.4,1.1-3.8,1.6c-2.8,1-6.1,2.1-10.2,3.6l-6.2,2.3c-1.9,0.7-3.5,1.3-4.6,1.9l-3.3,1.5
		l-0.6,0.2l-0.4,0.1c-0.1,0-0.4,0.1-0.6-0.1c-0.1-0.1-0.1-0.1-0.2-0.2c-0.1-0.2-0.1-0.4,0-0.5l0.2-0.3c0.1-0.1,0.3-0.3,0.5-0.3
		l-0.1,0.1l0.3-0.3l0.1,0l0.2-0.1c0.3,0,0.5,0.3,0.5,0.4L363.7,259.1z"/>
	<path class="st0" d="M385.3,253c0.3,0,0.5,0.2,0.5,0.4c0,0.3-0.2,0.5-0.4,0.5c0,0,0,0,0,0c-1,0-1.6,0-2,0.1l0.1-0.1l-0.3,0.2l0,0
		c0,0,0.1-0.3,0.1-0.2c0,0.1,0,0.1,0,0.2c0,0.1,0-0.2,0-0.1l0,0l0.1,0.3l0.5,1c1.4,3,3,6.7,4.8,10.6c0.9,1.9,1.9,3.4,2.8,5
		c0.4,0.7,0.8,1.5,1.1,2.3l0.4,1.2c0,0.1,0,0.1,0,0.2c0.1,0.6,0,1-0.1,1.3l-1.5-0.3l0-0.1c0-0.2,0-0.7,0.1-1.3
		c0.1-0.5,0.5-1,0.9-1.5c0.1-0.1,0.3-0.1,0.5,0c0.1,0.1,0.1,0.3,0,0.4c-0.3,0.5-0.5,0.9-0.4,1.2l0.1,0.6l0.1,0.1c0,0-0.1-0.1,0,0
		c0.3,0.3,0.4,0.7,0.1,1.1c-0.2,0.3-0.7,0.4-1,0.2c-0.5-0.3-0.5-0.5-0.5-0.7l-0.2-0.5c0-0.1,0-0.1-0.1-0.2l-0.3-1l-1-2.1
		c-0.8-1.5-1.8-3.1-2.8-5.1c-1.8-3.9-3.3-7.8-4.6-10.7l-0.4-1.2l-0.1-0.6c0-0.2,0.1-0.5,0.3-0.8c0,0,0.1-0.1,0.1-0.1
		c0.3-0.2,0.5-0.1,0.6,0l0.2,0l-0.1,0C383.7,253.1,384.4,253.1,385.3,253"/>
	<path class="st0" d="M389.1,251.4c-0.2-0.1-0.3-0.2-0.3-0.4c0-0.4,0.1-0.4,0.2-0.4l0.1-0.1l0.2-0.1l1.4-0.4l4.1-0.8
		c1.9-0.4,4.2-1,6.8-1.7c2.6-0.7,5.4-1.4,8.3-1.9c3.8-0.7,7.7-0.9,10.6-1l3.3-0.2l0.7-0.1l0.2,0c0.1,0,0.1-0.1,0.2-0.1
		c0.1,0-0.3,0.2-0.2,0.1c0.1-0.1-0.2,0.3-0.1,0.2c0-0.1,0,0.1,0,0.1l0,0l-0.3-0.5c-0.2-0.2-0.4-0.3-0.5-0.3l-0.1,0l-0.2,0.2
		c-0.1,0.2-0.3,0.2-0.5,0.1c-0.1-0.1-0.2-0.2-0.1-0.4c0.1-0.2,0.2-0.4,0.4-0.6c0.2-0.1,0.4-0.2,0.6-0.3c0.4-0.1,0.9,0.1,1.2,0.3
		c0.4,0.2,0.7,0.5,0.9,0.8c0.1,0.2,0.2,0.4,0.2,0.6c0,0.3-0.1,0.7-0.4,1c0,0-0.1,0.1-0.2,0.1c-0.6,0.3-1,0.2-1.4,0.3
		c-0.9,0.1-2.1,0.1-3.5,0.2c-3,0.2-6.7,0.4-10.4,1c-2.8,0.5-5.6,1.1-8.2,1.7c-2.6,0.6-4.9,1.2-6.9,1.6l-4.1,0.7l-1.5,0.2l-0.2,0
		C389.3,251.5,389.4,251.6,389.1,251.4 M389.7,250.5c0.3,0,0.5,0.2,0.5,0.4c0,0.2-0.1,0.4-0.4,0.5l-0.2,0.1l0,0c0,0,0.2-0.1,0.1,0
		c0,0,0.1-0.1,0.1-0.1c-0.2,0.2-0.5,0.2-0.7,0c-0.2-0.2-0.2-0.5,0-0.7c0.2-0.2,0.5-0.2,0.7,0c0.1,0.1,0.1,0.1,0.1,0.2
		c0,0.1-0.1-0.3-0.1-0.2C389.8,250.7,389.5,250.5,389.7,250.5c0,0.1-0.2,0-0.2,0c0.1,0,0,0,0,0L389.7,250.5z"/>
	<path class="st0" d="M409.9,267c-0.1,0.4-0.5,0.6-0.9,0.5c-0.4-0.1-0.6-0.5-0.5-0.9c0.1-0.4,0.5-0.6,0.9-0.5
		c0.3,0.1,0.5,0.4,0.6,0.7c0,0.1,0-0.2,0-0.2l0-0.1c0,0.1-0.1-0.2-0.1-0.1c0.1,0.1-0.2-0.1-0.1-0.1l0,0l0.1,0c0.2,0,0.4,0.1,0.4,0.3
		c0,0.1,0,0.2,0,0.2l-0.2,0.3C409.8,267.1,409.9,266.9,409.9,267 M398.3,250.7c-0.2,0.2-0.5,0.1-0.7-0.1c-0.1-0.2-0.1-0.5,0.1-0.6
		c0.6-0.5,1.3-0.7,2-0.5c0.7,0.2,1.3,0.7,1.9,1.3c1.2,1.3,2.2,3.1,3.2,4.9l3.3,5.8c0.5,1,1,1.8,1.3,2.7l0.3,0.7l0.2,1.1l0,0.3
		c0,0.1,0-0.1,0,0c0.2,0.4,0.1,0.8-0.2,1.1l-0.1,0.1c-0.1,0-0.1,0.1-0.2,0.1l-0.3,0.1c-0.4,0-0.8-0.2-1-0.5c-0.2-0.4-0.2-0.7-0.3-1
		l-0.1-0.6l-0.3-0.7c-0.2-0.6-0.6-1.4-1.1-2.4c-0.8-1.7-2.1-3.8-3.2-5.9c-0.9-1.8-1.7-3.6-2.7-4.9c-0.4-0.6-0.9-1-1.2-1.1
		C399,250.4,398.7,250.4,398.3,250.7"/>
	<path class="st0" d="M338.6,232.9c-0.2,0.1-0.5-0.1-0.6-0.3c-0.1-0.2,0-0.4,0.2-0.5c0.3-0.1,0.7-0.3,1.3-0.4l2.9-0.6
		c1-0.2,2.2-0.4,3.5-0.5c1.2-0.1,2.4-0.1,3.7-0.1c1.8-0.1,3.9-0.2,6.7-0.7c2-0.3,4.3-0.8,6.9-1.4l13.9-3l15.4-3.3l7.3-1.5l5.3-1
		c2.3-0.3,3.5-0.4,4.6-0.3c2.7,0.2,6.3,0.2,9.8,0c2.2-0.1,4-0.1,5.6-0.1c0.9,0.1,1.7,0.2,2.4,0.5l1,0.3c1,0.2,2.5,0.3,3.9,0.1
		c0.7-0.1,1.4-0.3,2.2-0.5l1.5-0.3l0,0l-0.1,0c0,0-0.2,0.2-0.1,0.1c0-0.1-0.1,0.3-0.1,0.2c0-0.1,0.1,0.3,0.1,0.2l0.1,0.1
		c-0.1,0,0.1,0,0.1,0l-0.1,0l-1.2,0c-0.2,0-0.3-0.1-0.3-0.3c0-0.2,0.1-0.3,0.3-0.3l1.3-0.1l0.3,0l0.1,0c0.1,0,0.3,0.3,0.3,0.5
		l-0.2,0.2c-0.4,0.3-0.9,0.3-1.6,0.6c-0.8,0.2-1.6,0.5-2.4,0.6c-1.5,0.1-3.1,0-4.2-0.3l-1-0.4c-0.5,0-1.3,0.1-2.1,0.2
		c-1.7,0-3.5-0.1-5.5,0.1c-3.6,0.2-7.2,0.2-10,0c-0.9-0.1-2.1,0-4.3,0.4l-5.2,1l-7.3,1.5l-15.4,3.3l-14,2.9c-2.6,0.5-4.9,1-7,1.3
		c-2.9,0.4-5.1,0.6-6.9,0.6c-1.4,0-2.6,0-3.7,0.1l-3.4,0.4l-2.8,0.5L338.6,232.9z"/>
	<path class="st0" d="M438.2,237.9c0.3-0.2,0.7-0.1,0.8,0.1c0.2,0.3,0.1,0.7-0.1,0.8c-0.3,0.2-0.7,0.1-0.8-0.1c0,0,0,0,0,0l0,0
		l-1.3-1.1c-0.1-0.1-0.2-0.3-0.1-0.5c0.1-0.1,0.3-0.2,0.4-0.1l1.1,0.6l0.3,0.1l0,0l-0.1,0C438.5,237.8,438.1,237.9,438.2,237.9
		 M428.1,221.4c0,0.3-0.2,0.5-0.4,0.5c-0.2,0-0.4-0.1-0.5-0.3l-0.1-0.2c0-0.1-0.1-0.1,0-0.4c0.1-0.3,0.6-0.4,0.7-0.3l0.3,0.2
		c0.3,0.2,0.5,0.6,0.9,1c0.7,1,1.6,2.5,2.5,4.2l3.2,5.5c0.8,1.5,1.8,2.7,2.6,3.7l1.6,1.9l0.3,0.3c0.1,0.1,0.2,0.1,0.3,0.6
		c0.1,0.5-0.3,1-0.8,1c-0.5,0.1-1-0.3-1-0.8c0,0,0,0,0,0c0-0.1,0,0.2,0,0.2c0-0.1,0.1,0.2,0.1,0.1l0,0l-0.2-0.3l-1.7-2
		c-0.9-1.1-1.8-2.5-2.7-4l-3-5.7l-2.3-4.2l-0.6-1l0,0l0.1,0.1c0,0,0.2,0.1,0.1,0.1c-0.1,0,0.3,0,0.2,0c0,0,0.3-0.1,0.3-0.1
		C427.8,221.7,428.1,221.4,428.1,221.4L428.1,221.4L428.1,221.4z M439.6,238.3c0,0.5-0.4,0.9-0.9,0.9c-0.5,0-0.9-0.4-0.9-0.9
		s0.4-0.9,0.9-0.9C439.1,237.4,439.6,237.8,439.6,238.3"/>
	<path class="st0" d="M426.2,240.7c0.4,0.2,0.5,0.6,0.3,1c-0.2,0.4-0.6,0.5-1,0.3c-0.4-0.2-0.5-0.6-0.3-1c0.1-0.3,0.4-0.4,0.7-0.4
		c0.1,0-0.2,0-0.2,0l-0.1,0c0.1,0-0.1,0.1-0.1,0.1c0.1,0-0.2,0.1-0.1,0.1c0-0.1-0.1,0.1-0.1,0.1l0,0c0-0.2,0-0.7-0.1-1.2
		c0-0.2,0.1-0.4,0.3-0.4c0.1,0,0.3,0,0.4,0.2l0.6,1.3l0.1,0.1l0,0c0,0-0.2-0.2-0.1-0.1C426.4,240.8,426.1,240.7,426.2,240.7
		 M419.4,223c0.1,0.1,0.2,0.2,0.2,0.4l0,0l0,0.2l0.3,1.6c0.4,2.6,1.6,6.3,3.1,9.6c0.7,1.6,1.6,2.9,2.3,3.9l0.9,1.3
		c0.3,0.5,0.4,1.1,0.4,1.1c0.1,0.2,0.1,0.3,0,0.5c0,0.1,0.2,0.1-0.3,0.5c-0.1,0.1-0.2,0.2-0.3,0.2c-0.4,0.1-0.5,0-0.6-0.1l-0.2-0.2
		c-0.1-0.1-0.2-0.3-0.3-0.4l-0.2-0.7l-0.8-1.3c-0.7-1-1.5-2.4-2.3-4.2c-1.5-3.5-2.7-7.2-3-10l-0.1-1.8l0.1-0.3l0.1-0.2l0.2-0.2
		C418.9,222.8,419.2,222.8,419.4,223 M419.6,223.7c0,0.3-0.2,0.5-0.4,0.5c-0.2,0-0.4-0.1-0.5-0.3l-0.1-0.2l0,0.1
		c0,0,0.2,0.1,0.1,0.1c0,0,0.2,0.1,0.2,0.1l0.1,0c-0.1,0,0.3-0.1,0.2-0.1l0.2-0.2c-0.2,0.2-0.5,0.3-0.7,0.1
		c-0.2-0.2-0.3-0.5-0.1-0.7c0.2-0.2,0.5-0.3,0.7-0.1c0.1,0.1,0.2,0.2,0.2,0.3l0,0.1L419.6,223.7z"/>
	<path class="st0" d="M451.8,207c0.1-0.4,0.5-0.5,0.9-0.4c0.4,0.1,0.5,0.5,0.4,0.9c-0.1,0.4-0.5,0.5-0.9,0.4
		c-0.3-0.1-0.4-0.3-0.5-0.6c0-0.1,0.1,0.2,0,0.2c0-0.1,0.1,0.2,0.1,0.2c0-0.1,0.1,0.1,0.1,0.1l0.1,0.1l0,0l-1.1,0
		c-0.2,0-0.3-0.1-0.3-0.3c0-0.1,0.1-0.3,0.2-0.3l1.1-0.4l0,0l-0.1,0.1l0,0.1C451.9,206.9,451.8,207.1,451.8,207 M433,218.5
		c0.3,0,0.5,0.1,0.5,0.4c0,0.2-0.1,0.4-0.3,0.5l-0.4,0.1l-0.1,0c-0.1,0-0.3,0-0.5-0.2c-0.2-0.2-0.1-0.4-0.1-0.5
		c0.1-0.3,0.2-0.4,0.4-0.4l0.4-0.3l4-2.5l5.9-3.6l4.6-2.6c1.5-0.8,2.6-1.6,3.4-2.1l1.2-0.7c0.2-0.1,0.4-0.2,0.7-0.2
		c0.1,0,0.1,0,0.4,0.2c0.1,0.1,0.2,0.2,0.2,0.3c0.2,0.3,0.1,0.4,0.1,0.6c0,0.2-0.2,0.4-0.4,0.6l-1.3,0.7c-0.8,0.5-1.9,1.3-3.5,2.1
		l-4.7,2.5l-5.9,3.5c-1.7,1.1-3.2,1.9-4.1,2.4l-0.6,0.3c0,0,0.1-0.1,0.1-0.1l0.1-0.1c0,0.1,0.1-0.4,0.1-0.2c0,0.1-0.1-0.4,0-0.3
		c0,0.1-0.2-0.2-0.1-0.2c0.1,0.1-0.2-0.1-0.1-0.1l-0.1,0L433,218.5z"/>
	<path class="st0" d="M403.7,221.8c0.2,0.2,0.2,0.5,0,0.7c-0.2,0.2-0.5,0.2-0.6,0c-0.2-0.2-0.3-0.4-0.3-0.6c0-0.2,0-0.5,0.1-0.7
		c0.2-0.4,0.5-0.9,1-1.4c1-1,2.6-2.3,4.6-3.8c2.6-1.9,5.9-4.2,9.3-6.4c1.9-1.2,3.8-2.4,5.9-3.6c4.5-2.6,9.8-5.1,14.1-7.4
		c1.6-0.9,3-1.8,4.2-2.5c1.9-1.1,3.1-1.7,4.2-2.1l5.9-2.2c0.6-0.2,1.1-0.3,1.7-0.6c0.7-0.3,1.6-0.9,2.3-1.4l1.3-0.9
		c0.1-0.1,0.1-0.1,0.2-0.2c0,0-0.2,0.2-0.1,0.1c0,0-0.1,0.2-0.1,0.2c0-0.1,0,0.5,0,0.4c0-0.1,0.2,0.3,0.1,0.3
		c-0.1-0.1,0.2,0.1,0.1,0.1l-0.2,0c-0.5,0-1.6,0.1-3.3,0.5c-0.2,0-0.4-0.1-0.4-0.3c0-0.2,0.1-0.3,0.2-0.4l3.4-1l0.7-0.1
		c0.1,0,0.5,0.1,0.7,0.4c0.2,0.3,0.2,0.6,0.1,0.8c0,0.1-0.1,0.2-0.1,0.2c-0.4,0.6-1,0.9-1.7,1.3c-0.8,0.5-1.7,1.1-2.5,1.5
		c-0.8,0.3-1.4,0.5-1.9,0.6l-5.8,2.1c-0.9,0.4-2.1,0.9-3.9,1.9c-1.2,0.7-2.6,1.6-4.3,2.5c-4.3,2.3-9.6,4.8-14.1,7.3
		c-2.1,1.2-4,2.3-5.9,3.5c-3.5,2.2-6.7,4.4-9.4,6.2c-2.1,1.5-3.6,2.6-4.6,3.6c-0.4,0.4-0.7,0.8-0.9,1L403.7,221.8L403.7,221.8z"/>
	<path class="st0" d="M396.9,239.7c0.2,0.3,0.2,0.8-0.2,1c-0.3,0.2-0.8,0.2-1-0.2c-0.1-0.2-0.2-0.4-0.1-0.6c0-0.1,0,0.3,0,0.2l0,0.1
		c0-0.1-1.6-1.2-2.2-2.5c-0.1-0.2,0-0.4,0.2-0.4c0.1-0.1,0.3,0,0.4,0.1c0.4,0.4,1,0.9,1.6,1.3l0.8,0.5
		C396.5,239.3,396.7,239.4,396.9,239.7 M381.6,228.8c0,0.3-0.3,0.4-0.5,0.4c-0.2,0-0.3-0.2-0.4-0.4c0-0.2,0-0.4,0.2-0.6
		c0.1-0.1,0.3-0.2,0.5-0.2c0.3-0.1,0.6,0,0.9,0c0.7,0.1,1.5,0.4,2.3,0.8c0.9,0.4,2,1,3,1.9c1.1,1,2,2.3,2.9,3.5
		c0.7,0.9,1.2,1.8,1.8,2.5c1,1.2,2.6,1.8,3.6,2.2l0.7,0.4l0.2,0.2l0.2,0.2c0.1,0.2,0.1,0.5,0,0.7c-0.2,0.4-0.4,0.4-0.5,0.4
		c-0.3,0.1-0.4,0-0.5,0l-0.7-0.2c-1.1-0.4-3-1.1-4.4-2.7c-0.8-0.9-1.3-1.9-1.9-2.7c-0.9-1.3-1.7-2.6-2.5-3.4
		c-0.8-0.8-1.7-1.3-2.6-1.7c-0.7-0.4-1.4-0.7-2-0.9l-0.5-0.1c0,0,0.1-0.1,0,0C381.4,229.1,381.6,228.8,381.6,228.8"/>
	<path class="st0" d="M364.5,231.1c-0.1-0.3,0.1-0.5,0.4-0.6c0.2,0,0.4,0,0.5,0.2c0,0-0.2-0.1-0.1-0.1c0.1,0-0.3,0-0.2,0
		c0,0-0.2,0-0.1,0l0,0l0.3-0.3l1.2-1.7l1.7-2.6c0.7-1.1,1.3-2,2-2.9c1.5-1.8,3.6-3.8,4.9-5.4c2-2.2,3-3.1,4.7-3.7
		c0.2-0.1,0.4,0,0.5,0.2c0.1,0.2,0,0.4-0.2,0.4c-0.7,0.4-1.2,0.8-1.7,1.4l-2,2.7c-1.5,1.8-3.6,3.8-5,5.4c-0.7,0.8-1.3,1.6-2.1,2.7
		l-1.7,2.5c-0.5,0.7-1,1.3-1.4,1.7c-0.2,0.2-0.4,0.3-0.6,0.4c-0.1,0-0.3,0.1-0.5,0C364.6,231.5,364.5,231.3,364.5,231.1"/>
	<path class="st0" d="M390.1,232c0.2-0.2,0.5-0.1,0.7,0.1c0.2,0.2,0.1,0.4,0,0.6l0,0l0-0.1c0,0.1-0.1-0.3,0-0.2
		c0,0.1-0.2-0.2-0.2-0.2c0.1,0.1-0.2-0.1-0.1,0l0.2,0l1.8-0.6l3.7-1.4c0.9-0.3,1.6-0.7,2.3-1c0.7-0.3,1.2-0.6,1.4-0.9
		c0.1-0.1,0.3-0.2,0.5-0.2l0.1,0c0.1,0,0.1,0,0.1,0.1l0.2,0.2c0.1,0.2,0.1,0.4,0,0.5c-0.3,0.6-0.9,1-1.6,1.4
		c-0.8,0.4-1.6,0.7-2.5,1.1l-3.8,1.3c-0.8,0.3-1.5,0.5-2.1,0.5l-0.4,0c-0.1,0-0.3,0-0.5-0.3c-0.2-0.2-0.1-0.6,0-0.7L390.1,232z"/>
	<path class="st0" d="M338,190c0.3-0.1,0.5,0.1,0.6,0.3c0.1,0.3-0.1,0.5-0.3,0.6c-0.1,0-0.2,0-0.3,0l-0.3-0.2
		c-0.2-0.1-0.2-0.3-0.1-0.4c0-0.1,0.1-0.1,0.2-0.2L338,190z"/>
	<path class="st0" d="M337.8,190.7c-0.2,0.1-0.5,0-0.6-0.2c-0.1-0.2,0-0.5,0.2-0.6c0.1-0.1,0.3-0.1,0.5,0l0.1,0.1
		c0.2,0.1,0.3,0.4,0.2,0.5c0,0.1-0.1,0.1-0.2,0.2L337.8,190.7z"/>
	<path class="st0" d="M338.5,189.5c0.3,0.1,0.4,0.3,0.4,0.6c-0.1,0.2-0.3,0.4-0.5,0.4l-0.3-0.1c-0.1,0-0.2-0.1-0.2-0.3
		c-0.1-0.2,0.1-0.4,0.1-0.5c0.2-0.2,0.3-0.2,0.5-0.2l1.2-0.1c1.7-0.1,3.8,0,6.6-0.1c1.4-0.1,3.1-0.3,5-0.5l3.1-0.2
		c1.7-0.1,3.6-0.5,5.6-0.8l4.8-0.8c2.4-0.4,5-0.7,7.7-1.3c2.8-0.6,5.9-1.5,9-2.2c2.5-0.6,4.9-1,7.3-1.4l9.5-1.6l8.2-1.2l8.3-1
		c2.2-0.2,4.1-0.4,5.7-0.4l5.5,0l3.5,0c3.3-0.1,6.8-1.2,10.5-0.7c1.6,0.2,3.2-0.1,4.9-0.4c2-0.3,4.3-0.8,6.4-1
		c1.1-0.1,2.3-0.1,3.3,0c0.9,0,2-0.1,2.4-0.2c0.1,0,0.1,0,0.2,0l0.1,0c0,0-0.1,0-0.1,0c0,0-0.2,0.1-0.1,0.1c0.1-0.1-0.2,0.3-0.1,0.2
		c0-0.1,0,0.3,0,0.2c0-0.1,0,0.1,0,0.1l-0.2-0.2l-0.9-0.4c-0.2-0.1-0.3-0.3-0.2-0.4c0.1-0.1,0.2-0.2,0.4-0.2
		c0.9,0.2,1.4,0.3,1.7,0.5l0.3,0.2c0.1,0.1,0.2,0.4,0.2,0.6c-0.1,0.4-0.4,0.6-0.6,0.7c-0.1,0-0.1,0.1-0.2,0.1
		c-0.8,0.2-1.8,0.2-2.8,0.2c-1.1,0-2.2,0-3.2,0c-2,0.2-4.3,0.7-6.3,1c-1.7,0.3-3.5,0.6-5.4,0.3c-3.3-0.5-6.7,0.6-10.2,0.7l-3.6,0
		l-5.5,0c-1.5,0-3.4,0.2-5.6,0.4l-8.3,1l-8.2,1.1l-9.4,1.5c-2.4,0.4-4.8,0.8-7.2,1.4c-3.1,0.7-6.1,1.6-9.1,2.1
		c-2.8,0.5-5.4,0.9-7.8,1.3l-4.8,0.8c-2.1,0.3-4,0.6-5.8,0.7l-3.1,0.1c-1.9,0.2-3.6,0.4-5.1,0.4c-2.9,0.1-5,0-6.6,0.1l-1.1,0.1
		l-0.1,0c0,0,0.1-0.1,0.1-0.1c0,0,0.1-0.2,0.1-0.1c0,0.1,0.1-0.3,0.1-0.2c0,0.1,0-0.2,0-0.2c0,0.1-0.1-0.2-0.1-0.2L338.5,189.5
		C338.7,189.5,338.5,189.5,338.5,189.5L338.5,189.5z"/>
	<path class="st0" d="M453.4,164.8c0.2-0.1,0.4-0.1,0.6,0.1c0.1,0.2,0.1,0.4-0.1,0.6c0,0-0.1,0.1-0.1,0.1l-0.4,0.3
		c-0.1,0.1-0.4,0.1-0.5-0.1c-0.1-0.1-0.1-0.3,0-0.4L453.4,164.8z M440.3,176c0,0.3-0.3,0.4-0.5,0.4c-0.1,0-0.2,0-0.3-0.1
		c-0.1-0.1-0.2-0.3-0.2-0.4l0-0.3l0.2-0.3l0.6-0.6c2-1.7,5.5-3.3,8.4-5.6c1.4-1,2.5-2.1,3.4-3.1l0.9-1.1l0.2-0.2l0,0
		c0,0,0,0.2,0,0.1l0,0.1c0-0.1,0.1,0.3,0,0.2c0-0.1,0.2,0.3,0.1,0.2c-0.1-0.1,0.3,0.2,0.2,0.2c-0.4-0.2-0.5-0.7-0.3-1.1
		c0.2-0.4,0.7-0.5,1.1-0.3c0,0,0,0,0,0c0.1,0.1,0.3,0.3,0.4,0.5l0,0.4l-0.1,0.3l-0.3,0.5l-1.1,1.2c-0.9,1-2.2,2.1-3.6,3.2
		c-3.1,2.3-6.7,3.9-8.5,5.3L440.3,176l-0.1,0.2l0,0l0-0.1C440.3,176.2,440.3,176,440.3,176 M454.6,165.1c0,0.5-0.4,0.8-0.8,0.8
		c-0.5,0-0.8-0.4-0.8-0.8c0-0.5,0.4-0.8,0.8-0.8C454.2,164.2,454.6,164.6,454.6,165.1"/>
	<path class="st0" d="M454.7,187.6c0.2,0.4,0,0.8-0.3,1c-0.4,0.2-0.8,0-1-0.3c-0.1-0.1-0.1-0.3-0.1-0.4c0-0.1,0,0.3,0,0.2l0,0.1
		l-0.1-0.1l-0.7-0.4c-0.6-0.3-1.2-0.5-1.7-0.6c-0.2,0-0.3-0.2-0.2-0.4c0-0.1,0.2-0.2,0.3-0.2c0.5,0,1.3,0.1,2,0.3l0.9,0.3l0.4,0.2
		C454.5,187.2,454.6,187.3,454.7,187.6 M441.9,180.2c0,0.3-0.1,0.5-0.4,0.5c-0.2,0-0.5-0.1-0.5-0.3c-0.1-0.4-0.1-0.7-0.1-1
		c0-0.3,0.2-0.7,0.5-0.8c0.3-0.1,0.7-0.1,0.9,0l0.8,0.5c0.8,0.6,1.5,1.5,2.2,2.4c0.8,1,1.5,1.9,2.3,2.8c1,1,2.4,1.8,3.7,2.4
		c0.5,0.2,1,0.3,1.5,0.4l0.7,0.1l0.2,0l0,0c0,0-0.2,0.1-0.1,0.1c0.5-0.3,1-0.1,1.3,0.4c0.3,0.5,0.1,1-0.4,1.3c0,0,0,0-0.1,0
		c-0.4,0.2-0.7,0.1-1,0.1l-1-0.2c-0.5-0.1-1.1-0.3-1.8-0.6c-1.4-0.7-3-1.6-4.2-2.9c-0.9-1-1.6-2.1-2.3-3.1c-0.6-0.9-1.3-1.8-1.8-2.2
		l-0.5-0.4l-0.1-0.1l0.1-0.1l0,0L441.9,180.2z M455,188c0,0.5-0.4,1-1,1c-0.5,0-1-0.4-1-1c0-0.5,0.4-1,1-1
		C454.6,187,455,187.4,455,188"/>
	<path class="st0" d="M426.4,193.8c0.3,0,0.6,0.2,0.6,0.5c0,0.3-0.2,0.6-0.5,0.6c-0.2,0-0.3,0-0.4-0.1c-0.2-0.1-0.4-0.4-0.8-1
		c-0.1-0.3-0.2-0.6-0.1-0.8l0,0.1l-0.1-0.1l-0.2-0.3c-0.1-0.2,0-0.4,0.1-0.5c0.2-0.1,0.3,0,0.4,0.1c0.1,0.2,0.4,0.3,0.4,0.7l0-0.1
		l0.2,0.2l0.5,0.6l0.1,0.1l0,0l-0.1,0C426.6,193.8,426.4,193.8,426.4,193.8 M415.5,179c0.3,0,0.5,0.2,0.4,0.5c0,0.2-0.2,0.4-0.4,0.4
		l0,0l0,0.2c0,0.3,0.1,0.7,0.3,1.3c0.5,1.2,1.3,2.7,2.4,4.2c1.2,1.7,2.9,3.2,4.3,4.4c1,0.8,1.6,1.2,2.2,1.6l0.9,0.5
		c0.6,0.4,1.2,1,1.6,1.6c0.3,0.4,0.2,1-0.3,1.3c-0.4,0.3-1,0.2-1.3-0.3c-0.2-0.3-0.7-0.8-1.1-1.1l-0.8-0.5c-0.7-0.5-1.4-1-2.4-1.9
		c-1.4-1.2-3.1-2.8-4.5-4.8c-1.1-1.7-1.9-3.4-2.3-4.8c-0.2-0.7-0.3-1.3-0.2-1.8c0-0.3,0.1-0.5,0.3-0.7
		C415,179.1,415.3,179,415.5,179"/>
	<path class="st0" d="M411.5,178.5c0.2,0.1,0.4,0.3,0.3,0.6c-0.1,0.2-0.3,0.3-0.5,0.3c-0.1,0-0.4-0.1-0.5-0.3c-0.1-0.2,0-0.3,0-0.4
		l0.2-0.3l0.8-0.8c0.8-0.7,1.8-1.6,3-2.8c0.9-0.9,1.8-2.1,2.8-3.3c1.1-1.4,2.4-2.8,3.7-4.1c0.7-0.7,1.4-1.3,1.9-1.7
		c0.9-0.7,1.4-1.1,2-1.4c0.5-0.2,1-0.3,1.4-0.3c0.2,0,0.4,0,0.6,0.1c0.1,0,0.2,0.1,0.3,0.3c0,0.2-0.1,0.3-0.1,0.4
		c-0.1,0.1-0.3,0.1-0.5,0c0,0-0.1-0.1-0.1-0.1c0-0.1,0.2,0.2,0.1,0.2c-0.1,0,0.2,0,0.1,0c0,0,0.1,0,0,0l-0.3,0.1l-1,0.5
		c-0.4,0.2-0.9,0.5-1.7,1.2c-0.6,0.5-1.2,1-1.9,1.6c-1.2,1.2-2.5,2.7-3.6,4c-1.1,1.2-2,2.3-3,3.3c-1.2,1.2-2.3,2.1-3.1,2.8l-0.8,0.7
		l-0.1,0.1l0,0l0-0.1c0,0,0-0.2,0-0.2c0,0.1-0.2-0.3-0.1-0.3C411.7,178.6,411.4,178.4,411.5,178.5"/>
	<path class="st0" d="M420.6,147.2c0.2,0.2,0.1,0.5-0.1,0.6c-0.2,0.2-0.5,0.1-0.6-0.1c-0.1-0.1-0.1-0.1-0.1-0.2
		c0-0.1,0.1,0.3,0.1,0.2c-0.1-0.1,0.2,0.1,0.2,0.1l0.1,0l0,0l-0.4,0.2c-0.4,0.2-0.8,0.4-1.1,0.7c-0.1,0.1-0.3,0.1-0.5,0
		c-0.1-0.1-0.1-0.3,0-0.4c0.3-0.4,0.8-0.8,1.2-1l0.5-0.3l0.2-0.1C420.2,147,420.4,146.9,420.6,147.2 M395.9,181.7
		c0.2-0.1,0.5,0.1,0.6,0.3c0.1,0.2-0.1,0.5-0.3,0.6l-0.5,0.1c-0.2,0-0.4-0.1-0.5-0.2c-0.3-0.3-0.3-0.6-0.2-0.9
		c0.1-0.6,0.4-1.4,0.9-2.2l1.8-3.4l2.6-4.7c2.2-3.7,4.8-6.8,7-9c1.8-1.9,3.4-3.7,4.7-5.3l3.9-4.9c0.6-0.7,1-1.4,1.6-2.3l1.3-1.8
		l0.8-0.7l0.3-0.1l0.1,0l0.1,0c0.1,0,0.3,0,0.4,0.1c0.3,0.2,0.2,0.4,0.2,0.5l-0.1,0.2l-0.2,0.3l-0.5,0.6l-1.3,1.7
		c-0.5,0.8-0.8,1.7-1.4,2.5l-3.9,5c-1.4,1.7-3,3.5-4.9,5.4c-2.1,2.1-4.8,5.1-6.9,8.6l-2.7,4.6l-2,3.4c-0.5,0.8-0.7,1.5-0.8,1.9
		l0,0.2C396,181.8,395.9,181.7,395.9,181.7C396,181.8,395.8,181.7,395.9,181.7L395.9,181.7z"/>
	<path class="st0" d="M411.2,160.7c-0.2-0.1-0.3-0.4-0.2-0.6c0.1-0.2,0.3-0.3,0.5-0.3c0.1,0-0.1,0-0.1,0l0.3-0.1l1-0.5
		c0.8-0.4,1.8-1,3-1.5c2.6-1.1,5.1-1.6,7.3-1.9l4.1-0.4c0.1,0,0.1,0,0.2,0l0.7,0.1c0.2,0,0.4,0.2,0.3,0.4c0,0.1-0.1,0.2-0.1,0.2
		l-0.8,0.5c-0.1,0-0.1,0-0.2,0.1l-4.1,0.5c-2.1,0.2-4.5,0.7-7,1.6c-1.1,0.4-2.1,0.9-2.9,1.3l-1,0.5
		C411.8,160.7,411.6,160.9,411.2,160.7"/>
	<path class="st0" d="M401.9,204.6c0.3,0,0.6,0.3,0.5,0.6s-0.3,0.6-0.6,0.5c-0.3,0-0.6-0.3-0.5-0.6c0-0.2,0.1-0.4,0.3-0.5
		c0.1,0-0.2,0.2-0.2,0.1c0.1-0.1-0.1,0.2-0.1,0.2l0,0.1l0.1,0.3c0,0-1.1-0.7-1.6-1.3c-0.1-0.1-0.1-0.3,0-0.5c0.1-0.1,0.3-0.1,0.4,0
		c0.5,0.4,1.5,0.7,2.1,1.2L401.9,204.6L401.9,204.6z M380.8,187.9c-0.3,0-0.5-0.2-0.5-0.5c0-0.2,0.2-0.4,0.4-0.5
		c0.4,0,0.8,0.1,1.2,0.3c0.4,0.2,0.7,0.5,1.1,0.9l2.6,2.9c2,2.2,5.7,4.7,9.1,7.2c1.6,1.1,3,2.2,4.1,3.2l1.4,1.2l1.7,1.7
		c0,0,0.1,0.1,0.1,0.1l0.1,0.2c0,0-0.1-0.1,0.1,0.1c0.1,0.1,0.1,0.1,0.1,0.2c0.2,0.4,0,0.6-0.1,0.7l-0.3,0.2c-0.4,0.1-0.8,0-1.1-0.2
		c-0.1,0-0.1-0.1-0.1-0.1l-1.7-1.7l-1.3-1.2c-1.1-0.9-2.4-2-4-3.2c-3.4-2.5-7.1-5.1-9.2-7.5c-1-1.2-1.8-2.3-2.4-3.1l-0.8-0.8
		C381.1,187.9,381,187.9,380.8,187.9"/>
	<path class="st0" d="M409,190.3c-0.2-0.2-0.2-0.5,0-0.7c0.2-0.2,0.5-0.2,0.7,0c0.2,0.2,0.2,0.5,0,0.7c-0.1,0.1-0.3,0.2-0.4,0.1
		c-0.1,0,0.2,0,0.1,0c-0.1,0,0.1,0,0.1,0l-0.2,0.1l-1.3,0.7c-0.2,0.1-0.4,0-0.4-0.1c-0.1-0.2,0-0.3,0.1-0.4l1.1-0.8l0.1-0.1l0,0.1
		c0,0,0,0.2,0,0.1c0,0,0,0.2,0,0.1l0,0.1C408.8,190.1,409,190.4,409,190.3 M396.2,200.2c0.2,0.1,0.4,0.4,0.3,0.6
		c-0.1,0.2-0.4,0.3-0.6,0.3c-0.4-0.1-0.7-0.4-1-0.7c-0.2-0.3-0.4-0.7-0.4-1.1c0-0.8,0.6-1.7,1.4-2.5c1.2-1.1,2.9-2.2,4.7-3.2
		l2.6-1.4l4-2.1l1.3-0.5c0.3-0.1,0.5-0.3,0.9-0.2c0.1,0,0.3-0.1,0.4,0.4c0,0.1,0,0.2,0,0.3c-0.1,0.3-0.1,0.2-0.2,0.2l-1.7,1.1
		l-4,2.1l-2.6,1.3c-1.8,0.9-3.5,1.9-4.6,2.9c-0.8,0.7-1.1,1.3-1.2,1.7c0,0.2,0,0.3,0.1,0.4C395.7,200,395.9,200.1,396.2,200.2"/>
	<path class="st0" d="M392.6,201.7c-0.2-0.2-0.2-0.5,0-0.7c0.2-0.2,0.4-0.2,0.6-0.1c1.1,0.7,1.9,2.4,2.4,4.1
		c0.3,1.2,0.4,2.4,0.5,3.5l0.2,2.4l0.2,0.8c0.1,0.1,0.1,0.2,0.1,0.3l0,0.1c0.1,0.1,0.1,0.3,0,0.5c0,0,0,0-0.1,0
		c-0.2,0.1-0.6,0.1-0.9,0c-0.1,0-0.2-0.1-0.3-0.2c-0.3-0.4-0.5-0.8-0.6-1.3c-0.2-0.8-0.2-1.6-0.3-2.6c-0.1-1.1-0.2-2.3-0.4-3.3
		C393.9,203.8,393.3,202.3,392.6,201.7"/>
	<path class="st0" d="M336.5,163.2c-0.3,0.1-0.7,0-0.8-0.4c-0.1-0.3,0-0.7,0.4-0.8l114.1-42.3c0.3-0.1,0.7,0,0.8,0.4
		c0.1,0.3,0,0.7-0.4,0.8L336.5,163.2z"/>
	<path class="st0" d="M448.6,121.3c-0.3,0-0.5-0.2-0.5-0.5c0-0.2,0.2-0.5,0.4-0.5c0.3,0,1.5-0.7,2.8-1.4l2.9-1.2l0.5-0.1
		c0.1,0,0.2-0.2,0.5,0.1c0.1,0.1,0.2,0.4,0.1,0.5c-0.1,0.2-0.2,0.2-0.2,0.2l-0.5,0.3c-0.2,0.1-0.4,0-0.4-0.1c-0.1-0.2,0-0.3,0.1-0.4
		l0.4-0.3c0,0,0,0.1,0,0l0,0.1l0,0.1l0,0.1c0-0.1,0.2,0.2,0.2,0.2c-0.1,0,0.2,0,0.1,0c-0.1,0,0.1,0,0.1,0l-0.1,0l-0.4,0.2l-2.7,1.4
		C450.4,120.6,449.4,121.3,448.6,121.3"/>
	<path class="st0" d="M457.6,132.7c0.3-0.1,0.5,0.1,0.6,0.3c0.1,0.3-0.1,0.5-0.3,0.6c-0.3,0.1-0.5-0.1-0.6-0.3c0-0.1,0-0.2,0-0.4
		l0,0.1c0-0.1,0,0.2,0,0.2l0,0l-0.2-0.3c-0.1-0.1-0.1-0.3,0-0.5c0.1-0.1,0.3-0.1,0.4,0l0.3,0.2c0,0-0.2,0-0.1,0L457.6,132.7z
		 M444.7,123.6c0.2,0.2,0.2,0.5,0,0.7c-0.2,0.2-0.5,0.2-0.7,0c0,0-0.1-0.1-0.1-0.1l-0.1-0.3l0.1-0.3c0.1-0.1,0.3-0.2,0.4-0.2
		l0.2,0.1l0.1,0.1l-0.4,0c0.3-0.2,0.6-0.1,0.9,0c0.1,0,0.2,0,0.3,0.1c1.9,1.1,5,2.9,7.7,4.7c1.4,0.9,2.4,1.9,3.3,2.6l1,0.8l0.8,0.6
		c0.4,0.4,0.5,1,0.2,1.4c-0.3,0.4-0.9,0.5-1.3,0.3l-0.9-0.5l-1.1-0.9c-1-0.8-1.9-1.7-3.1-2.6c-2.5-1.9-5.6-3.8-7.4-5
		c-0.1-0.1-0.1-0.1-0.2-0.2c-0.2-0.2-0.3-0.4-0.4-0.7l0.3,0.3l0.1,0c-0.1,0,0.3-0.2,0.2-0.1c0,0,0.1-0.2,0.1-0.2c0,0.1,0-0.2,0-0.2
		C444.8,123.9,444.7,123.6,444.7,123.6"/>
	<path class="st0" d="M444.9,129.1c0.3,0,0.5,0.2,0.5,0.4s-0.2,0.5-0.4,0.5c0,0,0,0,0,0c-2.5,0.1-4.4-1.7-6.7-1.1
		c-0.2,0-0.4-0.1-0.4-0.2c0-0.2,0-0.4,0.2-0.4c1.4-0.4,2.6-0.2,3.7,0.1C442.8,128.8,443.9,129.2,444.9,129.1"/>
	<path class="st0" d="M456.5,124.9c0.2-0.2,0.5-0.2,0.8,0c0.2,0.2,0.2,0.5,0,0.8c-0.2,0.2-0.5,0.2-0.8,0c-0.1-0.1-0.2-0.3-0.2-0.5
		c0-0.1,0,0.3,0,0.2c0-0.1,0.1,0.2,0.1,0.2l0.1,0.1c-0.1-0.1,0.2,0.1,0.1,0.1l-1,0.2c-0.2,0-0.4-0.1-0.4-0.2c0-0.2,0-0.3,0.2-0.4
		l1.1-0.5L456.5,124.9C456.6,124.8,456.4,125,456.5,124.9 M450.8,128.3c0.3,0.1,0.4,0.3,0.3,0.6c-0.1,0.2-0.3,0.4-0.5,0.3
		c-0.1,0-0.3-0.1-0.5-0.3c-0.1-0.2-0.1-0.4,0-0.6c0.1-0.2,0.3-0.3,0.4-0.5c0.9-0.7,2.1-1.3,3.3-1.8l2.2-1.1c0,0,0.1,0,0.1-0.1
		l0.4-0.1l0.2,0c0.1,0,0.2,0,0.3,0.1c0.3,0.2,0.3,0.4,0.2,0.6l-0.1,0.2c-0.1,0.2-0.3,0.3-0.4,0.5c0,0-0.1,0.1-0.1,0.1l-2.4,1
		c-1.2,0.4-2.4,0.9-3.1,1.4l-0.2,0.2l0-0.1c0,0.1,0-0.3,0-0.2C451.1,128.6,450.9,128.3,450.8,128.3
		C451,128.3,450.8,128.3,450.8,128.3"/>
	<path class="st0" d="M436,126c-0.3-0.2-0.3-0.6-0.1-0.9c0.2-0.3,0.6-0.3,0.9-0.1l26.8,19.8c0.3,0.2,0.3,0.6,0.1,0.9
		c-0.2,0.3-0.6,0.3-0.9,0.1L436,126z"/>
	<path class="st0" d="M454.3,139.5c-0.1-0.3,0-0.7,0.3-0.8c0.3-0.1,0.7,0,0.8,0.3l9.6,20.9c0.1,0.3,0,0.7-0.3,0.8
		c-0.3,0.1-0.7,0-0.8-0.3L454.3,139.5z"/>
	<path class="st0" d="M460.8,137.1c0.2-0.2,0.5-0.3,0.8-0.1c0.2,0.2,0.3,0.5,0.1,0.8c-0.2,0.2-0.5,0.3-0.8,0.1
		c-0.1-0.1-0.2-0.3-0.2-0.4c0-0.1,0.1,0.3,0,0.2l0.1,0.1c0,0,0.1,0.1,0.1,0.1l0,0l-0.5,0c-0.2,0-0.3-0.1-0.4-0.3
		c0-0.1,0.1-0.3,0.2-0.3l0.6-0.2L460.8,137.1C460.9,137,460.8,137.1,460.8,137.1 M454.6,140.2c0.1-0.2,0.4-0.3,0.7-0.1
		c0.2,0.1,0.2,0.3,0.2,0.5c0,0.1,0-0.3,0-0.2c0,0.1-0.2-0.3-0.1-0.2c0,0-0.2-0.1-0.1-0.1c0.1,0-0.2,0-0.2,0l-0.1,0l0,0l0.1,0
		l0.3-0.1l1.1-0.5c0.9-0.4,1.8-0.9,2.6-1.3l1.7-0.9c0.1-0.1,0.2-0.2,0.4-0.2l0.3,0c0.1,0,0.2,0.1,0.3,0.2c0.2,0.3,0.1,0.4,0.1,0.5
		c0,0.2-0.1,0.3-0.2,0.4c-0.4,0.4-1.2,0.6-2,1.1c-0.9,0.4-1.8,0.9-2.7,1.3l-1.2,0.4l-0.4,0.1l-0.2,0l-0.3-0.1
		c-0.1,0-0.2-0.2-0.2-0.3C454.5,140.3,454.5,140.2,454.6,140.2"/>
	<path class="st0" d="M448.5,147c0.2,0.2,0.2,0.5,0,0.7c-0.2,0.2-0.5,0.2-0.7,0c-0.1-0.1-0.1-0.2-0.1-0.3l0,0.1l-0.8-1
		c-0.1-0.1-0.1-0.3,0-0.5c0.1-0.1,0.3-0.1,0.4,0L448.5,147z M423.2,133.8c0.1,0.2,0.1,0.5-0.2,0.6c-0.2,0.1-0.5,0.1-0.6-0.1
		l-0.2-0.3c-0.1-0.1-0.1-0.5,0.1-0.7c0.4-0.4,0.7-0.2,1-0.1c0.7,0.2,1.5,0.6,2.6,1.1c2.4,1.2,5.5,3,8.9,5c3.3,2,6.7,3.8,9.4,5.1
		l3.2,1.5l0.9,0.5c0.3,0.1,0.5,0.4,0.6,0.6c0,0.1,0.1,0.1,0,0.5c0,0.1,0,0.2-0.1,0.2c-0.2,0.4-0.4,0.4-0.5,0.4
		c-0.3,0.1-0.6,0.1-0.9,0l-1-0.5l-3.2-1.6c-2.6-1.4-6.1-3.1-9.4-5.3c-3.3-2.1-6.3-4.1-8.6-5.4l-2.3-1.3l-0.2-0.1c0,0,0.2-0.1,0.1,0
		c-0.1,0,0.3-0.3,0.2-0.2C423.1,134,423.1,133.7,423.2,133.8L423.2,133.8L423.2,133.8z"/>
	<path class="st0" d="M439.6,141c0.2-0.2,0.5-0.2,0.7,0c0.2,0.2,0.2,0.5,0,0.7c0,0,0,0,0,0l0.1-0.1l0,0.1l0,0.4l0.1,1.6l0.6,4.7
		l0.7,4.8c0.2,1.3,0.4,2.2,0.3,2.6c0,0.2-0.2,0.4-0.4,0.4c-0.2,0-0.4-0.2-0.4-0.4l-0.4-2.5l-0.8-4.8l-0.7-4.8l-0.1-1.7
		C439.3,141.7,439.2,141.4,439.6,141"/>
	<path class="st0" d="M451.3,143.4c-0.2-0.3-0.2-0.7,0-0.9c0.3-0.2,0.7-0.2,0.9,0c0.2,0.3,0.2,0.7,0,0.9c-0.2,0.2-0.5,0.2-0.7,0.1
		c-0.1,0,0.2,0.1,0.2,0c-0.1,0,0.1,0,0.1,0l-0.8,0.3c-0.2,0.1-0.4,0-0.4-0.2c-0.1-0.1,0-0.3,0.1-0.4l0.5-0.5c0,0,0,0.2,0,0.1
		c0,0,0,0.2,0,0.2l0,0.1C451.1,143.1,451.4,143.5,451.3,143.4 M443.4,145.3c-0.2,0.1-0.5-0.1-0.6-0.3c-0.1-0.2,0-0.5,0.3-0.6
		c1.5-0.6,3.5-1.2,5.3-1.6l1.8-0.4c0.6-0.1,1.1-0.3,1.6-0.3c0.3,0,0.5,0.2,0.7,0.4l0.1,0.4c0,0.1,0,0.2-0.1,0.3l-0.1,0.2
		c-0.2,0.2-0.4,0.3-0.7,0.3l0,0l-1.2,0.2l-1.8,0.3C446.9,144.4,444.8,144.8,443.4,145.3"/>
	<path class="st0" d="M393.1,161.9c0.3-0.2,0.6-0.1,0.8,0.1c0.2,0.3,0.1,0.6-0.1,0.8c-0.1,0.1-0.2,0.1-0.3,0.1c-0.3,0-0.7,0-1.2-0.2
		c-0.5-0.2-0.9-0.6-1.2-1.1c-0.1-0.2,0-0.4,0.1-0.4c0.1-0.1,0.3,0,0.4,0.1c0.3,0.4,0.6,0.5,1,0.6L393.1,161.9L393.1,161.9
		L393.1,161.9z M365.7,154.2c-0.1,0.3-0.3,0.4-0.6,0.4c-0.2-0.1-0.4-0.3-0.4-0.5c0.1-0.8,0.5-1.5,1.1-1.9c0.7-0.4,1.5-0.4,2.5-0.1
		c1.4,0.4,3.1,1.3,5.1,2.3c2,1.1,4.2,2.3,6.5,3.2c1.9,0.8,3.6,1.5,5.2,2l4,1.1c1,0.3,1.8,0.5,2.5,0.5l0.8,0l0.8,0.1
		c0.3,0,0.6,0.2,0.8,0.5c0,0.1,0.1,0.1,0.1,0.4c0,0.1,0,0.2,0,0.2c-0.1,0.3-0.1,0.3-0.2,0.4c-0.2,0.3-0.5,0.4-0.8,0.4l-0.6,0
		l-1.1-0.1c-0.8-0.1-1.7-0.3-2.8-0.6l-4.1-1.3c-1.6-0.6-3.4-1.3-5.3-2.2c-2.3-1.1-4.5-2.4-6.5-3.5c-1.9-1.1-3.6-2-4.7-2.4
		c-0.7-0.3-1.3-0.3-1.6-0.2C366.1,153.4,365.9,153.6,365.7,154.2"/>
	<path class="st0" d="M383.3,159.6c-0.2,0.1-0.4,0-0.5-0.1c-0.2-0.2-0.2-0.4-0.2-0.5l0.1-0.2l0.2-0.2l1-0.7l5.6-3l4.6-2.3l2.1-0.9
		c0.1,0,0.1,0,0.2,0l0.5,0c0.2,0,0.5,0,0.7,0.4c0.2,0.2,0.1,0.7-0.1,0.9l-0.2,0.2l-0.2,0.1l-2.8,1.6c-0.2,0.1-0.4,0-0.4-0.1
		c-0.1-0.1,0-0.3,0.1-0.4c1.4-1,2.1-1.6,2.3-1.9l0,0l0,0.1c0,0,0,0.2,0,0.1c0-0.1,0.1,0.4,0.1,0.3c0-0.1,0.3,0.3,0.2,0.2
		c-0.1-0.1,0.3,0.1,0.3,0.1c-0.1,0,0.3,0,0.2,0l0.1,0l-0.3,0.2c-0.1,0-0.1,0-0.2,0.1l-2,0.8l-4.6,2.1l-5.6,2.8l-1,0.5L383.3,159.6
		L383.3,159.6z M383.2,158.7c0.3-0.1,0.5,0.1,0.6,0.3c0.1,0.2-0.1,0.4-0.2,0.5l-0.2,0.1l0,0c-0.3,0.1-0.6,0-0.7-0.2
		c-0.1-0.3,0-0.6,0.2-0.7c0.3-0.1,0.6,0,0.7,0.2c0,0.1,0.1,0.2,0.1,0.2c0,0.1-0.1-0.3,0-0.2c0,0.1-0.2-0.2-0.1-0.2
		C383.6,158.9,383.3,158.7,383.2,158.7C383.4,158.7,383.2,158.7,383.2,158.7L383.2,158.7z"/>
	<path class="st0" d="M392.9,169.9c0.2,0.3,0.1,0.7-0.2,0.9c-0.3,0.2-0.7,0.1-0.9-0.2c-0.2-0.3-0.1-0.7,0.2-0.9
		c0.3-0.2,0.6-0.1,0.8,0.1c0.1,0.1-0.2-0.1-0.1-0.1c0.1,0.1-0.3-0.1-0.2-0.1c0.1,0-0.2,0-0.1,0l0.1-0.1c0.1-0.1,0.3-0.1,0.5,0
		c0.1,0.1,0.1,0.1,0.1,0.2l0,0.3l0,0L392.9,169.9C393,170,392.9,169.9,392.9,169.9 M385.2,161.1c-0.1,0.3-0.3,0.4-0.6,0.3
		c-0.2-0.1-0.3-0.2-0.3-0.4c0-0.1-0.1-0.4,0.3-0.6c0.4-0.2,0.6,0,0.7,0.1l0.5,0.6l1.1,1.7c1,1.5,2.5,2.9,3.7,4.2l1.5,1.8l0.5,0.7
		l0,0l-0.1-0.1c0,0-0.3-0.1-0.2-0.1c0.5,0,0.8,0.5,0.8,0.9c0,0.5-0.5,0.8-0.9,0.8c-0.5-0.1-0.7-0.3-0.9-0.5l-0.6-0.8l-1.4-1.7
		c-1.1-1.3-2.6-2.8-3.7-4.6l-1-1.9l-0.2-0.5l0,0c0,0,0.2,0.1,0.1,0.1c-0.1,0,0.4,0,0.3,0c-0.1,0,0.2-0.1,0.2-0.1
		C385,161.3,385.2,161.1,385.2,161.1L385.2,161.1z M393.1,170.3c0,0.5-0.4,0.9-0.9,0.9c-0.5,0-0.9-0.4-0.9-0.9
		c0-0.5,0.4-0.9,0.9-0.9C392.7,169.5,393.1,169.8,393.1,170.3"/>
	<path class="st0" d="M336.6,116.8c-0.3,0.1-0.7,0-0.8-0.3s0-0.7,0.3-0.8l93.5-39.5c0.3-0.1,0.7,0,0.8,0.3c0.1,0.3,0,0.7-0.3,0.8
		L336.6,116.8z"/>
	<path class="st0" d="M402.3,87.1c0.2-0.1,0.5-0.1,0.6,0.2c0.1,0.2,0.1,0.4-0.1,0.6l-0.1,0.1l0,0c0,0,0,0.1-0.3,0.1
		c-0.2,0-0.5-0.2-0.5-0.3l0-0.3l0.1-0.2l0.5-0.9c0.5-0.7,1.1-1.4,1.8-2.4c1.5-2.2,3-6,4.6-9.2c0.8-1.5,1.5-2.8,2.1-3.8
		c0.5-0.9,0.7-1.5,1-2l0.5-1.2l0.5-0.8l0.1-0.2l0,0c0,0-0.1,0.2-0.1,0.1c0.2-0.5,0.7-0.7,1.2-0.5c0.5,0.2,0.7,0.7,0.5,1.2
		c-0.1,0.2-0.2,0.4-0.4,0.5c-0.1,0,0.1-0.1,0.1-0.1c-0.1,0.1,0.1-0.1,0.1-0.1l0,0l-0.1,0.1l-0.3,0.6l-0.5,1.1l-1.1,2.1
		c-0.6,1-1.4,2.2-2.1,3.6c-1.6,3.1-3.2,6.8-4.9,9.2c-0.8,1.1-1.5,1.8-1.9,2.4l-0.6,0.7l-0.1,0.1l0,0c0,0,0.1-0.2,0.1-0.1
		c0,0,0-0.3,0-0.2c0,0.1-0.1-0.2-0.1-0.2c0.1,0.1-0.3-0.2-0.2-0.2c0.1,0-0.2-0.1-0.2-0.1L402.3,87.1
		C402.3,87.1,402.2,87.2,402.3,87.1 M414.8,67.3c0,0.5-0.4,0.9-0.9,0.9c-0.5,0-0.9-0.4-0.9-0.9c0-0.5,0.4-0.9,0.9-0.9
		C414.4,66.3,414.8,66.8,414.8,67.3"/>
	<path class="st0" d="M436.8,86.5c0.3,0.2,0.4,0.6,0.1,0.9c-0.2,0.3-0.6,0.4-0.9,0.1c-0.3-0.2-0.4-0.6-0.1-0.9
		C436.1,86.4,436.4,86.3,436.8,86.5c0,0-0.3-0.1-0.2-0.1c0.1,0-0.2,0-0.2,0l-0.1,0C436.4,86.3,436.6,86.3,436.8,86.5
		C436.7,86.4,436.8,86.5,436.8,86.5L436.8,86.5L436.8,86.5L436.8,86.5L436.8,86.5z M415.4,85.5c-0.3-0.1-0.4-0.3-0.4-0.6
		c0-0.2,0.2-0.4,0.5-0.4l3.4-0.2L424,84c2.6-0.1,4.9,0.3,7.1,1l3.2,0.9l1.2,0.3l0.4,0.1l-0.1,0c0.5-0.2,1.1,0.1,1.3,0.6
		c0.2,0.5-0.1,1.1-0.6,1.3c-0.1,0-0.1,0-0.2,0l-0.5,0l-0.8-0.1l-1.2-0.4l-3.2-1c-2-0.7-4.1-1.1-6.5-1.1l-5.1,0
		C417.4,85.7,416.2,85.7,415.4,85.5 M437.1,87.2c0,0.6-0.5,1-1,1c-0.6,0-1-0.5-1-1c0-0.6,0.5-1,1-1
		C436.7,86.2,437.1,86.7,437.1,87.2"/>
	<path class="st0" d="M426.5,129.4c-0.2,0.2-0.5,0.2-0.7,0c-0.2-0.2-0.2-0.4-0.1-0.6l1.3-2.5c0.7-1.2,1.6-2.7,2.7-4.4l2.2-3.1
		c1.7-2.4,3.3-4,4.8-5.8l4.7-5.5c1.4-1.7,2-2.7,2.7-3.8l0.9-1.2l1.1-1.4l0.2-0.3l0,0l0,0l0,0.1c0-0.3,0.1-0.5,0.3-0.7l0,0
		c0,0-0.1,0.2-0.1,0.2c0-0.1-0.1,0.5-0.1,0.4c0-0.1,0.1,0.5,0.1,0.4c-0.1-0.1,0.2,0.2,0.2,0.2c-0.1-0.1,0.2,0.1,0.2,0.1
		c-0.2,0-0.8,0.1-1.7,0.4c-0.2,0.1-0.4,0-0.4-0.2c-0.1-0.1,0-0.3,0.1-0.4l1.7-1.1l0.4-0.2c0.1,0,0.2-0.1,0.5-0.1
		c0.2,0,0.6,0.2,0.7,0.4c0.2,0.2,0.2,0.5,0.2,0.7c-0.1,0.7-0.3,0.9-0.6,1.3l-1.2,1.5l-0.9,1.1c-0.7,1-1.5,2.1-2.9,3.8l-4.8,5.5
		c-1.6,1.8-3.2,3.3-4.9,5.6l-2.1,3l-2.8,4.2C427.5,128.2,427,128.9,426.5,129.4"/>
	<path class="st0" d="M417.5,111.7c0.3-0.3,0.8-0.2,1.1,0.1c0.3,0.3,0.2,0.8-0.1,1.1c-0.3,0.3-0.8,0.2-1.1-0.1
		c-0.2-0.2-0.2-0.6-0.1-0.8c0-0.1-0.1,0.2-0.1,0.2c0-0.1,0,0.3,0,0.2c0-0.1,0.1,0.2,0,0.2l0,0.1c0-0.1,0.1,0.1,0.1,0.1l0,0
		c-0.1-0.1-0.6-0.3-1.3-0.4c-0.2,0-0.3-0.2-0.3-0.4c0-0.1,0.1-0.3,0.3-0.3l1.6-0.2l0.1,0l0,0l-0.1,0l-0.1,0
		C417.6,111.6,417.4,111.7,417.5,111.7 M375.6,102.6c0.2-0.1,0.5,0.1,0.6,0.3c0.1,0.2,0,0.5-0.3,0.6l-0.1,0l0.1-0.1
		c0,0.1,0-0.4,0.1-0.2c0,0.1-0.2-0.3-0.1-0.2c0,0.1-0.1-0.1-0.1-0.1l0,0l1.2,0.2l4.3,0.5c1.4,0.2,2.8,0.5,4.3,0.8l3.1,0.7
		c1.6,0.3,3.5,0.5,5.3,0.8c2.8,0.4,5.3,1,7.5,1.7c2.2,0.7,4.2,1.4,6,2.2c2,0.8,4,1.4,5.9,1.6c1,0.1,2.1,0.1,3,0.1l1.3,0
		c0.1,0,0.3,0,0.4,0.1l0.3,0.2l0.2,0.2c0.1,0.1,0.1,0.2,0.1,0.3c0.1,0.3,0,0.4,0,0.5c-0.2,0.5-0.4,0.5-0.6,0.6
		c-0.1,0.1-0.2,0.1-0.3,0.1l-1.3,0c-0.9,0-2.1,0.1-3.3-0.1c-2.1-0.3-4.2-1-6.3-1.8c-3.7-1.5-7.8-3.1-13.1-3.9
		c-1.8-0.3-3.7-0.5-5.4-0.9l-3.1-0.8c-1.5-0.4-2.8-0.7-4.1-1l-4.2-0.6c-0.6-0.1-1.1-0.2-1.4-0.4l-0.3-0.2c-0.1-0.1-0.2-0.4-0.1-0.6
		c0.1-0.2,0.2-0.3,0.3-0.3L375.6,102.6z"/>
	<path class="st0" d="M413.2,111.7c0.2-0.1,0.5,0,0.6,0.3c0.1,0.2,0,0.5-0.3,0.6c-0.2,0.1-0.4,0.2-0.7,0.1c-0.2,0-0.3-0.2-0.4-0.4
		l0-0.4c0.1-0.4,0.3-0.6,0.6-0.9c0.5-0.6,1.3-1.2,2.3-1.9l3.8-2.6l5.8-3.7l3-1.8c1.4-0.8,2.6-1.4,3.6-1.9l3-1.6l1.2-0.7
		c0.1-0.1,0.2-0.2,0.3-0.2l0,0c0,0-0.2,0.2-0.1,0.1c0.1-0.1-0.1,0.4-0.1,0.3c0-0.1,0,0.2,0,0.2l0,0l-0.2-0.1
		c-0.2-0.1-0.2-0.3-0.1-0.4c0.1-0.1,0.2-0.2,0.3-0.2l0.6,0c0.1,0,0.4,0.1,0.5,0.4c0.1,0.3,0.1,0.5,0,0.7c0,0.1-0.1,0.2-0.2,0.3
		c-0.4,0.4-0.9,0.6-1.5,0.9l-3.1,1.6c-1,0.5-2.1,1.1-3.5,1.8l-3,1.8l-5.9,3.6l-3.9,2.4c-1,0.6-1.8,1.2-2.2,1.6l-0.4,0.5l0,0l0-0.1
		c0,0.1-0.2-0.2-0.1-0.2C413.3,111.9,413.1,111.8,413.2,111.7l-0.1,0L413.2,111.7z"/>
	<path class="st0" d="M428.8,114.8c-0.2-0.2-0.1-0.6,0.1-0.7c0.2-0.2,0.6-0.1,0.7,0.1c0.2,0.2,0.1,0.6-0.1,0.7
		c-0.2,0.1-0.4,0.1-0.6,0c-0.1-0.1,0.1,0.1,0.1,0.1c-0.1,0,0.1,0,0.1,0l-0.1,0c-0.2,0-0.3-0.2-0.3-0.3c0,0,0-0.1,0-0.1l0,0.1l0,0.1
		C428.8,114.7,428.9,114.9,428.8,114.8 M415.4,114.4c0.1-0.2,0.4-0.3,0.6-0.2c0.2,0.1,0.3,0.3,0.3,0.6c0,0-0.1-0.2,0-0.2l0,0
		l1.1,0.1c1.1,0,2.5-0.2,4.1-0.5c1.7-0.3,3.4-0.5,4.8-0.6l1.6,0l1.2,0l0.4,0c0.1,0,0.4,0.1,0.6,0.5c0.2,0.4,0,0.9-0.3,1.1
		c-0.4,0.2-0.9,0-1.1-0.3c0,0,0,0,0,0c0-0.1,0.2,0.3,0.2,0.2c-0.1-0.1,0.2,0.1,0.2,0.1l0.1,0l-0.1,0l-1.2,0l-1.5,0
		c-1.3,0-3,0.2-4.7,0.4c-1.6,0.2-3.1,0.3-4.3,0.3c-0.6,0-1-0.1-1.4-0.2c-0.2-0.1-0.4-0.2-0.5-0.4
		C415.3,114.9,415.3,114.6,415.4,114.4 M430.1,114.4c0,0.4-0.4,0.8-0.8,0.8c-0.4,0-0.8-0.4-0.8-0.8c0-0.4,0.4-0.8,0.8-0.8
		C429.8,113.6,430.1,114,430.1,114.4"/>
	<path class="st0" d="M338.6,138.7c-0.2,0.1-0.5,0-0.6-0.3c-0.1-0.2,0-0.5,0.2-0.6l2.5-1.3c2-0.9,5.3-1.9,8.5-3.2
		c1.9-0.7,3.6-1.4,4.9-2.1l2-0.9l0.9-0.4c0.4-0.1,0.8,0.1,0.9,0.5c0.1,0.3,0,0.6-0.3,0.8l-0.8,0.4l-2,0.9c-1.4,0.6-3.1,1.3-5.1,2
		c-3.3,1.2-6.7,2.1-8.6,2.9L338.6,138.7z"/>
	<path class="st0" d="M364.1,118.4c-0.1-0.2,0-0.5,0.2-0.6c0.2-0.1,0.5,0,0.6,0.2c0,0.1,0.1,0.1,0.1,0.2c0,0.3-0.1,0.5-0.3,0.8
		l-0.7,1.4c-0.1,0.2-0.3,0.2-0.4,0.1c-0.2-0.1-0.2-0.3-0.1-0.4l0.5-1.3L364.1,118.4L364.1,118.4L364.1,118.4z M349.7,133.2
		c0-0.2,0-0.3,0.1-0.5l0.1-0.1l0.2-0.3l2.1-2.3c1.3-1.3,2.9-2.6,4.3-3.9c2.1-2,3.5-4.1,4.7-5.9c0.7-0.9,1.3-1.7,1.8-2.3l0.7-0.6
		l0.4-0.2c0.2-0.1,0.4-0.1,0.7,0c0.5,0.2,0.7,0.7,0.5,1.2c-0.1,0.4-0.5,0.6-0.9,0.6c-0.1,0,0.4,0,0.3,0c-0.1,0,0.1-0.1,0.1,0l0,0
		l-0.4,0.4c-0.5,0.5-1.1,1.2-1.7,2.1c-1.3,1.7-2.9,3.9-5.2,6c-1.5,1.3-3.2,2.5-4.4,3.7l-2.2,2.1l-0.3,0.2l-0.2,0.1l-0.2,0.1l-0.2,0
		C350,133.6,349.8,133.5,349.7,133.2 M350.1,132.3c0.2-0.2,0.4-0.3,0.7-0.1c0.2,0.1,0.3,0.4,0.1,0.6l-0.2,0.3l0,0c0,0,0-0.2,0-0.1
		c0,0,0-0.2,0-0.2c0,0-0.1-0.2-0.1-0.1c0,0.1-0.3-0.2-0.2-0.2l-0.2-0.1c0.3,0,0.5,0.3,0.5,0.5c0,0.3-0.3,0.5-0.5,0.5
		c-0.3,0-0.5-0.3-0.5-0.5c0-0.1,0-0.2,0.1-0.3l0.1-0.1L350.1,132.3z"/>
	<path class="st0" d="M352.6,133.4c-0.3,0-0.4-0.3-0.4-0.5c0-0.2,0.2-0.4,0.5-0.4c1.6,0,4.1,0.4,6.7,1c2,0.5,3.6,1.4,4.9,2.1
		l1.3,0.7l1.1,0.4l0.2,0l-0.1,0l-0.1,0.1c0.1-0.1,0.1-0.1,0.2-0.2c0.1,0-0.2,0.1-0.1,0.1l0,0l-0.1-0.6c0-0.2,0.1-0.4,0.2-0.4
		c0.1,0,0.3,0,0.4,0.1l0.4,0.7c0.1,0.2,0.2,0.4,0.2,0.7c0,0.1,0,0.2-0.1,0.3c-0.1,0.3-0.4,0.5-0.7,0.6c-0.3,0.1-0.5,0.1-0.8,0
		c-0.5-0.1-1-0.2-1.4-0.4l-1.5-0.8c-1.3-0.7-2.7-1.5-4.5-2.1C356.4,134.3,354,133.6,352.6,133.4"/>
	<path class="st0" d="M376.7,123.9c0.1-0.2,0.3-0.4,0.6-0.3c0.2,0.1,0.4,0.3,0.3,0.6c-0.1,0.2-0.3,0.4-0.6,0.3
		c-0.1,0-0.2-0.1-0.3-0.3c0-0.1,0.1,0.1,0.1,0.1c-0.1-0.1,0.2,0.1,0.1,0.1l0.1,0l-0.4,0c-0.2,0-0.3-0.1-0.4-0.3
		c0-0.2,0.1-0.3,0.2-0.4l0.4-0.1l0.1,0c0,0-0.1,0.1,0,0l0,0C376.8,123.8,376.6,124,376.7,123.9 M359.9,132.7
		c-0.2-0.2-0.1-0.5,0.1-0.7c0.2-0.1,0.4-0.1,0.6,0c0.1,0.1,0.2,0.1,0.4,0.1l0.9-0.2c0.8-0.3,1.7-0.9,2.9-1.5l3.9-2.2
		c2-1.2,3.3-2,4.2-2.6l1-0.7l1.3-0.7c0.7-0.3,1.3-0.4,1.7-0.5l0.3,0c0,0,0.1,0,0.2,0.1c0.1,0.1,0.1,0.2,0.1,0.3c0,0.2,0,0.3-0.1,0.3
		c-0.1,0.2-0.2,0.2-0.3,0.3l-1.3,0.8l-1,0.8l-1.1,0.9l-4.4,2.6l-4,2.1c-1.2,0.6-2.3,1.1-3.2,1.4c-0.5,0.1-0.9,0.2-1.3,0.1
		C360.5,133.2,360.1,133,359.9,132.7"/>
	<path class="st0" d="M382.8,129.9c0.3-0.1,0.7,0,0.9,0.4c0.1,0.3,0,0.7-0.4,0.9c-0.3,0.1-0.7,0-0.9-0.4c-0.1-0.2,0-0.5,0.1-0.7
		c0.1-0.1-0.1,0.2-0.1,0.1c0.1-0.1-0.1,0.3-0.1,0.3c0-0.1,0.1,0.3,0,0.2c0-0.1,0.1,0.1,0.1,0.1l0,0c-0.1-0.1-0.5-0.3-1.1-0.4
		c-0.2-0.1-0.3-0.2-0.2-0.4c0-0.1,0.2-0.2,0.3-0.2L382.8,129.9l0.2,0l0,0C382.9,129.9,382.8,129.9,382.8,129.9L382.8,129.9z
		 M370.8,129.3c0.2-0.1,0.5,0,0.6,0.3c0.1,0.2,0,0.4-0.1,0.5l0,0l0-0.1c0,0,0-0.2,0-0.1c0,0.1-0.1-0.3,0-0.2c0,0.1-0.1-0.2-0.1-0.2
		c0.1,0.1-0.2-0.1-0.2-0.1l-0.1,0c0.1,0,0,0,0,0l0.2,0l1.5-0.1c1.6-0.1,3.2-0.3,4.9-0.2c1.2,0.2,2.3,0.5,3.3,0.6
		c1,0.2,1.9,0.2,1.9,0.2c0.2,0,0.3,0,0.5,0l0.2,0.1c0.1,0.1,0.2,0.2,0.2,0.3c0.2,0.4,0.1,0.5,0,0.7c-0.1,0.2-0.2,0.3-0.3,0.4
		c-0.5,0.3-0.8,0.2-1.2,0.3l-1.5,0c-1.2-0.1-2.4-0.5-3.4-0.6c-1.3-0.3-2.9-0.1-4.5-0.1l-1.7-0.1c-0.2,0-0.4,0-0.7-0.4
		c-0.1-0.2,0-0.7,0.2-0.8L370.8,129.3z"/>
	<path class="st0" d="M394.1,118.1c0.2-0.3,0.5-0.4,0.9-0.3c0.3,0.2,0.4,0.5,0.3,0.9c-0.2,0.3-0.5,0.4-0.9,0.3
		c-0.2-0.1-0.3-0.3-0.3-0.5c0-0.1,0.1,0.3,0.1,0.2c0-0.1,0.1,0.2,0.1,0.1c-0.1-0.1,0.2,0.1,0.2,0.1l0.1,0l0.2,0
		c-0.6,0.2-1.7,0.9-2,1.3c-0.1,0.1-0.3,0.2-0.5,0c-0.1-0.1-0.1-0.3-0.1-0.4c0.4-0.7,1.4-1.5,2.2-1.9L394.1,118.1L394.1,118.1
		L394.1,118.1L394.1,118.1z M378.8,128.8c0.2-0.2,0.5-0.1,0.7,0.1c0.2,0.2,0.1,0.5,0,0.6l-0.3,0.3l0,0.1l0,0l0-0.1
		c0,0-0.1-0.3,0-0.2c0,0.1-0.2-0.2-0.1-0.2c0.1,0.1-0.3-0.1-0.2-0.1c0.1,0-0.1,0-0.1,0l0.1,0c0.4-0.2,1.3-0.8,2.4-1.7
		c2.3-1.9,5.2-4.6,8.2-6.8c1.6-1.1,3.1-1.9,4.1-2.5l0.9-0.5c0.1-0.1,0.2-0.1,0.3-0.1l0.2,0l0.2,0c0.1,0,0.3,0.1,0.4,0.2l0.2,0.3
		c0.1,0.4,0,0.6-0.1,0.8c-0.1,0.1-0.1,0.2-0.2,0.2l-0.9,0.6c-1,0.6-2.4,1.3-4,2.4c-3,2-6,4.6-8.4,6.4c-1.2,0.9-2.1,1.5-2.8,1.7
		c-0.2,0.1-0.3,0.1-0.5,0.1c-0.1,0-0.3-0.1-0.4-0.3c-0.1-0.2-0.1-0.4,0-0.5C378.3,129.2,378.5,129.1,378.8,128.8"/>
	<path class="st0" d="M390.2,126.3c-0.2,0.1-0.5,0-0.6-0.3c-0.1-0.2,0-0.4,0.2-0.5c0.8-0.6,2.2-0.7,3.7-0.8c1-0.1,1.9,0,2.7,0.1
		c1.2,0.2,2.3,0.3,3.4,0.3c0.9,0,1.9-0.1,2.9-0.3c0.7-0.1,1.4-0.2,2.1-0.4c0.2-0.1,0.4,0,0.4,0.2c0,0.1,0,0.3-0.1,0.4l-1.9,1.1
		c-1.3,0.4-2.3,0.6-3.4,0.6c-1.3,0-2.5-0.2-3.6-0.3c-0.9-0.1-1.7-0.3-2.5-0.3C392.1,126.1,390.7,126.2,390.2,126.3"/>
	<path class="st0" d="M336.8,177.2c0.1-0.2,0.3-0.4,0.6-0.3c0.2,0.1,0.3,0.3,0.3,0.5l0-0.1c0,0.1-0.2-0.2-0.1-0.2
		c0.1,0-0.2-0.1-0.1-0.1l0.1,0l1.3-0.4c1.2-0.4,2.8-1.1,4.8-2l6.6-3l3.8-1.6c2.3-1,4.7-1.9,6.7-2.7l4-1.5c0.6-0.2,1-0.3,1.5-0.2
		c0.2,0,0.6,0.1,0.7,0.7c0.1,0.3,0,0.5-0.1,0.6l-0.2,0.2c-0.3,0.3-0.8,0.5-1.4,0.7c-0.6,0.3-1.3,0.5-1.9,0.5c-0.2,0-0.3-0.1-0.4-0.3
		c0-0.2,0.1-0.3,0.2-0.3c1-0.3,2.4-1.3,2.4-1.4c0,0,0,0.2,0,0.2c0-0.1,0.1,0.3,0,0.2c0-0.1,0.3,0.4,0.2,0.3
		c-0.1-0.1,0.4,0.2,0.3,0.1c-0.1,0,0.2,0,0.1,0l0.1,0l0,0l-0.8,0.3l-4,1.5c-2.1,0.8-4.5,1.6-6.7,2.5l-3.8,1.6l-6.7,2.8
		c-2,0.8-3.7,1.5-4.9,1.9c-0.6,0.2-1.1,0.3-1.5,0.3c-0.2,0-0.4,0-0.6-0.1C336.8,177.8,336.7,177.4,336.8,177.2"/>
	<path class="st0" d="M363.9,179.2c0-0.3,0.3-0.6,0.7-0.6c0.3,0,0.6,0.3,0.6,0.7c0,0.3-0.3,0.6-0.7,0.6c-0.3,0-0.5-0.2-0.6-0.5
		l0,0.1c0-0.1,0.1,0.1,0.1,0.1c0-0.1,0,0,0,0l-0.1-0.1c-0.2-0.1-0.2-0.3-0.1-0.5c0-0.1,0.1-0.1,0.2-0.1l0.1,0l0,0l0,0.1
		C364,178.9,363.9,179.2,363.9,179.2L363.9,179.2z M348.8,175c-0.1-0.1-0.2-0.2-0.2-0.3c-0.1-0.5,0.1-0.5,0.2-0.5
		c0.2-0.1,0.3-0.2,0.5-0.2l1.1-0.2c0.5,0,1.1-0.2,1.8-0.1c1.1,0.2,1.6,1,2.2,1.3c1.2,0.8,3.9,0.9,6.4,1.5c1.2,0.3,2.3,0.7,3.1,1.1
		l1.1,0.6l0.4,0.3c0.1,0.1,0.4,0.4,0.2,0.9c-0.2,0.5-0.7,0.7-1.1,0.6c-0.3-0.1-0.5-0.3-0.6-0.5c0-0.1,0.2,0.3,0.1,0.2
		c-0.1-0.1,0.1,0.1,0.1,0.1l0,0l-0.1,0l-0.9-0.5c-0.7-0.4-1.7-0.8-2.7-1c-2.2-0.6-5.1-0.5-7-1.8c-0.8-0.6-1.2-1.1-1.4-1.1
		c-0.4-0.1-0.9,0-1.5-0.1l-1.1-0.1l-0.3,0C349,175.1,349,175.2,348.8,175 M349.5,174.4c0.2,0.2,0.2,0.5,0,0.7
		c-0.1,0.1-0.1,0.1-0.2,0.1l0,0l0,0c0,0,0.1-0.1,0.1-0.1c-0.2,0.2-0.5,0.1-0.7-0.1c-0.2-0.2-0.1-0.5,0.1-0.7
		C349,174.1,349.3,174.2,349.5,174.4c0.1,0.1,0.1,0.3,0.1,0.4c0,0.1,0-0.3,0-0.2C349.6,174.6,349.5,174.4,349.5,174.4L349.5,174.4z"
		/>
	<path class="st0" d="M357.2,174.7c0.1-0.3,0.3-0.4,0.6-0.4c0.3,0.1,0.4,0.3,0.4,0.6c0,0,0,0,0,0l-0.1,0.6l0.1,0.4l0.2,0l0.6-0.2
		l1.8-0.8l2.3-1.3l2.7-1.6c1.4-0.6,3-1.2,5.3-2.1c0.2-0.1,0.4,0,0.4,0.2c0.1,0.2,0,0.3-0.2,0.4c-2.3,1.1-3.7,2-4.8,2.7l-2.8,1.5
		l-2.5,1.2c-0.7,0.3-1.4,0.5-2.1,0.7l-0.9,0.1c-0.3,0-0.6-0.1-0.8-0.3c-0.3-0.2-0.4-0.6-0.4-0.9L357.2,174.7z"/>
	<path class="st0" d="M371.7,46.7c0.1-0.2,0.5-0.3,0.7-0.2c0.2,0.1,0.3,0.5,0.2,0.7c-0.1,0.1-0.2,0.2-0.4,0.2l-1,0.5
		c-0.2,0.1-0.4,0-0.4-0.1c-0.1-0.1,0-0.3,0.1-0.4L371.7,46.7z M339,65c-0.3,0.1-0.5-0.1-0.6-0.3c-0.1-0.2,0.1-0.5,0.3-0.5
		c0.8-0.3,1.6-0.9,2.6-1.3c0.6-0.2,1.1-0.2,1.5-0.3c0.8-0.3,1.8-1.1,2.9-1.8c1.5-1,2.9-1.8,4.8-2.8c2.5-1.3,5.7-3.2,8.9-5
		c1.7-1,3.2-1.7,4.3-2.2c1-0.4,1.7-0.6,2.1-0.7c0.9-0.4,1.9-1.2,2.8-1.8l1.7-1.2l1.2-0.7l0.1-0.1l0.1-0.1l-0.1,0
		c0.4-0.3,1-0.2,1.2,0.3c0.3,0.4,0.2,1-0.3,1.2c0,0-0.1,0.1-0.1,0.1l0,0c-0.1,0,0.1,0,0,0l-0.1,0.1l-1.1,0.7l-1.6,1.1
		c-0.9,0.6-1.9,1.5-3.2,2c-0.6,0.3-1.2,0.4-2,0.8c-1.1,0.5-2.6,1.2-4.2,2.1c-3.2,1.8-6.5,3.7-9,4.9c-1.9,0.9-3.2,1.6-4.7,2.6
		c-1.1,0.7-2.2,1.5-3.3,1.8c-0.7,0.2-1.3,0.2-1.5,0.3C340.8,64.4,340,64.8,339,65 M373.1,46.9c0,0.5-0.4,0.9-0.9,0.9
		c-0.5,0-0.9-0.4-0.9-0.9c0-0.5,0.4-0.9,0.9-0.9C372.7,46.1,373.1,46.5,373.1,46.9"/>
	<path class="st0" d="M376.9,62.3c0.1-0.3,0.4-0.5,0.7-0.4c0.3,0.1,0.5,0.4,0.4,0.7c0,0.1-0.1,0.2-0.1,0.2c-0.3,0.3-0.5,0.3-0.8,0.3
		l-0.7,0l-1.5-0.2c-0.2,0-0.3-0.2-0.2-0.4c0-0.1,0.2-0.3,0.3-0.3l1.4,0l0.5-0.1l0.1,0l0,0C377,62.1,376.9,62.3,376.9,62.3
		 M356.9,55.7c0.1,0.2-0.1,0.5-0.3,0.6c-0.2,0.1-0.5,0-0.6-0.3l-0.1-0.4c0-0.1,0-0.3,0-0.5c0.1-0.2,0.3-0.3,0.4-0.4l0.4,0
		c0.5,0.1,1,0.3,1.6,0.6c1.3,0.6,3.2,1,5.2,1.6l3.1,0.9c2.4,0.7,5,1.3,7.3,1.9l2.7,0.8c0.6,0.2,1.1,0.5,1.4,0.9
		c0.1,0.2,0.2,0.4,0.2,0.6c0,0.3,0,0.6-0.4,0.9l-0.1,0.1c-0.1,0-0.1,0-0.2,0.1l-0.1,0l-0.3,0c-0.2,0-0.4-0.1-0.6-0.3l-0.7-0.4
		l-2.5-0.8c-2.2-0.6-4.9-1.3-7.3-2.1l-3.1-1c-2-0.7-3.9-1.3-5.3-2l-1.3-0.7l0,0l0.1,0c-0.1,0,0.2-0.1,0.2-0.1
		C356.7,55.8,356.8,55.6,356.9,55.7l0-0.1L356.9,55.7z"/>
	<path class="st0" d="M383.4,53.1c-0.1-0.4,0.1-0.8,0.5-1c0.4-0.1,0.8,0.1,1,0.5c0.1,0.4-0.1,0.8-0.5,1c-0.3,0.1-0.5,0-0.7-0.2
		l0.1,0.1c-0.1-0.1,0.2,0.1,0.2,0.1c-0.1,0,0.2,0,0.1,0c-0.1,0,0.1,0,0.1,0l-0.3,0.1c-0.4,0.1-0.8,0.4-1.1,0.6
		c-0.1,0.1-0.3,0.1-0.5,0c-0.1-0.1-0.1-0.3,0-0.4c0.2-0.5,0.7-0.9,1-1.2l0.3-0.3l0,0l0,0.1l0,0.1c0-0.1,0,0.4,0,0.2L383.4,53.1z
		 M371.9,59.6c-0.1-0.2-0.1-0.4,0.1-0.6c0.2-0.2,0.2-0.2,0.2-0.2l0.1,0l1-0.3c0.8-0.3,1.9-1,3.1-1.8c2-1.2,4-2.7,5.6-3.7
		c0.9-0.6,1.6-0.9,1.8-1c0.3-0.1,0.6-0.1,0.9,0.1l0.1,0.1c0.1,0.1,0.2,0.3,0.2,0.4l0,0.1c0,0.3-0.2,0.6-0.5,0.7
		c-0.2,0.1-0.8,0.3-1.6,0.8c-1.5,0.9-3.6,2.3-5.7,3.6c-1.2,0.7-2.4,1.5-3.5,1.7c-0.6,0.1-1,0.2-1.2,0.2l-0.1,0
		C372.2,59.9,372.1,60,371.9,59.6 M372.8,58.9c0.3,0,0.5,0.2,0.4,0.5c0,0.2-0.2,0.4-0.4,0.4l-0.3,0l0.1,0l0.1,0l0.1-0.1
		c0,0,0.1-0.2,0.1-0.1c-0.1,0.3-0.4,0.4-0.7,0.3c-0.3-0.1-0.4-0.4-0.3-0.7c0.1-0.3,0.4-0.4,0.7-0.3c0.1,0,0.1,0.1,0.2,0.1
		c0,0.1-0.1-0.1-0.1-0.1c0.1,0-0.1-0.1-0.1-0.1l0,0L372.8,58.9z"/>
	<path class="st0" d="M337,87.4c0.2-0.1,0.5,0,0.6,0.2c0.1,0.2,0,0.4-0.1,0.6c0,0,0.1-0.2,0.1-0.1c0,0.1,0-0.3,0-0.2
		c0,0.1-0.1-0.2,0-0.2l0-0.1l0.1,0.1l1,0.3c1,0.2,2.4-0.1,4.8-0.7c2-0.6,4.6-1.5,7.8-2.7c3.6-1.3,7.5-2.4,11.5-3.5
		c4.6-1.2,9.6-2.3,13.9-3.3l5.4-1.2l1.9-0.5l0.3-0.1l0,0c0,0-0.1,0.1-0.1,0.1l-0.1,0.1c0-0.1-0.1,0.4-0.1,0.3c0-0.1,0.1,0.5,0,0.4
		c-0.2-0.5,0.1-1,0.5-1.1c0.4-0.2,0.9,0.1,1.1,0.5c0.1,0.4,0,0.8-0.2,1c-0.3,0.4-0.6,0.4-0.9,0.6l-2,0.6l-5.4,1.2
		c-4.4,1-9.4,2-13.9,3.1c-4,1-7.8,2.1-11.4,3.3c-3.2,1.1-5.9,2-7.9,2.5c-2.4,0.6-4,0.8-5.3,0.5c-0.5-0.1-1-0.3-1.3-0.5
		c-0.2-0.1-0.3-0.2-0.4-0.4c-0.1-0.1-0.1-0.2-0.1-0.4C336.7,87.6,336.9,87.4,337,87.4"/>
	<path class="st0" d="M395.1,60.1c-0.1-0.2,0-0.4,0.1-0.6c0.2-0.1,0.4,0,0.6,0.1c0,0,0,0.1,0,0.1c0.1,0.3-0.1,0.5-0.2,0.8l-0.7,1.5
		c-0.1,0.2-0.3,0.2-0.4,0.1c-0.2-0.1-0.2-0.3-0.1-0.4l0.6-1.4L395.1,60.1l0-0.1C395.1,59.9,395.1,60.1,395.1,60.1 M376.1,79
		c-0.2-0.1-0.3-0.3-0.3-0.5c0.1-0.4,0.1-0.2,0.1-0.2l0.1-0.1l0.3-0.3l1.3-1.2l4.7-4.3l3.7-3.5c2.2-2.1,3.8-4,5.3-5.7l2.4-3l0.6-0.6
		c0.2-0.2,0.3-0.3,0.7-0.4c0.4-0.1,0.9,0.2,1,0.6c0.1,0.4-0.2,0.9-0.6,1c-0.1,0,0.2-0.1,0.1-0.1l-0.6,0.6l-2.5,2.9
		c-1.5,1.8-3.3,3.7-5.5,5.8l-3.8,3.5l-4.9,4.2l-1.4,1.1l-0.4,0.3l-0.1,0.1l-0.1,0C376.4,79,376.4,79.2,376.1,79 M376.1,78.2
		c0.2-0.1,0.5,0,0.6,0.2c0.1,0.1,0.1,0.3,0,0.4l0-0.1l0-0.1c0,0,0-0.2,0-0.2c0.1,0.2-0.1,0.5-0.3,0.6c-0.2,0.1-0.5-0.1-0.6-0.3
		C375.8,78.5,375.9,78.2,376.1,78.2c0.1,0,0.1,0,0.2-0.1C376.3,78.1,376.1,78.1,376.1,78.2L376.1,78.2z"/>
	<path class="st0" d="M383.5,79.2c-0.2-0.1-0.4-0.3-0.3-0.6c0.1-0.2,0.3-0.4,0.6-0.3c0.8,0.2,2.6-0.4,5-1.2l4.7-1.5
		c2.2-0.7,4.4-1.7,6.3-2.4l3-1.1c0.5-0.1,0.8-0.2,1.3,0c0.3,0.1,0.4,0.6,0.3,0.8l-0.2,0.3l-1.4,1.2c-0.1,0.1-0.3,0.1-0.5,0
		c-0.1-0.1-0.1-0.3,0-0.4l1-1.3l0,0c0,0,0.1,0.3,0,0.2c0,0,0.2,0.2,0.1,0.2c-0.1-0.1,0.3,0.2,0.2,0.1c-0.1,0,0.2,0,0.1,0l-0.5,0.2
		l-2.9,1c-1.9,0.7-4.2,1.6-6.4,2.4l-4.8,1.4C386.6,78.9,384.8,79.6,383.5,79.2"/>
	<path class="st0" d="M361.8,81.6c0.1-0.2,0.4-0.3,0.6-0.2c0.2,0.1,0.3,0.3,0.2,0.4L363,83c0.3,1.3,1,3,1.7,4.8
		c0.7,1.6,1.4,3.1,2.1,4.4c0.5,1.1,1,1.9,1.3,2.2c0,0,0.1,0.1,0.1,0.1l0.1,0.2l0,0l-0.1-0.1c0,0-0.3-0.1-0.2-0.1c0.1,0-0.4,0-0.3,0
		c0.1,0-0.2,0.1-0.2,0.1c0.1,0-0.2,0.2-0.2,0.1l-0.1,0.1l0-0.1c0-0.5-0.2-1.7-0.7-3.5c0-0.2,0.1-0.4,0.2-0.4c0.2,0,0.3,0,0.4,0.2
		l1.2,3.5l0.1,0.4c0,0.1,0.1,0.3-0.1,0.6c-0.2,0.4-0.8,0.4-1,0.3l-0.5-0.3c0,0-0.1-0.1-0.1-0.1c-0.4-0.6-0.9-1.4-1.5-2.5
		c-0.7-1.4-1.4-3-2-4.6c-0.7-1.9-1.3-3.6-1.6-5C361.6,82.6,361.6,82.1,361.8,81.6"/>
	<path class="st0" d="M363.6,82.4c0.1,0.2,0,0.5-0.3,0.6c-0.2,0.1-0.5,0-0.6-0.3c-0.2-0.5-0.1-1.1,0.3-1.9l0.9-1.9
		c0.6-1.3,1.2-3.1,1.9-4.9c0.6-1.4,1.3-2.6,1.9-3.6c0.6-1,1.1-1.6,1.6-2.1c0.1,0,0.1-0.1,0.2-0.1c0.3-0.1,0.6-0.4,1.1-0.1
		c0.3,0.1,0.4,0.6,0.4,0.7l-0.1,0.3l-0.9,1.5c-0.1,0.2-0.3,0.2-0.5,0.1c-0.1-0.1-0.2-0.3-0.1-0.4l0.3-0.9l0-0.2l0,0
		c0,0,0.1,0.2,0.1,0.1c0,0,0.2,0.1,0.1,0.1c-0.1,0,0.3,0.1,0.2,0.1c0,0,0.3,0,0.2,0c-0.1,0,0.3-0.1,0.2-0.1l0.1-0.1l-0.1,0.2
		c0,0.1-0.1,0.1-0.1,0.2c-0.3,0.2-0.8,0.8-1.4,1.7c-0.6,0.9-1.3,2-1.9,3.3c-0.8,1.7-1.4,3.4-2.2,4.8l-1.1,1.8
		C363.6,81.9,363.6,82.3,363.6,82.4"/>
	<path class="st0" d="M353.1,85.2c0,0.3-0.3,0.4-0.5,0.4c-0.2,0-0.4-0.2-0.4-0.4c0-0.3-0.5-1-0.5-2.2c0.1-0.6,0.3-1.1,0.6-1.7
		c0.5-1,1.2-2.2,2-3.6c0.6-1.1,1.2-2.3,1.7-3.5l1.4-3.2l0.7-2l0.3-1.2l0.2-0.6c0.1-0.4,0.5-0.6,0.9-0.5c0.3,0.1,0.5,0.4,0.5,0.7
		l0,0.7l-0.4,1.5l-0.8,2.1l-1.5,3.3c-0.6,1.2-1.2,2.4-1.9,3.6l-2.1,3.5c-0.3,0.6-0.5,1-0.6,1.2C352.8,83.9,353.2,84.5,353.1,85.2"/>
	<path class="st0" d="M303.4,279c0,0.3-0.2,0.5-0.4,0.5c-0.3,0-0.5-0.2-0.5-0.4c0-0.3,0.2-0.5,0.4-0.5c0.1,0,0.3,0,0.4,0.1
		c0.1,0.1-0.2-0.1-0.2-0.1l-0.1,0c0.1,0-0.1,0-0.1,0c0.1,0,0,0,0,0l0.6-0.3c0.2-0.1,0.4,0,0.5,0.1c0.1,0.1,0,0.3-0.1,0.4l-0.5,0.4
		l0,0c0,0,0.1-0.1,0-0.1l0-0.1C303.3,279.2,303.4,278.9,303.4,279 M336.4,262.7c-0.1,0.2-0.3,0.4-0.6,0.3c-0.2-0.1-0.3-0.2-0.3-0.4
		c0-0.1,0.1,0.2,0.1,0.2l0,0l-0.3,0l-1.4,0.1c-1.3,0.2-3,0.8-5.4,1.8c-3.3,1.4-7.6,3.6-11.4,5.7l-3.8,2.1l-3.4,2l-1.9,1.2l-1.7,1.4
		l-1,0.8L304,279l-0.6,0.3l-0.2,0.1c-0.1,0-0.1,0.1-0.4,0.1l-0.1,0c-0.1,0-0.2-0.1-0.2-0.2l0-0.1c-0.1-0.4,0.1-0.4,0.1-0.5l0.6-0.6
		l1.5-1.2l1-0.9l1.9-1.3l1.9-1.3l3.4-2l3.8-2.1c3.9-2.1,8.2-4.3,11.5-5.8c2.4-1.1,4.2-1.7,5.8-1.9c0.7,0,1.2,0,1.7,0.1
		c0.2,0.1,0.4,0.1,0.6,0.3l0.2,0.3L336.4,262.7z"/>
	<path class="st0" d="M307.9,275.7c-0.3-0.3-0.4-0.7-0.1-1c0.2-0.3,0.6-0.4,1-0.2c0.8,0.5,1,1.5,1.3,2.7l1,4.5c0.4,2,1,3.9,1.5,5.4
		l0.5,1.3l0.2,0.6c0,0-0.1-0.1,0,0c0,0.1-0.2-0.2-0.2-0.1c0,0-0.2-0.1-0.2-0.1c0.1,0-0.4,0-0.3,0l-0.1,0c0.1,0-0.2,0.1-0.2,0.1
		c0.1,0-0.1,0.1-0.1,0.1l0,0l0-0.2l0.1-1c0-0.8,0.1-1.7,0.4-2.3c0.1-0.2,0.3-0.2,0.5-0.1c0.1,0.1,0.2,0.2,0.1,0.4
		c-0.1,0.4-0.1,1.2,0,2l0.1,1.1l0,0.4c0,0.1,0,0.3-0.2,0.6l0.1-0.1l-0.3,0.4c-0.1,0.1-0.3,0.1-0.5,0.1c-0.2,0-0.4-0.1-0.5-0.2
		c-0.2-0.2-0.4-0.4-0.6-0.7l-0.6-1.5c-0.5-1.5-1-3.5-1.5-5.6l-0.8-4.5l-0.4-1.4L307.9,275.7z"/>
	<path class="st0" d="M296.1,286.1c-0.2-0.1-0.4-0.4-0.3-0.6c0.1-0.2,0.4-0.4,0.6-0.3c0,0,0.1,0,0.1,0.1c0,0-0.1,0-0.1,0l0.5,0
		c0.4-0.1,0.8-0.2,1.3-0.6c0.1-0.1,0.4-0.1,0.5,0.1c0.1,0.1,0.1,0.3,0,0.4c-0.5,0.4-1,0.7-1.5,0.8
		C296.7,286.2,296.4,286.3,296.1,286.1 M306.3,281.6c0.1,0.2,0,0.5-0.2,0.6c-0.2,0.1-0.5,0-0.6-0.2c0,0,0,0,0-0.1
		c-0.2-0.7,0.1-1.4,0.2-2.1l-0.1-0.2l0,0c0,0-0.1-0.1-0.1-0.1c0-0.1,0.1,0.1,0.1,0.1l0,0l-0.2,0l-0.9,0.2c-0.6,0.2-1.1,0.9-1.8,1.5
		l-1.7,1.5l-2.5,1.9l-1.8,1.3c-0.2,0.3-0.7,0.4-1,0.2c-0.3-0.2-0.4-0.7-0.2-1c0.3-0.4,0.6-0.5,0.9-0.8l1.2-0.9l2.4-1.8l1.6-1.4
		c0.6-0.6,1.2-1.4,2.2-1.8c0.5-0.2,0.9-0.3,1.4-0.3l0.7,0.1c0.2,0.1,0.5,0.3,0.6,0.6c0,0.1,0,0.1,0,0.2c0,0.4-0.2,0.6-0.2,0.8
		L306.3,281.6z M296.9,285.6c0,0.4-0.3,0.7-0.7,0.7c-0.4,0-0.7-0.3-0.7-0.7s0.3-0.7,0.7-0.7C296.6,284.8,296.9,285.2,296.9,285.6"/>
	<path class="st0" d="M312.2,286.2c0.2,0,0.5,0.1,0.5,0.4c0,0.2-0.1,0.5-0.4,0.5c-0.2,0-0.5-0.1-0.5-0.4c0,0,0-0.1,0-0.1l0,0l0-0.3
		l-0.1-0.6c-0.1-0.1-0.1-0.3,0-0.5c0.1-0.1,0.3-0.1,0.4,0c0.4,0.3,0.4,0.7,0.4,1.1l0,0.3l0,0c0,0-0.1-0.1-0.1-0.1
		c0,0-0.2-0.1-0.1-0.1l-0.1-0.1C312.4,286.2,312.1,286.2,312.2,286.2 M311.8,286.5c0-0.3,0.3-0.4,0.5-0.4c0.3,0,0.4,0.3,0.4,0.5
		c0,0,0,0.1,0,0.1l-0.1,0.1l-0.1,0.1c-0.1,0.1-0.2,0.2-0.5,0.1C311.9,287,311.8,286.8,311.8,286.5L311.8,286.5z"/>
	<path class="st0" d="M324.4,283.5c0.2-0.2,0.5-0.2,0.7,0c0.2,0.2,0.2,0.5,0,0.7c-0.2,0.2-0.5,0.2-0.7,0c0,0-0.1-0.1-0.1-0.1l0-0.1
		l0-0.1l-0.1-0.4l0-1c0-0.2,0.2-0.3,0.4-0.3c0.2,0,0.3,0.1,0.3,0.3l0.2,0.8l0.1,0.3c0,0-0.2-0.1-0.1-0.1c0,0-0.3-0.1-0.2,0
		c0,0-0.2,0-0.2,0C324.7,283.4,324.4,283.6,324.4,283.5 M318.8,271.1c-0.1-0.2,0-0.5,0.2-0.6c0.2-0.1,0.5-0.1,0.6,0.1
		c1.1,1.6,1.8,4.3,2.8,7c0.5,1.3,1,2.6,1.6,3.6l0.6,1.1l0.5,0.8c0.1,0.2,0.2,0.4,0.2,0.6c0,0.1,0.1,0.2-0.1,0.5
		c0,0.1-0.1,0.1-0.1,0.2c-0.4,0.3-0.5,0.2-0.7,0.2c-0.2,0-0.4-0.1-0.5-0.3l-0.7-1l-0.6-1.2c-0.5-1.1-1.1-2.4-1.6-3.8
		C320.2,275.3,319.6,272.6,318.8,271.1"/>
	<path class="st0" d="M324.2,281.7c0.2,0.1,0.4,0.4,0.3,0.6c-0.1,0.2-0.3,0.3-0.5,0.3c-0.2,0-0.4,0-0.6,0.2
		c-0.3,0.2-0.6,0.5-0.9,0.9c-0.7,0.9-1.4,2.1-2.1,3.3l-2,3.4l-0.7,1.2l-0.2,0.3l0,0l0-0.1c0,0,0-0.3,0-0.2c0,0,0-0.2,0-0.1
		c0,0.1-0.1-0.2-0.1-0.2c0.1,0.1-0.4-0.3-0.3-0.3c0.1,0.1-0.3-0.1-0.3-0.1c0.1,0-0.3,0-0.3,0c0.1,0-0.2,0.1-0.2,0.1l-0.1,0
		c0.1-0.1,0.3-0.2,0.5-0.1c0.1,0-0.2,0-0.2,0c0.1,0-0.1,0-0.1,0c0.1-0.1,0.6-0.6,1.3-1.4c0.1-0.1,0.3-0.2,0.5,0
		c0.1,0.1,0.2,0.3,0.1,0.4l-0.8,1.4l-0.2,0.3l0,0.1l0,0c0,0,0-0.2,0-0.1c0,0.2,0,0.3-0.2,0.5l-0.1,0.1l-0.1,0.1
		c-0.1,0.1-0.5,0.2-0.7,0c-0.2-0.1-0.3-0.3-0.3-0.4c-0.1-0.3,0-0.4,0-0.4l0.2-0.5l0.7-1.3l2-3.4c0.8-1.2,1.6-2.4,2.4-3.4
		c0.4-0.5,0.8-0.8,1.3-1.1C323.2,281.6,323.7,281.5,324.2,281.7"/>
	<path class="st0" d="M333.3,294.2c0.3,0.1,0.5,0.4,0.5,0.7c-0.1,0.3-0.4,0.5-0.7,0.5c-0.3-0.1-0.5-0.4-0.5-0.7
		c0.1-0.2,0.3-0.4,0.5-0.5c0.1,0-0.2,0-0.1,0c0.1,0-0.2,0.1-0.1,0.1l0-0.1c0.1-0.2,0.3-0.2,0.4-0.2c0.1,0,0.1,0.1,0.1,0.1l0.1,0.1
		l0,0l0,0l-0.1,0C333.4,294.3,333.2,294.2,333.3,294.2 M324.6,283.3c0.2,0.1,0.4,0.4,0.3,0.6c-0.1,0.2-0.3,0.3-0.5,0.3l-0.2-0.1
		c-0.1,0-0.2-0.1-0.3-0.2c-0.1-0.2-0.1-0.4-0.1-0.6l0.2-0.3c0.3-0.2,0.7-0.3,1.1-0.3c1-0.1,2,0.5,3.1,1.3c1.1,0.9,2.1,2.1,3.1,3.5
		c1.1,1.6,1.7,3.4,2.2,4.9l0.4,1.5l0.1,0.5l0,0.1c0,0-0.1-0.1,0-0.1c0.2,0.5,0.1,1-0.4,1.3c-0.4,0.2-0.9,0.1-1.2-0.2
		c-0.2-0.3-0.2-0.4-0.3-0.5l-0.2-0.5l-0.4-1.5c-0.4-1.4-1-3-1.8-4.4c-0.8-1.3-1.7-2.5-2.6-3.3c-0.8-0.8-1.6-1.2-2-1.2l-0.6,0l0,0
		c0,0,0.2-0.2,0.1-0.1c0,0.1,0.1-0.4,0.1-0.3C324.7,283.7,324.6,283.3,324.6,283.3L324.6,283.3L324.6,283.3z"/>
	<path class="st0" d="M333.2,252.6c-0.1,0.2-0.4,0.3-0.6,0.2c-0.2-0.1-0.3-0.3-0.2-0.5c0,0,0,0.3,0,0.2c0-0.1,0.2,0.2,0.2,0.2
		c0,0,0.1,0.1,0.1,0l-0.5,0.1l-2.1,0.4l-2.8,0.3c-1.1,0.1-2.5,0.3-4.2,0.7l-3.1,0.6l-7.8,1.7l-5.7,1.1l-5.1,1.1
		c-2.1,0.5-4.1,1.1-6,1.7c-2.5,0.8-4.7,1.7-6.4,2.4l-2.2,0.9c-0.3,0.2-0.3,0.2-0.3,0.4c0,0.2-0.2,0.4-0.4,0.4
		c-0.2,0-0.3-0.1-0.4-0.3c-0.1-0.4,0.1-0.9,0.5-1.3c0.5-0.4,1.2-0.8,2.2-1.3c1.7-0.7,4-1.7,6.5-2.5c1.9-0.6,4-1.2,6.1-1.7l5.1-1.1
		l5.6-1.2l7.8-1.7l3.1-0.6c1.7-0.3,3.1-0.5,4.3-0.7l2.7-0.3l2.2-0.3l0.8,0c0.1,0,0.3,0.1,0.4,0.2
		C333.3,252.2,333.3,252.5,333.2,252.6"/>
	<path class="st0" d="M295,258.3c0.3,0,0.5,0.2,0.5,0.5c0,0.2-0.2,0.4-0.4,0.5c-0.3,0-0.5,0.1-0.6,0.3c-0.1,0.2-0.2,0.6-0.3,1.2
		l-0.4,5.5l-0.3,7.1l-0.1,4.4l0.1,2.8l0,0.4l0,0l0,0c0,0-0.1-0.2-0.1-0.2c0,0-0.2-0.2-0.1-0.2c0.1,0.1-0.3-0.1-0.2-0.1
		c0.1,0-0.3,0-0.2,0c0.1,0-0.3,0.1-0.2,0.1c0.1,0-0.2,0.1-0.1,0.1l0,0.1l0-0.1c0.1-0.5,0.1-1.7-0.1-3.4c0-0.2,0.1-0.3,0.3-0.4
		c0.2,0,0.3,0.1,0.4,0.3c0.3,1.7,0.5,2.9,0.5,3.6l0,0.4l0,0.1c0,0.1,0,0.3-0.3,0.5c-0.4,0.2-0.7,0-0.8-0.1l-0.2-0.3l-0.2-0.5l-0.1-3
		l0.1-4.4l0.4-7.2c0.2-2.2,0.3-4.2,0.5-5.6c0.1-0.7,0.2-1.2,0.6-1.7C293.9,258.5,294.5,258.3,295,258.3"/>
	<path class="st0" d="M292,270.9c0.2,0.2,0.2,0.5,0.1,0.7c-0.2,0.2-0.4,0.2-0.6,0.1l-0.3,0l-0.8,0.2c-0.7,0.3-1.5,0.7-2.4,1.2
		c-1.8,1.1-3.8,2.5-5.3,3.6c-1,0.7-1.7,1.2-1.8,1.4c-0.1,0.2-0.4,0.2-0.5,0.1c-0.1-0.1-0.2-0.2-0.1-0.4c0.1-0.6,0.8-1.2,1.8-2
		c1.6-1.2,3.6-2.6,5.5-3.6c0.9-0.5,1.8-1,2.6-1.2l1-0.2C291.4,270.6,291.7,270.7,292,270.9"/>
	<path class="st0" d="M290.3,262.5c0.1,0.2,0,0.5-0.2,0.6c-0.2,0.1-0.5,0-0.6-0.2c-0.2-0.3-0.7-0.6-1.6-0.7c-0.9-0.1-2.2,0-3.7,0.5
		c-1.8,0.5-3.8,1.6-5.8,2.7l-2.6,1.3l-5.4,2.5c-2,0.9-3.8,1.5-5.1,1.9l-1.3,0.3l-0.4,0l-0.3-0.1c-0.1,0-0.3-0.1-0.3-0.4
		c0-0.2,0.1-0.3,0.2-0.4l0.1-0.1l0.2-0.1l0.4-0.2l1.8-0.7c0.2-0.1,0.4,0,0.4,0.2c0.1,0.2,0,0.3-0.2,0.4l-1.7,0.8l-0.4,0.2l0,0l0-0.1
		l0-0.1c0,0.1,0-0.3,0-0.2c0,0.1-0.1-0.2-0.1-0.2c0,0.1-0.2-0.2-0.2-0.1c0.1,0-0.2-0.1-0.2-0.1c0.1,0-0.2,0-0.1,0c0.1,0,0,0,0,0
		l0.3-0.1l1.2-0.4c1.3-0.4,3-1,5-1.9l5.3-2.5l2.6-1.3c2.1-1.1,4.1-2.2,6.1-2.8c1.7-0.5,3.1-0.6,4.2-0.4
		C289.2,261.4,290,261.8,290.3,262.5"/>
	<path class="st0" d="M278.8,267c-0.1,0.3-0.3,0.4-0.6,0.3c-0.2-0.1-0.4-0.3-0.3-0.5l0.1-0.6l0,0c0,0,0.2,0.2,0.1,0.2
		c0,0,0.2,0.1,0.2,0.1c-0.1,0,0.3,0,0.2,0c-0.1,0,0.2-0.1,0.2,0c-0.1,0,0.1-0.1,0.1-0.1L278,268c-0.8,1.7-1.6,4.1-2.1,5.8l-0.2,1
		l0,0.4c0.1,0.1,0.1,0.3,0,0.5l0,0c0,0,0-0.3,0-0.2c0,0.1-0.2-0.2-0.1-0.2l-0.1,0c0.2,0,0.3,0.2,0.3,0.4c0,0.1,0,0.1-0.1,0.2
		l-0.2,0.2c-0.1,0.1-0.5,0.2-0.7,0.1c-0.2-0.1-0.3-0.2-0.3-0.3c-0.3-0.7-0.1-1.3,0.2-2.2c0.5-1.9,1.4-4.2,2.2-6
		c0.4-0.8,0.7-1.4,1.1-1.8c0.1-0.1,0.3-0.3,0.7-0.2c0.2,0.1,0.3,0.3,0.3,0.4l0,0.2L278.8,267z"/>
	<path class="st0" d="M303.2,267.8c0.3,0.1,0.5,0.5,0.4,0.8c-0.1,0.3-0.5,0.5-0.8,0.4c-0.3-0.1-0.5-0.5-0.4-0.8
		c0.1-0.2,0.2-0.4,0.4-0.4c0.1,0-0.1,0.1-0.1,0.1c0.1,0-0.1,0.1-0.1,0.1l0,0l0.2-0.2l0.9-1.2c0.1-0.2,0.3-0.2,0.5-0.1
		c0.1,0.1,0.2,0.3,0.1,0.4l-0.6,1.3l0,0.1l0,0c0,0-0.1-0.2,0-0.1c0,0-0.1-0.2-0.1-0.1l-0.1-0.1C303.5,267.9,303.1,267.8,303.2,267.8
		 M310.3,256.6c0-0.3,0.2-0.4,0.5-0.4c0.1,0,0.3,0.1,0.3,0.2c0.3,0.4,0.1,0.6,0,0.7l-0.3,0.7l-1.1,2c-1.4,2.3-3.2,5.1-4.6,7.1
		l-1,1.4l-0.3,0.4c-0.1,0.1,0,0.3-0.5,0.4c-0.4,0.1-0.7-0.2-0.8-0.5c-0.1-0.4,0.2-0.7,0.5-0.8c0.1,0-0.2,0.1-0.2,0.1
		c0.1,0-0.1,0.1-0.1,0.1l0-0.1l0.3-0.4l1-1.4c1.4-2,3.3-4.7,4.7-7l1.2-1.9L310.3,256.6L310.3,256.6L310.3,256.6
		C310.3,256.5,310.3,256.7,310.3,256.6"/>
	<path class="st0" d="M269.9,248.4c-0.1-0.2,0-0.5,0.2-0.6c0.2-0.1,0.5,0,0.6,0.2c0.2,0.4,0.1,0.6,0,0.8l-0.4,0.9l-1.4,2.8l-4,7.2
		l-1.8,3.1l-1.1,1.9c0,0.1-0.1,0.1-0.1,0.2l-0.3,0.2l-0.3,0c-0.1,0-0.1,0-0.2-0.1c-0.2-0.1-0.1-0.2-0.2-0.2l0-0.5
		c0-0.1,0-0.1,0.1-0.2l1.1-1.9l1.8-3.1l4.1-7.2l1.4-2.7L269.9,248.4l0-0.1C269.9,248.2,270,248.5,269.9,248.4"/>
	<path class="st0" d="M256.9,263.7c-0.2,0.2-0.5,0.2-0.7,0c-0.2-0.2-0.2-0.5,0-0.7c0.2-0.2,0.5-0.2,0.7,0c0.1,0.1,0.2,0.3,0.1,0.5
		c0,0.1,0-0.3,0-0.2c0,0.1-0.2-0.3-0.1-0.2c0.1,0.1-0.2-0.1-0.2-0.1l-0.1,0l0,0l0.1,0l1-0.6c0.1-0.1,0.4-0.1,0.5,0.1
		c0.1,0.1,0.1,0.3-0.1,0.4l-1,0.9L256.9,263.7L256.9,263.7C256.8,263.7,256.9,263.6,256.9,263.7 M336.6,223.1
		c-0.2,0.2-0.5,0.2-0.7,0.1c-0.2-0.2-0.2-0.4-0.1-0.6l0.2-0.4l0,0c0,0-0.3-0.1-0.8-0.1c-0.6,0-1.4,0-2.5,0.3
		c-2.4,0.6-5.7,1.7-9.4,2.8l-3.8,1.1c-1.6,0.5-3.3,1-5.2,1.7c-2,0.7-4.4,1.6-7,2.7c-2.1,0.9-4.2,2-6.5,3l-4.8,2.1l-8.4,3.8l-3.8,1.9
		c-2.7,1.4-5.4,3-7.9,4.6c-1.3,0.8-2.5,1.7-3.6,2.5l-2.9,2c-1.1,0.8-1.7,1.2-2.1,1.6c-0.3,0.3-0.5,0.6-0.7,1l-0.5,0.7
		c-0.6,0.8-1.4,1.6-2,2.3l-1,0.9l-1,1.3l-1.1,1.1l-0.8,1L259,262l-0.5,0.7c-0.3,0.4-0.7,0.5-0.8,0.6c0,0-0.1,0.1-0.2,0.1l-0.5,0.2
		l-0.3,0.2l-0.1,0c-0.1,0-0.2,0.1-0.3,0c-0.2,0-0.3-0.1-0.3-0.2c-0.2-0.2-0.1-0.4-0.1-0.5c0.1-0.3,0.2-0.4,0.3-0.5l0.7-0.6
		c0,0,0.1-0.1,0.2-0.1l0.4-0.1l0,0l0.4-0.7l1.3-1.6l0.9-1l1-1.1c0.4-0.5,0.7-0.9,1.1-1.3l1.1-0.9c0.6-0.6,1.3-1.3,1.9-2.1l0.5-0.6
		c0.2-0.3,0.4-0.8,0.8-1.2c0.5-0.5,1.2-1,2.3-1.7l2.9-2c1.1-0.8,2.3-1.7,3.6-2.5c2.6-1.6,5.3-3.2,8-4.6l3.8-1.9l8.4-3.8l4.8-2.1
		c2.2-1,4.4-2.1,6.5-3c2.6-1.1,4.9-2.1,7-2.8c1.9-0.7,3.6-1.2,5.2-1.7l3.8-1.1c3.7-1.1,7-2.2,9.5-2.8c1.2-0.3,2.1-0.3,2.8-0.3
		c0.7,0,1.2,0.1,1.6,0.6c0.2,0.2,0.2,0.6,0.2,0.9C336.9,222.6,336.8,222.9,336.6,223.1"/>
	<path class="st0" d="M270,261.9c0.3,0,0.5,0.2,0.5,0.5c0,0.3-0.2,0.5-0.5,0.5c-0.3,0-0.5-0.2-0.5-0.5c0-0.1,0-0.2,0.1-0.3
		c0-0.1-0.1,0.2-0.1,0.1c0-0.1,0,0.2,0,0.1l0,0l-0.1-0.4c0-0.2,0.1-0.3,0.3-0.4c0.1,0,0.3,0,0.3,0.2l0.2,0.2l0,0l0,0l0,0
		C270.1,261.9,269.9,261.9,270,261.9 M274.3,246.9c-0.1,0.2-0.4,0.3-0.6,0.2c-0.2-0.1-0.3-0.4-0.3-0.6c0.1-0.2,0.1-0.3,0.2-0.4
		c0.1-0.1,0.5-0.2,0.7,0c0.2,0.2,0.2,0.3,0.2,0.4c0,0.3,0,0.6,0,0.9c-0.2,1.7-0.8,4.5-1.7,7.4l-1.6,4.6l-0.4,1.4l-0.1,0.9
		c-0.1,0.3,0,0.7-0.3,1.1c-0.2,0.2-0.5,0.3-0.7,0.1c-0.2-0.2-0.3-0.5-0.1-0.7l0-0.2l0.1-0.6l0.2-0.9l0.4-1.5l1.6-4.6
		c0.9-2.8,1.5-5.6,1.8-7.2l0.1-0.7l0,0c0,0,0.1,0.2,0.1,0.2c0,0,0.2,0.2,0.2,0.1c-0.1,0,0.4,0,0.3,0
		C274.1,246.9,274.4,246.8,274.3,246.9l0.1-0.1L274.3,246.9z"/>
	<path class="st0" d="M292.7,235.7c-0.3,0-0.5-0.1-0.5-0.4c0-0.3,0.1-0.5,0.4-0.5c0.4-0.1,0.8,0.1,1.1,0.4c0.2,0.3,0.4,0.6,0.5,1
		c0.2,0.8,0.2,1.8,0.2,2.9c-0.1,2.2-0.4,4.4-0.8,6.4l-1.1,4.8c0,0.1-0.1,0.2-0.1,0.3l-0.2,0.2c-0.1,0.1-0.3,0.1-0.5,0
		c0,0,0-0.1-0.1-0.1l-0.1-0.3c0-0.1,0-0.2,0-0.3l1.1-4.7c0.4-2,0.7-4.1,0.8-6.3c0-1,0-2-0.1-2.7l-0.2-0.6
		C292.9,235.7,292.9,235.7,292.7,235.7"/>
	<path class="st0" d="M292.4,242.7c0.1,0.2,0,0.5-0.3,0.6c-0.2,0.1-0.5,0-0.6-0.2c0,0,0.3,0.2,0.2,0.2c-0.1,0,0.3,0,0.2,0
		c-0.1,0,0.1,0,0.1,0l-0.4,0.4l-1.4,1.5c-0.6,0.6-1.4,1.2-2,1.6c-0.9,0.5-1.5,0.8-2.2,1.3c-0.1,0.1-0.3,0.1-0.5,0
		c-0.1-0.1-0.1-0.3,0-0.4c0.6-0.7,1.2-1.1,1.9-1.7c0.7-0.5,1.4-1,2-1.5l1.5-1.5l0.5-0.5c0.1-0.1,0.2-0.1,0.4-0.1
		C292.1,242.3,292.3,242.5,292.4,242.7"/>
	<path class="st0" d="M336.1,202.5c0.3-0.1,0.7,0.2,0.7,0.5c0.1,0.3-0.2,0.7-0.5,0.7l-113.1,22.5c-0.3,0.1-0.7-0.2-0.7-0.5
		c-0.1-0.3,0.2-0.7,0.5-0.7L336.1,202.5z"/>
	<path class="st0" d="M237.3,246.1c0.2,0.2,0.3,0.5,0.1,0.8c-0.2,0.2-0.5,0.3-0.8,0.1c-0.2-0.2-0.3-0.5-0.1-0.8
		c0.1-0.1,0.3-0.2,0.5-0.2c0.1,0-0.2,0-0.2,0l-0.1,0l0.3-0.3c0.1-0.1,0.3-0.2,0.5,0c0.1,0.1,0.1,0.2,0.1,0.4l-0.1,0.3l0-0.1l0-0.1
		C237.5,246.3,237.2,246.1,237.3,246.1 M254.3,222.4c0,0.3-0.3,0.4-0.5,0.4c-0.2,0-0.4-0.3-0.4-0.5l0-0.6l0,0.1c0,0,0.3,0.2,0.2,0.1
		c-0.1,0,0.3,0,0.2,0l0.1,0l-1.2,1.4l-2.8,3.8l-3.5,5.2c-2,3-3.8,5.9-5.1,8.2l-1.3,2.1c-0.3,0.6-0.5,1-0.7,1.5l-0.8,1.3l-0.7,1.1
		l-0.2,0.4l-0.1,0.1l-0.1,0.1c0,0-0.1,0.1-0.4,0.1c-0.3,0-0.5-0.3-0.5-0.4c-0.1-0.3,0.1-0.6,0.4-0.7c0.3-0.1,0.6,0.1,0.7,0.4
		c0,0.1,0,0.1,0,0.2c0,0,0-0.3,0-0.2c0,0.1-0.3-0.4-0.2-0.3c0.1,0.1-0.4-0.2-0.3-0.1c0.1,0-0.2,0-0.2,0c0.1,0-0.2,0.1-0.2,0
		l-0.1,0.1l0,0l0.2-0.3l0.7-1.1l0.6-1.2c0.2-0.4,0.4-0.9,0.8-1.6l1.3-2.2c1.4-2.3,3.2-5.2,5.2-8.2l3.6-5.2l2.8-3.8
		c0.6-0.8,1-1.4,1.6-1.7c0.1-0.1,0.4-0.1,0.6,0c0.2,0.1,0.3,0.4,0.4,0.5C254.4,221.7,254.4,222,254.3,222.4 M237.6,246.6
		c0,0.3-0.3,0.6-0.6,0.6c-0.3,0-0.6-0.3-0.6-0.6s0.3-0.6,0.6-0.6C237.3,246,237.6,246.3,237.6,246.6"/>
	<path class="st0" d="M230,239.1c-0.2,0.2-0.5,0.2-0.7,0c-0.2-0.2-0.2-0.5,0-0.7c0.2-0.2,0.5-0.2,0.7,0c0.1,0.1,0.1,0.2,0.1,0.4
		c0,0.1,0-0.2,0-0.2c0,0.1-0.1-0.2-0.1-0.2c0,0.1-0.2-0.1-0.1-0.1c0,0-0.1,0-0.1,0l0,0l0.1,0l1-0.3c0.2-0.1,0.4,0,0.4,0.2
		c0.1,0.2,0,0.3-0.2,0.4l-1,0.4L230,239.1l-0.1,0.1L230,239.1C229.9,239.2,230,239,230,239.1 M243.9,234.8c0,0.3-0.2,0.5-0.5,0.4
		c-0.2,0-0.4-0.2-0.4-0.5l0.1,0.1l-0.2,0c-0.3,0-0.8,0.2-1.5,0.4c-1.3,0.5-3,1.2-4.7,1.9c-1.7,0.6-3.2,1-4.4,1.3l-1.6,0.5l-0.6,0.2
		l-0.2,0l-0.2,0c-0.1,0-0.2,0-0.3-0.1c-0.4-0.3-0.2-0.5-0.2-0.6l0.1-0.2l0.2-0.2l0.6-0.4l1.7-0.5c1.2-0.3,2.7-0.7,4.3-1.3
		c1.7-0.6,3.4-1.3,4.8-1.7c0.7-0.2,1.3-0.4,1.8-0.4c0.3,0,0.5,0,0.7,0.2C243.7,234.2,243.9,234.6,243.9,234.8"/>
	<path class="st0" d="M267,216.5c0.3,0,0.4,0.3,0.4,0.5c0,0.3-0.3,0.4-0.5,0.4l-0.4,0l-0.2,0.2c-0.1,0.2-0.2,0.5-0.2,1
		c-0.1,1-0.1,2.3-0.7,4.6l-1.1,3.5l-2.2,7.3l-1.4,5.3c-0.3,1.3-0.5,2.3-0.5,3.1c-0.2,0.9-0.3,1.6-0.9,2c-0.3,0.2-0.6,0.2-0.9,0.2
		l-1-0.2c-0.2-0.1-0.3-0.2-0.2-0.4c0.1-0.2,0.2-0.2,0.4-0.2l0.8,0.1l0.3-0.1c0.1-0.1,0.2-0.6,0.3-1.4c0.1-0.8,0.2-1.8,0.5-3.2
		l1.4-5.4l2.3-7.4l1.1-3.4c0.6-2.1,0.7-3.3,0.8-4.4c0.1-0.5,0.1-1,0.4-1.4c0.2-0.2,0.4-0.4,0.6-0.5
		C266.4,216.5,266.7,216.5,267,216.5"/>
	<path class="st0" d="M259.4,240.5c-0.1,0.2-0.3,0.4-0.6,0.3c-0.2-0.1-0.4-0.3-0.3-0.5c0-0.1,0,0.1,0,0c0-0.1,0.3,0.2,0.2,0.2
		c-0.1,0,0.1,0,0,0l-0.2,0.1c-0.4,0.2-1.1,0.6-1.8,1.2l-2.6,2.1l-6,4.9l-3.8,3.3l-2.6,2.5l-0.7,0.7l-0.2,0.2l0,0l0,0l0-0.1
		c0,0,0-0.2,0-0.1c0,0.1-0.1-0.2,0-0.2c0,0.1-0.2-0.2-0.2-0.2c0.1,0-0.2-0.1-0.1,0l-0.1,0l-0.1,0l1.3-1.2c0.1-0.1,0.3-0.1,0.5,0
		c0.1,0.1,0.1,0.3,0,0.5l-1,1l-0.4,0.4c0,0-0.2,0.1-0.4,0c-0.2-0.1-0.2-0.3-0.2-0.4c0-0.4,0.1-0.3,0.3-0.5l0.7-0.8l2.6-2.6l3.7-3.4
		l6-4.9l2.6-2.1c0.8-0.6,1.5-1,2.1-1.2c0.3-0.1,0.6-0.2,0.9,0c0.2,0.1,0.3,0.3,0.4,0.5L259.4,240.5z"/>
	<path class="st0" d="M252,259.4c-0.1,0.2-0.4,0.3-0.6,0.2c-0.2-0.1-0.3-0.4-0.2-0.6c0.1-0.2,0.4-0.3,0.6-0.2
		c0.1,0.1,0.2,0.2,0.3,0.3c0,0.1-0.2-0.3-0.1-0.2c0,0.1-0.2-0.1-0.1-0.1c0.1,0-0.3,0-0.2,0c0.1,0-0.2,0.1-0.2,0l-0.1,0l0,0l0-0.1
		l0.4-1c0.1-0.2,0.3-0.3,0.4-0.2c0.2,0.1,0.2,0.2,0.2,0.4l-0.3,1.1L252,259.4L252,259.4z M256.8,243.5c-0.3,0-0.5-0.2-0.5-0.5
		c0-0.2,0.2-0.4,0.4-0.5c0.2,0,0.4,0.1,0.5,0.2l0.1,0.3l0,0.6l-0.4,1.7c-0.4,1.4-1.1,3.2-1.8,5.1c-0.8,1.9-1.6,3.8-2.2,5.3
		c-0.3,0.8-0.5,1.6-0.6,2.3l-0.3,1.2c0,0,0-0.1,0-0.1c0,0.1,0,0.2-0.1,0.3c-0.2,0.2-0.5,0.2-0.7,0.1c-0.3-0.2-0.2-0.4-0.2-0.5l0-1.2
		c0.1-0.7,0.3-1.6,0.7-2.5c0.6-1.7,1.5-3.5,2.2-5.4l2-5l0.5-1.5l0.1-0.3l0,0.1c0,0,0.2,0.2,0.1,0.2
		C256.5,243.4,256.9,243.5,256.8,243.5"/>
	<path class="st0" d="M290.2,214.2c-0.2-0.1-0.4-0.4-0.3-0.6c0.1-0.2,0.3-0.4,0.6-0.3c0.2,0.1,0.4,0.2,0.5,0.4
		c0.1,0.2,0.2,0.4,0.2,0.6c0,0.4-0.1,0.9-0.2,1.4c-0.4,1.2-1.1,2.6-2.2,4.4c-2.2,3.3-5.3,7-7.5,9.9c-1.1,1.4-1.9,2.5-2.2,3.2
		l-0.1,0.3l0-0.1l-0.1-0.1l0.1,0l0.6-0.2c0.2-0.1,0.4,0,0.4,0.2c0.1,0.2,0,0.4-0.1,0.4c-0.5,0.3-0.9,0.5-1.3,0.4
		c-0.2-0.1-0.4-0.3-0.4-0.5l0.1-0.6c0.3-0.8,1.1-2,2.2-3.4c2.2-3,5.3-6.7,7.3-10c1.1-1.7,1.8-3.1,2.2-4.1c0.2-0.5,0.2-0.8,0.2-1.1
		L290.2,214.2L290.2,214.2z"/>
	<path class="st0" d="M267.4,227.8c0,0.2-0.2,0.4-0.4,0.4c-0.2,0-0.4-0.2-0.4-0.4c0-0.2,0.2-0.4,0.4-0.4c0.1,0,0.1,0,0.2,0.1
		c0.1,0-0.1,0-0.1,0c0.1,0-0.1,0-0.1,0l0,0l0.9-0.3c0.2-0.1,0.4,0,0.4,0.2c0.1,0.2,0,0.3-0.2,0.4l-0.8,0.3l0,0l0,0l0-0.1l0-0.1
		C267.3,228,267.4,227.8,267.4,227.8 M282.3,223.9c0.3,0,0.5,0.2,0.5,0.5c0,0.3-0.2,0.5-0.5,0.5c-1.1,0-2.2-0.1-3.8,0.1
		c-1.2,0.2-2.6,0.7-4.3,1.2l-5.1,1.6l-2,0.5l-0.1,0l-0.1,0c0,0-0.1,0.1-0.3-0.2c-0.1-0.1-0.1-0.3,0-0.4c0.1-0.3,0.2-0.2,0.2-0.2
		l0.1,0l1.9-0.7l5.1-1.5c1.6-0.5,3.1-1,4.4-1.2C280.1,223.7,281.3,223.9,282.3,223.9"/>
	<path class="st0" d="M288,223.4c0.2-0.2,0.5-0.2,0.7,0c0.1,0.1,0.2,0.3,0.1,0.4l0,1.5c0,1.4,0.1,3.3,0.4,5c0.1,1.3,0.3,2.3,0.6,3.1
		c0.1,0.3,0.3,0.6,0.4,0.7c0.1,0.1,0.2,0.1,0.4,0c0.2-0.1,0.4,0,0.4,0.2c0.1,0.1,0,0.3-0.1,0.4c-0.4,0.2-0.8,0.3-1.2,0.1
		c-0.4-0.2-0.7-0.5-0.9-0.9c-0.5-0.8-0.9-2-1.1-3.3c-0.3-1.9-0.4-3.8-0.3-5.3C287.6,224.4,287.6,223.8,288,223.4"/>
	<path class="st0" d="M288.9,229.3c0.3,0,0.4,0.3,0.4,0.5c0,0.3-0.3,0.4-0.5,0.4c0,0,0,0,0,0c-0.5-0.1-1,0.1-1.5,0.5l-1.4,1.2
		c-0.1,0.1-0.4,0.1-0.5-0.1c-0.1-0.1-0.1-0.3,0-0.4c0.3-0.3,0.8-0.9,1.4-1.3C287.3,229.6,288.1,229.2,288.9,229.3"/>
	<path class="st0" d="M334.5,187.6c-0.3,0-0.5-0.1-0.5-0.4c0-0.3,0.1-0.5,0.4-0.5c0,0,0.1,0,0.1,0l0.5,0l0,0.1l-0.2-0.3
		c-0.1-0.1-0.1-0.4,0.1-0.5c0.1-0.1,0.3-0.1,0.4,0c0.2,0.2,0.3,0.4,0.4,0.7c0,0.2-0.1,0.5-0.2,0.7
		C335.1,187.5,334.7,187.5,334.5,187.6"/>
	<path class="st0" d="M334.1,186.2c0,0.2-0.3,0.3-0.5,0.3c-0.2,0-0.3-0.3-0.3-0.5c0-0.2,0.3-0.3,0.5-0.3c0.1,0,0.3,0.1,0.3,0.3
		c0,0.1-0.1-0.1,0-0.1c0,0.1-0.1-0.1-0.1-0.1l0,0C334.2,185.9,334.2,186.1,334.1,186.2c0,0.1-0.1,0.2-0.1,0.2l0,0l0,0l0,0
		C334.1,186.3,334.2,186.1,334.1,186.2 M334.2,186.1c0,0.3-0.2,0.5-0.5,0.5c-0.3,0-0.5-0.2-0.5-0.5c0-0.3,0.2-0.5,0.5-0.5
		C334,185.6,334.2,185.8,334.2,186.1"/>
	<path class="st0" d="M335.2,185.8c0.2,0.2,0.1,0.5-0.1,0.7c-0.2,0.2-0.5,0.1-0.7-0.1c0,0,0-0.1-0.1-0.1c-0.1-0.3,0-0.6,0.1-0.8
		l0.4-0.4l-0.1,0.2c0,0,0,0.2,0,0.2c0-0.1,0.1,0.3,0.1,0.2c-0.1-0.1,0.1,0.1,0.1,0.1l0.1,0l-0.4,0.1c-1.1,0.2-2.6,0.2-4,0.6
		c-1.7,0.4-4,1.1-6,1.4c-2.4,0.4-3.8,0-6,0.4c-1.5,0.3-3.4,0.8-5.6,1.2l-3.8,0.7l-7.1,1.1c-2.8,0.4-5.7,0.8-8.7,1.1
		c-6.3,0.6-12,0.6-17.3,0.5l-6-0.2l-6.4,0c-3-0.1-5.4-0.5-7.6-1c-4.9-1.2-10.6-1.8-15.3-2.4c-4.2-0.5-8.1-1.4-10.6-1.5
		c-1,0-1.8,0-2.3,0.1c-1,0.3-2,1.2-3.6,1.6c-0.7,0.1-1.2,0-1.7,0.1c-0.8,0-1.8,0.4-2.8,0.6l-2,0.5l-0.9,0.2c-0.5,0.1-1,0.4-1.5,0.8
		c-0.3,0.2-0.6,0.4-0.9,0.5c-0.2,0.1-0.4,0-0.6,0c-0.2-0.1-0.4-0.4-0.4-0.5c0-0.1,0-0.2,0.1-0.3l0-0.1c0.1-0.2,0.2-0.3,0.4-0.4
		l0.6-0.4c0.5-0.3,1.1-0.7,1.8-1l1-0.2l2-0.5c1-0.2,2-0.6,3.1-0.7l1.5,0c1.1-0.2,2-1.1,3.5-1.5c0.9-0.3,1.8-0.2,2.8-0.2
		c2.8,0.1,6.6,1,10.7,1.6c4.7,0.6,10.4,1.2,15.4,2.5c2.2,0.6,4.5,1,7.3,1.1l6.4,0l6,0.1c5.3,0.1,11,0.1,17.2-0.5
		c3-0.3,5.9-0.7,8.7-1.1l7.1-1.1l3.7-0.7c2.2-0.4,4-0.9,5.6-1.2c2.4-0.4,3.9,0.1,6.1-0.2c1.9-0.3,4.1-0.9,5.9-1.3
		c1.6-0.3,3.1-0.4,4.1-0.5c0.3,0,0.6,0,0.8,0.1c0.1,0.1,0.2,0.1,0.3,0.3c0,0.1,0,0.3-0.1,0.4L335.2,185.8l0.2-0.2L335.2,185.8
		L335.2,185.8z"/>
	<path class="st0" d="M243.1,188.7c-0.2,0.1-0.5,0.1-0.6-0.2c-0.1-0.2-0.1-0.4,0.1-0.6l-0.1,0.1c0,0-0.1,0.2-0.1,0.1
		c0-0.1,0.1,0.4,0.1,0.3c0-0.1,0.1,0.2,0.1,0.1c0,0,0.1,0.1,0.1,0.1l0.1,0c-0.1,0,0,0,0,0l-0.3,0l-1,0.2c-0.7,0.2-1.6,1.1-3,2.4
		l-2.9,2.7l-3,2.6l-5.1,4.3l-4.8,3.9l-0.9,0.8l0,0c0,0-0.1-0.3,0-0.2c0,0.1-0.2-0.2-0.1-0.2l0.1,0c0.3,0,1-0.1,1.8-0.4
		c0.2,0,0.4,0.1,0.4,0.2c0,0.2,0,0.3-0.2,0.4c-1.1,0.4-1.8,0.7-2.4,0.6c-0.2,0-0.4-0.3-0.5-0.5c0-0.2,0.1-0.4,0.2-0.6
		c0.2-0.3,0.5-0.7,1-1.1l4.8-4l5.1-4.3l3-2.6l2.9-2.7c1.3-1.2,2.3-2.2,3.4-2.6c0.5-0.1,0.9-0.2,1.3-0.2l0.4,0l0.2,0.1
		c0,0,0.1,0,0.2,0.3C243.4,188.3,243.2,188.6,243.1,188.7"/>
	<path class="st0" d="M265.7,194.3c0.1,0.2,0,0.5-0.3,0.6c-0.2,0.1-0.5,0-0.6-0.2l0,0l-0.4,0.1c-0.5,0.2-1.4,0.8-2.7,1.8l-5.1,3.8
		l-13,10.1l-4.3,3.5l-1.8,1.4l-0.5,0.4l-0.3,0.1l-0.3,0c-0.3-0.1-0.4-0.5-0.4-0.7l0.1-0.2c0.1-0.1,0.2-0.2,0.4-0.3l0.7-0.3
		c0.2-0.1,0.4,0,0.5,0.1c0.1,0.1,0.1,0.3,0,0.4l-0.3,0.4l0,0.1l0-0.1c0,0,0-0.2,0-0.2c0,0.2,0,0.3-0.1,0.5l0-0.1c0,0,0-0.3,0-0.2
		c0,0.1-0.1-0.4-0.1-0.3c0,0.1-0.3-0.3-0.2-0.2c0.1,0-0.2-0.1-0.2-0.1c0.1,0-0.2,0-0.2,0l-0.1,0c0.1,0-0.1,0-0.1,0l0,0l0.4-0.3
		l1.8-1.4l4.3-3.5l13-10l5.1-3.9c1.3-0.9,2.3-1.5,3-1.8c0.3-0.1,0.6-0.2,1-0.1C265.3,193.8,265.6,194,265.7,194.3"/>
	<path class="st0" d="M251,189.1c0.2-0.1,0.5-0.1,0.6,0.2c0.1,0.2,0.1,0.4-0.1,0.6c-0.1,0.1-0.3,0.2-0.5,0.2l-0.3-0.1l-0.6-0.4
		l-1.5-1.5c-0.5-0.5-1.3-1.1-2-1.9c-1.5-1.6-2.7-3.9-4-6c-1.3-2.1-2.4-3.8-3.4-4.9c-0.8-0.9-1.8-1.2-2.7-1.4c-1-0.2-1.8-0.4-2.1-0.4
		l0,0c-0.1,0,0.2-0.3,0.2-0.2l0.1,0.1l0.3,0.4c0.1,0.1,0.1,0.3,0,0.5c-0.1,0.1-0.3,0.1-0.4,0c-0.4-0.3-0.7-0.5-0.8-0.8
		c-0.1-0.2-0.1-0.5,0.1-0.7c0.1-0.2,0.3-0.3,0.5-0.3c0.7-0.2,1.6-0.1,2.5,0c1.2,0.2,2.5,0.7,3.7,1.9c1.1,1.3,2.2,3.1,3.4,5.2
		c1.3,2.2,2.5,4.5,3.7,5.9c0.6,0.7,1.3,1.3,1.9,1.9l1.4,1.5l0.4,0.3l0,0l-0.1,0L251,189.1z"/>
	<path class="st0" d="M241,178.1c-0.2,0.2-0.4,0.3-0.7,0.1c-0.2-0.1-0.2-0.4-0.1-0.6l0,0.1l0-0.1l-0.4-0.5l-1.5-1.4
		c-0.9-0.8-1.5-1.7-2.4-2.4c-1.8-1.3-5.3-1.5-8.6-1.4c-2.7,0-5,0-7-0.3l-2.1-0.4c-0.9-0.2-2-0.1-2.9-0.1l-1.1,0c0,0-0.1,0-0.1,0
		l-0.1,0l0.1,0c0,0,0.2-0.2,0.1-0.1c-0.1,0.1,0.2-0.4,0.1-0.3l0-0.2c0,0.1-0.1-0.2-0.1-0.2c0,0.1-0.1-0.1-0.1-0.1l0,0l0.2,0l0.8,0.1
		c0.7,0.1,1.5,0.3,2.1,0.8c0.1,0.1,0.2,0.3,0.1,0.5c-0.1,0.1-0.3,0.2-0.4,0.1c-0.5-0.3-1.2-0.4-1.9-0.5l-0.8,0l-0.3,0
		c-0.1,0-0.2,0-0.4-0.2l0.2,0.1c-0.2-0.1-0.4-0.3-0.4-0.6c0-0.2,0.1-0.4,0.2-0.5c0.2-0.2,0.4-0.3,0.7-0.4c0,0,0.1,0,0.1,0l1.2,0
		c0.9,0,2.1-0.1,3.2,0.1l2.1,0.4c1.9,0.3,4.1,0.3,6.8,0.2c3.4,0,7.1,0,9.4,1.8c1.1,0.8,1.7,1.8,2.4,2.5c0.5,0.5,1.1,1,1.5,1.6
		l0.5,0.8C241.2,177.4,241.3,177.8,241,178.1"/>
	<path class="st0" d="M213.7,183.6c-0.1,0.2-0.4,0.2-0.6,0.1c-0.2-0.1-0.2-0.4-0.1-0.6c0.1-0.2,0.4-0.2,0.6-0.1c0,0,0,0,0,0
		c0.1,0.1-0.2-0.1-0.2-0.1c0.1,0-0.2,0-0.1,0c0.1,0-0.1,0-0.1,0l0,0l0.6-0.6c0.1-0.1,0.3-0.1,0.5,0c0.1,0.1,0.1,0.3,0,0.4
		L213.7,183.6L213.7,183.6C213.6,183.7,213.7,183.6,213.7,183.6 M227.2,171.2c0.2,0.2,0.2,0.5,0,0.7c-0.2,0.2-0.5,0.2-0.7,0l-0.1,0
		l-0.4,0.1c-0.4,0.2-1,0.5-1.7,1.2c-1.2,1.2-2.6,3.1-4.4,5.1c-1.5,1.6-3.2,3-4.5,4.1l-1.5,1.1l-0.4,0.3l0,0
		c-0.2,0.1-0.5,0.1-0.6-0.1c0-0.1-0.1-0.1-0.1-0.2l0-0.3l0.1-0.1l0.4-0.4l1.4-1.1c1.3-1.1,3-2.5,4.4-4c1.8-1.9,3.1-3.8,4.5-5.1
		c0.8-0.7,1.4-1.2,2-1.4l0.8-0.2C226.8,171,227,171,227.2,171.2"/>
	<path class="st0" d="M227.8,170c-0.2-0.1-0.3-0.4-0.2-0.6c0.1-0.2,0.3-0.3,0.5-0.3l0,0c0,0-0.2,0-0.1,0c0.1,0-0.2,0.1-0.1,0.1
		c0.1-0.1-0.2,0.4-0.2,0.3c0-0.1,0,0.3,0,0.2l0,0.1l-0.2-0.2l-1.5-1.9c-0.7-1-1.4-2.3-2.2-3.7c-1.2-2.2-2.5-4.9-4-7.4
		c-1.4-2.3-3-4.1-4.3-5.2l-1.1-0.8l-0.3-0.2l0,0c0,0,0.2,0,0.1,0c-0.1,0-0.3,0-0.4-0.1c0,0,0.2,0.1,0.1,0c-0.1,0,0.4,0,0.3,0
		c-0.1,0,0.4-0.3,0.3-0.2c-0.1,0.1,0.2-0.3,0.1-0.2c0,0.1,0-0.1,0-0.1l0,0.1c0.1,0.3,0.5,0.8,1.1,1.5c0.1,0.1,0.1,0.3,0,0.5
		c-0.1,0.1-0.3,0.1-0.4,0l-1.6-1.4l-0.3-0.4c0-0.1-0.1-0.2-0.1-0.4c0-0.3,0.2-0.6,0.4-0.7c0.1-0.1,0.2-0.1,0.3-0.1
		c0.5,0,0.8,0.2,1.2,0.4l1.3,1c1.4,1.2,3.1,3.1,4.5,5.6c1.5,2.5,2.7,5.2,3.9,7.4c0.8,1.5,1.4,2.7,2,3.7l1.3,2
		c0.1,0.2,0.3,0.3,0.2,0.8c-0.1,0.3-0.5,0.5-0.6,0.4L227.8,170z"/>
	<path class="st0" d="M272.8,189.3c0.1,0.2,0,0.5-0.2,0.6c-0.2,0.1-0.5,0-0.6-0.2c-0.4-0.7-1-1.1-1.7-2c-0.3-0.4-0.6-1-1-1.7
		c-0.6-1.1-1.3-2.5-2.4-4.1c-0.6-0.9-1.4-1.7-2.2-2.6c-1-1.1-2.2-2.1-3.2-2.9c-1.6-1.3-2.9-2.1-3.8-2.7l-1.6-1.1
		c-0.7-0.6-1.1-1.3-1-2.1c0.1-0.4,0.3-0.7,0.6-0.9c0.3-0.2,0.7-0.4,1.1-0.5c0.2,0,0.4,0.1,0.4,0.2c0,0.2,0,0.3-0.2,0.4
		c-0.4,0.2-0.6,0.3-0.7,0.5l-0.1,0.3c0,0.2,0.3,0.5,0.7,0.7l1.7,1c1,0.6,2.3,1.5,3.9,2.8c1.1,0.9,2.3,2,3.4,3.2
		c0.8,0.9,1.6,1.8,2.2,2.8c1.1,1.7,1.8,3.3,2.3,4.4l0.8,1.6C271.7,187.9,272.4,188.4,272.8,189.3"/>
	<path class="st0" d="M255.1,169.7c0.1-0.2,0.3-0.4,0.6-0.3c0.2,0.1,0.4,0.3,0.3,0.5c0,0.2-0.1,0.4-0.3,0.4l-0.4,0.1l-0.6-0.1
		l-1.4-0.3c-1.5-0.2-3.9,0.4-6,0c-1.9-0.3-3.4-1.7-5-2.9c-1.1-0.8-2.2-1.5-2.7-2.4c0,0-0.1-0.1-0.1-0.2c-0.1-0.3,0-0.7,0.2-1
		c0.2-0.3,0.5-0.4,0.8-0.4c0.2,0,0.4,0.1,0.4,0.2c0,0.1,0,0.3-0.1,0.4l-0.2,0.2l0.1,0.1c0,0,0.1,0.1,0.1,0.1c0.2,0.4,1.3,1.2,2.4,2
		c1.6,1.2,3,2.5,4.4,2.7c1.8,0.4,4.1-0.2,6,0c0.7,0.1,1.2,0.3,1.6,0.4l0.3,0.1l0,0l-0.1,0c0.1,0-0.2,0.1-0.1,0.1
		C255.3,169.5,255.1,169.8,255.1,169.7"/>
	<path class="st0" d="M335.2,150.2c0.3,0,0.5,0.3,0.4,0.5c0,0,0,0,0,0c-0.1,0.3-0.2,0.3-0.2,0.3l-0.2,0.1l-0.6,0.1
		c-0.5,0-1.1,0.1-1.7-0.1c-0.1,0-0.2-0.1-0.2-0.1c-0.1-0.1-0.2-0.3-0.3-0.5c0-0.2,0.1-0.4,0.2-0.5c0.1-0.1,0.3-0.1,0.5,0
		c0,0,0,0,0,0.1l-0.1-0.1l-0.1,0l0.1,0c0.1,0,0.2,0,0.3,0c0.2,0.1,0.8,0.1,1.3,0.1l0.5,0L335.2,150.2z M335,151.2
		c-0.3,0-0.5-0.2-0.5-0.5c0-0.2,0.2-0.4,0.4-0.5l0.2,0l-0.1,0c0.3-0.1,0.5,0.1,0.6,0.4c0.1,0.3-0.1,0.5-0.4,0.6
		c-0.2,0.1-0.5-0.1-0.6-0.3c0-0.1,0.1,0.2,0.1,0.2C334.7,151,334.9,151.1,335,151.2L335,151.2C334.9,151.1,335.1,151.2,335,151.2
		L335,151.2z"/>
	<path class="st0" d="M336.1,152.1c-0.2,0.1-0.5,0.1-0.6-0.1c-0.1-0.2-0.1-0.4,0-0.6l0,0c0,0-0.1,0.3-0.1,0.2c0-0.1,0,0.2,0,0.2
		c0-0.1,0.1,0.2,0.1,0.2c0,0,0.2,0.1,0.2,0.1l0.1,0l-0.5,0l-1.9,0.1c-0.6,0-1.2-0.2-1.8-0.4c-0.9-0.4-1.4-1.1-1.9-1.6
		c-0.8-0.6-2-1-3.6-1.2c-1.7-0.2-3.6-0.3-5.8-0.6c-5-0.5-10.7-2-17-2.6c-5.7-0.6-11.4-1-17-2.2c-6.1-1.2-13.2-2.8-19.9-5.1
		c-3.1-1-5.8-2.3-8.3-3.5l-6.8-3.5c-2-1-4-1.7-5.7-2.4c-2.1-0.8-3.5-1.7-4.8-2.4c-0.7-0.4-1.4-0.7-2.3-1c-1.8-0.5-4.2-0.5-6.2-0.6
		c-2.2-0.1-3.5-0.6-4.6-0.9c-1-0.2-2-0.3-3-0.3l-1.5-0.1c-0.1,0-0.1,0-0.2,0c-0.6-0.2-1.2-0.5-1.8-0.8c-0.2-0.1-0.2-0.3-0.1-0.5
		c0.1-0.1,0.2-0.2,0.3-0.2c0.6,0.1,1.2,0.1,1.7,0c0.1,0,0.1,0,0.2,0l1.3,0.1c1,0,2.1,0,3.3,0.3c1.3,0.3,2.4,0.8,4.3,0.9
		c2,0.1,4.5,0,6.5,0.6c1,0.3,1.8,0.7,2.6,1.1c1.4,0.8,2.7,1.7,4.6,2.4c1.7,0.7,3.7,1.4,5.8,2.5l6.7,3.5c2.5,1.2,5.1,2.4,8.1,3.4
		c6.6,2.2,13.6,3.8,19.7,5c5.5,1.1,11.2,1.6,16.9,2.2c3.3,0.3,6.3,0.9,9.2,1.4c2.8,0.5,5.4,1,7.8,1.2c4.2,0.4,7.9,0.2,10.1,2
		c0.7,0.6,1.2,1.3,1.6,1.4c0.4,0.2,0.9,0.3,1.4,0.4l1.8,0.1l0.7,0.1c0.1,0,0.4,0.1,0.4,0.4C336.4,151.9,336.2,152,336.1,152.1"/>
	<path class="st0" d="M230.9,126c0.3,0.1,0.4,0.3,0.4,0.6c-0.1,0.3-0.3,0.4-0.6,0.4c-0.9-0.2-1.8,0.2-3.1,0.9l-2.3,1.2l-7.7,3.8
		c-1.2,0.6-2.2,1-2.8,1.2l-0.4,0.1c-0.1,0-0.4,0.1-0.5-0.2c-0.2-0.3,0-0.4,0.1-0.5l0.3-0.3c0.1-0.1,0.3-0.1,0.5,0
		c0.1,0.1,0.1,0.3,0,0.5l-0.2,0.2l0,0l0-0.1c0,0.1-0.1-0.2-0.1-0.2c0,0-0.2-0.1-0.1-0.1c0.1,0-0.1,0-0.1,0l0.3-0.1l2.7-1.3l7.6-4
		l2.4-1.1C228.5,126.3,229.7,125.7,230.9,126"/>
	<path class="st0" d="M226.8,103.6c-0.1,0.4-0.4,0.7-0.8,0.6c-0.4-0.1-0.7-0.4-0.6-0.8c0.1-0.4,0.4-0.7,0.8-0.6
		c0.3,0,0.5,0.3,0.6,0.5c0,0.1,0-0.1,0-0.1l0,0l0.1,0.2l1,2.4c0.1,0.2,0,0.4-0.2,0.4c-0.2,0.1-0.3,0-0.4-0.1c-0.7-1.1-1.2-1.8-1.4-2
		l0,0l0.1,0l0.1,0l0.1,0c-0.1,0,0.4-0.2,0.3-0.1c-0.1,0,0.3-0.3,0.2-0.2c0,0,0.1-0.2,0.1-0.1C226.7,103.9,226.8,103.6,226.8,103.6
		 M237,124.4c0.2,0.1,0.4,0.4,0.3,0.6c-0.1,0.2-0.3,0.3-0.5,0.3c-0.6-0.1-1.1-0.6-1.5-1.2c-0.5-0.7-1-1.6-1.8-2.9
		c-0.8-1.4-2-3.1-3.1-5c-1.9-3.4-3.6-7.3-4.5-10c-0.3-1-0.6-1.7-0.7-2.2c0-0.1,0-0.1,0-0.2c0-0.2,0-0.3,0.1-0.5l0.3-0.3
		c0.2-0.1,0.5-0.3,0.9,0c0.1,0.1,0.2,0.1,0.2,0.2l0.1,0.2l0.1,0.2c0,0.1,0.1,0.1,0.1,0.2l0.6,1.9c0.9,2.7,2.4,6.5,4.2,9.9l2.9,5.1
		l1.6,2.9C236.6,124.1,236.8,124.4,237,124.4"/>
	<path class="st0" d="M228.7,144.2c0,0.2-0.3,0.4-0.5,0.3c-0.2,0-0.4-0.3-0.3-0.5c0-0.2,0.3-0.4,0.5-0.3c0.1,0,0.1,0.1,0.2,0.1
		c0.1,0.1-0.2-0.1-0.1-0.1c0.1,0-0.2,0-0.1,0c0.1,0-0.1,0-0.1,0l0,0l0.7-0.4c0.2-0.1,0.4-0.1,0.5,0.1c0.1,0.1,0.1,0.3-0.1,0.4
		l-0.6,0.5l0,0l0,0l0,0C228.7,144.3,228.8,144.1,228.7,144.2 M249,130.6c0.2,0.1,0.4,0.4,0.3,0.6c-0.1,0.2-0.4,0.4-0.6,0.3
		c-0.2-0.1-0.5,0-1.1,0.2l-2.2,1.2c-1.9,1.1-4.6,2.6-7.1,4.2c-1.6,1-2.9,1.9-3.9,2.8l-2.7,2.3c-0.7,0.6-1.4,1.1-2,1.5l-1.2,0.8
		c0,0,0.1,0.2-0.3,0.1c-0.1,0-0.3-0.1-0.3-0.3c-0.1-0.4,0-0.3,0-0.4l0.1-0.1l1.1-1l1.9-1.5l2.7-2.3c1.1-0.9,2.4-1.9,4-2.9
		c2.6-1.6,5.2-3,7.2-4.2c0.9-0.5,1.6-0.9,2.3-1.2C247.9,130.5,248.5,130.4,249,130.6"/>
	<path class="st0" d="M253.2,117.3c0.2,0.2,0.1,0.5-0.1,0.7c-0.2,0.1-0.5,0.1-0.6-0.1c-0.8-1-1.2-1.8-1.8-2.4
		c-0.9-1.1-2.5-2.5-3.9-3.6c-2-1.6-3.8-2.5-5.6-3.9c-1.2-1-2.4-2.2-4.3-3.5c-1.3-0.9-2.9-1.3-4.2-1.9c-0.8-0.3-1.4-1-1.8-1.5
		l-0.5-0.7c-0.1-0.3-0.3-0.6-0.1-1.1c0.1-0.1,0.2-0.3,0.3-0.4c0.3-0.2,0.6-0.2,0.7-0.2l0.5,0.1l1.7,0.7c0.2,0.1,0.2,0.3,0.2,0.4
		c-0.1,0.1-0.2,0.2-0.4,0.2c-0.8-0.2-1.3-0.2-1.6-0.2l-0.1,0c0,0,0.1-0.1,0.1,0c0,0,0.2-0.3,0.1-0.2c0,0.1,0-0.4,0-0.3
		c0,0.2,0,0.3,0,0.5c0,0.1,0-0.2,0-0.2c0,0.1,0-0.1,0-0.1l0,0.1l0.3,0.5c0.3,0.4,0.7,0.9,1.2,1.1c1.1,0.5,2.8,0.8,4.5,2
		c2,1.4,3.3,2.7,4.4,3.6c1.6,1.3,3.5,2.3,5.5,4c1.4,1.2,3,2.8,3.9,4C252.3,115.6,252.5,116.4,253.2,117.3"/>
	<path class="st0" d="M240.4,83.8c-0.1,0.3-0.3,0.4-0.6,0.3c-0.2-0.1-0.4-0.3-0.4-0.5l-0.3-0.4l0.1,0.1c0,0,0.3,0,0.2,0
		c-0.1,0,0.3-0.3,0.2-0.2c0,0.1,0.1-0.2,0.1-0.2c0,0,0,0.1,0,0.1c0,0.1,0-0.2,0-0.1l0.1,0.2L240.4,83.8c0.9,1.8,1.4,4,1.8,6.3
		c0.7,3.8,2.2,7.6,3.3,10.1c0.8,1.8,1.2,3.8,1.8,5.4c0.3,0.7,0.7,1.4,1.1,2l1.7,2.4l1,1.7c1.3,2.3,3.1,3.6,4.3,5.7
		c1.2,2.1,1.4,4.6,2,7.6c0.3,1.1,0.5,2.1,0.9,3.1c0.3,0.8,0.9,1.8,1.4,2.9c0.2,0.5,0.5,1,0.7,1.6l0.2,0.8l0,0.2l0-0.1
		c0,0-0.2-0.1-0.2-0.1c0.5,0.2,0.7,0.7,0.5,1.2c-0.2,0.5-0.7,0.7-1.2,0.5c-0.2-0.1-0.5-0.3-0.6-0.4c-0.3-0.4-0.4-0.7-0.4-1l-0.1-0.6
		l-0.6-1.4c-0.5-1-1-2-1.4-3c-0.5-1.1-0.7-2.2-1-3.4c-0.7-3-0.9-5.5-1.8-7.1c-0.9-1.8-2.7-3.1-4.2-5.7l-0.9-1.7l-1.6-2.4
		c-0.4-0.7-0.9-1.4-1.2-2.3c-0.8-1.8-1.1-3.8-1.8-5.4c-1.2-2.6-2.7-6.5-3.4-10.5c-0.4-2.3-0.8-4.3-1.5-5.9l-0.4-0.7
		c-0.1-0.3-0.4-0.5-0.2-1c0,0,0-0.1,0.1-0.1l0.4-0.3l0.5,0c0.3,0.1,0.4,0.3,0.5,0.4C240.2,82.9,240.5,83.3,240.4,83.8 M261.1,134.2
		c0,0.5-0.4,1-1,1c-0.5,0-1-0.4-1-1c0-0.5,0.4-1,1-1C260.7,133.3,261.1,133.7,261.1,134.2"/>
	<path class="st0" d="M334.9,169.6c0.2,0.2,0.1,0.5-0.1,0.7c-0.2,0.1-0.4,0.1-0.6,0c-0.1-0.1-0.5-0.2-1.1-0.3l-2.7,0
		c-1.5-0.1-3.4-0.3-5.7-0.5c-3.9-0.3-8.9-0.7-13.9-1.4c-2.2-0.3-4.2-0.8-6.1-1.2l-5.8-1.2l-2-0.6l-0.3-0.1l0.1,0
		c0,0,0.2-0.1,0.2-0.1c-0.1,0,0.2-0.3,0.2-0.2c0,0.1,0.1-0.2,0.1-0.2c0,0.2-0.1,0.3-0.3,0.4c-0.1,0.1,0.2-0.2,0.1-0.2
		c0,0.1,0-0.1,0-0.1l0.1,0.5c0,0.2-0.1,0.4-0.3,0.4c-0.1,0-0.3,0-0.3-0.1l-0.5-0.7c-0.1-0.1-0.2-0.3-0.1-0.5c0-0.2,0.2-0.4,0.4-0.5
		c0.2-0.1,0.3-0.1,0.5-0.1l0.6,0.1l1.9,0.5l5.8,1.2c1.9,0.4,3.9,0.9,6.1,1.2c4.9,0.7,9.9,1,13.8,1.3c2.4,0.2,4.2,0.4,5.6,0.5
		l2.7,0.2C333.9,168.9,334.5,169.1,334.9,169.6"/>
	<path class="st0" d="M299.5,164.6c0.2,0.2,0.2,0.5,0,0.7c-0.2,0.2-0.5,0.2-0.6,0c-0.6-0.6-1.1-1.3-2.2-2.4
		c-1.4-1.4-3.5-3.4-5.9-5.1c-1.2-0.9-2.4-1.7-3.8-2.3c-0.8-0.4-1.5-0.7-2.4-1c-1-0.3-2-0.6-3.1-0.7c-1.7-0.3-3.1-0.5-4.4-0.5
		c-1.2,0-2.2,0.1-2.8,0.4l-0.6,0.3l-0.1,0.2c0,0.1,0.1,0.3,0.3,0.5c0.2,0.2,0.6,0.5,1.1,0.7c0.2,0.1,0.2,0.3,0.2,0.4
		c-0.1,0.2-0.3,0.2-0.4,0.2c-0.5-0.2-1-0.5-1.3-0.7c-0.3-0.2-0.6-0.5-0.7-0.8c-0.1-0.3-0.1-0.7,0.2-1c0.2-0.3,0.5-0.5,0.9-0.7
		c0.8-0.4,1.8-0.6,3.1-0.6c1.3-0.1,2.9,0,4.7,0.3c1.1,0.2,2.2,0.5,3.3,0.8c0.9,0.3,1.8,0.7,2.6,1.1c1.4,0.7,2.7,1.6,3.9,2.5
		c2.5,1.9,4.6,3.9,6,5.4C298.5,163.4,299,164.1,299.5,164.6"/>
	<path class="st0" d="M277.5,180.4c0,0.2-0.1,0.4-0.3,0.5c-0.2,0-0.4-0.1-0.5-0.3s0.1-0.4,0.3-0.5c0.1,0,0.1,0,0.2,0
		c0.1,0-0.2,0-0.1,0c0.1,0-0.1,0-0.1,0l0.6-0.5c0.1-0.1,0.3-0.1,0.5,0c0.1,0.1,0.1,0.3,0,0.5l-0.6,0.7l0.1-0.1l0-0.1
		C277.5,180.6,277.4,180.3,277.5,180.4 M299.5,169c0.3,0,0.5,0.2,0.5,0.5c0,0.2-0.2,0.4-0.4,0.5c-0.5,0.1-0.8-0.1-1.3-0.3
		c-0.5-0.1-1-0.2-1.6-0.1c-0.7,0.1-1.7,0.6-3.1,1.3c-1.8,0.8-4,1.7-6.1,2.9c-2.4,1.3-4.4,2.7-6.2,4l-2.2,1.8l-1.3,1l-0.4,0.3
		l-0.2,0.1l-0.2,0c-0.1,0-0.2-0.2-0.3-0.3l0-0.2l0.1-0.2l0.3-0.4l1.2-1.1l2.3-1.9c1.8-1.3,3.9-2.8,6.3-4.1c2.2-1.2,4.5-2,6.2-2.8
		c1.3-0.6,2.3-1.2,3.4-1.3C298.2,168.3,299.5,169,299.5,169"/>
	<path class="st0" d="M283.5,155.5c-0.1,0.2-0.3,0.4-0.6,0.3c-0.2-0.1-0.4-0.3-0.3-0.5c0.1-0.6,0.2-0.9,0.4-1.2
		c0-0.1,0.1-0.2,0.4-0.2c0.4,0,0.5,0.3,0.6,0.4c0.1,0.2,0,0.3,0,0.4l-0.3,0.6c-0.5,0.9-1.4,1.9-2.6,3.1l-4,3.9
		c-1.7,1.5-3,2.8-3.8,3.7l-0.8,1l-0.1,0.2l0,0c0.1,0.1,0.1,0.4,0,0.5c-0.1,0.1-0.3,0.1-0.4,0.1c-0.2-0.1-0.3-0.3-0.3-0.5
		c0-0.2,0-0.4,0.1-0.6c0.1-0.4,0.4-0.8,0.8-1.3c0.8-1,2.1-2.3,3.7-3.9l4-3.9c1.2-1.2,2.1-2.2,2.4-2.8l0.2-0.4l0,0.1
		c0,0,0.1,0.3,0,0.2c0-0.1,0.2,0.3,0.2,0.2c-0.1-0.1,0.3,0.1,0.2,0.1c-0.1,0,0.3,0,0.2,0c-0.1,0,0.2-0.1,0.1,0
		c-0.1,0,0.2-0.1,0.1-0.1L283.5,155.5z"/>
	<path class="st0" d="M277.8,151.6c0.3,0,0.5,0.2,0.5,0.4c0,0.3-0.2,0.5-0.4,0.5c-1.8,0.2-2.9-0.1-4.5-0.9l-3.3-1.6
		c-1.4-0.7-3.1-1.6-4.7-2.2c-1.6-0.6-3.1-1-4.4-1.2c-1.1-0.2-2-0.2-2.7-0.2c0,0-0.1,0-0.1,0l-0.7-0.2c-0.2-0.1-0.4-0.3-0.4-0.5
		c0-0.2,0.1-0.3,0.3-0.4c0,0,0.1,0,0.1,0l0.2,0l0.6-0.1c0,0,0.1,0,0.1,0c0.7,0,1.7,0,2.9,0.2c1.4,0.2,3,0.6,4.7,1.3
		c1.7,0.7,3.4,1.6,4.8,2.3l3.3,1.7C275.4,151.4,276.2,151.8,277.8,151.6"/>
	<path class="st0" d="M266.5,149.9c0.1,0.2,0,0.5-0.3,0.6c-0.2,0.1-0.5,0-0.6-0.3l0.1,0.1l-0.3,0l-1.3,0.4c-1.2,0.5-2.6,1.2-4.2,1.9
		c-1.8,0.8-3.6,1.6-5.1,2c-0.7,0.2-1.4,0.3-1.9,0.2c-0.3,0-0.5-0.1-0.7-0.3c-0.2-0.2-0.3-0.4-0.3-0.7c0-0.2,0.1-0.3,0.3-0.4
		c0.2,0,0.3,0.1,0.4,0.3l0.1,0.2l0.3,0.1c0.4,0,0.9-0.1,1.6-0.3c1.4-0.5,3.1-1.3,4.8-2.2c1.6-0.7,3.1-1.4,4.3-1.8
		c0.6-0.2,1.1-0.4,1.6-0.4c0.2,0,0.4,0,0.7,0.1C266.2,149.5,266.5,149.7,266.5,149.9"/>
	<path class="st0" d="M274.6,172c-0.2,0.3-0.5,0.4-0.8,0.2c-0.3-0.2-0.4-0.5-0.2-0.8c0.2-0.3,0.5-0.4,0.8-0.2
		c0.2,0.1,0.3,0.3,0.3,0.5c0,0.1,0-0.2,0-0.1c0,0.1-0.1-0.2-0.1-0.1c0,0-0.1-0.1-0.1-0.1l0,0l1.3,0.7c0.2,0.1,0.2,0.3,0.1,0.4
		c-0.1,0.1-0.2,0.2-0.4,0.2l-1.3-0.3l0,0c0,0,0.2-0.1,0.2-0.1l0.1,0l0.1-0.1C274.5,172.1,274.6,171.9,274.6,172 M285.9,172.2
		c0,0.2-0.1,0.4-0.3,0.4c-0.2,0.1-0.2,0.1-0.2,0.1l-0.1,0l-0.8,0l-3.4,0.1c-1.4,0-3,0.1-4.4,0c-1.3-0.1-2.2-0.3-2.7-0.4
		c-0.1,0-0.2-0.1-0.2-0.1l-0.2-0.3c0-0.1-0.1-0.1-0.1-0.4c0-0.1,0.1-0.2,0.2-0.3c0.2-0.2,0.3-0.2,0.3-0.2l0.3,0c0.1,0,0.2,0,0.2,0
		c0.3,0.1,1.2,0.3,2.3,0.3c1.3,0.1,2.9,0,4.3,0l3.4,0.1l0.9,0.1l0.1,0l0.1,0.1C285.7,171.8,285.9,171.7,285.9,172.2 M285.2,172.6
		c-0.3,0-0.5-0.2-0.5-0.5c0-0.2,0.2-0.4,0.4-0.5l0,0l-0.1,0c0,0-0.1,0.1-0.1,0.1c0,0-0.1,0.2-0.1,0.1l0,0.1c0,0,0,0.2,0,0.2
		c-0.1-0.3,0.1-0.5,0.4-0.6c0.3-0.1,0.5,0.1,0.6,0.4c0.1,0.3-0.1,0.5-0.4,0.6C285.4,172.7,285.3,172.7,285.2,172.6
		C285.1,172.6,285.3,172.7,285.2,172.6L285.2,172.6z"/>
	<path class="st0" d="M290.5,173.7c0.2,0.2,0.2,0.5,0,0.7c-0.2,0.2-0.4,0.2-0.6,0c-0.1-0.1-0.2-0.1-0.4-0.1c-0.2,0-0.4,0.1-0.7,0.3
		c-0.6,0.4-1.2,1-1.8,1.9c-1.1,1.6-2,3.9-1.9,6.3c0,0.8,0,1.6,0.2,2.4c0,0.2-0.1,0.4-0.2,0.4c-0.2,0-0.3,0-0.4-0.2
		c-0.4-0.8-0.6-1.7-0.7-2.6c-0.1-2.7,0.8-5.2,2-7c0.7-1,1.5-1.8,2.3-2.2c0.4-0.2,0.8-0.4,1.2-0.4
		C289.8,173.2,290.2,173.4,290.5,173.7"/>
	<path class="st0" d="M336.4,128.7c0.2,0.1,0.3,0.4,0.1,0.6c-0.1,0.2-0.4,0.3-0.6,0.2c-0.2-0.1-0.8-0.2-1.8-0.2l-4.7,0.3l-6.5,0.6
		l-5,0.3c-3.3,0.2-7.1,0.3-11,0.6c-3.3,0.3-6.2,0.4-8.6,0.5c-2.4,0-4.4,0-6.1-0.1l-4.2-0.2c-0.1,0-0.2,0-0.3-0.1
		c-0.1-0.1-0.2,0-0.4-0.3c0,0,0-0.1,0-0.1c-0.1-0.5,0.2-0.5,0.4-0.6c0.1-0.1,0.2-0.1,0.3-0.1l1.6,0l2.7,0.1c1.6,0.1,3.6,0.2,6,0.1
		c2.5,0,5.3-0.1,8.6-0.4c3.9-0.3,7.7-0.5,11-0.6l5-0.2l6.5-0.6c2.1-0.2,3.6-0.2,4.8-0.2C335.1,128.3,335.9,128.3,336.4,128.7"/>
	<path class="st0" d="M291,112.9c-0.1,0.4-0.5,0.7-0.9,0.6c-0.4-0.1-0.7-0.5-0.6-0.9c0-0.1,0.1-0.3,0.2-0.4l0.1-0.1
		c0.1,0,0.1-0.1,0.2-0.1c0.4-0.1,0.5,0,0.6,0l0.4,0.1l1.1,0.4c0.7,0.1,1.5,0.4,2.1,0.8c0.2,0.1,0.2,0.3,0.1,0.5
		c-0.1,0.1-0.3,0.2-0.4,0.1c-0.5-0.3-1.2-0.5-1.9-0.6l-1,0l-0.2,0c0,0,0.2-0.1,0.1-0.1c0,0,0.2-0.2,0.1-0.1
		C290.9,113.2,291,112.8,291,112.9c0,0,0,0.1-0.1,0.2C290.9,113.2,291,112.9,291,112.9 M310.7,129.7c0.3,0,0.4,0.3,0.4,0.6
		c0,0.2-0.3,0.4-0.5,0.4c-1-0.1-1.5-0.9-2.3-1.5c-0.5-0.4-1.4-0.8-2.5-1.4c-1.1-0.5-2.4-1.2-3.7-2.2c-1.4-1-2.7-2.4-4-3.9
		c-1.1-1.3-2.2-2.7-3.2-3.9c-1-1.2-2.1-2.1-3-2.9l-1.4-1l-0.4-0.2l-0.2-0.1l-0.2-0.1c-0.1-0.1-0.4-0.2-0.3-0.7
		c0-0.4,0.4-0.7,0.8-0.7c0.3,0,0.5,0.2,0.6,0.4c0,0.1-0.2-0.3-0.1-0.2c0.1,0.1-0.2-0.1-0.2-0.1l-0.1,0l0,0l0.2,0.1l0.7,0.4
		c0.3,0.2,0.8,0.6,1.5,1.1c0.9,0.8,2,1.8,3.1,3.1c1.1,1.3,2.1,2.7,3.1,3.9c1.3,1.5,2.5,2.8,3.7,3.7c2.4,1.8,4.7,2.6,6.1,3.8
		C309.9,129,310.3,129.6,310.7,129.7"/>
	<path class="st0" d="M306.6,133.3c0.3,0.1,0.4,0.3,0.3,0.6c-0.1,0.2-0.3,0.4-0.5,0.4c-0.7-0.1-1.7,0.1-2.9,0.5
		c-1.4,0.5-2.9,1.2-4.2,1.7l-1.2,0.3c-0.2,0-0.4,0-0.6,0c-0.2-0.1-0.5-0.3-0.6-0.6c0-0.1,0-0.3,0.1-0.4l0.3-0.4l0.6-0.5
		c0.1-0.1,0.3-0.1,0.5,0c0.1,0.1,0.1,0.3,0,0.4l-0.2,0.6l0,0l0-0.1c0,0-0.2-0.2-0.1-0.1c0.1,0.1,0.2,0.2,0.2,0.3
		c0,0.1-0.2-0.3-0.1-0.2c0.1,0.1-0.2-0.1-0.2-0.1l0.1,0l0.9-0.3c1.2-0.4,2.8-1.1,4.3-1.5C304.5,133.3,305.7,133.1,306.6,133.3"/>
	<path class="st0" d="M335.1,107.5c-0.2,0.1-0.5,0-0.6-0.3c-0.1-0.2,0-0.5,0.3-0.6c0,0,0.1,0,0.1,0l0.5-0.1l0,0l0,0l-0.1,0.1
		l0.1,0.3c-0.1,0,0,0,0,0l-0.3,0l-1.2-0.1l-3.5-0.5c-1.3-0.2-2.9-0.3-4.6-0.6c-1.8-0.3-3.6-0.8-5.3-1.3c-2-0.5-4-0.9-5.6-1.4
		c-1.1-0.4-2-0.9-2.7-1.3c-0.8-0.4-1.6-0.8-2.9-1.1c-1.7-0.4-4.1-0.5-6.5-0.6c-1.5,0-2.9-0.2-4.3-0.4c-2-0.2-4.1-0.4-6.3-0.8
		c-2.9-0.5-5.8-1.2-8.6-1.9c-2.1-0.5-4-1.1-5.7-1.5c-2.7-0.6-5.2-0.7-7.2-0.8l-2.5-0.2l-0.7-0.1c-0.2,0-0.5,0-0.9-0.3
		c-0.5-0.5-0.5-1-0.4-1.3l0.3-0.6c0.2-0.3,0.5-0.6,0.8-0.9c0.5-0.4,1.1-0.6,1.5-0.6c0.3-0.1,0.7,0,0.9,0.2c0.2,0.2,0.4,0.4,0.4,0.7
		c0.1,0.4,0,0.9-0.4,1.2c-0.4,0.4-0.8,0.3-1,0.3l-0.5-0.1c-0.1,0-0.2,0-0.2,0l0,0c-0.1,0-0.3,0-0.5-0.1c-0.2-0.1-0.4-0.3-0.5-0.5
		l-0.2-0.7c0-0.2,0.1-0.4,0.2-0.4c0.2,0,0.3,0,0.4,0.2l0.3,0.4l0,0l-0.1,0l0.1-0.1c0.1-0.1,0.2-0.2,0.5-0.3c0.1,0,0.1,0,0.2,0l0.5,0
		l0.1,0c0,0-0.2,0.1-0.1,0c0.1,0-0.3,0.2-0.2,0.2c0-0.1-0.1,0.3-0.1,0.2c0-0.1,0.1,0.3,0,0.2c0,0,0.1,0.2,0.1,0.1
		c0,0,0.3,0.2,0.2,0.1c-0.1,0,0.3,0.1,0.2,0.1c-0.1,0,0.3-0.1,0.2,0l-0.6,0.4l-0.4,0.5l0,0l0-0.1l0-0.1c0,0.1-0.1-0.4-0.1-0.3
		c0.1,0.1-0.4-0.4-0.3-0.3c0,0,0.1,0.1,0.1,0.1c0.1,0.1-0.2-0.2-0.2-0.1l-0.1,0l0.2,0l0.6,0.1l2.3,0.2c2,0.1,4.7,0.2,7.6,0.9
		c1.9,0.5,3.7,1.1,5.7,1.6c2.7,0.6,5.6,1.3,8.4,1.7c2.1,0.3,4.2,0.6,6.2,0.8c1.4,0.2,2.8,0.4,4.1,0.4c2.5,0,4.9,0.1,6.9,0.5
		c1.5,0.3,2.5,0.9,3.4,1.3c0.9,0.5,1.6,1.1,2.4,1.4c1.4,0.5,3.3,1,5.4,1.6c1.7,0.5,3.5,1,5.1,1.3l4.6,0.7l3.5,0.6l1.3,0.5l0.4,0.3
		c0.1,0.1,0.2,0.3,0.2,0.5l-0.1-0.3c0.1,0.1,0.1,0.3,0.1,0.4l-0.2,0.3L335.1,107.5z"/>
	<path class="st0" d="M251.6,71.6c-0.3,0.2-0.6,0.1-0.8-0.2c-0.2-0.3-0.1-0.6,0.2-0.8c0.3-0.2,0.6-0.1,0.8,0.2
		c0.1,0.2,0.1,0.4,0,0.5c0,0.1,0-0.2,0-0.2c0,0.1,0-0.2,0-0.1l0-0.1l0,0l1.4,1.2c0.1,0.1,0.2,0.3,0.1,0.5c-0.1,0.1-0.3,0.2-0.4,0.1
		l-1.6-1l-0.1,0l0.1,0l0.1,0l0.1,0C251.4,71.7,251.7,71.5,251.6,71.6 M266.9,91.5c0.2,0.1,0.3,0.4,0.1,0.7c-0.1,0.2-0.4,0.3-0.6,0.1
		c-0.9-0.6-2-1.5-3.4-3.2c-1-1.2-2-2.7-3.2-4.5c-2.3-3.5-4.6-7.6-6.6-10.3c-1-1.3-1.8-2.2-2.2-2.5c0,0-0.1-0.1-0.1-0.1l-0.1-0.3
		c0-0.1-0.2-0.1,0-0.5c0.1-0.1,0.2-0.2,0.3-0.3c0.4-0.2,0.4-0.1,0.5-0.1l0.3,0.1c0.1,0,0.1,0.1,0.1,0.1c0.4,0.4,1.3,1.3,2.3,2.7
		c2,2.9,4.3,7.1,6.4,10.5c1.1,1.7,2.1,3.3,3.1,4.5C265,90.1,266,90.9,266.9,91.5"/>
	<path class="st0" d="M264.6,93.3c0,0.3-0.3,0.4-0.5,0.4c-0.2,0-0.4-0.2-0.4-0.5l-0.2-0.3l-0.7-0.7c-0.7-0.5-1.7-1-2.9-1.3
		c-2.4-0.7-5.9-0.7-8.5-0.3c-0.9,0.1-1.6,0.3-2.1,0.5l-0.5,0.3l-0.1,0.3c0,0.2-0.1,0.3-0.3,0.4c-0.2,0-0.3-0.1-0.3-0.2
		c-0.1-0.3-0.1-0.6,0.1-0.9c0.1-0.3,0.4-0.5,0.7-0.7c0.6-0.4,1.4-0.7,2.3-0.9c2.9-0.5,6.5-0.4,9.1,0.4c1.4,0.4,2.5,1,3.3,1.6
		c0.4,0.3,0.7,0.6,0.9,0.9C264.5,92.6,264.6,93,264.6,93.3"/>
	<path class="st0" d="M288.4,100.4c0.2,0.2,0.1,0.5-0.1,0.7c-0.2,0.2-0.5,0.1-0.6-0.1c-0.5-0.6-1-0.9-2.3-0.5
		c-0.7,0.2-1.7,0.7-3,1.3c-3,1.4-7,3.2-10.5,5.1c-1.7,0.9-3.2,1.7-4.2,2.5c-0.5,0.4-0.9,0.7-1.2,1c-0.2,0.3-0.3,0.5-0.3,0.5
		c0,0.2-0.1,0.4-0.3,0.4c-0.2,0-0.3-0.1-0.4-0.2c-0.1-0.4,0.1-0.8,0.4-1.2c0.3-0.4,0.7-0.8,1.3-1.2c1.1-0.8,2.6-1.7,4.3-2.7
		c3.5-1.9,7.5-3.8,10.5-5.3c1.2-0.6,2.2-1.1,3.2-1.4C286.7,99,287.8,99.6,288.4,100.4"/>
	<path class="st0" d="M337.2,79.1c0.1-0.2,0.4-0.3,0.6-0.2c0.2,0.1,0.3,0.5,0.3,0.6l-0.1,0.2l-0.4,0.3l-1.4,0.5L334,81l-5.5,0.8
		c-2.3,0.3-4.8,0.6-7.6,0.8c-2.7,0.2-5.5,0.2-8.7,0.3l-6.5,0.2c-3.7,0.1-7.5,0.1-11.1,0.1c-3.7-0.1-7.2-0.3-10.3-0.6l-4.8-0.5
		l-3.5-0.3c-0.8-0.1-1.5,0-1.9,0l-0.4,0l0,0l0,0l0.1,0c0,0,0.2-0.2,0.2-0.1c-0.1,0.1,0.2-0.5,0.2-0.3c0,0.1-0.1-0.3,0-0.3
		c0,0.1-0.1-0.2-0.1-0.1c0,0.1-0.1-0.1-0.1-0.1l0,0c0.6,0.3,2.1,0.9,3.7,0.9c0.2,0,0.3,0.1,0.3,0.3c0,0.2-0.1,0.3-0.3,0.3
		c-1.8,0.3-3.5-0.3-4.2-0.5l-0.3-0.1l-0.3-0.2c-0.1-0.1-0.2-0.5-0.1-0.7c0.2-0.4,0.4-0.4,0.5-0.4l0.5-0.1c0.5,0,1.3-0.1,2.2,0
		l3.5,0.4l4.8,0.5c3.1,0.3,6.6,0.6,10.2,0.6c3.7,0.1,7.4,0.1,11.1-0.1l6.5-0.2c3.2-0.1,6-0.1,8.6-0.3c2.7-0.2,5.2-0.5,7.5-0.8
		l5.4-0.8l2.1-0.4l1.3-0.3l0.2-0.1l0,0l-0.1,0C337.3,79,337.2,79.2,337.2,79.1 M337.5,79.8c-0.3,0-0.4-0.3-0.4-0.5
		c0-0.2,0.2-0.3,0.3-0.4l0.2,0c0.3,0,0.5,0.3,0.4,0.5C338.1,79.7,337.8,79.9,337.5,79.8c-0.2,0-0.4-0.2-0.4-0.5c0-0.1,0-0.1,0.1-0.2
		c0-0.1-0.1,0.3-0.1,0.3c0-0.1,0.1,0.2,0,0.2c0-0.1,0.2,0.2,0.1,0.2C337.2,79.7,337.5,79.8,337.5,79.8L337.5,79.8z"/>
	<path class="st0" d="M277.9,55c0-0.3,0.3-0.4,0.5-0.4c0.3,0,0.4,0.3,0.4,0.5c0,0.1-0.1,0.2-0.1,0.3c0,0,0.1-0.1,0.1-0.1l0,0.1
		l0.2,1.5c0,0.2-0.1,0.4-0.3,0.4c-0.2,0-0.3-0.1-0.4-0.2l-0.3-1.3C277.9,55.4,277.9,55.3,277.9,55 M286.2,80.9
		c-0.1,0.3-0.3,0.4-0.6,0.4c-0.2-0.1-0.4-0.3-0.4-0.5c0.2-1.1-0.1-1.7-0.7-3.2c-0.6-1.3-1.3-3-2-5.1c-0.5-1.4-0.8-3-1.3-4.6
		l-1.3-5.5c-0.5-2.1-1.1-4-1.6-5.3l-0.4-1.2l-0.1-0.2l0.1,0.1c0,0,0.2,0.1,0.1,0.1c-0.4-0.2-0.5-0.7-0.3-1c0.2-0.4,0.7-0.5,1-0.3
		c0,0,0,0,0.1,0c0.4,0.3,0.4,0.5,0.5,0.8l0.5,1.3c0.4,1.3,1,3.2,1.5,5.4l1.2,5.5c0.4,1.7,0.7,3.2,1.2,4.5c0.6,2,1.3,3.8,1.9,5.1
		C286.3,78.6,286.5,79.6,286.2,80.9 M279.2,55c0,0.4-0.3,0.8-0.8,0.8s-0.8-0.3-0.8-0.8c0-0.4,0.3-0.8,0.8-0.8S279.2,54.6,279.2,55"
		/>
	<path class="st0" d="M283.6,74.2c-0.1,0.3-0.3,0.4-0.6,0.4c-0.2,0-0.4-0.3-0.4-0.5c0.2-1.1,0.2-1.8,0-2.2c-0.1-0.4-0.5-0.7-1.1-1
		l-3.2-1.5c-2.2-1-4.9-2.3-6.8-3.2l-1.3-0.6l-0.3-0.1l-0.1,0c0,0,0.1,0,0.1,0l0.1-0.1c-0.1,0.1,0.2-0.3,0.1-0.2c0,0.1,0-0.2,0-0.2
		l0.1,0.1c0.2,0.2,0.5,0.5,1.1,0.8c0.2,0.1,0.2,0.3,0.1,0.5c-0.1,0.1-0.3,0.2-0.4,0.1l-1.3-0.8l-0.3-0.3c-0.1-0.1-0.2-0.5,0-0.8
		c0.2-0.2,0.4-0.3,0.6-0.3l0.6,0l1.5,0.4l6.8,3.3c1.4,0.7,2.5,1.2,3.2,1.7c0.8,0.5,1.3,1,1.5,1.7C284,72.3,283.9,73.1,283.6,74.2"/>
	<path class="st0" d="M298,50.8c0.1,0.3-0.1,0.7-0.4,0.8c-0.3,0.1-0.7-0.1-0.8-0.4c-0.1-0.3,0.1-0.7,0.4-0.8c0.1,0,0.3,0,0.4,0l0,0
		c0.1,0.1,0,0,0.1,0l0.2,0.1c0.8,0.3,2,1,2.6,1.9c0.1,0.1,0.1,0.4-0.1,0.5c-0.1,0.1-0.3,0.1-0.4,0c-0.7-0.6-1.9-1.2-2.4-1.3
		c0,0,0.2-0.1,0.1,0c0,0,0.2-0.1,0.1-0.1l0.1-0.1c0,0,0.1-0.3,0.1-0.2l0-0.2C298,51,297.9,50.7,298,50.8 M336.8,53.4
		c0.3,0,0.5,0.2,0.5,0.4c0,0.2-0.1,0.4-0.4,0.5c-0.7,0.2-1.9,0.1-3.3-0.1l-2.3-0.4l-2.8-0.4l-5.9-0.7c-6.5-0.7-13.2-0.5-18.6-0.6
		l-3.8-0.1l-2.4-0.1l-0.6-0.2l-0.3-0.2c-0.1-0.1-0.4-0.3-0.2-0.8l0.1-0.2c0.1-0.1,0.4-0.2,0.6-0.2l0,0l-0.1,0l0.2,0l0.3,0l2.5,0.2
		l3.7,0.1c5.4,0.1,12.2,0,18.8,0.7l6,0.8l2.8,0.5l2.3,0.5C335.2,53.3,336.3,53.4,336.8,53.4"/>
	<path class="st0" d="M305.5,51.6c-0.1,0.3-0.3,0.4-0.6,0.3c-0.2-0.1-0.4-0.3-0.3-0.5c0.2-1.2,0.5-2.6,0.5-4.8l0-3.2l-0.2-3.6
		c0-0.4,0.1-0.6,0.2-0.8c0.1-0.1,0.2-0.4,0.7-0.3c0.2,0.1,0.3,0.2,0.4,0.3l0.1,0.1l0.5,1.6c0,0.2-0.1,0.4-0.2,0.4
		c-0.2,0-0.3,0-0.4-0.2l-0.5-1l-0.1-0.2l0,0c0,0,0.1,0.1,0.1,0.1c0,0,0.2,0,0.1,0c0,0,0.2,0,0.2,0c-0.1,0,0.4-0.3,0.3-0.2
		c-0.1,0.1,0.1-0.3,0.1-0.2c0,0.1,0-0.1,0-0.1l0,0l0.1,0.5l0.1,3.7l-0.1,3.3C306.1,48.8,305.8,50.4,305.5,51.6"/>
	<path class="st0" d="M305.5,51.4c0.3,0,0.5,0.2,0.5,0.5c0,0.3-0.2,0.5-0.5,0.5c0,0,0,0,0,0c-0.5,0-2.1,0.4-3.9,1
		c-2,0.6-4.2,1.5-6.4,2.3c-2.1,0.8-4,1.6-5.3,2.2l-1.2,0.6c0,0,0-0.1,0,0c0,0,0-0.2,0-0.1c0,0.1-0.1-0.2,0-0.2l-0.1-0.1l-0.1,0
		l0.2,0c0.2,0,0.3,0.1,0.4,0.3c0,0.2-0.1,0.3-0.3,0.4c-0.2,0-0.3,0.1-0.6,0c-0.1-0.1-0.2-0.4-0.2-0.5l0.2-0.2
		c0.3-0.2,0.7-0.4,1.3-0.7c1.3-0.6,3.2-1.4,5.3-2.3c2.1-0.9,4.4-1.7,6.4-2.4C303.1,51.9,304.6,51.4,305.5,51.4"/>
	<path class="st0" d="M318,54.6c-0.3,0.1-0.5-0.1-0.6-0.4c-0.1-0.2,0.1-0.5,0.3-0.5c0.1,0,0.2-0.1,0.4,0c0.3,0.1,0.4,0.5,0.3,0.7
		c-0.1,0.3-0.2,0.4-0.4,0.6l-1.8,1.5c-1.6,1.3-3.8,3-5.9,4.8c-1.7,1.4-3.2,2.7-4.2,3.8c-0.5,0.5-0.8,1-1,1.4l-0.1,0.4l0.1,0.2
		c0.1,0.1,0.1,0.3,0,0.5c-0.1,0.1-0.3,0.1-0.4,0c-0.2-0.2-0.3-0.4-0.4-0.6c0-0.2,0-0.5,0.1-0.8c0.2-0.5,0.6-1.1,1.1-1.7
		c1-1.3,2.5-2.7,4.2-4.1c2.1-1.8,4.3-3.4,6-4.7l1.8-1.4l0.2-0.2l0,0l0,0.1l0,0.1c0-0.1,0.2,0.4,0.2,0.3
		C317.7,54.5,317.9,54.6,318,54.6C317.8,54.6,318,54.6,318,54.6"/>
	<path class="st0" d="M334.7,66.2c0.3,0,0.5,0.2,0.5,0.5c0,0.3-0.2,0.5-0.5,0.5c-0.6,0-1,0.1-1.9,0.2l-1.8,0.3l-6.6,0.9l-4.6,0.5
		c-1.3,0.1-2.2,0.2-3-0.2c-0.1,0-0.1-0.1-0.2-0.1c-0.1-0.2-0.2-0.4-0.2-0.5c0-0.2,0.1-0.3,0.1-0.4c0.1-0.2,0.3-0.2,0.5-0.1
		c0.1,0,0.1,0.1,0.1,0.2l0,0l0,0c0.1,0,0.1,0,0.2,0.1c0.5,0.3,3.5,0,6.9-0.4l6.6-0.9l1.8-0.3C333.5,66.2,334,66.2,334.7,66.2"/>
	<path class="st0" d="M336.8,292.5c0.2-0.1,0.5-0.1,0.6,0.2c0.1,0.2,0.1,0.4,0,0.5l-0.3,0.3l-0.2,0.1c-0.1,0.1-0.4,0.1-0.6,0
		c-0.4-0.2-0.4-0.5-0.5-0.7l0.1-0.5c0-0.1,0.1-0.2,0.1-0.2c0.4-0.5,0.8-0.6,1.2-0.6c0.3,0,0.5,0.1,0.6,0.2l0.2,0.3l0.1,0.5
		c0,0.3,0,0.6-0.1,0.9c-0.3,1.2-1.5,2.1-2.6,2.6c-0.4,0.2-0.9,0.3-1.4,0.3c-0.4,0-0.8-0.3-1-0.6c-0.2-0.3-0.3-0.7-0.3-1
		c0.1-1.1,0.7-1.8,1.4-2.4c0.7-0.7,1.4-1.3,2.1-1.7c0.3-0.2,0.6-0.4,1.1-0.5c0.5-0.1,0.9,0,1.2,0.2c0.3,0.2,0.5,0.4,0.7,0.7
		c0.3,0.5,0.3,1.2,0.1,1.8c-0.2,0.7-0.6,1.5-1.1,2c-0.7,0.8-1.7,1.1-2.4,1.2c-0.1,0-0.5,0.2-1.2,0.1c-0.6-0.2-0.9-0.6-1-0.9
		l-0.2-0.8c-0.1-0.7,0.2-1.1,0.4-1.5c0.3-0.4,0.6-0.7,1-1c0.7-0.6,1.6-1,2.4-1.2c0.5-0.1,1.1-0.1,1.6,0.1c0.5,0.2,0.9,0.6,1.2,1.1
		c0.5,0.9,0.4,2,0.1,3.1c-0.3,1-0.8,2-1.6,2.7c-0.9,0.8-2,1.2-3.1,0.8c-1.1-0.4-1.6-1.3-1.8-2.3c-0.2-0.9-0.1-2,0.3-2.9
		c0.5-1,1.5-1.5,2.4-1.8c0.9-0.3,1.9-0.3,2.8-0.2c0.8,0.1,1.6,0.4,2,1.2c0.3,0.5,0.3,1.2,0.1,1.7c-0.2,0.5-0.5,1-0.9,1.5
		c-0.8,0.9-1.9,1.7-3.1,2.2c-1.1,0.4-2.2,0.5-3.2,0.3c-1-0.2-1.9-0.6-2.4-1.5c-0.3-0.6-0.3-1.2-0.2-1.7c0.1-0.5,0.4-0.9,0.8-1.2
		c1.1-1,2.6-1.3,4-1.5c0.7-0.1,1.3-0.1,1.9,0c0.8,0.1,1.5,0.4,2,1.2c0.2,0.3,0.3,0.8,0.3,1.2c-0.1,0.4-0.2,0.8-0.4,1.1
		c-0.4,0.7-1.1,1.3-1.9,1.6c-0.9,0.4-1.9,0.6-2.9,0.3c-0.6-0.2-1-0.6-1.2-1.1c-0.2-0.4-0.3-0.9-0.3-1.4c0,0,0-0.1,0-0.1
		c0.1-0.9,0.7-1.6,1.3-2c0.6-0.5,1.4-0.7,2.1-0.8c0.7,0,1.5,0.2,1.9,0.9c0.4,0.6,0.4,1.5,0.1,2.6c0,0.2-0.2,0.3-0.4,0.2
		c-0.2,0-0.3-0.2-0.2-0.4c0.2-1,0-1.6-0.2-1.8c-0.2-0.2-0.5-0.2-0.9-0.1c-0.4,0.1-0.8,0.4-1.1,0.7c-0.3,0.3-0.4,0.6-0.4,0.8
		c0,0,0,0.1,0,0.1l0.1,0.4l0,0c0.2,0.1,0.8,0.1,1.4-0.2c0.4-0.2,0.9-0.5,1.1-0.9l0.2-0.4l0,0c0,0-0.3-0.2-0.8-0.3
		c-0.4-0.1-0.9-0.1-1.4,0c-1.1,0.2-2.4,0.7-2.8,1.2l-0.2,0.3c0.1,0.1,0.4,0.4,0.9,0.5c0.6,0.1,1.4,0.1,2.1-0.1
		c0.9-0.3,1.8-0.9,2.3-1.5c0.3-0.3,0.5-0.6,0.5-0.8l0-0.2l0,0c0,0-0.2-0.1-0.7-0.2c-0.6-0.1-1.3,0-1.9,0.2c-0.6,0.2-1,0.5-1.1,0.8
		c-0.2,0.5-0.3,1.1-0.2,1.6c0.1,0.5,0.3,0.7,0.4,0.7c0.2,0.1,0.8,0,1.2-0.3c0.4-0.3,0.8-1,1.1-1.8c0.2-0.7,0.2-1.4,0.1-1.7l-0.2-0.2
		l-0.5,0c-0.5,0.1-1.1,0.5-1.6,0.9l-0.5,0.6l-0.1,0.1l0-0.1l0.1,0.3c0,0-0.1-0.1,0-0.1c0,0-0.1-0.1-0.1-0.1c0,0-0.3-0.1-0.2-0.1
		c0.1,0-0.1,0-0.1,0l0.6,0c0.4,0,0.9-0.1,1.2-0.4c0.3-0.4,0.7-1,0.8-1.4l0.1-0.4l-0.1-0.1l0,0l0.1,0l-0.5,0.3
		c-1.1,0.7-2.5,2.3-2.5,2.7l0,0.2l-0.1-0.1c0,0-0.2-0.1-0.2-0.1l0.4-0.1c0.7-0.3,1.7-1.2,1.8-1.7l0-0.2l0,0.1l0.1,0.1
		c0,0,0.2,0.1,0.2,0.1c-0.1,0,0.3,0.1,0.2,0.1c-0.1,0,0.3,0,0.2,0l-0.2,0.1l0,0l0.1-0.1c-0.1,0.1-0.1,0.1-0.2,0.2l-0.1,0.1l0,0
		c0,0,0.1-0.1,0-0.1c0,0,0-0.3,0-0.2c0,0.1-0.1-0.4-0.1-0.3c0.1,0.1-0.3-0.2-0.2-0.2C337,292.6,336.7,292.5,336.8,292.5
		C336.8,292.5,336.7,292.5,336.8,292.5L336.8,292.5z"/>
	<path class="st0" d="M335.2,37.3c0.1,0.3-0.1,0.5-0.4,0.6c-0.2,0-0.4,0-0.5-0.2c-0.3-0.5-0.3-1-0.2-1.5c0.1-0.5,0.4-1,0.7-1.5
		l1.5-1.4c0.3-0.3,0.7-0.4,1.1-0.5c0.2,0,0.4,0,0.6,0.1c0.2,0.1,0.4,0.3,0.5,0.5c0.4,0.5,0.2,1.1,0.1,1.5c0,0.2-0.2,0.5-0.4,0.6
		l-0.6,0.3c-0.4,0.1-0.8,0.2-1.1,0.2c-0.5,0-1-0.1-1.4-0.5c-0.5-0.5-0.6-1.1-0.5-1.5c0.1-0.4,0.3-0.7,0.6-1c0.5-0.5,1.1-1,1.9-1.2
		c0.5-0.2,1-0.2,1.5-0.2c0.2,0,0.7-0.1,1.3,0.3c0.6,0.4,0.7,1,0.7,1.4l0,1c0,1.3-0.9,2.4-2.1,2.9c-0.9,0.4-1.9,0.2-2.7-0.3
		c-0.8-0.5-1.4-1.3-1.6-2.2c0,0,0-0.1,0-0.1c-0.1-1.2,0.5-2.4,1.4-3.1c0.7-0.5,1.5-0.7,2.1-0.7c0.7-0.1,1.5,0.2,2,0.8
		c0.4,0.4,0.5,1,0.5,1.4c0,0.4-0.1,0.9-0.2,1.2c-0.2,0.9-1,1.6-1.7,2c-0.8,0.4-1.6,0.6-2.4,0.7c-0.5,0.1-1,0.4-2,0.1
		c0,0-0.1,0-0.1-0.1c-0.7-0.3-1-0.9-1.1-1.4c-0.1-0.5-0.2-1-0.1-1.5c0.2-1.4,1.2-2.2,2.1-2.8c1-0.6,2.1-1,3.2-1c0.5,0,0.9,0,1.4,0.1
		c0.5,0.1,1,0.4,1.4,0.9c0.3,0.5,0.5,1.2,0.3,1.9c-0.1,0.9-0.9,1.4-1.3,1.9c-0.9,0.9-2.1,1.2-3.1,1.4c-0.4,0-1,0.2-1.7,0
		c-1-0.2-1.8-0.9-2.2-1.8c-0.4-1.2,0-2.3,0.6-3.1c0.8-1.1,2.1-1.5,3.3-1.7c1.2-0.2,2.4-0.2,3.3,0.1c0.6,0.1,1.3,0.4,1.7,1.1
		c0.2,0.3,0.4,0.8,0.3,1.5c-0.3,1-1,1.4-1.7,1.7c-0.7,0.4-1.5,0.7-2.2,0.9c-0.9,0.3-1.7,0.4-2.4,0.1l-0.4-0.2
		c-0.2-0.1-0.5-0.3-0.6-0.7c-0.1-0.3,0-0.7,0.1-1l0.4-0.6c0.2-0.3,0.6-0.4,0.9-0.3l0,0l0.3-0.1c0.2,0,0.4,0.1,0.4,0.2
		c0,0,0,0.1,0,0.1l0,0.3l0,0l0-0.1c0.1,0.3,0.1,0.7-0.1,0.9l-0.2,0.2c0,0,0-0.2,0-0.1c0,0.1-0.1-0.5,0-0.3c0,0.1-0.3-0.4-0.2-0.3
		c0.1,0-0.1-0.1-0.1-0.1l0.2,0c0.1,0,0.7,0,1.3-0.2c0.7-0.2,1.3-0.4,1.9-0.7L340,32l0.1-0.1l0-0.2l0,0.1l-0.5-0.1
		c-0.6-0.1-1.6,0-2.5,0.2c-0.9,0.2-1.6,0.6-1.8,1l-0.2,0.5l0,0.1c0.1,0.2,0.3,0.4,0.4,0.4l0.9,0c0.7,0,1.4-0.2,1.9-0.6l0.8-0.8
		c0-0.1,0-0.2-0.1-0.3l0.1,0.1l-0.1,0l-0.9,0c-0.6,0.1-1.4,0.4-2,0.9c-0.6,0.4-0.9,0.9-0.9,1.1l0,0.6l0,0l-0.1-0.1
		c0,0-0.2-0.1-0.2-0.1c0,0,0.1,0,0.1,0.1c0.1,0.1-0.2-0.1-0.2-0.1l0.8,0c0.5,0,1.2-0.2,1.7-0.4c0.5-0.2,0.7-0.4,0.7-0.5l0.1-0.6
		l0-0.2l0,0l-0.2,0c-0.3,0.1-0.8,0.2-0.9,0.4c-0.4,0.3-0.5,0.8-0.5,1c0,0,0,0.1,0,0.1c0,0.3,0.2,0.6,0.4,0.8
		c0.2,0.2,0.5,0.3,0.8,0.2c0.5-0.2,0.9-0.7,0.9-1.2l0-0.7l0-0.1l0.1,0.1c0,0,0.3,0.2,0.2,0.1c-0.1,0,0.1,0,0.1,0l-0.6,0l-0.7,0.1
		c-0.4,0.1-0.8,0.4-1,0.7l-0.1,0.2l0-0.1c0,0.1-0.1-0.3,0-0.2c0,0.1-0.2-0.3-0.2-0.3l0.3,0.2l0.5,0l0.1,0l-0.1,0
		c0,0-0.1,0.2-0.1,0.1l0-0.2l0-0.1l0,0.1c0,0,0.4,0.2,0.3,0.2c-0.1,0,0.2,0,0.2,0l-0.2,0.2l-1.3,1.1c-0.4,0.4-0.7,0.7-0.8,0.9
		C335.2,36.8,335.1,37.1,335.2,37.3"/>
	<text transform="matrix(1 0 0 1 332.3599 21.2913)" class="st1 st2">$\infty$</text>
</g>
<text transform="matrix(1 0 0 1 415.8126 29.5704)" class="st1 st2">$\pro^{1, \text{an}}_K$</text>
<g>
	<circle class="st3" cx="336.4" cy="165" r="128.1"/>
</g>
<text transform="matrix(1 0 0 1 474.2409 238.3421)" class="st4 st1 st2">closed points</text>
<line class="st5" x1="418.8" y1="93.7" x2="493.8" y2="93.7"/>
<text transform="matrix(1 0 0 1 500.8159 93.7074)" class="st1 st2">norms on $K(\pro^1_K)$</text>
<text transform="matrix(1 0 0 1 334.0808 313.7019)" class="st1 st2">$0$</text>
</svg>
