<?xml version="1.0" encoding="utf-8"?>
<!-- Generator: Adobe Illustrator 23.0.3, SVG Export Plug-In . SVG Version: 6.00 Build 0)  -->
<svg version="1.1"
	 id="svg8" inkscape:version="0.92.4 (unknown)" sodipodi:docname="figure.svg" xmlns:cc="http://creativecommons.org/ns#" xmlns:dc="http://purl.org/dc/elements/1.1/" xmlns:inkscape="http://www.inkscape.org/namespaces/inkscape" xmlns:rdf="http://www.w3.org/1999/02/22-rdf-syntax-ns#" xmlns:sodipodi="http://sodipodi.sourceforge.net/DTD/sodipodi-0.dtd" xmlns:svg="http://www.w3.org/2000/svg"
	 xmlns="http://www.w3.org/2000/svg" xmlns:xlink="http://www.w3.org/1999/xlink" x="0px" y="0px" viewBox="0 0 229.9 202.7"
	 style="enable-background:new 0 0 229.9 202.7;" xml:space="preserve">
<style type="text/css">
	.st0{fill:#FFFFFF;stroke:#000000;stroke-miterlimit:10;}
	.st1{fill:none;stroke:#000000;stroke-miterlimit:10;}
	.st2{font-family:'MyriadPro-Regular';}
	.st3{font-size:12px;}
	.st4{fill:none;stroke:#000000;stroke-width:0.5;stroke-miterlimit:10;stroke-dasharray:4;}
	.st5{fill:#F18C00;}
	.st6{font-size:12.6771px;}
</style>
<sodipodi:namedview  bordercolor="#666666" borderopacity="1.0" id="base" inkscape:current-layer="layer1" inkscape:cx="284.27627" inkscape:cy="182.72055" inkscape:document-units="mm" inkscape:guide-bbox="true" inkscape:pageopacity="0.0" inkscape:pageshadow="2" inkscape:window-height="995" inkscape:window-maximized="1" inkscape:window-width="2520" inkscape:window-x="20" inkscape:window-y="65" inkscape:zoom="0.99437388" pagecolor="#ffffff" showborder="true" showgrid="false" showguides="true" width="200mm">
	<inkscape:grid  dotted="false" empspacing="4" id="grid815" spacingx="10" spacingy="10" type="xygrid" units="mm">
		</inkscape:grid>
</sodipodi:namedview>
<g id="layer1" transform="translate(0,-177)" inkscape:groupmode="layer" inkscape:label="Layer 1">
</g>
<sodipodi:namedview  bordercolor="#666666" borderopacity="1.0" id="base" inkscape:current-layer="layer1" inkscape:cx="284.27627" inkscape:cy="182.72055" inkscape:document-units="mm" inkscape:guide-bbox="true" inkscape:pageopacity="0.0" inkscape:pageshadow="2" inkscape:window-height="995" inkscape:window-maximized="1" inkscape:window-width="2520" inkscape:window-x="20" inkscape:window-y="65" inkscape:zoom="0.99437388" pagecolor="#ffffff" showborder="true" showgrid="false" showguides="true" width="200mm">
	<inkscape:grid  dotted="false" empspacing="4" id="grid815" spacingx="10" spacingy="10" type="xygrid" units="mm">
		</inkscape:grid>
</sodipodi:namedview>
<g id="layer1_1_" transform="translate(0,-177)" inkscape:groupmode="layer" inkscape:label="Layer 1">
</g>
<path class="st0" d="M37.5,38.3c1.1,8.9,4,14.8,6.4,18.6c3.9,6.1,7.1,7.2,9.2,13.1c0.4,1.2,3,8.8,0,16.5c-3.6,9.2-10.9,8-15.7,17.5
	c-0.4,0.8-5.5,11.1-1.4,20c3.4,7.3,9.6,6.1,13.1,13.7c2.7,5.8,2.3,13.2-0.6,18.6c-3.6,6.7-8.9,6.3-14,12.8
	c-4.4,5.6-5.5,12.5-5.5,18.6"/>
<path class="st1" d="M50.7,38.3c-1.1,8.9-4,14.8-6.4,18.6c-3.9,6.1-7.1,7.2-9.2,13.1c-0.4,1.2-3,8.8,0,16.5
	c3.6,9.2,10.9,8,15.7,17.5c0.4,0.8,5.5,11.1,1.4,20c-3.4,7.3-9.6,6.1-13.1,13.7c-2.7,5.8-2.3,13.2,0.6,18.6c3.6,6.7,8.9,6.3,14,12.8
	c4.4,5.6,5.5,12.5,5.5,18.6"/>
<g>
	<g>
		<line class="st1" x1="63.1" y1="118.4" x2="126" y2="118.4"/>
		<g>
			<path d="M132.1,118.4c-2.8,1.1-6.4,2.9-8.5,4.8l1.7-4.8l-1.7-4.8C125.7,115.6,129.2,117.4,132.1,118.4z"/>
		</g>
	</g>
</g>
<text transform="matrix(1 0 0 1 89.384 115.5984)" class="st2 st3">f</text>
<path class="st1" d="M136.6,38.3c6.3,11.3,18.5,36.2,21,71.4c2.9,42-9.8,73.3-15.2,85.1"/>
<line class="st4" x1="44.2" y1="56.9" x2="145.5" y2="56.9"/>
<line class="st4" x1="44.2" y1="96.4" x2="156.5" y2="96.4"/>
<line class="st4" x1="44.2" y1="131.6" x2="157.8" y2="131.6"/>
<line class="st4" x1="44.2" y1="161.7" x2="153.5" y2="161.7"/>
<text transform="matrix(1 0 0 1 151.7381 52.2808)" class="st2 st3">$\infty$</text>
<circle class="st5" cx="145.4" cy="56.9" r="3"/>
<circle class="st5" cx="156.2" cy="96.4" r="3"/>
<circle class="st5" cx="158" cy="131.6" r="3"/>
<circle class="st5" cx="153.5" cy="161.7" r="3"/>
<text transform="matrix(1 0 0 1 163.1251 93.4467)" class="st2 st3">$1$</text>
<text transform="matrix(1 0 0 1 167.102 133.4851)" class="st2 st3">$\lambda$</text>
<text transform="matrix(1 0 0 1 163.1253 161.7269)" class="st2 st3">$0$</text>
<text transform="matrix(1 0 0 1 33.7728 23.045)" class="st2 st3">$E$</text>
<text transform="matrix(1 0 0 1 132.0683 20.9495)" class="st2 st3">$\pro^1_K$</text>
<circle class="st5" cx="44.2" cy="56.9" r="3"/>
<circle class="st5" cx="44.2" cy="96.4" r="3"/>
<circle class="st5" cx="44.2" cy="131.6" r="3"/>
<circle class="st5" cx="44.2" cy="161.7" r="3"/>
<g>
	<text transform="matrix(0.7223 0 0 1 22.106 200.3115)" class="st5 st2 st6">$\ram_f$</text>
</g>
<g>
	<text transform="matrix(0.7223 0 0 1 121.2049 200.3116)" class="st5 st2 st6">$\delta = f_* \ram_f$</text>
</g>
</svg>
