<?xml version="1.0" encoding="utf-8"?>
<!-- Generator: Adobe Illustrator 23.0.3, SVG Export Plug-In . SVG Version: 6.00 Build 0)  -->
<svg version="1.1"
	 id="svg8" inkscape:version="0.92.4 (unknown)" sodipodi:docname="figure.svg" xmlns:cc="http://creativecommons.org/ns#" xmlns:dc="http://purl.org/dc/elements/1.1/" xmlns:inkscape="http://www.inkscape.org/namespaces/inkscape" xmlns:rdf="http://www.w3.org/1999/02/22-rdf-syntax-ns#" xmlns:sodipodi="http://sodipodi.sourceforge.net/DTD/sodipodi-0.dtd" xmlns:svg="http://www.w3.org/2000/svg"
	 xmlns="http://www.w3.org/2000/svg" xmlns:xlink="http://www.w3.org/1999/xlink" x="0px" y="0px" viewBox="0 0 235.7 200.1"
	 style="enable-background:new 0 0 235.7 200.1;" xml:space="preserve">
<style type="text/css">
	.st0{fill:#FFFFFF;stroke:#000000;stroke-miterlimit:10;}
	.st1{fill:none;stroke:#000000;stroke-miterlimit:10;}
	.st2{font-family:'ArialMT';}
	.st3{font-size:12px;}
	.st4{fill:none;stroke:#000000;stroke-width:0.5;stroke-miterlimit:10;stroke-dasharray:4;}
	.st5{fill:#F08534;}
	.st6{font-size:12.6771px;}
</style>
<sodipodi:namedview  bordercolor="#666666" borderopacity="1.0" id="base" inkscape:current-layer="layer1" inkscape:cx="284.27627" inkscape:cy="182.72055" inkscape:document-units="mm" inkscape:guide-bbox="true" inkscape:pageopacity="0.0" inkscape:pageshadow="2" inkscape:window-height="995" inkscape:window-maximized="1" inkscape:window-width="2520" inkscape:window-x="20" inkscape:window-y="65" inkscape:zoom="0.99437388" pagecolor="#ffffff" showborder="true" showgrid="false" showguides="true" width="200mm">
	<inkscape:grid  dotted="false" empspacing="4" id="grid815" spacingx="10" spacingy="10" type="xygrid" units="mm">
		</inkscape:grid>
</sodipodi:namedview>
<g id="layer1" transform="translate(0,-177)" inkscape:groupmode="layer" inkscape:label="Layer 1">
</g>
<sodipodi:namedview  bordercolor="#666666" borderopacity="1.0" id="base" inkscape:current-layer="layer1" inkscape:cx="284.27627" inkscape:cy="182.72055" inkscape:document-units="mm" inkscape:guide-bbox="true" inkscape:pageopacity="0.0" inkscape:pageshadow="2" inkscape:window-height="995" inkscape:window-maximized="1" inkscape:window-width="2520" inkscape:window-x="20" inkscape:window-y="65" inkscape:zoom="0.99437388" pagecolor="#ffffff" showborder="true" showgrid="false" showguides="true" width="200mm">
	<inkscape:grid  dotted="false" empspacing="4" id="grid815" spacingx="10" spacingy="10" type="xygrid" units="mm">
		</inkscape:grid>
</sodipodi:namedview>
<g id="layer1_1_" transform="translate(0,-177)" inkscape:groupmode="layer" inkscape:label="Layer 1">
</g>
<path class="st0" d="M46.2,23.3c1.1,8.9,4,14.8,6.4,18.6c3.9,6.1,7.1,7.2,9.2,13.1c0.4,1.2,3,8.8,0,16.5c-3.6,9.2-10.9,8-15.7,17.5
	c-0.4,0.8-5.5,11.1-1.4,20c3.4,7.3,9.6,6.1,13.1,13.7c2.7,5.8,2.3,13.2-0.6,18.6c-3.6,6.7-8.9,6.3-14,12.8
	c-4.4,5.6-5.5,12.5-5.5,18.6"/>
<path class="st1" d="M59.3,23.3c-1.1,8.9-4,14.8-6.4,18.6C49,48,45.8,49.1,43.7,55c-0.4,1.2-3,8.8,0,16.5c3.6,9.2,10.9,8,15.7,17.5
	c0.4,0.8,5.5,11.1,1.4,20c-3.4,7.3-9.6,6.1-13.1,13.7c-2.7,5.8-2.3,13.2,0.6,18.6c3.6,6.7,8.9,6.3,14,12.8
	c4.4,5.6,5.5,12.5,5.5,18.6"/>
<g>
	<g>
		<line class="st1" x1="71.8" y1="103.4" x2="134.7" y2="103.4"/>
		<g>
			<path d="M140.7,103.4c-2.8,1.1-6.4,2.9-8.5,4.8l1.7-4.8l-1.7-4.8C134.4,100.6,137.9,102.4,140.7,103.4z"/>
		</g>
	</g>
</g>
<text transform="matrix(1 0 0 1 98.0364 100.5984)" class="st2 st3">f</text>
<path class="st1" d="M145.3,23.3c6.3,11.3,18.5,36.2,21,71.4c2.9,42-9.8,73.3-15.2,85.1"/>
<line class="st4" x1="52.9" y1="41.9" x2="154.2" y2="41.9"/>
<line class="st4" x1="52.9" y1="81.4" x2="165.2" y2="81.4"/>
<line class="st4" x1="52.9" y1="116.6" x2="166.4" y2="116.6"/>
<line class="st4" x1="52.9" y1="146.7" x2="162.2" y2="146.7"/>
<text transform="matrix(1 0 0 1 160.3904 37.2808)" class="st2 st3">$\infty$</text>
<circle class="st5" cx="154.1" cy="41.9" r="3"/>
<circle class="st5" cx="164.8" cy="81.4" r="3"/>
<circle class="st5" cx="166.7" cy="116.6" r="3"/>
<circle class="st5" cx="162.2" cy="146.7" r="3"/>
<text transform="matrix(1 0 0 1 171.7775 78.4467)" class="st2 st3">$1$</text>
<text transform="matrix(1 0 0 1 175.7544 118.4851)" class="st2 st3">$\lambda$</text>
<text transform="matrix(1 0 0 1 171.7777 146.7269)" class="st2 st3">$0$</text>
<text transform="matrix(1 0 0 1 42.4252 19.045)" class="st2 st3">$E$</text>
<text transform="matrix(1 0 0 1 140.7207 16.9495)" class="st2 st3">$\pro^1_K$</text>
<circle class="st5" cx="52.9" cy="41.9" r="3"/>
<circle class="st5" cx="52.9" cy="81.4" r="3"/>
<circle class="st5" cx="52.9" cy="116.6" r="3"/>
<circle class="st5" cx="52.9" cy="146.7" r="3"/>
<g>
	<text transform="matrix(0.7223 0 0 1 30.7583 194.3114)" class="st5 st2 st6">$\ram_f$</text>
</g>
<g>
	<text transform="matrix(0.7223 0 0 1 129.8569 194.3114)" class="st5 st2 st6">$\delta = f_* \ram_f$</text>
</g>
</svg>
