<?xml version="1.0" encoding="utf-8"?>
<!-- Generator: Adobe Illustrator 23.0.3, SVG Export Plug-In . SVG Version: 6.00 Build 0)  -->
<svg version="1.1"
	 id="svg8" inkscape:version="0.92.4 (unknown)" sodipodi:docname="figure.svg" xmlns:cc="http://creativecommons.org/ns#" xmlns:dc="http://purl.org/dc/elements/1.1/" xmlns:inkscape="http://www.inkscape.org/namespaces/inkscape" xmlns:rdf="http://www.w3.org/1999/02/22-rdf-syntax-ns#" xmlns:sodipodi="http://sodipodi.sourceforge.net/DTD/sodipodi-0.dtd" xmlns:svg="http://www.w3.org/2000/svg"
	 xmlns="http://www.w3.org/2000/svg" xmlns:xlink="http://www.w3.org/1999/xlink" x="0px" y="0px" viewBox="0 0 251.1 404.3"
	 style="enable-background:new 0 0 251.1 404.3;" xml:space="preserve">
<style type="text/css">
	.st0{fill:#FFFFFF;stroke:#000000;stroke-width:2;stroke-miterlimit:10;}
	.st1{font-family:'MyriadPro-Regular';}
	.st2{font-size:12px;}
	.st3{fill:none;stroke:#000000;stroke-miterlimit:10;}
	.st4{fill:none;stroke:#007BC4;stroke-width:2;stroke-linecap:round;stroke-miterlimit:10;}
	.st5{fill:#007BC4;}
	.st6{fill:none;stroke:#000000;stroke-width:2;stroke-miterlimit:10;}
	.st7{fill:none;stroke:#000000;stroke-width:0.5;stroke-miterlimit:10;stroke-dasharray:4;}
</style>
<sodipodi:namedview  bordercolor="#666666" borderopacity="1.0" id="base" inkscape:current-layer="layer1" inkscape:cx="284.27627" inkscape:cy="182.72055" inkscape:document-units="mm" inkscape:guide-bbox="true" inkscape:pageopacity="0.0" inkscape:pageshadow="2" inkscape:window-height="995" inkscape:window-maximized="1" inkscape:window-width="2520" inkscape:window-x="20" inkscape:window-y="65" inkscape:zoom="0.99437388" pagecolor="#ffffff" showborder="true" showgrid="false" showguides="true" width="200mm">
	<inkscape:grid  dotted="false" empspacing="4" id="grid815" spacingx="10" spacingy="10" type="xygrid" units="mm">
		</inkscape:grid>
</sodipodi:namedview>
<g id="layer1" transform="translate(0,-177)" inkscape:groupmode="layer" inkscape:label="Layer 1">
</g>
<circle class="st0" cx="92.6" cy="66.9" r="29.1"/>
<text transform="matrix(1 0 0 1 72.8005 25.3608)" class="st1 st2">$\ts \sk(E)$</text>
<g>
	<g>
		<line class="st3" x1="138.5" y1="73.9" x2="189.6" y2="73.9"/>
		<g>
			<path d="M195.7,73.9c-2.8,1.1-6.4,2.9-8.5,4.8l1.7-4.8l-1.7-4.8C189.3,71.1,192.8,72.9,195.7,73.9z"/>
		</g>
	</g>
</g>
<line class="st4" x1="208.2" y1="40.6" x2="208.2" y2="93.1"/>
<g>
	<text transform="matrix(1 0 0 1 217.7951 53.0174)" class="st5 st1 st2">$\ts\sk(\sP)$</text>
</g>
<line class="st6" x1="92.6" y1="177.2" x2="92.6" y2="229.7"/>
<text transform="matrix(1 0 0 1 77.4183 162.6716)" class="st1 st2">$\ts \sk(E)$</text>
<line class="st7" x1="72.8" y1="294.9" x2="208.2" y2="294.9"/>
<circle cx="85.9" cy="363.2" r="3.1"/>
<circle class="st5" cx="186" cy="363.2" r="3.1"/>
<g>
	<text transform="matrix(1 0 0 1 174.9322 351.8843)" class="st5 st1 st2">$\sk(\sP)$</text>
</g>
<text transform="matrix(1 0 0 1 80.9018 351.8842)" class="st1 st2">$\sk(E)$</text>
<g>
	<g>
		<line class="st3" x1="107.8" y1="363.2" x2="167.1" y2="363.2"/>
		<g>
			<path d="M173.2,363.2c-2.8,1.1-6.4,2.9-8.5,4.8l1.7-4.8l-1.7-4.8C166.8,360.4,170.3,362.2,173.2,363.2z"/>
		</g>
	</g>
</g>
<g>
	<g>
		<line class="st3" x1="138.8" y1="210.5" x2="189.9" y2="210.5"/>
		<g>
			<path d="M195.9,210.5c-2.8,1.1-6.4,2.9-8.5,4.8l1.7-4.8l-1.7-4.8C189.5,207.7,193.1,209.5,195.9,210.5z"/>
		</g>
	</g>
</g>
<line class="st4" x1="208.4" y1="177.2" x2="208.4" y2="229.7"/>
<g>
	<text transform="matrix(1 0 0 1 218.0293 189.6086)" class="st5 st1 st2">$\ts\sk(\sP)$</text>
</g>
</svg>
