<?xml version="1.0" encoding="utf-8"?>
<!-- Generator: Adobe Illustrator 23.0.3, SVG Export Plug-In . SVG Version: 6.00 Build 0)  -->
<svg version="1.1"
	 id="svg8" inkscape:version="0.92.4 (unknown)" sodipodi:docname="figure.svg" xmlns:cc="http://creativecommons.org/ns#" xmlns:dc="http://purl.org/dc/elements/1.1/" xmlns:inkscape="http://www.inkscape.org/namespaces/inkscape" xmlns:rdf="http://www.w3.org/1999/02/22-rdf-syntax-ns#" xmlns:sodipodi="http://sodipodi.sourceforge.net/DTD/sodipodi-0.dtd" xmlns:svg="http://www.w3.org/2000/svg"
	 xmlns="http://www.w3.org/2000/svg" xmlns:xlink="http://www.w3.org/1999/xlink" x="0px" y="0px" viewBox="0 0 664.7 125.5"
	 style="enable-background:new 0 0 664.7 125.5;" xml:space="preserve">
<style type="text/css">
	.st0{fill:#FFFFFF;stroke:#020203;stroke-width:2;stroke-miterlimit:10;}
	.st1{fill:#020203;}
	.st2{font-family:'ArialMT';}
	.st3{font-size:12px;}
	.st4{fill:none;stroke:#020203;stroke-miterlimit:10;}
	.st5{fill:none;stroke:#107BC0;stroke-width:2;stroke-linecap:round;stroke-miterlimit:10;}
	.st6{fill:#107BC0;}
	.st7{fill:none;stroke:#020203;stroke-width:2;stroke-miterlimit:10;}
	.st8{font-family:'MyriadPro-Regular';}
</style>
<sodipodi:namedview  bordercolor="#666666" borderopacity="1.0" id="base" inkscape:current-layer="layer1" inkscape:cx="284.27627" inkscape:cy="182.72055" inkscape:document-units="mm" inkscape:guide-bbox="true" inkscape:pageopacity="0.0" inkscape:pageshadow="2" inkscape:window-height="995" inkscape:window-maximized="1" inkscape:window-width="2520" inkscape:window-x="20" inkscape:window-y="65" inkscape:zoom="0.99437388" pagecolor="#ffffff" showborder="true" showgrid="false" showguides="true" width="200mm">
	<inkscape:grid  dotted="false" empspacing="4" id="grid815" spacingx="10" spacingy="10" type="xygrid" units="mm">
		</inkscape:grid>
</sodipodi:namedview>
<g id="layer1" transform="translate(0,-177)" inkscape:groupmode="layer" inkscape:label="Layer 1">
</g>
<circle class="st0" cx="37" cy="69.8" r="29.1"/>
<text transform="matrix(1 0 0 1 17.185 24.0656)" class="st1 st2 st3">$\ts \sk(E)$</text>
<g>
	<g>
		<line class="st4" x1="82.9" y1="69.8" x2="134" y2="69.8"/>
		<g>
			<path class="st1" d="M140.1,69.8c-2.8,1.1-6.4,2.9-8.5,4.8l1.7-4.8l-1.7-4.8C133.7,67,137.2,68.8,140.1,69.8z"/>
		</g>
	</g>
</g>
<line class="st5" x1="152.6" y1="43.6" x2="152.6" y2="96.1"/>
<g>
	<text transform="matrix(1 0 0 1 162.1798 51.0024)" class="st6 st2 st3">$\ts\sk(\sP)$</text>
</g>
<line class="st7" x1="295" y1="43.6" x2="295" y2="96.1"/>
<text transform="matrix(1 0 0 1 279.8028 24.0655)" class="st1 st2 st3">$\ts \sk(E)$</text>
<circle class="st1" cx="528.9" cy="69.8" r="3.1"/>
<circle class="st6" cx="629" cy="69.8" r="3.1"/>
<g>
	<text transform="matrix(1 0 0 1 617.9148 49.572)" class="st6 st2 st3">$\sk(\sP)$</text>
</g>
<text transform="matrix(1 0 0 1 523.8844 49.5719)" class="st1 st2 st3">$\sk(E)$</text>
<g>
	<g>
		<line class="st4" x1="550.8" y1="69.8" x2="610.1" y2="69.8"/>
		<g>
			<path class="st1" d="M616.2,69.8c-2.8,1.1-6.4,2.9-8.5,4.8l1.7-4.8l-1.7-4.8C609.8,67,613.3,68.8,616.2,69.8z"/>
		</g>
	</g>
</g>
<g>
	<g>
		<line class="st4" x1="341.2" y1="69.8" x2="392.3" y2="69.8"/>
		<g>
			<path class="st1" d="M398.3,69.8c-2.8,1.1-6.4,2.9-8.5,4.8l1.7-4.8l-1.7-4.8C391.9,67,395.5,68.8,398.3,69.8z"/>
		</g>
	</g>
</g>
<line class="st5" x1="410.8" y1="43.6" x2="410.8" y2="96.1"/>
<g>
	<text transform="matrix(1 0 0 1 420.4138 51.0025)" class="st6 st2 st3">$\ts\sk(\sP)$</text>
</g>
<text transform="matrix(1 0 0 1 18.4782 117.87)" class="st8 st3">$\mathrm I_m$</text>
<text transform="matrix(1 0 0 1 143.0969 117.87)" class="st8 st3">$n &gt; 0$</text>
<text transform="matrix(1 0 0 1 278.6653 117.87)" class="st8 st3">$\mathrm I_m^*$</text>
<text transform="matrix(1 0 0 1 402.284 117.87)" class="st8 st3">$n &gt; 0$</text>
<text transform="matrix(1 0 0 1 506.3573 117.87)" class="st8 st3">other type </text>
<text transform="matrix(1 0 0 1 625.7145 117.87)" class="st8 st3">$n = 0$</text>
</svg>
