<?xml version="1.0" encoding="utf-8"?>
<!-- Generator: Adobe Illustrator 23.0.3, SVG Export Plug-In . SVG Version: 6.00 Build 0)  -->
<svg version="1.1"
	 id="svg8" inkscape:version="0.92.4 (unknown)" sodipodi:docname="figure.svg" xmlns:cc="http://creativecommons.org/ns#" xmlns:dc="http://purl.org/dc/elements/1.1/" xmlns:inkscape="http://www.inkscape.org/namespaces/inkscape" xmlns:rdf="http://www.w3.org/1999/02/22-rdf-syntax-ns#" xmlns:sodipodi="http://sodipodi.sourceforge.net/DTD/sodipodi-0.dtd" xmlns:svg="http://www.w3.org/2000/svg"
	 xmlns="http://www.w3.org/2000/svg" xmlns:xlink="http://www.w3.org/1999/xlink" x="0px" y="0px" viewBox="0 0 680.3 284"
	 style="enable-background:new 0 0 680.3 284;" xml:space="preserve">
<style type="text/css">
	.st0{fill:#030304;}
	.st1{fill:#F08534;}
	.st2{fill:none;stroke:#F08534;stroke-width:2.2;stroke-miterlimit:10;}
	.st3{fill:#FFFFFF;}
	.st4{font-family:'ArialMT';}
	.st5{font-size:5.0803px;}
	.st6{font-size:10.4255px;}
</style>
<sodipodi:namedview  bordercolor="#666666" borderopacity="1.0" id="base" inkscape:current-layer="layer1" inkscape:cx="284.27627" inkscape:cy="182.72055" inkscape:document-units="mm" inkscape:guide-bbox="true" inkscape:pageopacity="0.0" inkscape:pageshadow="2" inkscape:window-height="995" inkscape:window-maximized="1" inkscape:window-width="2520" inkscape:window-x="20" inkscape:window-y="65" inkscape:zoom="0.99437388" pagecolor="#ffffff" showborder="true" showgrid="false" showguides="true" width="200mm">
	<inkscape:grid  dotted="false" empspacing="4" id="grid815" spacingx="10" spacingy="10" type="xygrid" units="mm">
		</inkscape:grid>
</sodipodi:namedview>
<g id="layer1" transform="translate(0,-177)" inkscape:groupmode="layer" inkscape:label="Layer 1">
</g>
<g>
	<g>
		<path class="st0" d="M567.5,50.8c0-0.3,0.2-0.5,0.5-0.5s0.5,0.2,0.5,0.5v211.4c0,0.3-0.2,0.5-0.5,0.5s-0.5-0.2-0.5-0.5V50.8z"/>
		<path class="st0" d="M594.8,253.6c0.2-0.2,0.5,0,0.6,0.2s0,0.5-0.2,0.6c-0.2,0.2-0.5,0-0.6-0.2c0-0.2,0-0.3,0-0.5v0.2v0.2v0.2
			l-0.3-0.3c-0.2-0.2-0.2-0.3,0-0.3c0,0,0.2-0.2,0.3,0l0.3,0.2l0,0l0,0L594.8,253.6L594.8,253.6z M568.9,241.1
			c-0.2,0-0.2-0.2-0.2-0.3v-0.3c0-0.2,0.2-0.3,0.5-0.3c0.9-0.2,1.5,0.3,2.2,0.9c2.5,1.5,5.2,2.4,7.9,4l3.7,2.4l3.7,2.4
			c1.2,0.9,2.7,1.7,4.3,2.2l2.7,1l0.9,0.5l0.9,0.5c0.2,0,0.2,0.2,0.2,0.2l0.2,0.5v0.2c0,0.2,0,0.3-0.2,0.5h-0.2
			c-0.3,0.2-0.3,0.2-0.5,0c-0.2,0-0.2,0-0.3-0.2l-0.9-0.5l-0.6-0.3l-2.5-0.9c-1.8-0.5-3.3-1.3-4.9-2.4l-3.6-2.4l-3.7-2.4
			c-2.7-1.5-5.2-2.5-7.9-4l-1.3-0.6C569,241.2,568.9,241.1,568.9,241.1L568.9,241.1z"/>
		<path class="st0" d="M582.3,259.3c0.3,0,0.5,0.3,0.5,0.6s-0.3,0.5-0.6,0.5s-0.5-0.3-0.5-0.6c0-0.2,0.2-0.3,0.3-0.3h-0.2l0,0v-0.2
			l1-1.3c0.2-0.2,0.3-0.2,0.3,0c0.2,0,0.2,0.2,0.2,0.3l-0.5,1.3v-0.2l-0.2-0.2h-0.2L582.3,259.3L582.3,259.3z M585.6,250.1
			c0.2,0,0.3,0.3,0.3,0.5s-0.2,0.3-0.3,0.3h0.2l0,0v0.2l-0.2,0.6l-0.5,2.4l-0.6,2.1l-0.3,1.5l-0.5,1.5l-0.6,1.2
			c-0.2,0.2-0.2,0.2-0.3,0.2s-0.3,0.2-0.5-0.2c-0.2-0.2-0.3-0.3-0.3-0.5v-0.2c0-0.2,0.2-0.2,0.2-0.3l0.3-0.6l0.5-1.5l0.5-1.5
			l0.6-2.1l0.9-2.4l0.3-0.9L585.6,250.1L585.6,250.1L585.6,250.1z"/>
		<path class="st0" d="M608.5,247.5c0.2,0,0.3,0.3,0.2,0.5c0,0.2-0.3,0.3-0.5,0.2c0,0-0.2,0-0.2-0.2l0,0l0,0h-0.3l-1.3,0.3
			c-0.2,0-0.3,0-0.3-0.2s0-0.3,0.2-0.3l1.3-0.5L608.5,247.5z M590.5,252.9c0,0.2-0.3,0.3-0.5,0.2c-0.2,0-0.3-0.3-0.2-0.5l0,0
			l0.6-0.6c0.3-0.3,1-0.9,1.8-1.2l2.7-0.6l8.2-2.1l3.1-0.6l1.3-0.2h0.2l0.5,0.2l0.2,0.2l0.2,0.2v0.5c-0.2,0.3-0.5,0.5-0.6,0.6h-0.2
			l-1.3,0.2l-3.1,0.5l-8.4,1.8l-2.5,0.5l-2.1,0.5L590.5,252.9L590.5,252.9z"/>
		<path class="st0" d="M592.1,234.2c0.2-0.2,0.5,0,0.6,0.3c0.2,0.2,0,0.5-0.3,0.6c-0.2,0-0.2,0-0.3,0s-0.9-0.2-1.7-0.5
			c-0.2,0-0.2-0.2-0.2-0.3c0-0.2,0.2-0.2,0.3-0.2C591.5,234.4,592.1,234.4,592.1,234.2 M570.5,232.9c-0.2,0-0.3-0.2-0.5-0.3
			c0-0.2,0.2-0.3,0.3-0.5c2.2-0.3,4.5,0,7.2,0.3c1.5,0.2,2.7,0.6,4.5,1.2c1.5,0.3,3.6,0.5,5.5,0.5h2.4h0.6h0.9h0.9
			c0.3,0,0.6,0.3,0.6,0.6s-0.3,0.6-0.6,0.6h-1h-0.9h-0.6h-2.4c-2.1,0-4.2-0.2-5.8-0.6c-1.8-0.5-3-1-4.3-1.2
			C574.8,233,572.4,232.7,570.5,232.9 M593.2,234.7c0,0.3-0.3,0.6-0.6,0.6s-0.6-0.3-0.6-0.6s0.3-0.6,0.6-0.6
			S593.2,234.4,593.2,234.7"/>
		<path class="st0" d="M590.2,233.8c0.2-0.2,0.3,0,0.5,0.2s0,0.3-0.2,0.5c-0.2,0-0.2,0-0.3,0l0,0l0,0H590h0.2l0,0v-0.2l-0.2-0.2
			h-0.2h0.2h-0.2h-0.2h0.2l0.5-0.2l2.5-1.3l3.9-1.7l5.1-2.1l8.4-3l3-1.3l1-0.5l0.6-0.3l0.2-0.2l0,0v0.2v0.2v0.2l0.2,0.2h0.2l0,0
			h-0.2l-1,0.5c-0.2,0-0.3,0-0.3-0.2s0-0.3,0-0.3l1-0.6l0.2-0.2c0,0,0-0.2,0.3-0.2c0.2,0,0.3,0.2,0.5,0.3v0.3l-0.2,0.3l-0.6,0.5
			l-1.2,0.6l-3.1,1.3l-8.4,3l-5.2,1.8l-3.9,1.5l-2.7,1.2l-0.5,0.2l-0.3,0.2c-0.2,0-0.3,0-0.5-0.2l-0.2-0.2v-0.5l0.2-0.2l0.3-0.3
			h-0.2L590.2,233.8L590.2,233.8z M590.6,234.4c-0.2,0.2-0.3,0.3-0.5,0.2c-0.2-0.2-0.3-0.3-0.2-0.5c0,0,0-0.2,0.2-0.2
			c0.2-0.2,0.3-0.2,0.5,0c0,0,0,0.2,0.2,0.2v0.2L590.6,234.4z"/>
		<path class="st0" d="M608.4,229.3c0.2,0,0.3,0.2,0.3,0.3c0,0.2-0.2,0.3-0.3,0.3h-1.7h0.2l-0.2,0.2l0,0V230v0.2V230l0.2,0.3
			l0.5,0.9l4,8.7l2.4,4.2l0.9,1.8l0.3,1v0.2v1.2c-0.2,0.3-0.5,0.5-0.9,0.5c-0.3-0.2-0.5-0.3-0.5-0.6l0,0l0.2-1
			c0.2-0.5,0.3-0.9,0.9-1.2c0.2-0.2,0.3-0.2,0.3,0c0.2,0.2,0.2,0.2,0,0.3l-0.3,1v0.5v0.2l0,0l-0.6,1c-0.5-0.2-0.3-0.5-0.5-0.6
			l-0.2-0.5v-0.2l-0.2-0.9l-0.9-1.7l-2.4-4.2l-3.7-8.7l-0.3-1v-0.5l0.2-0.6c0,0,0,0,0.2,0c0.3-0.2,0.5,0,0.5,0h0.2h-0.2L608.4,229.3
			z"/>
		<path class="st0" d="M611.5,228.1c-0.2,0-0.3-0.3-0.3-0.5c0,0,0,0,0-0.2l0.2-0.2l0.2-0.2l1.2-0.3l3.3-0.6l5.5-1.3l6.9-1.5
			c3.1-0.5,6.4-0.6,8.7-0.9l2.7-0.2h0.5h0.2h0.2l-0.2,0.2l-0.2,0.2v0.2l-0.3-0.3l-0.3-0.3h-0.2l-0.2,0.2c0,0.2-0.2,0.2-0.3,0.2
			s-0.2-0.2-0.2-0.3l0.3-0.5l0.5-0.2c0.3,0,0.6,0.2,1,0.3l0.6,0.6l0.2,0.5c0,0.2,0,0.5-0.3,0.9c0,0,0,0-0.2,0.2
			c-0.5,0.2-0.9,0.2-1.2,0.2l-2.8,0.2c-2.5,0.2-5.5,0.3-8.5,0.9l-6.7,1.3l-5.7,1.3l-3.3,0.5l-1.2,0.2L611.5,228.1L611.5,228.1z
			 M611.9,227.2c0.2,0,0.3,0.2,0.3,0.3s-0.2,0.3-0.3,0.3h-0.2l0,0h0.2c-0.2,0.2-0.5,0-0.6-0.2s0-0.5,0.2-0.6
			C611.5,227.2,611.9,227.2,611.9,227.2L611.9,227.2L611.9,227.2L611.9,227.2z"/>
		<path class="st0" d="M628.6,240.9c0,0.3-0.3,0.5-0.6,0.5s-0.5-0.3-0.5-0.6s0.3-0.5,0.6-0.5C628.5,240.2,628.6,240.4,628.6,240.9
			v-0.3v-0.2v-0.2h-0.2l0,0h0.2c0.2,0,0.3,0,0.3,0.2v0.2L628.6,240.9L628.6,240.9z M619.1,227.5c-0.2,0.2-0.3,0.2-0.5-0.2
			c-0.2-0.2-0.2-0.3,0-0.5c0.5-0.5,1.2-0.5,1.7-0.3s1,0.6,1.5,1.2c1,1,1.8,2.5,2.7,4l2.7,4.9l1,2.2l0.3,0.5l0.2,0.9v0.2
			c0.2,0.3,0,0.6-0.2,0.9l0,0c0,0-0.2,0-0.2,0.2h-0.2c-0.3,0-0.6-0.2-0.9-0.3l-0.2-0.9l-0.2-0.5V239l-1-2.1l-2.7-4.9
			c-0.6-1.5-1.5-3-2.2-4l-1-1C619.6,227.2,619.4,227.2,619.1,227.5"/>
		<path class="st0" d="M569.9,212.8c-0.2,0-0.5,0-0.5-0.3c0-0.2,0-0.3,0.2-0.5l1.2-0.3l2.4-0.5l2.8-0.3l3-0.2c1.5,0,3.1-0.2,5.5-0.5
			l5.7-1.2l11.3-2.5l12.7-2.7l6-1.3l4.3-0.9c1.8-0.3,2.8-0.3,3.9-0.3c2.2,0.2,5.2,0.2,8,0h4.5l2.1,0.3l0.9,0.2
			c0.9,0.2,2.1,0.2,3.1,0.2l1.8-0.5l1.2-0.3l0,0l-0.2,0.2v0.2v0.2l0,0l0,0l0,0h-1c-0.2,0-0.3-0.2-0.3-0.3c0-0.2,0.2-0.3,0.3-0.3h1
			h0.2h0.2l0.2,0.5l-0.2,0.2c-0.3,0.2-0.9,0.3-1.3,0.5l-2.1,0.5c-1.2,0.2-2.5,0-3.6-0.3l-0.9-0.3l-1.7,0.2h-4.5
			c-2.8,0.2-5.8,0.2-8.2,0c-0.9,0-1.7,0-3.6,0.3l-4.3,0.9l-6,1.3l-12.4,3.1l-11.5,2.4l-5.7,1.2c-2.4,0.3-4.2,0.5-5.7,0.5h-3
			l-2.8,0.3l-2.4,0.3L569.9,212.8z"/>
		<path class="st0" d="M651.9,217c0.2-0.2,0.5-0.2,0.6,0.2c0.2,0.2,0.2,0.5-0.2,0.6c-0.2,0.2-0.5,0.2-0.6-0.2l-1-0.9
			c-0.2-0.2-0.2-0.3,0-0.3c0-0.2,0.2-0.2,0.3,0L651.9,217h0.3H651.9L651.9,217z M643.5,203.2c0,0.2-0.2,0.3-0.3,0.5
			c-0.2,0-0.3-0.2-0.3-0.3v-0.2v-0.3l0.3-0.3h0.3l0.2,0.2l0.6,0.9l2.1,3.6l2.7,4.5c0.6,1.2,1.5,2.2,2.2,3l1.3,1.5l0.2,0.3
			c0,0.2,0.2,0.2,0.2,0.5c0,0.5-0.2,0.9-0.6,0.9c-0.5,0-0.9-0.2-0.9-0.6v0.2v0.2l0,0l-0.2-0.2l-1.3-1.7c-0.6-0.9-1.5-2.1-2.2-3.3
			l-2.4-4.5l-1.8-3.6l-0.5-0.9l0,0l0,0h0.2h0.2h0.2L643.5,203.2L643.5,203.2L643.5,203.2z M653.1,217.3c0,0.5-0.3,0.9-0.9,0.9
			s-0.9-0.3-0.9-0.9c0-0.5,0.3-0.9,0.9-0.9S653.1,216.8,653.1,217.3"/>
		<path class="st0" d="M642,219.3c0.3,0.2,0.3,0.5,0.2,0.9s-0.5,0.3-0.9,0.2c-0.3-0.1-0.3-0.5-0.2-0.9c0.2-0.2,0.2-0.2,0.3-0.2l0,0
			h-0.2l-0.2,0.2v0.2v-1c0-0.2,0-0.3,0.2-0.3s0.2,0,0.3,0.2L642,219.3L642,219.3L642,219.3L642,219.3L642,219.3z M636.2,204.6
			c0.2,0,0.5,0.2,0.5,0.3l0,0v0.2l0.2,1.3c0.3,2.2,1.3,5.2,2.5,7.9c0.6,1.3,1.3,2.4,1.8,3.1l0.6,1l0.3,0.9c0,0.2,0,0.3,0,0.3
			l-0.2,0.3c-0.2,0.2-0.3,0.3-0.5,0.3c-0.3,0-0.5-0.2-0.5-0.2c-0.2-0.2-0.2-0.2-0.2-0.3l-0.2-0.6l-0.6-1c-0.5-0.9-1.3-2.1-1.8-3.3
			c-1.3-2.8-2.2-6-2.5-8.2V205v-0.3C635.7,204.7,635.7,204.6,636.2,204.6 M636.7,205.2c0,0.2-0.2,0.3-0.3,0.5
			c-0.2,0-0.3-0.2-0.3-0.3v-0.2l0,0l0,0h0.2h0.2c-0.2,0-0.5-0.2-0.5-0.3s0.2-0.5,0.3-0.5s0.5,0.2,0.5,0.3v0.2v0.3H636.7z"/>
		<path class="st0" d="M663.1,191.5c0.2-0.3,0.5-0.5,0.6-0.3c0.3,0.2,0.5,0.5,0.3,0.6c-0.2,0.3-0.5,0.5-0.6,0.3
			c-0.2,0-0.3-0.2-0.3-0.5v0.2l0.2,0.2l0,0h-0.9c-0.2,0-0.3-0.2-0.3-0.3s0-0.2,0.2-0.3l0.9-0.3L663.1,191.5L663.1,191.5L663.1,191.5
			z M647.6,201.7c-0.2,0.2-0.5,0-0.6-0.2v-0.2l0,0l0.3-0.3l0.3-0.2l3.3-2.1l4.9-3l3.9-2.2l2.8-1.7l1-0.5c0.2-0.2,0.3-0.2,0.5-0.2
			h0.2c0.2,0.2,0.3,0.2,0.3,0.5v0.3c0,0.2-0.2,0.3-0.3,0.5l-1,0.6l-2.8,1.7l-3.9,2.1l-4.9,2.8l-3.3,2.1L647.6,201.7L647.6,201.7z
			 M647.7,200.9c0.2,0,0.3,0.2,0.5,0.3c0,0.2-0.2,0.3-0.3,0.5l-0.3,0.2h-0.2c-0.2,0-0.5-0.2-0.5-0.5c0-0.2,0.2-0.5,0.5-0.5
			c0.2,0,0.3,0.2,0.3,0.3V200.9L647.7,200.9h-0.2H647.7z"/>
		<path class="st0" d="M623.6,203.7c0.2,0.2,0.2,0.3,0,0.5s-0.3,0.2-0.5,0l-0.3-0.5l0.2-0.5l0.9-1.2c0.9-0.9,2.2-1.8,3.9-3.1
			l7.7-5.4l4.9-3c3.7-2.2,8-4.2,11.5-6l3.6-2.1c1.5-0.9,2.5-1.3,3.3-1.7l4.9-1.8l1.3-0.5l2.1-1.2l1-0.6l0.2-0.2l-0.2,0.2v0.2v0.3
			l0.2,0.2l0.2,0.2h-0.2l-2.7,0.3c-0.2,0-0.3,0-0.3-0.2s0-0.3,0.2-0.3l2.8-0.9l0.6-0.2c0.2,0,0.3,0,0.5,0.3s0.2,0.5,0,0.6
			c0,0,0,0.2-0.2,0.2c-0.3,0.5-0.9,0.6-1.3,1.2l-2.2,1.2l-1.5,0.5l-4.9,1.7c-0.9,0.3-1.7,0.6-3.1,1.7l-3.6,2.1
			c-3.6,1.8-7.9,3.9-11.5,6l-4.9,2.8l-7.7,5.2c-1.7,1.2-3,2.2-3.9,3l-0.6,0.9L623.6,203.7L623.6,203.7z"/>
		<path class="st0" d="M617.9,218.3c0.2,0.3,0.2,0.6-0.2,0.9c-0.4,0.2-0.6,0.2-0.9-0.2c-0.2-0.2-0.2-0.3-0.2-0.5v0.2v0.2
			c0-0.2-1.3-1-1.8-2.1c0-0.2,0-0.3,0.2-0.3s0.3,0,0.3,0l1.3,1l0.6,0.3L617.9,218.3z M605.4,209.5c0,0.2-0.2,0.3-0.5,0.3
			c-0.2,0-0.3-0.2-0.3-0.3l0.2-0.5l0.3-0.2h0.6l1.8,0.6c0.9,0.3,1.7,0.9,2.5,1.5c1,0.9,1.7,1.8,2.4,2.8l1.5,2.1c0.9,1,2.2,1.5,3,1.8
			l0.6,0.3l0.2,0.2l0,0c0.2,0.3,0.2,0.6,0,0.9c0,0,0,0-0.2,0h-0.2H617l-0.5-0.2c-0.9-0.3-2.5-1-3.7-2.2l-1.5-2.2
			c-0.6-1.2-1.3-2.2-2.1-2.8c-0.6-0.6-1.3-1-2.2-1.5L605.4,209.5l-0.5-0.2l0,0L605.4,209.5L605.4,209.5z"/>
		<path class="st0" d="M591.2,211.3c0-0.2,0.2-0.3,0.3-0.5c0.2,0,0.3,0,0.3,0.2l-0.2-0.2h-0.2h-0.2l0.2-0.2l1-1.3l1.3-2.2l1.7-2.4
			l4-4.5c1.7-1.8,2.5-2.5,3.9-3c0.2,0,0.3,0,0.3,0.2s0,0.3-0.2,0.3c-0.6,0.3-1,0.6-1.3,1.2l-1.7,2.2l-4.2,4.5l-1.7,2.2l-1.5,2.1
			l-1.2,1.3l-0.5,0.3h-0.5L591.2,211.3z"/>
		<path class="st0" d="M612.2,211.9c0.2-0.2,0.3-0.2,0.5,0s0.2,0.3,0,0.5l0,0v-0.2V212l-0.2-0.2L612.2,211.9l0.3-0.1l1.5-0.5l3-1.2
			l1.8-0.9l1.2-0.6c0.2-0.2,0.3-0.2,0.5-0.2h0.2h0.2l0.2,0.2c0,0.2,0,0.3,0,0.5c-0.3,0.5-0.6,0.9-1.3,1.2l-2.1,0.9l-3.1,1l-1.7,0.5
			h-0.3l-0.3-0.2c-0.2-0.2,0-0.5,0-0.5l0,0h-0.1V211.9z"/>
		<path class="st0" d="M569.4,177.5c0.2,0,0.3,0,0.5,0.3c0,0.2,0,0.3-0.3,0.5c-0.2,0-0.2,0-0.3,0l-0.3-0.2c-0.2,0-0.2-0.2-0.2-0.3
			l0.2-0.2L569.4,177.5z"/>
		<path class="st0" d="M569.2,178.2c-0.2,0.2-0.5,0-0.5-0.2c-0.2-0.2,0-0.5,0.2-0.5s0.3,0,0.3,0h0.2c0.2,0.2,0.2,0.3,0.2,0.5
			C569.4,177.9,569.4,177.9,569.2,178.2L569.2,178.2z"/>
		<path class="st0" d="M569.9,177c0.2,0,0.3,0.2,0.3,0.5c0,0.2-0.2,0.3-0.5,0.3h-0.1l-0.2-0.3l0.2-0.3L569.9,177l1-0.2l5.4-0.2
			l4.2-0.3l2.5-0.2l4.6-0.6l3.9-0.6l6.4-1l7.3-1.8l6-1.2l7.9-1.3l6.7-1l6.9-0.9l4.6-0.3h4.5h2.8c2.7-0.2,5.7-1,8.7-0.5
			c1.3,0.2,2.7-0.2,4-0.3c1.7-0.3,3.6-0.6,5.4-0.9h2.7l2.1-0.2h0.2h0.2l0,0h-0.2l-0.2,0.2v0.2v0.2l-0.2-0.2l-0.9-0.3
			c-0.2,0-0.2-0.2-0.2-0.3s0.2-0.2,0.3-0.2l1.3,0.3l0.2,0.2l0.2,0.5c0,0.3-0.3,0.5-0.5,0.6h-0.2c-0.6,0.2-1.5,0.2-2.4,0.2h-2.7
			c-1.7,0.2-3.6,0.5-5.2,0.9c-1.3,0.2-2.8,0.5-4.3,0.3c-2.7-0.3-5.5,0.5-8.4,0.5h-3H637l-4.5,0.3l-6.9,0.9l-6.7,1l-7.7,1.2l-6,1.2
			c-2.5,0.5-5.1,1.3-7.6,1.7l-6.4,1l-4,0.6l-4.6,0.6l-2.5,0.2l-4.1,0.2h-5.4h-0.9h-0.2l0,0l0.3,0.2v-0.2V177H569.9L569.9,177z"/>
		<path class="st0" d="M664.4,156.7c0.2-0.2,0.3-0.2,0.5,0s0.2,0.3,0,0.5c0,0,0,0-0.2,0l-0.3,0.2c-0.2,0.2-0.3,0-0.3,0
			c0-0.2,0-0.3,0-0.3L664.4,156.7z M653.7,166c0,0.2-0.2,0.3-0.5,0.3c-0.2,0-0.2,0-0.2-0.2l-0.2-0.3v-0.2l0.2-0.3l0.5-0.5
			c1.7-1.3,4.5-2.7,6.9-4.5c1.2-0.9,2.1-1.8,2.8-2.5l0.6-0.9l0.2-0.2l0,0v0.2v0.2c0-0.3,0.2-0.6,0.5-0.9c0.3,0,0.6,0.2,0.9,0.5l0,0
			v0.2l-0.2,0.3l-0.2,0.3l-0.9,1c-0.9,0.9-1.8,1.7-3,2.7c-2.5,1.8-5.5,3.1-7,4.3L653.7,166L653.7,166L653.7,166L653.7,166z
			 M665.5,156.9c0,0.3-0.3,0.6-0.6,0.6s-0.6-0.3-0.6-0.6s0.3-0.6,0.6-0.6S665.5,156.6,665.5,156.9"/>
		<path class="st0" d="M665.5,175.5c0.2,0.3,0,0.6-0.3,0.9c-0.3,0.2-0.6,0-0.9-0.3c0-0.2,0-0.2,0-0.3v0.2l0,0l0,0l-0.5-0.3l-1.3-0.5
			c-0.2,0-0.2-0.2-0.2-0.3s0.2-0.2,0.3-0.2l1.7,0.3l0.9,0.3L665.5,175.5L665.5,175.5z M654.9,169.4c0,0.2-0.2,0.3-0.3,0.5
			c-0.2,0-0.3-0.2-0.5-0.3l-0.2-0.9c0-0.3,0.2-0.5,0.5-0.6s0.5,0,0.9,0l0.6,0.3c0.6,0.5,1.2,1.2,1.8,2.1l1.8,2.4
			c0.9,0.9,2.1,1.5,3,2.1l1.2,0.3h0.6h0.2h-0.2c0.3-0.2,0.9,0,1,0.3c0.2,0.3,0,0.9-0.3,1l0,0l-0.9,0.2l-0.8-0.3L662,176
			c-1.2-0.5-2.5-1.3-3.6-2.4l-1.8-2.5l-1.5-1.8l-0.3-0.3h-0.2h0.2L654.9,169.4L654.9,169.4z M665.8,175.8c0,0.5-0.3,0.9-0.9,0.9
			s-0.9-0.3-0.9-0.9c0-0.5,0.3-0.9,0.9-0.9S665.8,175.2,665.8,175.8"/>
		<path class="st0" d="M642.2,180.6c0.2,0,0.5,0.2,0.5,0.3s-0.2,0.5-0.3,0.5s-0.3,0-0.3-0.2l-0.6-0.9v-0.6v0.2l0,0l-0.2-0.3
			c0-0.2,0-0.3,0.2-0.3s0.3,0,0.3,0.2c0.2,0.2,0.3,0.3,0.3,0.6V180l0.2,0.2v0.4h0.2l0,0L642.2,180.6L642.2,180.6z M633.3,168.4
			c0.2,0,0.3,0.2,0.3,0.3c0,0.2-0.2,0.3-0.3,0.3l0,0v0.2l0.3,1c0.3,1,1,2.2,2.1,3.6c1,1.5,2.4,2.7,3.6,3.7l1.8,1.3l0.6,0.3
			c0.5,0.3,1,0.9,1.3,1.3c0.2,0.3,0.2,0.9-0.2,1c-0.3,0.2-0.9,0.2-1-0.2l-0.9-0.9l-0.6-0.3l-2.1-1.5c-1.2-1-2.5-2.4-3.7-4
			c-0.9-1.3-1.5-2.8-1.8-3.9l-0.2-1.5l0.2-0.6L633.3,168.4z"/>
		<path class="st0" d="M630,167.9c0.2,0,0.3,0.3,0.3,0.5s-0.2,0.3-0.3,0.3s-0.3-0.2-0.3-0.3v-0.3l0.2-0.3l0.6-0.6l2.5-2.4l2.4-2.7
			l3-3.3l1.7-1.3l1.7-1.2l1.2-0.2h0.5l0.2,0.3v0.3c-0.2,0.2-0.3,0.2-0.3,0c0,0,0,0,0-0.2l0.2,0.2h0.2l-0.2,0.2l-0.9,0.3l-1.3,1
			l-1.5,1.3l-3,3.3l-2.5,2.7l-2.5,2.4l-0.6,0.6l-0.2,0.2l0,0v-0.2v-0.2L630,167.9L630,167.9z"/>
		<path class="st0" d="M637.6,142.1c0.2,0.2,0.2,0.3,0,0.5s-0.3,0.2-0.5,0c0,0,0-0.2-0.2-0.2v0.2l0.2,0.2l0,0l0,0l-0.3,0.2l-0.9,0.6
			c-0.2,0.2-0.3,0.2-0.3,0c-0.2-0.2-0.2-0.3,0-0.3l1-0.9l0.5-0.2h0.2C637.1,142.1,637.3,142,637.6,142.1 M617.1,170.6
			c0.2,0,0.5,0,0.5,0.3c0,0.2,0,0.3-0.2,0.5h-0.3l-0.3-0.2c-0.2-0.2-0.2-0.5-0.2-0.6c0-0.5,0.3-1.2,0.6-1.8l1.5-2.8l2.2-3.9
			c1.8-3,4-5.5,5.7-7.3l3.9-4.3l3.1-4l1.3-1.8l1-1.5l0.6-0.5l0.2-0.2l0,0l0,0c0.2,0,0.5,0,0.5,0.2l0,0v0.2v0.2l-0.2,0.2l-0.3,0.5
			l-1,1.5l-1.2,2.1l-3.1,4l-4,4.5c-1.7,1.7-4,4.2-5.7,7l-2.2,3.7l-1.7,2.8L617.1,170.6L617.1,170.6L617.1,170.6L617.1,170.6
			L617.1,170.6z"/>
		<path class="st0" d="M629.7,153.3c-0.2,0-0.3-0.3-0.2-0.5c0-0.2,0.2-0.3,0.3-0.2l0,0l0.3-0.2l0.9-0.5l2.5-1.2
			c2.2-0.9,4.2-1.3,6-1.5l3.3-0.3h0.2l0.6,0.2c0.2,0,0.3,0.2,0.3,0.3c0,0,0,0.2-0.2,0.2l-0.6,0.3h-0.2l-3.3,0.3
			c-1.7,0.2-3.7,0.5-5.7,1.3l-2.4,1l-0.9,0.3C630.1,153.3,630,153.6,629.7,153.3"/>
		<path class="st0" d="M622.1,189.5c0.3,0,0.3,0.3,0.3,0.5c0,0.3-0.3,0.3-0.5,0.3c-0.3,0-0.3-0.3-0.3-0.5c0,0,0,0,0-0.2v0.2v0.2
			l-1.3-1.2c-0.2-0.2-0.2-0.3,0-0.3c0.2-0.2,0.2-0.2,0.3,0c0.5,0.3,1.3,0.5,1.7,1H622.1L622.1,189.5z M604.7,175.7
			c-0.2,0-0.3-0.2-0.3-0.3s0.2-0.3,0.3-0.3c0.3,0,0.6,0,1,0.3l0.9,0.9l2.2,2.4c1.7,1.8,4.6,3.9,7.6,5.8l3.3,2.7l1.2,1l1.3,1.3
			c0,0,0,0,0.2,0.2l0.2,0.2l0,0c0.2,0.2,0.2,0.2,0.2,0.3c0,0.5-0.2,0.5-0.3,0.6c-0.3,0.2-0.6,0-0.9-0.2c0,0-0.2,0-0.2-0.2l-1.5-1.3
			l-1-1l-3.1-2.7c-2.8-2.1-5.8-4.2-7.6-6.2l-2.1-2.5l-0.6-0.6L604.7,175.7z"/>
		<path class="st0" d="M627.8,177.6c-0.2-0.2,0-0.5,0.2-0.5c0.2-0.2,0.5,0,0.5,0.2c0.2,0.2,0,0.5-0.2,0.5h-0.2h0.2l0,0h-0.2l-1,0.5
			c-0.2,0-0.3,0-0.3-0.2s0-0.3,0.2-0.3l1-0.6l0,0l0,0v0.2L627.8,177.6L627.8,177.6z M617.3,185.8c0.2,0,0.3,0.3,0.2,0.5
			c0,0.2-0.3,0.3-0.5,0.2l-0.9-0.5l-0.3-0.9c0-0.6,0.5-1.3,1.2-2.1c1-1,2.4-1.8,3.9-2.7l2.2-1.2l3.1-1.7l1-0.5
			c0.3-0.2,0.3-0.2,0.9-0.2l0.3,0.2c0,0.2,0,0.3,0,0.5l-0.2,0.2l-1.3,0.9l-3.3,1.7l-2.2,1c-1.5,0.9-2.8,1.5-3.9,2.4
			c-0.6,0.5-1,1-1,1.3l0.2,0.3L617.3,185.8z"/>
		<path class="st0" d="M614.5,187c-0.2-0.2-0.2-0.3,0-0.5s0.3-0.2,0.5,0c1,0.6,1.5,2.1,2.1,3.3l0.3,2.8l0.2,2.1l0.2,0.6
			c0,0.2,0,0.2,0,0.3v0.2c0.2,0.2,0.2,0.3,0,0.3l0,0h-0.6c-0.2,0-0.2-0.2-0.2-0.2l-0.5-1l-0.2-2.2L616,190
			C615.4,188.8,614.9,187.5,614.5,187"/>
		<path class="st0" d="M568.3,155.4c-0.3,0.2-0.5,0-0.6-0.3c-0.2-0.3,0-0.5,0.3-0.6l93.9-34.9c0.3-0.2,0.5,0,0.6,0.3
			c0.2,0.3,0,0.5-0.3,0.6L568.3,155.4z"/>
		<path class="st0" d="M660.4,120.9c-0.2,0-0.3-0.2-0.3-0.3c0-0.1,0.2-0.3,0.3-0.3l2.4-1.2l2.4-1l0.3-0.2c0.2,0,0.2-0.2,0.5,0v0.3
			l-0.2,0.2l-0.3,0.2c-0.2,0-0.3,0-0.3-0.2s0-0.3,0.2-0.3l0.3-0.2l0,0v0.2v0.2l0.2,0.2h0.2l0,0h-0.2l-0.3,0.2l-2.2,1.2
			C661.9,120.2,661.1,120.9,660.4,120.9"/>
		<path class="st0" d="M668,130.2c0.2,0,0.3,0.2,0.5,0.3c0,0.2-0.2,0.3-0.3,0.5c-0.2,0-0.3-0.2-0.5-0.3l0,0v0.2l-0.2-0.2
			c-0.2-0.2-0.2-0.3,0-0.3s0.2-0.2,0.3,0L668,130.2L668,130.2z M657.3,123.2c-0.2,0.2-0.3,0.2-0.5,0s-0.2-0.3,0-0.5
			c0,0,0.2-0.2,0.3-0.2h0.2h0.2h-0.3c0.3-0.2,0.5,0,0.9,0h0.2c1.5,0.9,4.2,2.4,6.4,3.9l2.7,2.2l0.9,0.6l0.6,0.5
			c0.3,0.3,0.5,0.9,0.2,1.2s-0.6,0.3-1,0.2l-0.6-0.5l-0.9-0.6l-2.5-2.2l-6-4.2l-0.2-0.2l-0.3-0.5l0.2,0.2l0,0l0,0L657.3,123.2
			L657.3,123.2z M657.3,122.7c0.2,0.2,0.2,0.3,0,0.5s-0.3,0.2-0.5,0c0,0,0,0,0-0.2v-0.2c0-0.2,0.2-0.3,0.3-0.3
			C657.1,122.6,657.3,122.7,657.3,122.7"/>
		<path class="st0" d="M657.4,127.4c0.2,0,0.3,0.2,0.3,0.3s-0.2,0.3-0.3,0.3c-2.2,0-3.7-1.5-5.5-0.9c-0.2,0-0.3,0-0.3-0.2
			s0-0.3,0.2-0.3c1.2-0.3,2.2-0.2,3,0.2C655.8,127.1,656.5,127.4,657.4,127.4"/>
		<path class="st0" d="M667,123.8c0.2-0.2,0.5-0.2,0.6,0.2c0.2,0.2,0.2,0.5-0.2,0.6c-0.2,0.2-0.5,0.2-0.6-0.2v-0.2v0.2l0,0h0.2
			l-0.9,0.2c-0.2,0-0.3,0-0.3-0.2s0-0.3,0.2-0.3L667,123.8L667,123.8z M662.3,126.6c0.2,0,0.3,0.3,0.3,0.5s-0.2,0.3-0.5,0.3
			l-0.3-0.2v-0.4l0.3-0.3c0.6-0.5,1.7-1,2.7-1.5l1.8-0.9c0,0,0,0,0.2,0l0.3-0.2h0.2c0.2,0,0.3,0,0.5,0.2c0.2,0.3,0,0.5,0,0.5
			l-0.3,0.3c0,0,0,0-0.2,0l-2.1,0.9c-1,0.3-2.1,0.9-2.5,1.2l-0.2,0.2l0,0V127L662.3,126.6L662.3,126.6z"/>
		<path class="st0" d="M650.1,124.7c-0.2-0.2-0.3-0.5-0.2-0.6c0.2-0.2,0.5-0.3,0.6-0.2l22.1,16.2c0.2,0.2,0.3,0.5,0.2,0.6
			c-0.2,0.2-0.5,0.3-0.6,0.2L650.1,124.7z"/>
		<path class="st0" d="M665.1,135.8c-0.2-0.3,0-0.5,0.2-0.6c0.3-0.2,0.5,0,0.6,0.2l7.9,17.3c0.2,0.3,0,0.5-0.2,0.6
			c-0.3,0.2-0.5,0-0.6-0.2L665.1,135.8z"/>
		<path class="st0" d="M670.7,133.8c0.2-0.2,0.5-0.2,0.6,0s0.2,0.5,0,0.6c-0.2,0.2-0.5,0.2-0.6,0c0,0,0,0,0-0.2v0.2h0.2l0,0h-0.3
			c-0.2,0-0.3-0.2-0.3-0.2c0-0.2,0-0.2,0.2-0.3L670.7,133.8z M665.6,136.9c-0.2-0.2-0.3-0.3-0.2-0.5c0-0.2,0.2-0.2,0.3-0.2h-0.1l0,0
			l0.3-0.2l1-0.3l2.2-1.2l1.5-0.9c0.2-0.2,0.2-0.2,0.3-0.2l0,0c0.2,0,0.5,0.2,0.5,0.3v0.2c0,0.2-0.2,0.2-0.2,0.3l-1.7,0.9l-2.4,1
			l-1,0.3l-0.3,0.2h-0.2L665.6,136.9L665.6,136.9z"/>
		<path class="st0" d="M660.4,142c0.2,0.2,0.2,0.3,0,0.5s-0.3,0.2-0.5,0c0,0-0.2-0.2-0.2-0.3l0,0l-0.6-0.9c-0.2-0.2,0-0.3,0-0.3
			c0.2-0.2,0.3,0,0.3,0L660.4,142z M639.5,131.3c0.2,0.2,0,0.5-0.2,0.5c-0.2,0.2-0.3,0-0.5-0.2l-0.2-0.3c0-0.2-0.2-0.3,0-0.5
			c0.3-0.3,0.6-0.2,0.9-0.2l2.2,1l7.3,4.2c2.7,1.7,5.5,3,7.7,4.2l2.7,1.2l0.9,0.3c0.2,0.2,0.3,0.3,0.5,0.5v0.5c0,0,0,0.2-0.2,0.2
			l-0.3,0.3c-0.2,0.2-0.5,0.2-0.6,0l-0.9-0.3l-2.7-1.3c-2.2-1.2-5.1-2.5-7.7-4.3l-7-4.3l-2.1-1H639h0.2L639.5,131.3L639.5,131.3
			L639.5,131.3L639.5,131.3z"/>
		<path class="st0" d="M653.1,137.2c0.2-0.2,0.3-0.2,0.5,0s0.2,0.3,0,0.5l0,0l0,0v0.3v1.3l0.5,3.9l0.6,4l0.3,2.2
			c0,0.2-0.2,0.3-0.3,0.3c-0.2,0-0.3-0.2-0.3-0.3l-0.3-2.1l-0.6-4l-0.5-3.9l-0.2-1.3C652.9,137.7,652.8,137.5,653.1,137.2"/>
		<path class="st0" d="M662.6,139c-0.2-0.2-0.2-0.5,0.2-0.6c0.2-0.2,0.5-0.2,0.6,0.2c0.2,0.2,0.2,0.5-0.2,0.6
			c-0.2,0.2-0.3,0.2-0.5,0h0.2h0.2l-0.6,0.2c-0.2,0-0.3,0-0.3-0.2s0-0.2,0.2-0.3l0.5-0.3v0.2v0.2L662.6,139L662.6,139z M656.2,140.6
			c-0.2,0-0.5,0-0.5-0.3c0-0.2,0-0.3,0.2-0.5c1.2-0.5,2.8-1,4.3-1.3l1.5-0.3l1.3-0.2c0.2,0,0.5,0.2,0.5,0.3v0.2c0,0.2,0,0.3,0,0.5
			l0,0c-0.2,0.2-0.3,0.3-0.6,0.2l0,0l-1,0.2l-1.5,0.2L656.2,140.6z"/>
		<path class="st0" d="M614.8,154.4c0.2-0.2,0.5-0.2,0.6,0.2c0.2,0.2,0.2,0.5-0.2,0.6c0,0-0.2,0-0.2,0.2l-1-0.2
			c-0.3-0.2-0.9-0.5-1-1c0-0.2,0-0.3,0.2-0.3s0.3,0,0.3,0c0.2,0.3,0.5,0.5,0.9,0.5H614.8L614.8,154.4L614.8,154.4z M592.3,148.1
			c0,0.2-0.3,0.3-0.5,0.3s-0.3-0.2-0.3-0.3c0-0.6,0.3-1.2,0.9-1.5s1.3-0.3,2.1-0.2c1.2,0.3,2.5,1,4.2,1.8l5.4,2.7l4.2,1.7l3.3,1
			l2.1,0.5h0.6h0.6c0.3,0,0.5,0.2,0.6,0.5l0.2,0.3v0.2l-0.2,0.3c-0.2,0.2-0.5,0.3-0.6,0.3h-0.5h-1l-2.4-0.5l-3.3-1l-4.3-1.8
			l-5.4-2.8c-1.5-0.9-3-1.7-3.9-2.1c-0.6-0.2-1-0.2-1.3-0.2C592.4,147.3,592.3,147.5,592.3,148.1"/>
		<path class="st0" d="M606.7,152.6c-0.2,0.2-0.5,0-0.5-0.2v-0.2v-0.3l0.2-0.2l0.9-0.5l4.5-2.5l3.9-1.8l1.7-0.6h0.2h0.3
			c0.2,0,0.3,0,0.6,0.3c0.2,0.2,0,0.5,0,0.6l-0.2,0.2l-0.2,0.2l-2.4,1.3c-0.2,0-0.3,0-0.3-0.2s0-0.3,0-0.3l1.8-1.5l0,0v0.2v0.2
			l0.2,0.2l0.2,0.2h0.2l0,0l-0.3,0.2h-0.2l-1.7,0.6l-3.9,1.7l-4.6,2.4L606.7,152.6L606.7,152.6L606.7,152.6z M606.7,151.7
			c0.2,0,0.3,0,0.5,0.3c0,0.2,0,0.3-0.2,0.5h-0.2c-0.2,0.2-0.5,0-0.5-0.2c-0.2-0.2,0-0.5,0.2-0.5c0.2-0.2,0.5,0,0.5,0.2l0,0
			l-0.2-0.2L606.7,151.7L606.7,151.7L606.7,151.7z"/>
		<path class="st0" d="M614.8,160.9c0.2,0.3,0,0.6-0.2,0.6c-0.3,0.2-0.6,0-0.6-0.2c-0.2-0.3,0-0.6,0.2-0.6
			C614,160.6,614.5,160.6,614.8,160.9l-0.3-0.2h-0.2H614l0,0c0.2-0.2,0.3-0.2,0.3,0C614.6,160.8,614.8,160.8,614.8,160.9
			L614.8,160.9L614.8,160.9z M608.2,153.7c0,0.2-0.3,0.3-0.5,0.3s-0.3-0.2-0.3-0.3v-0.2l0.2-0.3c0.3-0.2,0.5,0,0.5,0l0.3,0.5l1,1.3
			c0.9,1.3,2.1,2.4,3,3.6l1.2,1.5l0.5,0.5l0,0h-0.2c0.3,0,0.6,0.3,0.6,0.9c0,0.3-0.3,0.6-0.9,0.6c-0.3,0-0.5-0.3-0.6-0.5l-0.5-0.6
			l-1.2-1.5c-0.9-1-2.2-2.4-3-3.7l-0.9-1.5l-0.2-0.3l0,0h0.2h0.2L608.2,153.7L608.2,153.7L608.2,153.7z M614.8,161.2
			c0,0.3-0.3,0.6-0.6,0.6s-0.6-0.3-0.6-0.6s0.3-0.6,0.6-0.6C614.5,160.6,614.8,160.9,614.8,161.2"/>
		<path class="st0" d="M568.3,117.2c-0.3,0.2-0.5,0-0.6-0.3s0-0.5,0.3-0.6l76.9-32.5c0.3-0.2,0.5,0,0.6,0.3c0.2,0.3,0,0.5-0.3,0.6
			L568.3,117.2z"/>
		<path class="st0" d="M622.8,93.5c-0.2,0.2-0.3,0.3-0.6,0.2c0,0,0,0-0.2,0l-0.2-0.3v-0.2l0.3-0.6l1.5-2.1c1.2-1.8,2.5-5.1,3.7-7.6
			l1.7-3l0.9-1.7l0.5-1l0.3-0.6l0.2-0.2v0.2c0.2-0.3,0.5-0.6,1-0.5c0.3,0.2,0.6,0.5,0.5,1c0,0.2-0.2,0.3-0.3,0.3l0,0l-0.2,0.2
			l-0.3,0.5l-0.5,0.9l-1,1.8l-1.7,3c-1.3,2.5-2.7,5.7-4,7.6l-1.5,2.1v0H622.8z M622.2,92.8c0.2-0.2,0.5,0,0.5,0.2
			c0.2,0.2,0,0.3,0,0.5l0,0l0,0c-0.2,0.2-0.5,0.2-0.5,0c-0.2-0.2-0.2-0.5,0-0.5c0.2-0.2,0.3-0.2,0.5,0L622.2,92.8L622.2,92.8
			L622.2,92.8z M632.7,76.4c0,0.5-0.3,0.9-0.9,0.9s-0.9-0.3-0.9-0.9s0.3-0.9,0.9-0.9C632.4,75.8,632.7,76.1,632.7,76.4"/>
		<path class="st0" d="M650.7,92.3c0.2,0.2,0.3,0.5,0.2,0.6c-0.2,0.2-0.5,0.3-0.6,0.2s-0.3-0.5-0.2-0.6
			C650.2,92.2,650.4,92.2,650.7,92.3l-0.3-0.2h-0.2C650.4,92.2,650.6,92.2,650.7,92.3L650.7,92.3L650.7,92.3z M633.1,91.5
			c-0.2,0-0.3-0.3-0.3-0.5s0.2-0.3,0.3-0.3l2.8-0.2l4.2-0.3c2.2-0.2,4,0.3,5.8,0.9l2.7,0.6l1,0.3h0.3l0,0c0.5-0.2,0.9,0,1,0.5
			c0.2,0.5,0,0.9-0.5,1h-0.2h-0.3l-0.4-0.1l-1-0.3l-2.7-0.9c-1.7-0.5-3.3-1-5.4-0.9h-4.2L633.1,91.5z M651,92.8
			c0,0.5-0.3,0.9-0.9,0.9s-0.9-0.3-0.9-0.9s0.3-0.9,0.9-0.9S651,92.5,651,92.8"/>
		<path class="st0" d="M642.4,127.6c-0.2,0.2-0.3,0.2-0.5,0s-0.2-0.3,0-0.5l1.2-2.1l2.2-3.7l1.8-2.5c1.5-2.1,2.7-3.3,4-4.9l3.9-4.5
			l2.2-3.1l0.6-1l0.9-1.2l0.2-0.2l0,0l0,0v0.2c0-0.2,0.2-0.5,0.2-0.5l0,0l-0.2,0.2v0.3v0.3l0.2,0.2h0.2l-1.3,0.3
			c-0.2,0-0.3,0-0.3-0.2s0-0.3,0.2-0.3l1.3-0.9l0.3-0.2h0.3l0.6,0.3c0.2,0.2,0.2,0.3,0.2,0.6c0,0.5-0.3,0.9-0.5,1l-1,1.2l-0.6,0.9
			l-2.4,3.1l-4,4.5c-1.3,1.5-2.7,2.7-4,4.5l-1.7,2.5l-2.4,3.6L642.4,127.6z"/>
		<path class="st0" d="M635,112.9c0.3-0.2,0.6-0.2,0.9,0.2s0.2,0.6-0.2,0.9c-0.4,0.2-0.6,0.2-0.9-0.2c-0.2-0.2-0.2-0.3,0-0.5v0.2
			v0.2l0,0v0.2l-1-0.3c-0.2,0-0.2-0.2-0.2-0.3c0-0.1,0.2-0.2,0.2-0.2h1.2V112.9L635,112.9L635,112.9L635,112.9z M600.3,105.5
			c0.2,0,0.5,0,0.5,0.3c0,0.2,0,0.3-0.2,0.5l0,0l0,0v-0.2l-0.2-0.2h-0.2l0,0l1,0.2l3.6,0.3l3.6,0.6l2.5,0.6l4.3,0.6
			c2.4,0.3,4.3,0.9,6.2,1.3l5.1,1.8c1.7,0.6,3.3,1.2,4.9,1.3h2.5h1c0.2,0,0.2,0,0.3,0l0.3,0.2l0,0c0.2,0.2,0.2,0.3,0.2,0.5v0.3
			c-0.2,0.3-0.3,0.5-0.5,0.5s-0.2,0-0.3,0h-1.2l-2.7-0.2c-1.7-0.3-3.6-0.9-5.2-1.5c-3-1.2-6.4-2.5-10.9-3.1l-4.5-0.6l-2.5-0.6
			l-3.3-0.9l-3.6-0.5l-1.2-0.3l-0.2-0.2l-0.2-0.5l0.6-0.3L600.3,105.5z"/>
		<path class="st0" d="M631.3,113.1c0.2,0,0.5,0,0.5,0.2s0,0.5-0.2,0.5h-0.5l-0.3-0.3v-0.3l0.5-0.9l1.8-1.5l3.1-2.2l4.9-3l2.5-1.5
			l3-1.5l2.5-1.3l1-0.5c0,0,0.2-0.2,0.3-0.2l-0.2,0.2L650,101v0.2h-0.2c-0.2,0-0.2-0.2-0.2-0.3s0.2-0.2,0.2-0.2h0.5l0.3,0.3v0.6
			c0,0.2-0.2,0.2-0.2,0.3l-1.2,0.6l-2.5,1.3l-2.8,1.5l-2.5,1.5l-4.9,3l-3.1,2.1l-1.8,1.3l-0.3,0.5l0,0v-0.2V113.1L631.3,113.1
			L631.3,113.1L631.3,113.1z"/>
		<path class="st0" d="M644.2,115.6c-0.2-0.2,0-0.5,0.2-0.6s0.5,0,0.6,0.2s0,0.5-0.2,0.6C644.7,115.7,644.4,115.7,644.2,115.6
			l0.2,0.2l0,0l0,0C644.2,115.7,644,115.6,644.2,115.6c0-0.2,0-0.2,0-0.2V115.6L644.2,115.6L644.2,115.6z M633.1,115.2
			c0.2-0.2,0.3-0.3,0.5-0.2c0.2,0,0.3,0.3,0.2,0.5v-0.2l0,0h0.9l3.3-0.3l3.9-0.5h1.3h1h0.3c0.2,0,0.3,0,0.5,0.3s0,0.6-0.3,0.9
			s-0.6,0-0.9-0.3l0,0l0.2,0.2l0.2,0.2l0,0H644h-1h-1.2l-3.9,0.3l-3.6,0.3l-1.2-0.2l-0.5-0.3L633.1,115.2z M645.2,115.2
			c0,0.3-0.3,0.6-0.6,0.6s-0.6-0.3-0.6-0.6s0.3-0.6,0.6-0.6C645,114.6,645.2,114.9,645.2,115.2"/>
		<path class="st0" d="M569.9,135.3c-0.2,0-0.5,0-0.5-0.2s0-0.3,0.2-0.5l2.1-1c1.7-0.9,4.3-1.7,7-2.7l4-1.7l1.7-0.6l0.9-0.3
			c0.3-0.2,0.6,0.2,0.6,0.3c0,0.3,0,0.5-0.3,0.6l-0.6,0.3l-1.7,0.9l-4.2,1.7l-7,2.4L569.9,135.3z"/>
		<path class="st0" d="M590.9,118.6c-0.2-0.2,0-0.5,0.2-0.5c0.2-0.2,0.5,0,0.5,0.2v0.2l-0.2,0.6l-0.6,1.2c0,0.2-0.2,0.2-0.3,0.2
			s-0.2-0.2-0.2-0.3l0.5-1.2L590.9,118.6L590.9,118.6L590.9,118.6z M579.3,130.9c-0.2-0.2-0.3-0.3-0.2-0.6l0,0l0,0l0.2-0.2l1.7-1.8
			l3.6-3.1c1.7-1.7,2.8-3.3,3.9-4.9l1.5-1.8l0.5-0.5l0.3-0.2c0.2,0,0.3-0.2,0.6,0s0.5,0.5,0.3,1c0.2,0.2-0.2,0.3-0.5,0.3h0.2h0.2
			l0,0l-0.3,0.3l-1.3,1.7c-1,1.5-2.4,3.1-4.3,5.1l-3.7,3l-1.7,1.7l-0.2,0.2h-0.2C579.6,130.9,579.6,131.1,579.3,130.9 M579.4,129.9
			c0.2-0.2,0.3-0.2,0.5-0.2c0.2,0.2,0.2,0.3,0.2,0.5l-0.2,0.3l0,0v-0.2v-0.2l-0.2-0.2c0.2,0.2,0.2,0.5,0,0.6s-0.5,0.2-0.6,0
			s-0.2-0.3,0-0.5v-0.2L579.4,129.9z"/>
		<path class="st0" d="M581.4,130.9c-0.2,0-0.3-0.2-0.3-0.5c0-0.2,0.2-0.3,0.3-0.3c1.3,0,3.3,0.3,5.5,0.9c1.7,0.5,3,1.2,4,1.7
			l1.2,0.6l0.9,0.3h0.2l0,0H593l0.2-0.2l-0.2,0.2v-0.5c0-0.2,0-0.3,0.2-0.3s0.2,0,0.3,0.2l0.3,0.5l0.2,0.5v0.2
			c-0.2,0.2-0.3,0.5-0.6,0.5h-0.6l-1.2-0.3l-1.3-0.6c-1-0.6-2.2-1.2-3.7-1.7C584.7,131.7,582.6,131.1,581.4,130.9"/>
		<path class="st0" d="M601.4,123.1c0.2-0.2,0.3-0.2,0.5-0.2c0.2,0.2,0.2,0.3,0.2,0.5c-0.2,0.2-0.3,0.2-0.5,0.2c0,0-0.2,0-0.2-0.2
			l0.2,0.2l0,0h-0.3c-0.2,0-0.3-0.2-0.3-0.2c0-0.2,0-0.2,0.2-0.3H601.4L601.4,123.1L601.4,123.1L601.4,123.1z M587.5,130.2
			c-0.2-0.2-0.2-0.3,0-0.5s0.3-0.2,0.5,0l0.3,0.2l0.6-0.2l2.4-1.3l3.1-1.8l3.6-2.2l0.9-0.6l1-0.6l1.3-0.3h0.2h0.2
			c0.2,0,0.2,0.2,0.2,0.3v0.2l-0.2,0.2l-1,0.6l-0.9,0.6l-0.9,0.6l-3.7,2.2l-3.3,1.8l-2.7,1.2l-0.9,0.2
			C588,130.8,587.6,130.6,587.5,130.2"/>
		<path class="st0" d="M606.4,128c0.3,0,0.6,0.2,0.6,0.5s-0.2,0.6-0.5,0.6s-0.6-0.2-0.6-0.5c0-0.2,0-0.3,0-0.3v0.2v0.2v0.2l-0.9-0.3
			c-0.2,0-0.2-0.2-0.2-0.3s0.2-0.2,0.3-0.2L606.4,128L606.4,128L606.4,128z M596.3,127.6c0.2,0,0.5,0,0.5,0.2s0,0.3-0.2,0.5l0,0l0,0
			v-0.2v-0.2v-0.2L596.3,127.6L596.3,127.6h0.3l1.2-0.2c1.3-0.2,2.7-0.3,4-0.2l2.7,0.5l1.7,0.2c0.2,0,0.3,0,0.3,0h0.2
			c0.2,0.2,0.3,0.3,0.3,0.5v0.3c0,0.2-0.2,0.2-0.2,0.3c-0.3,0.3-0.6,0.2-1,0.2h-1.3l-2.8-0.5c-1.2-0.2-2.4-0.2-3.7-0.2l-1.3-0.2
			c-0.2,0-0.3,0-0.5-0.3c-0.2-0.2,0-0.5,0.2-0.6L596.3,127.6z"/>
		<path class="st0" d="M615.8,118.3c0.2-0.2,0.5-0.2,0.6,0c0.2,0.2,0.2,0.5,0,0.6s-0.5,0.2-0.6,0c0,0,0,0-0.2-0.2l0,0l0.2,0.2l0,0
			h0.2c-0.5,0.2-1.3,0.6-1.7,1c-0.2,0.2-0.3,0.2-0.3,0c-0.2,0-0.2-0.2,0-0.3C614.2,119,615.1,118.4,615.8,118.3L615.8,118.3
			L615.8,118.3L615.8,118.3z M603,127.1c0.2-0.2,0.3-0.2,0.5,0s0.2,0.3,0,0.5l-0.2,0.3l0,0v-0.2v-0.2l-0.2-0.2l-0.2-0.2h-0.2l0,0
			l2.1-1.3c1.8-1.5,4.2-3.9,6.7-5.7l3.3-2.1l0.6-0.3c0,0,0.2,0,0.2-0.2h0.2l0,0c0.3,0,0.5,0.2,0.6,0.3l0,0c0.2,0.3,0,0.5-0.2,0.6
			l-0.2,0.2l-0.6,0.5l-3.3,2.1c-2.5,1.7-4.9,3.9-6.9,5.4c-1,0.6-1.7,1.2-2.4,1.3h-0.3l-0.3-0.2v-0.5L603,127.1z"/>
		<path class="st0" d="M612.4,125.1c-0.2,0-0.5,0-0.5-0.2s0-0.3,0.2-0.5c0.6-0.5,1.8-0.5,3-0.6l2.4,0.2l2.8,0.3c0.9,0,1.5,0,2.4-0.3
			l1.7-0.3c0.2,0,0.3,0,0.3,0.2s0,0.2-0.2,0.3l-1.5,1c-1,0.3-2.1,0.5-2.8,0.5l-3-0.2l-2.1-0.2L612.4,125.1z"/>
		<path class="st0" d="M568.4,166.9c0-0.2,0.3-0.3,0.5-0.2c0.2,0,0.3,0.2,0.3,0.3v-0.2l-0.2-0.2h-0.2h0.2l1-0.3l3.9-1.7l5.4-2.5
			l3-1.3l5.5-2.2l3.1-1.3l1.2-0.2c0.2,0,0.5,0.2,0.6,0.5l-0.2,0.5l-0.2,0.2l-1.2,0.6l-1.2,0.5c-0.2,0-0.3-0.2-0.3-0.2
			c0-0.2,0-0.2,0.2-0.3c0.9-0.3,2.1-1,2.1-1.2v0.2v0.2l0.2,0.2l0.2,0.2h0.2l0,0l-0.6,0.3l-3.3,1.2l-5.5,2.1l-3.1,1.3l-5.5,2.4
			l-4,1.5l-1,0.3H569C568.4,167.5,568.4,167,568.4,166.9"/>
		<path class="st0" d="M590.6,168.6c0-0.3,0.3-0.5,0.5-0.3c0.3,0,0.5,0.3,0.3,0.5c0,0.3-0.3,0.5-0.5,0.3c-0.2,0-0.3-0.2-0.3-0.3l0,0
			v0.2h-0.2C590.5,168.8,590.5,168.6,590.6,168.6c0-0.2,0-0.2,0-0.2h0.2l0,0l0,0L590.6,168.6L590.6,168.6z M578.4,165.2
			c-0.2-0.2-0.3-0.3-0.2-0.5l0.2-0.3l0.3-0.2l1-0.2h1.5c1,0.2,1.3,0.9,1.8,1c1,0.6,3.1,0.6,5.2,1.2c1,0.2,1.8,0.6,2.5,1l0.9,0.5
			l0.3,0.3c0.2,0.2,0.3,0.3,0.2,0.9c-0.3,0.3-0.6,0.5-1,0.3c-0.2,0-0.3-0.2-0.5-0.5l0.2,0.2l0.2,0.2l0,0l0,0l-0.9-0.3l-2.2-0.9
			c-1.8-0.5-4.2-0.5-5.7-1.5l-1.2-0.9h-1.2l-0.9-0.2h-0.5V165.2z M578.7,164.6c0.2,0.2,0.2,0.3,0,0.5c0,0-0.2,0-0.2,0.2l0,0
			c-0.2,0-0.5,0-0.5-0.2s0-0.5,0.2-0.5C578.6,164.5,578.7,164.5,578.7,164.6s0.2,0.2,0.2,0.2L578.7,164.6L578.7,164.6z"/>
		<path class="st0" d="M585.3,164.9c0-0.2,0.2-0.3,0.5-0.3c0.2,0,0.3,0.2,0.3,0.5l0,0v0.5l0.2,0.3h0.2l0.5-0.2l1.5-0.6l1.8-1
			l2.2-1.3l4.3-1.7c0.2,0,0.3,0,0.3,0.2s0,0.3-0.2,0.3c-1.8,0.9-3,1.7-3.9,2.4l-2.4,1.3l-2.1,1l-1.7,0.5h-0.6l-0.6-0.3
			c-0.2-0.2-0.3-0.5-0.3-0.9V164.9z"/>
		<path class="st0" d="M597.2,59.5c0.2-0.2,0.3-0.3,0.5-0.2c0.2,0.2,0.3,0.3,0.2,0.5c0,0.2-0.2,0.2-0.3,0.2l-0.6,0.5
			c-0.2,0-0.3,0-0.3-0.2s0-0.3,0-0.3L597.2,59.5z M570.2,74.6c-0.2,0-0.3,0-0.5-0.3c0-0.2,0-0.3,0.2-0.5l2.2-1l1.3-0.3
			c0.6-0.2,1.5-0.9,2.4-1.5l4-2.4l7.3-4.2l3.6-1.8l1.7-0.6c0.6-0.3,1.5-1,2.4-1.5l1.3-1l1-0.5h0.2h0.2c0.3-0.2,0.9,0,1,0.3
			c0.2,0.3,0,0.9-0.3,1l0,0l0,0H598l-1,0.9l-1.3,0.9c-0.6,0.5-1.5,1.2-2.7,1.7l-1.7,0.6l-3.6,1.7l-7.3,4l-3.9,2.4
			c-0.9,0.5-1.8,1.2-2.7,1.5l-1.2,0.2L570.2,74.6z M598.4,59.7c0,0.3-0.3,0.6-0.6,0.6s-0.6-0.3-0.6-0.6s0.3-0.6,0.6-0.6
			S598.4,59.4,598.4,59.7"/>
		<path class="st0" d="M601.4,72.4c0-0.3,0.3-0.3,0.6-0.3s0.3,0.3,0.3,0.6c0,0,0,0.2-0.2,0.2c-0.2,0.2-0.5,0.2-0.6,0.3h-0.6
			l-1.2-0.2c-0.2,0-0.2-0.2-0.2-0.3c0-0.2,0.2-0.2,0.3-0.2h1.2L601.4,72.4L601.4,72.4L601.4,72.4L601.4,72.4z M585,66.9
			c0,0.2,0,0.5-0.3,0.5c-0.2,0-0.3,0-0.5-0.2l-0.2-0.3v-0.3l0.3-0.3h0.3l1.3,0.5l4.3,1.3l2.5,0.9l6,1.5l2.2,0.6
			c0.5,0.2,0.9,0.3,1.2,0.6c0.2,0.2,0.2,0.3,0.2,0.5s0,0.5-0.3,0.6l0,0h-0.2h-0.3c-0.2,0-0.3-0.2-0.5-0.2l-0.6-0.3l-2.1-0.6l-6-1.7
			l-2.2-0.9c-1.7-0.5-3.1-1-4.3-1.7l-1.2-0.5l0,0l0,0H585L585,66.9L585,66.9L585,66.9z"/>
		<path class="st0" d="M606.7,64.5c0-0.3,0.2-0.6,0.5-0.6s0.6,0.2,0.6,0.5s-0.2,0.6-0.5,0.6c-0.2,0-0.3,0-0.3-0.2h0.2h0.2l0,0
			l-0.3,0.2l-0.9,0.5c-0.2,0.2-0.3,0.2-0.3,0s-0.2-0.2,0-0.3L606.7,64.5l0.2-0.3l0,0l0,0L606.7,64.5L606.7,64.5z M597.5,70.3
			c-0.2-0.2-0.2-0.3-0.2-0.6c0,0,0-0.2,0.2-0.2h0.2l0.9-0.2c0.6-0.2,1.5-0.9,2.5-1.5l4.6-3l1.5-0.9c0.3-0.2,0.6,0,0.9,0.3
			c0.2,0.3,0,0.6-0.3,0.9l0,0l-1.3,0.6l-4.6,2.8c-1,0.5-2.1,1.2-2.8,1.5l-1,0.2L597.5,70.3z M598.1,69.5c0.2,0,0.3,0.2,0.3,0.3
			c0,0.2-0.2,0.3-0.3,0.3h-0.2l0,0h0.2c-0.2,0.2-0.5,0.2-0.6,0s-0.2-0.5,0-0.6C597.7,69.3,597.8,69.3,598.1,69.5l-0.3,0l0,0
			C597.8,69.5,598.1,69.5,598.1,69.5z M608.1,64.5c0,0.3-0.3,0.6-0.6,0.6s-0.6-0.3-0.6-0.6c0-0.3,0.3-0.6,0.6-0.6
			S608.1,64.2,608.1,64.5"/>
		<path class="st0" d="M568.6,92.9c0.2-0.2,0.5,0,0.5,0.2s0,0.3-0.2,0.5l0.2-0.2v-0.1v-0.2l0,0h0.2l0.9,0.2c0.9,0.2,2.1,0,3.9-0.6
			l6.4-2.2c3-1,6.2-2.1,9.5-2.8l11.5-2.7l4.5-1l1.3-0.4l0.2-0.2l0,0l0,0l0,0v0.2V84c-0.2-0.3,0-0.9,0.5-0.9c0.3-0.2,0.9,0,0.9,0.3
			c0.2,0.3,0,0.6-0.2,0.9c-0.3,0.3-0.5,0.3-0.9,0.5l-1.7,0.5l-4.5,1l-11.5,2.8c-3.3,0.9-6.5,1.7-9.4,2.7l-6.5,2.2
			c-2.1,0.5-3.3,0.6-4.3,0.5l-1.2-0.5l-0.3-0.3v-0.3L568.6,92.9z"/>
		<path class="st0" d="M616.4,70.6c-0.2-0.2,0-0.3,0.2-0.5s0.3,0,0.5,0.2c0,0,0,0,0,0.2c0,0.3,0,0.3-0.2,0.6l-0.6,1.2
			c0,0.2-0.2,0.2-0.3,0.2c-0.2,0-0.2-0.2-0.2-0.3l0.5-1.2L616.4,70.6L616.4,70.6L616.4,70.6L616.4,70.6z M600.9,86.1
			c-0.2,0-0.3-0.2-0.3-0.3v-0.2l0.2-0.2l0.3-0.3l1.2-1l3.9-3.6l3-2.8c1.8-1.7,3.1-3.3,4.3-4.6l2.1-2.5l0.5-0.5
			c0.2-0.2,0.2-0.3,0.5-0.3s0.6,0.2,0.9,0.5c0,0.3-0.2,0.6-0.5,0.9h0.2l-0.5,0.5l-2.1,2.4c-1.2,1.5-2.7,3-4.5,4.6l-3.1,2.8l-4,3.6
			l-1.2,1l-0.3,0.2l0,0H601v-0.2H600.9z M600.6,85.5c0.2-0.2,0.5,0,0.5,0.2s0,0.2,0,0.3v-0.2c0,0.2-0.2,0.3-0.5,0.3
			c-0.2,0-0.3-0.2-0.3-0.5C600.5,85.6,600.6,85.5,600.6,85.5L600.6,85.5z"/>
		<path class="st0" d="M606.9,86.2c-0.2,0-0.3-0.3-0.3-0.5s0.3-0.3,0.5-0.3c0.6,0.2,2.2-0.3,4-1l3.9-1.2l5.2-2.1l2.5-0.9
			c0.3-0.2,0.6-0.2,1,0c0.2,0.2,0.3,0.5,0.2,0.6l-0.2,0.3l-1.2,1c-0.2,0.2-0.3,0.2-0.3,0c-0.2-0.2-0.2-0.2,0-0.3l0.9-1V81l0.2,0.2
			l0.2,0.2h0.2l-0.3,0.2l-2.5,0.9l-5.2,2.1l-3.9,1.2C609.4,86.1,607.9,86.7,606.9,86.2"/>
		<path class="st0" d="M589,88.3c0.2-0.2,0.3-0.3,0.5-0.2c0.2,0,0.2,0.2,0.2,0.3l0.2,1l1.5,3.9l1.7,3.7l1,1.8c0,0,0,0,0,0.2v0.2l0,0
			l0,0H594h-0.3h-0.3l0.2-0.2l0,0l0,0l-0.5-2.8c0-0.2,0-0.3,0.2-0.3s0.3,0,0.3,0.2l1,2.8v0.3c0,0.2,0.2,0.2-0.2,0.5
			c-0.2,0.3-0.6,0.3-0.9,0.3l-0.5-0.3c0,0,0,0-0.2-0.2l-1-1.8l-1.7-3.9c-0.6-1.5-1-3-1.3-4.2C588.8,89.1,588.8,88.6,589,88.3"/>
		<path class="st0" d="M590.5,88.8c0,0.2,0,0.5-0.2,0.5s-0.3,0-0.5-0.2c-0.2-0.3,0-0.9,0.2-1.5l0.6-1.5l1.7-4l1.5-3l1.3-1.7
			c0,0,0.2,0,0.2-0.2c0.2-0.2,0.5-0.3,0.9,0c0.2,0.2,0.3,0.5,0.3,0.6V78l-0.6,1.2c0,0.2-0.2,0.2-0.3,0c-0.2,0-0.2-0.2-0.2-0.3
			l0.3-0.9v-0.2V78h0.2h0.2h0.2h0.2l0,0l-0.2,0.2c0,0,0,0.2-0.2,0.2l-1.2,1.3l-1.3,2.7l-1.8,4l-0.9,1.5L590.5,88.8z"/>
		<path class="st0" d="M582,91.1c0,0.2-0.2,0.3-0.5,0.3c-0.2,0-0.3-0.2-0.3-0.3c0-0.2-0.5-0.9-0.3-1.8c0-0.5,0.3-0.9,0.5-1.3l1.7-3
			l1.5-2.8l1.2-2.7l0.6-1.7l0.3-1l0.2-0.5c0.2-0.3,0.5-0.5,0.9-0.5c0.2,0,0.5,0.3,0.5,0.5v0.5L588,78l-0.6,1.7l-1.2,2.7l-2.1,3.3
			l-1.7,2.8l-0.5,1C581.7,90.1,582,90.6,582,91.1"/>
		<path class="st0" d="M541,250.8c0,0.2-0.2,0.3-0.5,0.3c-0.2,0-0.3-0.2-0.3-0.5c0-0.2,0.2-0.3,0.5-0.3c0,0,0,0,0.2,0h-0.2l0,0
			l0.5-0.3c0.2,0,0.3,0,0.3,0.2s0,0.3,0,0.3L541,250.8L541,250.8L541,250.8L541,250.8z M568.3,237.2c0,0.2-0.3,0.3-0.5,0.3
			s-0.3-0.2-0.3-0.3v0.2l0,0h-0.2H566c-1.2,0.2-2.5,0.6-4.3,1.5c-2.7,1.2-6.2,3-9.4,4.6l-3.1,1.7l-2.8,1.7l-1.3,1l-1.3,1.2l-0.9,0.6
			l-1.3,1l-0.5,0.3h-0.2h-0.4c-0.2,0-0.3-0.2-0.3-0.3c0-0.3,0-0.3,0.2-0.3l0.5-0.5l1.3-1l0.9-0.6l1.5-1.2l1.5-1l2.8-1.7l3.1-1.7
			c3.1-1.7,6.7-3.6,9.4-4.9c2.1-0.9,3.6-1.3,4.6-1.5h1.3l0.5,0.2l0.2,0.3L568.3,237.2z"/>
		<path class="st0" d="M544.6,248.1c-0.3-0.2-0.3-0.6-0.2-0.9s0.5-0.3,0.9-0.2c0.6,0.5,0.9,1.2,1,2.2l0.9,3.7l1.2,4.3l0.3,1l0.2,0.5
			l-0.2-0.2h-0.2h-0.2H548l0,0v0.2l0,0v-0.2v-0.9c0-0.6,0-1.3,0.3-1.8c0-0.2,0.2-0.2,0.3-0.2s0.2,0.2,0.2,0.3v1.7l0.2,0.9v0.3
			l-0.2,0.5v-0.2l-0.3,0.3h-0.3l-0.5-0.2l-0.5-0.6l-0.5-1.2l-1.2-4.5l-0.6-3.7l-0.3-1.2L544.6,248.1z"/>
		<path class="st0" d="M534.9,256.6c-0.2,0-0.3-0.3-0.2-0.5c0-0.2,0.3-0.3,0.5-0.2c0,0,0,0,0.2,0l0,0h0.3l1-0.5c0.2-0.2,0.3,0,0.3,0
			c0.2,0.2,0,0.3,0,0.3l-1.2,0.6C535.5,256.6,535.1,256.8,534.9,256.6 M543.3,252.9c0.2,0.2,0,0.5-0.2,0.5c-0.2,0.2-0.5,0-0.5-0.2
			l0,0c-0.2-0.5,0.2-1.2,0.2-1.8v-0.2V251l0.2,0.2l0,0h-0.2l-0.6,0.2c-0.5,0.2-0.9,0.6-1.5,1.2l-1.3,1.2l-2.1,1.5l-1.5,1
			c-0.2,0.3-0.5,0.3-0.9,0.2c-0.3-0.2-0.3-0.5-0.2-0.9l0.9-0.6l1-0.6l1.7-1.3l1.3-1.2c0.5-0.5,1-1.2,1.8-1.5l1.2-0.2l0.5,0.2
			c0.2,0,0.3,0.2,0.5,0.5v0.2l-0.2,0.6L543.3,252.9z M535.6,256.1c0,0.3-0.3,0.6-0.6,0.6s-0.6-0.3-0.6-0.6c0-0.3,0.3-0.6,0.6-0.6
			C535.3,255.6,535.6,255.7,535.6,256.1"/>
		<path class="st0" d="M548.5,256.8c0.2,0.2,0.2,0.3,0,0.5s-0.3,0.2-0.5,0c-0.2,0-0.2-0.2-0.2-0.3l0,0v-0.3v-0.5
			c-0.2-0.2-0.2-0.3,0-0.3c0.2-0.2,0.2-0.2,0.3,0C548.5,256,548.5,256.3,548.5,256.8l0.2,0.2L548.5,256.8L548.5,256.8z M547.8,256.9
			c0-0.2,0.2-0.3,0.5-0.3c0.2,0,0.3,0.2,0.3,0.5c0,0,0,0,0,0.2l-0.2,0.2c-0.2,0.2-0.3,0-0.5-0.2
			C547.8,257.1,547.8,257.1,547.8,256.9L547.8,256.9z"/>
		<path class="st0" d="M558.6,254.2c0.2,0,0.3,0.2,0.3,0.5c0,0.2-0.2,0.3-0.5,0.3c-0.2,0-0.3-0.2-0.3-0.3l0,0v-0.2v-0.3v-0.9
			c0-0.2,0.2-0.3,0.3-0.2c0.2,0,0.2,0.2,0.2,0.3V254.2l0.2,0.2l0,0L558.6,254.2L558.6,254.2z M553.7,244.2c-0.2-0.2,0-0.5,0.2-0.5
			c0.2-0.2,0.3,0,0.5,0.2c0.9,1.3,1.5,3.6,2.4,5.8l1.3,3l0.5,0.9l0.5,0.6c0.2,0.2,0.2,0.3,0.2,0.5l-0.2,0.3c0,0,0,0.2-0.2,0.2
			c-0.3,0.3-0.5,0.2-0.5,0.2c-0.2,0-0.3-0.2-0.5-0.2l-0.5-0.9l-0.5-1l-1.3-3.1C554.9,247.8,554.4,245.4,553.7,244.2"/>
		<path class="st0" d="M552.3,261.7c-0.2,0.2-0.6,0.2-0.9,0c-0.2-0.2-0.2-0.6,0-0.9s0.3-0.2,0.3-0.2h-0.2h-0.2l0,0
			c0.2-0.2,0.2-0.2,0.3-0.2h-0.2l0,0l1.2-1.2c0.2-0.2,0.3-0.2,0.3,0c0.2,0.2,0.2,0.2,0,0.3l-0.6,1.2l-0.2,0.3l0,0v-0.2
			C552.5,261.1,552.5,261.4,552.3,261.7L552.3,261.7z M558,252.9c0.2,0,0.3,0.3,0.2,0.5c0,0.2-0.3,0.3-0.5,0.2l-0.5,0.2l-0.9,0.9
			l-1.7,2.7l-1.7,2.8l-0.6,1l-0.2,0.2l0,0l0,0c0,0.3-0.3,0.5-0.6,0.5c-0.2,0-0.3-0.2-0.3-0.3c-0.2-0.3,0-0.5,0-0.5l0.2-0.3l0.5-1
			l1.7-2.8c0.6-1,1.3-2.1,2.1-2.8l1-0.9C557.2,252.9,557.7,252.7,558,252.9"/>
		<path class="st0" d="M565.6,263.3c0.3,0,0.5,0.3,0.3,0.5c0,0.3-0.3,0.5-0.5,0.3c-0.3,0-0.5-0.3-0.3-0.5c0-0.2,0.2-0.3,0.3-0.3
			h-0.1H565l0,0C565.3,263.2,565.4,263.2,565.6,263.3C565.6,263.2,565.7,263.3,565.6,263.3l0.2,0.2L565.6,263.3L565.6,263.3z
			 M558.3,254.2c0.2,0,0.3,0.3,0.2,0.5c0,0.2-0.2,0.3-0.5,0.3h-0.2l-0.2-0.2v-0.5l0.2-0.2l0.9-0.3c0.9,0,1.7,0.3,2.5,1.2
			c0.9,0.6,1.8,1.7,2.5,2.8c0.9,1.3,1.3,2.8,1.8,4l0.3,1.2l0.2,0.5v0.2l0,0c0.2,0.3,0,0.9-0.3,1c-0.3,0.2-0.6,0.2-1-0.2l-0.2-0.5
			l-0.2-0.5l-0.3-1.2c-0.3-1.2-0.9-2.5-1.5-3.7s-1.3-2.1-2.2-2.7c-0.6-0.6-1.3-1-1.7-1H558l0,0l0.2-0.2v-0.2L558.3,254.2
			L558.3,254.2z"/>
		<path class="st0" d="M565.4,229c-0.2,0.2-0.3,0.2-0.5,0.2c-0.2-0.2-0.2-0.3-0.2-0.5v0.2l0.2,0.2h0.2h-0.3l-1.8,0.3l-2.4,0.3
			l-3.6,0.5l-2.5,0.5l-6.4,1.3l-4.6,1l-4.2,1l-5.1,1.3c-2.1,0.6-3.9,1.3-5.2,2.1l-1.8,0.9l-0.3,0.3c0,0.2-0.2,0.3-0.3,0.3
			c-0.2,0-0.3-0.2-0.3-0.2c0-0.3,0-0.9,0.5-1l1.8-1c1.3-0.6,3.1-1.3,5.4-2.1l5.1-1.3l4.2-0.9l4.6-1l6.4-1.3l2.5-0.5l3.6-0.5l2.2-0.3
			l1.8-0.2h0.6l0.3,0.2C565.6,228.7,565.6,229,565.4,229"/>
		<path class="st0" d="M534.1,233.7c0.2,0,0.3,0.2,0.3,0.3c0,0.2-0.2,0.3-0.3,0.3l-0.5,0.2l-0.2,1l-0.3,4.5l-0.2,5.8v3.7v2.4v0.3
			l0,0l0,0V252l-0.2-0.2l-0.2-0.2h-0.2h-0.2l-0.2,0.2l0,0v-0.2c0-0.5,0.2-1.3,0-2.8c0-0.2,0.2-0.3,0.2-0.3c0.2,0,0.3,0,0.3,0.2
			l0.3,3v0.3v0.2c0,0,0,0.2-0.3,0.3c-0.3,0.2-0.5,0-0.6-0.2l-0.2-0.2l-0.2-0.5v-2.5v-3.7l0.3-5.8l0.5-4.5c0.2-0.5,0.2-1,0.5-1.3
			C533.1,233.8,533.6,233.7,534.1,233.7"/>
		<path class="st0" d="M531.6,244.1c0.2,0.2,0.2,0.3,0,0.5s-0.3,0.2-0.5,0h-0.2l-0.6,0.2l-2.1,1c-1.5,0.9-3.1,2.1-4.3,3l-1.5,1.2
			c-0.2,0.2-0.3,0.2-0.5,0c-0.2,0-0.2-0.2-0.2-0.3c0.2-0.5,0.6-1,1.5-1.7c1.3-1,3-2.2,4.5-3l2.2-1l0.9-0.2
			C531,243.9,531.3,243.9,531.6,244.1"/>
		<path class="st0" d="M508.3,243.9c0.2,0.2,0.2,0.3,0,0.5s-0.3,0.2-0.5,0s-0.2-0.3,0-0.5l0,0l0,0h0.2l0.3-0.2l1.5-0.5
			c0.2,0,0.3,0,0.3,0.2s0,0.3-0.2,0.3l-1.3,0.6l-0.3,0.2l0,0l0,0l0,0v-0.1V243.9z M530.3,237.2c0.2,0.2,0,0.5-0.2,0.5
			c-0.2,0.2-0.3,0-0.5-0.2s-0.5-0.5-1.3-0.5c-0.9,0-1.8,0-3,0.5c-1.5,0.5-3,1.3-4.9,2.2l-2.2,1l-4.3,2.1l-4.2,1.5l-1,0.2h-0.3h-0.2
			c0,0-0.3,0-0.3-0.3c0-0.2,0.2-0.3,0.3-0.3l0,0l0,0l0.2-0.2l1-0.3l4.2-1.5l4.3-2.2l2.2-1c1.7-0.9,3.3-1.8,5.1-2.4
			c1.3-0.3,2.5-0.5,3.6-0.3C529.2,236.2,529.9,236.5,530.3,237.2"/>
		<path class="st0" d="M520.7,240.9c0,0.2-0.3,0.3-0.5,0.3s-0.3-0.2-0.3-0.5v-0.5l0,0l0.2,0.2h0.2h0.2h0.2l0,0l-0.6,1.3
			c-0.6,1.3-1.3,3.3-1.7,4.9l-0.2,0.9v0.3c0,0.2,0,0.3,0,0.3v-0.2l-0.2-0.2l0,0c0.2,0,0.3,0.2,0.2,0.3v0.2l-0.2,0.2h-0.6
			c-0.2,0-0.2-0.2-0.3-0.3c-0.2-0.5,0-1.2,0.2-1.8c0.3-1.5,1.2-3.6,1.8-4.9c0.3-0.6,0.5-1.2,0.9-1.5c0,0,0.2-0.3,0.5-0.2
			c0.3,0.2,0.3,0.3,0.3,0.5v0.7H520.7z"/>
		<path class="st0" d="M541,241.6c0.2,0.2,0.2,0.5,0,0.6c-0.2,0.2-0.5,0.2-0.6,0c-0.2-0.2-0.2-0.5,0-0.6l0.2-0.2l0,0l0.2-0.2l0.6-1
			c0.2-0.2,0.3-0.2,0.3,0c0.2,0,0.2,0.2,0.2,0.3l-0.5,1.2v0.2v-0.2L541,241.6L541,241.6z M546.7,232.3c0-0.2,0.2-0.3,0.3-0.3
			s0.2,0,0.3,0.2c0.2,0.3,0,0.5,0,0.6l-0.3,0.5l-0.9,1.7l-3.9,5.8l-0.9,1.2l-0.3,0.3c0,0.2,0,0.2-0.5,0.3c-0.3,0-0.6-0.2-0.6-0.5
			s0.2-0.6,0.5-0.6h-0.2l0,0l0,0l0.2-0.3l0.9-1.2l3.9-5.7l1-1.5L546.7,232.3L546.7,232.3L546.7,232.3z"/>
		<path class="st0" d="M528.6,221c0-0.2,0-0.5,0.2-0.5s0.3,0,0.5,0.2c0.2,0.3,0,0.5,0,0.6l-0.3,0.9l-1.2,2.4l-3.3,6l-1.5,2.5
			l-0.9,1.5c0,0,0,0.2-0.2,0.2l-0.3,0.2h-0.2c-0.2,0-0.2,0-0.3-0.2v-0.2v-0.3v-0.2l0.9-1.7l1.5-2.5l3.3-5.8l1.2-2.2L528.6,221
			L528.6,221L528.6,221z"/>
		<path class="st0" d="M528.7,232.2c0.2,0.2,0.3,0.3,0.2,0.5c-0.2,0.2-0.3,0.3-0.5,0.2c-0.2,0-0.3-0.3-0.2-0.5l0,0v-0.3
			c0-0.2,0-0.3,0.2-0.3s0.2,0,0.3,0.2V232.2z M532.2,219.8c-0.2,0.2-0.3,0.3-0.5,0.2c-0.2,0-0.3-0.3-0.2-0.5l0.2-0.3
			c0,0,0.3-0.2,0.5,0l0.2,0.3v0.9c-0.2,1.3-0.6,3.7-1.5,6l-1.3,3.9l-0.3,1.2l-0.2,0.6c0,0.2,0,0.5-0.2,1c-0.2,0.2-0.3,0.2-0.6,0.2
			c-0.2-0.2-0.2-0.3-0.2-0.6v-0.2V232l0.2-0.9l0.3-1.2l1.3-3.7c0.9-2.4,1.3-4.5,1.5-5.8v-0.5l0,0v0.2l0.2,0.2L532.2,219.8
			L532.2,219.8L532.2,219.8L532.2,219.8z"/>
		<path class="st0" d="M545.1,213.4c-0.2,0-0.3-0.2-0.5-0.3c0-0.2,0.2-0.3,0.3-0.5c0.3,0,0.6,0,0.9,0.3l0.3,0.9l0.2,2.4
			c0,1.8-0.3,3.7-0.6,5.4l-0.9,3.9c0,0,0,0.2-0.2,0.2l-0.2,0.2c-0.2,0.2-0.3,0.2-0.3,0l0,0l-0.2-0.3v-0.2l0.9-3.9
			c0.3-1.7,0.6-3.3,0.6-5.2l-0.2-2.2L545.1,213.4L545.1,213.4z"/>
		<path class="st0" d="M544.9,219.2c0,0.2,0,0.5-0.2,0.5s-0.3,0-0.5-0.2l0.2,0.2h0.2l0,0l-0.3,0.3l-1.2,1.3l-1.7,1.3l-1.8,1
			c-0.2,0.2-0.3,0-0.3,0c-0.2-0.2,0-0.2,0-0.3l1.7-1.3l1.7-1.3l1.2-1.2l0.5-0.3l0.3-0.2L544.9,219.2z"/>
		<path class="st0" d="M567.8,187.9c0.3,0,0.5,0.2,0.6,0.3c0,0.3-0.2,0.5-0.3,0.6l-93,18.6c-0.3,0-0.5-0.2-0.6-0.3
			c0-0.3,0.2-0.5,0.3-0.6L567.8,187.9z"/>
		<path class="st0" d="M486.6,223.7c0.2,0.2,0.2,0.5,0.2,0.6c-0.2,0.2-0.5,0.2-0.6,0.2c-0.2-0.2-0.2-0.5-0.2-0.6
			c0.2-0.2,0.2-0.2,0.3-0.2h-0.2l0,0l0.2-0.2c0.2-0.2,0.3-0.2,0.3,0c0.2,0,0.2,0.2,0.2,0.3v0.3l0,0L486.6,223.7L486.6,223.7z
			 M500.5,204.1c0,0.2-0.2,0.3-0.5,0.3c-0.2,0-0.3-0.2-0.3-0.5v-0.4l0,0l0.2,0.2h0.2l0,0l-1,1.2l-2.4,3.1l-2.8,4.2l-4.2,6.7l-1,1.8
			l-0.5,1.2l-0.6,1l-0.5,0.9l-0.2,0.3l-0.2,0.2l-0.2,0.2c-0.2,0.2-0.5,0.2-0.6-0.2c-0.2-0.2-0.2-0.5,0.2-0.6h0.2h-0.2l0,0l0.2-0.3
			l0.5-0.9l0.5-1l0.6-1.3l1.2-1.8l4.2-6.7l2.8-4.2l2.4-3.1c0.5-0.6,0.9-1.2,1.3-1.3h0.5l0.3,0.3v0.8L500.5,204.1L500.5,204.1z
			 M486.7,224c0,0.3-0.2,0.5-0.5,0.5s-0.5-0.2-0.5-0.5s0.2-0.5,0.5-0.5C486.6,223.5,486.7,223.8,486.7,224"/>
		<path class="st0" d="M480.3,218c-0.2,0.2-0.5,0-0.5-0.2c-0.2-0.2,0-0.5,0.2-0.5c0.2-0.2,0.5,0,0.5,0.2c0,0,0,0,0,0.2v-0.2
			l-0.2-0.2h-0.2l0,0h0.2l0.9-0.2c0.2,0,0.3,0,0.3,0.2s0,0.3-0.2,0.3L480.3,218L480.3,218z M491.9,214.4c0,0.2-0.2,0.3-0.3,0.3
			c-0.2,0-0.3-0.2-0.3-0.3l0,0H491l-1.2,0.3l-3.9,1.5l-3.7,1.2l-1.3,0.3l-0.5,0.2h-0.2H480c-0.2,0-0.3,0-0.5-0.2
			c-0.2-0.3,0-0.3,0-0.5l0.2-0.2l0.5-0.3l1.3-0.3l3.6-1l4-1.5l1.5-0.3l0.6,0.2L491.9,214.4z"/>
		<path class="st0" d="M511,199.4c0.2,0,0.3,0.2,0.3,0.5c0,0.2-0.2,0.3-0.5,0.3h-0.3l-0.2,0.2l-0.2,0.9c0,0.9-0.2,2.1-0.5,3.9
			l-0.9,2.8l-1.8,6l-1.2,4.3l-0.5,2.5c-0.2,0.9-0.3,1.3-0.6,1.7l-0.6,0.2l-0.9-0.2c-0.2,0-0.2-0.2-0.2-0.3c0-0.2,0.2-0.2,0.3-0.2
			h0.6l0.2-0.2l0.2-1.2l0.5-2.7l1.2-4.5l1.8-6l0.9-2.8c0.5-1.8,0.5-2.7,0.6-3.7c0-0.3,0.2-0.9,0.3-1.2l0.5-0.3H511L511,199.4z"/>
		<path class="st0" d="M504.8,219.2c0,0.2-0.3,0.3-0.5,0.3s-0.3-0.2-0.3-0.5l0.2,0.2l0,0H504l-1.5,1l-2.2,1.7l-4.9,4l-3.1,2.7
			l-2.2,2.1l-0.5,0.5l-0.2,0.2l0,0v-0.2l-0.2-0.2H489h-0.2l0,0l1.2-1c0.2-0.2,0.3-0.2,0.3,0c0.2,0.2,0.2,0.3,0,0.3l-0.9,0.9
			l-0.3,0.3h-0.3l-0.2-0.3c0-0.3,0.2-0.3,0.2-0.3l0.5-0.6l2.2-2.2l3-2.8l5.1-4l2.2-1.7l1.8-1c0.2-0.2,0.5-0.2,0.9,0l0.3,0.3
			L504.8,219.2L504.8,219.2z"/>
		<path class="st0" d="M498.6,234.5c0,0.2-0.3,0.3-0.5,0.2c-0.2,0-0.3-0.3-0.2-0.5c0-0.2,0.3-0.3,0.5-0.2c0,0,0,0,0.2,0h-0.2h-0.2
			l0,0l0,0l0,0l0.3-0.9c0-0.2,0.2-0.2,0.3-0.2c0.2,0,0.2,0.2,0.2,0.3l-0.2,0.9L498.6,234.5L498.6,234.5z M502.7,221.4
			c-0.2,0-0.3-0.2-0.3-0.3c0-0.2,0.2-0.3,0.3-0.3l0.5,0.2v0.2v0.5l-0.3,1.3l-1.5,4.2l-1.8,4.3l-0.5,1.8l-0.3,1
			c0,0.2-0.2,0.3-0.3,0.3h-0.2c-0.3-0.2-0.2-0.3-0.2-0.3v-1l0.5-2.1l1.8-4.3l1.7-4.2l0.3-1.3v-0.3v0.2L502.7,221.4L502.7,221.4z"/>
		<path class="st0" d="M530.1,197.4c-0.2,0-0.3-0.3-0.2-0.5c0-0.2,0.3-0.3,0.5-0.2l0.5,0.3l0.2,0.5l-0.2,1.2c-0.3,1-0.9,2.2-1.8,3.6
			c-1.8,2.7-4.3,5.7-6.2,8.2l-1.9,2.7v0.2l0,0l0,0h0.2l0.5-0.2c0.2,0,0.3,0,0.3,0.2s0,0.3-0.2,0.3c-0.5,0.2-0.6,0.3-1,0.3l-0.3-0.5
			l0.2-0.5c0.3-0.6,1-1.7,1.8-2.8c1.8-2.5,4.3-5.5,6-8.2c0.9-1.3,1.5-2.5,1.8-3.3L530.1,197.4L530.1,197.4L530.1,197.4z"/>
		<path class="st0" d="M511.3,208.8c0,0.2-0.3,0.3-0.5,0.2c-0.2,0-0.3-0.3-0.2-0.5c0-0.2,0.2-0.3,0.3-0.2h-0.2l0.6-0.2
			c0.2,0,0.3,0,0.3,0.2s0,0.3-0.2,0.3L511.3,208.8L511.3,208.8L511.3,208.8z M523.6,205.5c0.2,0,0.3,0.2,0.3,0.3s-0.2,0.3-0.3,0.3
			c-0.9,0-1.8-0.2-3.1,0.2l-3.6,1l-4.2,1.3l-1.7,0.3c0,0,0,0.2-0.3,0c-0.2-0.2-0.2-0.3-0.2-0.5l0,0l0.2-0.2l1.5-0.5l4.2-1.2
			c1.3-0.3,2.5-0.9,3.7-1C521.7,205.2,522.7,205.5,523.6,205.5"/>
		<path class="st0" d="M528.2,204.9c0.2-0.2,0.3-0.2,0.5,0s0.2,0.2,0.2,0.3v1.2c0,1.2,0.2,2.7,0.3,4.2c0.2,1,0.3,2.1,0.5,2.5
			l0.3,0.5h0.3c0.2,0,0.3,0,0.3,0.2s0,0.3-0.2,0.3c-0.3,0.2-0.6,0.2-1,0c-0.3-0.2-0.5-0.5-0.9-0.9c-0.5-0.6-0.6-1.7-0.9-2.7
			c-0.2-1.5-0.3-3.1-0.2-4.3C527.9,205.8,527.9,205.2,528.2,204.9"/>
		<path class="st0" d="M529.1,209.8c0.2,0,0.3,0.2,0.3,0.5c0,0.2-0.2,0.3-0.5,0.3l0,0c-0.3-0.2-0.9,0-1.2,0.3l-1.2,1
			c-0.2,0.2-0.3,0-0.3,0c0-0.2,0-0.3,0-0.3l1.2-1.2C527.7,210.1,528.2,209.8,529.1,209.8"/>
		<path class="st0" d="M566.5,175.5c-0.2,0-0.3-0.2-0.5-0.3c0-0.2,0.2-0.3,0.3-0.5c0,0,0,0,0.2,0h0.3l0,0l-0.2-0.3
			c-0.2-0.2,0-0.3,0-0.3c0.2-0.2,0.3,0,0.3,0l0.3,0.5l-0.2,0.5C567.1,175.5,566.8,175.5,566.5,175.5"/>
		<path class="st0" d="M566.2,174.3c0,0.2-0.3,0.2-0.3,0.2c-0.2,0-0.2-0.3-0.2-0.3c0-0.2,0.3-0.2,0.3-0.2l0.2,0.2l0,0l0,0
			C566.2,174.2,566.4,174.3,566.2,174.3C566.2,174.5,566.2,174.5,566.2,174.3L566.2,174.3L566.2,174.3z M566.4,174.3
			c0,0.2-0.2,0.3-0.3,0.3s-0.3-0.2-0.3-0.3c0-0.2,0.2-0.3,0.3-0.3C566.2,173.7,566.4,174,566.4,174.3"/>
		<path class="st0" d="M567.4,173.6c0,0.2-0.2,0.3-0.3,0.3c0,0,0,0-0.2,0l0,0h-0.3l-3.3,0.5c-1.3,0.3-3.1,0.9-4.9,1.2
			c-2.1,0.3-3.1,0-5.1,0.3l-4.5,1l-3.1,0.5l-5.8,1l-7.2,0.9c-5.2,0.5-9.8,0.5-14.2,0.3l-5.1-0.2h-5.2c-2.5,0-4.3-0.3-6.2-0.9
			c-4-1-8.7-1.5-12.5-2.1c-3.6-0.5-6.7-1.2-8.7-1.3l-1.8,0.2c-0.9,0.2-1.7,1-2.8,1.3h-1.5l-2.4,0.5l-1.7,0.3l-0.6,0.2l-1.2,0.6
			l-0.9,0.3c-0.2,0-0.3,0-0.5,0l-0.3-0.3V178v-0.2c0-0.2,0.2-0.3,0.3-0.3l0.5-0.3c0.3-0.3,0.9-0.6,1.5-0.9l0.9-0.2l1.7-0.3
			c0.9-0.2,1.7-0.5,2.5-0.5h1.2c0.9-0.2,1.7-1,2.8-1.3c0.6-0.2,1.5-0.2,2.4-0.2c2.4,0.2,5.4,0.9,8.8,1.3c3.9,0.5,8.5,1,12.7,2.1
			c1.8,0.5,3.7,0.9,6,0.9h5.2l5.1,0.2c4.3,0.2,9.1,0.2,14-0.5l7.2-0.9l5.8-1l3-0.5l4.6-1c2.1-0.3,3.1,0,5.1-0.2l4.9-1l3.3-0.3
			l0.6,0.2L567.4,173.6L567.4,173.6z M567.1,174c0.2,0.2,0.2,0.3-0.2,0.5c-0.2,0.2-0.3,0.2-0.5-0.2l0,0c-0.2-0.3,0-0.5,0.2-0.6
			l0.3-0.3l-0.2,0.2v0.2c0-0.2,0.2-0.3,0.3-0.3s0.3,0.2,0.3,0.3C567.4,173.7,567.4,173.7,567.1,174L567.1,174L567.1,174L567.1,174
			L567.1,174z"/>
		<path class="st0" d="M491.4,175.8c0.2,0.2,0.2,0.3,0,0.5s-0.3,0.2-0.5,0h0.2h-0.2l-0.9,0.2c-0.5,0.2-1.3,1-2.5,2.1l-2.4,2.2
			l-2.5,2.2l-4.2,3.6l-3.9,3.1l-0.6,0.6l0,0V190l-0.2-0.2l0,0l1.5-0.3c0.2,0,0.3,0,0.3,0.2s0,0.3-0.2,0.3c-1,0.3-1.5,0.6-2.1,0.5
			c-0.2,0-0.3-0.2-0.3-0.5l0.2-0.5l0.9-0.9l4-3.1l4.2-3.6l2.5-2.2l2.4-2.2c1.2-1,1.8-1.8,2.8-2.2l1-0.2h0.3v0.5h0.2V175.8z
			 M491.4,176.3c-0.2,0.2-0.5,0-0.5-0.2c-0.2-0.2,0-0.3,0-0.5l0,0c0.2-0.2,0.3-0.2,0.5,0S491.6,176.1,491.4,176.3L491.4,176.3
			L491.4,176.3z"/>
		<path class="st0" d="M486.4,198c0.2,0.2,0,0.5-0.2,0.6c-0.2,0.2-0.5,0-0.6-0.2V198v-0.2c0-0.2,0.2-0.2,0.3-0.2l0.6-0.3
			c0.2,0,0.3,0,0.3,0.2s0,0.2,0,0.3l-0.2,0.3l0,0l0,0L486.4,198c0.2,0.2,0,0.3,0,0.5v-0.2v-0.2V198L486.4,198z M509.8,181
			c0,0.2,0,0.5-0.2,0.5s-0.3,0-0.5-0.2l0,0l-0.3,0.2l-2.2,1.5l-4.2,3.1l-10.7,8.2l-3.6,2.8l-1.5,1.2l-0.3,0.3l-0.2,0.2h-0.5
			c-0.2-0.2-0.3-0.5-0.2-0.6c0.2-0.2,0.5-0.3,0.6-0.2h-0.2h-0.2h-0.2h-0.2l0.3-0.3l1.5-1.2l3.6-2.8l10.7-8.2l4.2-3.1l2.5-1.5
			l0.9-0.2C509.7,180.6,509.8,180.9,509.8,181"/>
		<path class="st0" d="M497.8,176.8c0.2-0.2,0.5,0,0.5,0.2c0.2,0.2,0,0.3,0,0.5l-0.3,0.2l-0.3-0.2l-0.5-0.3L496,176l-1.7-1.5
			c-1.2-1.3-2.2-3.1-3.3-5.1c-1-1.7-2.1-3.1-2.8-4c-0.6-0.6-1.5-1-2.2-1.2l-1.8-0.3l0,0h0.2v-0.2l0,0l0.3,0.3c0.2,0.2,0.2,0.3,0,0.3
			c-0.2,0.2-0.2,0.2-0.3,0l-0.6-0.6v-0.5l0.3-0.3c0.5-0.2,1.3-0.2,2.1,0c1,0.2,2.2,0.5,3,1.5c1,1,1.8,2.5,2.8,4.3s2.1,3.7,3,4.9
			l1.5,1.7l1.2,1.2L497.8,176.8L497.8,176.8L497.8,176.8z"/>
		<path class="st0" d="M489.6,167.8c-0.2,0.2-0.3,0.2-0.5,0.2c-0.2-0.2-0.2-0.3-0.2-0.5l0,0l0,0l-0.3-0.3l-1.3-1.2
			c-0.9-0.6-1.2-1.3-2.1-2.1c-1.5-1-4.3-1.2-7-1.2c-2.2,0-4,0-5.7-0.2l-1.7-0.3h-2.4h-1c0,0,0,0-0.2,0H467l0,0h0.2l0.2-0.2v-0.2
			v-0.2l-0.2-0.2h0.2l0.6,0.2c0.5,0.2,1.2,0.3,1.8,0.6c0.2,0.2,0.2,0.3,0,0.3c0,0.2-0.2,0.2-0.3,0c-0.5-0.2-1-0.3-1.5-0.3h-0.6h-0.3
			l-0.3-0.2l0.2,0.2l-0.3-0.5l0.2-0.3l0.5-0.3c0,0,0,0,0.2,0h1c0.6,0,1.7,0,2.7,0.2l1.7,0.3c1.5,0.2,3.3,0.2,5.5,0.2
			c2.8,0,5.8,0,7.7,1.5c0.9,0.6,1.3,1.5,2.1,2.1l1.2,1.3l0.3,0.6C489.7,167,489.7,167.5,489.6,167.8"/>
		<path class="st0" d="M467,172.3c-0.2,0.2-0.3,0.2-0.5,0s-0.2-0.3,0-0.5c0,0,0.2-0.2,0.3-0.2h-0.2l0,0l0.5-0.5
			c0.2-0.2,0.3-0.2,0.3,0c0.2,0.2,0.2,0.3,0,0.3L467,172.3L467,172.3z M478.2,162.1c0.2,0.2,0.2,0.3,0,0.5s-0.3,0.2-0.5,0l0,0h-0.3
			c-0.3,0.2-0.9,0.5-1.3,1l-3.7,4.2c-1.2,1.3-2.7,2.5-3.7,3.3l-1.2,0.9l-0.3,0.2l0,0c-0.2,0.2-0.3,0.2-0.5,0s-0.2-0.2,0-0.3v-0.2
			l0.3-0.3l1.2-0.9c1-0.9,2.5-2.1,3.7-3.3c1.5-1.5,2.5-3.1,3.7-4.2c0.6-0.6,1.2-1,1.7-1.2l0.6-0.2L478.2,162.1z"/>
		<path class="st0" d="M478.7,161.1c-0.2-0.2-0.3-0.3-0.2-0.5c0-0.2,0.3-0.3,0.5-0.2l0,0h-0.2l-0.2,0.2v0.2l0,0l-0.2-0.2l-1.2-1.5
			l-1.8-3l-3.1-6c-1.2-1.8-2.5-3.3-3.6-4.3l-0.9-0.6l-0.3-0.2l0,0h0.2c-0.2,0-0.2,0-0.3,0l0,0h0.2h0.2l0.3-0.2l0.2-0.2v-0.2l0,0
			l1,1.2c0.2,0.2,0.2,0.3,0,0.3c-0.2,0.2-0.2,0.2-0.3,0l-1.3-1.2l-0.3-0.3l-0.5-0.2l0.3-0.6c0.2,0,0.2-0.2,0.3-0.2
			c0.5,0,0.6,0.2,1,0.3l1,0.9c1.2,1,2.5,2.5,3.7,4.6l3.1,6.2l1.7,3l1,1.7c0.2,0.2,0.3,0.3,0.2,0.6
			C479.3,160.9,478.8,161.1,478.7,161.1L478.7,161.1z"/>
		<path class="st0" d="M515.7,177c0.2,0.2,0,0.5-0.2,0.5s-0.3,0-0.5-0.2c-0.3-0.5-0.9-0.9-1.3-1.7l-0.9-1.5c-0.5-0.9-1-2.2-2.1-3.3
			l-1.8-2.2l-2.5-2.2l-3.1-2.2l-1.3-0.9c-0.5-0.5-0.9-1.2-0.9-1.7l0.5-0.9l1-0.3c0.2,0,0.3,0,0.3,0.2s0,0.3-0.2,0.3l-0.6,0.3v0.3
			c0,0.2,0.2,0.3,0.6,0.6l1.3,0.9l3.1,2.4c0.9,0.6,1.8,1.7,2.8,2.7l1.8,2.4c1,1.3,1.5,2.7,1.8,3.6l0.6,1.3
			C514.9,175.8,515.4,176.1,515.7,177"/>
		<path class="st0" d="M501.2,160.8c0-0.2,0.3-0.3,0.5-0.3s0.3,0.2,0.3,0.3l-0.2,0.3l-0.3,0.3H501l-1.2-0.3c-1.3-0.2-3.1,0.3-5.1,0
			c-1.5-0.3-2.8-1.3-4.2-2.4c-0.9-0.6-1.8-1.2-2.2-2.1v-0.2c0-0.3,0-0.6,0.2-0.9l0.6-0.3c0.2,0,0.3,0,0.3,0.2s0,0.2-0.2,0.3
			l-0.2,0.2l0,0c0,0,0,0,0.2,0.2c0.2,0.3,1,1,2.1,1.7c1.3,1,2.5,2.1,3.7,2.2c1.5,0.3,3.3-0.2,4.9,0l1.3,0.3h0.4l0,0L501.2,160.8
			L501.2,160.8z"/>
		<path class="st0" d="M567.1,144.7c0.2,0,0.3,0.2,0.3,0.3s0,0.2-0.2,0.3l-0.2,0.2h-0.5h-1.2c0,0-0.2,0-0.2-0.2l-0.2-0.3l0.2-0.3
			c0.2-0.2,0.3,0,0.3,0l0,0l-0.2-0.2l0,0l0,0h0.2l1,0.2H567.1L567.1,144.7z M566.9,145.5c-0.2,0-0.3-0.2-0.3-0.3s0.2-0.3,0.3-0.3
			h0.2l0,0c0.2,0,0.5,0.2,0.5,0.3s-0.2,0.5-0.3,0.5C567.1,145.5,566.9,145.5,566.9,145.5L566.9,145.5L566.9,145.5L566.9,145.5z"/>
		<path class="st0" d="M567.8,146.2c-0.2,0.2-0.5,0-0.5-0.2c-0.2-0.2,0-0.3,0-0.5l0,0v0.2v0.2v0.2l0.2,0.2l0,0h-0.3h-1.5l-1.5-0.3
			c-0.6-0.3-1.2-0.9-1.5-1.3c-0.6-0.5-1.7-0.9-3-1l-4.6-0.5c-4-0.5-8.7-1.7-14-2.2c-4.6-0.5-9.4-0.9-14-1.8
			c-5.1-1-10.9-2.4-16.4-4.2c-2.5-0.9-4.6-1.8-6.9-2.8l-5.5-2.8c-1.7-0.9-3.3-1.3-4.6-2.1c-1.7-0.6-2.8-1.5-4-2.1l-1.8-0.9
			c-1.5-0.2-3.6-0.2-5.2-0.2c-1.8,0-2.8-0.5-3.9-0.6c-0.9-0.2-1.7-0.2-2.5-0.2h-1.2h-0.2l-1.3-0.9c-0.2,0-0.2-0.2-0.2-0.3
			s0.2-0.2,0.3-0.2h1.3h0.2h1.2c0.9,0,1.7,0,2.7,0.2c1,0.3,2.1,0.6,3.6,0.9c1.7,0,3.7,0,5.4,0.5l2.2,0.9c1.2,0.6,2.2,1.3,3.9,2.1
			c1.3,0.5,3,1.2,4.9,2.1l5.5,2.8c2.1,1,4.2,2.1,6.7,2.8c5.4,1.8,11.2,3.1,16.2,4.2c4.5,1,9.2,1.3,13.9,1.8c2.7,0.3,5.2,0.6,7.6,1.2
			l6.5,1c3.3,0.3,6.5,0.2,8.4,1.7l1.3,1.2l1.2,0.3h1.5h0.5c0.2,0,0.3,0,0.3,0.3C568.1,146,567.8,146.2,567.8,146.2"/>
		<path class="st0" d="M481.2,124.7c0.2,0,0.3,0.2,0.3,0.5c0,0.2-0.2,0.3-0.5,0.3c-0.6-0.2-1.5,0.2-2.5,0.9l-1.8,1l-6.4,3.1
			l-2.4,0.9h-0.3c-0.2,0-0.3,0-0.3-0.2c-0.2-0.2,0-0.3,0-0.5l0.3-0.3c0.2-0.2,0.3-0.2,0.3,0c0.2,0.2,0.2,0.3,0,0.3l-0.2,0.2v-0.2
			v-0.2h-0.2l0,0h0.2l2.2-1l6.2-3.1l2.1-0.9C479.4,125,480.2,124.6,481.2,124.7"/>
		<path class="st0" d="M477.8,106.5c-0.2,0.3-0.5,0.3-0.9,0.2c-0.3-0.2-0.3-0.5-0.2-0.9c0.2-0.3,0.5-0.3,0.9-0.2
			c0.2,0,0.2,0.2,0.3,0.3v0.2l0.9,2.1c0,0.2,0,0.3-0.2,0.3s-0.3,0-0.3-0.2l-1.2-1.7l0,0l0,0l0,0h0.2h0.2L477.8,106.5z M486.3,123.5
			c0.2,0,0.3,0.3,0.2,0.5c0,0.2-0.2,0.3-0.5,0.3c-0.5,0-0.9-0.5-1.2-1l-1.5-2.4l-2.5-4.2c-1.7-2.8-3-6-3.7-8.2l-0.5-1.8v-0.2
			l0.2-0.5l0.2-0.2c0.2-0.2,0.3-0.2,0.5-0.2s0.3,0.2,0.3,0.3l0,0v0.2v0.2l0.5,1.5c0.6,2.2,2.1,5.4,3.6,8.2l2.4,4.2l1.3,2.4
			L486.3,123.5z"/>
		<path class="st0" d="M479.4,139.9c-0.2,0.2-0.3,0.2-0.5,0.2c-0.2-0.2-0.2-0.3-0.2-0.5s0.3-0.2,0.3-0.2h-0.2h-0.2l0.5-0.3
			c0.2,0,0.3,0,0.3,0.2s0,0.3,0,0.3L479.4,139.9L479.4,139.9L479.4,139.9z M496.1,128.6c0.2,0,0.3,0.3,0.2,0.5
			c0,0.2-0.3,0.3-0.5,0.2l-0.9,0.2l-1.8,1l-5.8,3.6l-3.1,2.4l-2.2,1.8l-1.7,1.3l-1,0.6H479c-0.2,0-0.3-0.2-0.3-0.3l0,0l0.2-0.2
			l0.9-0.9l1.5-1.2l2.2-1.8l3.3-2.4l5.8-3.3l1.8-1C495.2,128.4,495.8,128.4,496.1,128.6"/>
		<path class="st0" d="M499.6,117.7c0.2,0.2,0.2,0.3-0.2,0.5c-0.2,0.2-0.3,0.2-0.5,0l-1.5-2.1c-0.6-0.9-2.1-2.1-3.1-3
			c-1.7-1.3-3.1-2.1-4.6-3.1c-1-0.9-2.1-1.8-3.6-2.8c-1-0.9-2.4-1-3.6-1.5c-0.6-0.3-1.2-0.9-1.5-1.3l-0.3-0.6
			c-0.2-0.2-0.2-0.5-0.2-0.9c0-0.2,0.2-0.2,0.2-0.3l0.6-0.2l0.5,0.2l1.3,0.6c0.2,0,0.2,0.2,0.2,0.3c0,0.2-0.2,0.2-0.3,0.2l-1.3-0.2
			l0,0l0,0l0.2-0.2v-0.2c0,0.2,0,0.3,0,0.3v-0.2l0,0l0,0l0.2,0.3c0.3,0.3,0.6,0.6,1,0.9c0.9,0.3,2.4,0.6,3.7,1.7
			c1.7,1.2,2.7,2.2,3.7,3c1.3,1.2,2.8,1.8,4.5,3.3c1.2,1,2.5,2.4,3.1,3.3L499.6,117.7z"/>
		<path class="st0" d="M489.1,90.1c0,0.2-0.3,0.3-0.5,0.3s-0.3-0.2-0.3-0.5l-0.2-0.5h0.2h0.2l0.2-0.2V89c0,0,0,0,0,0.2V89l0.2,0.2
			L489.1,90.1c0.9,1.5,1.2,3.1,1.5,5.2c0.6,3.1,1.8,6.2,2.7,8.4c0.6,1.5,1,3.1,1.5,4.3l0.9,1.7l1.3,2.1l0.9,1.3
			c1.2,1.8,2.5,3,3.6,4.6s1.2,3.9,1.7,6.2l0.9,2.5l1.2,2.4l0.5,1.3l0.2,0.6v0.2l0,0v-0.2c0.3,0.2,0.6,0.6,0.5,1
			c-0.2,0.3-0.6,0.6-1,0.5l-0.5-0.3l-0.3-0.9v-0.5l-0.5-1.2l-1.2-2.5l-1-2.8c-0.5-2.5-0.6-4.5-1.5-5.8c-0.9-1.5-2.2-2.5-3.6-4.6
			l-0.9-1.2l-1.3-2.1l-1-1.8c-0.6-1.5-0.9-3.1-1.5-4.3c-1-2.2-2.2-5.4-2.8-8.7c-0.3-1.8-0.6-3.6-1.2-4.9l-0.3-0.6
			c-0.2-0.2-0.3-0.5-0.2-0.9c0,0,0,0,0-0.2l0.3-0.3h0.3l0.5,0.3C489,89.2,489.3,89.6,489.1,90.1 M506.1,131.7c0,0.5-0.3,0.9-0.9,0.9
			s-0.9-0.3-0.9-0.9c0-0.5,0.3-0.9,0.9-0.9S506.1,131.1,506.1,131.7"/>
		<path class="st0" d="M566.9,160.6c0.2,0.2,0.2,0.3,0,0.5s-0.3,0.2-0.5,0l-1-0.2h-2.2l-4.6-0.3c-3.1-0.3-7.3-0.5-11.3-1.2l-5.1-1
			l-4.9-1l-1.7-0.5h-0.3l0,0h0.2l0.2-0.2v-0.2c0,0.2-0.2,0.3-0.2,0.3l0.2-0.2l0,0v0.5c0,0.2,0,0.3-0.2,0.3s-0.2,0-0.3-0.2l-0.3-0.5
			c-0.2-0.2-0.2-0.2-0.2-0.3l0.3-0.6l0.3-0.2l0.5,0.2l1.7,0.5l4.6,1l5.1,1c4,0.5,8.2,0.9,11.3,1.2l4.6,0.3l2.2,0.2
			C566,160,566.5,160.2,566.9,160.6"/>
		<path class="st0" d="M537.7,156.6c0.2,0.2,0.2,0.3,0,0.5s-0.3,0.2-0.5,0l-1.8-2.1c-1.2-1.2-2.8-2.8-4.9-4.2l-3.1-1.8l-2.1-0.9
			l-2.5-0.6c-1.3-0.3-2.5-0.3-3.7-0.3c-1,0-1.8,0.2-2.4,0.3l-0.3,0.3v0.2l0.3,0.3l0.9,0.5c0.2,0,0.2,0.2,0.2,0.3s-0.2,0.2-0.3,0.2
			l-1-0.5l-0.5-0.6c-0.2-0.3,0-0.6,0.2-0.9l0.6-0.5c0.6-0.3,1.5-0.5,2.5-0.5c1.2,0,2.4,0,3.9,0.3l2.7,0.6l2.2,0.9
			c1.2,0.5,2.2,1.3,3.1,2.1c2.1,1.5,3.9,3.1,4.9,4.5L537.7,156.6z"/>
		<path class="st0" d="M519.5,169.6c0,0.2-0.2,0.3-0.3,0.3c-0.2,0-0.3-0.2-0.3-0.3s0.2-0.3,0.3-0.3H519l0.5-0.5
			c0.2-0.2,0.3-0.2,0.3,0c0.2,0.2,0.2,0.3,0,0.3L519.5,169.6L519.5,169.6z M537.7,160.2c0.2,0,0.3,0.2,0.3,0.3s-0.2,0.3-0.3,0.3
			c-0.3,0-0.6-0.2-1-0.2l-1.3-0.2c-0.5,0-1.3,0.5-2.5,1c-1.5,0.6-3.3,1.5-5.1,2.4c-2.1,1-3.7,2.2-5.1,3.3l-1.8,1.5l-1.2,0.9
			l-0.3,0.2h-0.2c-0.2,0-0.3-0.2-0.3-0.3l0,0l0,0l0.2-0.2l0.3-0.3l1-1l1.8-1.5c1.5-1.2,3.1-2.4,5.2-3.3c1.8-1,3.7-1.7,5.2-2.4
			c1.2-0.5,2.1-1,2.8-1.2C536.6,159.6,537.7,160.2,537.7,160.2"/>
		<path class="st0" d="M524,148.2c0-0.2,0.2-0.5,0.3-0.5c0.2,0,0.2,0,0.3,0l0.2,0.3v0.3l-0.2,0.5c-0.3,0.6-1.2,1.5-2.2,2.5l-3.3,3.1
			l-3.1,3l-0.6,0.9v0.2c0.2,0.2,0.2,0.3,0,0.3c-0.2,0.2-0.3,0.2-0.3,0l-0.2-0.2v-0.5l0.6-1l3-3.1l3.1-3.1l2.1-2.4L524,148.2
			L524,148.2z M524.6,149c0,0.2-0.3,0.3-0.5,0.3s-0.3-0.3-0.3-0.5l0.3-1l0.2-0.2c0.2-0.2,0.5-0.2,0.6,0s0.2,0.5,0,0.6
			s-0.3,0.2-0.3,0h0.2h0.2l0,0L524.6,149z"/>
		<path class="st0" d="M519.8,145.9c0.2,0,0.3,0.2,0.3,0.3c0,0.2-0.2,0.3-0.3,0.3c-1.5,0.2-2.4-0.2-3.7-0.9l-2.7-1.3l-3.9-1.8
			c-1.3-0.5-2.5-0.9-3.7-1l-2.2-0.2c0,0,0,0-0.2,0H503l-0.3-0.5c0-0.2,0.2-0.3,0.2-0.3s0,0,0.2,0h0.2l0.5-0.2c0,0,0,0,0.2,0l2.4,0.2
			c1.2,0.2,2.5,0.5,3.9,1.2l4,2.1l2.7,1.3C517.9,145.7,518.5,146,519.8,145.9"/>
		<path class="st0" d="M510.7,144.5c0,0.2,0,0.5-0.2,0.5s-0.3,0-0.5-0.2l0,0h-0.2l-1.2,0.3l-3.6,1.5c-1.5,0.6-3,1.3-4.2,1.7
			l-1.5,0.2l-0.5-0.2l-0.3-0.5c0-0.2,0.2-0.3,0.2-0.3c0.2,0,0.3,0,0.3,0.2l0.2,0.2h0.3l1.3-0.3l3.9-1.7l3.6-1.5l1.3-0.3h0.5
			L510.7,144.5z"/>
		<path class="st0" d="M517.2,162.7c-0.2,0.2-0.5,0.2-0.6,0c-0.2-0.2-0.2-0.5,0-0.6s0.5-0.2,0.6,0l0.2,0.2v-0.2l0,0l0.9,0.5
			c0.2,0,0.2,0.2,0.2,0.3c0,0.2-0.2,0.2-0.3,0.2L517.2,162.7L517.2,162.7L517.2,162.7L517.2,162.7z M526.4,162.6
			c0.2,0.2,0,0.5-0.2,0.5l0,0H526h-0.6l-2.8,0.2h-3.7l-2.2-0.3c0,0-0.2,0-0.2-0.2l-0.2-0.2v-0.2c0-0.2,0-0.3,0.2-0.5h0.2h0.2h0.2
			l1.8,0.3h3.6h2.8h0.6h0.2L526.4,162.6z M526.1,163.3c-0.2,0-0.3-0.2-0.3-0.3s0.2-0.3,0.3-0.3l0,0l0,0l0,0h-0.3
			c0.2-0.2,0.3-0.3,0.5-0.2s0.3,0.3,0.2,0.5C526.4,163.1,526.2,163.3,526.1,163.3L526.1,163.3L526.1,163.3z"/>
		<path class="st0" d="M530.3,164.1c0.2,0.2,0.2,0.3,0,0.5s-0.3,0.2-0.5,0l-0.3-0.2l-0.5,0.2c-0.5,0.3-1,0.9-1.5,1.7
			c-1,1.3-1.7,3.1-1.5,5.2l0.2,2.1c0,0.2,0,0.3-0.2,0.3s-0.3,0-0.3-0.2l-0.6-2.1c-0.2-2.2,0.6-4.3,1.7-5.8c0.5-0.9,1.2-1.5,1.8-1.8
			l1-0.3C529.8,163.6,530.1,163.7,530.3,164.1"/>
		<path class="st0" d="M568.1,126.9c0.2,0.2,0.2,0.3,0.2,0.5c-0.2,0.2-0.3,0.2-0.5,0.2l-1.5-0.2l-3.9,0.3l-5.4,0.5l-4.2,0.2
			l-9.1,0.5l-7.2,0.5h-5.1l-3.3-0.3c-0.2,0-0.2,0-0.3,0l-0.3-0.2c0,0,0,0,0-0.2c0-0.3,0.2-0.3,0.3-0.5c0,0,0.2,0,0.3-0.2h1.3
			l2.2,0.2l4.9,0.2l7-0.3l9.1-0.5l4.2-0.2l5.4-0.5l3.9-0.2C567.1,126.6,567.7,126.8,568.1,126.9"/>
		<path class="st0" d="M530.7,114.1c0,0.3-0.3,0.5-0.6,0.5s-0.5-0.3-0.5-0.6c0-0.2,0.2-0.5,0.5-0.5h0.5l0.3,0.2l0.9,0.2
			c0.6,0.2,1.2,0.3,1.7,0.6c0.2,0,0.2,0.3,0,0.3c0,0.2-0.2,0.2-0.3,0.2l-1.7-0.5h-0.9h-0.2l0,0l0.2-0.2L530.7,114.1z M530.4,113.4
			c0.3,0.2,0.5,0.5,0.3,0.9c-0.2,0.3-0.5,0.5-0.9,0.3c0,0,0,0-0.2,0c-0.3-0.2-0.3-0.6,0-0.9C529.9,113.2,530.3,113.2,530.4,113.4
			 M547,127.8c0.2,0,0.3,0.2,0.3,0.5c0,0.2-0.2,0.3-0.3,0.3c-0.9,0-1.2-0.6-1.8-1.3l-2.1-1.2c-0.9-0.5-2.1-1-3-1.8
			c-1.2-0.9-2.2-2.1-3.3-3.1l-2.7-3.1c-0.9-1-1.7-1.7-2.5-2.4l-1.2-0.9l-0.3-0.2h-0.2h-0.2c-0.3-0.2-0.3-0.5-0.2-0.9
			c0.2-0.2,0.5-0.3,0.6-0.2h0.2l0.6,0.3l1.2,1c0.6,0.6,1.7,1.5,2.5,2.5l2.5,3.1c1,1.2,2.1,2.4,3,3c2.1,1.5,3.9,2.2,5.1,3.1
			C546.3,127.2,546.7,127.8,547,127.8"/>
		<path class="st0" d="M543.7,130.8c0.2,0,0.3,0.3,0.3,0.5s-0.2,0.3-0.5,0.3c-0.6-0.2-1.3,0.2-2.4,0.5l-3.6,1.3l-1,0.3h-0.4
			c-0.2,0-0.5-0.3-0.5-0.5s0-0.2,0-0.3l0.3-0.3l0.5-0.5c0.2-0.2,0.3-0.2,0.3,0s0.2,0.2,0,0.3l-0.2,0.5l0,0v-0.3
			c0.2,0,0.2,0.2,0.2,0.3l-0.2-0.3h-0.2l0,0l0.6-0.2l3.6-1.3C541.8,130.8,542.8,130.6,543.7,130.8"/>
		<path class="st0" d="M567.1,109.5c-0.2,0-0.5,0-0.5-0.2s0-0.5,0.2-0.5l0,0l0.3-0.2l0,0l0,0v0.2l0.2,0.3H567l-0.9-0.2l-2.8-0.5
			l-3.9-0.5l-4.3-1l-4.5-1.2c-1-0.3-1.7-0.9-2.2-1c-0.6-0.3-1.3-0.6-2.4-0.9c-1.5-0.3-3.3-0.5-5.4-0.5L537,103l-5.5-0.6
			c-2.4-0.3-4.9-1-7-1.5l-4.6-1.3c-2.2-0.5-4.3-0.5-6-0.6h-2.1h-0.5c-0.2,0-0.5,0-0.9-0.3l0,0c-0.3-0.3-0.3-0.9-0.2-1l0.2-0.5
			l0.6-0.6c0.5-0.3,0.9-0.5,1.2-0.5l0.6,0.2l0.3,0.5c0.2,0.3,0,0.9-0.3,1c-0.3,0.3-0.6,0.2-0.9,0.2h-0.3h-0.2l0,0h-0.2l-0.3-0.3
			l-0.2-0.6c0-0.2,0-0.3,0.2-0.3s0.2,0,0.3,0.2l0.2,0.3l0,0h-0.2l0,0l0.3-0.2h0.2h0.5l0,0H512l-0.2,0.2v0.2v0.2v0.2l0.2,0.2h0.2h0.2
			l-0.5,0.3l-0.3,0.3l0,0l0,0v-0.2v-0.2c0,0.2-0.3-0.3-0.2-0.3l0,0l0,0l0.6,0.2l2.1,0.2c1.7,0.2,3.9,0.2,6.2,0.6l4.6,1.3
			c2.2,0.5,4.6,1,6.9,1.3l5.1,0.6l3.3,0.3c2.1,0,4,0,5.7,0.5c1.2,0.3,2.1,0.6,2.8,1l2.1,1.2l4.5,1.3l4.2,1.2l3.9-0.2l2.8,0.5l1,0.3
			l0.3,0.2l0.2,0.5v-0.3v0.3l-0.2,0.2L567.1,109.5z"/>
		<path class="st0" d="M498.2,80.1c-0.2,0.2-0.5,0-0.6-0.2c-0.2-0.2,0-0.5,0.2-0.6c0.2-0.2,0.5,0,0.6,0.2c0,0.2,0,0.2,0,0.3v-0.2
			v-0.2l0,0l0,0l1.2,1c0.2,0.2,0.2,0.3,0,0.3c-0.2,0.2-0.2,0.2-0.3,0l-1.3-0.9l0,0l0,0l0,0L498.2,80.1L498.2,80.1z M510.9,96.3
			c0.2,0.2,0.2,0.3,0.2,0.5c-0.2,0.2-0.3,0.2-0.5,0.2c-0.9-0.5-1.7-1.2-2.8-2.7l-2.7-3.7c-1.8-2.8-3.9-6.4-5.5-8.5l-1.8-2.1
			c0,0,0,0-0.2-0.2l-0.2-0.1v-0.3c0-0.2,0.2-0.3,0.3-0.5h0.3l0.2,0.2c0,0,0,0,0.2,0.2l1.8,2.2c1.7,2.4,3.6,5.8,5.4,8.7l2.5,3.7
			C509.4,95.3,510.1,95.9,510.9,96.3"/>
		<path class="st0" d="M509,97.8c0,0.2-0.2,0.3-0.5,0.3c-0.2,0-0.3-0.2-0.3-0.3l-0.2-0.3l-0.5-0.5c-0.5-0.3-1.3-0.9-2.4-1.2
			c-2.1-0.5-4.9-0.5-7-0.2l-1.7,0.3l-0.3,0.3l-0.2,0.2c0,0.2-0.2,0.3-0.2,0.3c-0.2,0-0.2,0-0.3-0.2v-0.6l0.5-0.5
			c0.5-0.3,1.2-0.5,2.1-0.6c2.4-0.3,5.4-0.3,7.6,0.3c1.2,0.3,2.1,0.9,2.7,1.3l0.6,0.9C508.8,97.3,509,97.7,509,97.8"/>
		<path class="st0" d="M528.6,103.7c0.2,0.2,0.2,0.3,0,0.5s-0.3,0.2-0.5,0c-0.5-0.5-0.9-0.6-2.1-0.5l-2.5,1
			c-2.5,1.2-5.8,2.7-8.7,4.2l-3.3,2.2l-1,0.9l-0.2,0.5c0,0.2,0,0.3-0.2,0.3s-0.3,0-0.3-0.2c-0.2-0.3,0-0.6,0.3-1l1-1l3.6-2.2
			c2.8-1.5,6.2-3.1,8.5-4.3c1-0.5,1.8-1,2.7-1.2C527.3,102.5,528,103.1,528.6,103.7"/>
		<path class="st0" d="M568.9,86.1c0.2-0.2,0.5,0,0.5,0.2v0.2l-0.2,0.3l-0.3,0.2l-1,0.3l-1.8,0.3l-4.5,0.6l-6.2,0.6l-7.2,0.2
			l-5.4,0.2h-9.2c-3,0-6-0.3-8.5-0.5l-4-0.3l-2.8-0.3h-1.7h-0.3l0,0h0.2l0.2-0.2l0.2-0.3v-0.2v-0.2l0,0c0.5,0.3,1.8,0.9,3,0.6
			c0.2,0,0.3,0.2,0.3,0.3c0,0.2-0.2,0.3-0.2,0.3c-1.5,0.2-2.8-0.3-3.3-0.3h-0.2l-0.2-0.2l-0.2-0.6c0.2-0.3,0.3-0.3,0.5-0.3h0.3h1.8
			l2.8,0.3l4,0.5c2.5,0.2,5.4,0.5,8.4,0.5h9.2l5.4-0.2l7-0.3l6.2-0.6l4.5-0.6l1.7-0.3l1-0.3V86.1z M569,86.8c-0.2,0-0.3-0.2-0.3-0.5
			c0-0.2,0.2-0.3,0.3-0.3l0,0c0.2,0,0.5,0.2,0.5,0.3c0,0.2-0.2,0.5-0.3,0.5s-0.3,0-0.3-0.2L569,86.8L569,86.8L569,86.8z"/>
		<path class="st0" d="M520,66.4c0-0.2,0.2-0.3,0.5-0.3c0.2,0,0.3,0.2,0.3,0.5c0,0,0,0.2-0.2,0.2v-0.2l0,0l0.2,1.2
			c0,0.2,0,0.3-0.2,0.3s-0.3,0-0.3-0.2l-0.3-1V66.4z M526.7,87.6c0,0.2-0.3,0.3-0.5,0.3s-0.3-0.2-0.3-0.5c0.2-0.9,0-1.3-0.6-2.7
			l-1.7-4.2l-1-3.9l-0.9-4.5l-1.3-4.3l-0.3-1h-0.2l0,0h0.2c-0.3-0.2-0.3-0.5-0.2-0.9c0.2-0.3,0.5-0.3,0.9-0.2l0,0
			C521,66,521,66,521,66.4l0.3,1l1.3,4.5l1,4.5l1,3.7l1.5,4.2C526.9,85.8,527.1,86.7,526.7,87.6 M521,66.4c0,0.3-0.3,0.6-0.6,0.6
			s-0.6-0.3-0.6-0.6s0.3-0.6,0.6-0.6S521,66,521,66.4"/>
		<path class="st0" d="M524.7,82.1c0,0.2-0.2,0.3-0.5,0.3c-0.2,0-0.3-0.2-0.3-0.5c0.2-0.9,0.2-1.5,0-1.8s-0.3-0.5-1-0.9l-2.7-1.2
			l-5.4-2.5l-1-0.5h-0.3l0,0l0,0h0.2l0.2-0.2v-0.2l0,0l0.9,0.6c0.2,0,0.2,0.2,0.2,0.3c0,0.2-0.2,0.2-0.3,0.2l-1.2-0.6l-0.3-0.3
			c-0.2-0.2-0.2-0.3,0-0.6l0.5-0.2h0.5l1.2,0.3l5.7,2.7l2.7,1.3c0.6,0.3,1.2,0.9,1.3,1.5C524.9,80.6,524.9,81.3,524.7,82.1"/>
		<path class="st0" d="M536.4,63.1c-0.2,0.2-0.5,0.3-0.6,0.2c-0.2-0.2-0.3-0.5-0.2-0.6c0.2-0.2,0.3-0.3,0.6-0.2l0,0h0.2
			c0.6,0.2,1.7,0.9,2.2,1.5c0.2,0.2,0,0.3,0,0.3c-0.2,0-0.3,0-0.3,0c-0.5-0.5-1.5-1-2.1-1h0.2L536.4,63.1L536.4,63.1z M568.4,65
			c0.2,0,0.3,0.2,0.5,0.3c0,0.2-0.2,0.3-0.3,0.3c-0.6,0.2-1.5,0-2.7-0.2l-1.8-0.3l-2.4-0.2l-4.9-0.6c-5.4-0.5-10.9-0.5-15.4-0.5
			h-3.1l-2.1-0.2l-0.5-0.2l-0.2-0.2c0,0-0.3-0.2-0.2-0.6c0.2-0.2,0.3-0.3,0.5-0.3h0.2h0.2l2.1,0.2l3,0.2c4.5,0,10,0,15.4,0.5
			l4.9,0.6L564,64l1.8,0.3L568.4,65z"/>
		<path class="st0" d="M542.6,63.6c0,0.2-0.3,0.3-0.5,0.3s-0.3-0.2-0.3-0.5c0.2-1,0.3-2.2,0.5-4v-2.7l-0.2-2.8l0.2-0.6
			c0-0.2,0.2-0.3,0.6-0.3l0.3,0.2v0.2l0.4,1.2c0,0.2,0,0.3-0.2,0.3s-0.3,0-0.3-0.2l-0.3-0.9l-0.2-0.2l0,0h0.2h0.2h0.2l0.2-0.2v-0.2
			l0,0v0.3v3.2v2.8C543.1,61.2,542.9,62.5,542.6,63.6"/>
		<path class="st0" d="M542.6,63.3c0.2,0,0.3,0.2,0.3,0.3c0,0.2-0.2,0.3-0.3,0.3c-0.5,0-1.7,0.3-3.1,0.9l-5.2,1.8l-4.3,1.8l-1,0.5
			v-0.2v-0.2l0,0l0,0h0.2c0.2,0,0.3,0,0.3,0.2s0,0.3-0.2,0.3h-0.5l-0.5-0.3l0.2-0.2l1-0.6l4.3-1.8L539,64
			C540.8,63.9,541.9,63.3,542.6,63.3"/>
		<path class="st0" d="M553,66c-0.2,0-0.3-0.2-0.5-0.3c0-0.2,0-0.3,0.3-0.5h0.3c0.2,0,0.3,0.5,0.3,0.5l-0.3,0.5l-1.5,1.3l-4.9,4
			c-1.3,1.2-2.7,2.2-3.6,3.1l-0.9,1.2l-0.2,0.3v0.2c0.2,0.2,0.2,0.3,0,0.3c-0.2,0.2-0.2,0.2-0.3,0l-0.3-0.5v-0.6l0.9-1.3
			c0.9-1,2.1-2.2,3.3-3.3l4.9-3.9l1.5-1.2l0.2-0.2l0,0l0,0v0.2l0.2,0.2L553,66L553,66z"/>
		<path class="st0" d="M566.8,75.5c0.2,0,0.3,0.2,0.3,0.3c0,0.2-0.2,0.3-0.3,0.3l-1.7,0.3l-1.5,0.3l-5.5,0.9l-3.9,0.5
			c-1,0.2-1.8,0.2-2.5-0.2c0,0-0.2,0-0.2-0.2l0.2-0.6l0.2-0.3c0-0.2,0.2-0.2,0.3,0l0.2,0.2l0,0l0,0h0.2c0.5,0.2,2.8,0,5.7-0.3
			l5.4-0.9l1.5-0.2L566.8,75.5z"/>
		<path class="st0" d="M568.4,261.8c0.2-0.2,0.5,0,0.5,0.2c0.2,0.2,0,0.3,0,0.5l-0.2,0.2l-0.2,0.2H568c-0.3-0.2-0.3-0.5-0.3-0.6
			v-0.6c0,0,0-0.2,0.2-0.2c0.3-0.3,0.6-0.5,1-0.5l0.5,0.2l0.2,0.2l0.2,0.3v0.6c-0.2,1-1.2,1.7-2.2,2.2c-0.3,0.2-0.6,0.3-1.2,0.2
			c-0.3,0-0.6-0.3-0.9-0.5l-0.2-0.9c0.2-0.9,0.6-1.5,1.2-2.1l1.7-1.3l0.9-0.5c0.3,0,0.6,0,1,0.2l0.5,0.5c0.3,0.5,0.2,1,0.2,1.5
			c-0.2,0.6-0.5,1.2-0.9,1.7c-0.5,0.6-1.3,1-2.1,1c-0.2,0-0.3,0.2-1,0c-0.5-0.2-0.6-0.5-0.9-0.6l-0.2-0.6c0-0.5,0.2-1,0.3-1.2
			l0.9-0.9c0.6-0.5,1.3-0.9,2.1-1c0.5-0.2,0.9-0.2,1.3,0c0.3,0.2,0.9,0.5,1,0.9c0.5,0.9,0.3,1.7,0.2,2.5c-0.2,0.9-0.6,1.7-1.3,2.2
			c-0.6,0.6-1.7,1-2.5,0.6c-0.9-0.3-1.3-1.2-1.5-1.8c-0.2-0.9-0.2-1.7,0.3-2.4c0.5-0.9,1.2-1.3,2.1-1.5c0.9-0.2,1.5-0.3,2.4-0.2
			c0.6,0.2,1.3,0.3,1.7,1c0.3,0.3,0.3,1,0.2,1.3l-0.6,1.2c-0.6,0.9-1.5,1.5-2.5,1.8c-0.9,0.3-1.8,0.3-2.7,0.2
			c-0.9-0.2-1.5-0.5-2.1-1.2c-0.2-0.5-0.3-1-0.2-1.3s0.3-0.6,0.6-1c0.9-0.9,2.2-1.2,3.3-1.2h1.5c0.6,0.2,1.3,0.3,1.7,1
			c0.2,0.3,0.3,0.6,0.2,1l-0.3,1c-0.3,0.5-0.9,1-1.5,1.3s-1.5,0.5-2.4,0.3c-0.5-0.2-0.9-0.5-1-0.9l-0.2-1.2c0,0,0,0,0-0.2
			c0.2-0.6,0.6-1.3,1.2-1.7s1.2-0.6,1.7-0.6c0.6,0,1.2,0.2,1.5,0.6c0.3,0.5,0.3,1.2,0,2.2c0,0.2-0.2,0.2-0.3,0.2s-0.2-0.2-0.2-0.3
			c0.2-0.9,0-1.3-0.2-1.5s-0.3-0.2-0.6-0.2l-1,0.6l-0.3,0.6c0,0,0,0,0,0.2v0.3c0.2,0.2,0.6,0,1.2-0.2l1-0.6l0.2-0.3l0,0l-0.6-0.2
			h-1.2c-1,0.2-2.1,0.6-2.4,1l-0.2,0.2c0,0.2,0.3,0.3,0.9,0.5c0.5,0.2,1.2,0.2,1.7-0.2c0.6-0.2,1.5-0.6,1.8-1.2l0.5-0.6V262
			l-0.6-0.2l-1.5,0.2c-0.5,0.2-0.9,0.3-0.9,0.6c-0.2,0.3-0.2,0.9-0.2,1.3l0.3,0.5c0.2,0,0.6,0,1-0.3c0.3-0.3,0.6-0.9,0.9-1.5
			s0.2-1.2,0-1.3l-0.2-0.2H570l-1.3,0.9l-0.5,0.5v0.2l0,0v0.3l0,0l0,0l-0.2-0.2l0,0h0.5c0.3,0,0.6-0.2,1-0.3l0.6-1.2V261l0,0l0,0
			h0.2l-0.3,0.3c-0.9,0.6-2.1,1.8-2.2,2.2v0.2l0,0l-0.4,0.2h0.3c0.6-0.3,1.3-1,1.5-1.3v-0.2l0,0l0,0h0.2h0.2h0.2h-0.3l0,0l-0.2,0.2
			l0,0l0,0v-0.2V262L568.4,261.8L568.4,261.8L568.4,261.8L568.4,261.8z"/>
		<path class="st0" d="M567.1,51.8c0,0.2,0,0.3-0.3,0.5c-0.2,0-0.3,0-0.5-0.2c-0.2-0.3-0.3-0.9-0.2-1.3l0.6-1.2l1.2-1.2l0.9-0.3h0.5
			l0.5,0.3c0.3,0.5,0.2,0.9,0.2,1.3l-0.3,0.5l-0.3,0.2l-1,0.2c-0.5,0-0.9-0.2-1.2-0.3c-0.3-0.3-0.5-1-0.3-1.3l0.5-0.9
			c0.3-0.5,1-0.9,1.5-1l1.2-0.2c0.2,0,0.5-0.2,1.2,0.2c0.5,0.3,0.5,0.9,0.6,1.2v0.6c0,1-0.6,2.1-1.7,2.4c-0.6,0.3-1.7,0.2-2.2-0.2
			c-0.6-0.3-1.2-1-1.3-1.8c0,0,0,0,0-0.2c-0.2-1,0.3-2.1,1.2-2.5c0.6-0.5,1.2-0.5,1.8-0.6c0.5,0,1.2,0.2,1.7,0.6
			c0.3,0.3,0.3,0.9,0.3,1.2l-0.2,1c-0.2,0.9-0.9,1.3-1.5,1.7c-0.6,0.3-1.3,0.5-2.1,0.6c-0.3,0-0.9,0.3-1.7,0.2c0,0,0,0-0.2,0
			c-0.5-0.3-0.9-0.6-0.9-1.2L565,49c0.2-1.2,1-1.8,1.8-2.4c0.9-0.5,1.7-0.9,2.7-0.9h1.2c0.3,0,0.9,0.3,1.2,0.6s0.3,1,0.3,1.5
			c-0.2,0.9-0.6,1.2-1,1.5c-0.9,0.6-1.7,1-2.5,1.2c-0.3,0-0.9,0.2-1.3,0c-0.9-0.2-1.5-0.6-1.8-1.5c-0.3-1,0-1.8,0.5-2.5
			c0.6-0.9,1.7-1.2,2.7-1.3c1-0.2,2.1-0.2,2.7,0c0.5,0.2,1.2,0.3,1.3,0.9c0.2,0.2,0.3,0.6,0.2,1.2c-0.2,0.9-0.9,1.2-1.3,1.5
			l-1.8,0.6c-0.6,0.2-1.3,0.3-2.1,0.2l-0.3-0.2c-0.2-0.2-0.3-0.3-0.5-0.5c-0.2-0.3,0-0.6,0-0.9l0.3-0.5c0.2-0.2,0.5-0.3,0.6-0.3l0,0
			h0.3c0.2,0,0.3,0,0.3,0.2c0,0,0,0,0,0.2v0.2l0,0l0,0c0.2,0.3,0,0.5-0.2,0.9l-0.2,0.2v-0.2v-0.3l-0.2-0.3h-0.2h0.2l1-0.2l1.5-0.5
			l0.5-0.3l0.2-0.2v-0.2l0,0l-0.3-0.2c-0.5,0-1.3,0-2.1,0.2c-0.6,0.2-1.3,0.5-1.5,0.9l-0.2,0.5v0.2l0.3,0.3h0.6
			c0.6,0,1.2-0.2,1.5-0.5l0.6-0.6v-0.2l0,0h-0.2h-0.5c-0.5,0-1.2,0.3-1.7,0.6s-0.6,0.6-0.6,0.9v0.4V49l-0.2-0.2c0,0,0,0,0.2,0l0,0
			h0.6l1.3-0.3l0.6-0.5v-0.5v-0.2l0,0l0,0l-0.9,0.3c-0.3,0.3-0.3,0.6-0.3,0.9c0,0,0,0,0,0.2l0.3,0.6c0.2,0.2,0.3,0.2,0.6,0.2
			c0.3-0.2,0.6-0.5,0.6-1V48v-0.2l0,0L570,48l0,0h-0.5H569l-0.9,1.5l-0.2,0.2l0,0v-0.2l-0.2-0.2l0.2,0.2h0.5h0.2l0,0l-0.2,0.2v-0.2
			l0,0l0,0l0.2,0.2h0.2l0,0l-0.2,0.2l-1,0.6l-0.6,0.6L567.1,51.8z"/>
		<path class="st0" d="M567.8,275.8c0.2,0,0.3,0.3,0.3,0.5s-0.3,0.3-0.5,0.3c-0.5,0-1,0.2-1.3,0.9c-0.5,0.6-0.9,1.3-1.2,2.2
			c-0.3,0.9-0.3,1.5-0.2,1.8c0.2,0.3,0.6,0.6,1.5,1s2.1,0.3,2.8,0.3c1.3-0.2,2.5-1.2,3.3-2.8c0.5-0.9,0.6-1.7,0.9-2.4v-0.5v-0.5l0,0
			v0.2l0,0c0,0-0.5-0.3-1.2-0.3c-0.9,0-1.7,0-2.5,0.2l-1.5,0.3c-0.2,0.2-0.3,0-0.5-0.2c0,0,0-0.2,0-0.3c0.2-0.5,0.6-1,1.3-1.5
			c1-0.3,2.1-0.6,3-0.6l1.7,0.2c0.5,0.2,1.2,0.5,1.3,1.2c0.2,0.9,0,1.2,0,1.2l-0.2,1c-0.2,0.9-0.5,1.8-1.2,2.8
			c-1.2,1.8-2.8,3.3-4.6,3.3c-1.2,0-2.4-0.2-3.3-0.5s-2.1-1-2.2-1.8c-0.2-0.9,0-1.7,0.3-2.5c0.3-1,0.9-1.8,1.5-2.5
			C566.2,276.2,567.1,275.7,567.8,275.8"/>
		<path class="st0" d="M571.7,27.8c0.2,0,0.5,0,0.5,0.3v0.5c0,0.2,0,0.3-0.2,0.3l-2.1,2.8c-1,1.2-2.1,2.4-3.3,3.3
			c-2.1,1.5-4,2.7-5.8,2.5c-1-0.2-1.7-0.9-2.1-1.7c-0.3-0.9-0.2-1.8,0.2-2.8c0.5-1.3,1.5-2.2,2.4-3.1l1.3-1.2c0.3-0.3,0.6-0.9,1.3-1
			c0.3,0,0.6,0.2,0.9,0.3c0.3,0.5,0.3,1,0.3,1.7l0.3,1.3c0.3,1.5,2.5,3.1,4.6,3.6c2.2,0.3,4.2-0.6,4.9-2.2c0.3-0.9,0.3-1.5,0-2.4
			l-0.6-1.5l-1-0.9c-0.3-0.2-0.6-0.2-1.3,0.5l-0.9,1.5c0,0,0,0.2-0.2,0.2l-0.5,0.6c-0.2,0.2-0.3,0.2-0.5,0l-0.2-0.2v-0.9v-0.2
			l0.9-2.1c0.6-1.2,2.1-1.8,3-1.5s1.5,0.9,2.1,1.3l1.2,2.1c0.5,1.3,0.3,2.7-0.2,3.9c-1.2,2.5-4,3.7-6.9,3.1
			c-2.7-0.5-5.4-2.4-5.7-4.9c0-0.3-0.3-1-0.3-1.7V29v-0.2L564,29h0.2h0.2l0,0l-0.9,0.6l-1.2,1.2c-0.9,0.9-1.7,1.7-2.1,2.7
			c-0.3,0.9-0.2,1.5,0,1.8s0.3,0.6,0.6,0.6c1.2,0,3-0.6,4.9-2.2c1.2-1,2.4-2.1,3.1-3.1l2.1-2.7c0-0.2,0.2-0.2,0.3-0.2L571.7,27.8z"
			/>
		<path class="st1" d="M566.9,50.8c0-0.6,0.5-1.2,1.2-1.2s1.2,0.5,1.2,1.2v211.4c0,0.6-0.5,1.2-1.2,1.2s-1.2-0.5-1.2-1.2V50.8z"/>
		<path class="st0" d="M662.3,83.6c0.3,0,0.6,0.3,0.5,0.6c0,0.3-0.3,0.6-0.6,0.5c-0.3,0-0.6-0.3-0.5-0.6
			C661.5,83.7,661.7,83.6,662.3,83.6H662l0,0l0,0C662,83.4,662.3,83.4,662.3,83.6h0.2H662.3L662.3,83.6L662.3,83.6z M662.4,83.6
			c0.5,0.2,1,0.6,0.9,1.2c-0.2,0.5-0.6,1-1.2,0.9c-0.5-0.1-1-0.6-0.9-1.2c0-0.5,0.3-0.9,0.9-0.9h-0.2l-0.2,0.2h-0.2l0,0
			c0.3-0.3,0.9-0.5,1.3-0.2l0.2,0.2l-0.2-0.2h-0.2H662.4L662.4,83.6z M658.9,81.3c-0.3,0.3-0.9,0.3-1.2,0.2s-0.3-0.6-0.2-1
			c0.3-0.5,0.6-0.9,1.2-1.3l1.8-1.5l1.8-1.7l0.3-0.5c0-0.2,0.2-0.2,0.3-0.3c0.2,0,0.3-0.2,0.6-0.2s0.9,0.3,1,0.5
			c0.2,0.3,0.2,0.5,0.2,0.6l-0.2,0.9l-0.6,4.9l-0.3,1.8l-0.2,1V85l-0.2,0.3l-0.3,0.5c-0.2,0.2-0.5,0.3-0.9,0.3c-0.5,0-0.9-0.2-1-0.5
			c-0.5-0.5-0.5-1.5,0-2.1s1.2-0.5,1.8-0.2c0.2,0.2-0.9-0.2-0.5-0.2c0.2,0-0.9,0.2-0.6,0c0.2,0-0.5,0.3-0.5,0.2
			c0.2,0-0.3,0.3-0.2,0.2l-0.2,0.2l-0.2,0.2v0.2l0,0l0.2-1.2l0.5-1.8l1-4.9V76v0.1v0.2v0.2l0.2,0.2l0.2,0.2l0.2,0.2
			c-0.2,0,0.6,0.2,0.5,0.2h0.3c-0.2,0,0.3-0.2,0.3-0.2l0.2-0.2c-0.2,0-0.2,0.2-0.3,0.2l0,0l0,0l-0.3,0.2l-1.8,1.5L658.9,81.3z"/>
		<path class="st0" d="M491.2,236.3h0.2h0.3c0.3,0.2,0.5,0.3,0.6,0.6l0.2,0.9c0.3,1.8,0.3,4.6,0.5,7.3v2.8v2.4l0.2,1.3v0.3v-0.2
			l-0.2-0.2l-0.3-0.2h-0.3h-0.2c0.2,0-0.3,0.2-0.3,0.2l-0.2,0.2l-0.2,0.2l0,0l0,0v-0.2c-0.2-0.3-1.2-1-1.8-1.2l-0.9-0.2l-1.2,1
			l-0.6,0.9l-0.3,0.5l-0.2,0.3v0.2v0.2v0.2l0,0c0.2,0.5,0,1.2-0.5,1.3s-1,0-1.2-0.3l-0.2-0.5l-0.2-0.3v-0.5l0.2-0.9l0.3-0.6l0.5-0.6
			l0.6-0.9c0.6-0.6,1.2-1.7,2.5-1.8c0.9-0.2,1.5,0,2.1,0.2c0.9,0.2,1.8,0.6,2.5,1.3c0.6,0.6,1.3,1.5,1.2,2.7l-0.3,1l-0.3,0.5
			l-0.6,0.3c-0.3,0-0.9-0.2-1.2-0.5c-0.3-0.5-0.3-0.6-0.5-1l-0.2-1.8v-2.4V246c0-2.7,0.2-5.5,0-7.2l-0.2-0.9c0-0.3,0-0.6,0.3-0.9
			L491.2,236.3z M492,237c0,0.2-0.2,0.5-0.3,0.5c-0.2,0-0.5-0.2-0.5-0.3l0,0v-0.3l0.2-0.2c0,0,0.2-0.2,0.5-0.2l0.3,0.3
			c0,0.2,0,0.3-0.3,0.5h0.2V237v-0.1l0,0v0.1H492z"/>
		<path class="st0" d="M569,262.7c0.2,0.2,0,0.5-0.2,0.6c-0.2,0-0.3,0-0.5-0.2s-0.3-0.6-0.2-1c0.2-0.3,0.5-0.5,0.9-0.6h0.2
			c0.5,0,0.6,0.2,1,0.3H570c0.3,0.2,0.5,0.5,0.5,0.9l-0.2,0.9c-0.3,0.3-0.6,0.5-0.9,0.6l-0.9,0.3l-1,0.2c-0.3,0-0.5,0-0.9-0.3
			l-0.2-0.2c-0.3-0.5-0.2-0.9,0-1l0.3-0.5c0.5-0.3,0.9-0.3,1.2-0.2c0.5,0.2,0.6,0.5,0.9,0.6l0.2,0.6c0,0.5-0.3,0.9-0.5,1.2l-1,0.5
			c-0.5,0.2-1.2,0-1.7-0.5c0,0,0-0.2-0.2-0.2c-0.3-0.6-0.2-1.2,0-1.5c0.3-0.6,0.6-1,1-1.2l0.9-0.5c0.6-0.2,1.5-0.2,1.8,0.5v-0.2
			c0.3,0.3,0.5,0.9,0.3,1.3c-0.2,1-1,1.5-1.7,1.8c-0.3,0.2-0.9,0.3-1.2,0.2c-0.6,0-1.2-0.5-1.5-1c-0.2-0.3-0.3-0.9-0.3-1.2
			c0.2-0.6,0.6-1,1-1.2l1-0.3l0.9-0.3c0.5-0.2,1-0.3,1.7,0c0.3,0.2,0.5,0.5,0.5,0.9v0.5c0,1-0.9,1.5-1.7,1.8c-0.2,0.2-0.5,0.3-1,0.2
			c-0.6-0.2-0.9-0.5-0.9-0.9l-0.2-0.6c0-0.6,0.5-1.2,0.9-1.3l1.2-0.5l1-0.2h0.6c0.3,0.2,0.6,0.3,0.6,0.6v0.6
			c-0.2,0.3-0.3,0.5-0.5,0.6l-0.5,0.3l-1.2,0.5l-1,0.2c-0.3,0-0.9-0.2-1.2-0.6c0,0,0,0,0-0.2c-0.2-0.5,0-1,0.2-1.3l0.2-0.2
			c0.6-0.3,1.5-0.2,2.2,0.5c0.2,0.2,0.2,0.3,0,0.5s-0.2,0.2-0.3,0h-0.6h-0.2l0,0c0,0.2,0,0.2-0.2,0.2l0,0v-0.2l-0.2-0.3
			c0,0,0,0,0,0.2l0,0l0,0h0.3l0.6-0.3l0.5-0.3h0.2l0,0v0.2v0.3v0.2C568.8,262.3,569.1,262.8,569,262.7c-0.2,0,0.5,0.2,0.3,0.2l0,0
			H569l-0.9,0.2l-0.6,0.3l-0.2,0.2v-0.2v0.3l0,0l-0.2-0.2l-0.2-0.2l0,0h0.2c0.3-0.2,0.9-0.6,0.9-0.6v-0.2l0,0v0.2l0.2,0.2l0,0
			l-0.5,0.2l-1,0.3l-0.9,0.3h-0.2l0,0v-0.2v0.2l0.2,0.2h0.3l0.9-0.6v-0.2l0.2,0.2l0,0h-0.3l-0.3,0.2l-0.3,0.5v0.2V264v0.2l-0.2-0.2
			h-0.2l0.3-0.2h0.2l0,0v0.2l0,0l0,0h0.2h0.2h-0.2l0,0l0.2-0.2v-0.2l0,0v-0.2v-0.2l-0.2-0.2l0.2,0.2l-0.2-0.2l0,0l0,0h0.6l0.3-0.2
			l0.3-0.2l0,0v0.2l0.2,0.2h0.2H568C569,262.7,569,262.7,569,262.7L569,262.7z"/>
		<path class="st0" d="M569,49c0.2,0.2,0.3,0.5,0.2,0.6c-0.2,0.2-0.5,0.3-0.6,0.2s-0.3-0.5-0.2-0.6C568.6,49,568.7,48.9,569,49h-0.3
			l0,0l0,0C568.9,48.8,569,48.8,569,49c0.2,0,0.2,0,0.2,0.2l0,0L569,49L569,49L569,49z M569.2,50.3c0,0.2-0.2,0.5-0.3,0.5
			s-0.3,0-0.5-0.2c-0.3-0.5,0-1.2,0.3-1.7l0.6-0.5L570,48c0.5-0.2,0.9,0.2,1,0.3c0.2,0.3,0.2,0.5,0,0.9c-0.3,0.6-0.9,0.9-1.2,1
			l-1.5,0.6l-1,0.2h-0.6c-0.3,0-0.6-0.3-0.9-0.6c-0.2-0.3-0.2-0.9-0.2-1.3c0.2-0.9,0.6-1.3,1.2-1.7l1.7-0.9l1.7-0.3h0.9
			c0.5,0.2,0.6,0.5,0.9,0.9l0.2,1c-0.2,1-1,1.3-1.3,1.7c-0.9,0.6-1.8,1.3-3,0.9c-0.9-0.3-1.2-1-1.3-1.8c0-0.5,0-1.2,0.5-1.7
			c0.9-0.6,1.5-0.6,2.2-0.9h1.2c0.2,0,0.5,0,1,0.2c0.5,0.3,0.6,0.6,0.6,1v1c0,0.6-0.5,1.3-0.9,1.8c-0.5,0.5-1,0.9-1.5,1l-1.2,0.2
			h-0.9c-0.9-0.2-1.3-0.9-1.5-1.5c-0.2-0.9,0.2-1.3,0.5-1.7l1.2-0.9l1.2-0.3h0.9c0.5,0.2,0.9,0.6,0.6,1.3c-0.2,0.5-0.3,0.5-0.5,0.6
			l0.2,0.3l-0.9,0.6v0.4c-0.2-0.2-0.5,0-0.6-0.2c-0.3-0.2-0.3-0.6-0.2-1c0.2-0.2,0.2-0.2,0.3-0.2h-0.2l0.9-0.6l0.3-0.2l0,0l0,0v0.2
			v0.2l0.2,0.2l0.2,0.2H570l-0.6,0.2l-0.6,0.5l-0.2,0.2v-0.2l0.2,0.3h0.3l0.5-0.2c0.6-0.3,1.3-1,1.3-1.3v-0.5l0,0l0.2,0.2l0,0h-0.5
			H570l-0.6,0.2l-0.2,0.2l-0.3,0.5l0.2,0.5h0.3l0.9-0.5l0.5-0.5l0.2-0.2l0,0l0,0l0.2,0.2h-0.3l-1.3,0.3l-1.3,0.6l-0.5,0.5v0.5
			l-0.2-0.2h0.2l0.6-0.2l1-0.5l0.5-0.3l0.2-0.2l0,0v0.2v0.2l0.2,0.2l0.3,0.2h0.3l-0.5,0.2l-0.3,0.2L569.2,50.3z"/>
		<line class="st2" x1="501.9" y1="238.3" x2="568.3" y2="197.6"/>
		<path class="st0" d="M553.6,204.9c0,0.2,0.1,0.3,0.3,0.5c0.2,0,0.3-0.1,0.5-0.3c0-0.3,0.1-0.6-0.2-0.9l-0.8-0.4l-2.3-0.4
			c-1.8-0.2-3.7,0-5.4,0.1l-3.9,0.4c0,0-0.2,0-0.2,0.1l-0.2,0.1c-0.2,0.1-0.2,0.3,0,0.3l0,0l0.3,0.2h0.2l3.9-0.4
			c1.7-0.1,3.3-0.3,5.2-0.1l2.2,0.4L553.6,204.9L553.6,204.9z"/>
		<path class="st0" d="M547.9,204.5c-0.2,0-0.5,0-0.5,0.1c0,0.2,0,0.3,0.1,0.5l-0.1-0.2v-0.2l0,0L547,205l-1.4,1.1l-1.5,1.5
			l-1.2,1.7c-0.2,0.1,0,0.3,0,0.3c0.1,0.2,0.2,0,0.3,0l1.5-1.5l1.5-1.5l1.3-1.1l0.4-0.4l0.2-0.3L547.9,204.5z"/>
		<path class="st0" d="M503.4,238.7c-0.2,0.3-0.6,0.5-1,0.2c-0.3-0.2-0.5-0.6-0.2-1l0.3-0.3c0.5-0.3,0.9-0.2,1.2-0.2l0.5,0.2
			c0.2,0.2,0.3,0.3,0.3,0.6v-0.3c0.2,0.5-0.2,0.6-0.3,0.9c-0.3,0.5-0.9,0.6-1.2,0.9l-0.6,0.3c-0.2,0-0.5,0.2-1,0
			c-0.3-0.2-0.5-0.5-0.6-0.6c-0.2-0.5,0-0.9,0-1.2c0.3-0.6,0.6-0.9,1.2-1l1-0.3l0.9-0.2c0.3,0,0.9,0,1.2,0.3
			c0.3,0.3,0.3,0.9,0.3,1.2l-0.2,0.9c-0.3,1-1.3,1.5-2.1,1.8l-1.2,0.3c-0.5,0.2-1.2,0.3-2.1-0.2l-0.2-0.2c-0.5-0.5-0.5-1.2-0.3-1.7
			l0.5-1.2l1-1.2c0.6-0.5,1.3-0.6,2.1-0.6c0.2,0,0.5-0.2,1,0s1,0.5,1.2,1c0.5,1.2,0,2.5-0.9,3.3c-0.5,0.5-1.2,1-1.8,1.3
			s-1.5,0.5-2.2,0.3c-0.9-0.2-1.3-0.9-1.5-1.5s-0.2-1.2-0.2-1.8c0.3-1.2,1-2.1,1.8-2.4c0.9-0.5,1.7-0.6,2.7-0.6c0.5,0,1,0,1.7,0.3
			c0.5,0.2,0.9,0.6,0.9,1.2c0.3,1.3-0.2,3-1.5,4c-1.2,1-2.8,1.5-4.5,0.9c-1.3-0.6-1.7-2.1-1.7-3s0.3-1.5,0.9-2.2
			c0.5-0.6,1.2-1,1.8-1h1.8c0.5,0,1,0,1.7,0.3c0.3,0.2,0.6,0.5,0.9,0.9c0.2,0.5,0.2,1,0,1.5l-0.6,1.2l-1,1l-0.9,0.5l-1.3,0.3h-1.5
			c-0.2,0-0.2,0-0.3-0.2l-0.3-0.2c-0.2-0.2-0.2-0.3-0.2-0.5l0,0l0.3-0.3c0,0,0.2-0.2,0.3-0.2l1.2-0.3l1-0.3l0.5-0.3l0.5-0.5l0.5-0.6
			l0.2-0.3v0.2l0,0l-1-0.2l-1.2,0.2l-0.5,0.3l-0.2,1c0,0.6,0.2,0.9,0.2,0.9c0.5,0.2,1.5,0.2,2.2-0.3c0.3-0.3,0.6-0.9,0.9-1.3v-0.3
			l0,0l0,0h-0.5c-0.5,0-1,0.2-1.5,0.5s-0.6,0.6-0.6,1v0.6l0,0l0,0H501c0.2,0,1.5-0.2,2.1-0.9l0.5-1v-0.3l0.2,0.2l0.3,0.2h-0.2
			L503.4,238.7l-0.6,0.2l-0.5,0.6l-0.2,0.6v-0.2l-0.2-0.2l0.2,0.2l-0.2-0.2h-0.2h0.5l0.9-0.2c0.6-0.2,1-0.5,1-0.6v-0.3l0,0l0,0
			l0.2,0.2l0.2,0.2l0,0l-0.3,0.2l-0.6,0.3l-0.2,0.2l0,0v-0.2v0.3l0,0v-0.2c0,0-0.3-0.3-0.2-0.2H503h-0.2l0.3-0.2l0.9-0.3l0.2-0.2
			l0,0v0.2v0.2v0.2c0-0.2,0.2,0.3,0.2,0.3l0.2,0.2L503.4,238.7L503.4,238.7L503.4,238.7z M503.2,238.2c0.2,0,0.5,0.2,0.5,0.5
			c0,0.2-0.2,0.5-0.5,0.5s-0.9,0-1-0.5c0-0.2,0-0.5,0.3-0.5c0.2,0,0.5,0,0.5,0.3l-0.2-0.2l0,0L503.2,238.2z M503.5,238.3
			c0,0.5-0.3,0.9-0.9,0.9c-0.5,0-0.9-0.3-0.9-0.9c0-0.5,0.3-0.9,0.9-0.9C503.2,237.5,503.5,237.8,503.5,238.3"/>
		<line class="st2" x1="568.5" y1="116.7" x2="645.3" y2="83.7"/>
		<path class="st0" d="M645.1,84c-0.2,0.3-0.5,0.5-1,0.3c-0.3-0.2-0.5-0.5-0.3-1l0,0c0.3-0.6,0.9-0.6,1.2-0.6c0.5,0,1.2,0.2,1.2,1
			c0,0.3-0.2,0.5-0.3,0.6c-0.5,0.3-1,0.6-1.3,0.6l0.2-0.2c-0.2,0.2-0.5,0.2-0.9,0.2s-0.6-0.3-0.6-0.5c0,0-0.2-0.2-0.2-0.3
			c-0.2-0.9,0-1.7,0.6-2.5c0.5-0.6,1.2-1,2.1-1.2h1.3c0.5,0.2,1,0.5,1.2,1c0.5,1.2,0,2.5-0.9,3.6l-1,0.9l-1.2,0.3
			c-0.5,0-1,0-1.5-0.5c-0.6-0.6-0.6-1.5-0.5-2.1c0.2-0.6,0.3-1.2,0.6-1.7c0.5-0.6,1.2-1,1.7-1.2c0.6-0.2,1.2-0.2,1.8-0.2
			c0.2,0,0.6,0,1.3,0.5c0.5,0.5,0.6,1.2,0.6,1.7c0,0.9-0.5,1.7-1.2,2.2c-0.5,0.5-1.3,1-2.1,1.2c-1.7,0.3-3.1-1.2-3.1-2.8
			c0-1,0.3-1.8,0.6-2.5c0.6-1,1.7-1.3,2.7-1.7c1-0.2,1.8-0.3,2.7-0.2c0.6,0,1.3,0.2,1.8,0.6c0.5,0.5,0.9,1.2,0.9,1.8
			c0,1.2-0.5,2.2-1.3,3c-0.6,0.9-1.7,1.7-2.7,2.1l-1.2,0.3c-0.5,0-1,0-1.7-0.2c-0.6-0.3-0.9-0.9-1-1.3l-0.3-1.5c0-0.9,0-1.7,0.3-2.5
			c0.3-0.6,1-1,1.5-1.3l1.5-0.3h1.7c0,0,0.5,0,1,0.3c0.9,0.5,1,1.2,1.2,1.7c0.3,1.2-0.2,2.2-0.9,3s-1.5,1.5-2.4,1.8
			c-0.5,0.3-1.2,0.5-1.8,0.3c-0.2,0-0.6,0-1.2-0.3c-0.9-0.6-1-1.5-1.2-2.2V83l0.2-0.5c0-0.2,0.2-0.2,0.2-0.3l0.6-0.5l0.5-0.2h0.2
			h1.7h0.6h0.2l0.9,0.2c0.2,0,0.3,0.2,0.2,0.3c0,0.2-0.2,0.2-0.2,0.2l-0.9,0.3H647l-0.9,0.2l-0.9,0.2l-0.2,0.2c0,0,0,0-0.2,0.2h0.2
			l0.2-0.2c0,0.2,0.2-0.5,0.2-0.3v-0.3c0,0.2,0,0.3,0,0.3l0,0V83v0.5l0.2,0.6l0.2,0.2l0,0l0,0l0,0h0.2l0.5-0.2
			c0.5-0.2,1.2-0.6,1.5-1.2c0.3-0.5,0.5-0.9,0.5-1l-0.2-0.5v-0.1h0.2h-0.3H647l-0.9,0.2l-0.2,0.2l-0.5,2.1l0.2,0.9l0.2,0.2h-0.2l0,0
			l0.9-0.2c1-0.3,2.5-2.2,2.5-2.8v-0.2l-0.6-0.2l-2.1,0.2c-0.6,0.2-1,0.5-1.2,0.6l-0.3,1c0,0.6,0.3,0.9,0.5,0.9l1-0.5l0.5-0.6v-0.2
			l0,0l0.2,0.2h-0.3c-0.6,0-1.3,0.2-1.5,0.5l-0.3,0.6v0.3v-0.2l0,0h0.5l0.5-0.3c0.2-0.3,0.5-0.9,0.5-1.3v-0.3l0.2,0.2h-1.2l-0.9,0.5
			c-0.3,0.3-0.3,0.9-0.3,0.9c0,0.2,0,0.2,0,0.3l0,0v-0.2c0,0-0.3-0.3-0.2-0.3c0.2,0-0.3-0.2-0.3-0.2h-0.2l0.6-0.2l0.2-0.2l0,0v0.2
			v0.2l0.2,0.3L645.1,84L645.1,84l-0.2,0.2l0,0L645.1,84L645.1,84z M645.1,83.7c0,0.3-0.3,0.6-0.6,0.6s-0.6-0.3-0.6-0.6
			c0-0.3,0.3-0.6,0.6-0.6C645,82.9,645.1,83.3,645.1,83.7"/>
		<rect x="544" y="100.5" class="st3" width="20.9" height="12.7"/>
		<circle cx="568.1" cy="116.4" r="4"/>
		<circle cx="568.3" cy="198.1" r="4"/>
		<text transform="matrix(1 0 0 1 548.6514 110.3448)" class="st4 st5">$b$</text>
		<text transform="matrix(1 0 0 1 579.4209 195.8658)" class="st4 st5">$a$</text>
	</g>
</g>
<text transform="matrix(1.151 0 0 1 462.1973 12.8378)" class="st4 st6">If $n \ge 0, |1-\lambda| = 1$</text>
<text transform="matrix(0.3747 0 0 1 630.7549 59.8714)" class="st1 st4 st6">$\Gamma_\lambda$</text>
</svg>
