<?xml version="1.0" encoding="utf-8"?>
<!-- Generator: Adobe Illustrator 23.0.3, SVG Export Plug-In . SVG Version: 6.00 Build 0)  -->
<svg version="1.1"
	 id="svg8" inkscape:version="0.92.4 (unknown)" sodipodi:docname="figure.svg" xmlns:cc="http://creativecommons.org/ns#" xmlns:dc="http://purl.org/dc/elements/1.1/" xmlns:inkscape="http://www.inkscape.org/namespaces/inkscape" xmlns:rdf="http://www.w3.org/1999/02/22-rdf-syntax-ns#" xmlns:sodipodi="http://sodipodi.sourceforge.net/DTD/sodipodi-0.dtd" xmlns:svg="http://www.w3.org/2000/svg"
	 xmlns="http://www.w3.org/2000/svg" xmlns:xlink="http://www.w3.org/1999/xlink" x="0px" y="0px" viewBox="0 0 680.3 258.2"
	 style="enable-background:new 0 0 680.3 258.2;" xml:space="preserve">
<style type="text/css">
	.st0{fill:none;stroke:#007BC4;stroke-width:2.5;stroke-linecap:round;stroke-miterlimit:10;}
	.st1{fill:none;stroke:#007BC4;stroke-width:2.5;stroke-miterlimit:10;stroke-dasharray:4,4;}
	.st2{fill:none;stroke:#030304;stroke-miterlimit:10;}
	.st3{fill:#030304;}
	.st4{font-family:'ArialMT';}
	.st5{font-size:12px;}
	.st6{fill:none;stroke:#007BC4;stroke-width:1.5;stroke-linecap:round;stroke-miterlimit:10;}
	.st7{font-size:6.778px;}
	.st8{font-size:5.6247px;}
	.st9{fill:none;stroke:#737171;stroke-width:2;stroke-linecap:round;stroke-linejoin:round;stroke-miterlimit:10;}
	.st10{fill:#020203;}
	.st11{font-size:3.405px;}
	.st12{font-size:3.7642px;}
	.st13{font-size:10.4255px;}
	.st14{fill:none;stroke:#F08534;stroke-width:1.5;stroke-miterlimit:10;}
	.st15{fill:#F08534;}
	.st16{font-size:4.0903px;}
	.st17{fill:#007BC4;}
	.st18{fill:none;stroke:#F08534;stroke-width:2.2;stroke-miterlimit:10;}
	.st19{fill:#FFFFFF;}
	.st20{font-size:5.0803px;}
	.st21{font-size:11.25px;}
	.st22{fill:none;stroke:#1D1D1B;stroke-miterlimit:10;}
	.st23{fill:#1D1D1B;}
	.st24{fill:none;stroke:#1D1D1B;stroke-width:0.75;stroke-miterlimit:10;}
</style>
<line class="st0" x1="296.6" y1="169.5" x2="296.7" y2="212.6"/>
<line class="st1" x1="296.4" y1="117.5" x2="296.6" y2="169.5"/>
<line class="st0" x1="296.4" y1="74.4" x2="296.5" y2="117.5"/>
<sodipodi:namedview  bordercolor="#666666" borderopacity="1.0" id="base" inkscape:current-layer="layer1" inkscape:cx="284.27627" inkscape:cy="182.72055" inkscape:document-units="mm" inkscape:guide-bbox="true" inkscape:pageopacity="0.0" inkscape:pageshadow="2" inkscape:window-height="995" inkscape:window-maximized="1" inkscape:window-width="2520" inkscape:window-x="20" inkscape:window-y="65" inkscape:zoom="0.99437388" pagecolor="#ffffff" showborder="true" showgrid="false" showguides="true" width="200mm">
	<inkscape:grid  dotted="false" empspacing="4" id="grid815" spacingx="10" spacingy="10" type="xygrid" units="mm">
		</inkscape:grid>
</sodipodi:namedview>
<g id="layer1" transform="translate(0,-177)" inkscape:groupmode="layer" inkscape:label="Layer 1">
</g>
<g>
	<path class="st2" d="M95,63.9c5.7,16.3,14,46,14.1,84.6c0.1,39.2-8.4,69.3-14.1,85.8"/>
	<text transform="matrix(1 0 0 1 45.5455 17.034)" class="st3 st4 st5">$\mathscr P$</text>
	<line class="st6" x1="137.5" y1="60.7" x2="160.6" y2="104.7"/>
	<line class="st6" x1="123.5" y1="237" x2="163.9" y2="174.2"/>
	<text transform="matrix(1 0 0 1 74.5516 44.6142)" class="st3 st4 st7">$\mathscr P_\eta$</text>
	<text transform="matrix(1 0 0 1 140.8572 44.3065)" class="st3 st4 st8">$\mathscr P_s$</text>
	<rect x="45.5" y="25.7" class="st9" width="151" height="221.6"/>
	<text transform="matrix(1.151 0 0 1 61.3584 73.164)" class="st10 st4 st11">$\infty$</text>
	<text transform="matrix(1.151 0 0 1 61.3584 92.163)" class="st10 st4 st12">$1$</text>
	<text transform="matrix(1.151 0 0 1 151.3769 67.8886)" class="st10 st4 st13">$b$</text>
	<text transform="matrix(1.151 0 0 1 151.3769 225.6161)" class="st10 st4 st13">$a$</text>
	<line class="st14" x1="89.4" y1="76.2" x2="157.7" y2="76.2"/>
	<line class="st14" x1="92.3" y1="88.8" x2="160.6" y2="88.8"/>
	<text transform="matrix(1.151 0 0 1 61.3593 187.3817)" class="st10 st4 st11">$\lambda$</text>
	<text transform="matrix(1.151 0 0 1 61.3584 207.622)" class="st10 st4 st12">$0$</text>
	<line class="st14" x1="99" y1="191" x2="167.3" y2="191"/>
	<line class="st14" x1="97" y1="203.6" x2="165.2" y2="203.6"/>
	<text transform="matrix(1.151 0 0 1 105.4472 70.8827)" class="st15 st4 st16">$\overline{\delta}$</text>
	<line class="st6" x1="141.5" y1="121.6" x2="161.1" y2="92.1"/>
	<line class="st6" x1="161.1" y1="187.3" x2="141.5" y2="157.9"/>
	<line class="st6" x1="141.5" y1="176.6" x2="161.1" y2="147"/>
	<line class="st6" x1="161.1" y1="130.9" x2="141.5" y2="101.4"/>
	<g>
		<text transform="matrix(1.151 0 0 1 146.9101 143.3329)" class="st17 st4 st13">$\vdots$</text>
	</g>
	<circle class="st15" cx="99.1" cy="76.2" r="2.6"/>
	<circle class="st15" cx="102.1" cy="88.8" r="2.6"/>
	<circle class="st15" cx="105.8" cy="191" r="2.6"/>
	<circle class="st15" cx="103.6" cy="203.6" r="2.6"/>
</g>
<g>
	<g>
		<path class="st3" d="M567.5,25c0-0.3,0.2-0.5,0.5-0.5s0.5,0.2,0.5,0.5v211.4c0,0.3-0.2,0.5-0.5,0.5s-0.5-0.2-0.5-0.5V25z"/>
		<path class="st3" d="M594.8,227.8c0.2-0.2,0.5,0,0.6,0.2c0.1,0.2,0,0.5-0.2,0.6c-0.2,0.2-0.5,0-0.6-0.2c0-0.2,0-0.3,0-0.5v0.2v0.2
			v0.2l-0.3-0.3c-0.2-0.2-0.2-0.3,0-0.3c0,0,0.2-0.2,0.3,0l0.3,0.2l0,0l0,0L594.8,227.8L594.8,227.8z M568.9,215.3
			c-0.2,0-0.2-0.2-0.2-0.3v-0.3c0-0.2,0.2-0.3,0.5-0.3c0.9-0.2,1.5,0.3,2.2,0.9c2.5,1.5,5.2,2.4,7.9,4l3.7,2.4l3.7,2.4
			c1.2,0.9,2.7,1.7,4.3,2.2l2.7,1l0.9,0.5l0.9,0.5c0.2,0,0.2,0.2,0.2,0.2l0.2,0.5v0.2c0,0.2,0,0.3-0.2,0.5h-0.2
			c-0.3,0.2-0.3,0.2-0.5,0c-0.2,0-0.2,0-0.3-0.2l-0.9-0.5l-0.6-0.3l-2.5-0.9c-1.8-0.5-3.3-1.3-4.9-2.4l-3.6-2.4l-3.7-2.4
			c-2.7-1.5-5.2-2.5-7.9-4l-1.3-0.6C569,215.4,568.9,215.3,568.9,215.3L568.9,215.3z"/>
		<path class="st3" d="M582.3,233.5c0.3,0,0.5,0.3,0.5,0.6s-0.3,0.5-0.6,0.5s-0.5-0.3-0.5-0.6c0-0.2,0.2-0.3,0.3-0.3h-0.2l0,0v-0.2
			l1-1.3c0.2-0.2,0.3-0.2,0.3,0c0.2,0,0.2,0.2,0.2,0.3l-0.5,1.3v-0.2l-0.2-0.2h-0.2V233.5z M585.6,224.3c0.2,0,0.3,0.3,0.3,0.5
			c0,0.2-0.2,0.3-0.3,0.3h0.2l0,0v0.2l-0.2,0.6l-0.5,2.4l-0.6,2.1l-0.3,1.5l-0.5,1.5l-0.6,1.2c-0.2,0.2-0.2,0.2-0.3,0.2
			s-0.3,0.2-0.5-0.2c-0.2-0.2-0.3-0.3-0.3-0.5v-0.2c0-0.2,0.2-0.2,0.2-0.3l0.3-0.6l0.5-1.5l0.5-1.5l0.6-2.1l0.9-2.4l0.3-0.9l0.2-0.3
			H585.6z"/>
		<path class="st3" d="M608.5,221.7c0.2,0,0.3,0.3,0.2,0.5c0,0.2-0.3,0.3-0.5,0.2c0,0-0.2,0-0.2-0.2l0,0l0,0h-0.3l-1.3,0.3
			c-0.2,0-0.3,0-0.3-0.2c0-0.2,0-0.3,0.2-0.3l1.3-0.5L608.5,221.7z M590.5,227.1c0,0.2-0.3,0.3-0.5,0.2c-0.2,0-0.3-0.3-0.2-0.5l0,0
			l0.6-0.6c0.3-0.3,1-0.9,1.8-1.2l2.7-0.6l8.2-2.1l3.1-0.6l1.3-0.2h0.2l0.5,0.2l0.2,0.2l0.2,0.2v0.5c-0.2,0.3-0.5,0.5-0.6,0.6h-0.2
			l-1.3,0.2l-3.1,0.5l-8.4,1.8l-2.5,0.5l-2.1,0.5V227.1z"/>
		<path class="st3" d="M592.1,208.3c0.2-0.2,0.5,0,0.6,0.3c0.2,0.2,0,0.5-0.3,0.6c-0.2,0-0.2,0-0.3,0s-0.9-0.2-1.7-0.5
			c-0.2,0-0.2-0.2-0.2-0.3c0-0.2,0.2-0.2,0.3-0.2C591.5,208.6,592.1,208.6,592.1,208.3 M570.5,207.1c-0.2,0-0.3-0.2-0.5-0.3
			c0-0.2,0.2-0.3,0.3-0.5c2.2-0.3,4.5,0,7.2,0.3c1.5,0.2,2.7,0.6,4.5,1.2c1.5,0.3,3.6,0.5,5.5,0.5h2.4h0.6h0.9h0.9
			c0.3,0,0.6,0.3,0.6,0.6s-0.3,0.6-0.6,0.6h-1h-0.9h-0.6h-2.4c-2.1,0-4.2-0.2-5.8-0.6c-1.8-0.5-3-1-4.3-1.2
			C574.8,207.2,572.4,206.8,570.5,207.1 M593.2,208.9c0,0.3-0.3,0.6-0.6,0.6s-0.6-0.3-0.6-0.6s0.3-0.6,0.6-0.6
			S593.2,208.6,593.2,208.9"/>
		<path class="st3" d="M590.2,208c0.2-0.2,0.3,0,0.5,0.2c0.2,0.2,0,0.3-0.2,0.5c-0.2,0-0.2,0-0.3,0l0,0l0,0H590h0.2l0,0v-0.2
			l-0.2-0.2h-0.2h0.2h-0.2h-0.2h0.2l0.5-0.2l2.5-1.3l3.9-1.7l5.1-2.1l8.4-3l3-1.3l1-0.5l0.6-0.3l0.2-0.2l0,0v0.2v0.2v0.2l0.2,0.2
			h0.2l0,0h-0.2l-1,0.5c-0.2,0-0.3,0-0.3-0.2c0-0.2,0-0.3,0-0.3l1-0.6l0.2-0.2c0,0,0-0.2,0.3-0.2c0.2,0,0.3,0.2,0.5,0.3v0.3
			l-0.2,0.3l-0.6,0.5l-1.2,0.6l-3.1,1.3l-8.4,3l-5.2,1.8l-3.9,1.5l-2.7,1.2l-0.5,0.2l-0.3,0.2c-0.2,0-0.3,0-0.5-0.2l-0.2-0.2v-0.5
			l0.2-0.2l0.3-0.3h-0.2L590.2,208L590.2,208z M590.6,208.6c-0.2,0.2-0.3,0.3-0.5,0.2c-0.2-0.2-0.3-0.3-0.2-0.5c0,0,0-0.2,0.2-0.2
			c0.2-0.2,0.3-0.2,0.5,0c0,0,0,0.2,0.2,0.2v0.2L590.6,208.6z"/>
		<path class="st3" d="M608.4,203.5c0.2,0,0.3,0.2,0.3,0.3c0,0.2-0.2,0.3-0.3,0.3h-1.7h0.2l-0.2,0.2l0,0v-0.2v0.2v-0.2l0.2,0.3
			l0.5,0.9l4,8.7l2.4,4.2l0.9,1.8l0.3,1v0.2v1.2c-0.2,0.3-0.5,0.5-0.9,0.5c-0.3-0.2-0.5-0.3-0.5-0.6l0,0l0.2-1
			c0.2-0.5,0.3-0.9,0.9-1.2c0.2-0.2,0.3-0.2,0.3,0c0.2,0.2,0.2,0.2,0,0.3l-0.3,1v0.5v0.2l0,0l-0.6,1c-0.5-0.2-0.3-0.5-0.5-0.6
			l-0.2-0.5v-0.2l-0.2-0.9l-0.9-1.7l-2.4-4.2l-3.7-8.7l-0.3-1v-0.5l0.2-0.6c0,0,0,0,0.2,0c0.3-0.2,0.5,0,0.5,0h0.2h-0.2L608.4,203.5
			z"/>
		<path class="st3" d="M611.5,202.3c-0.2,0-0.3-0.3-0.3-0.5c0,0,0,0,0-0.2l0.2-0.2l0.2-0.2l1.2-0.3l3.3-0.6l5.5-1.3l6.9-1.5
			c3.1-0.5,6.4-0.6,8.7-0.9l2.7-0.2h0.5h0.2h0.2l-0.2,0.2l-0.2,0.2v0.2l-0.3-0.3l-0.3-0.3h-0.2l-0.2,0.2c0,0.2-0.2,0.2-0.3,0.2
			s-0.2-0.2-0.2-0.3l0.3-0.5l0.5-0.2c0.3,0,0.6,0.2,1,0.3l0.6,0.6l0.2,0.5c0,0.2,0,0.5-0.3,0.9c0,0,0,0-0.2,0.2
			c-0.5,0.2-0.9,0.2-1.2,0.2l-2.8,0.2c-2.5,0.2-5.5,0.3-8.5,0.9l-6.7,1.3l-5.7,1.3l-3.3,0.5l-1.2,0.2L611.5,202.3L611.5,202.3z
			 M611.9,201.3c0.2,0,0.3,0.2,0.3,0.3s-0.2,0.3-0.3,0.3h-0.2l0,0h0.2c-0.2,0.2-0.5,0-0.6-0.2c-0.1-0.2,0-0.5,0.2-0.6
			C611.5,201.3,611.9,201.3,611.9,201.3L611.9,201.3L611.9,201.3L611.9,201.3z"/>
		<path class="st3" d="M628.6,215c0,0.3-0.3,0.5-0.6,0.5s-0.5-0.3-0.5-0.6s0.3-0.5,0.6-0.5C628.5,214.4,628.6,214.6,628.6,215v-0.3
			v-0.2v-0.2h-0.2l0,0h0.2c0.2,0,0.3,0,0.3,0.2v0.2L628.6,215L628.6,215z M619.1,201.7c-0.2,0.2-0.3,0.2-0.5-0.2
			c-0.2-0.2-0.2-0.3,0-0.5c0.5-0.5,1.2-0.5,1.7-0.3s1,0.6,1.5,1.2c1,1,1.8,2.5,2.7,4l2.7,4.9l1,2.2l0.3,0.5l0.2,0.9v0.2
			c0.2,0.3,0,0.6-0.2,0.9l0,0c0,0-0.2,0-0.2,0.2h-0.2c-0.3,0-0.6-0.2-0.9-0.3l-0.2-0.9l-0.2-0.5v-0.5l-1-2.1l-2.7-4.9
			c-0.6-1.5-1.5-3-2.2-4l-1-1C619.6,201.3,619.4,201.3,619.1,201.7"/>
		<path class="st3" d="M569.9,187c-0.2,0-0.5,0-0.5-0.3c0-0.2,0-0.3,0.2-0.5l1.2-0.3l2.4-0.5l2.8-0.3l3-0.2c1.5,0,3.1-0.2,5.5-0.5
			l5.7-1.2l11.3-2.5l12.7-2.7l6-1.3l4.3-0.9c1.8-0.3,2.8-0.3,3.9-0.3c2.2,0.2,5.2,0.2,8,0h4.5l2.1,0.3l0.9,0.2
			c0.9,0.2,2.1,0.2,3.1,0.2l1.8-0.5l1.2-0.3l0,0l-0.2,0.2v0.2v0.2l0,0l0,0l0,0h-1c-0.2,0-0.3-0.2-0.3-0.3c0-0.2,0.2-0.3,0.3-0.3h1
			h0.2h0.2l0.2,0.5l-0.2,0.2c-0.3,0.2-0.9,0.3-1.3,0.5l-2.1,0.5c-1.2,0.2-2.5,0-3.6-0.3l-0.9-0.3l-1.7,0.2h-4.5
			c-2.8,0.2-5.8,0.2-8.2,0c-0.9,0-1.7,0-3.6,0.3l-4.3,0.9l-6,1.3l-12.4,3.1l-11.5,2.4l-5.7,1.2c-2.4,0.3-4.2,0.5-5.7,0.5h-3
			l-2.8,0.3l-2.4,0.3L569.9,187z"/>
		<path class="st3" d="M651.9,191.2c0.2-0.2,0.5-0.2,0.6,0.2c0.2,0.2,0.2,0.5-0.2,0.6c-0.2,0.2-0.5,0.2-0.6-0.2l-1-0.9
			c-0.2-0.2-0.2-0.3,0-0.3c0-0.2,0.2-0.2,0.3,0L651.9,191.2h0.3H652H651.9z M643.5,177.4c0,0.2-0.2,0.3-0.3,0.5
			c-0.2,0-0.3-0.2-0.3-0.3v-0.2v-0.3l0.3-0.3h0.3l0.2,0.2l0.6,0.9l2.1,3.6l2.7,4.5c0.6,1.2,1.5,2.2,2.2,3l1.3,1.5l0.2,0.3
			c0,0.2,0.2,0.2,0.2,0.5c0,0.5-0.2,0.9-0.6,0.9c-0.5,0-0.9-0.2-0.9-0.6v0.2v0.2l0,0l-0.2-0.2L650,190c-0.6-0.9-1.5-2.1-2.2-3.3
			l-2.4-4.5l-1.8-3.6l-0.5-0.9l0,0l0,0h0.2h0.2h0.2L643.5,177.4L643.5,177.4L643.5,177.4z M653.1,191.5c0,0.5-0.3,0.9-0.9,0.9
			s-0.9-0.3-0.9-0.9c0-0.5,0.3-0.9,0.9-0.9S653.1,191,653.1,191.5"/>
		<path class="st3" d="M642,193.5c0.3,0.2,0.3,0.5,0.2,0.9s-0.5,0.3-0.9,0.2s-0.3-0.5-0.2-0.9c0.2-0.2,0.2-0.2,0.3-0.2l0,0h-0.2
			l-0.2,0.2v0.2v-1c0-0.2,0-0.3,0.2-0.3c0.2,0,0.2,0,0.3,0.2L642,193.5L642,193.5L642,193.5L642,193.5L642,193.5z M636.2,178.8
			c0.2,0,0.5,0.2,0.5,0.3l0,0v0.2l0.2,1.3c0.3,2.2,1.3,5.2,2.5,7.9c0.6,1.3,1.3,2.4,1.8,3.1l0.6,1l0.3,0.9c0,0.2,0,0.3,0,0.3
			l-0.2,0.3c-0.2,0.2-0.3,0.3-0.5,0.3c-0.3,0-0.5-0.2-0.5-0.2c-0.2-0.2-0.2-0.2-0.2-0.3l-0.2-0.6l-0.6-1c-0.5-0.9-1.3-2.1-1.8-3.3
			c-1.3-2.8-2.2-6-2.5-8.2v-1.5v-0.3C635.7,178.9,635.7,178.8,636.2,178.8 M636.7,179.4c0,0.2-0.2,0.3-0.3,0.5
			c-0.2,0-0.3-0.2-0.3-0.3v-0.2l0,0l0,0h0.2h0.2c-0.2,0-0.5-0.2-0.5-0.3s0.2-0.5,0.3-0.5s0.5,0.2,0.5,0.3v0.2v0.3H636.7z"/>
		<path class="st3" d="M663.1,165.7c0.2-0.3,0.5-0.5,0.6-0.3c0.3,0.2,0.5,0.5,0.3,0.6c-0.2,0.3-0.5,0.5-0.6,0.3
			c-0.2,0-0.3-0.2-0.3-0.5v0.2l0.2,0.2l0,0h-0.9c-0.2,0-0.3-0.2-0.3-0.3s0-0.2,0.2-0.3l0.9-0.3L663.1,165.7L663.1,165.7L663.1,165.7
			z M647.6,175.9c-0.2,0.2-0.5,0-0.6-0.2v-0.2l0,0l0.3-0.3l0.3-0.2l3.3-2.1l4.9-3l3.9-2.2l2.8-1.7l1-0.5c0.2-0.2,0.3-0.2,0.5-0.2
			h0.2c0.2,0.2,0.3,0.2,0.3,0.5v0.3c0,0.2-0.2,0.3-0.3,0.5l-1,0.6l-2.8,1.7l-3.9,2.1l-4.9,2.8l-3.3,2.1L647.6,175.9L647.6,175.9z
			 M647.7,175.1c0.2,0,0.3,0.2,0.5,0.3c0,0.2-0.2,0.3-0.3,0.5l-0.3,0.2h-0.2c-0.2,0-0.5-0.2-0.5-0.5c0-0.2,0.2-0.5,0.5-0.5
			c0.2,0,0.3,0.2,0.3,0.3V175.1L647.7,175.1h-0.2H647.7z"/>
		<path class="st3" d="M623.6,177.9c0.2,0.2,0.2,0.3,0,0.5c-0.2,0.2-0.3,0.2-0.5,0l-0.3-0.5l0.2-0.5l0.9-1.2
			c0.9-0.9,2.2-1.8,3.9-3.1l7.7-5.4l4.9-3c3.7-2.2,8-4.2,11.5-6l3.6-2.1c1.5-0.9,2.5-1.3,3.3-1.7l4.9-1.8l1.3-0.5l2.1-1.2l1-0.6
			l0.2-0.2l-0.2,0.2v0.2v0.3l0.2,0.2l0.2,0.2h-0.2l-2.7,0.3c-0.2,0-0.3,0-0.3-0.2c0-0.2,0-0.3,0.2-0.3l2.8-0.9l0.6-0.2
			c0.2,0,0.3,0,0.5,0.3s0.2,0.5,0,0.6c0,0,0,0.2-0.2,0.2c-0.3,0.5-0.9,0.6-1.3,1.2l-2.2,1.2l-1.5,0.5l-4.9,1.7
			c-0.9,0.3-1.7,0.6-3.1,1.7l-3.6,2.1c-3.6,1.8-7.9,3.9-11.5,6l-4.9,2.8l-7.7,5.2c-1.7,1.2-3,2.2-3.9,3l-0.6,0.9L623.6,177.9
			L623.6,177.9z"/>
		<path class="st3" d="M617.9,192.5c0.2,0.3,0.2,0.6-0.2,0.9c-0.4,0.2-0.6,0.2-0.9-0.2c-0.2-0.2-0.2-0.3-0.2-0.5v0.2v0.2
			c0-0.2-1.3-1-1.8-2.1c0-0.2,0-0.3,0.2-0.3s0.3,0,0.3,0l1.3,1l0.6,0.3L617.9,192.5z M605.4,183.6c0,0.2-0.2,0.3-0.5,0.3
			c-0.2,0-0.3-0.2-0.3-0.3l0.2-0.5l0.3-0.2h0.6l1.8,0.6c0.9,0.3,1.7,0.9,2.5,1.5c1,0.9,1.7,1.8,2.4,2.8l1.5,2.1c0.9,1,2.2,1.5,3,1.8
			l0.6,0.3l0.2,0.2l0,0c0.2,0.3,0.2,0.6,0,0.9c0,0,0,0-0.2,0h-0.2h-0.3l-0.5-0.2c-0.9-0.3-2.5-1-3.7-2.2l-1.5-2.2
			c-0.6-1.2-1.3-2.2-2.1-2.8c-0.6-0.6-1.3-1-2.2-1.5L605.4,183.6l-0.5-0.2l0,0L605.4,183.6L605.4,183.6z"/>
		<path class="st3" d="M591.2,185.5c0-0.2,0.2-0.3,0.3-0.5c0.2,0,0.3,0,0.3,0.2l-0.2-0.2h-0.2h-0.2l0.2-0.2l1-1.3l1.3-2.2l1.7-2.4
			l4-4.5c1.7-1.8,2.5-2.5,3.9-3c0.2,0,0.3,0,0.3,0.2s0,0.3-0.2,0.3c-0.6,0.3-1,0.6-1.3,1.2l-1.7,2.2l-4.2,4.5l-1.7,2.2l-1.5,2.1
			l-1.2,1.3l-0.5,0.3h-0.5L591.2,185.5z"/>
		<path class="st3" d="M612.2,186.1c0.2-0.2,0.3-0.2,0.5,0c0.2,0.2,0.2,0.3,0,0.5l0,0v-0.2v-0.2l-0.2-0.2h-0.2h0.2l1.5-0.5l3-1.2
			l1.8-0.9l1.2-0.6c0.2-0.2,0.3-0.2,0.5-0.2h0.2h0.2l0.2,0.2c0,0.2,0,0.3,0,0.5c-0.3,0.5-0.6,0.9-1.3,1.2l-2.1,0.9l-3.1,1l-1.7,0.5
			h-0.3l-0.3-0.2c-0.2-0.2,0-0.5,0-0.5l0,0H612.2z"/>
		<path class="st3" d="M569.4,151.7c0.2,0,0.3,0,0.5,0.3c0,0.2,0,0.3-0.3,0.5c-0.2,0-0.2,0-0.3,0l-0.3-0.2c-0.2,0-0.2-0.2-0.2-0.3
			l0.2-0.2L569.4,151.7z"/>
		<path class="st3" d="M569.2,152.3c-0.2,0.2-0.5,0-0.5-0.2c-0.2-0.2,0-0.5,0.2-0.5s0.3,0,0.3,0h0.2c0.2,0.2,0.2,0.3,0.2,0.5
			C569.4,152.1,569.4,152.1,569.2,152.3L569.2,152.3z"/>
		<path class="st3" d="M569.9,151.2c0.2,0,0.3,0.2,0.3,0.5c0,0.2-0.2,0.3-0.5,0.3h-0.1l-0.2-0.3l0.2-0.3L569.9,151.2l1-0.2l5.4-0.2
			l4.2-0.3l2.5-0.2l4.6-0.6l3.9-0.6l6.4-1l7.3-1.8l6-1.2l7.9-1.3l6.7-1l6.9-0.9l4.6-0.3h4.5h2.8c2.7-0.2,5.7-1,8.7-0.5
			c1.3,0.2,2.7-0.2,4-0.3c1.7-0.3,3.6-0.6,5.4-0.9h2.7l2.1-0.2h0.2h0.2l0,0h-0.2l-0.2,0.2v0.2v0.2l-0.2-0.2l-0.9-0.3
			c-0.2,0-0.2-0.2-0.2-0.3c0-0.1,0.2-0.2,0.3-0.2l1.3,0.3l0.2,0.2l0.2,0.5c0,0.3-0.3,0.5-0.5,0.6h-0.2c-0.6,0.2-1.5,0.2-2.4,0.2
			h-2.7c-1.7,0.2-3.6,0.5-5.2,0.9c-1.3,0.2-2.8,0.5-4.3,0.3c-2.7-0.3-5.5,0.5-8.4,0.5h-3H637l-4.5,0.3l-6.9,0.9l-6.7,1l-7.7,1.2
			l-6,1.2c-2.5,0.5-5.1,1.3-7.6,1.7l-6.4,1l-4,0.6l-4.6,0.6l-2.5,0.2l-4.1,0.2h-5.4h-0.9h-0.2l0,0l0.3,0.2v-0.2V151.2L569.9,151.2
			L569.9,151.2z"/>
		<path class="st3" d="M664.4,130.9c0.2-0.2,0.3-0.2,0.5,0c0.2,0.2,0.2,0.3,0,0.5c0,0,0,0-0.2,0l-0.3,0.2c-0.2,0.2-0.3,0-0.3,0
			c0-0.2,0-0.3,0-0.3L664.4,130.9z M653.7,140.1c0,0.2-0.2,0.3-0.5,0.3c-0.2,0-0.2,0-0.2-0.2l-0.2-0.3v-0.2l0.2-0.3l0.5-0.5
			c1.7-1.3,4.5-2.7,6.9-4.5c1.2-0.9,2.1-1.8,2.8-2.5l0.6-0.9l0.2-0.2l0,0v0.2v0.2c0-0.3,0.2-0.6,0.5-0.9c0.3,0,0.6,0.2,0.9,0.5l0,0
			v0.2l-0.2,0.3l-0.2,0.3l-0.9,1c-0.9,0.9-1.8,1.7-3,2.7c-2.5,1.8-5.5,3.1-7,4.3L653.7,140.1L653.7,140.1L653.7,140.1L653.7,140.1z
			 M665.5,131.1c0,0.3-0.3,0.6-0.6,0.6s-0.6-0.3-0.6-0.6c0-0.3,0.3-0.6,0.6-0.6S665.5,130.8,665.5,131.1"/>
		<path class="st3" d="M665.5,149.6c0.2,0.3,0,0.6-0.3,0.9c-0.3,0.2-0.6,0-0.9-0.3c0-0.2,0-0.2,0-0.3v0.2l0,0l0,0l-0.5-0.3l-1.3-0.5
			c-0.2,0-0.2-0.2-0.2-0.3c0-0.1,0.2-0.2,0.3-0.2l1.7,0.3l0.9,0.3l0.3,0.2V149.6z M654.9,143.6c0,0.2-0.2,0.3-0.3,0.5
			c-0.2,0-0.3-0.2-0.5-0.3l-0.2-0.9c0-0.3,0.2-0.5,0.5-0.6c0.3-0.1,0.5,0,0.9,0l0.6,0.3c0.6,0.5,1.2,1.2,1.8,2.1l1.8,2.4
			c0.9,0.9,2.1,1.5,3,2.1l1.2,0.3h0.6h0.2h-0.2c0.3-0.2,0.9,0,1,0.3c0.2,0.3,0,0.9-0.3,1l0,0l-0.9,0.2l-0.8-0.3l-1.3-0.5
			c-1.2-0.5-2.5-1.3-3.6-2.4l-1.8-2.5l-1.5-1.8l-0.3-0.3h-0.2h0.2V143.6z M665.8,150c0,0.5-0.3,0.9-0.9,0.9s-0.9-0.3-0.9-0.9
			c0-0.5,0.3-0.9,0.9-0.9S665.8,149.4,665.8,150"/>
		<path class="st3" d="M642.2,154.8c0.2,0,0.5,0.2,0.5,0.3c0,0.1-0.2,0.5-0.3,0.5s-0.3,0-0.3-0.2l-0.6-0.9V154v0.2l0,0l-0.2-0.3
			c0-0.2,0-0.3,0.2-0.3s0.3,0,0.3,0.2c0.2,0.2,0.3,0.3,0.3,0.6v-0.2l0.2,0.2v0.4h0.2l0,0H642.2L642.2,154.8z M633.3,142.6
			c0.2,0,0.3,0.2,0.3,0.3c0,0.2-0.2,0.3-0.3,0.3l0,0v0.2l0.3,1c0.3,1,1,2.2,2.1,3.6c1,1.5,2.4,2.7,3.6,3.7l1.8,1.3l0.6,0.3
			c0.5,0.3,1,0.9,1.3,1.3c0.2,0.3,0.2,0.9-0.2,1c-0.3,0.2-0.9,0.2-1-0.2l-0.9-0.9l-0.6-0.3l-2.1-1.5c-1.2-1-2.5-2.4-3.7-4
			c-0.9-1.3-1.5-2.8-1.8-3.9l-0.2-1.5l0.2-0.6L633.3,142.6z"/>
		<path class="st3" d="M630,142.1c0.2,0,0.3,0.3,0.3,0.5c0,0.2-0.2,0.3-0.3,0.3s-0.3-0.2-0.3-0.3v-0.3l0.2-0.3l0.6-0.6l2.5-2.4
			l2.4-2.7l3-3.3l1.7-1.3l1.7-1.2l1.2-0.2h0.5l0.2,0.3v0.3c-0.2,0.2-0.3,0.2-0.3,0c0,0,0,0,0-0.2l0.2,0.2h0.2l-0.2,0.2l-0.9,0.3
			l-1.3,1l-1.5,1.3l-3,3.3l-2.5,2.7l-2.5,2.4l-0.6,0.6l-0.2,0.2l0,0v-0.2v-0.2L630,142.1L630,142.1z"/>
		<path class="st3" d="M637.6,116.3c0.2,0.2,0.2,0.3,0,0.5s-0.3,0.2-0.5,0c0,0,0-0.2-0.2-0.2v0.2l0.2,0.2l0,0l0,0l-0.3,0.2l-0.9,0.6
			c-0.2,0.2-0.3,0.2-0.3,0c-0.2-0.2-0.2-0.3,0-0.3l1-0.9l0.5-0.2h0.2C637.1,116.3,637.3,116.2,637.6,116.3 M617.1,144.8
			c0.2,0,0.5,0,0.5,0.3c0,0.2,0,0.3-0.2,0.5h-0.3l-0.3-0.2c-0.2-0.2-0.2-0.5-0.2-0.6c0-0.5,0.3-1.2,0.6-1.8l1.5-2.8l2.2-3.9
			c1.8-3,4-5.5,5.7-7.3l3.9-4.3l3.1-4l1.3-1.8l1-1.5l0.6-0.5l0.2-0.2l0,0l0,0c0.2,0,0.5,0,0.5,0.2l0,0v0.2v0.2l-0.2,0.2l-0.3,0.5
			l-1,1.5l-1.2,2.1l-3.1,4l-4,4.5c-1.7,1.7-4,4.2-5.7,7l-2.2,3.7l-1.7,2.8L617.1,144.8L617.1,144.8L617.1,144.8L617.1,144.8
			L617.1,144.8z"/>
		<path class="st3" d="M629.7,127.5c-0.2,0-0.3-0.3-0.2-0.5c0-0.2,0.2-0.3,0.3-0.2l0,0l0.3-0.2l0.9-0.5l2.5-1.2
			c2.2-0.9,4.2-1.3,6-1.5l3.3-0.3h0.2l0.6,0.2c0.2,0,0.3,0.2,0.3,0.3c0,0,0,0.2-0.2,0.2l-0.6,0.3h-0.2l-3.3,0.3
			c-1.7,0.2-3.7,0.5-5.7,1.3l-2.4,1l-0.9,0.3C630.1,127.5,630,127.7,629.7,127.5"/>
		<path class="st3" d="M622.1,163.7c0.3,0,0.3,0.3,0.3,0.5c0,0.3-0.3,0.3-0.5,0.3c-0.3,0-0.3-0.3-0.3-0.5c0,0,0,0,0-0.2v0.2v0.2
			l-1.3-1.2c-0.2-0.2-0.2-0.3,0-0.3c0.2-0.2,0.2-0.2,0.3,0c0.5,0.3,1.3,0.5,1.7,1L622.1,163.7L622.1,163.7z M604.7,149.9
			c-0.2,0-0.3-0.2-0.3-0.3c0-0.1,0.2-0.3,0.3-0.3c0.3,0,0.6,0,1,0.3l0.9,0.9l2.2,2.4c1.7,1.8,4.6,3.9,7.6,5.8l3.3,2.7l1.2,1l1.3,1.3
			c0,0,0,0,0.2,0.2l0.2,0.2l0,0c0.2,0.2,0.2,0.2,0.2,0.3c0,0.5-0.2,0.5-0.3,0.6c-0.3,0.2-0.6,0-0.9-0.2c0,0-0.2,0-0.2-0.2l-1.5-1.3
			l-1-1l-3.1-2.7c-2.8-2.1-5.8-4.2-7.6-6.2l-2.1-2.5l-0.6-0.6L604.7,149.9z"/>
		<path class="st3" d="M627.8,151.8c-0.2-0.2,0-0.5,0.2-0.5c0.2-0.2,0.5,0,0.5,0.2c0.2,0.2,0,0.5-0.2,0.5h-0.2h0.2l0,0h-0.2l-1,0.5
			c-0.2,0-0.3,0-0.3-0.2s0-0.3,0.2-0.3l1-0.6l0,0l0,0v0.2L627.8,151.8L627.8,151.8z M617.3,160c0.2,0,0.3,0.3,0.2,0.5
			c0,0.2-0.3,0.3-0.5,0.2l-0.9-0.5l-0.3-0.9c0-0.6,0.5-1.3,1.2-2.1c1-1,2.4-1.8,3.9-2.7l2.2-1.2l3.1-1.7l1-0.5
			c0.3-0.2,0.3-0.2,0.9-0.2l0.3,0.2c0,0.2,0,0.3,0,0.5l-0.2,0.2l-1.3,0.9l-3.3,1.7l-2.2,1c-1.5,0.9-2.8,1.5-3.9,2.4
			c-0.6,0.5-1,1-1,1.3l0.2,0.3L617.3,160z"/>
		<path class="st3" d="M614.5,161.2c-0.2-0.2-0.2-0.3,0-0.5c0.2-0.2,0.3-0.2,0.5,0c1,0.6,1.5,2.1,2.1,3.3l0.3,2.8l0.2,2.1l0.2,0.6
			c0,0.2,0,0.2,0,0.3v0.2c0.2,0.2,0.2,0.3,0,0.3l0,0h-0.6c-0.2,0-0.2-0.2-0.2-0.2l-0.5-1l-0.2-2.2l-0.3-2.7
			C615.4,163,614.9,161.7,614.5,161.2"/>
		<path class="st3" d="M568.3,129.6c-0.3,0.2-0.5,0-0.6-0.3c-0.2-0.3,0-0.5,0.3-0.6l93.9-34.9c0.3-0.2,0.5,0,0.6,0.3
			c0.2,0.3,0,0.5-0.3,0.6L568.3,129.6z"/>
		<path class="st3" d="M660.4,95c-0.2,0-0.3-0.2-0.3-0.3s0.2-0.3,0.3-0.3l2.4-1.2l2.4-1l0.3-0.2c0.2,0,0.2-0.2,0.5,0v0.3l-0.2,0.2
			l-0.3,0.2c-0.2,0-0.3,0-0.3-0.2c0-0.2,0-0.3,0.2-0.3l0.3-0.2l0,0v0.2v0.2l0.2,0.2h0.2l0,0h-0.2l-0.3,0.2l-2.2,1.2
			C661.9,94.4,661.1,95,660.4,95"/>
		<path class="st3" d="M668,104.4c0.2,0,0.3,0.2,0.5,0.3c0,0.2-0.2,0.3-0.3,0.5c-0.2,0-0.3-0.2-0.5-0.3l0,0v0.2l-0.2-0.2
			c-0.2-0.2-0.2-0.3,0-0.3s0.2-0.2,0.3,0L668,104.4L668,104.4z M657.3,97.4c-0.2,0.2-0.3,0.2-0.5,0s-0.2-0.3,0-0.5
			c0,0,0.2-0.2,0.3-0.2h0.2h0.2h-0.3c0.3-0.2,0.5,0,0.9,0h0.2c1.5,0.9,4.2,2.4,6.4,3.9l2.7,2.2l0.9,0.6l0.6,0.5
			c0.3,0.3,0.5,0.9,0.2,1.2s-0.6,0.3-1,0.2l-0.6-0.5l-0.9-0.6l-2.5-2.2l-6-4.2l-0.2-0.2l-0.3-0.5l0.2,0.2l0,0l0,0L657.3,97.4
			L657.3,97.4z M657.3,96.9c0.2,0.2,0.2,0.3,0,0.5s-0.3,0.2-0.5,0c0,0,0,0,0-0.2V97c0-0.2,0.2-0.3,0.3-0.3
			C657.1,96.8,657.3,96.9,657.3,96.9"/>
		<path class="st3" d="M657.4,101.6c0.2,0,0.3,0.2,0.3,0.3c0,0.1-0.2,0.3-0.3,0.3c-2.2,0-3.7-1.5-5.5-0.9c-0.2,0-0.3,0-0.3-0.2
			s0-0.3,0.2-0.3c1.2-0.3,2.2-0.2,3,0.2C655.8,101.3,656.5,101.6,657.4,101.6"/>
		<path class="st3" d="M667,98c0.2-0.2,0.5-0.2,0.6,0.2c0.2,0.2,0.2,0.5-0.2,0.6c-0.2,0.2-0.5,0.2-0.6-0.2v-0.2v0.2l0,0h0.2
			l-0.9,0.2c-0.2,0-0.3,0-0.3-0.2c0-0.2,0-0.3,0.2-0.3L667,98L667,98z M662.3,100.8c0.2,0,0.3,0.3,0.3,0.5s-0.2,0.3-0.5,0.3
			l-0.3-0.2V101l0.3-0.3c0.6-0.5,1.7-1,2.7-1.5l1.8-0.9c0,0,0,0,0.2,0l0.3-0.2h0.2c0.2,0,0.3,0,0.5,0.2c0.2,0.3,0,0.5,0,0.5
			l-0.3,0.3c0,0,0,0-0.2,0l-2.1,0.9c-1,0.3-2.1,0.9-2.5,1.2l-0.2,0.2l0,0v-0.2L662.3,100.8L662.3,100.8z"/>
		<path class="st3" d="M650.1,98.9c-0.2-0.2-0.3-0.5-0.2-0.6c0.2-0.2,0.5-0.3,0.6-0.2l22.1,16.2c0.2,0.2,0.3,0.5,0.2,0.6
			c-0.2,0.2-0.5,0.3-0.6,0.2L650.1,98.9z"/>
		<path class="st3" d="M665.1,109.9c-0.2-0.3,0-0.5,0.2-0.6c0.3-0.2,0.5,0,0.6,0.2l7.9,17.3c0.2,0.3,0,0.5-0.2,0.6
			c-0.3,0.2-0.5,0-0.6-0.2L665.1,109.9z"/>
		<path class="st3" d="M670.7,108c0.2-0.2,0.5-0.2,0.6,0c0.1,0.2,0.2,0.5,0,0.6c-0.2,0.2-0.5,0.2-0.6,0c0,0,0,0,0-0.2v0.2h0.2l0,0
			h-0.3c-0.2,0-0.3-0.2-0.3-0.2c0-0.2,0-0.2,0.2-0.3L670.7,108z M665.6,111.1c-0.2-0.2-0.3-0.3-0.2-0.5c0-0.2,0.2-0.2,0.3-0.2h-0.1
			l0,0l0.3-0.2l1-0.3l2.2-1.2l1.5-0.9c0.2-0.2,0.2-0.2,0.3-0.2l0,0c0.2,0,0.5,0.2,0.5,0.3v0.2c0,0.2-0.2,0.2-0.2,0.3l-1.7,0.9
			l-2.4,1l-1,0.3l-0.3,0.2h-0.2V111.1z"/>
		<path class="st3" d="M660.4,116.2c0.2,0.2,0.2,0.3,0,0.5s-0.3,0.2-0.5,0c0,0-0.2-0.2-0.2-0.3l0,0l-0.6-0.9c-0.2-0.2,0-0.3,0-0.3
			c0.2-0.2,0.3,0,0.3,0L660.4,116.2z M639.5,105.5c0.2,0.2,0,0.5-0.2,0.5c-0.2,0.2-0.3,0-0.5-0.2l-0.2-0.3c0-0.2-0.2-0.3,0-0.5
			c0.3-0.3,0.6-0.2,0.9-0.2l2.2,1l7.3,4.2c2.7,1.7,5.5,3,7.7,4.2l2.7,1.2l0.9,0.3c0.2,0.2,0.3,0.3,0.5,0.5v0.5c0,0,0,0.2-0.2,0.2
			l-0.3,0.3c-0.2,0.2-0.5,0.2-0.6,0l-0.9-0.3l-2.7-1.3c-2.2-1.2-5.1-2.5-7.7-4.3l-7-4.3l-2.1-1H639h0.2L639.5,105.5L639.5,105.5
			L639.5,105.5L639.5,105.5z"/>
		<path class="st3" d="M653.1,111.3c0.2-0.2,0.3-0.2,0.5,0s0.2,0.3,0,0.5l0,0l0,0v0.3v1.3l0.5,3.9l0.6,4l0.3,2.2
			c0,0.2-0.2,0.3-0.3,0.3c-0.2,0-0.3-0.2-0.3-0.3l-0.3-2.1l-0.6-4l-0.5-3.9l-0.2-1.3C652.9,111.9,652.8,111.7,653.1,111.3"/>
		<path class="st3" d="M662.6,113.2c-0.2-0.2-0.2-0.5,0.2-0.6c0.2-0.2,0.5-0.2,0.6,0.2c0.2,0.2,0.2,0.5-0.2,0.6
			c-0.2,0.2-0.3,0.2-0.5,0h0.2h0.2l-0.6,0.2c-0.2,0-0.3,0-0.3-0.2s0-0.2,0.2-0.3l0.5-0.3v0.2v0.2L662.6,113.2L662.6,113.2z
			 M656.2,114.8c-0.2,0-0.5,0-0.5-0.3c0-0.2,0-0.3,0.2-0.5c1.2-0.5,2.8-1,4.3-1.3l1.5-0.3l1.3-0.2c0.2,0,0.5,0.2,0.5,0.3v0.2
			c0,0.2,0,0.3,0,0.5l0,0c-0.2,0.2-0.3,0.3-0.6,0.2l0,0l-1,0.2l-1.5,0.2L656.2,114.8z"/>
		<path class="st3" d="M614.8,128.6c0.2-0.2,0.5-0.2,0.6,0.2c0.2,0.2,0.2,0.5-0.2,0.6c0,0-0.2,0-0.2,0.2l-1-0.2
			c-0.3-0.2-0.9-0.5-1-1c0-0.2,0-0.3,0.2-0.3s0.3,0,0.3,0c0.2,0.3,0.5,0.5,0.9,0.5L614.8,128.6L614.8,128.6L614.8,128.6z
			 M592.3,122.2c0,0.2-0.3,0.3-0.5,0.3s-0.3-0.2-0.3-0.3c0-0.6,0.3-1.2,0.9-1.5s1.3-0.3,2.1-0.2c1.2,0.3,2.5,1,4.2,1.8l5.4,2.7
			l4.2,1.7l3.3,1l2.1,0.5h0.6h0.6c0.3,0,0.5,0.2,0.6,0.5l0.2,0.3v0.2l-0.2,0.3c-0.2,0.2-0.5,0.3-0.6,0.3h-0.5h-1l-2.4-0.5l-3.3-1
			l-4.3-1.8l-5.4-2.8c-1.5-0.9-3-1.7-3.9-2.1c-0.6-0.2-1-0.2-1.3-0.2C592.4,121.5,592.3,121.7,592.3,122.2"/>
		<path class="st3" d="M606.7,126.8c-0.2,0.2-0.5,0-0.5-0.2v-0.2V126l0.2-0.2l0.9-0.5l4.5-2.5l3.9-1.8l1.7-0.6h0.2h0.3
			c0.2,0,0.3,0,0.6,0.3c0.2,0.2,0,0.5,0,0.6l-0.2,0.2l-0.2,0.2l-2.4,1.3c-0.2,0-0.3,0-0.3-0.2s0-0.3,0-0.3l1.8-1.5l0,0v0.2v0.2
			l0.2,0.2l0.2,0.2h0.2l0,0l-0.3,0.2h-0.2l-1.7,0.6l-3.9,1.7l-4.6,2.4H606.7L606.7,126.8L606.7,126.8z M606.7,125.9
			c0.2,0,0.3,0,0.5,0.3c0,0.2,0,0.3-0.2,0.5h-0.2c-0.2,0.2-0.5,0-0.5-0.2c-0.2-0.2,0-0.5,0.2-0.5c0.2-0.2,0.5,0,0.5,0.2l0,0
			l-0.2-0.2L606.7,125.9L606.7,125.9L606.7,125.9z"/>
		<path class="st3" d="M614.8,135.1c0.2,0.3,0,0.6-0.2,0.6c-0.3,0.2-0.6,0-0.6-0.2c-0.2-0.3,0-0.6,0.2-0.6
			C614,134.8,614.5,134.8,614.8,135.1l-0.3-0.2h-0.2H614l0,0c0.2-0.2,0.3-0.2,0.3,0C614.6,135,614.8,135,614.8,135.1L614.8,135.1
			L614.8,135.1z M608.2,127.8c0,0.2-0.3,0.3-0.5,0.3s-0.3-0.2-0.3-0.3v-0.2l0.2-0.3c0.3-0.2,0.5,0,0.5,0l0.3,0.5l1,1.3
			c0.9,1.3,2.1,2.4,3,3.6l1.2,1.5l0.5,0.5l0,0h-0.2c0.3,0,0.6,0.3,0.6,0.9c0,0.3-0.3,0.6-0.9,0.6c-0.3,0-0.5-0.3-0.6-0.5l-0.5-0.6
			l-1.2-1.5c-0.9-1-2.2-2.4-3-3.7l-0.9-1.5l-0.2-0.3l0,0h0.2h0.2L608.2,127.8L608.2,127.8L608.2,127.8z M614.8,135.4
			c0,0.3-0.3,0.6-0.6,0.6s-0.6-0.3-0.6-0.6s0.3-0.6,0.6-0.6C614.5,134.8,614.8,135.1,614.8,135.4"/>
		<path class="st3" d="M568.3,91.4c-0.3,0.2-0.5,0-0.6-0.3c-0.1-0.3,0-0.5,0.3-0.6l76.9-32.5c0.3-0.2,0.5,0,0.6,0.3
			c0.2,0.3,0,0.5-0.3,0.6L568.3,91.4z"/>
		<path class="st3" d="M622.8,67.6c-0.2,0.2-0.3,0.3-0.6,0.2c0,0,0,0-0.2,0l-0.2-0.3v-0.2l0.3-0.6l1.5-2.1c1.2-1.8,2.5-5.1,3.7-7.6
			l1.7-3l0.9-1.7l0.5-1l0.3-0.6l0.2-0.2v0.2c0.2-0.3,0.5-0.6,1-0.5c0.3,0.2,0.6,0.5,0.5,1c0,0.2-0.2,0.3-0.3,0.3l0,0l-0.2,0.2
			l-0.3,0.5l-0.5,0.9l-1,1.8l-1.7,3c-1.3,2.5-2.7,5.7-4,7.6l-1.5,2.1V67.6L622.8,67.6z M622.2,67c0.2-0.2,0.5,0,0.5,0.2
			c0.2,0.2,0,0.3,0,0.5l0,0l0,0c-0.2,0.2-0.5,0.2-0.5,0c-0.2-0.2-0.2-0.5,0-0.5c0.2-0.2,0.3-0.2,0.5,0L622.2,67L622.2,67L622.2,67z
			 M632.7,50.6c0,0.5-0.3,0.9-0.9,0.9s-0.9-0.3-0.9-0.9s0.3-0.9,0.9-0.9C632.4,49.9,632.7,50.3,632.7,50.6"/>
		<path class="st3" d="M650.7,66.4c0.2,0.2,0.3,0.5,0.2,0.6c-0.2,0.2-0.5,0.3-0.6,0.2c-0.1-0.1-0.3-0.5-0.2-0.6
			C650.2,66.3,650.4,66.3,650.7,66.4l-0.3-0.2h-0.2C650.4,66.3,650.6,66.3,650.7,66.4L650.7,66.4L650.7,66.4z M633.1,65.7
			c-0.2,0-0.3-0.3-0.3-0.5s0.2-0.3,0.3-0.3l2.8-0.2l4.2-0.3c2.2-0.2,4,0.3,5.8,0.9l2.7,0.6l1,0.3h0.3l0,0c0.5-0.2,0.9,0,1,0.5
			c0.2,0.5,0,0.9-0.5,1h-0.2h-0.3l-0.4-0.1l-1-0.3l-2.7-0.9c-1.7-0.5-3.3-1-5.4-0.9h-4.2L633.1,65.7z M651,67c0,0.5-0.3,0.9-0.9,0.9
			s-0.9-0.3-0.9-0.9s0.3-0.9,0.9-0.9S651,66.7,651,67"/>
		<path class="st3" d="M642.4,101.7c-0.2,0.2-0.3,0.2-0.5,0s-0.2-0.3,0-0.5l1.2-2.1l2.2-3.7L647,93c1.5-2.1,2.7-3.3,4-4.9l3.9-4.5
			l2.2-3.1l0.6-1l0.9-1.2l0.2-0.2l0,0l0,0v0.2c0-0.2,0.2-0.5,0.2-0.5l0,0l-0.2,0.2v0.3v0.3l0.2,0.2h0.2l-1.3,0.3
			c-0.2,0-0.3,0-0.3-0.2s0-0.3,0.2-0.3l1.3-0.9l0.3-0.2h0.3l0.6,0.3c0.2,0.2,0.2,0.3,0.2,0.6c0,0.5-0.3,0.9-0.5,1l-1,1.2l-0.6,0.9
			l-2.4,3.1l-4,4.5c-1.3,1.5-2.7,2.7-4,4.5l-1.7,2.5l-2.4,3.6L642.4,101.7z"/>
		<path class="st3" d="M635,87.1c0.3-0.2,0.6-0.2,0.9,0.2c0.2,0.4,0.2,0.6-0.2,0.9s-0.6,0.2-0.9-0.2c-0.2-0.2-0.2-0.3,0-0.5v0.2v0.2
			l0,0V88l-1-0.3c-0.2,0-0.2-0.2-0.2-0.3c0-0.1,0.2-0.2,0.2-0.2h1.2V87.1L635,87.1L635,87.1L635,87.1z M600.3,79.7
			c0.2,0,0.5,0,0.5,0.3c0,0.2,0,0.3-0.2,0.5l0,0l0,0v-0.2l-0.2-0.2h-0.2l0,0l1,0.2l3.6,0.3l3.6,0.6l2.5,0.6l4.3,0.6
			c2.4,0.3,4.3,0.9,6.2,1.3l5.1,1.8c1.7,0.6,3.3,1.2,4.9,1.3h2.5h1c0.2,0,0.2,0,0.3,0l0.3,0.2l0,0c0.2,0.2,0.2,0.3,0.2,0.5v0.3
			c-0.2,0.3-0.3,0.5-0.5,0.5s-0.2,0-0.3,0h-1.2l-2.7-0.2c-1.7-0.3-3.6-0.9-5.2-1.5c-3-1.2-6.4-2.5-10.9-3.1l-4.5-0.6l-2.5-0.6
			l-3.3-0.9l-3.6-0.5l-1.2-0.3l-0.2-0.2l-0.2-0.5l0.6-0.3L600.3,79.7z"/>
		<path class="st3" d="M631.3,87.3c0.2,0,0.5,0,0.5,0.2c0,0.2,0,0.5-0.2,0.5h-0.5l-0.3-0.3v-0.3l0.5-0.9l1.8-1.5l3.1-2.2l4.9-3
			l2.5-1.5l3-1.5l2.5-1.3l1-0.5c0,0,0.2-0.2,0.3-0.2l-0.2,0.2l-0.2,0.2v0.2h-0.2c-0.2,0-0.2-0.2-0.2-0.3c0-0.1,0.2-0.2,0.2-0.2h0.5
			l0.3,0.3v0.6c0,0.2-0.2,0.2-0.2,0.3l-1.2,0.6l-2.5,1.3l-2.8,1.5l-2.5,1.5l-4.9,3l-3.1,2.1l-1.8,1.3l-0.3,0.5l0,0v-0.2V87.3
			L631.3,87.3L631.3,87.3L631.3,87.3z"/>
		<path class="st3" d="M644.2,89.8c-0.2-0.2,0-0.5,0.2-0.6c0.2-0.1,0.5,0,0.6,0.2s0,0.5-0.2,0.6C644.7,89.9,644.4,89.9,644.2,89.8
			l0.2,0.2l0,0l0,0C644.2,89.9,644,89.8,644.2,89.8c0-0.2,0-0.2,0-0.2V89.8L644.2,89.8L644.2,89.8z M633.1,89.4
			c0.2-0.2,0.3-0.3,0.5-0.2c0.2,0,0.3,0.3,0.2,0.5v-0.2l0,0h0.9l3.3-0.3l3.9-0.5h1.3h1h0.3c0.2,0,0.3,0,0.5,0.3
			c0.2,0.3,0,0.6-0.3,0.9s-0.6,0-0.9-0.3l0,0l0.2,0.2l0.2,0.2l0,0H644h-1h-1.2l-3.9,0.3l-3.6,0.3l-1.2-0.2l-0.5-0.3L633.1,89.4z
			 M645.2,89.4c0,0.3-0.3,0.6-0.6,0.6s-0.6-0.3-0.6-0.6c0-0.3,0.3-0.6,0.6-0.6C645,88.8,645.2,89.1,645.2,89.4"/>
		<path class="st3" d="M569.9,109.5c-0.2,0-0.5,0-0.5-0.2s0-0.3,0.2-0.5l2.1-1c1.7-0.9,4.3-1.7,7-2.7l4-1.7l1.7-0.6l0.9-0.3
			c0.3-0.2,0.6,0.2,0.6,0.3c0,0.3,0,0.5-0.3,0.6l-0.6,0.3l-1.7,0.9l-4.2,1.7l-7,2.4L569.9,109.5z"/>
		<path class="st3" d="M590.9,92.8c-0.2-0.2,0-0.5,0.2-0.5c0.2-0.2,0.5,0,0.5,0.2v0.2l-0.2,0.6l-0.6,1.2c0,0.2-0.2,0.2-0.3,0.2
			c-0.1,0-0.2-0.2-0.2-0.3l0.5-1.2L590.9,92.8L590.9,92.8L590.9,92.8z M579.3,105.1c-0.2-0.2-0.3-0.3-0.2-0.6l0,0l0,0l0.2-0.2
			l1.7-1.8l3.6-3.1c1.7-1.7,2.8-3.3,3.9-4.9l1.5-1.8l0.5-0.5l0.3-0.2c0.2,0,0.3-0.2,0.6,0s0.5,0.5,0.3,1c0.2,0.2-0.2,0.3-0.5,0.3
			h0.2h0.2l0,0l-0.3,0.3l-1.3,1.7c-1,1.5-2.4,3.1-4.3,5.1l-3.7,3l-1.7,1.7l-0.2,0.2h-0.2C579.6,105.1,579.6,105.3,579.3,105.1
			 M579.4,104.1c0.2-0.2,0.3-0.2,0.5-0.2c0.2,0.2,0.2,0.3,0.2,0.5l-0.2,0.3l0,0v-0.2v-0.2l-0.2-0.2c0.2,0.2,0.2,0.5,0,0.6
			c-0.2,0.1-0.5,0.2-0.6,0s-0.2-0.3,0-0.5V104L579.4,104.1z"/>
		<path class="st3" d="M581.4,105.1c-0.2,0-0.3-0.2-0.3-0.5c0-0.2,0.2-0.3,0.3-0.3c1.3,0,3.3,0.3,5.5,0.9c1.7,0.5,3,1.2,4,1.7
			l1.2,0.6l0.9,0.3h0.2l0,0H593l0.2-0.2l-0.2,0.2v-0.5c0-0.2,0-0.3,0.2-0.3s0.2,0,0.3,0.2l0.3,0.5l0.2,0.5v0.2
			c-0.2,0.2-0.3,0.5-0.6,0.5h-0.6l-1.2-0.3l-1.3-0.6c-1-0.6-2.2-1.2-3.7-1.7C584.7,105.8,582.6,105.3,581.4,105.1"/>
		<path class="st3" d="M601.4,97.3c0.2-0.2,0.3-0.2,0.5-0.2c0.2,0.2,0.2,0.3,0.2,0.5c-0.2,0.2-0.3,0.2-0.5,0.2c0,0-0.2,0-0.2-0.2
			l0.2,0.2l0,0h-0.3c-0.2,0-0.3-0.2-0.3-0.2c0-0.2,0-0.2,0.2-0.3H601.4L601.4,97.3L601.4,97.3L601.4,97.3z M587.5,104.4
			c-0.2-0.2-0.2-0.3,0-0.5c0.2-0.2,0.3-0.2,0.5,0l0.3,0.2l0.6-0.2l2.4-1.3l3.1-1.8l3.6-2.2l0.9-0.6l1-0.6l1.3-0.3h0.2h0.2
			c0.2,0,0.2,0.2,0.2,0.3v0.2l-0.2,0.2l-1,0.6l-0.9,0.6l-0.9,0.6l-3.7,2.2l-3.3,1.8l-2.7,1.2l-0.9,0.2
			C588,105,587.6,104.8,587.5,104.4"/>
		<path class="st3" d="M606.4,102.2c0.3,0,0.6,0.2,0.6,0.5c0,0.3-0.2,0.6-0.5,0.6s-0.6-0.2-0.6-0.5c0-0.2,0-0.3,0-0.3v0.2v0.2v0.2
			l-0.9-0.3c-0.2,0-0.2-0.2-0.2-0.3s0.2-0.2,0.3-0.2L606.4,102.2L606.4,102.2L606.4,102.2z M596.3,101.7c0.2,0,0.5,0,0.5,0.2
			s0,0.3-0.2,0.5l0,0l0,0v-0.2v-0.2v-0.2l-0.2-0.2L596.3,101.7h0.3l1.2-0.2c1.3-0.2,2.7-0.3,4-0.2l2.7,0.5l1.7,0.2
			c0.2,0,0.3,0,0.3,0h0.2c0.2,0.2,0.3,0.3,0.3,0.5v0.3c0,0.2-0.2,0.2-0.2,0.3c-0.3,0.3-0.6,0.2-1,0.2h-1.3l-2.8-0.5
			c-1.2-0.2-2.4-0.2-3.7-0.2l-1.3-0.2c-0.2,0-0.3,0-0.5-0.3c-0.2-0.2,0-0.5,0.2-0.6L596.3,101.7z"/>
		<path class="st3" d="M615.8,92.5c0.2-0.2,0.5-0.2,0.6,0c0.2,0.2,0.2,0.5,0,0.6c-0.2,0.1-0.5,0.2-0.6,0c0,0,0,0-0.2-0.2l0,0
			l0.2,0.2l0,0h0.2c-0.5,0.2-1.3,0.6-1.7,1c-0.2,0.2-0.3,0.2-0.3,0c-0.2,0-0.2-0.2,0-0.3C614.2,93.2,615.1,92.6,615.8,92.5
			L615.8,92.5L615.8,92.5L615.8,92.5z M603,101.3c0.2-0.2,0.3-0.2,0.5,0s0.2,0.3,0,0.5l-0.2,0.3l0,0v-0.2v-0.2l-0.2-0.2l-0.2-0.2
			h-0.2l0,0l2.1-1.3c1.8-1.5,4.2-3.9,6.7-5.7l3.3-2.1l0.6-0.3c0,0,0.2,0,0.2-0.2h0.2l0,0c0.3,0,0.5,0.2,0.6,0.3l0,0
			c0.2,0.3,0,0.5-0.2,0.6l-0.2,0.2l-0.6,0.5l-3.3,2.1c-2.5,1.7-4.9,3.9-6.9,5.4c-1,0.6-1.7,1.2-2.4,1.3h-0.3l-0.3-0.2v-0.5
			L603,101.3z"/>
		<path class="st3" d="M612.4,99.3c-0.2,0-0.5,0-0.5-0.2s0-0.3,0.2-0.5c0.6-0.5,1.8-0.5,3-0.6l2.4,0.2l2.8,0.3c0.9,0,1.5,0,2.4-0.3
			l1.7-0.3c0.2,0,0.3,0,0.3,0.2s0,0.2-0.2,0.3l-1.5,1c-1,0.3-2.1,0.5-2.8,0.5l-3-0.2l-2.1-0.2L612.4,99.3z"/>
		<path class="st3" d="M568.4,141.1c0-0.2,0.3-0.3,0.5-0.2c0.2,0,0.3,0.2,0.3,0.3V141l-0.2-0.2h-0.2h0.2l1-0.3l3.9-1.7l5.4-2.5
			l3-1.3l5.5-2.2l3.1-1.3l1.2-0.2c0.2,0,0.5,0.2,0.6,0.5l-0.2,0.5l-0.2,0.2l-1.2,0.6l-1.2,0.5c-0.2,0-0.3-0.2-0.3-0.2
			c0-0.2,0-0.2,0.2-0.3c0.9-0.3,2.1-1,2.1-1.2v0.2v0.2l0.2,0.2l0.2,0.2h0.2l0,0l-0.6,0.3l-3.3,1.2l-5.5,2.1l-3.1,1.3l-5.5,2.4
			l-4,1.5l-1,0.3h-0.5C568.4,141.7,568.4,141.2,568.4,141.1"/>
		<path class="st3" d="M590.6,142.7c0-0.3,0.3-0.5,0.5-0.3c0.3,0,0.5,0.3,0.3,0.5c0,0.3-0.3,0.5-0.5,0.3c-0.2,0-0.3-0.2-0.3-0.3l0,0
			v0.2h-0.2C590.5,143,590.5,142.7,590.6,142.7c0-0.2,0-0.2,0-0.2h0.2l0,0l0,0L590.6,142.7L590.6,142.7z M578.4,139.4
			c-0.2-0.2-0.3-0.3-0.2-0.5l0.2-0.3l0.3-0.2l1-0.2h1.5c1,0.2,1.3,0.9,1.8,1c1,0.6,3.1,0.6,5.2,1.2c1,0.2,1.8,0.6,2.5,1l0.9,0.5
			l0.3,0.3c0.2,0.2,0.3,0.3,0.2,0.9c-0.3,0.3-0.6,0.5-1,0.3c-0.2,0-0.3-0.2-0.5-0.5l0.2,0.2l0.2,0.2l0,0l0,0l-0.9-0.3L588,142
			c-1.8-0.5-4.2-0.5-5.7-1.5l-1.2-0.9h-1.2l-0.9-0.2H578.4L578.4,139.4z M578.7,138.7c0.2,0.2,0.2,0.3,0,0.5c0,0-0.2,0-0.2,0.2l0,0
			c-0.2,0-0.5,0-0.5-0.2c0-0.2,0-0.5,0.2-0.5C578.6,138.6,578.7,138.6,578.7,138.7s0.2,0.2,0.2,0.2L578.7,138.7L578.7,138.7z"/>
		<path class="st3" d="M585.3,139.1c0-0.2,0.2-0.3,0.5-0.3c0.2,0,0.3,0.2,0.3,0.5l0,0v0.5l0.2,0.3h0.2l0.5-0.2l1.5-0.6l1.8-1
			l2.2-1.3l4.3-1.7c0.2,0,0.3,0,0.3,0.2c0,0.2,0,0.3-0.2,0.3c-1.8,0.9-3,1.7-3.9,2.4l-2.4,1.3l-2.1,1l-1.7,0.5h-0.6l-0.6-0.3
			c-0.2-0.2-0.3-0.5-0.3-0.9L585.3,139.1z"/>
		<path class="st3" d="M597.2,33.6c0.2-0.2,0.3-0.3,0.5-0.2c0.2,0.2,0.3,0.3,0.2,0.5c0,0.2-0.2,0.2-0.3,0.2l-0.6,0.5
			c-0.2,0-0.3,0-0.3-0.2c0-0.2,0-0.3,0-0.3L597.2,33.6z M570.2,48.7c-0.2,0-0.3,0-0.5-0.3c0-0.2,0-0.3,0.2-0.5l2.2-1l1.3-0.3
			c0.6-0.2,1.5-0.9,2.4-1.5l4-2.4l7.3-4.2l3.6-1.8l1.7-0.6c0.6-0.3,1.5-1,2.4-1.5l1.3-1l1-0.5h0.2h0.2c0.3-0.2,0.9,0,1,0.3
			c0.2,0.3,0,0.9-0.3,1l0,0l0,0h-0.2l-1,0.9l-1.3,0.9c-0.6,0.5-1.5,1.2-2.7,1.7l-1.7,0.6l-3.6,1.7l-7.3,4l-3.9,2.4
			c-0.9,0.5-1.8,1.2-2.7,1.5l-1.2,0.2L570.2,48.7z M598.4,33.9c0,0.3-0.3,0.6-0.6,0.6s-0.6-0.3-0.6-0.6c0-0.3,0.3-0.6,0.6-0.6
			S598.4,33.5,598.4,33.9"/>
		<path class="st3" d="M601.4,46.6c0-0.3,0.3-0.3,0.6-0.3s0.3,0.3,0.3,0.6c0,0,0,0.2-0.2,0.2c-0.2,0.2-0.5,0.2-0.6,0.3h-0.6
			l-1.2-0.2c-0.2,0-0.2-0.2-0.2-0.3c0-0.2,0.2-0.2,0.3-0.2h1.2L601.4,46.6L601.4,46.6L601.4,46.6L601.4,46.6z M585,41.1
			c0,0.2,0,0.5-0.3,0.5c-0.2,0-0.3,0-0.5-0.2l-0.2-0.3v-0.3l0.3-0.3h0.3l1.3,0.5l4.3,1.3l2.5,0.9l6,1.5l2.2,0.6
			c0.5,0.2,0.9,0.3,1.2,0.6c0.2,0.2,0.2,0.3,0.2,0.5c0,0.2,0,0.5-0.3,0.6l0,0h-0.2h-0.3c-0.2,0-0.3-0.2-0.5-0.2l-0.6-0.3l-2.1-0.6
			l-6-1.7l-2.2-0.9c-1.7-0.5-3.1-1-4.3-1.7l-1.2-0.5l0,0l0,0L585,41.1L585,41.1L585,41.1L585,41.1z"/>
		<path class="st3" d="M606.7,38.7c0-0.3,0.2-0.6,0.5-0.6s0.6,0.2,0.6,0.5s-0.2,0.6-0.5,0.6c-0.2,0-0.3,0-0.3-0.2h0.2h0.2l0,0
			l-0.3,0.2l-0.9,0.5c-0.2,0.2-0.3,0.2-0.3,0c0-0.2-0.2-0.2,0-0.3L606.7,38.7l0.2-0.3l0,0l0,0L606.7,38.7L606.7,38.7z M597.5,44.4
			c-0.2-0.2-0.2-0.3-0.2-0.6c0,0,0-0.2,0.2-0.2h0.2l0.9-0.2c0.6-0.2,1.5-0.9,2.5-1.5l4.6-3l1.5-0.9c0.3-0.2,0.6,0,0.9,0.3
			c0.2,0.3,0,0.6-0.3,0.9l0,0l-1.3,0.6l-4.6,2.8c-1,0.5-2.1,1.2-2.8,1.5l-1,0.2L597.5,44.4z M598.1,43.7c0.2,0,0.3,0.2,0.3,0.3
			c0,0.2-0.2,0.3-0.3,0.3h-0.2l0,0h0.2c-0.2,0.2-0.5,0.2-0.6,0c-0.1-0.2-0.2-0.5,0-0.6c0.2-0.2,0.3-0.2,0.5,0h-0.2l0,0H598.1z
			 M608.1,38.7c0,0.3-0.3,0.6-0.6,0.6s-0.6-0.3-0.6-0.6c0-0.3,0.3-0.6,0.6-0.6S608.1,38.4,608.1,38.7"/>
		<path class="st3" d="M568.6,67.1c0.2-0.2,0.5,0,0.5,0.2s0,0.3-0.2,0.5l0.2-0.2v-0.1v-0.2l0,0h0.2l0.9,0.2c0.9,0.2,2.1,0,3.9-0.6
			l6.4-2.2c3-1,6.2-2.1,9.5-2.8l11.5-2.7l4.5-1l1.3-0.4l0.2-0.2l0,0l0,0l0,0v0.2v0.3c-0.2-0.3,0-0.9,0.5-0.9c0.3-0.2,0.9,0,0.9,0.3
			c0.2,0.3,0,0.6-0.2,0.9c-0.3,0.3-0.5,0.3-0.9,0.5l-1.7,0.5l-4.5,1l-11.5,2.8c-3.3,0.9-6.5,1.7-9.4,2.7l-6.5,2.2
			c-2.1,0.5-3.3,0.6-4.3,0.5l-1.2-0.5l-0.3-0.3v-0.3L568.6,67.1z"/>
		<path class="st3" d="M616.4,44.8c-0.2-0.2,0-0.3,0.2-0.5c0.2-0.2,0.3,0,0.5,0.2c0,0,0,0,0,0.2c0,0.3,0,0.3-0.2,0.6l-0.6,1.2
			c0,0.2-0.2,0.2-0.3,0.2c-0.2,0-0.2-0.2-0.2-0.3l0.5-1.2L616.4,44.8L616.4,44.8L616.4,44.8L616.4,44.8z M600.9,60.3
			c-0.2,0-0.3-0.2-0.3-0.3v-0.2l0.2-0.2l0.3-0.3l1.2-1l3.9-3.6l3-2.8c1.8-1.7,3.1-3.3,4.3-4.6l2.1-2.5l0.5-0.5
			c0.2-0.2,0.2-0.3,0.5-0.3s0.6,0.2,0.9,0.5c0,0.3-0.2,0.6-0.5,0.9h0.2l-0.5,0.5l-2.1,2.4c-1.2,1.5-2.7,3-4.5,4.6l-3.1,2.8l-4,3.6
			l-1.2,1l-0.3,0.2l0,0h-0.5V60.3z M600.6,59.6c0.2-0.2,0.5,0,0.5,0.2c0,0.2,0,0.2,0,0.3V60c0,0.2-0.2,0.3-0.5,0.3
			c-0.2,0-0.3-0.2-0.3-0.5C600.5,59.8,600.6,59.6,600.6,59.6L600.6,59.6z"/>
		<path class="st3" d="M606.9,60.4c-0.2,0-0.3-0.3-0.3-0.5s0.3-0.3,0.5-0.3c0.6,0.2,2.2-0.3,4-1l3.9-1.2l5.2-2.1l2.5-0.9
			c0.3-0.2,0.6-0.2,1,0c0.2,0.2,0.3,0.5,0.2,0.6l-0.2,0.3l-1.2,1c-0.2,0.2-0.3,0.2-0.3,0c-0.2-0.2-0.2-0.2,0-0.3l0.9-1v0.2l0.2,0.2
			l0.2,0.2h0.2l-0.3,0.2l-2.5,0.9l-5.2,2.1l-3.9,1.2C609.4,60.3,607.9,60.8,606.9,60.4"/>
		<path class="st3" d="M589,62.5c0.2-0.2,0.3-0.3,0.5-0.2c0.2,0,0.2,0.2,0.2,0.3l0.2,1l1.5,3.9l1.7,3.7l1,1.8c0,0,0,0,0,0.2v0.2l0,0
			l0,0H594h-0.3h-0.3l0.2-0.2l0,0l0,0l-0.5-2.8c0-0.2,0-0.3,0.2-0.3s0.3,0,0.3,0.2l1,2.8v0.3c0,0.2,0.2,0.2-0.2,0.5
			c-0.2,0.3-0.6,0.3-0.9,0.3l-0.5-0.3c0,0,0,0-0.2-0.2l-1-1.8L590,68c-0.6-1.5-1-3-1.3-4.2C588.8,63.3,588.8,62.8,589,62.5"/>
		<path class="st3" d="M590.5,63c0,0.2,0,0.5-0.2,0.5s-0.3,0-0.5-0.2c-0.2-0.3,0-0.9,0.2-1.5l0.6-1.5l1.7-4l1.5-3l1.3-1.7
			c0,0,0.2,0,0.2-0.2c0.2-0.2,0.5-0.3,0.9,0c0.2,0.2,0.3,0.5,0.3,0.6v0.2l-0.6,1.2c0,0.2-0.2,0.2-0.3,0c-0.2,0-0.2-0.2-0.2-0.3
			l0.3-0.9V52v0.2h0.2h0.2h0.2h0.2l0,0l-0.2,0.2c0,0,0,0.2-0.2,0.2l-1.2,1.3l-1.3,2.7l-1.8,4l-0.9,1.5L590.5,63z"/>
		<path class="st3" d="M582,65.3c0,0.2-0.2,0.3-0.5,0.3c-0.2,0-0.3-0.2-0.3-0.3c0-0.2-0.5-0.9-0.3-1.8c0-0.5,0.3-0.9,0.5-1.3l1.7-3
			l1.5-2.8l1.2-2.7l0.6-1.7l0.3-1l0.2-0.5c0.2-0.3,0.5-0.5,0.9-0.5c0.2,0,0.5,0.3,0.5,0.5v0.5l-0.3,1.2l-0.6,1.7l-1.2,2.7l-2.1,3.3
			l-1.7,2.8l-0.5,1C581.7,64.3,582,64.8,582,65.3"/>
		<path class="st3" d="M541,225c0,0.2-0.2,0.3-0.5,0.3c-0.2,0-0.3-0.2-0.3-0.5c0-0.2,0.2-0.3,0.5-0.3c0,0,0,0,0.2,0h-0.2l0,0
			l0.5-0.3c0.2,0,0.3,0,0.3,0.2c0,0.2,0,0.3,0,0.3L541,225L541,225L541,225L541,225z M568.3,211.4c0,0.2-0.3,0.3-0.5,0.3
			s-0.3-0.2-0.3-0.3v0.2l0,0h-0.2H566c-1.2,0.2-2.5,0.6-4.3,1.5c-2.7,1.2-6.2,3-9.4,4.6l-3.1,1.7l-2.8,1.7l-1.3,1l-1.3,1.2l-0.9,0.6
			l-1.3,1l-0.5,0.3h-0.2h-0.4c-0.2,0-0.3-0.2-0.3-0.3c0-0.3,0-0.3,0.2-0.3l0.5-0.5l1.3-1l0.9-0.6l1.5-1.2l1.5-1l2.8-1.7l3.1-1.7
			c3.1-1.7,6.7-3.6,9.4-4.9c2.1-0.9,3.6-1.3,4.6-1.5h1.3l0.5,0.2l0.2,0.3L568.3,211.4z"/>
		<path class="st3" d="M544.6,222.3c-0.3-0.2-0.3-0.6-0.2-0.9c0.1-0.2,0.5-0.3,0.9-0.2c0.6,0.5,0.9,1.2,1,2.2l0.9,3.7l1.2,4.3l0.3,1
			l0.2,0.5l-0.2-0.2h-0.2h-0.2H548l0,0v0.2l0,0v-0.2v-0.9c0-0.6,0-1.3,0.3-1.8c0-0.2,0.2-0.2,0.3-0.2s0.2,0.2,0.2,0.3v1.7l0.2,0.9
			v0.3l-0.2,0.5v-0.2l-0.3,0.3h-0.3l-0.5-0.2l-0.5-0.6l-0.5-1.2l-1.2-4.5l-0.6-3.7l-0.3-1.2L544.6,222.3z"/>
		<path class="st3" d="M534.9,230.8c-0.2,0-0.3-0.3-0.2-0.5c0-0.2,0.3-0.3,0.5-0.2c0,0,0,0,0.2,0l0,0h0.3l1-0.5c0.2-0.2,0.3,0,0.3,0
			c0.2,0.2,0,0.3,0,0.3l-1.2,0.6C535.5,230.8,535.1,231,534.9,230.8 M543.3,227.1c0.2,0.2,0,0.5-0.2,0.5c-0.2,0.2-0.5,0-0.5-0.2l0,0
			c-0.2-0.5,0.2-1.2,0.2-1.8v-0.2v-0.2l0.2,0.2l0,0h-0.2l-0.6,0.2c-0.5,0.2-0.9,0.6-1.5,1.2l-1.3,1.2l-2.1,1.5l-1.5,1
			c-0.2,0.3-0.5,0.3-0.9,0.2c-0.3-0.2-0.3-0.5-0.2-0.9l0.9-0.6l1-0.6l1.7-1.3l1.3-1.2c0.5-0.5,1-1.2,1.8-1.5l1.2-0.2l0.5,0.2
			c0.2,0,0.3,0.2,0.5,0.5v0.2l-0.2,0.6L543.3,227.1z M535.6,230.3c0,0.3-0.3,0.6-0.6,0.6s-0.6-0.3-0.6-0.6s0.3-0.6,0.6-0.6
			C535.3,229.8,535.6,229.9,535.6,230.3"/>
		<path class="st3" d="M548.5,231c0.2,0.2,0.2,0.3,0,0.5c-0.2,0.2-0.3,0.2-0.5,0c-0.2,0-0.2-0.2-0.2-0.3l0,0v-0.3v-0.5
			c-0.2-0.2-0.2-0.3,0-0.3c0.2-0.2,0.2-0.2,0.3,0C548.5,230.1,548.5,230.5,548.5,231l0.2,0.2L548.5,231L548.5,231z M547.8,231.1
			c0-0.2,0.2-0.3,0.5-0.3c0.2,0,0.3,0.2,0.3,0.5c0,0,0,0,0,0.2l-0.2,0.2c-0.2,0.2-0.3,0-0.5-0.2
			C547.8,231.3,547.8,231.3,547.8,231.1L547.8,231.1z"/>
		<path class="st3" d="M558.6,228.4c0.2,0,0.3,0.2,0.3,0.5c0,0.2-0.2,0.3-0.5,0.3c-0.2,0-0.3-0.2-0.3-0.3l0,0v-0.2v-0.3v-0.9
			c0-0.2,0.2-0.3,0.3-0.2c0.2,0,0.2,0.2,0.2,0.3V228.4l0.2,0.2l0,0L558.6,228.4L558.6,228.4z M553.7,218.4c-0.2-0.2,0-0.5,0.2-0.5
			c0.2-0.2,0.3,0,0.5,0.2c0.9,1.3,1.5,3.6,2.4,5.8l1.3,3l0.5,0.9l0.5,0.6c0.2,0.2,0.2,0.3,0.2,0.5l-0.2,0.3c0,0,0,0.2-0.2,0.2
			c-0.3,0.3-0.5,0.2-0.5,0.2c-0.2,0-0.3-0.2-0.5-0.2l-0.5-0.9l-0.5-1l-1.3-3.1C554.9,221.9,554.4,219.6,553.7,218.4"/>
		<path class="st3" d="M552.3,235.9c-0.2,0.2-0.6,0.2-0.9,0c-0.2-0.2-0.2-0.6,0-0.9c0.2-0.2,0.3-0.2,0.3-0.2h-0.2h-0.2l0,0
			c0.2-0.2,0.2-0.2,0.3-0.2h-0.2l0,0l1.2-1.2c0.2-0.2,0.3-0.2,0.3,0c0.2,0.2,0.2,0.2,0,0.3l-0.6,1.2l-0.2,0.3l0,0V235
			C552.5,235.3,552.5,235.5,552.3,235.9L552.3,235.9z M558,227.1c0.2,0,0.3,0.3,0.2,0.5c0,0.2-0.3,0.3-0.5,0.2l-0.5,0.2l-0.9,0.9
			l-1.7,2.7l-1.7,2.8l-0.6,1l-0.2,0.2l0,0l0,0c0,0.3-0.3,0.5-0.6,0.5c-0.2,0-0.3-0.2-0.3-0.3c-0.2-0.3,0-0.5,0-0.5l0.2-0.3l0.5-1
			l1.7-2.8c0.6-1,1.3-2.1,2.1-2.8l1-0.9C557.2,227.1,557.7,226.9,558,227.1"/>
		<path class="st3" d="M565.6,237.5c0.3,0,0.5,0.3,0.3,0.5c0,0.3-0.3,0.5-0.5,0.3c-0.3,0-0.5-0.3-0.3-0.5c0-0.2,0.2-0.3,0.3-0.3
			h-0.1H565l0,0C565.3,237.4,565.4,237.4,565.6,237.5C565.6,237.4,565.7,237.5,565.6,237.5l0.2,0.2L565.6,237.5L565.6,237.5z
			 M558.3,228.4c0.2,0,0.3,0.3,0.2,0.5c0,0.2-0.2,0.3-0.5,0.3h-0.2l-0.2-0.2v-0.5l0.2-0.2l0.9-0.3c0.9,0,1.7,0.3,2.5,1.2
			c0.9,0.6,1.8,1.7,2.5,2.8c0.9,1.3,1.3,2.8,1.8,4l0.3,1.2l0.2,0.5v0.2l0,0c0.2,0.3,0,0.9-0.3,1c-0.3,0.2-0.6,0.2-1-0.2l-0.2-0.5
			l-0.2-0.5l-0.3-1.2c-0.3-1.2-0.9-2.5-1.5-3.7s-1.3-2.1-2.2-2.7c-0.6-0.6-1.3-1-1.7-1H558l0,0l0.2-0.2v-0.2L558.3,228.4
			L558.3,228.4z"/>
		<path class="st3" d="M565.4,203.2c-0.2,0.2-0.3,0.2-0.5,0.2c-0.2-0.2-0.2-0.3-0.2-0.5v0.2l0.2,0.2h0.2h-0.3l-1.8,0.3l-2.4,0.3
			l-3.6,0.5l-2.5,0.5l-6.4,1.3l-4.6,1l-4.2,1l-5.1,1.3c-2.1,0.6-3.9,1.3-5.2,2.1l-1.8,0.9l-0.3,0.3c0,0.2-0.2,0.3-0.3,0.3
			c-0.2,0-0.3-0.2-0.3-0.2c0-0.3,0-0.9,0.5-1l1.8-1c1.3-0.6,3.1-1.3,5.4-2.1l5.1-1.3l4.2-0.9l4.6-1l6.4-1.3l2.5-0.5l3.6-0.5l2.2-0.3
			l1.8-0.2h0.6l0.3,0.2C565.6,202.8,565.6,203.2,565.4,203.2"/>
		<path class="st3" d="M534.1,207.9c0.2,0,0.3,0.2,0.3,0.3c0,0.2-0.2,0.3-0.3,0.3l-0.5,0.2l-0.2,1l-0.3,4.5l-0.2,5.8v3.7v2.4v0.3
			l0,0l0,0v-0.2l-0.2-0.2l-0.2-0.2h-0.2h-0.2l-0.2,0.2l0,0v-0.2c0-0.5,0.2-1.3,0-2.8c0-0.2,0.2-0.3,0.2-0.3c0.2,0,0.3,0,0.3,0.2
			l0.3,3v0.3v0.2c0,0,0,0.2-0.3,0.3c-0.3,0.2-0.5,0-0.6-0.2l-0.2-0.2l-0.2-0.5v-2.5v-3.7l0.3-5.8l0.5-4.5c0.2-0.5,0.2-1,0.5-1.3
			C533.1,208,533.6,207.9,534.1,207.9"/>
		<path class="st3" d="M531.6,218.3c0.2,0.2,0.2,0.3,0,0.5c-0.2,0.2-0.3,0.2-0.5,0h-0.2l-0.6,0.2l-2.1,1c-1.5,0.9-3.1,2.1-4.3,3
			l-1.5,1.2c-0.2,0.2-0.3,0.2-0.5,0c-0.2,0-0.2-0.2-0.2-0.3c0.2-0.5,0.6-1,1.5-1.7c1.3-1,3-2.2,4.5-3l2.2-1l0.9-0.2
			C531,218.1,531.3,218.1,531.6,218.3"/>
		<path class="st3" d="M508.3,218.1c0.2,0.2,0.2,0.3,0,0.5c-0.2,0.2-0.3,0.2-0.5,0c-0.2-0.2-0.2-0.3,0-0.5l0,0l0,0h0.2l0.3-0.2
			l1.5-0.5c0.2,0,0.3,0,0.3,0.2s0,0.3-0.2,0.3l-1.3,0.6l-0.3,0.2l0,0l0,0l0,0v-0.1C508.3,218.6,508.3,218.1,508.3,218.1z
			 M530.3,211.4c0.2,0.2,0,0.5-0.2,0.5c-0.2,0.2-0.3,0-0.5-0.2c-0.2-0.2-0.5-0.5-1.3-0.5c-0.9,0-1.8,0-3,0.5c-1.5,0.5-3,1.3-4.9,2.2
			l-2.2,1l-4.3,2.1l-4.2,1.5l-1,0.2h-0.3h-0.2c0,0-0.3,0-0.3-0.3c0-0.2,0.2-0.3,0.3-0.3l0,0l0,0l0.2-0.2l1-0.3l4.2-1.5l4.3-2.2
			l2.2-1c1.7-0.9,3.3-1.8,5.1-2.4c1.3-0.3,2.5-0.5,3.6-0.3C529.2,210.4,529.9,210.7,530.3,211.4"/>
		<path class="st3" d="M520.7,215c0,0.2-0.3,0.3-0.5,0.3s-0.3-0.2-0.3-0.5v-0.5l0,0l0.2,0.2h0.2h0.2h0.2l0,0l-0.6,1.3
			c-0.6,1.3-1.3,3.3-1.7,4.9l-0.2,0.9v0.3c0,0.2,0,0.3,0,0.3v-0.2l-0.2-0.2l0,0c0.2,0,0.3,0.2,0.2,0.3v0.2l-0.2,0.2h-0.6
			c-0.2,0-0.2-0.2-0.3-0.3c-0.2-0.5,0-1.2,0.2-1.8c0.3-1.5,1.2-3.6,1.8-4.9c0.3-0.6,0.5-1.2,0.9-1.5c0,0,0.2-0.3,0.5-0.2
			c0.3,0.2,0.3,0.3,0.3,0.5V215z"/>
		<path class="st3" d="M541,215.8c0.2,0.2,0.2,0.5,0,0.6c-0.2,0.2-0.5,0.2-0.6,0c-0.2-0.2-0.2-0.5,0-0.6l0.2-0.2l0,0l0.2-0.2l0.6-1
			c0.2-0.2,0.3-0.2,0.3,0c0.2,0,0.2,0.2,0.2,0.3l-0.5,1.2v0.2v-0.2L541,215.8L541,215.8z M546.7,206.5c0-0.2,0.2-0.3,0.3-0.3
			s0.2,0,0.3,0.2c0.2,0.3,0,0.5,0,0.6l-0.3,0.5l-0.9,1.7l-3.9,5.8l-0.9,1.2l-0.3,0.3c0,0.2,0,0.2-0.5,0.3c-0.3,0-0.6-0.2-0.6-0.5
			s0.2-0.6,0.5-0.6h-0.2l0,0l0,0l0.2-0.3l0.9-1.2l3.9-5.7l1-1.5L546.7,206.5L546.7,206.5L546.7,206.5z"/>
		<path class="st3" d="M528.6,195.2c0-0.2,0-0.5,0.2-0.5s0.3,0,0.5,0.2c0.2,0.3,0,0.5,0,0.6l-0.3,0.9l-1.2,2.4l-3.3,6l-1.5,2.5
			l-0.9,1.5c0,0,0,0.2-0.2,0.2l-0.3,0.2h-0.2c-0.2,0-0.2,0-0.3-0.2v-0.2v-0.3v-0.2l0.9-1.7l1.5-2.5l3.3-5.8l1.2-2.2L528.6,195.2
			L528.6,195.2L528.6,195.2z"/>
		<path class="st3" d="M528.7,206.4c0.2,0.2,0.3,0.3,0.2,0.5c-0.2,0.2-0.3,0.3-0.5,0.2c-0.2,0-0.3-0.3-0.2-0.5l0,0v-0.3
			c0-0.2,0-0.3,0.2-0.3s0.2,0,0.3,0.2V206.4z M532.2,194c-0.2,0.2-0.3,0.3-0.5,0.2c-0.2,0-0.3-0.3-0.2-0.5l0.2-0.3
			c0,0,0.3-0.2,0.5,0l0.2,0.3v0.9c-0.2,1.3-0.6,3.7-1.5,6l-1.3,3.9l-0.3,1.2l-0.2,0.6c0,0.2,0,0.5-0.2,1c-0.2,0.2-0.3,0.2-0.6,0.2
			c-0.2-0.2-0.2-0.3-0.2-0.6v-0.2v-0.5l0.2-0.9l0.3-1.2l1.3-3.7c0.9-2.4,1.3-4.5,1.5-5.8V194l0,0v0.2l0.2,0.2L532.2,194L532.2,194
			L532.2,194L532.2,194z"/>
		<path class="st3" d="M545.1,187.6c-0.2,0-0.3-0.2-0.5-0.3c0-0.2,0.2-0.3,0.3-0.5c0.3,0,0.6,0,0.9,0.3l0.3,0.9l0.2,2.4
			c0,1.8-0.3,3.7-0.6,5.4l-0.9,3.9c0,0,0,0.2-0.2,0.2l-0.2,0.2c-0.2,0.2-0.3,0.2-0.3,0l0,0l-0.2-0.3v-0.2l0.9-3.9
			c0.3-1.7,0.6-3.3,0.6-5.2l-0.2-2.2V187.6L545.1,187.6z"/>
		<path class="st3" d="M544.9,193.3c0,0.2,0,0.5-0.2,0.5s-0.3,0-0.5-0.2l0.2,0.2h0.2l0,0l-0.3,0.3l-1.2,1.3l-1.7,1.3l-1.8,1
			c-0.2,0.2-0.3,0-0.3,0c-0.2-0.2,0-0.2,0-0.3l1.7-1.3l1.7-1.3l1.2-1.2l0.5-0.3l0.3-0.2L544.9,193.3z"/>
		<path class="st3" d="M567.8,162.1c0.3,0,0.5,0.2,0.6,0.3c0,0.3-0.2,0.5-0.3,0.6l-93,18.6c-0.3,0-0.5-0.2-0.6-0.3
			c0-0.3,0.2-0.5,0.3-0.6L567.8,162.1z"/>
		<path class="st3" d="M486.6,197.9c0.2,0.2,0.2,0.5,0.2,0.6c-0.2,0.2-0.5,0.2-0.6,0.2c-0.2-0.2-0.2-0.5-0.2-0.6
			c0.2-0.2,0.2-0.2,0.3-0.2h-0.2l0,0l0.2-0.2c0.2-0.2,0.3-0.2,0.3,0c0.2,0,0.2,0.2,0.2,0.3v0.3l0,0L486.6,197.9L486.6,197.9z
			 M500.5,178.2c0,0.2-0.2,0.3-0.5,0.3c-0.2,0-0.3-0.2-0.3-0.5v-0.4l0,0l0.2,0.2h0.2l0,0l-1,1.2l-2.4,3.1l-2.8,4.2l-4.2,6.7l-1,1.8
			l-0.5,1.2l-0.6,1l-0.5,0.9l-0.2,0.3l-0.2,0.2l-0.2,0.2c-0.2,0.2-0.5,0.2-0.6-0.2c-0.2-0.2-0.2-0.5,0.2-0.6h0.2h-0.2l0,0l0.2-0.3
			l0.5-0.9l0.5-1l0.6-1.3l1.2-1.8l4.2-6.7l2.8-4.2l2.4-3.1c0.5-0.6,0.9-1.2,1.3-1.3h0.5l0.3,0.3v0.8H500.5z M486.7,198.2
			c0,0.3-0.2,0.5-0.5,0.5s-0.5-0.2-0.5-0.5s0.2-0.5,0.5-0.5C486.6,197.7,486.7,198,486.7,198.2"/>
		<path class="st3" d="M480.3,192.2c-0.2,0.2-0.5,0-0.5-0.2c-0.2-0.2,0-0.5,0.2-0.5c0.2-0.2,0.5,0,0.5,0.2c0,0,0,0,0,0.2v-0.2
			l-0.2-0.2h-0.2l0,0h0.2l0.9-0.2c0.2,0,0.3,0,0.3,0.2c0,0.2,0,0.3-0.2,0.3l-0.9,0.3L480.3,192.2z M491.9,188.6
			c0,0.2-0.2,0.3-0.3,0.3c-0.2,0-0.3-0.2-0.3-0.3l0,0H491l-1.2,0.3l-3.9,1.5l-3.7,1.2l-1.3,0.3l-0.5,0.2h-0.2H480
			c-0.2,0-0.3,0-0.5-0.2c-0.2-0.3,0-0.3,0-0.5l0.2-0.2l0.5-0.3l1.3-0.3l3.6-1l4-1.5l1.5-0.3l0.6,0.2L491.9,188.6z"/>
		<path class="st3" d="M511,173.6c0.2,0,0.3,0.2,0.3,0.5c0,0.2-0.2,0.3-0.5,0.3h-0.3l-0.2,0.2l-0.2,0.9c0,0.9-0.2,2.1-0.5,3.9
			l-0.9,2.8l-1.8,6l-1.2,4.3l-0.5,2.5c-0.2,0.9-0.3,1.3-0.6,1.7l-0.6,0.2l-0.9-0.2c-0.2,0-0.2-0.2-0.2-0.3c0-0.2,0.2-0.2,0.3-0.2
			h0.6l0.2-0.2l0.2-1.2l0.5-2.7l1.2-4.5l1.8-6l0.9-2.8c0.5-1.8,0.5-2.7,0.6-3.7c0-0.3,0.2-0.9,0.3-1.2l0.5-0.3L511,173.6L511,173.6z
			"/>
		<path class="st3" d="M504.8,193.3c0,0.2-0.3,0.3-0.5,0.3c-0.2,0-0.3-0.2-0.3-0.5l0.2,0.2l0,0H504l-1.5,1l-2.2,1.7l-4.9,4l-3.1,2.7
			l-2.2,2.1l-0.5,0.5l-0.2,0.2l0,0v-0.2l-0.2-0.2H489h-0.2l0,0l1.2-1c0.2-0.2,0.3-0.2,0.3,0c0.2,0.2,0.2,0.3,0,0.3l-0.9,0.9
			l-0.3,0.3h-0.3l-0.2-0.3c0-0.3,0.2-0.3,0.2-0.3l0.5-0.6l2.2-2.2l3-2.8l5.1-4l2.2-1.7l1.8-1c0.2-0.2,0.5-0.2,0.9,0l0.3,0.3v0.3
			H504.8z"/>
		<path class="st3" d="M498.6,208.7c0,0.2-0.3,0.3-0.5,0.2c-0.2,0-0.3-0.3-0.2-0.5c0-0.2,0.3-0.3,0.5-0.2c0,0,0,0,0.2,0h-0.2h-0.2
			l0,0l0,0l0,0l0.3-0.9c0-0.2,0.2-0.2,0.3-0.2c0.2,0,0.2,0.2,0.2,0.3l-0.2,0.9L498.6,208.7L498.6,208.7z M502.7,195.6
			c-0.2,0-0.3-0.2-0.3-0.3c0-0.2,0.2-0.3,0.3-0.3l0.5,0.2v0.2v0.5l-0.3,1.3l-1.5,4.2l-1.8,4.3l-0.5,1.8l-0.3,1
			c0,0.2-0.2,0.3-0.3,0.3h-0.2c-0.3-0.2-0.2-0.3-0.2-0.3v-1l0.5-2.1l1.8-4.3l1.7-4.2l0.3-1.3v-0.3v0.2L502.7,195.6L502.7,195.6z"/>
		<path class="st3" d="M530.1,171.5c-0.2,0-0.3-0.3-0.2-0.5c0-0.2,0.3-0.3,0.5-0.2l0.5,0.3l0.2,0.5l-0.2,1.2c-0.3,1-0.9,2.2-1.8,3.6
			c-1.8,2.7-4.3,5.7-6.2,8.2l-1.9,2.7v0.2l0,0l0,0h0.2l0.5-0.2c0.2,0,0.3,0,0.3,0.2c0,0.2,0,0.3-0.2,0.3c-0.5,0.2-0.6,0.3-1,0.3
			l-0.3-0.5l0.2-0.5c0.3-0.6,1-1.7,1.8-2.8c1.8-2.5,4.3-5.5,6-8.2c0.9-1.3,1.5-2.5,1.8-3.3L530.1,171.5L530.1,171.5L530.1,171.5z"/>
		<path class="st3" d="M511.3,183c0,0.2-0.3,0.3-0.5,0.2c-0.2,0-0.3-0.3-0.2-0.5c0-0.2,0.2-0.3,0.3-0.2h-0.2l0.6-0.2
			c0.2,0,0.3,0,0.3,0.2c0,0.2,0,0.3-0.2,0.3L511.3,183L511.3,183L511.3,183z M523.6,179.6c0.2,0,0.3,0.2,0.3,0.3
			c0,0.1-0.2,0.3-0.3,0.3c-0.9,0-1.8-0.2-3.1,0.2l-3.6,1l-4.2,1.3l-1.7,0.3c0,0,0,0.2-0.3,0c-0.2-0.2-0.2-0.3-0.2-0.5l0,0l0.2-0.2
			l1.5-0.5l4.2-1.2c1.3-0.3,2.5-0.9,3.7-1C521.7,179.4,522.7,179.6,523.6,179.6"/>
		<path class="st3" d="M528.2,179.1c0.2-0.2,0.3-0.2,0.5,0c0.2,0.2,0.2,0.2,0.2,0.3v1.2c0,1.2,0.2,2.7,0.3,4.2
			c0.2,1,0.3,2.1,0.5,2.5l0.3,0.5h0.3c0.2,0,0.3,0,0.3,0.2c0,0.2,0,0.3-0.2,0.3c-0.3,0.2-0.6,0.2-1,0c-0.3-0.2-0.5-0.5-0.9-0.9
			c-0.5-0.6-0.6-1.7-0.9-2.7c-0.2-1.5-0.3-3.1-0.2-4.3C527.9,180,527.9,179.4,528.2,179.1"/>
		<path class="st3" d="M529.1,184c0.2,0,0.3,0.2,0.3,0.5c0,0.2-0.2,0.3-0.5,0.3l0,0c-0.3-0.2-0.9,0-1.2,0.3l-1.2,1
			c-0.2,0.2-0.3,0-0.3,0c0-0.2,0-0.3,0-0.3l1.2-1.2C527.7,184.3,528.2,184,529.1,184"/>
		<path class="st3" d="M566.5,149.6c-0.2,0-0.3-0.2-0.5-0.3c0-0.2,0.2-0.3,0.3-0.5c0,0,0,0,0.2,0h0.3l0,0l-0.2-0.3
			c-0.2-0.2,0-0.3,0-0.3c0.2-0.2,0.3,0,0.3,0l0.3,0.5l-0.2,0.5C567.1,149.6,566.8,149.6,566.5,149.6"/>
		<path class="st3" d="M566.2,148.5c0,0.2-0.3,0.2-0.3,0.2c-0.2,0-0.2-0.3-0.2-0.3c0-0.2,0.3-0.2,0.3-0.2l0.2,0.2l0,0l0,0
			C566.2,148.3,566.4,148.5,566.2,148.5C566.2,148.7,566.2,148.7,566.2,148.5L566.2,148.5L566.2,148.5z M566.4,148.5
			c0,0.2-0.2,0.3-0.3,0.3s-0.3-0.2-0.3-0.3c0-0.2,0.2-0.3,0.3-0.3C566.2,147.9,566.4,148.1,566.4,148.5"/>
		<path class="st3" d="M567.4,147.8c0,0.2-0.2,0.3-0.3,0.3c0,0,0,0-0.2,0l0,0h-0.3l-3.3,0.5c-1.3,0.3-3.1,0.9-4.9,1.2
			c-2.1,0.3-3.1,0-5.1,0.3l-4.5,1l-3.1,0.5l-5.8,1l-7.2,0.9c-5.2,0.5-9.8,0.5-14.2,0.3l-5.1-0.2h-5.2c-2.5,0-4.3-0.3-6.2-0.9
			c-4-1-8.7-1.5-12.5-2.1c-3.6-0.5-6.7-1.2-8.7-1.3l-1.8,0.2c-0.9,0.2-1.7,1-2.8,1.3h-1.5l-2.4,0.5l-1.7,0.3l-0.6,0.2l-1.2,0.6
			l-0.9,0.3c-0.2,0-0.3,0-0.5,0l-0.3-0.3v-0.2v-0.2c0-0.2,0.2-0.3,0.3-0.3l0.5-0.3c0.3-0.3,0.9-0.6,1.5-0.9l0.9-0.2l1.7-0.3
			c0.9-0.2,1.7-0.5,2.5-0.5h1.2c0.9-0.2,1.7-1,2.8-1.3c0.6-0.2,1.5-0.2,2.4-0.2c2.4,0.2,5.4,0.9,8.8,1.3c3.9,0.5,8.5,1,12.7,2.1
			c1.8,0.5,3.7,0.9,6,0.9h5.2l5.1,0.2c4.3,0.2,9.1,0.2,14-0.5l7.2-0.9l5.8-1l3-0.5l4.6-1c2.1-0.3,3.1,0,5.1-0.2l4.9-1l3.3-0.3
			l0.6,0.2L567.4,147.8L567.4,147.8z M567.1,148.1c0.2,0.2,0.2,0.3-0.2,0.5c-0.2,0.2-0.3,0.2-0.5-0.2l0,0c-0.2-0.3,0-0.5,0.2-0.6
			l0.3-0.3l-0.2,0.2v0.2c0-0.2,0.2-0.3,0.3-0.3s0.3,0.2,0.3,0.3C567.4,147.9,567.4,147.9,567.1,148.1L567.1,148.1L567.1,148.1
			L567.1,148.1L567.1,148.1z"/>
		<path class="st3" d="M491.4,150c0.2,0.2,0.2,0.3,0,0.5c-0.2,0.2-0.3,0.2-0.5,0h0.2h-0.2l-0.9,0.2c-0.5,0.2-1.3,1-2.5,2.1l-2.4,2.2
			l-2.5,2.2l-4.2,3.6l-3.9,3.1l-0.6,0.6l0,0v-0.2l-0.2-0.2l0,0l1.5-0.3c0.2,0,0.3,0,0.3,0.2c0,0.2,0,0.3-0.2,0.3
			c-1,0.3-1.5,0.6-2.1,0.5c-0.2,0-0.3-0.2-0.3-0.5l0.2-0.5l0.9-0.9l4-3.1l4.2-3.6l2.5-2.2l2.4-2.2c1.2-1,1.8-1.8,2.8-2.2l1-0.2h0.3
			v0.5H491.4z M491.4,150.5c-0.2,0.2-0.5,0-0.5-0.2c-0.2-0.2,0-0.3,0-0.5l0,0c0.2-0.2,0.3-0.2,0.5,0
			C491.6,150,491.6,150.3,491.4,150.5L491.4,150.5L491.4,150.5z"/>
		<path class="st3" d="M486.4,172.2c0.2,0.2,0,0.5-0.2,0.6c-0.2,0.2-0.5,0-0.6-0.2v-0.4V172c0-0.2,0.2-0.2,0.3-0.2l0.6-0.3
			c0.2,0,0.3,0,0.3,0.2c0,0.2,0,0.2,0,0.3l-0.2,0.3l0,0l0,0L486.4,172.2c0.2,0.2,0,0.3,0,0.5v-0.2v-0.2V172.2L486.4,172.2z
			 M509.8,155.1c0,0.2,0,0.5-0.2,0.5s-0.3,0-0.5-0.2l0,0l-0.3,0.2l-2.2,1.5l-4.2,3.1l-10.7,8.2l-3.6,2.8l-1.5,1.2l-0.3,0.3l-0.2,0.2
			h-0.5c-0.2-0.2-0.3-0.5-0.2-0.6c0.2-0.2,0.5-0.3,0.6-0.2h-0.2h-0.2h-0.2h-0.2l0.3-0.3l1.5-1.2l3.6-2.8l10.7-8.2l4.2-3.1l2.5-1.5
			l0.9-0.2C509.7,154.8,509.8,155,509.8,155.1"/>
		<path class="st3" d="M497.8,150.9c0.2-0.2,0.5,0,0.5,0.2c0.2,0.2,0,0.3,0,0.5l-0.3,0.2l-0.3-0.2l-0.5-0.3l-1.2-1.2l-1.7-1.5
			c-1.2-1.3-2.2-3.1-3.3-5.1c-1-1.7-2.1-3.1-2.8-4c-0.6-0.6-1.5-1-2.2-1.2l-1.8-0.3l0,0h0.2v-0.2l0,0l0.3,0.3c0.2,0.2,0.2,0.3,0,0.3
			c-0.2,0.2-0.2,0.2-0.3,0l-0.6-0.6v-0.5l0.3-0.3c0.5-0.2,1.3-0.2,2.1,0c1,0.2,2.2,0.5,3,1.5c1,1,1.8,2.5,2.8,4.3
			c1,1.8,2.1,3.7,3,4.9l1.5,1.7l1.2,1.2L497.8,150.9L497.8,150.9L497.8,150.9z"/>
		<path class="st3" d="M489.6,142c-0.2,0.2-0.3,0.2-0.5,0.2c-0.2-0.2-0.2-0.3-0.2-0.5l0,0l0,0l-0.3-0.3l-1.3-1.2
			c-0.9-0.6-1.2-1.3-2.1-2.1c-1.5-1-4.3-1.2-7-1.2c-2.2,0-4,0-5.7-0.2l-1.7-0.3h-2.4h-1c0,0,0,0-0.2,0H467l0,0h0.2l0.2-0.2v-0.2
			v-0.2l-0.2-0.2h0.2l0.6,0.2c0.5,0.2,1.2,0.3,1.8,0.6c0.2,0.2,0.2,0.3,0,0.3c0,0.2-0.2,0.2-0.3,0c-0.5-0.2-1-0.3-1.5-0.3h-0.6h-0.3
			l-0.3-0.2l0.2,0.2l-0.3-0.5l0.2-0.3l0.5-0.3c0,0,0,0,0.2,0h1c0.6,0,1.7,0,2.7,0.2l1.7,0.3c1.5,0.2,3.3,0.2,5.5,0.2
			c2.8,0,5.8,0,7.7,1.5c0.9,0.6,1.3,1.5,2.1,2.1l1.2,1.3l0.3,0.6C489.7,141.2,489.7,141.7,489.6,142"/>
		<path class="st3" d="M467,146.5c-0.2,0.2-0.3,0.2-0.5,0c-0.2-0.2-0.2-0.3,0-0.5c0,0,0.2-0.2,0.3-0.2h-0.2l0,0l0.5-0.5
			c0.2-0.2,0.3-0.2,0.3,0c0.2,0.2,0.2,0.3,0,0.3L467,146.5L467,146.5z M478.2,136.3c0.2,0.2,0.2,0.3,0,0.5c-0.2,0.2-0.3,0.2-0.5,0
			l0,0h-0.3c-0.3,0.2-0.9,0.5-1.3,1l-3.7,4.2c-1.2,1.3-2.7,2.5-3.7,3.3l-1.2,0.9l-0.3,0.2l0,0c-0.2,0.2-0.3,0.2-0.5,0
			c-0.2-0.2-0.2-0.2,0-0.3v-0.2l0.3-0.3l1.2-0.9c1-0.9,2.5-2.1,3.7-3.3c1.5-1.5,2.5-3.1,3.7-4.2c0.6-0.6,1.2-1,1.7-1.2l0.6-0.2
			L478.2,136.3z"/>
		<path class="st3" d="M478.7,135.3c-0.2-0.2-0.3-0.3-0.2-0.5c0-0.2,0.3-0.3,0.5-0.2l0,0h-0.2l-0.2,0.2v0.2l0,0l-0.2-0.2l-1.2-1.5
			l-1.8-3l-3.1-6c-1.2-1.8-2.5-3.3-3.6-4.3l-0.9-0.6l-0.3-0.2l0,0h0.2c-0.2,0-0.2,0-0.3,0l0,0h0.2h0.2l0.3-0.2l0.2-0.2v-0.2l0,0
			l1,1.2c0.2,0.2,0.2,0.3,0,0.3c-0.2,0.2-0.2,0.2-0.3,0l-1.3-1.2l-0.3-0.3l-0.5-0.2l0.3-0.6c0.2,0,0.2-0.2,0.3-0.2
			c0.5,0,0.6,0.2,1,0.3l1,0.9c1.2,1,2.5,2.5,3.7,4.6l3.1,6.2l1.7,3l1,1.7c0.2,0.2,0.3,0.3,0.2,0.6
			C479.3,135.1,478.8,135.3,478.7,135.3L478.7,135.3z"/>
		<path class="st3" d="M515.7,151.2c0.2,0.2,0,0.5-0.2,0.5s-0.3,0-0.5-0.2c-0.3-0.5-0.9-0.9-1.3-1.7l-0.9-1.5
			c-0.5-0.9-1-2.2-2.1-3.3l-1.8-2.2l-2.5-2.2l-3.1-2.2l-1.3-0.9c-0.5-0.5-0.9-1.2-0.9-1.7l0.5-0.9l1-0.3c0.2,0,0.3,0,0.3,0.2
			c0,0.2,0,0.3-0.2,0.3l-0.6,0.3v0.3c0,0.2,0.2,0.3,0.6,0.6l1.3,0.9l3.1,2.4c0.9,0.6,1.8,1.7,2.8,2.7l1.8,2.4c1,1.3,1.5,2.7,1.8,3.6
			l0.6,1.3C514.9,150,515.4,150.3,515.7,151.2"/>
		<path class="st3" d="M501.2,135c0-0.2,0.3-0.3,0.5-0.3s0.3,0.2,0.3,0.3l-0.2,0.3l-0.3,0.3h-0.5l-1.2-0.3c-1.3-0.2-3.1,0.3-5.1,0
			c-1.5-0.3-2.8-1.3-4.2-2.4c-0.9-0.6-1.8-1.2-2.2-2.1v-0.2c0-0.3,0-0.6,0.2-0.9l0.6-0.3c0.2,0,0.3,0,0.3,0.2c0,0.2,0,0.2-0.2,0.3
			l-0.2,0.2l0,0c0,0,0,0,0.2,0.2c0.2,0.3,1,1,2.1,1.7c1.3,1,2.5,2.1,3.7,2.2c1.5,0.3,3.3-0.2,4.9,0l1.3,0.3h0.4l0,0L501.2,135
			L501.2,135z"/>
		<path class="st3" d="M567.1,118.9c0.2,0,0.3,0.2,0.3,0.3s0,0.2-0.2,0.3l-0.2,0.2h-0.5h-1.2c0,0-0.2,0-0.2-0.2l-0.2-0.3l0.2-0.3
			c0.2-0.2,0.3,0,0.3,0l0,0l-0.2-0.2l0,0l0,0h0.2l1,0.2H567.1L567.1,118.9z M566.9,119.6c-0.2,0-0.3-0.2-0.3-0.3
			c0-0.1,0.2-0.3,0.3-0.3h0.2l0,0c0.2,0,0.5,0.2,0.5,0.3c0,0.1-0.2,0.5-0.3,0.5C567.1,119.6,566.9,119.6,566.9,119.6L566.9,119.6
			L566.9,119.6L566.9,119.6z"/>
		<path class="st3" d="M567.8,120.4c-0.2,0.2-0.5,0-0.5-0.2c-0.2-0.2,0-0.3,0-0.5l0,0v0.2v0.2v0.2l0.2,0.2l0,0h-0.3h-1.5l-1.5-0.3
			c-0.6-0.3-1.2-0.9-1.5-1.3c-0.6-0.5-1.7-0.9-3-1l-4.6-0.5c-4-0.5-8.7-1.7-14-2.2c-4.6-0.5-9.4-0.9-14-1.8
			c-5.1-1-10.9-2.4-16.4-4.2c-2.5-0.9-4.6-1.8-6.9-2.8l-5.5-2.8c-1.7-0.9-3.3-1.3-4.6-2.1c-1.7-0.6-2.8-1.5-4-2.1l-1.8-0.9
			c-1.5-0.2-3.6-0.2-5.2-0.2c-1.8,0-2.8-0.5-3.9-0.6c-0.9-0.2-1.7-0.2-2.5-0.2h-1.2h-0.2l-1.3-0.9c-0.2,0-0.2-0.2-0.2-0.3
			c0-0.1,0.2-0.2,0.3-0.2h1.3h0.2h1.2c0.9,0,1.7,0,2.7,0.2c1,0.3,2.1,0.6,3.6,0.9c1.7,0,3.7,0,5.4,0.5l2.2,0.9
			c1.2,0.6,2.2,1.3,3.9,2.1c1.3,0.5,3,1.2,4.9,2.1l5.5,2.8c2.1,1,4.2,2.1,6.7,2.8c5.4,1.8,11.2,3.1,16.2,4.2c4.5,1,9.2,1.3,13.9,1.8
			c2.7,0.3,5.2,0.6,7.6,1.2l6.5,1c3.3,0.3,6.5,0.2,8.4,1.7l1.3,1.2l1.2,0.3h1.5h0.5c0.2,0,0.3,0,0.3,0.3
			C568.1,120.2,567.8,120.4,567.8,120.4"/>
		<path class="st3" d="M481.2,98.9c0.2,0,0.3,0.2,0.3,0.5c0,0.2-0.2,0.3-0.5,0.3c-0.6-0.2-1.5,0.2-2.5,0.9l-1.8,1l-6.4,3.1l-2.4,0.9
			h-0.3c-0.2,0-0.3,0-0.3-0.2c-0.2-0.2,0-0.3,0-0.5l0.3-0.3c0.2-0.2,0.3-0.2,0.3,0c0.2,0.2,0.2,0.3,0,0.3l-0.2,0.2v-0.2v-0.2h-0.2
			l0,0h0.2l2.2-1l6.2-3.1l2.1-0.9C479.4,99.1,480.2,98.8,481.2,98.9"/>
		<path class="st3" d="M477.8,80.7c-0.2,0.3-0.5,0.3-0.9,0.2c-0.3-0.2-0.3-0.5-0.2-0.9c0.2-0.3,0.5-0.3,0.9-0.2
			c0.2,0,0.2,0.2,0.3,0.3v0.2l0.9,2.1c0,0.2,0,0.3-0.2,0.3c-0.2,0-0.3,0-0.3-0.2l-1.2-1.7l0,0l0,0l0,0h0.2h0.2L477.8,80.7z
			 M486.3,97.6c0.2,0,0.3,0.3,0.2,0.5c0,0.2-0.2,0.3-0.5,0.3c-0.5,0-0.9-0.5-1.2-1l-1.5-2.4l-2.5-4.2c-1.7-2.8-3-6-3.7-8.2l-0.5-1.8
			v-0.2l0.2-0.5l0.2-0.2c0.2-0.2,0.3-0.2,0.5-0.2c0.2,0,0.3,0.2,0.3,0.3l0,0v0.2v0.2l0.5,1.5c0.6,2.2,2.1,5.4,3.6,8.2l2.4,4.2
			l1.3,2.4L486.3,97.6z"/>
		<path class="st3" d="M479.4,114c-0.2,0.2-0.3,0.2-0.5,0.2c-0.2-0.2-0.2-0.3-0.2-0.5s0.3-0.2,0.3-0.2h-0.2h-0.2l0.5-0.3
			c0.2,0,0.3,0,0.3,0.2s0,0.3,0,0.3V114L479.4,114L479.4,114z M496.1,102.8c0.2,0,0.3,0.3,0.2,0.5c0,0.2-0.3,0.3-0.5,0.2l-0.9,0.2
			l-1.8,1l-5.8,3.6l-3.1,2.4l-2.2,1.8l-1.7,1.3l-1,0.6H479c-0.2,0-0.3-0.2-0.3-0.3l0,0l0.2-0.2l0.9-0.9l1.5-1.2l2.2-1.8l3.3-2.4
			l5.8-3.3l1.8-1C495.2,102.6,495.8,102.6,496.1,102.8"/>
		<path class="st3" d="M499.6,91.9c0.2,0.2,0.2,0.3-0.2,0.5c-0.2,0.2-0.3,0.2-0.5,0l-1.5-2.1c-0.6-0.9-2.1-2.1-3.1-3
			c-1.7-1.3-3.1-2.1-4.6-3.1c-1-0.9-2.1-1.8-3.6-2.8c-1-0.9-2.4-1-3.6-1.5c-0.6-0.3-1.2-0.9-1.5-1.3l-0.3-0.6
			c-0.2-0.2-0.2-0.5-0.2-0.9c0-0.2,0.2-0.2,0.2-0.3l0.6-0.2l0.5,0.2l1.3,0.6c0.2,0,0.2,0.2,0.2,0.3c0,0.2-0.2,0.2-0.3,0.2l-1.3-0.2
			l0,0l0,0l0.2-0.2v-0.2c0,0.2,0,0.3,0,0.3v-0.2l0,0l0,0l0.2,0.3c0.3,0.3,0.6,0.6,1,0.9c0.9,0.3,2.4,0.6,3.7,1.7
			c1.7,1.2,2.7,2.2,3.7,3c1.3,1.2,2.8,1.8,4.5,3.3c1.2,1,2.5,2.4,3.1,3.3L499.6,91.9z"/>
		<path class="st3" d="M489.1,64.3c0,0.2-0.3,0.3-0.5,0.3s-0.3-0.2-0.3-0.5l-0.2-0.5h0.2h0.2l0.2-0.2v-0.2c0,0,0,0,0,0.2v-0.2
			l0.2,0.2L489.1,64.3c0.9,1.5,1.2,3.1,1.5,5.2c0.6,3.1,1.8,6.2,2.7,8.4c0.6,1.5,1,3.1,1.5,4.3l0.9,1.7l1.3,2.1l0.9,1.3
			c1.2,1.8,2.5,3,3.6,4.6c1.1,1.6,1.2,3.9,1.7,6.2l0.9,2.5l1.2,2.4l0.5,1.3l0.2,0.6v0.2l0,0v-0.2c0.3,0.2,0.6,0.6,0.5,1
			c-0.2,0.3-0.6,0.6-1,0.5l-0.5-0.3l-0.3-0.9v-0.5l-0.5-1.2l-1.2-2.5l-0.9-2.8c-0.5-2.5-0.6-4.5-1.5-5.8c-0.9-1.5-2.2-2.5-3.6-4.6
			l-0.9-1.2l-1.3-2.1l-1-1.8c-0.6-1.5-0.9-3.1-1.5-4.3c-1-2.2-2.2-5.4-2.8-8.7c-0.3-1.8-0.6-3.6-1.2-4.9l-0.3-0.6
			c-0.2-0.2-0.3-0.5-0.2-0.9c0,0,0,0,0-0.2l0.3-0.3h0.3L489,63C489,63.4,489.3,63.7,489.1,64.3 M506.1,105.8c0,0.5-0.3,0.9-0.9,0.9
			s-0.9-0.3-0.9-0.9s0.3-0.9,0.9-0.9S506.1,105.3,506.1,105.8"/>
		<path class="st3" d="M566.9,134.8c0.2,0.2,0.2,0.3,0,0.5c-0.2,0.2-0.3,0.2-0.5,0l-1-0.2h-2.2l-4.6-0.3c-3.1-0.3-7.3-0.5-11.3-1.2
			l-5.1-1l-4.9-1l-1.7-0.5h-0.3l0,0h0.2l0.2-0.2v-0.2c0,0.2-0.2,0.3-0.2,0.3l0.2-0.2l0,0v0.5c0,0.2,0,0.3-0.2,0.3s-0.2,0-0.3-0.2
			l-0.3-0.5c-0.2-0.2-0.2-0.2-0.2-0.3l0.3-0.6l0.3-0.2l0.5,0.2l1.7,0.5l4.6,1l5.1,1c4,0.5,8.2,0.9,11.3,1.2l4.6,0.3l2.2,0.2
			C566,134.2,566.5,134.4,566.9,134.8"/>
		<path class="st3" d="M537.7,130.8c0.2,0.2,0.2,0.3,0,0.5c-0.2,0.2-0.3,0.2-0.5,0l-1.8-2.1c-1.2-1.2-2.8-2.8-4.9-4.2l-3.1-1.8
			l-2.1-0.9l-2.5-0.6c-1.3-0.3-2.5-0.3-3.7-0.3c-1,0-1.8,0.2-2.4,0.3l-0.3,0.3v0.2l0.3,0.3l0.9,0.5c0.2,0,0.2,0.2,0.2,0.3
			c0,0.1-0.2,0.2-0.3,0.2l-1-0.5l-0.5-0.6c-0.2-0.3,0-0.6,0.2-0.9l0.6-0.5c0.6-0.3,1.5-0.5,2.5-0.5c1.2,0,2.4,0,3.9,0.3l2.7,0.6
			l2.2,0.9c1.2,0.5,2.2,1.3,3.1,2.1c2.1,1.5,3.9,3.1,4.9,4.5L537.7,130.8z"/>
		<path class="st3" d="M519.5,143.8c0,0.2-0.2,0.3-0.3,0.3c-0.2,0-0.3-0.2-0.3-0.3c0-0.1,0.2-0.3,0.3-0.3H519l0.5-0.5
			c0.2-0.2,0.3-0.2,0.3,0c0.2,0.2,0.2,0.3,0,0.3L519.5,143.8L519.5,143.8z M537.7,134.4c0.2,0,0.3,0.2,0.3,0.3
			c0,0.1-0.2,0.3-0.3,0.3c-0.3,0-0.6-0.2-1-0.2l-1.3-0.2c-0.5,0-1.3,0.5-2.5,1c-1.5,0.6-3.3,1.5-5.1,2.4c-2.1,1-3.7,2.2-5.1,3.3
			l-1.8,1.5l-1.2,0.9l-0.3,0.2h-0.2c-0.2,0-0.3-0.2-0.3-0.3l0,0l0,0l0.2-0.2l0.3-0.3l1-1l1.8-1.5c1.5-1.2,3.1-2.4,5.2-3.3
			c1.8-1,3.7-1.7,5.2-2.4c1.2-0.5,2.1-1,2.8-1.2C536.6,133.8,537.7,134.4,537.7,134.4"/>
		<path class="st3" d="M524,122.3c0-0.2,0.2-0.5,0.3-0.5c0.2,0,0.2,0,0.3,0l0.2,0.3v0.3l-0.2,0.5c-0.3,0.6-1.2,1.5-2.2,2.5l-3.3,3.1
			l-3.1,3l-0.6,0.9v0.2c0.2,0.2,0.2,0.3,0,0.3c-0.2,0.2-0.3,0.2-0.3,0l-0.2-0.2v-0.5l0.6-1l3-3.1l3.1-3.1l2.1-2.4L524,122.3
			L524,122.3z M524.6,123.2c0,0.2-0.3,0.3-0.5,0.3s-0.3-0.3-0.3-0.5l0.3-1l0.2-0.2c0.2-0.2,0.5-0.2,0.6,0s0.2,0.5,0,0.6
			c-0.2,0.1-0.3,0.2-0.3,0h0.2h0.2l0,0L524.6,123.2z"/>
		<path class="st3" d="M519.8,120.1c0.2,0,0.3,0.2,0.3,0.3c0,0.2-0.2,0.3-0.3,0.3c-1.5,0.2-2.4-0.2-3.7-0.9l-2.7-1.3l-3.9-1.8
			c-1.3-0.5-2.5-0.9-3.7-1l-2.2-0.2c0,0,0,0-0.2,0H503l-0.3-0.5c0-0.2,0.2-0.3,0.2-0.3s0,0,0.2,0h0.2l0.5-0.2c0,0,0,0,0.2,0l2.4,0.2
			c1.2,0.2,2.5,0.5,3.9,1.2l4,2.1l2.7,1.3C517.9,119.9,518.5,120.2,519.8,120.1"/>
		<path class="st3" d="M510.7,118.7c0,0.2,0,0.5-0.2,0.5c-0.2,0-0.3,0-0.5-0.2l0,0h-0.2l-1.2,0.3l-3.6,1.5c-1.5,0.6-3,1.3-4.2,1.7
			l-1.5,0.2l-0.5-0.2l-0.3-0.5c0-0.2,0.2-0.3,0.2-0.3c0.2,0,0.3,0,0.3,0.2l0.2,0.2h0.3l1.3-0.3l3.9-1.7l3.6-1.5l1.3-0.3h0.5
			L510.7,118.7z"/>
		<path class="st3" d="M517.2,136.9c-0.2,0.2-0.5,0.2-0.6,0c-0.2-0.2-0.2-0.5,0-0.6c0.2-0.1,0.5-0.2,0.6,0l0.2,0.2v-0.2l0,0l0.9,0.5
			c0.2,0,0.2,0.2,0.2,0.3c0,0.2-0.2,0.2-0.3,0.2l-1-0.3l0,0V136.9z M526.4,136.8c0.2,0.2,0,0.5-0.2,0.5l0,0H526h-0.6l-2.8,0.2h-3.7
			l-2.2-0.3c0,0-0.2,0-0.2-0.2l-0.2-0.2v-0.2c0-0.2,0-0.3,0.2-0.5h0.2h0.2h0.2l1.8,0.3h3.6h2.8h0.6h0.2L526.4,136.8z M526.1,137.5
			c-0.2,0-0.3-0.2-0.3-0.3c0-0.1,0.2-0.3,0.3-0.3l0,0l0,0l0,0h-0.3c0.2-0.2,0.3-0.3,0.5-0.2c0.2,0.1,0.3,0.3,0.2,0.5
			C526.4,137.2,526.2,137.5,526.1,137.5L526.1,137.5L526.1,137.5z"/>
		<path class="st3" d="M530.3,138.3c0.2,0.2,0.2,0.3,0,0.5c-0.2,0.2-0.3,0.2-0.5,0l-0.3-0.2l-0.5,0.2c-0.5,0.3-1,0.9-1.5,1.7
			c-1,1.3-1.7,3.1-1.5,5.2l0.2,2.1c0,0.2,0,0.3-0.2,0.3c-0.2,0-0.3,0-0.3-0.2l-0.6-2.1c-0.2-2.2,0.6-4.3,1.7-5.8
			c0.5-0.9,1.2-1.5,1.8-1.8l1-0.3C529.8,137.8,530.1,137.9,530.3,138.3"/>
		<path class="st3" d="M568.1,101.1c0.2,0.2,0.2,0.3,0.2,0.5c-0.2,0.2-0.3,0.2-0.5,0.2l-1.5-0.2l-3.9,0.3l-5.4,0.5l-4.2,0.2
			l-9.1,0.5l-7.2,0.5h-5.1l-3.3-0.3c-0.2,0-0.2,0-0.3,0l-0.3-0.2c0,0,0,0,0-0.2c0-0.3,0.2-0.3,0.3-0.5c0,0,0.2,0,0.3-0.2h1.3
			l2.2,0.2l4.9,0.2l7-0.3l9.1-0.5l4.2-0.2l5.4-0.5l3.9-0.2C567.1,100.8,567.7,101,568.1,101.1"/>
		<path class="st3" d="M530.7,88.2c0,0.3-0.3,0.5-0.6,0.5c-0.3,0-0.5-0.3-0.5-0.6c0-0.2,0.2-0.5,0.5-0.5h0.5l0.3,0.2l0.9,0.2
			c0.6,0.2,1.2,0.3,1.7,0.6c0.2,0,0.2,0.3,0,0.3c0,0.2-0.2,0.2-0.3,0.2l-1.7-0.5h-0.9h-0.2l0,0l0.2-0.2L530.7,88.2z M530.4,87.6
			c0.3,0.2,0.5,0.5,0.3,0.9c-0.2,0.3-0.5,0.5-0.9,0.3c0,0,0,0-0.2,0c-0.3-0.2-0.3-0.6,0-0.9C529.9,87.4,530.3,87.4,530.4,87.6
			 M547,101.9c0.2,0,0.3,0.2,0.3,0.5c0,0.2-0.2,0.3-0.3,0.3c-0.9,0-1.2-0.6-1.8-1.3l-2.1-1.2c-0.9-0.5-2.1-1-3-1.8
			c-1.2-0.9-2.2-2.1-3.3-3.1l-2.7-3.1c-0.9-1-1.7-1.7-2.5-2.4l-1.2-0.9l-0.3-0.2h-0.2h-0.2c-0.3-0.2-0.3-0.5-0.2-0.9
			c0.2-0.2,0.5-0.3,0.6-0.2h0.2l0.6,0.3l1.2,1c0.6,0.6,1.7,1.5,2.5,2.5l2.5,3.1c1,1.2,2.1,2.4,3,3c2.1,1.5,3.9,2.2,5.1,3.1
			C546.3,101.4,546.7,101.9,547,101.9"/>
		<path class="st3" d="M543.7,105c0.2,0,0.3,0.3,0.3,0.5s-0.2,0.3-0.5,0.3c-0.6-0.2-1.3,0.2-2.4,0.5l-3.6,1.3l-1,0.3h-0.4
			c-0.2,0-0.5-0.3-0.5-0.5c0-0.2,0-0.2,0-0.3l0.3-0.3l0.5-0.5c0.2-0.2,0.3-0.2,0.3,0s0.2,0.2,0,0.3l-0.2,0.5l0,0v-0.3
			c0.2,0,0.2,0.2,0.2,0.3l-0.2-0.3h-0.2l0,0l0.6-0.2l3.6-1.3C541.8,105,542.8,104.8,543.7,105"/>
		<path class="st3" d="M567.1,83.7c-0.2,0-0.5,0-0.5-0.2s0-0.5,0.2-0.5l0,0l0.3-0.2l0,0l0,0V83l0.2,0.3H567l-0.9-0.2l-2.8-0.5
			l-3.9-0.5l-4.3-1l-4.5-1.2c-1-0.3-1.7-0.9-2.2-1c-0.6-0.3-1.3-0.6-2.4-0.9c-1.5-0.3-3.3-0.5-5.4-0.5l-3.6-0.3l-5.5-0.6
			c-2.4-0.3-4.9-1-7-1.5l-4.6-1.3c-2.2-0.5-4.3-0.5-6-0.6h-2.1h-0.5c-0.2,0-0.5,0-0.9-0.3l0,0c-0.3-0.3-0.3-0.9-0.2-1l0.2-0.5
			l0.6-0.6c0.5-0.3,0.9-0.5,1.2-0.5l0.6,0.2l0.3,0.5c0.2,0.3,0,0.9-0.3,1c-0.3,0.3-0.6,0.2-0.9,0.2h-0.3h-0.2l0,0h-0.2l-0.3-0.3
			l-0.2-0.6c0-0.2,0-0.3,0.2-0.3s0.2,0,0.3,0.2l0.2,0.3l0,0h-0.2l0,0l0.3-0.2h0.2h0.5l0,0h-0.2l-0.2,0.2v0.2v0.2v0.2l0.2,0.2h0.2
			h0.2l-0.5,0.3l-0.3,0.3l0,0l0,0v-0.2v-0.2c0,0.2-0.3-0.3-0.2-0.3l0,0l0,0l0.6,0.2l2.1,0.2c1.7,0.2,3.9,0.2,6.2,0.6l4.6,1.3
			c2.2,0.5,4.6,1,6.9,1.3l5.1,0.6l3.3,0.3c2.1,0,4,0,5.7,0.5c1.2,0.3,2.1,0.6,2.8,1l2.1,1.2l4.5,1.3l4.2,1.2l3.9-0.2l2.8,0.5l1,0.3
			l0.3,0.2l0.2,0.5v-0.3v0.3l-0.2,0.2L567.1,83.7z"/>
		<path class="st3" d="M498.2,54.3c-0.2,0.2-0.5,0-0.6-0.2c-0.2-0.2,0-0.5,0.2-0.6c0.2-0.2,0.5,0,0.6,0.2c0,0.2,0,0.2,0,0.3v-0.2
			v-0.2l0,0l0,0l1.2,1c0.2,0.2,0.2,0.3,0,0.3c-0.2,0.2-0.2,0.2-0.3,0l-1.3-0.9l0,0l0,0l0,0L498.2,54.3L498.2,54.3z M510.9,70.4
			c0.2,0.2,0.2,0.3,0.2,0.5c-0.2,0.2-0.3,0.2-0.5,0.2c-0.9-0.5-1.7-1.2-2.8-2.7l-2.7-3.7c-1.8-2.8-3.9-6.4-5.5-8.5l-1.8-2.1
			c0,0,0,0-0.2-0.2l-0.2-0.1v-0.3c0-0.2,0.2-0.3,0.3-0.5h0.3l0.2,0.2c0,0,0,0,0.2,0.2l1.8,2.2c1.7,2.4,3.6,5.8,5.4,8.7l2.5,3.7
			C509.4,69.5,510.1,70.1,510.9,70.4"/>
		<path class="st3" d="M509,72c0,0.2-0.2,0.3-0.5,0.3c-0.2,0-0.3-0.2-0.3-0.3l-0.2-0.3l-0.5-0.5c-0.5-0.3-1.3-0.9-2.4-1.2
			c-2.1-0.5-4.9-0.5-7-0.2l-1.7,0.3l-0.3,0.3l-0.2,0.2c0,0.2-0.2,0.3-0.2,0.3c-0.2,0-0.2,0-0.3-0.2V70l0.5-0.5
			c0.5-0.3,1.2-0.5,2.1-0.6c2.4-0.3,5.4-0.3,7.6,0.3c1.2,0.3,2.1,0.9,2.7,1.3l0.6,0.9C508.8,71.5,509,71.8,509,72"/>
		<path class="st3" d="M528.6,77.9c0.2,0.2,0.2,0.3,0,0.5c-0.2,0.2-0.3,0.2-0.5,0c-0.5-0.5-0.9-0.6-2.1-0.5l-2.5,1
			c-2.5,1.2-5.8,2.7-8.7,4.2l-3.3,2.2l-1,0.9l-0.2,0.5c0,0.2,0,0.3-0.2,0.3c-0.2,0-0.3,0-0.3-0.2c-0.2-0.3,0-0.6,0.3-1l1-1l3.6-2.2
			c2.8-1.5,6.2-3.1,8.5-4.3c1-0.5,1.8-1,2.7-1.2C527.3,76.7,528,77.2,528.6,77.9"/>
		<path class="st3" d="M568.9,60.3c0.2-0.2,0.5,0,0.5,0.2v0.2l-0.2,0.3l-0.3,0.2l-1,0.3l-1.8,0.3l-4.5,0.6l-6.2,0.6l-7.2,0.2
			l-5.4,0.2h-9.2c-3,0-6-0.3-8.5-0.5l-4-0.3l-2.8-0.3h-1.7h-0.3l0,0h0.2l0.2-0.2l0.2-0.3v-0.2v-0.2l0,0c0.5,0.3,1.8,0.9,3,0.6
			c0.2,0,0.3,0.2,0.3,0.3c0,0.2-0.2,0.3-0.2,0.3c-1.5,0.2-2.8-0.3-3.3-0.3h-0.2l-0.2-0.2l-0.2-0.6c0.2-0.3,0.3-0.3,0.5-0.3h0.3h1.8
			l2.8,0.3l4,0.5c2.5,0.2,5.4,0.5,8.4,0.5h9.2l5.4-0.2l7-0.3l6.2-0.6l4.5-0.6l1.7-0.3l1-0.3V60.3z M569,60.9c-0.2,0-0.3-0.2-0.3-0.5
			c0-0.2,0.2-0.3,0.3-0.3l0,0c0.2,0,0.5,0.2,0.5,0.3c0,0.2-0.2,0.5-0.3,0.5s-0.3,0-0.3-0.2L569,60.9L569,60.9L569,60.9z"/>
		<path class="st3" d="M520,40.5c0-0.2,0.2-0.3,0.5-0.3c0.2,0,0.3,0.2,0.3,0.5c0,0,0,0.2-0.2,0.2v-0.2l0,0l0.2,1.2
			c0,0.2,0,0.3-0.2,0.3s-0.3,0-0.3-0.2l-0.3-1V40.5z M526.7,61.8c0,0.2-0.3,0.3-0.5,0.3c-0.2,0-0.3-0.2-0.3-0.5
			c0.2-0.9,0-1.3-0.6-2.7l-1.7-4.2l-1-3.9l-0.9-4.5l-1.3-4.3l-0.3-1h-0.2l0,0h0.2c-0.3-0.2-0.3-0.5-0.2-0.9c0.2-0.3,0.5-0.3,0.9-0.2
			l0,0c0.3,0.3,0.3,0.3,0.3,0.6l0.3,1l1.3,4.5l1,4.5l1,3.7l1.5,4.2C526.9,60,527.1,60.8,526.7,61.8 M521,40.5c0,0.3-0.3,0.6-0.6,0.6
			s-0.6-0.3-0.6-0.6c0-0.3,0.3-0.6,0.6-0.6S521,40.2,521,40.5"/>
		<path class="st3" d="M524.7,56.3c0,0.2-0.2,0.3-0.5,0.3c-0.2,0-0.3-0.2-0.3-0.5c0.2-0.9,0.2-1.5,0-1.8c-0.2-0.3-0.3-0.5-1-0.9
			l-2.7-1.2l-5.4-2.5l-1-0.5h-0.3l0,0l0,0h0.2l0.2-0.2v-0.2l0,0l0.9,0.6c0.2,0,0.2,0.2,0.2,0.3c0,0.2-0.2,0.2-0.3,0.2l-1.2-0.6
			l-0.3-0.3c-0.2-0.2-0.2-0.3,0-0.6l0.5-0.2h0.5l1.2,0.3l5.7,2.7l2.7,1.3c0.6,0.3,1.2,0.9,1.3,1.5C524.9,54.8,524.9,55.4,524.7,56.3
			"/>
		<path class="st3" d="M536.4,37.3c-0.2,0.2-0.5,0.3-0.6,0.2c-0.2-0.2-0.3-0.5-0.2-0.6c0.2-0.2,0.3-0.3,0.6-0.2l0,0h0.2
			c0.6,0.2,1.7,0.9,2.2,1.5c0.2,0.2,0,0.3,0,0.3c-0.2,0-0.3,0-0.3,0c-0.5-0.5-1.5-1-2.1-1h0.2V37.3L536.4,37.3z M568.4,39.1
			c0.2,0,0.3,0.2,0.5,0.3c0,0.2-0.2,0.3-0.3,0.3c-0.6,0.2-1.5,0-2.7-0.2l-1.8-0.3l-2.4-0.2l-4.9-0.6c-5.4-0.5-10.9-0.5-15.4-0.5
			h-3.1l-2.1-0.2l-0.5-0.2l-0.2-0.2c0,0-0.3-0.2-0.2-0.6c0.2-0.2,0.3-0.3,0.5-0.3h0.2h0.2l2.1,0.2l3,0.2c4.5,0,10,0,15.4,0.5
			l4.9,0.6l2.4,0.3l1.8,0.3L568.4,39.1z"/>
		<path class="st3" d="M542.6,37.7c0,0.2-0.3,0.3-0.5,0.3s-0.3-0.2-0.3-0.5c0.2-1,0.3-2.2,0.5-4v-2.7l-0.2-2.8l0.2-0.6
			c0-0.2,0.2-0.3,0.6-0.3l0.3,0.2v0.2l0.4,1.2c0,0.2,0,0.3-0.2,0.3s-0.3,0-0.3-0.2l-0.3-0.9l-0.2-0.2l0,0h0.2h0.2h0.2l0.2-0.2v-0.2
			l0,0v0.3v3.2v2.8C543.1,35.4,542.9,36.7,542.6,37.7"/>
		<path class="st3" d="M542.6,37.5c0.2,0,0.3,0.2,0.3,0.3c0,0.2-0.2,0.3-0.3,0.3c-0.5,0-1.7,0.3-3.1,0.9l-5.2,1.8l-4.3,1.8l-1,0.5
			V43v-0.2l0,0l0,0h0.2c0.2,0,0.3,0,0.3,0.2s0,0.3-0.2,0.3h-0.5l-0.5-0.3l0.2-0.2l1-0.6l4.3-1.8l5.2-2.1
			C540.8,38.1,541.9,37.5,542.6,37.5"/>
		<path class="st3" d="M553,40.2c-0.2,0-0.3-0.2-0.5-0.3c0-0.2,0-0.3,0.3-0.5h0.3c0.2,0,0.3,0.5,0.3,0.5l-0.3,0.5l-1.5,1.3l-4.9,4
			c-1.3,1.2-2.7,2.2-3.6,3.1l-0.9,1.2l-0.2,0.3v0.2c0.2,0.2,0.2,0.3,0,0.3c-0.2,0.2-0.2,0.2-0.3,0l-0.3-0.5v-0.6l0.9-1.3
			c0.9-1,2.1-2.2,3.3-3.3l4.9-3.9L552,40l0.2-0.2l0,0l0,0V40l0.2,0.2L553,40.2L553,40.2z"/>
		<path class="st3" d="M566.8,49.7c0.2,0,0.3,0.2,0.3,0.3c0,0.2-0.2,0.3-0.3,0.3l-1.7,0.3l-1.5,0.3l-5.5,0.9l-3.9,0.5
			c-1,0.2-1.8,0.2-2.5-0.2c0,0-0.2,0-0.2-0.2l0.2-0.6l0.2-0.3c0-0.2,0.2-0.2,0.3,0l0.2,0.2l0,0l0,0h0.2c0.5,0.2,2.8,0,5.7-0.3
			l5.4-0.9l1.5-0.2L566.8,49.7z"/>
		<path class="st3" d="M568.4,236c0.2-0.2,0.5,0,0.5,0.2c0.2,0.2,0,0.3,0,0.5l-0.2,0.2l-0.2,0.2H568c-0.3-0.2-0.3-0.5-0.3-0.6v-0.6
			c0,0,0-0.2,0.2-0.2c0.3-0.3,0.6-0.5,1-0.5l0.5,0.2l0.2,0.2l0.2,0.3v0.6c-0.2,1-1.2,1.7-2.2,2.2c-0.3,0.2-0.6,0.3-1.2,0.2
			c-0.3,0-0.6-0.3-0.9-0.5l-0.2-0.9c0.2-0.9,0.6-1.5,1.2-2.1l1.7-1.3l0.9-0.5c0.3,0,0.6,0,1,0.2l0.5,0.5c0.3,0.5,0.2,1,0.2,1.5
			c-0.2,0.6-0.5,1.2-0.9,1.7c-0.5,0.6-1.3,1-2.1,1c-0.2,0-0.3,0.2-1,0c-0.5-0.2-0.6-0.5-0.9-0.6l-0.2-0.6c0-0.5,0.2-1,0.3-1.2
			l0.9-0.9c0.6-0.5,1.3-0.9,2.1-1c0.5-0.2,0.9-0.2,1.3,0c0.3,0.2,0.9,0.5,1,0.9c0.5,0.9,0.3,1.7,0.2,2.5c-0.2,0.9-0.6,1.7-1.3,2.2
			c-0.6,0.6-1.7,1-2.5,0.6c-0.9-0.3-1.3-1.2-1.5-1.8c-0.2-0.9-0.2-1.7,0.3-2.4c0.5-0.9,1.2-1.3,2.1-1.5c0.9-0.2,1.5-0.3,2.4-0.2
			c0.6,0.2,1.3,0.3,1.7,1c0.3,0.3,0.3,1,0.2,1.3l-0.6,1.2c-0.6,0.9-1.5,1.5-2.5,1.8c-0.9,0.3-1.8,0.3-2.7,0.2
			c-0.9-0.2-1.5-0.5-2.1-1.2c-0.2-0.5-0.3-1-0.2-1.3s0.3-0.6,0.6-1c0.9-0.9,2.2-1.2,3.3-1.2h1.5c0.6,0.2,1.3,0.3,1.7,1
			c0.2,0.3,0.3,0.6,0.2,1l-0.3,1c-0.3,0.5-0.9,1-1.5,1.3c-0.6,0.3-1.5,0.5-2.4,0.3c-0.5-0.2-0.9-0.5-1-0.9l-0.2-1.2c0,0,0,0,0-0.2
			c0.2-0.6,0.6-1.3,1.2-1.7c0.5-0.4,1.2-0.6,1.7-0.6c0.6,0,1.2,0.2,1.5,0.6c0.3,0.5,0.3,1.2,0,2.2c0,0.2-0.2,0.2-0.3,0.2
			s-0.2-0.2-0.2-0.3c0.2-0.9,0-1.3-0.2-1.5c-0.2-0.2-0.3-0.2-0.6-0.2l-1,0.6l-0.3,0.6c0,0,0,0,0,0.2v0.3c0.2,0.2,0.6,0,1.2-0.2
			l1-0.6l0.2-0.3l0,0l-0.6-0.2h-1.2c-1,0.2-2.1,0.6-2.4,1l-0.2,0.2c0,0.2,0.3,0.3,0.9,0.5c0.5,0.2,1.2,0.2,1.7-0.2
			c0.6-0.2,1.5-0.6,1.8-1.2l0.5-0.6v-0.2l-0.6-0.2l-1.5,0.2c-0.5,0.2-0.9,0.3-0.9,0.6c-0.2,0.3-0.2,0.9-0.2,1.3l0.3,0.5
			c0.2,0,0.6,0,1-0.3c0.3-0.3,0.6-0.9,0.9-1.5c0.2-0.6,0.2-1.2,0-1.3l-0.2-0.2H570l-1.3,0.9l-0.5,0.5v0.2l0,0v0.3l0,0l0,0l-0.2-0.2
			l0,0h0.5c0.3,0,0.6-0.2,1-0.3l0.6-1.2v-0.3l0,0l0,0h0.2l-0.3,0.3c-0.9,0.6-2.1,1.8-2.2,2.2v0.2l0,0l-0.4,0.2h0.3
			c0.6-0.3,1.3-1,1.5-1.3v-0.2l0,0l0,0h0.2h0.2h0.2h-0.3l0,0l-0.2,0.2l0,0l0,0v-0.2v-0.3L568.4,236L568.4,236L568.4,236L568.4,236z"
			/>
		<path class="st3" d="M567.1,26c0,0.2,0,0.3-0.3,0.5c-0.2,0-0.3,0-0.5-0.2c-0.2-0.3-0.3-0.9-0.2-1.3l0.6-1.2l1.2-1.2l0.9-0.3h0.5
			l0.5,0.3c0.3,0.5,0.2,0.9,0.2,1.3l-0.3,0.5l-0.3,0.2l-1,0.2c-0.5,0-0.9-0.2-1.2-0.3c-0.3-0.3-0.5-1-0.3-1.3l0.5-0.9
			c0.3-0.5,1-0.9,1.5-1l1.2-0.2c0.2,0,0.5-0.2,1.2,0.2c0.5,0.3,0.5,0.9,0.6,1.2v0.6c0,1-0.6,2.1-1.7,2.4c-0.6,0.3-1.7,0.2-2.2-0.2
			c-0.6-0.3-1.2-1-1.3-1.8c0,0,0,0,0-0.2c-0.2-1,0.3-2.1,1.2-2.5c0.6-0.5,1.2-0.5,1.8-0.6c0.5,0,1.2,0.2,1.7,0.6
			c0.3,0.3,0.3,0.9,0.3,1.2l-0.2,1c-0.2,0.9-0.9,1.3-1.5,1.7c-0.6,0.3-1.3,0.5-2.1,0.6c-0.3,0-0.9,0.3-1.7,0.2c0,0,0,0-0.2,0
			c-0.5-0.3-0.9-0.6-0.9-1.2l-0.2-1.3c0.2-1.2,1-1.8,1.8-2.4c0.9-0.5,1.7-0.9,2.7-0.9h1.2c0.3,0,0.9,0.3,1.2,0.6s0.3,1,0.3,1.5
			c-0.2,0.9-0.6,1.2-1,1.5c-0.9,0.6-1.7,1-2.5,1.2c-0.3,0-0.9,0.2-1.3,0c-0.9-0.2-1.5-0.6-1.8-1.5c-0.3-1,0-1.8,0.5-2.5
			c0.6-0.9,1.7-1.2,2.7-1.3c1-0.2,2.1-0.2,2.7,0c0.5,0.2,1.2,0.3,1.3,0.9c0.2,0.2,0.3,0.6,0.2,1.2c-0.2,0.9-0.9,1.2-1.3,1.5
			l-1.8,0.6c-0.6,0.2-1.3,0.3-2.1,0.2l-0.3-0.2c-0.2-0.2-0.3-0.3-0.5-0.5c-0.2-0.3,0-0.6,0-0.9l0.3-0.5c0.2-0.2,0.5-0.3,0.6-0.3l0,0
			h0.3c0.2,0,0.3,0,0.3,0.2c0,0,0,0,0,0.2v0.2l0,0l0,0c0.2,0.3,0,0.5-0.2,0.9l-0.2,0.2V23v-0.3l-0.2-0.3h-0.2h0.2l1-0.2l1.5-0.5
			l0.5-0.3l0.2-0.2v-0.2l0,0l-0.3-0.2c-0.5,0-1.3,0-2.1,0.2c-0.6,0.2-1.3,0.5-1.5,0.9l-0.2,0.5v0.2l0.3,0.3h0.6
			c0.6,0,1.2-0.2,1.5-0.5l0.6-0.6v-0.2l0,0h-0.2h-0.5c-0.5,0-1.2,0.3-1.7,0.6c-0.5,0.3-0.6,0.6-0.6,0.9v0.4v-0.2l-0.2-0.2
			c0,0,0,0,0.2,0H567h0.6l1.3-0.3l0.6-0.5v-0.5v-0.2l0,0l0,0l-0.9,0.3c-0.3,0.3-0.3,0.6-0.3,0.9c0,0,0,0,0,0.2l0.3,0.6
			c0.2,0.2,0.3,0.2,0.6,0.2c0.3-0.2,0.6-0.5,0.6-1V22v-0.2l0,0l0.2,0.2l0,0h-0.5h-0.5l-0.9,1.5l-0.2,0.2l0,0v-0.2l-0.2-0.2l0.2,0.2
			h0.5h0.2l0,0l-0.2,0.2v-0.2l0,0l0,0l0.2,0.2h0.2l0,0l-0.2,0.2l-1,0.6l-0.6,0.6L567.1,26z"/>
		<path class="st3" d="M567.8,250c0.2,0,0.3,0.3,0.3,0.5c0,0.2-0.3,0.3-0.5,0.3c-0.5,0-1,0.2-1.3,0.9c-0.5,0.6-0.9,1.3-1.2,2.2
			c-0.3,0.9-0.3,1.5-0.2,1.8c0.2,0.3,0.6,0.6,1.5,1c0.9,0.3,2.1,0.3,2.8,0.3c1.3-0.2,2.5-1.2,3.3-2.8c0.5-0.9,0.6-1.7,0.9-2.4v-0.5
			v-0.5l0,0v0.2l0,0c0,0-0.5-0.3-1.2-0.3c-0.9,0-1.7,0-2.5,0.2l-1.5,0.3c-0.2,0.2-0.3,0-0.5-0.2c0,0,0-0.2,0-0.3
			c0.2-0.5,0.6-1,1.3-1.5c1-0.3,2.1-0.6,3-0.6l1.7,0.2c0.5,0.2,1.2,0.5,1.3,1.2c0.2,0.9,0,1.2,0,1.2l-0.2,1
			c-0.2,0.9-0.5,1.8-1.2,2.8c-1.2,1.8-2.8,3.3-4.6,3.3c-1.2,0-2.4-0.2-3.3-0.5s-2.1-1-2.2-1.8c-0.2-0.9,0-1.7,0.3-2.5
			c0.3-1,0.9-1.8,1.5-2.5C566.2,250.4,567.1,249.9,567.8,250"/>
		<path class="st3" d="M571.7,2c0.2,0,0.5,0,0.5,0.3v0.5c0,0.2,0,0.3-0.2,0.3L570,6c-1,1.2-2.1,2.4-3.3,3.3c-2.1,1.5-4,2.7-5.8,2.5
			c-1-0.2-1.7-0.9-2.1-1.7c-0.3-0.9-0.2-1.8,0.2-2.8c0.5-1.3,1.5-2.2,2.4-3.1l1.3-1.2c0.3-0.3,0.6-0.9,1.3-1c0.3,0,0.6,0.2,0.9,0.3
			c0.3,0.5,0.3,1,0.3,1.7l0.3,1.3c0.3,1.5,2.5,3.1,4.6,3.6c2.2,0.3,4.2-0.6,4.9-2.2c0.3-0.9,0.3-1.5,0-2.4l-0.6-1.5l-1-0.9
			c-0.3-0.2-0.6-0.2-1.3,0.5l-0.9,1.5c0,0,0,0.2-0.2,0.2l-0.5,0.6c-0.2,0.2-0.3,0.2-0.5,0l-0.2-0.2V3.9V3.6l0.9-2.1
			c0.6-1.2,2.1-1.8,3-1.5c0.9,0.3,1.5,0.9,2.1,1.3l1.2,2.1c0.5,1.3,0.3,2.7-0.2,3.9c-1.2,2.5-4,3.7-6.9,3.1
			c-2.7-0.5-5.4-2.4-5.7-4.9c0-0.3-0.3-1-0.3-1.7V3.2V3l0.2,0.2h0.2h0.2l0,0l-0.9,0.6L562.2,5c-0.9,0.9-1.7,1.7-2.1,2.7
			c-0.3,0.9-0.2,1.5,0,1.8c0.2,0.3,0.3,0.6,0.6,0.6c1.2,0,3-0.6,4.9-2.2c1.2-1,2.4-2.1,3.1-3.1l2.1-2.7c0-0.2,0.2-0.2,0.3-0.2
			L571.7,2z"/>
		<path class="st15" d="M566.9,25c0-0.6,0.5-1.2,1.2-1.2s1.2,0.5,1.2,1.2v211.4c0,0.6-0.5,1.2-1.2,1.2s-1.2-0.5-1.2-1.2V25z"/>
		<path class="st3" d="M662.3,57.8c0.3,0,0.6,0.3,0.5,0.6c0,0.3-0.3,0.6-0.6,0.5c-0.3,0-0.6-0.3-0.5-0.6
			C661.5,57.9,661.7,57.8,662.3,57.8h-0.3l0,0l0,0C662,57.6,662.3,57.6,662.3,57.8h0.2H662.3L662.3,57.8L662.3,57.8z M662.4,57.8
			c0.5,0.2,1,0.6,0.9,1.2c-0.2,0.5-0.6,1-1.2,0.9s-1-0.6-0.9-1.2c0-0.5,0.3-0.9,0.9-0.9h-0.2l-0.2,0.2h-0.2l0,0
			c0.3-0.3,0.9-0.5,1.3-0.2l0.2,0.2l-0.2-0.2h-0.2h-0.2H662.4z M658.9,55.4c-0.3,0.3-0.9,0.3-1.2,0.2s-0.3-0.6-0.2-1
			c0.3-0.5,0.6-0.9,1.2-1.3l1.8-1.5l1.8-1.7l0.3-0.5c0-0.2,0.2-0.2,0.3-0.3c0.2,0,0.3-0.2,0.6-0.2s0.9,0.3,1,0.5
			c0.2,0.3,0.2,0.5,0.2,0.6l-0.2,0.9L664,56l-0.3,1.8l-0.2,1v0.3l-0.2,0.3l-0.3,0.5c-0.2,0.2-0.5,0.3-0.9,0.3c-0.5,0-0.9-0.2-1-0.5
			c-0.5-0.5-0.5-1.5,0-2.1s1.2-0.5,1.8-0.2c0.2,0.2-0.9-0.2-0.5-0.2c0.2,0-0.9,0.2-0.6,0c0.2,0-0.5,0.3-0.5,0.2
			c0.2,0-0.3,0.3-0.2,0.2l-0.2,0.2l-0.2,0.2v0.2l0,0l0.2-1.2l0.5-1.8l1-4.9v-0.3v0.1v0.2v0.2l0.2,0.2l0.2,0.2l0.2,0.2
			c-0.2,0,0.6,0.2,0.5,0.2h0.3c-0.2,0,0.3-0.2,0.3-0.2l0.2-0.2c-0.2,0-0.2,0.2-0.3,0.2l0,0l0,0l-0.3,0.2l-1.8,1.5L658.9,55.4z"/>
		<path class="st3" d="M491.2,210.5h0.2h0.3c0.3,0.2,0.5,0.3,0.6,0.6l0.2,0.9c0.3,1.8,0.3,4.6,0.5,7.3v2.8v2.4l0.2,1.3v0.3v-0.2
			l-0.2-0.2l-0.3-0.2h-0.3h-0.2c0.2,0-0.3,0.2-0.3,0.2l-0.2,0.2l-0.2,0.2l0,0l0,0v-0.2c-0.2-0.3-1.2-1-1.8-1.2l-0.9-0.2l-1.2,1
			l-0.6,0.9l-0.3,0.5l-0.2,0.3v0.2v0.2v0.2l0,0c0.2,0.5,0,1.2-0.5,1.3c-0.5,0.1-1,0-1.2-0.3l-0.2-0.5l-0.2-0.3v-0.5l0.2-0.9l0.3-0.6
			l0.5-0.6l0.6-0.9c0.6-0.6,1.2-1.7,2.5-1.8c0.9-0.2,1.5,0,2.1,0.2c0.9,0.2,1.8,0.6,2.5,1.3c0.6,0.6,1.3,1.5,1.2,2.7l-0.3,1
			l-0.3,0.5l-0.6,0.3c-0.3,0-0.9-0.2-1.2-0.5c-0.3-0.5-0.3-0.6-0.5-1l-0.2-1.8v-2.4v-2.8c0-2.7,0.2-5.5,0-7.2l-0.2-0.9
			c0-0.3,0-0.6,0.3-0.9L491.2,210.5z M492,211.2c0,0.2-0.2,0.5-0.3,0.5c-0.2,0-0.5-0.2-0.5-0.3l0,0V211l0.2-0.2c0,0,0.2-0.2,0.5-0.2
			l0.3,0.3c0,0.2,0,0.3-0.3,0.5h0.2v-0.3V211l0,0v0.1H492z"/>
		<path class="st3" d="M569,236.8c0.2,0.2,0,0.5-0.2,0.6c-0.2,0-0.3,0-0.5-0.2c-0.2-0.2-0.3-0.6-0.2-1c0.2-0.3,0.5-0.5,0.9-0.6h0.2
			c0.5,0,0.6,0.2,1,0.3h-0.2c0.3,0.2,0.5,0.5,0.5,0.9l-0.2,0.9c-0.3,0.3-0.6,0.5-0.9,0.6l-0.9,0.3l-1,0.2c-0.3,0-0.5,0-0.9-0.3
			l-0.2-0.2c-0.3-0.5-0.2-0.9,0-1l0.3-0.5c0.5-0.3,0.9-0.3,1.2-0.2c0.5,0.2,0.6,0.5,0.9,0.6l0.2,0.6c0,0.5-0.3,0.9-0.5,1.2l-1,0.5
			c-0.5,0.2-1.2,0-1.7-0.5c0,0,0-0.2-0.2-0.2c-0.3-0.6-0.2-1.2,0-1.5c0.3-0.6,0.6-1,1-1.2l0.9-0.5c0.6-0.2,1.5-0.2,1.8,0.5V236
			c0.3,0.3,0.5,0.9,0.3,1.3c-0.2,1-1,1.5-1.7,1.8c-0.3,0.2-0.9,0.3-1.2,0.2c-0.6,0-1.2-0.5-1.5-1c-0.2-0.3-0.3-0.9-0.3-1.2
			c0.2-0.6,0.6-1,1-1.2l1-0.3l0.9-0.3c0.5-0.2,1-0.3,1.7,0c0.3,0.2,0.5,0.5,0.5,0.9v0.5c0,1-0.9,1.5-1.7,1.8c-0.2,0.2-0.5,0.3-1,0.2
			c-0.6-0.2-0.9-0.5-0.9-0.9l-0.2-0.6c0-0.6,0.5-1.2,0.9-1.3l1.2-0.5l1-0.2h0.6c0.3,0.2,0.6,0.3,0.6,0.6v0.6
			c-0.2,0.3-0.3,0.5-0.5,0.6l-0.5,0.3l-1.2,0.5l-1,0.2c-0.3,0-0.9-0.2-1.2-0.6c0,0,0,0,0-0.2c-0.2-0.5,0-1,0.2-1.3l0.2-0.2
			c0.6-0.3,1.5-0.2,2.2,0.5c0.2,0.2,0.2,0.3,0,0.5c-0.2,0.2-0.2,0.2-0.3,0h-0.6h-0.2l0,0c0,0.2,0,0.2-0.2,0.2l0,0v-0.2l-0.2-0.3
			c0,0,0,0,0,0.2l0,0l0,0h0.3l0.6-0.3l0.5-0.3h0.2l0,0v0.2v0.3v0.2c0-0.2,0.3,0.3,0.2,0.2c-0.2,0,0.5,0.2,0.3,0.2l0,0h-0.3l-0.9,0.2
			l-0.6,0.3l-0.2,0.2v-0.2v0.3l0,0L567,238l-0.2-0.2l0,0h0.2c0.3-0.2,0.9-0.6,0.9-0.6v-0.2l0,0v0.2l0.2,0.2l0,0l-0.5,0.2l-1,0.3
			l-0.9,0.3h-0.2l0,0V238v0.2l0.2,0.2h0.3l0.9-0.6v-0.2l0.2,0.2l0,0h-0.3l-0.3,0.2l-0.3,0.5v0.2v-0.2v0.2l-0.2-0.2h-0.2l0.3-0.2h0.2
			l0,0v0.2l0,0l0,0h0.2h0.2h-0.2l0,0l0.2-0.2v-0.2l0,0v-0.2v-0.2l-0.2-0.2l0.2,0.2l-0.2-0.2l0,0l0,0h0.6l0.3-0.2l0.3-0.2l0,0v0.2
			l0.2,0.2h0.2H568C569,236.8,569,236.8,569,236.8L569,236.8z"/>
		<path class="st3" d="M569,23.2c0.2,0.2,0.3,0.5,0.2,0.6c-0.2,0.2-0.5,0.3-0.6,0.2s-0.3-0.5-0.2-0.6c0.2-0.2,0.3-0.3,0.5-0.2h-0.2
			l0,0l0,0C568.9,23,569,23,569,23.2c0.2,0,0.2,0,0.2,0.2l0,0L569,23.2L569,23.2L569,23.2z M569.2,24.5c0,0.2-0.2,0.5-0.3,0.5
			s-0.3,0-0.5-0.2c-0.3-0.5,0-1.2,0.3-1.7l0.6-0.5l0.6-0.3c0.5-0.2,0.9,0.2,1,0.3c0.2,0.3,0.2,0.5,0,0.9c-0.3,0.6-0.9,0.9-1.2,1
			l-1.5,0.6l-1,0.2h-0.6c-0.3,0-0.6-0.3-0.9-0.6s-0.2-0.9-0.2-1.3c0.2-0.9,0.6-1.3,1.2-1.7l1.7-0.9l1.7-0.3h0.9
			c0.5,0.2,0.6,0.5,0.9,0.9l0.2,1c-0.2,1-1,1.3-1.3,1.7c-0.9,0.6-1.8,1.3-3,0.9c-0.9-0.3-1.2-1-1.3-1.8c0-0.5,0-1.2,0.5-1.7
			c0.9-0.6,1.5-0.6,2.2-0.9h1.2c0.2,0,0.5,0,1,0.2c0.5,0.3,0.6,0.6,0.6,1v1c0,0.6-0.5,1.3-0.9,1.8c-0.5,0.5-1,0.9-1.5,1l-1.2,0.2
			h-0.9c-0.9-0.2-1.3-0.9-1.5-1.5c-0.2-0.9,0.2-1.3,0.5-1.7l1.2-0.9l1.2-0.3h0.9c0.5,0.2,0.9,0.6,0.6,1.3c-0.2,0.5-0.3,0.5-0.5,0.6
			l0.2,0.3l-0.9,0.6v0.4c-0.2-0.2-0.5,0-0.6-0.2c-0.3-0.2-0.3-0.6-0.2-1c0.2-0.2,0.2-0.2,0.3-0.2h-0.2l0.9-0.6l0.3-0.2l0,0l0,0v0.2
			v0.2l0.2,0.2l0.2,0.2H570l-0.6,0.2l-0.6,0.5l-0.2,0.2v-0.2l0.2,0.3h0.3l0.5-0.2c0.6-0.3,1.3-1,1.3-1.3v-0.5l0,0l0.2,0.2l0,0h-0.5
			h-0.6l-0.6,0.2l-0.2,0.2l-0.3,0.5l0.2,0.5h0.3l0.9-0.5l0.5-0.5l0.2-0.2l0,0l0,0l0.2,0.2h-0.3l-1.3,0.3l-1.3,0.6l-0.5,0.5v0.5
			l-0.2-0.2h0.2l0.6-0.2l1-0.5l0.5-0.3l0.2-0.2v0v0.2v0.2l0.2,0.2l0.3,0.2h0.3l-0.5,0.2l-0.3,0.2L569.2,24.5z"/>
		<line class="st18" x1="501.9" y1="212.4" x2="568.3" y2="171.8"/>
		<path class="st3" d="M553.6,179.1c0,0.2,0.1,0.3,0.3,0.5c0.2,0,0.3-0.1,0.5-0.3c0-0.3,0.1-0.6-0.2-0.9l-0.8-0.4l-2.3-0.4
			c-1.8-0.2-3.7,0-5.4,0.1l-3.9,0.4c0,0-0.2,0-0.2,0.1l-0.2,0.1c-0.2,0.1-0.2,0.3,0,0.3l0,0l0.3,0.2h0.2l3.9-0.4
			c1.7-0.1,3.3-0.3,5.2-0.1l2.2,0.4L553.6,179.1L553.6,179.1z"/>
		<path class="st3" d="M547.9,178.7c-0.2,0-0.5,0-0.5,0.1c0,0.2,0,0.3,0.1,0.5l-0.1-0.2v-0.2l0,0l-0.3,0.3l-1.4,1.1l-1.5,1.5
			l-1.2,1.7c-0.2,0.1,0,0.3,0,0.3c0.1,0.2,0.2,0,0.3,0l1.5-1.5l1.5-1.5l1.3-1.1l0.4-0.4l0.2-0.3L547.9,178.7z"/>
		<path class="st3" d="M503.4,212.9c-0.2,0.3-0.6,0.5-1,0.2c-0.3-0.2-0.5-0.6-0.2-1l0.3-0.3c0.5-0.3,0.9-0.2,1.2-0.2l0.5,0.2
			c0.2,0.2,0.3,0.3,0.3,0.6v-0.3c0.2,0.5-0.2,0.6-0.3,0.9c-0.3,0.5-0.9,0.6-1.2,0.9l-0.6,0.3c-0.2,0-0.5,0.2-1,0
			c-0.3-0.2-0.5-0.5-0.6-0.6c-0.2-0.5,0-0.9,0-1.2c0.3-0.6,0.6-0.9,1.2-1l1-0.3l0.9-0.2c0.3,0,0.9,0,1.2,0.3
			c0.3,0.3,0.3,0.9,0.3,1.2l-0.2,0.9c-0.3,1-1.3,1.5-2.1,1.8l-1.2,0.3c-0.5,0.2-1.2,0.3-2.1-0.2l-0.2-0.2c-0.5-0.5-0.5-1.2-0.3-1.7
			l0.5-1.2l1-1.2c0.6-0.5,1.3-0.6,2.1-0.6c0.2,0,0.5-0.2,1,0c0.5,0.2,1,0.5,1.2,1c0.5,1.2,0,2.5-0.9,3.3c-0.5,0.5-1.2,1-1.8,1.3
			s-1.5,0.5-2.2,0.3c-0.9-0.2-1.3-0.9-1.5-1.5c-0.2-0.6-0.2-1.2-0.2-1.8c0.3-1.2,1-2.1,1.8-2.4c0.9-0.5,1.7-0.6,2.7-0.6
			c0.5,0,1,0,1.7,0.3c0.5,0.2,0.9,0.6,0.9,1.2c0.3,1.3-0.2,3-1.5,4c-1.2,1-2.8,1.5-4.5,0.9c-1.3-0.6-1.7-2.1-1.7-3
			c0-0.9,0.3-1.5,0.9-2.2c0.5-0.6,1.2-1,1.8-1h1.8c0.5,0,1,0,1.7,0.3c0.3,0.2,0.6,0.5,0.9,0.9c0.2,0.5,0.2,1,0,1.5l-0.6,1.2l-1,1
			l-0.9,0.5l-1.3,0.3h-1.5c-0.2,0-0.2,0-0.3-0.2l-0.3-0.2c-0.2-0.2-0.2-0.3-0.2-0.5l0,0l0.3-0.3c0,0,0.2-0.2,0.3-0.2l1.2-0.3l1-0.3
			l0.5-0.3l0.5-0.5l0.5-0.6l0.2-0.3v0.2l0,0l-1-0.2l-1.2,0.2l-0.5,0.3l-0.2,1c0,0.6,0.2,0.9,0.2,0.9c0.5,0.2,1.5,0.2,2.2-0.3
			c0.3-0.3,0.6-0.9,0.9-1.3v-0.3l0,0l0,0h-0.5c-0.5,0-1,0.2-1.5,0.5c-0.5,0.3-0.6,0.6-0.6,1v0.6l0,0l0,0h-0.2c0.2,0,1.5-0.2,2.1-0.9
			l0.5-1v-0.3l0.2,0.2l0.3,0.2h-0.2h-0.5l-0.6,0.2l-0.5,0.6l-0.2,0.6v-0.2l-0.2-0.2l0.2,0.2l-0.2-0.2h-0.2h0.5l0.9-0.2
			c0.6-0.2,1-0.5,1-0.6v-0.3l0,0l0,0l0.2,0.2l0.2,0.2l0,0l-0.3,0.2l-0.6,0.3l-0.2,0.2l0,0v-0.2v0.3l0,0v-0.2c0,0-0.3-0.3-0.2-0.2
			h-0.2h-0.2l0.3-0.2l0.9-0.3l0.2-0.2l0,0v0.2v0.2v0.2c0-0.2,0.2,0.3,0.2,0.3l0.2,0.2L503.4,212.9L503.4,212.9L503.4,212.9z
			 M503.2,212.3c0.2,0,0.5,0.2,0.5,0.5c0,0.2-0.2,0.5-0.5,0.5s-0.9,0-1-0.5c0-0.2,0-0.5,0.3-0.5c0.2,0,0.5,0,0.5,0.3l-0.2-0.2l0,0
			L503.2,212.3z M503.5,212.4c0,0.5-0.3,0.9-0.9,0.9c-0.5,0-0.9-0.3-0.9-0.9c0-0.5,0.3-0.9,0.9-0.9
			C503.2,211.7,503.5,212,503.5,212.4"/>
		<line class="st18" x1="568.5" y1="90.8" x2="645.3" y2="57.9"/>
		<path class="st3" d="M645.1,58.1c-0.2,0.3-0.5,0.5-1,0.3c-0.3-0.2-0.5-0.5-0.3-1l0,0c0.3-0.6,0.9-0.6,1.2-0.6c0.5,0,1.2,0.2,1.2,1
			c0,0.3-0.2,0.5-0.3,0.6c-0.5,0.3-1,0.6-1.3,0.6l0.2-0.2c-0.2,0.2-0.5,0.2-0.9,0.2s-0.6-0.3-0.6-0.5c0,0-0.2-0.2-0.2-0.3
			c-0.2-0.9,0-1.7,0.6-2.5c0.5-0.6,1.2-1,2.1-1.2h1.3c0.5,0.2,1,0.5,1.2,1c0.5,1.2,0,2.5-0.9,3.6l-1,0.9l-1.2,0.3
			c-0.5,0-1,0-1.5-0.5c-0.6-0.6-0.6-1.5-0.5-2.1c0.2-0.6,0.3-1.2,0.6-1.7c0.5-0.6,1.2-1,1.7-1.2c0.6-0.2,1.2-0.2,1.8-0.2
			c0.2,0,0.6,0,1.3,0.5c0.5,0.5,0.6,1.2,0.6,1.7c0,0.9-0.5,1.7-1.2,2.2c-0.5,0.5-1.3,1-2.1,1.2c-1.7,0.3-3.1-1.2-3.1-2.8
			c0-1,0.3-1.8,0.6-2.5c0.6-1,1.7-1.3,2.7-1.7c1-0.2,1.8-0.3,2.7-0.2c0.6,0,1.3,0.2,1.8,0.6c0.5,0.5,0.9,1.2,0.9,1.8
			c0,1.2-0.5,2.2-1.3,3c-0.6,0.9-1.7,1.7-2.7,2.1l-1.2,0.3c-0.5,0-1,0-1.7-0.2c-0.6-0.3-0.9-0.9-1-1.3l-0.3-1.5c0-0.9,0-1.7,0.3-2.5
			c0.3-0.6,1-1,1.5-1.3l1.5-0.3h1.7c0,0,0.5,0,1,0.3c0.9,0.5,1,1.2,1.2,1.7c0.3,1.2-0.2,2.2-0.9,3s-1.5,1.5-2.4,1.8
			c-0.5,0.3-1.2,0.5-1.8,0.3c-0.2,0-0.6,0-1.2-0.3c-0.9-0.6-1-1.5-1.2-2.2v-1.2l0.2-0.5c0-0.2,0.2-0.2,0.2-0.3l0.6-0.5l0.5-0.2h0.2
			h1.7h0.6h0.2l0.9,0.2c0.2,0,0.3,0.2,0.2,0.3c0,0.2-0.2,0.2-0.2,0.2l-0.9,0.3h-0.2l-0.9,0.2l-0.9,0.2l-0.2,0.2c0,0,0,0-0.2,0.2h0.2
			l0.2-0.2c0,0.2,0.2-0.5,0.2-0.3v-0.3c0,0.2,0,0.3,0,0.3l0,0v0.2v0.5l0.2,0.6l0.2,0.2l0,0l0,0l0,0h0.2l0.5-0.2
			c0.5-0.2,1.2-0.6,1.5-1.2c0.3-0.5,0.5-0.9,0.5-1l-0.2-0.5v-0.1h0.2h-0.3h-1.2l-0.9,0.2l-0.2,0.2l-0.5,2.1l0.2,0.9l0.2,0.2h-0.2
			l0,0l0.9-0.2c1-0.3,2.5-2.2,2.5-2.8V56l-0.6-0.2l-2.1,0.2c-0.6,0.2-1,0.5-1.2,0.6l-0.3,1c0,0.6,0.3,0.9,0.5,0.9l1-0.5l0.5-0.6
			v-0.2l0,0l0.2,0.2h-0.3c-0.6,0-1.3,0.2-1.5,0.5l-0.3,0.6v0.3v-0.2l0,0h0.5l0.5-0.3c0.2-0.3,0.5-0.9,0.5-1.3v-0.3l0.2,0.2h-1.2
			l-0.9,0.5c-0.3,0.3-0.3,0.9-0.3,0.9c0,0.2,0,0.2,0,0.3l0,0v-0.2c0,0-0.3-0.3-0.2-0.3c0.2,0-0.3-0.2-0.3-0.2h-0.2l0.6-0.2l0.2-0.2
			l0,0v0.2v0.2l0.2,0.3L645.1,58.1L645.1,58.1l-0.2,0.2l0,0L645.1,58.1L645.1,58.1z M645.1,57.9c0,0.3-0.3,0.6-0.6,0.6
			s-0.6-0.3-0.6-0.6c0-0.3,0.3-0.6,0.6-0.6C645,57.1,645.1,57.5,645.1,57.9"/>
		<line class="st0" x1="567.8" y1="90.4" x2="568.3" y2="171.8"/>
		<rect x="544" y="74.6" class="st19" width="20.9" height="12.7"/>
		<circle cx="568.1" cy="90.6" r="4"/>
		<circle cx="568.3" cy="172.3" r="4"/>
		<text transform="matrix(1 0 0 1 548.6514 84.5262)" class="st4 st20">$b$</text>
		<text transform="matrix(1 0 0 1 579.4209 170.0472)" class="st4 st20">$a$</text>
	</g>
	<g>
		<text transform="matrix(1.151 0 0 1 405.5 115.8417)" class="st17 st4 st21">$\sk(\sP)$</text>
	</g>
</g>
<circle cx="296.6" cy="213.8" r="3.7"/>
<circle cx="296.6" cy="191.9" r="3.7"/>
<circle cx="296.5" cy="170" r="3.7"/>
<circle cx="296.6" cy="117.5" r="3.7"/>
<circle cx="296.6" cy="95.6" r="3.7"/>
<circle cx="296.5" cy="73.7" r="3.7"/>
<g>
	<text transform="matrix(1.151 0 0 1 286.5595 52.5786)" class="st17 st4 st13">$\Delta(\sP)$</text>
</g>
<g>
	<g>
		<line class="st22" x1="348.7" y1="141.8" x2="426.5" y2="141.8"/>
		<g>
			<path class="st23" d="M432.5,141.8c-2.8,1.1-6.4,2.9-8.5,4.8l1.7-4.8l-1.7-4.8C426.2,139,429.7,140.8,432.5,141.8z"/>
		</g>
	</g>
</g>
<path class="st22" d="M348.7,141.8c-1,0-1.7-0.8-1.7-1.7s0.8-1.7,1.7-1.7"/>
<g>
	<g>
		<line class="st24" x1="282.6" y1="74.1" x2="282.6" y2="212.9"/>
		<g>
			<path class="st23" d="M279,79.2c0.2,0.1,0.4,0.1,0.5-0.1l3.1-4.8l3.1,4.8c0.1,0.2,0.3,0.2,0.5,0.1s0.2-0.3,0.1-0.5l-3.4-5.3
				c-0.1-0.1-0.2-0.2-0.3-0.2s-0.2,0.1-0.3,0.2l-3.4,5.3c0,0.1-0.1,0.1-0.1,0.2C278.8,79,278.9,79.1,279,79.2z"/>
		</g>
		<g>
			<path class="st23" d="M279,207.8c0.2-0.1,0.4-0.1,0.5,0.1l3.1,4.8l3.1-4.8c0.1-0.2,0.3-0.2,0.5-0.1s0.2,0.3,0.1,0.5l-3.4,5.3
				c-0.1,0.1-0.2,0.2-0.3,0.2s-0.2-0.1-0.3-0.2l-3.4-5.3c0-0.1-0.1-0.1-0.1-0.2C278.8,208,278.9,207.9,279,207.8z"/>
		</g>
	</g>
</g>
<text transform="matrix(1.151 0 0 1 260.1144 147.0232)" class="st4 st13">$n$</text>
<text transform="matrix(1.151 0 0 1 309.0845 76.3786)" class="st4 st13">$b$</text>
<text transform="matrix(1.151 0 0 1 309.0846 217.5174)" class="st4 st13">$a$</text>
</svg>
