<?xml version="1.0" encoding="utf-8"?>
<!-- Generator: Adobe Illustrator 23.0.3, SVG Export Plug-In . SVG Version: 6.00 Build 0)  -->
<svg version="1.1"
	 id="svg8" inkscape:version="0.92.4 (unknown)" sodipodi:docname="figure.svg" xmlns:cc="http://creativecommons.org/ns#" xmlns:dc="http://purl.org/dc/elements/1.1/" xmlns:inkscape="http://www.inkscape.org/namespaces/inkscape" xmlns:rdf="http://www.w3.org/1999/02/22-rdf-syntax-ns#" xmlns:sodipodi="http://sodipodi.sourceforge.net/DTD/sodipodi-0.dtd" xmlns:svg="http://www.w3.org/2000/svg"
	 xmlns="http://www.w3.org/2000/svg" xmlns:xlink="http://www.w3.org/1999/xlink" x="0px" y="0px" viewBox="0 0 680.3 258.2"
	 style="enable-background:new 0 0 680.3 258.2;" xml:space="preserve">
<style type="text/css">
	.st0{fill:none;stroke:#030304;stroke-width:0.75;stroke-miterlimit:10;}
	.st1{fill:#030304;}
	.st2{font-family:'ArialMT';}
	.st3{font-size:12px;}
	.st4{fill:none;stroke:#007BC4;stroke-linecap:round;stroke-miterlimit:10;}
	.st5{font-size:6.778px;}
	.st6{font-size:5.6247px;}
	.st7{fill:none;stroke:#737171;stroke-width:2;stroke-linecap:round;stroke-linejoin:round;stroke-miterlimit:10;}
	.st8{fill:#020203;}
	.st9{font-size:3.405px;}
	.st10{font-size:3.7642px;}
	.st11{font-size:10.4255px;}
	.st12{fill:none;stroke:#F08534;stroke-miterlimit:10;}
	.st13{fill:#F08534;}
	.st14{font-size:4.0903px;}
	.st15{fill:#007BC4;}
	.st16{fill:none;stroke:#F08534;stroke-width:2.2;stroke-miterlimit:10;}
	.st17{fill:none;stroke:#007BC4;stroke-width:2.5;stroke-linecap:round;stroke-miterlimit:10;}
	.st18{fill:#FFFFFF;}
	.st19{font-size:4.708px;}
</style>
<sodipodi:namedview  bordercolor="#666666" borderopacity="1.0" id="base" inkscape:current-layer="layer1" inkscape:cx="284.27627" inkscape:cy="182.72055" inkscape:document-units="mm" inkscape:guide-bbox="true" inkscape:pageopacity="0.0" inkscape:pageshadow="2" inkscape:window-height="995" inkscape:window-maximized="1" inkscape:window-width="2520" inkscape:window-x="20" inkscape:window-y="65" inkscape:zoom="0.99437388" pagecolor="#ffffff" showborder="true" showgrid="false" showguides="true" width="200mm">
	<inkscape:grid  dotted="false" empspacing="4" id="grid815" spacingx="10" spacingy="10" type="xygrid" units="mm">
		</inkscape:grid>
</sodipodi:namedview>
<g id="layer1" transform="translate(0,-177)" inkscape:groupmode="layer" inkscape:label="Layer 1">
</g>
<path class="st0" d="M483.4,60.7c5.7,16.3,14,46,14.1,84.6c0.1,39.2-8.4,69.3-14.1,85.8"/>
<text transform="matrix(1 0 0 1 433.9107 13.8108)" class="st1 st2 st3">$\mathscr P$</text>
<line class="st4" x1="525.9" y1="57.5" x2="549" y2="101.5"/>
<line class="st4" x1="511.9" y1="233.8" x2="552.3" y2="171"/>
<text transform="matrix(1 0 0 1 462.9168 41.391)" class="st1 st2 st5">$\mathscr P_\eta$</text>
<text transform="matrix(1 0 0 1 529.2224 41.0834)" class="st1 st2 st6">$\mathscr P_s$</text>
<rect x="433.9" y="22.5" class="st7" width="151" height="221.6"/>
<text transform="matrix(1.151 0 0 1 449.7236 69.9409)" class="st8 st2 st9">$\infty$</text>
<text transform="matrix(1.151 0 0 1 449.7236 88.9399)" class="st8 st2 st10">$1$</text>
<text transform="matrix(1.151 0 0 1 539.7422 64.6655)" class="st8 st2 st11">$b$</text>
<text transform="matrix(1.151 0 0 1 539.7422 222.393)" class="st8 st2 st11">$a$</text>
<line class="st12" x1="477.8" y1="73" x2="546.1" y2="73"/>
<line class="st12" x1="480.7" y1="85.6" x2="549" y2="85.6"/>
<text transform="matrix(1.151 0 0 1 449.7246 184.1587)" class="st8 st2 st9">$\lambda$</text>
<text transform="matrix(1.151 0 0 1 449.7236 204.3989)" class="st8 st2 st10">$0$</text>
<line class="st12" x1="487.4" y1="187.8" x2="555.7" y2="187.8"/>
<line class="st12" x1="485.4" y1="200.4" x2="553.6" y2="200.4"/>
<text transform="matrix(1.151 0 0 1 493.8125 67.6596)" class="st13 st2 st14">$\overline{\delta}$</text>
<line class="st4" x1="529.9" y1="118.4" x2="549.5" y2="88.9"/>
<line class="st4" x1="549.5" y1="184.1" x2="529.9" y2="154.7"/>
<line class="st4" x1="529.9" y1="173.4" x2="549.5" y2="143.8"/>
<line class="st4" x1="549.5" y1="127.7" x2="529.9" y2="98.2"/>
<g>
	<text transform="matrix(1.151 0 0 1 535.2754 140.1098)" class="st15 st2 st11">$\vdots$</text>
</g>
<circle class="st13" cx="487.5" cy="73" r="2.6"/>
<circle class="st13" cx="490.5" cy="85.6" r="2.6"/>
<circle class="st13" cx="494.2" cy="187.8" r="2.6"/>
<circle class="st13" cx="492" cy="200.4" r="2.6"/>
<g>
	<path class="st1" d="M157.1,38.6c0-0.3,0.2-0.5,0.5-0.5s0.5,0.2,0.5,0.5v195.9c0,0.3-0.2,0.5-0.5,0.5c-0.3,0-0.5-0.2-0.5-0.5V38.6z
		"/>
	<path class="st1" d="M182.4,226.5c0.2-0.2,0.5,0,0.6,0.2s0,0.5-0.2,0.6c-0.2,0.2-0.5,0-0.6-0.2c0-0.2,0-0.3,0-0.5v0.2v0.2v0.2
		l-0.3-0.3c-0.2-0.2-0.2-0.3,0-0.3c0,0,0.2-0.2,0.3,0l0.3,0.2l0,0l0,0L182.4,226.5L182.4,226.5z M158.4,214.9
		c-0.2,0-0.2-0.2-0.2-0.3v-0.3c0-0.2,0.2-0.3,0.5-0.3c0.8-0.2,1.4,0.3,2,0.8c2.3,1.4,4.8,2.2,7.3,3.7l3.4,2.2l3.4,2.2
		c1.1,0.8,2.5,1.6,4,2l2.5,0.9l0.8,0.5l0.8,0.5c0.2,0,0.2,0.2,0.2,0.2l0.2,0.5v0.2c0,0.2,0,0.3-0.2,0.5h-0.2c-0.3,0.2-0.3,0.2-0.5,0
		c-0.2,0-0.2,0-0.3-0.2l-0.8-0.5l-0.6-0.3l-2.3-0.8c-1.7-0.5-3.1-1.2-4.5-2.2l-3.3-2.2l-3.4-2.2c-2.5-1.4-4.8-2.3-7.3-3.7l-1.2-0.6
		C158.5,215,158.4,214.9,158.4,214.9L158.4,214.9z"/>
	<path class="st1" d="M170.8,231.8c0.3,0,0.5,0.3,0.5,0.6s-0.3,0.5-0.6,0.5c-0.3,0-0.5-0.3-0.5-0.6c0-0.2,0.2-0.3,0.3-0.3h-0.2l0,0
		v-0.2l0.9-1.2c0.2-0.2,0.3-0.2,0.3,0c0.2,0,0.2,0.2,0.2,0.3l-0.5,1.2v-0.2l-0.2-0.2h-0.2L170.8,231.8z M173.9,223.3
		c0.2,0,0.3,0.3,0.3,0.5c0,0.2-0.2,0.3-0.3,0.3h0.2l0,0v0.2l-0.2,0.6l-0.5,2.2l-0.6,1.9l-0.3,1.4l-0.5,1.4l-0.6,1.1
		c-0.2,0.2-0.2,0.2-0.3,0.2s-0.3,0.2-0.5-0.2c-0.2-0.2-0.3-0.3-0.3-0.5v-0.2c0-0.2,0.2-0.2,0.2-0.3l0.3-0.6l0.5-1.4l0.5-1.4l0.6-1.9
		l0.8-2.2l0.3-0.8l0.2-0.3H173.9z"/>
	<path class="st1" d="M195.1,220.9c0.2,0,0.3,0.3,0.2,0.5c0,0.2-0.3,0.3-0.5,0.2c0,0-0.2,0-0.2-0.2l0,0l0,0h-0.3l-1.2,0.3
		c-0.2,0-0.3,0-0.3-0.2s0-0.3,0.2-0.3l1.2-0.5L195.1,220.9z M178.4,225.9c0,0.2-0.3,0.3-0.5,0.2c-0.2,0-0.3-0.3-0.2-0.5l0,0l0.6-0.6
		c0.3-0.3,0.9-0.8,1.7-1.1l2.5-0.6l7.6-1.9l2.9-0.6l1.2-0.2h0.2l0.5,0.2l0.2,0.2l0.2,0.2v0.5c-0.2,0.3-0.5,0.5-0.6,0.6h-0.2
		l-1.2,0.2l-2.9,0.5l-7.8,1.7l-2.3,0.5l-1.9,0.5V225.9z"/>
	<path class="st1" d="M179.9,208.5c0.2-0.2,0.5,0,0.6,0.3c0.2,0.2,0,0.5-0.3,0.6c-0.2,0-0.2,0-0.3,0s-0.8-0.2-1.6-0.5
		c-0.2,0-0.2-0.2-0.2-0.3c0-0.2,0.2-0.2,0.3-0.2C179.3,208.7,179.9,208.7,179.9,208.5 M159.9,207.3c-0.2,0-0.3-0.2-0.5-0.3
		c0-0.2,0.2-0.3,0.3-0.5c2-0.3,4.2,0,6.7,0.3c1.4,0.2,2.5,0.6,4.2,1.1c1.4,0.3,3.3,0.5,5.1,0.5h2.2h0.6h0.8h0.8
		c0.3,0,0.6,0.3,0.6,0.6s-0.3,0.6-0.6,0.6h-0.9h-0.8h-0.6h-2.2c-1.9,0-3.9-0.2-5.4-0.6c-1.7-0.5-2.8-0.9-4-1.1
		C163.8,207.4,161.6,207.1,159.9,207.3 M180.9,209c0,0.3-0.3,0.6-0.6,0.6c-0.3,0-0.6-0.3-0.6-0.6s0.3-0.6,0.6-0.6
		C180.6,208.4,180.9,208.7,180.9,209"/>
	<path class="st1" d="M178.1,208.2c0.2-0.2,0.3,0,0.5,0.2c0.2,0.2,0,0.3-0.2,0.5c-0.2,0-0.2,0-0.3,0l0,0l0,0h-0.2h0.2l0,0v-0.2
		l-0.2-0.2h-0.2h0.2h-0.2h-0.2h0.2l0.5-0.2l2.3-1.2l3.6-1.6l4.7-1.9l7.8-2.8l2.8-1.2l0.9-0.5l0.6-0.3l0.2-0.2l0,0v0.2v0.2v0.2
		l0.2,0.2h0.2l0,0h-0.2l-0.9,0.5c-0.2,0-0.3,0-0.3-0.2s0-0.3,0-0.3l0.9-0.6l0.2-0.2c0,0,0-0.2,0.3-0.2c0.2,0,0.3,0.2,0.5,0.3v0.3
		l-0.2,0.3l-0.6,0.5l-1.1,0.6l-2.9,1.2l-7.8,2.8l-4.8,1.7l-3.6,1.4l-2.5,1.1l-0.5,0.2l-0.3,0.2c-0.2,0-0.3,0-0.5-0.2l-0.2-0.2v-0.5
		l0.2-0.2l0.3-0.3h-0.2L178.1,208.2L178.1,208.2z M178.5,208.7c-0.2,0.2-0.3,0.3-0.5,0.2c-0.2-0.2-0.3-0.3-0.2-0.5
		c0,0,0-0.2,0.2-0.2c0.2-0.2,0.3-0.2,0.5,0c0,0,0,0.2,0.2,0.2v0.2L178.5,208.7z"/>
	<path class="st1" d="M195,204c0.2,0,0.3,0.2,0.3,0.3c0,0.2-0.2,0.3-0.3,0.3h-1.6h0.2l-0.2,0.2l0,0v-0.2v0.2v-0.2l0.2,0.3l0.5,0.8
		l3.7,8.1l2.2,3.9l0.8,1.7l0.3,0.9v0.2v1.1c-0.2,0.3-0.5,0.5-0.8,0.5c-0.3-0.2-0.5-0.3-0.5-0.6l0,0l0.2-0.9c0.2-0.5,0.3-0.8,0.8-1.1
		c0.2-0.2,0.3-0.2,0.3,0c0.2,0.2,0.2,0.2,0,0.3l-0.3,0.9v0.5v0.2l0,0l-0.6,0.9c-0.5-0.2-0.3-0.5-0.5-0.6l-0.2-0.5v-0.2l-0.2-0.8
		l-0.8-1.6l-2.2-3.9l-3.4-8.1l-0.3-0.9v-0.5l0.2-0.6c0,0,0,0,0.2,0c0.3-0.2,0.5,0,0.5,0h0.2h-0.2L195,204z"/>
	<path class="st1" d="M197.9,202.9c-0.2,0-0.3-0.3-0.3-0.5c0,0,0,0,0-0.2l0.2-0.2l0.2-0.2l1.1-0.3l3.1-0.6l5.1-1.2l6.4-1.4
		c2.9-0.5,5.9-0.6,8.1-0.8l2.5-0.2h0.5h0.2h0.2l-0.2,0.2l-0.2,0.2v0.2l-0.3-0.3l-0.3-0.3h-0.2l-0.2,0.2c0,0.2-0.2,0.2-0.3,0.2
		s-0.2-0.2-0.2-0.3l0.3-0.5l0.5-0.2c0.3,0,0.6,0.2,0.9,0.3l0.6,0.6l0.2,0.5c0,0.2,0,0.5-0.3,0.8c0,0,0,0-0.2,0.2
		c-0.5,0.2-0.8,0.2-1.1,0.2l-2.6,0.2c-2.3,0.2-5.1,0.3-7.9,0.8l-6.2,1.2l-5.3,1.2l-3.1,0.5l-1.1,0.2L197.9,202.9L197.9,202.9z
		 M198.2,202c0.2,0,0.3,0.2,0.3,0.3s-0.2,0.3-0.3,0.3h-0.2l0,0h0.2c-0.2,0.2-0.5,0-0.6-0.2s0-0.5,0.2-0.6
		C197.9,202,198.2,202,198.2,202L198.2,202L198.2,202L198.2,202z"/>
	<path class="st1" d="M213.7,214.7c0,0.3-0.3,0.5-0.6,0.5c-0.3,0-0.5-0.3-0.5-0.6c0-0.3,0.3-0.5,0.6-0.5
		C213.6,214.1,213.7,214.3,213.7,214.7v-0.3v-0.2v-0.2h-0.2l0,0h0.2c0.2,0,0.3,0,0.3,0.2v0.2L213.7,214.7L213.7,214.7z M204.9,202.3
		c-0.2,0.2-0.3,0.2-0.5-0.2c-0.2-0.2-0.2-0.3,0-0.5c0.5-0.5,1.1-0.5,1.6-0.3c0.5,0.2,0.9,0.6,1.4,1.1c0.9,0.9,1.7,2.3,2.5,3.7
		l2.5,4.5l0.9,2l0.3,0.5l0.2,0.8v0.2c0.2,0.3,0,0.6-0.2,0.8l0,0c0,0-0.2,0-0.2,0.2h-0.2c-0.3,0-0.6-0.2-0.8-0.3l-0.2-0.8l-0.2-0.5
		L212,213l-0.9-1.9l-2.5-4.5c-0.6-1.4-1.4-2.8-2-3.7l-0.9-0.9C205.4,202,205.2,202,204.9,202.3"/>
	<path class="st1" d="M159.3,188.7c-0.2,0-0.5,0-0.5-0.3c0-0.2,0-0.3,0.2-0.5l1.1-0.3l2.2-0.5l2.6-0.3l2.8-0.2
		c1.4,0,2.9-0.2,5.1-0.5l5.3-1.1l10.5-2.3l11.8-2.5l5.6-1.2l4-0.8c1.7-0.3,2.6-0.3,3.6-0.3c2,0.2,4.8,0.2,7.4,0h4.2l1.9,0.3l0.8,0.2
		c0.8,0.2,1.9,0.2,2.9,0.2l1.7-0.5l1.1-0.3l0,0l-0.2,0.2v0.2v0.2l0,0l0,0l0,0h-0.9c-0.2,0-0.3-0.2-0.3-0.3c0-0.2,0.2-0.3,0.3-0.3
		h0.9h0.2h0.2l0.2,0.5l-0.2,0.2c-0.3,0.2-0.8,0.3-1.2,0.5l-1.9,0.5c-1.1,0.2-2.3,0-3.3-0.3l-0.8-0.3l-1.6,0.2h-4.2
		c-2.6,0.2-5.4,0.2-7.6,0c-0.8,0-1.6,0-3.3,0.3l-4,0.8l-5.6,1.2l-11.5,2.9l-10.7,2.2l-5.3,1.1c-2.2,0.3-3.9,0.5-5.3,0.5h-2.8
		l-2.6,0.3l-2.2,0.3L159.3,188.7z"/>
	<path class="st1" d="M235.3,192.6c0.2-0.2,0.5-0.2,0.6,0.2c0.2,0.2,0.2,0.5-0.2,0.6c-0.2,0.2-0.5,0.2-0.6-0.2l-0.9-0.8
		c-0.2-0.2-0.2-0.3,0-0.3c0-0.2,0.2-0.2,0.3,0L235.3,192.6h0.3h-0.2H235.3z M227.5,179.8c0,0.2-0.2,0.3-0.3,0.5
		c-0.2,0-0.3-0.2-0.3-0.3v-0.2v-0.3l0.3-0.3h0.3l0.2,0.2l0.6,0.8l1.9,3.3l2.5,4.2c0.6,1.1,1.4,2,2,2.8l1.2,1.4l0.2,0.3
		c0,0.2,0.2,0.2,0.2,0.5c0,0.5-0.2,0.8-0.6,0.8c-0.5,0-0.8-0.2-0.8-0.6v0.2v0.2l0,0l-0.2-0.2l-1.2-1.6c-0.6-0.8-1.4-1.9-2-3.1
		l-2.2-4.2l-1.7-3.3l-0.5-0.8l0,0l0,0h0.2h0.2h0.2L227.5,179.8L227.5,179.8L227.5,179.8z M236.4,192.9c0,0.5-0.3,0.8-0.8,0.8
		c-0.5,0-0.8-0.3-0.8-0.8s0.3-0.8,0.8-0.8S236.4,192.4,236.4,192.9"/>
	<path class="st1" d="M226.1,194.7c0.3,0.2,0.3,0.5,0.2,0.8s-0.5,0.3-0.8,0.2s-0.3-0.5-0.2-0.8c0.2-0.2,0.2-0.2,0.3-0.2l0,0h-0.2
		l-0.2,0.2v0.2v-0.9c0-0.2,0-0.3,0.2-0.3s0.2,0,0.3,0.2L226.1,194.7L226.1,194.7L226.1,194.7L226.1,194.7L226.1,194.7z M220.7,181.1
		c0.2,0,0.5,0.2,0.5,0.3l0,0v0.2l0.2,1.2c0.3,2,1.2,4.8,2.3,7.3c0.6,1.2,1.2,2.2,1.7,2.9l0.6,0.9l0.3,0.8c0,0.2,0,0.3,0,0.3
		l-0.2,0.3c-0.2,0.2-0.3,0.3-0.5,0.3c-0.3,0-0.5-0.2-0.5-0.2c-0.2-0.2-0.2-0.2-0.2-0.3l-0.2-0.6l-0.6-0.9c-0.5-0.8-1.2-1.9-1.7-3.1
		c-1.2-2.6-2-5.6-2.3-7.6v-1.4v-0.3C220.3,181.2,220.3,181.1,220.7,181.1 M221.2,181.7c0,0.2-0.2,0.3-0.3,0.5
		c-0.2,0-0.3-0.2-0.3-0.3v-0.2l0,0l0,0h0.2h0.2c-0.2,0-0.5-0.2-0.5-0.3s0.2-0.5,0.3-0.5s0.5,0.2,0.5,0.3v0.2V181.7z"/>
	<path class="st1" d="M245.7,169c0.2-0.3,0.5-0.5,0.6-0.3c0.3,0.2,0.5,0.5,0.3,0.6c-0.2,0.3-0.5,0.5-0.6,0.3c-0.2,0-0.3-0.2-0.3-0.5
		v0.2l0.2,0.2l0,0h-0.8c-0.2,0-0.3-0.2-0.3-0.3s0-0.2,0.2-0.3l0.8-0.3L245.7,169L245.7,169L245.7,169z M231.3,178.4
		c-0.2,0.2-0.5,0-0.6-0.2v-0.2V178l0.3-0.3l0.3-0.2l3.1-1.9l4.5-2.8l3.6-2l2.6-1.6l0.9-0.5c0.2-0.2,0.3-0.2,0.5-0.2h0.2
		c0.2,0.2,0.3,0.2,0.3,0.5v0.3c0,0.2-0.2,0.3-0.3,0.5l-0.9,0.6l-2.6,1.6l-3.6,1.9l-4.5,2.6l-3.1,1.9H231.3z M231.4,177.7
		c0.2,0,0.3,0.2,0.5,0.3c0,0.2-0.2,0.3-0.3,0.5l-0.3,0.2h-0.2c-0.2,0-0.5-0.2-0.5-0.5c0-0.2,0.2-0.5,0.5-0.5c0.2,0,0.3,0.2,0.3,0.3
		V177.7L231.4,177.7h-0.2H231.4z"/>
	<path class="st1" d="M209.1,180.3c0.2,0.2,0.2,0.3,0,0.5c-0.2,0.2-0.3,0.2-0.5,0l-0.3-0.5l0.2-0.5l0.8-1.1c0.8-0.8,2-1.7,3.6-2.9
		l7.1-5l4.5-2.8c3.4-2,7.4-3.9,10.7-5.6l3.3-1.9c1.4-0.8,2.3-1.2,3.1-1.6l4.5-1.7l1.2-0.5l1.9-1.1l0.9-0.6l0.2-0.2l-0.2,0.2v0.2v0.3
		l0.2,0.2l0.2,0.2h-0.2l-2.5,0.3c-0.2,0-0.3,0-0.3-0.2s0-0.3,0.2-0.3l2.6-0.8l0.6-0.2c0.2,0,0.3,0,0.5,0.3c0.2,0.3,0.2,0.5,0,0.6
		c0,0,0,0.2-0.2,0.2c-0.3,0.5-0.8,0.6-1.2,1.1l-2,1.1l-1.4,0.5l-4.5,1.6c-0.8,0.3-1.6,0.6-2.9,1.6l-3.3,1.9
		c-3.3,1.7-7.3,3.6-10.7,5.6l-4.5,2.6l-7.1,4.8c-1.6,1.1-2.8,2-3.6,2.8l-0.6,0.8L209.1,180.3L209.1,180.3z"/>
	<path class="st1" d="M203.8,193.8c0.2,0.3,0.2,0.6-0.2,0.8s-0.6,0.2-0.8-0.2c-0.2-0.2-0.2-0.3-0.2-0.5v0.2v0.2
		c0-0.2-1.2-0.9-1.7-1.9c0-0.2,0-0.3,0.2-0.3s0.3,0,0.3,0l1.2,0.9l0.6,0.3L203.8,193.8z M192.2,185.6c0,0.2-0.2,0.3-0.5,0.3
		c-0.2,0-0.3-0.2-0.3-0.3l0.2-0.5l0.3-0.2h0.6l1.7,0.6c0.8,0.3,1.6,0.8,2.3,1.4c0.9,0.8,1.6,1.7,2.2,2.6l1.4,1.9
		c0.8,0.9,2,1.4,2.8,1.7l0.6,0.3l0.2,0.2l0,0c0.2,0.3,0.2,0.6,0,0.8c0,0,0,0-0.2,0h-0.2H203l-0.5-0.2c-0.8-0.3-2.3-0.9-3.4-2l-1.4-2
		c-0.6-1.1-1.2-2-1.9-2.6c-0.6-0.6-1.2-0.9-2-1.4l-1.6-0.6l-0.5-0.2l0,0L192.2,185.6L192.2,185.6z"/>
	<path class="st1" d="M179,187.3c0-0.2,0.2-0.3,0.3-0.5c0.2,0,0.3,0,0.3,0.2l-0.2-0.2h-0.2h-0.2l0.2-0.2l0.9-1.2l1.2-2l1.6-2.2
		l3.7-4.2c1.6-1.7,2.3-2.3,3.6-2.8c0.2,0,0.3,0,0.3,0.2s0,0.3-0.2,0.3c-0.6,0.3-0.9,0.6-1.2,1.1l-1.6,2l-3.9,4.2l-1.6,2l-1.4,1.9
		l-1.1,1.2l-0.5,0.3h-0.5L179,187.3z"/>
	<path class="st1" d="M198.5,187.9c0.2-0.2,0.3-0.2,0.5,0c0.2,0.2,0.2,0.3,0,0.5l0,0v-0.2v-0.2l-0.2-0.2h-0.2h0.2l1.4-0.5l2.8-1.1
		l1.7-0.8l1.1-0.6c0.2-0.2,0.3-0.2,0.5-0.2h0.2h0.2l0.2,0.2c0,0.2,0,0.3,0,0.5c-0.3,0.5-0.6,0.8-1.2,1.1l-1.9,0.8l-2.9,0.9l-1.6,0.5
		h-0.3l-0.3-0.2c-0.2-0.2,0-0.5,0-0.5V187.9z"/>
	<path class="st1" d="M158.8,156c0.2,0,0.3,0,0.5,0.3c0,0.2,0,0.3-0.3,0.5c-0.2,0-0.2,0-0.3,0l-0.3-0.2c-0.2,0-0.2-0.2-0.2-0.3
		l0.2-0.2L158.8,156z"/>
	<path class="st1" d="M158.7,156.6c-0.2,0.2-0.5,0-0.5-0.2c-0.2-0.2,0-0.5,0.2-0.5s0.3,0,0.3,0h0.2c0.2,0.2,0.2,0.3,0.2,0.5
		C158.8,156.4,158.8,156.4,158.7,156.6L158.7,156.6z"/>
	<path class="st1" d="M159.3,155.5c0.2,0,0.3,0.2,0.3,0.5c0,0.2-0.2,0.3-0.5,0.3H159l-0.2-0.3l0.2-0.3L159.3,155.5l0.9-0.2l5-0.2
		l3.9-0.3l2.3-0.2l4.3-0.6l3.6-0.6l5.9-0.9l6.8-1.7l5.6-1.1l7.3-1.2l6.2-0.9l6.4-0.8l4.3-0.3h4.2h2.6c2.5-0.2,5.3-0.9,8.1-0.5
		c1.2,0.2,2.5-0.2,3.7-0.3c1.6-0.3,3.3-0.6,5-0.8h2.5l1.9-0.2h0.2h0.2l0,0h-0.2l-0.2,0.2v0.2v0.2l-0.2-0.2l-0.8-0.3
		c-0.2,0-0.2-0.2-0.2-0.3s0.2-0.2,0.3-0.2l1.2,0.3l0.2,0.2l0.2,0.5c0,0.3-0.3,0.5-0.5,0.6h-0.2c-0.6,0.2-1.4,0.2-2.2,0.2h-2.5
		c-1.6,0.2-3.3,0.5-4.8,0.8c-1.2,0.2-2.6,0.5-4,0.3c-2.5-0.3-5.1,0.5-7.8,0.5h-2.8h-4.2l-4.2,0.3l-6.4,0.8l-6.2,0.9l-7.1,1.1
		l-5.6,1.1c-2.3,0.5-4.7,1.2-7,1.6l-5.9,0.9l-3.7,0.6l-4.3,0.6l-2.3,0.2L165,156h-5h-0.8h-0.2l0,0l0.3,0.2V156L159.3,155.5
		L159.3,155.5L159.3,155.5z"/>
	<path class="st1" d="M246.9,136.7c0.2-0.2,0.3-0.2,0.5,0s0.2,0.3,0,0.5c0,0,0,0-0.2,0l-0.3,0.2c-0.2,0.2-0.3,0-0.3,0
		c0-0.2,0-0.3,0-0.3L246.9,136.7z M237,145.3c0,0.2-0.2,0.3-0.5,0.3c-0.2,0-0.2,0-0.2-0.2l-0.2-0.3v-0.2l0.2-0.3l0.5-0.5
		c1.6-1.2,4.2-2.5,6.4-4.2c1.1-0.8,1.9-1.7,2.6-2.3l0.6-0.8l0.2-0.2l0,0v0.2v0.2c0-0.3,0.2-0.6,0.5-0.8c0.3,0,0.6,0.2,0.8,0.5l0,0
		v0.2l-0.2,0.3l-0.2,0.3l-0.8,0.9c-0.8,0.8-1.7,1.6-2.8,2.5c-2.3,1.7-5.1,2.9-6.5,4L237,145.3L237,145.3L237,145.3L237,145.3z
		 M247.9,136.9c0,0.3-0.3,0.6-0.6,0.6s-0.6-0.3-0.6-0.6s0.3-0.6,0.6-0.6S247.9,136.6,247.9,136.9"/>
	<path class="st1" d="M247.9,154.1c0.2,0.3,0,0.6-0.3,0.8s-0.6,0-0.8-0.3c0-0.2,0-0.2,0-0.3v0.2l0,0l0,0l-0.5-0.3l-1.2-0.5
		c-0.2,0-0.2-0.2-0.2-0.3s0.2-0.2,0.3-0.2l1.6,0.3l0.8,0.3l0.3,0.2L247.9,154.1z M238.1,148.5c0,0.2-0.2,0.3-0.3,0.5
		c-0.2,0-0.3-0.2-0.5-0.3l-0.2-0.8c0-0.3,0.2-0.5,0.5-0.6s0.5,0,0.8,0l0.6,0.3c0.6,0.5,1.1,1.1,1.7,1.9l1.7,2.2
		c0.8,0.8,1.9,1.4,2.8,1.9l1.1,0.3h0.6h0.2h-0.2c0.3-0.2,0.8,0,0.9,0.3c0.2,0.3,0,0.8-0.3,0.9l0,0l-0.8,0.2L246,155l-1.2-0.5
		c-1.1-0.5-2.3-1.2-3.3-2.2l-1.7-2.3l-1.4-1.7l-0.3-0.3h-0.2h0.2V148.5z M248.2,154.4c0,0.5-0.3,0.8-0.8,0.8s-0.8-0.3-0.8-0.8
		c0-0.5,0.3-0.8,0.8-0.8S248.2,153.9,248.2,154.4"/>
	<path class="st1" d="M226.3,158.9c0.2,0,0.5,0.2,0.5,0.3s-0.2,0.5-0.3,0.5s-0.3,0-0.3-0.2l-0.6-0.8v-0.6v0.2l0,0l-0.2-0.3
		c0-0.2,0-0.3,0.2-0.3s0.3,0,0.3,0.2c0.2,0.2,0.3,0.3,0.3,0.6v-0.2l0.2,0.2V158.9h0.2l0,0H226.3L226.3,158.9z M218.1,147.6
		c0.2,0,0.3,0.2,0.3,0.3c0,0.2-0.2,0.3-0.3,0.3l0,0v0.2l0.3,0.9c0.3,0.9,0.9,2,1.9,3.3c0.9,1.4,2.2,2.5,3.3,3.4l1.7,1.2l0.6,0.3
		c0.5,0.3,0.9,0.8,1.2,1.2c0.2,0.3,0.2,0.8-0.2,0.9c-0.3,0.2-0.8,0.2-0.9-0.2l-0.8-0.8l-0.6-0.3l-1.9-1.4c-1.1-0.9-2.3-2.2-3.4-3.7
		c-0.8-1.2-1.4-2.6-1.7-3.6l-0.2-1.4l0.2-0.6L218.1,147.6z"/>
	<path class="st1" d="M215,147.1c0.2,0,0.3,0.3,0.3,0.5c0,0.2-0.2,0.3-0.3,0.3s-0.3-0.2-0.3-0.3v-0.3l0.2-0.3l0.6-0.6l2.3-2.2
		l2.2-2.5l2.8-3.1l1.6-1.2l1.6-1.1l1.1-0.2h0.5l0.2,0.3v0.3c-0.2,0.2-0.3,0.2-0.3,0c0,0,0,0,0-0.2l0.2,0.2h0.2l-0.2,0.2l-0.8,0.3
		l-1.2,0.9l-1.4,1.2l-2.8,3.1l-2.3,2.5l-2.3,2.2l-0.6,0.6l-0.2,0.2l0,0v-0.2v-0.2L215,147.1L215,147.1z"/>
	<path class="st1" d="M222,123.2c0.2,0.2,0.2,0.3,0,0.5c-0.2,0.2-0.3,0.2-0.5,0c0,0,0-0.2-0.2-0.2v0.2l0.2,0.2l0,0l0,0l-0.3,0.2
		l-0.8,0.6c-0.2,0.2-0.3,0.2-0.3,0c-0.2-0.2-0.2-0.3,0-0.3l0.9-0.8l0.5-0.2h0.2C221.6,123.2,221.8,123.1,222,123.2 M203,149.6
		c0.2,0,0.5,0,0.5,0.3c0,0.2,0,0.3-0.2,0.5H203l-0.3-0.2c-0.2-0.2-0.2-0.5-0.2-0.6c0-0.5,0.3-1.1,0.6-1.7l1.4-2.6l2-3.6
		c1.7-2.8,3.7-5.1,5.3-6.8l3.6-4l2.9-3.7l1.2-1.7l0.9-1.4l0.6-0.5l0.2-0.2l0,0l0,0c0.2,0,0.5,0,0.5,0.2l0,0v0.2v0.2l-0.2,0.2
		l-0.3,0.5l-0.9,1.4l-1.1,1.9l-2.9,3.7l-3.7,4.2c-1.6,1.6-3.7,3.9-5.3,6.5l-2,3.4l-1.6,2.6L203,149.6L203,149.6L203,149.6L203,149.6
		L203,149.6z"/>
	<path class="st1" d="M214.7,133.6c-0.2,0-0.3-0.3-0.2-0.5c0-0.2,0.2-0.3,0.3-0.2l0,0l0.3-0.2l0.8-0.5l2.3-1.1
		c2-0.8,3.9-1.2,5.6-1.4l3.1-0.3h0.2l0.6,0.2c0.2,0,0.3,0.2,0.3,0.3c0,0,0,0.2-0.2,0.2l-0.6,0.3h-0.2l-3.1,0.3
		c-1.6,0.2-3.4,0.5-5.3,1.2l-2.2,0.9l-0.8,0.3C215.1,133.6,215,133.8,214.7,133.6"/>
	<path class="st1" d="M207.7,167.1c0.3,0,0.3,0.3,0.3,0.5c0,0.3-0.3,0.3-0.5,0.3c-0.3,0-0.3-0.3-0.3-0.5c0,0,0,0,0-0.2v0.2v0.2
		l-1.2-1.1c-0.2-0.2-0.2-0.3,0-0.3c0.2-0.2,0.2-0.2,0.3,0c0.5,0.3,1.2,0.5,1.6,0.9H207.7z M191.6,154.3c-0.2,0-0.3-0.2-0.3-0.3
		s0.2-0.3,0.3-0.3c0.3,0,0.6,0,0.9,0.3l0.8,0.8l2,2.2c1.6,1.7,4.3,3.6,7,5.4l3.1,2.5l1.1,0.9l1.2,1.2c0,0,0,0,0.2,0.2l0.2,0.2l0,0
		c0.2,0.2,0.2,0.2,0.2,0.3c0,0.5-0.2,0.5-0.3,0.6c-0.3,0.2-0.6,0-0.8-0.2c0,0-0.2,0-0.2-0.2l-1.4-1.2l-0.9-0.9l-2.9-2.5
		c-2.6-1.9-5.4-3.9-7-5.7l-1.9-2.3l-0.6-0.6L191.6,154.3z"/>
	<path class="st1" d="M213,156.1c-0.2-0.2,0-0.5,0.2-0.5c0.2-0.2,0.5,0,0.5,0.2c0.2,0.2,0,0.5-0.2,0.5h-0.2h0.2l0,0h-0.2l-0.9,0.5
		c-0.2,0-0.3,0-0.3-0.2s0-0.3,0.2-0.3l0.9-0.6l0,0l0,0v0.2L213,156.1L213,156.1z M203.2,163.7c0.2,0,0.3,0.3,0.2,0.5
		c0,0.2-0.3,0.3-0.5,0.2l-0.8-0.5l-0.3-0.8c0-0.6,0.5-1.2,1.1-1.9c0.9-0.9,2.2-1.7,3.6-2.5l2-1.1l2.9-1.6l0.9-0.5
		c0.3-0.2,0.3-0.2,0.8-0.2l0.3,0.2c0,0.2,0,0.3,0,0.5l-0.2,0.2L212,157l-3.1,1.6l-2,0.9c-1.4,0.8-2.6,1.4-3.6,2.2
		c-0.6,0.5-0.9,0.9-0.9,1.2l0.2,0.3L203.2,163.7z"/>
	<path class="st1" d="M200.6,164.8c-0.2-0.2-0.2-0.3,0-0.5c0.2-0.2,0.3-0.2,0.5,0c0.9,0.6,1.4,1.9,1.9,3.1l0.3,2.6l0.2,1.9l0.2,0.6
		c0,0.2,0,0.2,0,0.3v0.2c0.2,0.2,0.2,0.3,0,0.3l0,0h-0.6c-0.2,0-0.2-0.2-0.2-0.2l-0.5-0.9l-0.2-2l-0.3-2.5
		C201.5,166.5,201,165.3,200.6,164.8"/>
	<path class="st1" d="M157.8,135.5c-0.3,0.2-0.5,0-0.6-0.3c-0.2-0.3,0-0.5,0.3-0.6l87-32.3c0.3-0.2,0.5,0,0.6,0.3
		c0.2,0.3,0,0.5-0.3,0.6L157.8,135.5z"/>
	<path class="st1" d="M243.2,103.5c-0.2,0-0.3-0.2-0.3-0.3s0.2-0.3,0.3-0.3l2.2-1.1l2.2-0.9l0.3-0.2c0.2,0,0.2-0.2,0.5,0v0.3
		l-0.2,0.2l-0.3,0.2c-0.2,0-0.3,0-0.3-0.2s0-0.3,0.2-0.3l0.3-0.2l0,0v0.2v0.2l0.2,0.2h0.2l0,0h-0.2l-0.3,0.2l-2,1.1
		C244.6,102.9,243.8,103.5,243.2,103.5"/>
	<path class="st1" d="M250.2,112.2c0.2,0,0.3,0.2,0.5,0.3c0,0.2-0.2,0.3-0.3,0.5c-0.2,0-0.3-0.2-0.5-0.3l0,0v0.2l-0.2-0.2
		c-0.2-0.2-0.2-0.3,0-0.3c0.2,0,0.2-0.2,0.3,0L250.2,112.2L250.2,112.2z M240.3,105.7c-0.2,0.2-0.3,0.2-0.5,0s-0.2-0.3,0-0.5
		c0,0,0.2-0.2,0.3-0.2h0.2h0.2h-0.3c0.3-0.2,0.5,0,0.8,0h0.2c1.4,0.8,3.9,2.2,5.9,3.6l2.5,2l0.8,0.6l0.6,0.5
		c0.3,0.3,0.5,0.8,0.2,1.1s-0.6,0.3-0.9,0.2l-0.6-0.5l-0.8-0.6l-2.3-2l-5.6-3.9l-0.2-0.2l-0.3-0.5l0.2,0.2l0,0l0,0L240.3,105.7
		L240.3,105.7z M240.3,105.2c0.2,0.2,0.2,0.3,0,0.5c-0.2,0.2-0.3,0.2-0.5,0c0,0,0,0,0-0.2v-0.2c0-0.2,0.2-0.3,0.3-0.3
		C240.1,105.1,240.3,105.2,240.3,105.2"/>
	<path class="st1" d="M240.4,109.6c0.2,0,0.3,0.2,0.3,0.3s-0.2,0.3-0.3,0.3c-2,0-3.4-1.4-5.1-0.8c-0.2,0-0.3,0-0.3-0.2
		c0-0.2,0-0.3,0.2-0.3c1.1-0.3,2-0.2,2.8,0.2C238.9,109.3,239.6,109.6,240.4,109.6"/>
	<path class="st1" d="M249.3,106.2c0.2-0.2,0.5-0.2,0.6,0.2c0.2,0.2,0.2,0.5-0.2,0.6c-0.2,0.2-0.5,0.2-0.6-0.2v-0.2v0.2l0,0h0.2
		l-0.8,0.2c-0.2,0-0.3,0-0.3-0.2s0-0.3,0.2-0.3L249.3,106.2L249.3,106.2z M244.9,108.8c0.2,0,0.3,0.3,0.3,0.5c0,0.2-0.2,0.3-0.5,0.3
		l-0.3-0.2V109l0.3-0.3c0.6-0.5,1.6-0.9,2.5-1.4l1.7-0.8c0,0,0,0,0.2,0l0.3-0.2h0.2c0.2,0,0.3,0,0.5,0.2c0.2,0.3,0,0.5,0,0.5
		l-0.3,0.3c0,0,0,0-0.2,0l-1.9,0.8c-0.9,0.3-1.9,0.8-2.3,1.1l-0.2,0.2l0,0v-0.2L244.9,108.8L244.9,108.8z"/>
	<path class="st1" d="M233.6,107.1c-0.2-0.2-0.3-0.5-0.2-0.6c0.2-0.2,0.5-0.3,0.6-0.2l20.5,15c0.2,0.2,0.3,0.5,0.2,0.6
		c-0.2,0.2-0.5,0.3-0.6,0.2L233.6,107.1z"/>
	<path class="st1" d="M247.5,117.3c-0.2-0.3,0-0.5,0.2-0.6c0.3-0.2,0.5,0,0.6,0.2l7.3,16c0.2,0.3,0,0.5-0.2,0.6
		c-0.3,0.2-0.5,0-0.6-0.2L247.5,117.3z"/>
	<path class="st1" d="M252.7,115.5c0.2-0.2,0.5-0.2,0.6,0s0.2,0.5,0,0.6c-0.2,0.2-0.5,0.2-0.6,0c0,0,0,0,0-0.2v0.2h0.2l0,0h-0.3
		c-0.2,0-0.3-0.2-0.3-0.2c0-0.2,0-0.2,0.2-0.3L252.7,115.5z M248,118.4c-0.2-0.2-0.3-0.3-0.2-0.5c0-0.2,0.2-0.2,0.3-0.2H248l0,0
		l0.3-0.2l0.9-0.3l2-1.1l1.4-0.8c0.2-0.2,0.2-0.2,0.3-0.2l0,0c0.2,0,0.5,0.2,0.5,0.3v0.2c0,0.2-0.2,0.2-0.2,0.3l-1.6,0.8l-2.2,0.9
		l-0.9,0.3l-0.3,0.2h-0.2L248,118.4z"/>
	<path class="st1" d="M243.2,123.1c0.2,0.2,0.2,0.3,0,0.5c-0.2,0.2-0.3,0.2-0.5,0c0,0-0.2-0.2-0.2-0.3l0,0l-0.6-0.8
		c-0.2-0.2,0-0.3,0-0.3c0.2-0.2,0.3,0,0.3,0L243.2,123.1z M223.8,113.2c0.2,0.2,0,0.5-0.2,0.5c-0.2,0.2-0.3,0-0.5-0.2l-0.2-0.3
		c0-0.2-0.2-0.3,0-0.5c0.3-0.3,0.6-0.2,0.8-0.2l2,0.9l6.8,3.9c2.5,1.6,5.1,2.8,7.1,3.9l2.5,1.1l0.8,0.3c0.2,0.2,0.3,0.3,0.5,0.5v0.5
		c0,0,0,0.2-0.2,0.2l-0.3,0.3c-0.2,0.2-0.5,0.2-0.6,0l-0.8-0.3l-2.5-1.2c-2-1.1-4.7-2.3-7.1-4l-6.5-4l-1.9-0.9h-0.2h0.2L223.8,113.2
		L223.8,113.2L223.8,113.2L223.8,113.2z"/>
	<path class="st1" d="M236.4,118.6c0.2-0.2,0.3-0.2,0.5,0c0.2,0.2,0.2,0.3,0,0.5l0,0l0,0v0.3v1.2l0.5,3.6l0.6,3.7l0.3,2
		c0,0.2-0.2,0.3-0.3,0.3c-0.2,0-0.3-0.2-0.3-0.3l-0.3-1.9l-0.6-3.7l-0.5-3.6l-0.2-1.2C236.2,119.1,236.1,118.9,236.4,118.6"/>
	<path class="st1" d="M245.2,120.3c-0.2-0.2-0.2-0.5,0.2-0.6c0.2-0.2,0.5-0.2,0.6,0.2c0.2,0.2,0.2,0.5-0.2,0.6
		c-0.2,0.2-0.3,0.2-0.5,0h0.2h0.2l-0.6,0.2c-0.2,0-0.3,0-0.3-0.2s0-0.2,0.2-0.3l0.5-0.3v0.2v0.2L245.2,120.3L245.2,120.3z
		 M239.3,121.8c-0.2,0-0.5,0-0.5-0.3c0-0.2,0-0.3,0.2-0.5c1.1-0.5,2.6-0.9,4-1.2l1.4-0.3l1.2-0.2c0.2,0,0.5,0.2,0.5,0.3v0.2
		c0,0.2,0,0.3,0,0.5l0,0c-0.2,0.2-0.3,0.3-0.6,0.2l0,0l-0.9,0.2l-1.4,0.2L239.3,121.8z"/>
	<path class="st1" d="M200.9,134.6c0.2-0.2,0.5-0.2,0.6,0.2c0.2,0.2,0.2,0.5-0.2,0.6c0,0-0.2,0-0.2,0.2l-0.9-0.2
		c-0.3-0.2-0.8-0.5-0.9-0.9c0-0.2,0-0.3,0.2-0.3s0.3,0,0.3,0c0.2,0.3,0.5,0.5,0.8,0.5L200.9,134.6L200.9,134.6L200.9,134.6z
		 M180.1,128.7c0,0.2-0.3,0.3-0.5,0.3c-0.2,0-0.3-0.2-0.3-0.3c0-0.6,0.3-1.1,0.8-1.4c0.5-0.3,1.2-0.3,1.9-0.2
		c1.1,0.3,2.3,0.9,3.9,1.7l5,2.5l3.9,1.6l3.1,0.9l1.9,0.5h0.6h0.6c0.3,0,0.5,0.2,0.6,0.5l0.2,0.3v0.2l-0.2,0.3
		c-0.2,0.2-0.5,0.3-0.6,0.3h-0.5h-0.9l-2.2-0.5l-3.1-0.9l-4-1.7l-5-2.6c-1.4-0.8-2.8-1.6-3.6-1.9c-0.6-0.2-0.9-0.2-1.2-0.2
		C180.2,128,180.1,128.2,180.1,128.7"/>
	<path class="st1" d="M193.4,132.9c-0.2,0.2-0.5,0-0.5-0.2v-0.2v-0.3l0.2-0.2l0.8-0.5l4.2-2.3l3.6-1.7l1.6-0.6h0.2h0.3
		c0.2,0,0.3,0,0.6,0.3c0.2,0.2,0,0.5,0,0.6l-0.2,0.2l-0.2,0.2l-2.2,1.2c-0.2,0-0.3,0-0.3-0.2s0-0.3,0-0.3l1.7-1.4l0,0v0.2v0.2
		l0.2,0.2l0.2,0.2h0.2l0,0l-0.3,0.2h-0.2l-1.6,0.6l-3.6,1.6l-4.3,2.2L193.4,132.9L193.4,132.9L193.4,132.9z M193.4,132.1
		c0.2,0,0.3,0,0.5,0.3c0,0.2,0,0.3-0.2,0.5h-0.2c-0.2,0.2-0.5,0-0.5-0.2c-0.2-0.2,0-0.5,0.2-0.5c0.2-0.2,0.5,0,0.5,0.2l0,0l-0.2-0.2
		L193.4,132.1L193.4,132.1L193.4,132.1z"/>
	<path class="st1" d="M200.9,140.6c0.2,0.3,0,0.6-0.2,0.6c-0.3,0.2-0.6,0-0.6-0.2c-0.2-0.3,0-0.6,0.2-0.6
		C200.2,140.3,200.6,140.3,200.9,140.6l-0.3-0.2h-0.2h-0.2l0,0c0.2-0.2,0.3-0.2,0.3,0C200.7,140.5,200.9,140.5,200.9,140.6
		L200.9,140.6L200.9,140.6z M194.8,133.9c0,0.2-0.3,0.3-0.5,0.3c-0.2,0-0.3-0.2-0.3-0.3v-0.2l0.2-0.3c0.3-0.2,0.5,0,0.5,0l0.3,0.5
		l0.9,1.2c0.8,1.2,1.9,2.2,2.8,3.3l1.1,1.4l0.5,0.5l0,0h-0.2c0.3,0,0.6,0.3,0.6,0.8c0,0.3-0.3,0.6-0.8,0.6c-0.3,0-0.5-0.3-0.6-0.5
		l-0.5-0.6l-1.1-1.4c-0.8-0.9-2-2.2-2.8-3.4l-0.8-1.4l-0.2-0.3l0,0h0.2h0.2L194.8,133.9L194.8,133.9L194.8,133.9z M200.9,140.9
		c0,0.3-0.3,0.6-0.6,0.6s-0.6-0.3-0.6-0.6c0-0.3,0.3-0.6,0.6-0.6C200.6,140.3,200.9,140.6,200.9,140.9"/>
	<path class="st1" d="M157.8,100.1c-0.3,0.2-0.5,0-0.6-0.3s0-0.5,0.3-0.6l71.3-30.1c0.3-0.2,0.5,0,0.6,0.3c0.2,0.3,0,0.5-0.3,0.6
		L157.8,100.1z"/>
	<path class="st1" d="M208.3,78.1c-0.2,0.2-0.3,0.3-0.6,0.2c0,0,0,0-0.2,0l-0.2-0.3v-0.2l0.3-0.6l1.4-1.9c1.1-1.7,2.3-4.7,3.4-7
		l1.6-2.8l0.8-1.6l0.5-0.9l0.3-0.6l0.2-0.2v0.2c0.2-0.3,0.5-0.6,0.9-0.5c0.3,0.2,0.6,0.5,0.5,0.9c0,0.2-0.2,0.3-0.3,0.3l0,0
		l-0.2,0.2l-0.3,0.5l-0.5,0.8l-0.9,1.7l-1.6,2.8c-1.2,2.3-2.5,5.3-3.7,7l-1.4,1.9V78.1L208.3,78.1z M207.8,77.5
		c0.2-0.2,0.5,0,0.5,0.2c0.2,0.2,0,0.3,0,0.5l0,0l0,0c-0.2,0.2-0.5,0.2-0.5,0c-0.2-0.2-0.2-0.5,0-0.5c0.2-0.2,0.3-0.2,0.5,0
		L207.8,77.5L207.8,77.5L207.8,77.5z M217.5,62.3c0,0.5-0.3,0.8-0.8,0.8c-0.5,0-0.8-0.3-0.8-0.8s0.3-0.8,0.8-0.8
		C217.2,61.7,217.5,62,217.5,62.3"/>
	<path class="st1" d="M234.2,77c0.2,0.2,0.3,0.5,0.2,0.6c-0.2,0.2-0.5,0.3-0.6,0.2s-0.3-0.5-0.2-0.6C233.7,76.9,233.9,76.9,234.2,77
		l-0.3-0.2h-0.2C233.9,76.9,234.1,76.9,234.2,77L234.2,77L234.2,77z M217.9,76.3c-0.2,0-0.3-0.3-0.3-0.5s0.2-0.3,0.3-0.3l2.6-0.2
		l3.9-0.3c2-0.2,3.7,0.3,5.4,0.8l2.5,0.6l0.9,0.3h0.3l0,0c0.5-0.2,0.8,0,0.9,0.5c0.2,0.5,0,0.8-0.5,0.9h-0.2h-0.3L233,78l-0.9-0.3
		l-2.5-0.8c-1.6-0.5-3.1-0.9-5-0.8h-3.9L217.9,76.3z M234.5,77.5c0,0.5-0.3,0.8-0.8,0.8c-0.5,0-0.8-0.3-0.8-0.8
		c0-0.5,0.3-0.8,0.8-0.8C234.2,76.7,234.5,77.2,234.5,77.5"/>
	<path class="st1" d="M226.5,109.7c-0.2,0.2-0.3,0.2-0.5,0c-0.2-0.2-0.2-0.3,0-0.5l1.1-1.9l2-3.4l1.7-2.3c1.4-1.9,2.5-3.1,3.7-4.5
		l3.6-4.2l2-2.9l0.6-0.9l0.8-1.1l0.2-0.2l0,0l0,0V88c0-0.2,0.2-0.5,0.2-0.5l0,0l-0.2,0.2V88v0.3l0.2,0.2h0.2l-1.2,0.3
		c-0.2,0-0.3,0-0.3-0.2c0-0.2,0-0.3,0.2-0.3l1.2-0.8l0.3-0.2h0.3l0.6,0.3c0.2,0.2,0.2,0.3,0.2,0.6c0,0.5-0.3,0.8-0.5,0.9l-0.9,1.1
		l-0.6,0.8l-2.2,2.9l-3.7,4.2c-1.2,1.4-2.5,2.5-3.7,4.2l-1.6,2.3l-2.2,3.3L226.5,109.7z"/>
	<path class="st1" d="M219.6,96.1c0.3-0.2,0.6-0.2,0.8,0.2s0.2,0.6-0.2,0.8s-0.6,0.2-0.8-0.2c-0.2-0.2-0.2-0.3,0-0.5v0.2v0.2l0,0
		v0.2l-0.9-0.3c-0.2,0-0.2-0.2-0.2-0.3s0.2-0.2,0.2-0.2H219.6L219.6,96.1L219.6,96.1L219.6,96.1L219.6,96.1z M187.5,89.3
		c0.2,0,0.5,0,0.5,0.3c0,0.2,0,0.3-0.2,0.5l0,0l0,0v-0.2l-0.2-0.2h-0.2l0,0l0.9,0.2l3.3,0.3l3.3,0.6l2.3,0.6l4,0.6
		c2.2,0.3,4,0.8,5.7,1.2l4.7,1.7c1.6,0.6,3.1,1.1,4.5,1.2h2.3h0.9c0.2,0,0.2,0,0.3,0l0.3,0.2l0,0c0.2,0.2,0.2,0.3,0.2,0.5v0.3
		c-0.2,0.3-0.3,0.5-0.5,0.5c-0.2,0-0.2,0-0.3,0h-1.1l-2.5-0.2c-1.6-0.3-3.3-0.8-4.8-1.4c-2.8-1.1-5.9-2.3-10.1-2.9l-4.2-0.6
		l-2.3-0.6l-3.1-0.8l-3.3-0.5l-1.1-0.3l-0.2-0.2l-0.2-0.5l0.6-0.3L187.5,89.3z"/>
	<path class="st1" d="M216.2,96.3c0.2,0,0.5,0,0.5,0.2s0,0.5-0.2,0.5h-0.5l-0.3-0.3v-0.3l0.5-0.8l1.7-1.4l2.9-2l4.5-2.8l2.3-1.4
		l2.8-1.4l2.3-1.2l0.9-0.5c0,0,0.2-0.2,0.3-0.2l-0.2,0.2l-0.2,0.2v0.2h-0.2c-0.2,0-0.2-0.2-0.2-0.3s0.2-0.2,0.2-0.2h0.5l0.3,0.3v0.6
		c0,0.2-0.2,0.2-0.2,0.3l-1.1,0.6l-2.3,1.2l-2.6,1.4l-2.3,1.4l-4.5,2.8l-2.9,1.9l-1.7,1.2l-0.3,0.5l0,0v-0.2L216.2,96.3L216.2,96.3
		L216.2,96.3L216.2,96.3z"/>
	<path class="st1" d="M228.2,98.6c-0.2-0.2,0-0.5,0.2-0.6s0.5,0,0.6,0.2s0,0.5-0.2,0.6C228.6,98.7,228.3,98.7,228.2,98.6l0.2,0.2
		l0,0l0,0C228.2,98.7,228,98.6,228.2,98.6c0-0.2,0-0.2,0-0.2V98.6L228.2,98.6L228.2,98.6z M217.9,98.3c0.2-0.2,0.3-0.3,0.5-0.2
		c0.2,0,0.3,0.3,0.2,0.5v-0.2l0,0h0.8l3.1-0.3l3.6-0.5h1.2h0.9h0.3c0.2,0,0.3,0,0.5,0.3s0,0.6-0.3,0.8s-0.6,0-0.8-0.3l0,0l0.2,0.2
		l0.2,0.2l0,0H228h-0.9H226l-3.6,0.3l-3.3,0.3l-1.1-0.2l-0.5-0.3L217.9,98.3z M229.1,98.3c0,0.3-0.3,0.6-0.6,0.6s-0.6-0.3-0.6-0.6
		c0-0.3,0.3-0.6,0.6-0.6C228.9,97.7,229.1,98,229.1,98.3"/>
	<path class="st1" d="M159.3,116.9c-0.2,0-0.5,0-0.5-0.2s0-0.3,0.2-0.5l1.9-0.9c1.6-0.8,4-1.6,6.5-2.5l3.7-1.6l1.6-0.6l0.8-0.3
		c0.3-0.2,0.6,0.2,0.6,0.3c0,0.3,0,0.5-0.3,0.6l-0.6,0.3l-1.6,0.8l-3.9,1.6l-6.5,2.2L159.3,116.9z"/>
	<path class="st1" d="M178.8,101.4c-0.2-0.2,0-0.5,0.2-0.5c0.2-0.2,0.5,0,0.5,0.2v0.2l-0.2,0.6l-0.6,1.1c0,0.2-0.2,0.2-0.3,0.2
		s-0.2-0.2-0.2-0.3l0.5-1.1L178.8,101.4L178.8,101.4L178.8,101.4z M168,112.8c-0.2-0.2-0.3-0.3-0.2-0.6l0,0l0,0l0.2-0.2l1.6-1.7
		l3.3-2.9c1.6-1.6,2.6-3.1,3.6-4.5l1.4-1.7l0.5-0.5l0.3-0.2c0.2,0,0.3-0.2,0.6,0s0.5,0.5,0.3,0.9c0.2,0.2-0.2,0.3-0.5,0.3h0.2h0.2
		l0,0l-0.3,0.3l-1.2,1.6c-0.9,1.4-2.2,2.9-4,4.7l-3.4,2.8l-1.6,1.6l-0.2,0.2h-0.2C168.3,112.8,168.3,113,168,112.8 M168.1,111.9
		c0.2-0.2,0.3-0.2,0.5-0.2c0.2,0.2,0.2,0.3,0.2,0.5l-0.2,0.3l0,0v-0.2v-0.2l-0.2-0.2c0.2,0.2,0.2,0.5,0,0.6s-0.5,0.2-0.6,0
		s-0.2-0.3,0-0.5v-0.2L168.1,111.9z"/>
	<path class="st1" d="M170,112.8c-0.2,0-0.3-0.2-0.3-0.5c0-0.2,0.2-0.3,0.3-0.3c1.2,0,3.1,0.3,5.1,0.8c1.6,0.5,2.8,1.1,3.7,1.6
		l1.1,0.6l0.8,0.3h0.2l0,0h-0.2l0.2-0.2l-0.2,0.2v-0.5c0-0.2,0-0.3,0.2-0.3s0.2,0,0.3,0.2l0.3,0.5l0.2,0.5v0.2
		c-0.2,0.2-0.3,0.5-0.6,0.5h-0.6l-1.1-0.3l-1.2-0.6c-0.9-0.6-2-1.1-3.4-1.6C173,113.5,171.1,113,170,112.8"/>
	<path class="st1" d="M188.5,105.6c0.2-0.2,0.3-0.2,0.5-0.2c0.2,0.2,0.2,0.3,0.2,0.5c-0.2,0.2-0.3,0.2-0.5,0.2c0,0-0.2,0-0.2-0.2
		l0.2,0.2l0,0h-0.3c-0.2,0-0.3-0.2-0.3-0.2c0-0.2,0-0.2,0.2-0.3L188.5,105.6L188.5,105.6L188.5,105.6L188.5,105.6z M175.6,112.2
		c-0.2-0.2-0.2-0.3,0-0.5c0.2-0.2,0.3-0.2,0.5,0l0.3,0.2l0.6-0.2l2.2-1.2l2.9-1.7l3.3-2l0.8-0.6l0.9-0.6l1.2-0.3h0.2h0.2
		c0.2,0,0.2,0.2,0.2,0.3v0.2l-0.2,0.2l-0.9,0.6l-0.8,0.6l-0.8,0.6l-3.4,2l-3.1,1.7l-2.5,1.1l-0.8,0.2
		C176.1,112.7,175.7,112.5,175.6,112.2"/>
	<path class="st1" d="M193.1,110.1c0.3,0,0.6,0.2,0.6,0.5c0,0.3-0.2,0.6-0.5,0.6s-0.6-0.2-0.6-0.5c0-0.2,0-0.3,0-0.3v0.2v0.2v0.2
		l-0.8-0.3c-0.2,0-0.2-0.2-0.2-0.3s0.2-0.2,0.3-0.2L193.1,110.1L193.1,110.1L193.1,110.1z M183.8,109.7c0.2,0,0.5,0,0.5,0.2
		s0,0.3-0.2,0.5l0,0l0,0v-0.2v-0.2v-0.2l-0.2-0.2L183.8,109.7h0.3l1.1-0.2c1.2-0.2,2.5-0.3,3.7-0.2l2.5,0.5l1.6,0.2
		c0.2,0,0.3,0,0.3,0h0.2c0.2,0.2,0.3,0.3,0.3,0.5v0.3c0,0.2-0.2,0.2-0.2,0.3c-0.3,0.3-0.6,0.2-0.9,0.2h-1.2l-2.6-0.5
		c-1.1-0.2-2.2-0.2-3.4-0.2l-1.2-0.2c-0.2,0-0.3,0-0.5-0.3c-0.2-0.2,0-0.5,0.2-0.6L183.8,109.7z"/>
	<path class="st1" d="M201.8,101.1c0.2-0.2,0.5-0.2,0.6,0c0.2,0.2,0.2,0.5,0,0.6s-0.5,0.2-0.6,0c0,0,0,0-0.2-0.2l0,0l0.2,0.2l0,0
		h0.2c-0.5,0.2-1.2,0.6-1.6,0.9c-0.2,0.2-0.3,0.2-0.3,0c-0.2,0-0.2-0.2,0-0.3C200.4,101.8,201.2,101.2,201.8,101.1L201.8,101.1
		L201.8,101.1L201.8,101.1z M190,109.3c0.2-0.2,0.3-0.2,0.5,0c0.2,0.2,0.2,0.3,0,0.5l-0.2,0.3l0,0v-0.2v-0.2l-0.2-0.2l-0.2-0.2h-0.2
		l0,0l1.9-1.2c1.7-1.4,3.9-3.6,6.2-5.3l3.1-1.9l0.6-0.3c0,0,0.2,0,0.2-0.2h0.2l0,0c0.3,0,0.5,0.2,0.6,0.3l0,0c0.2,0.3,0,0.5-0.2,0.6
		l-0.2,0.2l-0.6,0.5l-3.1,1.9c-2.3,1.6-4.5,3.6-6.4,5c-0.9,0.6-1.6,1.1-2.2,1.2h-0.3l-0.3-0.2v-0.5L190,109.3z"/>
	<path class="st1" d="M198.7,107.4c-0.2,0-0.5,0-0.5-0.2c0-0.2,0-0.3,0.2-0.5c0.6-0.5,1.7-0.5,2.8-0.6l2.2,0.2l2.6,0.3
		c0.8,0,1.4,0,2.2-0.3l1.6-0.3c0.2,0,0.3,0,0.3,0.2s0,0.2-0.2,0.3l-1.4,0.9c-0.9,0.3-1.9,0.5-2.6,0.5l-2.8-0.2l-1.9-0.2L198.7,107.4
		z"/>
	<path class="st1" d="M157.9,146.2c0-0.2,0.3-0.3,0.5-0.2c0.2,0,0.3,0.2,0.3,0.3v-0.2l-0.2-0.2h-0.2h0.2l0.9-0.3l3.6-1.6l5-2.3
		l2.8-1.2l5.1-2l2.9-1.2l1.1-0.2c0.2,0,0.5,0.2,0.6,0.5l-0.2,0.5l-0.2,0.2l-1.1,0.6l-1.1,0.5c-0.2,0-0.3-0.2-0.3-0.2
		c0-0.2,0-0.2,0.2-0.3c0.8-0.3,1.9-0.9,1.9-1.1v0.2v0.2l0.2,0.2l0.2,0.2h0.2l0,0l-0.6,0.3l-3.1,1.1l-5.1,1.9l-2.9,1.2l-5.1,2.2
		l-3.7,1.4l-0.9,0.3h-0.5C157.9,146.7,157.9,146.3,157.9,146.2"/>
	<path class="st1" d="M178.5,147.7c0-0.3,0.3-0.5,0.5-0.3c0.3,0,0.5,0.3,0.3,0.5c0,0.3-0.3,0.5-0.5,0.3c-0.2,0-0.3-0.2-0.3-0.3l0,0
		v0.2h-0.2C178.4,147.9,178.4,147.7,178.5,147.7c0-0.2,0-0.2,0-0.2h0.2l0,0l0,0L178.5,147.7L178.5,147.7z M167.2,144.6
		c-0.2-0.2-0.3-0.3-0.2-0.5l0.2-0.3l0.3-0.2l0.9-0.2h1.4c0.9,0.2,1.2,0.8,1.7,0.9c0.9,0.6,2.9,0.6,4.8,1.1c0.9,0.2,1.7,0.6,2.3,0.9
		l0.8,0.5l0.3,0.3c0.2,0.2,0.3,0.3,0.2,0.8c-0.3,0.3-0.6,0.5-0.9,0.3c-0.2,0-0.3-0.2-0.5-0.5l0.2,0.2l0.2,0.2l0,0l0,0l-0.8-0.3
		l-2-0.8c-1.7-0.5-3.9-0.5-5.3-1.4l-1.1-0.8h-1.1l-0.8-0.2L167.2,144.6L167.2,144.6z M167.5,144c0.2,0.2,0.2,0.3,0,0.5
		c0,0-0.2,0-0.2,0.2l0,0c-0.2,0-0.5,0-0.5-0.2s0-0.5,0.2-0.5C167.4,143.9,167.5,143.9,167.5,144s0.2,0.2,0.2,0.2L167.5,144
		L167.5,144z"/>
	<path class="st1" d="M173.6,144.3c0-0.2,0.2-0.3,0.5-0.3c0.2,0,0.3,0.2,0.3,0.5l0,0v0.5l0.2,0.3h0.2l0.5-0.2l1.4-0.6l1.7-0.9l2-1.2
		l4-1.6c0.2,0,0.3,0,0.3,0.2s0,0.3-0.2,0.3c-1.7,0.8-2.8,1.6-3.6,2.2l-2.2,1.2l-1.9,0.9l-1.6,0.5h-0.6l-0.6-0.3
		c-0.2-0.2-0.3-0.5-0.3-0.8L173.6,144.3z"/>
	<path class="st1" d="M184.6,46.6c0.2-0.2,0.3-0.3,0.5-0.2c0.2,0.2,0.3,0.3,0.2,0.5c0,0.2-0.2,0.2-0.3,0.2l-0.6,0.5
		c-0.2,0-0.3,0-0.3-0.2s0-0.3,0-0.3L184.6,46.6z M159.6,60.6c-0.2,0-0.3,0-0.5-0.3c0-0.2,0-0.3,0.2-0.5l2-0.9l1.2-0.3
		c0.6-0.2,1.4-0.8,2.2-1.4l3.7-2.2l6.8-3.9l3.3-1.7l1.6-0.6c0.6-0.3,1.4-0.9,2.2-1.4l1.2-0.9l0.9-0.5h0.2h0.2c0.3-0.2,0.8,0,0.9,0.3
		c0.2,0.3,0,0.8-0.3,0.9l0,0l0,0h-0.2l-0.9,0.8l-1.2,0.8c-0.6,0.5-1.4,1.1-2.5,1.6L179,51l-3.3,1.6l-6.8,3.7l-3.6,2.2
		c-0.8,0.5-1.7,1.1-2.5,1.4l-1.1,0.2L159.6,60.6z M185.7,46.8c0,0.3-0.3,0.6-0.6,0.6c-0.3,0-0.6-0.3-0.6-0.6c0-0.3,0.3-0.6,0.6-0.6
		C185.4,46.2,185.7,46.5,185.7,46.8"/>
	<path class="st1" d="M188.5,58.6c0-0.3,0.3-0.3,0.6-0.3c0.3,0,0.3,0.3,0.3,0.6c0,0,0,0.2-0.2,0.2c-0.2,0.2-0.5,0.2-0.6,0.3H188
		l-1.1-0.2c-0.2,0-0.2-0.2-0.2-0.3c0-0.2,0.2-0.2,0.3-0.2h1.1L188.5,58.6L188.5,58.6L188.5,58.6L188.5,58.6z M173.3,53.5
		c0,0.2,0,0.5-0.3,0.5c-0.2,0-0.3,0-0.5-0.2l-0.2-0.3v-0.3l0.3-0.3h0.3l1.2,0.5l4,1.2l2.3,0.8l5.6,1.4l2,0.6
		c0.5,0.2,0.8,0.3,1.1,0.6c0.2,0.2,0.2,0.3,0.2,0.5s0,0.5-0.3,0.6l0,0h-0.2h-0.3c-0.2,0-0.3-0.2-0.5-0.2l-0.6-0.3l-1.9-0.6l-5.6-1.6
		l-2-0.8c-1.6-0.5-2.9-0.9-4-1.6l-1.1-0.5l0,0l0,0L173.3,53.5L173.3,53.5L173.3,53.5L173.3,53.5z"/>
	<path class="st1" d="M193.4,51.3c0-0.3,0.2-0.6,0.5-0.6c0.3,0,0.6,0.2,0.6,0.5s-0.2,0.6-0.5,0.6c-0.2,0-0.3,0-0.3-0.2h0.2h0.2l0,0
		l-0.3,0.2l-0.8,0.5c-0.2,0.2-0.3,0.2-0.3,0s-0.2-0.2,0-0.3L193.4,51.3l0.2-0.3l0,0l0,0L193.4,51.3L193.4,51.3z M184.9,56.6
		c-0.2-0.2-0.2-0.3-0.2-0.6c0,0,0-0.2,0.2-0.2h0.2l0.8-0.2c0.6-0.2,1.4-0.8,2.3-1.4l4.3-2.8l1.4-0.8c0.3-0.2,0.6,0,0.8,0.3
		c0.2,0.3,0,0.6-0.3,0.8l0,0l-1.2,0.6l-4.3,2.6c-0.9,0.5-1.9,1.1-2.6,1.4l-0.9,0.2L184.9,56.6z M185.4,55.9c0.2,0,0.3,0.2,0.3,0.3
		c0,0.2-0.2,0.3-0.3,0.3h-0.2l0,0h0.2c-0.2,0.2-0.5,0.2-0.6,0s-0.2-0.5,0-0.6c0.2-0.2,0.3-0.2,0.5,0h-0.2l0,0H185.4z M194.7,51.3
		c0,0.3-0.3,0.6-0.6,0.6c-0.3,0-0.6-0.3-0.6-0.6s0.3-0.6,0.6-0.6S194.7,51,194.7,51.3"/>
	<path class="st1" d="M158.1,77.6c0.2-0.2,0.5,0,0.5,0.2s0,0.3-0.2,0.5l0.2-0.2V78v-0.2l0,0h0.2l0.8,0.2c0.8,0.2,1.9,0,3.6-0.6
		l5.9-2c2.8-0.9,5.7-1.9,8.8-2.6l10.7-2.5l4.2-0.9L194,69l0.2-0.2l0,0l0,0l0,0V69v0.3c-0.2-0.3,0-0.8,0.5-0.8c0.3-0.2,0.8,0,0.8,0.3
		c0.2,0.3,0,0.6-0.2,0.8c-0.3,0.3-0.5,0.3-0.8,0.5l-1.6,0.5l-4.2,0.9l-10.7,2.6c-3.1,0.8-6,1.6-8.7,2.5l-6,2c-1.9,0.5-3.1,0.6-4,0.5
		l-1.1-0.5l-0.3-0.3V78L158.1,77.6z"/>
	<path class="st1" d="M202.4,56.9c-0.2-0.2,0-0.3,0.2-0.5s0.3,0,0.5,0.2c0,0,0,0,0,0.2c0,0.3,0,0.3-0.2,0.6l-0.6,1.1
		c0,0.2-0.2,0.2-0.3,0.2c-0.2,0-0.2-0.2-0.2-0.3l0.5-1.1L202.4,56.9L202.4,56.9L202.4,56.9L202.4,56.9z M188,71.3
		c-0.2,0-0.3-0.2-0.3-0.3v-0.2l0.2-0.2l0.3-0.3l1.1-0.9l3.6-3.3l2.8-2.6c1.7-1.6,2.9-3.1,4-4.3l1.9-2.3l0.5-0.5
		c0.2-0.2,0.2-0.3,0.5-0.3c0.3,0,0.6,0.2,0.8,0.5c0,0.3-0.2,0.6-0.5,0.8h0.2l-0.5,0.5l-1.9,2.2c-1.1,1.4-2.5,2.8-4.2,4.3l-2.9,2.6
		l-3.7,3.3l-1.1,0.9l-0.3,0.2l0,0H188z M187.8,70.7c0.2-0.2,0.5,0,0.5,0.2s0,0.2,0,0.3V71c0,0.2-0.2,0.3-0.5,0.3
		c-0.2,0-0.3-0.2-0.3-0.5C187.7,70.8,187.8,70.7,187.8,70.7L187.8,70.7z"/>
	<path class="st1" d="M193.6,71.4c-0.2,0-0.3-0.3-0.3-0.5s0.3-0.3,0.5-0.3c0.6,0.2,2-0.3,3.7-0.9l3.6-1.1l4.8-1.9l2.3-0.8
		c0.3-0.2,0.6-0.2,0.9,0c0.2,0.2,0.3,0.5,0.2,0.6l-0.2,0.3l-1.1,0.9c-0.2,0.2-0.3,0.2-0.3,0c-0.2-0.2-0.2-0.2,0-0.3l0.8-0.9v0.2
		l0.2,0.2l0.2,0.2h0.2l-0.3,0.2l-2.3,0.8l-4.8,1.9l-3.6,1.1C195.9,71.3,194.5,71.8,193.6,71.4"/>
	<path class="st1" d="M177,73.3c0.2-0.2,0.3-0.3,0.5-0.2c0.2,0,0.2,0.2,0.2,0.3l0.2,0.9l1.4,3.6l1.6,3.4l0.9,1.7c0,0,0,0,0,0.2v0.2
		l0,0l0,0h-0.2h-0.3H181l0.2-0.2l0,0l0,0l-0.5-2.6c0-0.2,0-0.3,0.2-0.3s0.3,0,0.3,0.2l0.9,2.6v0.3c0,0.2,0.2,0.2-0.2,0.5
		c-0.2,0.3-0.6,0.3-0.8,0.3l-0.5-0.3c0,0,0,0-0.2-0.2l-0.9-1.7l-1.6-3.6c-0.6-1.4-0.9-2.8-1.2-3.9C176.8,74.1,176.8,73.6,177,73.3"
		/>
	<path class="st1" d="M178.4,73.8c0,0.2,0,0.5-0.2,0.5s-0.3,0-0.5-0.2c-0.2-0.3,0-0.8,0.2-1.4l0.6-1.4l1.6-3.7l1.4-2.8l1.2-1.6
		c0,0,0.2,0,0.2-0.2c0.2-0.2,0.5-0.3,0.8,0c0.2,0.2,0.3,0.5,0.3,0.6v0.2l-0.6,1.1c0,0.2-0.2,0.2-0.3,0c-0.2,0-0.2-0.2-0.2-0.3
		l0.3-0.8v-0.2v0.2h0.2h0.2h0.2h0.2l0,0l-0.2,0.2c0,0,0,0.2-0.2,0.2l-1.1,1.2l-1.2,2.5l-1.7,3.7l-0.8,1.4L178.4,73.8z"/>
	<path class="st1" d="M170.5,75.9c0,0.2-0.2,0.3-0.5,0.3c-0.2,0-0.3-0.2-0.3-0.3c0-0.2-0.5-0.8-0.3-1.7c0-0.5,0.3-0.8,0.5-1.2
		l1.6-2.8l1.4-2.6l1.1-2.5l0.6-1.6l0.3-0.9l0.2-0.5c0.2-0.3,0.5-0.5,0.8-0.5c0.2,0,0.5,0.3,0.5,0.5v0.5l-0.3,1.1l-0.6,1.6l-1.1,2.5
		l-1.9,3.1l-1.6,2.6l-0.5,0.9C170.2,75,170.5,75.5,170.5,75.9"/>
	<path class="st1" d="M132.5,223.9c0,0.2-0.2,0.3-0.5,0.3c-0.2,0-0.3-0.2-0.3-0.5c0-0.2,0.2-0.3,0.5-0.3c0,0,0,0,0.2,0h-0.2l0,0
		l0.5-0.3c0.2,0,0.3,0,0.3,0.2s0,0.3,0,0.3L132.5,223.9L132.5,223.9L132.5,223.9L132.5,223.9z M157.8,211.3c0,0.2-0.3,0.3-0.5,0.3
		s-0.3-0.2-0.3-0.3v0.2l0,0h-0.2h-1.1c-1.1,0.2-2.3,0.6-4,1.4c-2.5,1.1-5.7,2.8-8.7,4.3l-2.9,1.6l-2.6,1.6l-1.2,0.9l-1.2,1.1
		l-0.8,0.6l-1.2,0.9l-0.5,0.3h-0.2H132c-0.2,0-0.3-0.2-0.3-0.3c0-0.3,0-0.3,0.2-0.3l0.5-0.5l1.2-0.9l0.8-0.6l1.4-1.1l1.4-0.9
		l2.6-1.6l2.9-1.6c2.9-1.6,6.2-3.3,8.7-4.5c1.9-0.8,3.3-1.2,4.3-1.4h1.2l0.5,0.2l0.2,0.3L157.8,211.3z"/>
	<path class="st1" d="M135.9,221.4c-0.3-0.2-0.3-0.6-0.2-0.8s0.5-0.3,0.8-0.2c0.6,0.5,0.8,1.1,0.9,2l0.8,3.4l1.1,4l0.3,0.9l0.2,0.5
		l-0.2-0.2h-0.2h-0.2h-0.2H139v0.2l0,0v-0.2v-0.8c0-0.6,0-1.2,0.3-1.7c0-0.2,0.2-0.2,0.3-0.2s0.2,0.2,0.2,0.3v1.6l0.2,0.8v0.3
		l-0.2,0.5v-0.2l-0.3,0.3h-0.3l-0.5-0.2l-0.5-0.6l-0.5-1.1l-1.1-4.2l-0.6-3.4l-0.3-1.1L135.9,221.4z"/>
	<path class="st1" d="M126.9,229.3c-0.2,0-0.3-0.3-0.2-0.5c0-0.2,0.3-0.3,0.5-0.2c0,0,0,0,0.2,0l0,0h0.3l0.9-0.5
		c0.2-0.2,0.3,0,0.3,0c0.2,0.2,0,0.3,0,0.3l-1.1,0.6C127.4,229.3,127.1,229.5,126.9,229.3 M134.7,225.9c0.2,0.2,0,0.5-0.2,0.5
		c-0.2,0.2-0.5,0-0.5-0.2l0,0c-0.2-0.5,0.2-1.1,0.2-1.7v-0.2v-0.2l0.2,0.2l0,0h-0.2l-0.6,0.2c-0.5,0.2-0.8,0.6-1.4,1.1l-1.2,1.1
		l-1.9,1.4l-1.4,0.9c-0.2,0.3-0.5,0.3-0.8,0.2c-0.3-0.2-0.3-0.5-0.2-0.8l0.8-0.6l0.9-0.6l1.6-1.2l1.2-1.1c0.5-0.5,0.9-1.1,1.7-1.4
		l1.1-0.2l0.5,0.2c0.2,0,0.3,0.2,0.5,0.5v0.2l-0.2,0.6L134.7,225.9z M127.5,228.8c0,0.3-0.3,0.6-0.6,0.6c-0.3,0-0.6-0.3-0.6-0.6
		s0.3-0.6,0.6-0.6C127.2,228.4,127.5,228.5,127.5,228.8"/>
	<path class="st1" d="M139.5,229.5c0.2,0.2,0.2,0.3,0,0.5s-0.3,0.2-0.5,0c-0.2,0-0.2-0.2-0.2-0.3l0,0v-0.3v-0.5
		c-0.2-0.2-0.2-0.3,0-0.3c0.2-0.2,0.2-0.2,0.3,0C139.5,228.7,139.5,229,139.5,229.5l0.2,0.2L139.5,229.5L139.5,229.5z M138.8,229.6
		c0-0.2,0.2-0.3,0.5-0.3c0.2,0,0.3,0.2,0.3,0.5c0,0,0,0,0,0.2l-0.2,0.2c-0.2,0.2-0.3,0-0.5-0.2C138.8,229.8,138.8,229.8,138.8,229.6
		L138.8,229.6z"/>
	<path class="st1" d="M148.8,227.1c0.2,0,0.3,0.2,0.3,0.5c0,0.2-0.2,0.3-0.5,0.3c-0.2,0-0.3-0.2-0.3-0.3l0,0v-0.2v-0.3v-0.8
		c0-0.2,0.2-0.3,0.3-0.2c0.2,0,0.2,0.2,0.2,0.3L148.8,227.1l0.2,0.2l0,0L148.8,227.1L148.8,227.1z M144.3,217.8
		c-0.2-0.2,0-0.5,0.2-0.5c0.2-0.2,0.3,0,0.5,0.2c0.8,1.2,1.4,3.3,2.2,5.4l1.2,2.8l0.5,0.8l0.5,0.6c0.2,0.2,0.2,0.3,0.2,0.5l-0.2,0.3
		c0,0,0,0.2-0.2,0.2c-0.3,0.3-0.5,0.2-0.5,0.2c-0.2,0-0.3-0.2-0.5-0.2l-0.5-0.8l-0.5-0.9l-1.2-2.9
		C145.4,221.1,144.9,218.9,144.3,217.8"/>
	<path class="st1" d="M143,234c-0.2,0.2-0.6,0.2-0.8,0s-0.2-0.6,0-0.8c0.2-0.2,0.3-0.2,0.3-0.2h-0.2h-0.2l0,0
		c0.2-0.2,0.2-0.2,0.3-0.2h-0.2l0,0l1.1-1.1c0.2-0.2,0.3-0.2,0.3,0c0.2,0.2,0.2,0.2,0,0.3l-0.6,1.1l-0.2,0.3l0,0v-0.2
		C143.2,233.5,143.2,233.7,143,234L143,234z M148.3,225.9c0.2,0,0.3,0.3,0.2,0.5c0,0.2-0.3,0.3-0.5,0.2l-0.5,0.2l-0.8,0.8l-1.6,2.5
		l-1.6,2.6l-0.6,0.9l-0.2,0.2l0,0l0,0c0,0.3-0.3,0.5-0.6,0.5c-0.2,0-0.3-0.2-0.3-0.3c-0.2-0.3,0-0.5,0-0.5l0.2-0.3l0.5-0.9l1.6-2.6
		c0.6-0.9,1.2-1.9,1.9-2.6l0.9-0.8C147.5,225.9,148,225.7,148.3,225.9"/>
	<path class="st1" d="M155.3,235.5c0.3,0,0.5,0.3,0.3,0.5c0,0.3-0.3,0.5-0.5,0.3c-0.3,0-0.5-0.3-0.3-0.5c0-0.2,0.2-0.3,0.3-0.3H155
		h-0.2l0,0C155,235.4,155.1,235.4,155.3,235.5C155.3,235.4,155.4,235.5,155.3,235.5l0.2,0.2L155.3,235.5L155.3,235.5z M148.6,227.1
		c0.2,0,0.3,0.3,0.2,0.5c0,0.2-0.2,0.3-0.5,0.3h-0.2l-0.2-0.2v-0.5l0.2-0.2l0.8-0.3c0.8,0,1.6,0.3,2.3,1.1c0.8,0.6,1.7,1.6,2.3,2.6
		c0.8,1.2,1.2,2.6,1.7,3.7l0.3,1.1l0.2,0.5v0.2l0,0c0.2,0.3,0,0.8-0.3,0.9c-0.3,0.2-0.6,0.2-0.9-0.2l-0.2-0.5l-0.2-0.5l-0.3-1.1
		c-0.3-1.1-0.8-2.3-1.4-3.4c-0.6-1.1-1.2-1.9-2-2.5c-0.6-0.6-1.2-0.9-1.6-0.9h-0.5l0,0l0.2-0.2v-0.2L148.6,227.1L148.6,227.1z"/>
	<path class="st1" d="M155.1,203.7c-0.2,0.2-0.3,0.2-0.5,0.2c-0.2-0.2-0.2-0.3-0.2-0.5v0.2l0.2,0.2h0.2h-0.3l-1.7,0.3l-2.2,0.3
		l-3.3,0.5l-2.3,0.5l-5.9,1.2l-4.3,0.9l-3.9,0.9l-4.7,1.2c-1.9,0.6-3.6,1.2-4.8,1.9l-1.7,0.8l-0.3,0.3c0,0.2-0.2,0.3-0.3,0.3
		c-0.2,0-0.3-0.2-0.3-0.2c0-0.3,0-0.8,0.5-0.9l1.7-0.9c1.2-0.6,2.9-1.2,5-1.9l4.7-1.2l3.9-0.8l4.3-0.9l5.9-1.2l2.3-0.5l3.3-0.5
		l2-0.3l1.7-0.2h0.6l0.3,0.2C155.3,203.4,155.3,203.7,155.1,203.7"/>
	<path class="st1" d="M126.1,208.1c0.2,0,0.3,0.2,0.3,0.3c0,0.2-0.2,0.3-0.3,0.3l-0.5,0.2l-0.2,0.9l-0.3,4.2l-0.2,5.4v3.4v2.2v0.3
		l0,0l0,0v-0.2l-0.2-0.2l-0.2-0.2h-0.2h-0.2l-0.2,0.2l0,0v-0.2c0-0.5,0.2-1.2,0-2.6c0-0.2,0.2-0.3,0.2-0.3c0.2,0,0.3,0,0.3,0.2
		l0.3,2.8v0.3v0.2c0,0,0,0.2-0.3,0.3c-0.3,0.2-0.5,0-0.6-0.2l-0.2-0.2l-0.2-0.5v-2.3v-3.4l0.3-5.4l0.5-4.2c0.2-0.5,0.2-0.9,0.5-1.2
		C125.2,208.2,125.7,208.1,126.1,208.1"/>
	<path class="st1" d="M123.8,217.7c0.2,0.2,0.2,0.3,0,0.5s-0.3,0.2-0.5,0h-0.2l-0.6,0.2l-1.9,0.9c-1.4,0.8-2.9,1.9-4,2.8l-1.4,1.1
		c-0.2,0.2-0.3,0.2-0.5,0c-0.2,0-0.2-0.2-0.2-0.3c0.2-0.5,0.6-0.9,1.4-1.6c1.2-0.9,2.8-2,4.2-2.8l2-0.9l0.8-0.2
		C123.3,217.5,123.5,217.5,123.8,217.7"/>
	<path class="st1" d="M102.2,217.5c0.2,0.2,0.2,0.3,0,0.5c-0.2,0.2-0.3,0.2-0.5,0c-0.2-0.2-0.2-0.3,0-0.5l0,0l0,0h0.2l0.3-0.2
		l1.4-0.5c0.2,0,0.3,0,0.3,0.2c0,0.2,0,0.3-0.2,0.3l-1.2,0.6l-0.3,0.2l0,0l0,0l0,0V218V217.5z M122.6,211.3c0.2,0.2,0,0.5-0.2,0.5
		c-0.2,0.2-0.3,0-0.5-0.2c-0.2-0.2-0.5-0.5-1.2-0.5c-0.8,0-1.7,0-2.8,0.5c-1.4,0.5-2.8,1.2-4.5,2l-2,0.9l-4,1.9l-3.9,1.4l-0.9,0.2
		h-0.3h-0.2c0,0-0.3,0-0.3-0.3c0-0.2,0.2-0.3,0.3-0.3l0,0l0,0l0.2-0.2l0.9-0.3l3.9-1.4l4-2l2-0.9c1.6-0.8,3.1-1.7,4.7-2.2
		c1.2-0.3,2.3-0.5,3.3-0.3C121.6,210.4,122.2,210.7,122.6,211.3"/>
	<path class="st1" d="M113.7,214.7c0,0.2-0.3,0.3-0.5,0.3s-0.3-0.2-0.3-0.5v-0.5l0,0l0.2,0.2h0.2h0.2h0.2l0,0l-0.6,1.2
		c-0.6,1.2-1.2,3.1-1.6,4.5l-0.2,0.8v0.3c0,0.2,0,0.3,0,0.3v-0.2l-0.2-0.2l0,0c0.2,0,0.3,0.2,0.2,0.3v0.2l-0.2,0.2h-0.6
		c-0.2,0-0.2-0.2-0.3-0.3c-0.2-0.5,0-1.1,0.2-1.7c0.3-1.4,1.1-3.3,1.7-4.5c0.3-0.6,0.5-1.1,0.8-1.4c0,0,0.2-0.3,0.5-0.2
		c0.3,0.2,0.3,0.3,0.3,0.5L113.7,214.7z"/>
	<path class="st1" d="M132.5,215.4c0.2,0.2,0.2,0.5,0,0.6c-0.2,0.2-0.5,0.2-0.6,0c-0.2-0.2-0.2-0.5,0-0.6l0.2-0.2l0,0l0.2-0.2
		l0.6-0.9c0.2-0.2,0.3-0.2,0.3,0c0.2,0,0.2,0.2,0.2,0.3l-0.5,1.1v0.2v-0.2L132.5,215.4L132.5,215.4z M137.8,206.8
		c0-0.2,0.2-0.3,0.3-0.3s0.2,0,0.3,0.2c0.2,0.3,0,0.5,0,0.6l-0.3,0.5l-0.8,1.6l-3.6,5.4l-0.8,1.1l-0.3,0.3c0,0.2,0,0.2-0.5,0.3
		c-0.3,0-0.6-0.2-0.6-0.5s0.2-0.6,0.5-0.6h-0.2l0,0l0,0l0.2-0.3l0.8-1.1l3.6-5.3l0.9-1.4L137.8,206.8L137.8,206.8L137.8,206.8z"/>
	<path class="st1" d="M121,196.3c0-0.2,0-0.5,0.2-0.5s0.3,0,0.5,0.2c0.2,0.3,0,0.5,0,0.6l-0.3,0.8l-1.1,2.2l-3.1,5.6l-1.4,2.3
		l-0.8,1.4c0,0,0,0.2-0.2,0.2l-0.3,0.2h-0.2c-0.2,0-0.2,0-0.3-0.2v-0.2v-0.3v-0.2l0.8-1.6l1.4-2.3l3.1-5.4l1.1-2L121,196.3
		L121,196.3L121,196.3z"/>
	<path class="st1" d="M121.1,206.7c0.2,0.2,0.3,0.3,0.2,0.5c-0.2,0.2-0.3,0.3-0.5,0.2c-0.2,0-0.3-0.3-0.2-0.5l0,0v-0.3
		c0-0.2,0-0.3,0.2-0.3s0.2,0,0.3,0.2V206.7z M124.4,195.2c-0.2,0.2-0.3,0.3-0.5,0.2c-0.2,0-0.3-0.3-0.2-0.5l0.2-0.3
		c0,0,0.3-0.2,0.5,0l0.2,0.3v0.8c-0.2,1.2-0.6,3.4-1.4,5.6l-1.2,3.6l-0.3,1.1l-0.2,0.6c0,0.2,0,0.5-0.2,0.9
		c-0.2,0.2-0.3,0.2-0.6,0.2c-0.2-0.2-0.2-0.3-0.2-0.6v-0.2v-0.5l0.2-0.8l0.3-1.1l1.2-3.4c0.8-2.2,1.2-4.2,1.4-5.4v-0.5l0,0v0.2
		l0.2,0.2L124.4,195.2L124.4,195.2L124.4,195.2L124.4,195.2z"/>
	<path class="st1" d="M136.3,189.3c-0.2,0-0.3-0.2-0.5-0.3c0-0.2,0.2-0.3,0.3-0.5c0.3,0,0.6,0,0.8,0.3l0.3,0.8l0.2,2.2
		c0,1.7-0.3,3.4-0.6,5l-0.8,3.6c0,0,0,0.2-0.2,0.2l-0.2,0.2c-0.2,0.2-0.3,0.2-0.3,0l0,0l-0.2-0.3v-0.2l0.8-3.6
		c0.3-1.6,0.6-3.1,0.6-4.8l-0.2-2L136.3,189.3L136.3,189.3z"/>
	<path class="st1" d="M136.1,194.6c0,0.2,0,0.5-0.2,0.5s-0.3,0-0.5-0.2l0.2,0.2h0.2l0,0l-0.3,0.3l-1.1,1.2l-1.6,1.2l-1.7,0.9
		c-0.2,0.2-0.3,0-0.3,0c-0.2-0.2,0-0.2,0-0.3l1.6-1.2l1.6-1.2l1.1-1.1l0.5-0.3l0.3-0.2L136.1,194.6z"/>
	<path class="st1" d="M157.4,165.6c0.3,0,0.5,0.2,0.6,0.3c0,0.3-0.2,0.5-0.3,0.6l-86.2,17.2c-0.3,0-0.5-0.2-0.6-0.3
		c0-0.3,0.2-0.5,0.3-0.6L157.4,165.6z"/>
	<path class="st1" d="M82.1,198.8c0.2,0.2,0.2,0.5,0.2,0.6c-0.2,0.2-0.5,0.2-0.6,0.2c-0.2-0.2-0.2-0.5-0.2-0.6
		c0.2-0.2,0.2-0.2,0.3-0.2h-0.2l0,0l0.2-0.2c0.2-0.2,0.3-0.2,0.3,0c0.2,0,0.2,0.2,0.2,0.3v0.3l0,0L82.1,198.8L82.1,198.8z M95,180.6
		c0,0.2-0.2,0.3-0.5,0.3c-0.2,0-0.3-0.2-0.3-0.5V180l0,0l0.2,0.2h0.2l0,0l-0.9,1.1l-2.2,2.9l-2.6,3.9l-3.9,6.2l-0.9,1.7l-0.5,1.1
		l-0.6,0.9l-0.5,0.8l-0.2,0.3l-0.2,0.2l-0.2,0.2c-0.2,0.2-0.5,0.2-0.6-0.2c-0.2-0.2-0.2-0.5,0.2-0.6h0.2h-0.2l0,0l0.2-0.3l0.5-0.8
		l0.5-0.9l0.6-1.2l1.1-1.7l3.9-6.2l2.6-3.9l2.2-2.9c0.5-0.6,0.8-1.1,1.2-1.2h0.5l0.3,0.3V180.6z M82.2,199.1c0,0.3-0.2,0.5-0.5,0.5
		c-0.3,0-0.5-0.2-0.5-0.5s0.2-0.5,0.5-0.5C82.1,198.6,82.2,198.9,82.2,199.1"/>
	<path class="st1" d="M76.3,193.5c-0.2,0.2-0.5,0-0.5-0.2c-0.2-0.2,0-0.5,0.2-0.5c0.2-0.2,0.5,0,0.5,0.2c0,0,0,0,0,0.2V193l-0.2-0.2
		h-0.2l0,0h0.2l0.8-0.2c0.2,0,0.3,0,0.3,0.2s0,0.3-0.2,0.3l-0.8,0.3L76.3,193.5z M87,190.2c0,0.2-0.2,0.3-0.3,0.3
		c-0.2,0-0.3-0.2-0.3-0.3l0,0h-0.2l-1.1,0.3l-3.6,1.4l-3.4,1.1l-1.2,0.3l-0.5,0.2h-0.2h-0.2c-0.2,0-0.3,0-0.5-0.2
		c-0.2-0.3,0-0.3,0-0.5l0.2-0.2l0.5-0.3l1.2-0.3l3.3-0.9l3.7-1.4l1.4-0.3l0.6,0.2L87,190.2z"/>
	<path class="st1" d="M104.7,176.3c0.2,0,0.3,0.2,0.3,0.5c0,0.2-0.2,0.3-0.5,0.3h-0.3l-0.2,0.2l-0.2,0.8c0,0.8-0.2,1.9-0.5,3.6
		l-0.8,2.6l-1.7,5.6l-1.1,4l-0.5,2.3c-0.2,0.8-0.3,1.2-0.6,1.6l-0.6,0.2l-0.8-0.2c-0.2,0-0.2-0.2-0.2-0.3c0-0.2,0.2-0.2,0.3-0.2h0.6
		l0.2-0.2l0.2-1.1l0.5-2.5l1.1-4.2l1.7-5.6l0.8-2.6c0.5-1.7,0.5-2.5,0.6-3.4c0-0.3,0.2-0.8,0.3-1.1l0.5-0.3H104.7z"/>
	<path class="st1" d="M99,194.6c0,0.2-0.3,0.3-0.5,0.3s-0.3-0.2-0.3-0.5l0.2,0.2l0,0h-0.2l-1.4,0.9l-2,1.6l-4.5,3.7l-2.9,2.5l-2,1.9
		l-0.5,0.5l-0.2,0.2l0,0v-0.2l-0.2-0.2h-0.2h-0.2l0,0l1.1-0.9c0.2-0.2,0.3-0.2,0.3,0c0.2,0.2,0.2,0.3,0,0.3l-0.8,0.8l-0.3,0.3h-0.3
		l-0.2-0.3c0-0.3,0.2-0.3,0.2-0.3l0.5-0.6l2-2l2.8-2.6l4.7-3.7l2-1.6l1.7-0.9c0.2-0.2,0.5-0.2,0.8,0l0.3,0.3V194.6z"/>
	<path class="st1" d="M93.2,208.8c0,0.2-0.3,0.3-0.5,0.2c-0.2,0-0.3-0.3-0.2-0.5c0-0.2,0.3-0.3,0.5-0.2c0,0,0,0,0.2,0h-0.2h-0.2l0,0
		l0,0l0,0l0.3-0.8c0-0.2,0.2-0.2,0.3-0.2c0.2,0,0.2,0.2,0.2,0.3l-0.2,0.8L93.2,208.8L93.2,208.8z M97,196.7c-0.2,0-0.3-0.2-0.3-0.3
		c0-0.2,0.2-0.3,0.3-0.3l0.5,0.2v0.2v0.5l-0.3,1.2l-1.4,3.9l-1.7,4l-0.5,1.7l-0.3,0.9c0,0.2-0.2,0.3-0.3,0.3h-0.2
		c-0.3-0.2-0.2-0.3-0.2-0.3v-0.9l0.5-1.9l1.7-4l1.6-3.9l0.3-1.2v-0.3v0.2L97,196.7L97,196.7z"/>
	<path class="st1" d="M122.4,174.4c-0.2,0-0.3-0.3-0.2-0.5c0-0.2,0.3-0.3,0.5-0.2l0.5,0.3l0.2,0.5l-0.2,1.1c-0.3,0.9-0.8,2-1.7,3.3
		c-1.7,2.5-4,5.3-5.7,7.6L114,189v0.2l0,0l0,0h0.2l0.5-0.2c0.2,0,0.3,0,0.3,0.2s0,0.3-0.2,0.3c-0.5,0.2-0.6,0.3-0.9,0.3l-0.3-0.5
		l0.2-0.5c0.3-0.6,0.9-1.6,1.7-2.6c1.7-2.3,4-5.1,5.6-7.6c0.8-1.2,1.4-2.3,1.7-3.1L122.4,174.4L122.4,174.4L122.4,174.4z"/>
	<path class="st1" d="M105,185c0,0.2-0.3,0.3-0.5,0.2c-0.2,0-0.3-0.3-0.2-0.5c0-0.2,0.2-0.3,0.3-0.2h-0.2l0.6-0.2
		c0.2,0,0.3,0,0.3,0.2s0,0.3-0.2,0.3L105,185L105,185L105,185z M116.4,181.9c0.2,0,0.3,0.2,0.3,0.3s-0.2,0.3-0.3,0.3
		c-0.8,0-1.7-0.2-2.9,0.2l-3.3,0.9l-3.9,1.2l-1.6,0.3c0,0,0,0.2-0.3,0c-0.2-0.2-0.2-0.3-0.2-0.5l0,0l0.2-0.2l1.4-0.5l3.9-1.1
		c1.2-0.3,2.3-0.8,3.4-0.9C114.6,181.7,115.6,181.9,116.4,181.9"/>
	<path class="st1" d="M120.7,181.4c0.2-0.2,0.3-0.2,0.5,0s0.2,0.2,0.2,0.3v1.1c0,1.1,0.2,2.5,0.3,3.9c0.2,0.9,0.3,1.9,0.5,2.3
		l0.3,0.5h0.3c0.2,0,0.3,0,0.3,0.2s0,0.3-0.2,0.3c-0.3,0.2-0.6,0.2-0.9,0s-0.5-0.5-0.8-0.8c-0.5-0.6-0.6-1.6-0.8-2.5
		c-0.2-1.4-0.3-2.9-0.2-4C120.4,182.2,120.4,181.7,120.7,181.4"/>
	<path class="st1" d="M121.5,185.9c0.2,0,0.3,0.2,0.3,0.5c0,0.2-0.2,0.3-0.5,0.3l0,0c-0.3-0.2-0.8,0-1.1,0.3l-1.1,0.9
		c-0.2,0.2-0.3,0-0.3,0c0-0.2,0-0.3,0-0.3l1.1-1.1C120.2,186.2,120.7,185.9,121.5,185.9"/>
	<path class="st1" d="M156.2,154.1c-0.2,0-0.3-0.2-0.5-0.3c0-0.2,0.2-0.3,0.3-0.5c0,0,0,0,0.2,0h0.3l0,0l-0.2-0.3
		c-0.2-0.2,0-0.3,0-0.3c0.2-0.2,0.3,0,0.3,0l0.3,0.5l-0.2,0.5C156.7,154.1,156.4,154.1,156.2,154.1"/>
	<path class="st1" d="M155.9,153c0,0.2-0.3,0.2-0.3,0.2c-0.2,0-0.2-0.3-0.2-0.3c0-0.2,0.3-0.2,0.3-0.2l0.2,0.2l0,0l0,0
		C155.9,152.9,156.1,153,155.9,153C155.9,153.2,155.9,153.2,155.9,153L155.9,153L155.9,153z M156.1,153c0,0.2-0.2,0.3-0.3,0.3
		s-0.3-0.2-0.3-0.3c0-0.2,0.2-0.3,0.3-0.3C155.9,152.5,156.1,152.7,156.1,153"/>
	<path class="st1" d="M157,152.4c0,0.2-0.2,0.3-0.3,0.3c0,0,0,0-0.2,0l0,0h-0.3l-3.1,0.5c-1.2,0.3-2.9,0.8-4.5,1.1
		c-1.9,0.3-2.9,0-4.7,0.3l-4.2,0.9l-2.9,0.5l-5.4,0.9l-6.7,0.8c-4.8,0.5-9.1,0.5-13.2,0.3l-4.7-0.2h-4.8c-2.3,0-4-0.3-5.7-0.8
		c-3.7-0.9-8.1-1.4-11.6-1.9c-3.3-0.5-6.2-1.1-8.1-1.2l-1.7,0.2c-0.8,0.2-1.6,0.9-2.6,1.2h-1.4l-2.2,0.5l-1.6,0.3l-0.6,0.2l-1.1,0.6
		l-0.8,0.3c-0.2,0-0.3,0-0.5,0l-0.3-0.3v-0.2v-0.2c0-0.2,0.2-0.3,0.3-0.3l0.5-0.3c0.3-0.3,0.8-0.6,1.4-0.8l0.8-0.2l1.6-0.3
		c0.8-0.2,1.6-0.5,2.3-0.5h1.1c0.8-0.2,1.6-0.9,2.6-1.2c0.6-0.2,1.4-0.2,2.2-0.2c2.2,0.2,5,0.8,8.2,1.2c3.6,0.5,7.9,0.9,11.8,1.9
		c1.7,0.5,3.4,0.8,5.6,0.8h4.8l4.7,0.2c4,0.2,8.4,0.2,13-0.5l6.7-0.8l5.4-0.9l2.8-0.5l4.3-0.9c1.9-0.3,2.9,0,4.7-0.2l4.5-0.9
		l3.1-0.3l0.6,0.2L157,152.4L157,152.4z M156.7,152.7c0.2,0.2,0.2,0.3-0.2,0.5c-0.2,0.2-0.3,0.2-0.5-0.2l0,0c-0.2-0.3,0-0.5,0.2-0.6
		l0.3-0.3l-0.2,0.2v0.2c0-0.2,0.2-0.3,0.3-0.3s0.3,0.2,0.3,0.3C157,152.5,157,152.5,156.7,152.7L156.7,152.7L156.7,152.7
		L156.7,152.7L156.7,152.7z"/>
	<path class="st1" d="M86.6,154.4c0.2,0.2,0.2,0.3,0,0.5s-0.3,0.2-0.5,0h0.2h-0.2l-0.8,0.2c-0.5,0.2-1.2,0.9-2.3,1.9l-2.2,2l-2.3,2
		l-3.9,3.3l-3.6,2.9l-0.6,0.6l0,0v-0.2l-0.2-0.2l0,0l1.4-0.3c0.2,0,0.3,0,0.3,0.2s0,0.3-0.2,0.3c-0.9,0.3-1.4,0.6-1.9,0.5
		c-0.2,0-0.3-0.2-0.3-0.5l0.2-0.5l0.8-0.8l3.7-2.9l3.9-3.3l2.3-2l2.2-2c1.1-0.9,1.7-1.7,2.6-2l0.9-0.2h0.3V154.4L86.6,154.4z
		 M86.6,154.9c-0.2,0.2-0.5,0-0.5-0.2c-0.2-0.2,0-0.3,0-0.5l0,0c0.2-0.2,0.3-0.2,0.5,0C86.7,154.4,86.7,154.7,86.6,154.9L86.6,154.9
		L86.6,154.9z"/>
	<path class="st1" d="M81.9,175c0.2,0.2,0,0.5-0.2,0.6c-0.2,0.2-0.5,0-0.6-0.2V175v-0.2c0-0.2,0.2-0.2,0.3-0.2l0.6-0.3
		c0.2,0,0.3,0,0.3,0.2s0,0.2,0,0.3l-0.2,0.3l0,0l0,0L81.9,175c0.2,0.2,0,0.3,0,0.5v-0.2v-0.2V175L81.9,175z M103.6,159.2
		c0,0.2,0,0.5-0.2,0.5s-0.3,0-0.5-0.2l0,0l-0.3,0.2l-2,1.4l-3.9,2.9l-9.9,7.6l-3.3,2.6l-1.4,1.1l-0.3,0.3l-0.2,0.2h-0.5
		c-0.2-0.2-0.3-0.5-0.2-0.6c0.2-0.2,0.5-0.3,0.6-0.2h-0.2h-0.2h-0.2h-0.2l0.3-0.3l1.4-1.1l3.3-2.6l9.9-7.6l3.9-2.9l2.3-1.4l0.8-0.2
		C103.5,158.9,103.6,159.1,103.6,159.2"/>
	<path class="st1" d="M92.5,155.3c0.2-0.2,0.5,0,0.5,0.2c0.2,0.2,0,0.3,0,0.5l-0.3,0.2l-0.3-0.2l-0.5-0.3l-1.1-1.1l-1.6-1.4
		c-1.1-1.2-2-2.9-3.1-4.7c-0.9-1.6-1.9-2.9-2.6-3.7c-0.6-0.6-1.4-0.9-2-1.1l-1.7-0.3l0,0h0.2v-0.2l0,0l0.3,0.3
		c0.2,0.2,0.2,0.3,0,0.3c-0.2,0.2-0.2,0.2-0.3,0l-0.6-0.6v-0.5l0.3-0.3c0.5-0.2,1.2-0.2,1.9,0c0.9,0.2,2,0.5,2.8,1.4
		c0.9,0.9,1.7,2.3,2.6,4c0.9,1.7,1.9,3.4,2.8,4.5l1.4,1.6l1.1,1.1L92.5,155.3L92.5,155.3L92.5,155.3z"/>
	<path class="st1" d="M84.9,147c-0.2,0.2-0.3,0.2-0.5,0.2c-0.2-0.2-0.2-0.3-0.2-0.5l0,0l0,0l-0.3-0.3l-1.2-1.1
		c-0.8-0.6-1.1-1.2-1.9-1.9c-1.4-0.9-4-1.1-6.5-1.1c-2,0-3.7,0-5.3-0.2l-1.6-0.3h-2.2h-0.9c0,0,0,0-0.2,0h-0.2l0,0h0.2l0.2-0.2v-0.2
		v-0.2l-0.2-0.2h0.2l0.6,0.2c0.5,0.2,1.1,0.3,1.7,0.6c0.2,0.2,0.2,0.3,0,0.3c0,0.2-0.2,0.2-0.3,0c-0.5-0.2-0.9-0.3-1.4-0.3h-0.6
		h-0.3l-0.3-0.2l0.2,0.2l-0.3-0.5l0.2-0.3l0.5-0.3c0,0,0,0,0.2,0h0.9c0.6,0,1.6,0,2.5,0.2l1.6,0.3c1.4,0.2,3.1,0.2,5.1,0.2
		c2.6,0,5.4,0,7.1,1.4c0.8,0.6,1.2,1.4,1.9,1.9l1.1,1.2l0.3,0.6C85,146.3,85,146.7,84.9,147"/>
	<path class="st1" d="M63.9,151.2c-0.2,0.2-0.3,0.2-0.5,0c-0.2-0.2-0.2-0.3,0-0.5c0,0,0.2-0.2,0.3-0.2h-0.2l0,0l0.5-0.5
		c0.2-0.2,0.3-0.2,0.3,0c0.2,0.2,0.2,0.3,0,0.3L63.9,151.2L63.9,151.2z M74.3,141.7c0.2,0.2,0.2,0.3,0,0.5c-0.2,0.2-0.3,0.2-0.5,0
		l0,0h-0.3c-0.3,0.2-0.8,0.5-1.2,0.9l-3.4,3.9c-1.1,1.2-2.5,2.3-3.4,3.1l-1.1,0.8l-0.3,0.2l0,0c-0.2,0.2-0.3,0.2-0.5,0
		s-0.2-0.2,0-0.3v-0.2l0.3-0.3l1.1-0.8c0.9-0.8,2.3-1.9,3.4-3.1c1.4-1.4,2.3-2.9,3.4-3.9c0.6-0.6,1.1-0.9,1.6-1.1l0.6-0.2
		L74.3,141.7z"/>
	<path class="st1" d="M74.8,140.8c-0.2-0.2-0.3-0.3-0.2-0.5c0-0.2,0.3-0.3,0.5-0.2l0,0h-0.2l-0.2,0.2v0.2l0,0l-0.2-0.2l-1.1-1.4
		l-1.7-2.8l-2.9-5.6c-1.1-1.7-2.3-3.1-3.3-4l-0.8-0.6l-0.3-0.2l0,0h0.2c-0.2,0-0.2,0-0.3,0l0,0h0.2h0.2l0.3-0.2l0.2-0.2v-0.2l0,0
		l0.9,1.1c0.2,0.2,0.2,0.3,0,0.3c-0.2,0.2-0.2,0.2-0.3,0l-1.2-1.1l-0.3-0.3l-0.5-0.2l0.3-0.6c0.2,0,0.2-0.2,0.3-0.2
		c0.5,0,0.6,0.2,0.9,0.3l0.9,0.8c1.1,0.9,2.3,2.3,3.4,4.3l2.9,5.7l1.6,2.8l0.9,1.6c0.2,0.2,0.3,0.3,0.2,0.6
		C75.3,140.6,74.9,140.8,74.8,140.8L74.8,140.8z"/>
	<path class="st1" d="M109.1,155.5c0.2,0.2,0,0.5-0.2,0.5s-0.3,0-0.5-0.2c-0.3-0.5-0.8-0.8-1.2-1.6l-0.8-1.4c-0.5-0.8-0.9-2-1.9-3.1
		l-1.7-2l-2.3-2l-2.9-2l-1.2-0.8c-0.5-0.5-0.8-1.1-0.8-1.6l0.5-0.8l0.9-0.3c0.2,0,0.3,0,0.3,0.2c0,0.2,0,0.3-0.2,0.3l-0.6,0.3v0.3
		c0,0.2,0.2,0.3,0.6,0.6l1.2,0.8l2.9,2.2c0.8,0.6,1.7,1.6,2.6,2.5l1.7,2.2c0.9,1.2,1.4,2.5,1.7,3.3l0.6,1.2
		C108.3,154.4,108.8,154.7,109.1,155.5"/>
	<path class="st1" d="M95.6,140.5c0-0.2,0.3-0.3,0.5-0.3c0.2,0,0.3,0.2,0.3,0.3l-0.2,0.3l-0.3,0.3h-0.5l-1.1-0.3
		c-1.2-0.2-2.9,0.3-4.7,0c-1.4-0.3-2.6-1.2-3.9-2.2c-0.8-0.6-1.7-1.1-2-1.9v-0.2c0-0.3,0-0.6,0.2-0.8l0.6-0.3c0.2,0,0.3,0,0.3,0.2
		s0,0.2-0.2,0.3l-0.2,0.2l0,0c0,0,0,0,0.2,0.2c0.2,0.3,0.9,0.9,1.9,1.6c1.2,0.9,2.3,1.9,3.4,2c1.4,0.3,3.1-0.2,4.5,0l1.2,0.3H96l0,0
		L95.6,140.5L95.6,140.5z"/>
	<path class="st1" d="M156.7,125.6c0.2,0,0.3,0.2,0.3,0.3s0,0.2-0.2,0.3l-0.2,0.2h-0.5H155c0,0-0.2,0-0.2-0.2l-0.2-0.3l0.2-0.3
		c0.2-0.2,0.3,0,0.3,0l0,0l-0.2-0.2l0,0l0,0h0.2l0.9,0.2H156.7L156.7,125.6z M156.5,126.3c-0.2,0-0.3-0.2-0.3-0.3s0.2-0.3,0.3-0.3
		h0.2l0,0c0.2,0,0.5,0.2,0.5,0.3s-0.2,0.5-0.3,0.5C156.7,126.3,156.5,126.3,156.5,126.3L156.5,126.3L156.5,126.3L156.5,126.3z"/>
	<path class="st1" d="M157.4,127c-0.2,0.2-0.5,0-0.5-0.2c-0.2-0.2,0-0.3,0-0.5l0,0v0.2v0.2v0.2l0.2,0.2l0,0h-0.3h-1.4l-1.4-0.3
		c-0.6-0.3-1.1-0.8-1.4-1.2c-0.6-0.5-1.6-0.8-2.8-0.9l-4.3-0.5c-3.7-0.5-8.1-1.6-13-2c-4.3-0.5-8.7-0.8-13-1.7
		c-4.7-0.9-10.1-2.2-15.2-3.9c-2.3-0.8-4.3-1.7-6.4-2.6l-5.1-2.6c-1.6-0.8-3.1-1.2-4.3-1.9c-1.6-0.6-2.6-1.4-3.7-1.9l-1.7-0.8
		c-1.4-0.2-3.3-0.2-4.8-0.2c-1.7,0-2.6-0.5-3.6-0.6c-0.8-0.2-1.6-0.2-2.3-0.2h-1.1h-0.2l-1.2-0.8c-0.2,0-0.2-0.2-0.2-0.3
		s0.2-0.2,0.3-0.2h1.2h0.2h1.1c0.8,0,1.6,0,2.5,0.2c0.9,0.3,1.9,0.6,3.3,0.8c1.6,0,3.4,0,5,0.5l2,0.8c1.1,0.6,2,1.2,3.6,1.9
		c1.2,0.5,2.8,1.1,4.5,1.9l5.1,2.6c1.9,0.9,3.9,1.9,6.2,2.6c5,1.7,10.4,2.9,15,3.9c4.2,0.9,8.5,1.2,12.9,1.7c2.5,0.3,4.8,0.6,7,1.1
		l6,0.9c3.1,0.3,6,0.2,7.8,1.6l1.2,1.1l1.1,0.3h1.4h0.5c0.2,0,0.3,0,0.3,0.3C157.6,126.8,157.4,127,157.4,127"/>
	<path class="st1" d="M77.1,107.1c0.2,0,0.3,0.2,0.3,0.5c0,0.2-0.2,0.3-0.5,0.3c-0.6-0.2-1.4,0.2-2.3,0.8l-1.7,0.9l-5.9,2.9
		l-2.2,0.8h-0.3c-0.2,0-0.3,0-0.3-0.2c-0.2-0.2,0-0.3,0-0.5l0.3-0.3c0.2-0.2,0.3-0.2,0.3,0c0.2,0.2,0.2,0.3,0,0.3l-0.2,0.2v-0.2
		v-0.2h-0.2l0,0h0.2l2-0.9l5.7-2.9l1.9-0.8C75.4,107.3,76.2,107,77.1,107.1"/>
	<path class="st1" d="M74,90.2c-0.2,0.3-0.5,0.3-0.8,0.2c-0.3-0.2-0.3-0.5-0.2-0.8c0.2-0.3,0.5-0.3,0.8-0.2c0.2,0,0.2,0.2,0.3,0.3
		v0.2l0.8,1.9c0,0.2,0,0.3-0.2,0.3s-0.3,0-0.3-0.2l-1.1-1.6l0,0l0,0l0,0h0.2h0.2L74,90.2z M81.8,105.9c0.2,0,0.3,0.3,0.2,0.5
		c0,0.2-0.2,0.3-0.5,0.3c-0.5,0-0.8-0.5-1.1-0.9l-1.4-2.2l-2.3-3.9c-1.6-2.6-2.8-5.6-3.4-7.6l-0.5-1.7v-0.2l0.2-0.5l0.2-0.2
		c0.2-0.2,0.3-0.2,0.5-0.2c0.2,0,0.3,0.2,0.3,0.3l0,0v0.2v0.2l0.5,1.4c0.6,2,1.9,5,3.3,7.6l2.2,3.9l1.2,2.2L81.8,105.9z"/>
	<path class="st1" d="M75.4,121.1c-0.2,0.2-0.3,0.2-0.5,0.2c-0.2-0.2-0.2-0.3-0.2-0.5c0-0.2,0.3-0.2,0.3-0.2h-0.2h-0.2l0.5-0.3
		c0.2,0,0.3,0,0.3,0.2s0,0.3,0,0.3L75.4,121.1L75.4,121.1L75.4,121.1z M90.9,110.7c0.2,0,0.3,0.3,0.2,0.5c0,0.2-0.3,0.3-0.5,0.2
		l-0.8,0.2l-1.7,0.9l-5.4,3.3l-2.9,2.2l-2,1.7l-1.6,1.2l-0.9,0.6h-0.2c-0.2,0-0.3-0.2-0.3-0.3l0,0l0.2-0.2l0.8-0.8l1.4-1.1l2-1.7
		l3.1-2.2l5.4-3.1l1.7-0.9C90.1,110.5,90.6,110.5,90.9,110.7"/>
	<path class="st1" d="M94.2,100.6c0.2,0.2,0.2,0.3-0.2,0.5c-0.2,0.2-0.3,0.2-0.5,0l-1.4-1.9c-0.6-0.8-1.9-1.9-2.9-2.8
		c-1.6-1.2-2.9-1.9-4.3-2.9c-0.9-0.8-1.9-1.7-3.3-2.6c-0.9-0.8-2.2-0.9-3.3-1.4c-0.6-0.3-1.1-0.8-1.4-1.2l-0.3-0.6
		c-0.2-0.2-0.2-0.5-0.2-0.8c0-0.2,0.2-0.2,0.2-0.3l0.6-0.2l0.5,0.2l1.2,0.6c0.2,0,0.2,0.2,0.2,0.3c0,0.2-0.2,0.2-0.3,0.2l-1.2-0.2
		l0,0l0,0l0.2-0.2v-0.2c0,0.2,0,0.3,0,0.3v-0.2l0,0l0,0l0.2,0.3c0.3,0.3,0.6,0.6,0.9,0.8c0.8,0.3,2.2,0.6,3.4,1.6
		c1.6,1.1,2.5,2,3.4,2.8c1.2,1.1,2.6,1.7,4.2,3.1c1.1,0.9,2.3,2.2,2.9,3.1L94.2,100.6z"/>
	<path class="st1" d="M84.4,75c0,0.2-0.3,0.3-0.5,0.3s-0.3-0.2-0.3-0.5l-0.2-0.5h0.2h0.2l0.2-0.2v-0.2c0,0,0,0,0,0.2v-0.2l0.2,0.2
		L84.4,75c0.8,1.4,1.1,2.9,1.4,4.8c0.6,2.9,1.7,5.7,2.5,7.8c0.6,1.4,0.9,2.9,1.4,4l0.8,1.6l1.2,1.9l0.8,1.2c1.1,1.7,2.3,2.8,3.3,4.3
		s1.1,3.6,1.6,5.7l0.8,2.3l1.1,2.2l0.5,1.2l0.2,0.6v0.2l0,0v-0.2c0.3,0.2,0.6,0.6,0.5,0.9c-0.2,0.3-0.6,0.6-0.9,0.5l-0.5-0.3
		l-0.3-0.8v-0.5l-0.5-1.1l-1.1-2.3l-0.8-2.6c-0.5-2.3-0.6-4.2-1.4-5.4c-0.8-1.4-2-2.3-3.3-4.3l-0.8-1.1l-1.2-1.9l-0.9-1.7
		c-0.6-1.4-0.8-2.9-1.4-4c-0.9-2-2-5-2.6-8.1c-0.3-1.7-0.6-3.3-1.1-4.5l-0.3-0.6c-0.2-0.2-0.3-0.5-0.2-0.8c0,0,0,0,0-0.2l0.3-0.3
		h0.3l0.5,0.3C84.3,74.2,84.6,74.5,84.4,75 M100.2,113.5c0,0.5-0.3,0.8-0.8,0.8c-0.5,0-0.8-0.3-0.8-0.8c0-0.5,0.3-0.8,0.8-0.8
		C99.9,112.7,100.2,113,100.2,113.5"/>
	<path class="st1" d="M156.5,140.3c0.2,0.2,0.2,0.3,0,0.5c-0.2,0.2-0.3,0.2-0.5,0l-0.9-0.2h-2l-4.3-0.3c-2.9-0.3-6.8-0.5-10.5-1.1
		l-4.7-0.9l-4.5-0.9l-1.6-0.5h-0.3l0,0h0.2l0.2-0.2v-0.2c0,0.2-0.2,0.3-0.2,0.3l0.2-0.2l0,0v0.5c0,0.2,0,0.3-0.2,0.3s-0.2,0-0.3-0.2
		l-0.3-0.5c-0.2-0.2-0.2-0.2-0.2-0.3l0.3-0.6l0.3-0.2l0.5,0.2l1.6,0.5l4.3,0.9l4.7,0.9c3.7,0.5,7.6,0.8,10.5,1.1l4.3,0.3l2,0.2
		C155.7,139.8,156.2,140,156.5,140.3"/>
	<path class="st1" d="M129.5,136.6c0.2,0.2,0.2,0.3,0,0.5s-0.3,0.2-0.5,0l-1.7-1.9c-1.1-1.1-2.6-2.6-4.5-3.9l-2.9-1.7l-1.9-0.8
		l-2.3-0.6c-1.2-0.3-2.3-0.3-3.4-0.3c-0.9,0-1.7,0.2-2.2,0.3l-0.3,0.3v0.2l0.3,0.3l0.8,0.5c0.2,0,0.2,0.2,0.2,0.3s-0.2,0.2-0.3,0.2
		l-0.9-0.5l-0.5-0.6c-0.2-0.3,0-0.6,0.2-0.8l0.6-0.5c0.6-0.3,1.4-0.5,2.3-0.5c1.1,0,2.2,0,3.6,0.3l2.5,0.6l2,0.8
		c1.1,0.5,2,1.2,2.9,1.9c1.9,1.4,3.6,2.9,4.5,4.2L129.5,136.6z"/>
	<path class="st1" d="M112.6,148.7c0,0.2-0.2,0.3-0.3,0.3c-0.2,0-0.3-0.2-0.3-0.3s0.2-0.3,0.3-0.3h-0.2l0.5-0.5
		c0.2-0.2,0.3-0.2,0.3,0c0.2,0.2,0.2,0.3,0,0.3L112.6,148.7L112.6,148.7z M129.5,140c0.2,0,0.3,0.2,0.3,0.3s-0.2,0.3-0.3,0.3
		c-0.3,0-0.6-0.2-0.9-0.2l-1.2-0.2c-0.5,0-1.2,0.5-2.3,0.9c-1.4,0.6-3.1,1.4-4.7,2.2c-1.9,0.9-3.4,2-4.7,3.1l-1.7,1.4l-1.1,0.8
		l-0.3,0.2h-0.2c-0.2,0-0.3-0.2-0.3-0.3l0,0l0,0l0.2-0.2l0.3-0.3l0.9-0.9l1.7-1.4c1.4-1.1,2.9-2.2,4.8-3.1c1.7-0.9,3.4-1.6,4.8-2.2
		c1.1-0.5,1.9-0.9,2.6-1.1C128.4,139.4,129.5,140,129.5,140"/>
	<path class="st1" d="M116.8,128.8c0-0.2,0.2-0.5,0.3-0.5c0.2,0,0.2,0,0.3,0l0.2,0.3v0.3l-0.2,0.5c-0.3,0.6-1.1,1.4-2,2.3l-3.1,2.9
		l-2.9,2.8l-0.6,0.8v0.2c0.2,0.2,0.2,0.3,0,0.3c-0.2,0.2-0.3,0.2-0.3,0l-0.2-0.2v-0.5l0.6-0.9l2.8-2.9l2.9-2.9l1.9-2.2L116.8,128.8
		L116.8,128.8z M117.3,129.6c0,0.2-0.3,0.3-0.5,0.3s-0.3-0.3-0.3-0.5l0.3-0.9l0.2-0.2c0.2-0.2,0.5-0.2,0.6,0s0.2,0.5,0,0.6
		s-0.3,0.2-0.3,0h0.2h0.2l0,0L117.3,129.6z"/>
	<path class="st1" d="M112.9,126.7c0.2,0,0.3,0.2,0.3,0.3c0,0.2-0.2,0.3-0.3,0.3c-1.4,0.2-2.2-0.2-3.4-0.8l-2.5-1.2l-3.6-1.7
		c-1.2-0.5-2.3-0.8-3.4-0.9l-2-0.2c0,0,0,0-0.2,0l-0.5,0L97,122c0-0.2,0.2-0.3,0.2-0.3s0,0,0.2,0h0.2l0.5-0.2c0,0,0,0,0.2,0l2.2,0.2
		c1.1,0.2,2.3,0.5,3.6,1.1l3.7,1.9l2.5,1.2C111.1,126.5,111.7,126.8,112.9,126.7"/>
	<path class="st1" d="M104.4,125.4c0,0.2,0,0.5-0.2,0.5s-0.3,0-0.5-0.2l0,0h-0.2l-1.1,0.3l-3.3,1.4c-1.4,0.6-2.8,1.2-3.9,1.6
		l-1.4,0.2l-0.5-0.2l-0.3-0.5c0-0.2,0.2-0.3,0.2-0.3c0.2,0,0.3,0,0.3,0.2l0.2,0.2h0.3l1.2-0.3l3.6-1.6l3.3-1.4l1.2-0.3h0.5
		L104.4,125.4z"/>
	<path class="st1" d="M110.5,142.3c-0.2,0.2-0.5,0.2-0.6,0c-0.2-0.2-0.2-0.5,0-0.6s0.5-0.2,0.6,0l0.2,0.2v-0.2l0,0l0.8,0.5
		c0.2,0,0.2,0.2,0.2,0.3c0,0.2-0.2,0.2-0.3,0.2l-0.9-0.3H110.5L110.5,142.3z M119,142.2c0.2,0.2,0,0.5-0.2,0.5l0,0h-0.2h-0.6
		l-2.6,0.2H112l-2-0.3c0,0-0.2,0-0.2-0.2l-0.2-0.2V142c0-0.2,0-0.3,0.2-0.5h0.2h0.2h0.2l1.7,0.3h3.3h2.6h0.6h0.2L119,142.2z
		 M118.7,142.8c-0.2,0-0.3-0.2-0.3-0.3s0.2-0.3,0.3-0.3l0,0l0,0l0,0h-0.3c0.2-0.2,0.3-0.3,0.5-0.2s0.3,0.3,0.2,0.5
		C119,142.6,118.8,142.8,118.7,142.8L118.7,142.8L118.7,142.8z"/>
	<path class="st1" d="M122.6,143.6c0.2,0.2,0.2,0.3,0,0.5c-0.2,0.2-0.3,0.2-0.5,0l-0.3-0.2l-0.5,0.2c-0.5,0.3-0.9,0.8-1.4,1.6
		c-0.9,1.2-1.6,2.9-1.4,4.8l0.2,1.9c0,0.2,0,0.3-0.2,0.3s-0.3,0-0.3-0.2l-0.6-1.9c-0.2-2,0.6-4,1.6-5.4c0.5-0.8,1.1-1.4,1.7-1.7
		l0.9-0.3C122.1,143.1,122.4,143.2,122.6,143.6"/>
	<path class="st1" d="M157.6,109.1c0.2,0.2,0.2,0.3,0.2,0.5c-0.2,0.2-0.3,0.2-0.5,0.2l-1.4-0.2l-3.6,0.3l-5,0.5l-3.9,0.2l-8.4,0.5
		l-6.7,0.5h-4.7l-3.1-0.3c-0.2,0-0.2,0-0.3,0l-0.3-0.2c0,0,0,0,0-0.2c0-0.3,0.2-0.3,0.3-0.5c0,0,0.2,0,0.3-0.2h1.2l2,0.2l4.5,0.2
		l6.5-0.3l8.4-0.5l3.9-0.2l5-0.5l3.6-0.2C156.7,108.8,157.3,109,157.6,109.1"/>
	<path class="st1" d="M123,97.2c0,0.3-0.3,0.5-0.6,0.5c-0.3,0-0.5-0.3-0.5-0.6c0-0.2,0.2-0.5,0.5-0.5h0.5l0.3,0.2L124,97
		c0.6,0.2,1.1,0.3,1.6,0.6c0.2,0,0.2,0.3,0,0.3c0,0.2-0.2,0.2-0.3,0.2l-1.6-0.5h-0.8h-0.2l0,0l0.2-0.2L123,97.2z M122.7,96.6
		c0.3,0.2,0.5,0.5,0.3,0.8s-0.5,0.5-0.8,0.3c0,0,0,0-0.2,0c-0.3-0.2-0.3-0.6,0-0.8C122.2,96.4,122.6,96.4,122.7,96.6 M138.1,109.9
		c0.2,0,0.3,0.2,0.3,0.5c0,0.2-0.2,0.3-0.3,0.3c-0.8,0-1.1-0.6-1.7-1.2l-1.9-1.1c-0.8-0.5-1.9-0.9-2.8-1.7c-1.1-0.8-2-1.9-3.1-2.9
		l-2.5-2.9c-0.8-0.9-1.6-1.6-2.3-2.2l-1.1-0.8l-0.3-0.2h-0.2h-0.2c-0.3-0.2-0.3-0.5-0.2-0.8c0.2-0.2,0.5-0.3,0.6-0.2h0.2l0.6,0.3
		l1.1,0.9c0.6,0.6,1.6,1.4,2.3,2.3l2.3,2.9c0.9,1.1,1.9,2.2,2.8,2.8c1.9,1.4,3.6,2,4.7,2.9C137.4,109.4,137.8,109.9,138.1,109.9"/>
	<path class="st1" d="M135,112.7c0.2,0,0.3,0.3,0.3,0.5c0,0.2-0.2,0.3-0.5,0.3c-0.6-0.2-1.2,0.2-2.2,0.5l-3.3,1.2l-0.9,0.3H128
		c-0.2,0-0.5-0.3-0.5-0.5c0-0.2,0-0.2,0-0.3l0.3-0.3l0.5-0.5c0.2-0.2,0.3-0.2,0.3,0s0.2,0.2,0,0.3l-0.2,0.5l0,0v-0.3
		c0.2,0,0.2,0.2,0.2,0.3l-0.2-0.3h-0.2l0,0l0.6-0.2l3.3-1.2C133.3,112.7,134.2,112.5,135,112.7"/>
	<path class="st1" d="M156.7,93c-0.2,0-0.5,0-0.5-0.2s0-0.5,0.2-0.5l0,0l0.3-0.2l0,0l0,0v0.2l0.2,0.3h-0.3l-0.8-0.2l-2.6-0.5
		l-3.6-0.5l-4-0.9l-4.2-1.1c-0.9-0.3-1.6-0.8-2-0.9c-0.6-0.3-1.2-0.6-2.2-0.8c-1.4-0.3-3.1-0.5-5-0.5l-3.3-0.3l-5.1-0.6
		c-2.2-0.3-4.5-0.9-6.5-1.4l-4.3-1.2c-2-0.5-4-0.5-5.6-0.6h-1.9H105c-0.2,0-0.5,0-0.8-0.3l0,0c-0.3-0.3-0.3-0.8-0.2-0.9l0.2-0.5
		l0.6-0.6c0.5-0.3,0.8-0.5,1.1-0.5l0.6,0.2l0.3,0.5c0.2,0.3,0,0.8-0.3,0.9c-0.3,0.3-0.6,0.2-0.8,0.2h-0.3h-0.2l0,0H105l-0.3-0.3
		l-0.2-0.6c0-0.2,0-0.3,0.2-0.3c0.2,0,0.2,0,0.3,0.2l0.2,0.3l0,0H105l0,0l0.3-0.2h0.2h0.5l0,0h-0.2l-0.2,0.2v0.2v0.2v0.2l0.2,0.2
		h0.2h0.2l-0.5,0.3l-0.3,0.3l0,0l0,0v-0.2v-0.2c0,0.2-0.3-0.3-0.2-0.3l0,0l0,0l0.6,0.2l1.9,0.2c1.6,0.2,3.6,0.2,5.7,0.6l4.3,1.2
		c2,0.5,4.3,0.9,6.4,1.2l4.7,0.6l3.1,0.3c1.9,0,3.7,0,5.3,0.5c1.1,0.3,1.9,0.6,2.6,0.9l1.9,1.1l4.2,1.2l3.9,1.1l3.6-0.2l2.6,0.5
		l0.9,0.3l0.3,0.2l0.2,0.5v-0.3v0.3l-0.2,0.2L156.7,93z"/>
	<path class="st1" d="M92.9,65.7c-0.2,0.2-0.5,0-0.6-0.2c-0.2-0.2,0-0.5,0.2-0.6c0.2-0.2,0.5,0,0.6,0.2c0,0.2,0,0.2,0,0.3v-0.2v-0.2
		l0,0l0,0l1.1,0.9c0.2,0.2,0.2,0.3,0,0.3c-0.2,0.2-0.2,0.2-0.3,0l-1.2-0.8l0,0l0,0l0,0L92.9,65.7L92.9,65.7z M104.6,80.7
		c0.2,0.2,0.2,0.3,0.2,0.5c-0.2,0.2-0.3,0.2-0.5,0.2c-0.8-0.5-1.6-1.1-2.6-2.5l-2.5-3.4c-1.7-2.6-3.6-5.9-5.1-7.9l-1.7-1.9
		c0,0,0,0-0.2-0.2L92,65.4v-0.3c0-0.2,0.2-0.3,0.3-0.5h0.3l0.2,0.2c0,0,0,0,0.2,0.2l1.7,2c1.6,2.2,3.3,5.4,5,8.1l2.3,3.4
		C103.2,79.8,103.9,80.4,104.6,80.7"/>
	<path class="st1" d="M102.9,82.1c0,0.2-0.2,0.3-0.5,0.3c-0.2,0-0.3-0.2-0.3-0.3l-0.2-0.3l-0.5-0.5c-0.5-0.3-1.2-0.8-2.2-1.1
		c-1.9-0.5-4.5-0.5-6.5-0.2l-1.6,0.3l-0.3,0.3l-0.2,0.2c0,0.2-0.2,0.3-0.2,0.3c-0.2,0-0.2,0-0.3-0.2v-0.6l0.5-0.5
		c0.5-0.3,1.1-0.5,1.9-0.6c2.2-0.3,5-0.3,7,0.3c1.1,0.3,1.9,0.8,2.5,1.2l0.6,0.8C102.7,81.7,102.9,82,102.9,82.1"/>
	<path class="st1" d="M121,87.6c0.2,0.2,0.2,0.3,0,0.5s-0.3,0.2-0.5,0c-0.5-0.5-0.8-0.6-1.9-0.5l-2.3,0.9c-2.3,1.1-5.4,2.5-8.1,3.9
		l-3.1,2l-0.9,0.8l-0.2,0.5c0,0.2,0,0.3-0.2,0.3s-0.3,0-0.3-0.2c-0.2-0.3,0-0.6,0.3-0.9l0.9-0.9l3.3-2c2.6-1.4,5.7-2.9,7.9-4
		c0.9-0.5,1.7-0.9,2.5-1.1C119.8,86.5,120.5,87,121,87.6"/>
	<path class="st1" d="M158.4,71.3c0.2-0.2,0.5,0,0.5,0.2v0.2l-0.2,0.3l-0.3,0.2l-0.9,0.3l-1.7,0.3l-4.2,0.6l-5.7,0.6l-6.7,0.2
		l-5,0.2h-8.5c-2.8,0-5.6-0.3-7.9-0.5l-3.7-0.3l-2.6-0.3h-1.6h-0.3l0,0h0.2l0.2-0.2l0.2-0.3v-0.2v-0.2l0,0c0.5,0.3,1.7,0.8,2.8,0.6
		c0.2,0,0.3,0.2,0.3,0.3c0,0.2-0.2,0.3-0.2,0.3c-1.4,0.2-2.6-0.3-3.1-0.3h-0.2l-0.2-0.2l-0.2-0.6c0.2-0.3,0.3-0.3,0.5-0.3h0.3h1.7
		l2.6,0.3l3.7,0.5c2.3,0.2,5,0.5,7.8,0.5h8.5l5-0.2L146,73l5.7-0.6l4.2-0.6l1.6-0.3l0.9-0.3L158.4,71.3z M158.5,71.9
		c-0.2,0-0.3-0.2-0.3-0.5c0-0.2,0.2-0.3,0.3-0.3l0,0c0.2,0,0.5,0.2,0.5,0.3c0,0.2-0.2,0.5-0.3,0.5s-0.3,0-0.3-0.2L158.5,71.9
		L158.5,71.9L158.5,71.9z"/>
	<path class="st1" d="M113.1,53c0-0.2,0.2-0.3,0.5-0.3c0.2,0,0.3,0.2,0.3,0.5c0,0,0,0.2-0.2,0.2v-0.2l0,0l0.2,1.1
		c0,0.2,0,0.3-0.2,0.3c-0.2,0-0.3,0-0.3-0.2l-0.3-0.9V53z M119.3,72.7c0,0.2-0.3,0.3-0.5,0.3s-0.3-0.2-0.3-0.5
		c0.2-0.8,0-1.2-0.6-2.5l-1.6-3.9l-0.9-3.6l-0.8-4.2l-1.2-4l-0.3-0.9l-0.2,0l0,0h0.2c-0.3-0.2-0.3-0.5-0.2-0.8
		c0.2-0.3,0.5-0.3,0.8-0.2l0,0c0.3,0.3,0.3,0.3,0.3,0.6l0.3,0.9l1.2,4.2l0.9,4.2l0.9,3.4l1.4,3.9C119.5,71,119.6,71.8,119.3,72.7
		 M114,53c0,0.3-0.3,0.6-0.6,0.6s-0.6-0.3-0.6-0.6c0-0.3,0.3-0.6,0.6-0.6S114,52.7,114,53"/>
	<path class="st1" d="M117.4,67.6c0,0.2-0.2,0.3-0.5,0.3c-0.2,0-0.3-0.2-0.3-0.5c0.2-0.8,0.2-1.4,0-1.7s-0.3-0.5-0.9-0.8l-2.5-1.1
		l-5-2.3l-0.9-0.5H107l0,0l0,0h0.2l0.2-0.2v-0.2l0,0l0.8,0.6c0.2,0,0.2,0.2,0.2,0.3c0,0.2-0.2,0.2-0.3,0.2l-1.1-0.6l-0.3-0.3
		c-0.2-0.2-0.2-0.3,0-0.6l0.5-0.2h0.5l1.1,0.3l5.3,2.5l2.5,1.2c0.6,0.3,1.1,0.8,1.2,1.4C117.6,66.2,117.6,66.8,117.4,67.6"/>
	<path class="st1" d="M128.3,50c-0.2,0.2-0.5,0.3-0.6,0.2c-0.2-0.2-0.3-0.5-0.2-0.6c0.2-0.2,0.3-0.3,0.6-0.2l0,0h0.2
		c0.6,0.2,1.6,0.8,2,1.4c0.2,0.2,0,0.3,0,0.3c-0.2,0-0.3,0-0.3,0c-0.5-0.5-1.4-0.9-1.9-0.9h0.2V50L128.3,50z M157.9,51.7
		c0.2,0,0.3,0.2,0.5,0.3c0,0.2-0.2,0.3-0.3,0.3c-0.6,0.2-1.4,0-2.5-0.2l-1.7-0.3l-2.2-0.2l-4.5-0.6c-5-0.5-10.1-0.5-14.3-0.5H130
		l-1.9-0.2l-0.5-0.2l-0.2-0.2c0,0-0.3-0.2-0.2-0.6c0.2-0.2,0.3-0.3,0.5-0.3h0.2h0.2l1.9,0.2l2.8,0.2c4.2,0,9.3,0,14.3,0.5l4.5,0.6
		l2.2,0.3l1.7,0.3L157.9,51.7z"/>
	<path class="st1" d="M134,50.4c0,0.2-0.3,0.3-0.5,0.3c-0.2,0-0.3-0.2-0.3-0.5c0.2-0.9,0.3-2,0.5-3.7V44l-0.2-2.6l0.2-0.6
		c0-0.2,0.2-0.3,0.6-0.3l0.3,0.2v0.2L135,42c0,0.2,0,0.3-0.2,0.3s-0.3,0-0.3-0.2l-0.3-0.8l-0.2-0.2l0,0h0.2h0.2h0.2l0.2-0.2v-0.2
		l0,0v0.3V44v2.6C134.5,48.2,134.3,49.4,134,50.4"/>
	<path class="st1" d="M134,50.2c0.2,0,0.3,0.2,0.3,0.3c0,0.2-0.2,0.3-0.3,0.3c-0.5,0-1.6,0.3-2.9,0.8l-4.8,1.7l-4,1.7l-0.9,0.5v-0.2
		v-0.2l0,0l0,0h0.2c0.2,0,0.3,0,0.3,0.2s0,0.3-0.2,0.3h-0.5l-0.5-0.3l0.2-0.2l0.9-0.6l4-1.7l4.8-1.9C132.3,50.7,133.4,50.2,134,50.2
		"/>
	<path class="st1" d="M143.6,52.7c-0.2,0-0.3-0.2-0.5-0.3c0-0.2,0-0.3,0.3-0.5h0.3c0.2,0,0.3,0.5,0.3,0.5l-0.3,0.5l-1.4,1.2
		l-4.5,3.7c-1.2,1.1-2.5,2-3.3,2.9l-0.8,1.1l-0.2,0.3v0.2c0.2,0.2,0.2,0.3,0,0.3c-0.2,0.2-0.2,0.2-0.3,0l-0.3-0.5v-0.6l0.8-1.2
		c0.8-0.9,1.9-2,3.1-3.1l4.5-3.6l1.4-1.1l0.2-0.2l0,0l0,0v0.2l0.2,0.2H143.6L143.6,52.7z"/>
	<path class="st1" d="M156.4,61.5c0.2,0,0.3,0.2,0.3,0.3c0,0.2-0.2,0.3-0.3,0.3l-1.6,0.3l-1.4,0.3l-5.1,0.8l-3.6,0.5
		c-0.9,0.2-1.7,0.2-2.3-0.2c0,0-0.2,0-0.2-0.2l0.2-0.6l0.2-0.3c0-0.2,0.2-0.2,0.3,0l0.2,0.2l0,0l0,0h0.2c0.5,0.2,2.6,0,5.3-0.3
		l5-0.8l1.4-0.2L156.4,61.5z"/>
	<path class="st1" d="M157.9,234.1c0.2-0.2,0.5,0,0.5,0.2c0.2,0.2,0,0.3,0,0.5l-0.2,0.2l-0.2,0.2h-0.5c-0.3-0.2-0.3-0.5-0.3-0.6V234
		c0,0,0-0.2,0.2-0.2c0.3-0.3,0.6-0.5,0.9-0.5l0.5,0.2l0.2,0.2l0.2,0.3v0.6c-0.2,0.9-1.1,1.6-2,2c-0.3,0.2-0.6,0.3-1.1,0.2
		c-0.3,0-0.6-0.3-0.8-0.5l-0.2-0.8c0.2-0.8,0.6-1.4,1.1-1.9l1.6-1.2l0.8-0.5c0.3,0,0.6,0,0.9,0.2l0.5,0.5c0.3,0.5,0.2,0.9,0.2,1.4
		c-0.2,0.6-0.5,1.1-0.8,1.6c-0.5,0.6-1.2,0.9-1.9,0.9c-0.2,0-0.3,0.2-0.9,0c-0.5-0.2-0.6-0.5-0.8-0.6l-0.2-0.6
		c0-0.5,0.2-0.9,0.3-1.1l0.8-0.8c0.6-0.5,1.2-0.8,1.9-0.9c0.5-0.2,0.8-0.2,1.2,0c0.3,0.2,0.8,0.5,0.9,0.8c0.5,0.8,0.3,1.6,0.2,2.3
		c-0.2,0.8-0.6,1.6-1.2,2c-0.6,0.6-1.6,0.9-2.3,0.6c-0.8-0.3-1.2-1.1-1.4-1.7c-0.2-0.8-0.2-1.6,0.3-2.2c0.5-0.8,1.1-1.2,1.9-1.4
		c0.8-0.2,1.4-0.3,2.2-0.2c0.6,0.2,1.2,0.3,1.6,0.9c0.3,0.3,0.3,0.9,0.2,1.2l-0.6,1.1c-0.6,0.8-1.4,1.4-2.3,1.7
		c-0.8,0.3-1.7,0.3-2.5,0.2c-0.8-0.2-1.4-0.5-1.9-1.1c-0.2-0.5-0.3-0.9-0.2-1.2s0.3-0.6,0.6-0.9c0.8-0.8,2-1.1,3.1-1.1h1.4
		c0.6,0.2,1.2,0.3,1.6,0.9c0.2,0.3,0.3,0.6,0.2,0.9l-0.3,0.9c-0.3,0.5-0.8,0.9-1.4,1.2c-0.6,0.3-1.4,0.5-2.2,0.3
		c-0.5-0.2-0.8-0.5-0.9-0.8l-0.2-1.1c0,0,0,0,0-0.2c0.2-0.6,0.6-1.2,1.1-1.6s1.1-0.6,1.6-0.6c0.6,0,1.1,0.2,1.4,0.6
		c0.3,0.5,0.3,1.1,0,2c0,0.2-0.2,0.2-0.3,0.2s-0.2-0.2-0.2-0.3c0.2-0.8,0-1.2-0.2-1.4c-0.2-0.2-0.3-0.2-0.6-0.2l-0.9,0.6l-0.3,0.6
		c0,0,0,0,0,0.2v0.3c0.2,0.2,0.6,0,1.1-0.2l0.9-0.6l0.2-0.3l0,0l-0.6-0.2h-1.1c-0.9,0.2-1.9,0.6-2.2,0.9l-0.2,0.2
		c0,0.2,0.3,0.3,0.8,0.5s1.1,0.2,1.6-0.2c0.6-0.2,1.4-0.6,1.7-1.1l0.5-0.6v-0.2l-0.6-0.2l-1.4,0.2c-0.5,0.2-0.8,0.3-0.8,0.6
		c-0.2,0.3-0.2,0.8-0.2,1.2l0.3,0.5c0.2,0,0.6,0,0.9-0.3s0.6-0.8,0.8-1.4c0.2-0.6,0.2-1.1,0-1.2l-0.2-0.2h-0.3l-1.2,0.8l-0.5,0.5
		v0.2l0,0v0.3l0,0l0,0l-0.2-0.2l0,0h0.5c0.3,0,0.6-0.2,0.9-0.3l0.6-1.1v-0.3l0,0l0,0h0.2l-0.3,0.3c-0.8,0.6-1.9,1.7-2,2v0.2l0,0
		L157,236h0.3c0.6-0.3,1.2-0.9,1.4-1.2v-0.2l0,0l0,0h0.2h0.2h0.2H159l0,0l-0.2,0.2l0,0l0,0v-0.2v-0.3L157.9,234.1L157.9,234.1
		L157.9,234.1L157.9,234.1z"/>
	<path class="st1" d="M156.7,39.5c0,0.2,0,0.3-0.3,0.5c-0.2,0-0.3,0-0.5-0.2c-0.2-0.3-0.3-0.8-0.2-1.2l0.6-1.1l1.1-1.1l0.8-0.3h0.5
		l0.5,0.3c0.3,0.5,0.2,0.8,0.2,1.2l-0.3,0.5l-0.3,0.2l-0.9,0.2c-0.5,0-0.8-0.2-1.1-0.3c-0.3-0.3-0.5-0.9-0.3-1.2l0.5-0.8
		c0.3-0.5,0.9-0.8,1.4-0.9l1.1-0.2c0.2,0,0.5-0.2,1.1,0.2c0.5,0.3,0.5,0.8,0.6,1.1V37c0,0.9-0.6,1.9-1.6,2.2c-0.6,0.3-1.6,0.2-2-0.2
		c-0.6-0.3-1.1-0.9-1.2-1.7c0,0,0,0,0-0.2c-0.2-0.9,0.3-1.9,1.1-2.3c0.6-0.5,1.1-0.5,1.7-0.6c0.5,0,1.1,0.2,1.6,0.6
		c0.3,0.3,0.3,0.8,0.3,1.1l-0.2,0.9c-0.2,0.8-0.8,1.2-1.4,1.6c-0.6,0.3-1.2,0.5-1.9,0.6c-0.3,0-0.8,0.3-1.6,0.2c0,0,0,0-0.2,0
		c-0.5-0.3-0.8-0.6-0.8-1.1l-0.2-1.2c0.2-1.1,0.9-1.7,1.7-2.2c0.8-0.5,1.6-0.8,2.5-0.8h1.1c0.3,0,0.8,0.3,1.1,0.6
		c0.3,0.3,0.3,0.9,0.3,1.4c-0.2,0.8-0.6,1.1-0.9,1.4c-0.8,0.6-1.6,0.9-2.3,1.1c-0.3,0-0.8,0.2-1.2,0c-0.8-0.2-1.4-0.6-1.7-1.4
		c-0.3-0.9,0-1.7,0.5-2.3c0.6-0.8,1.6-1.1,2.5-1.2c0.9-0.2,1.9-0.2,2.5,0c0.5,0.2,1.1,0.3,1.2,0.8c0.2,0.2,0.3,0.6,0.2,1.1
		c-0.2,0.8-0.8,1.1-1.2,1.4l-1.7,0.6c-0.6,0.2-1.2,0.3-1.9,0.2l-0.3-0.2c-0.2-0.2-0.3-0.3-0.5-0.5c-0.2-0.3,0-0.6,0-0.8l0.3-0.5
		c0.2-0.2,0.5-0.3,0.6-0.3l0,0h0.3c0.2,0,0.3,0,0.3,0.2c0,0,0,0,0,0.2v0.2l0,0l0,0c0.2,0.3,0,0.5-0.2,0.8l-0.2,0.2v-0.2v-0.3
		l-0.2-0.3h-0.2h0.2l0.9-0.2l1.4-0.5l0.5-0.3l0.2-0.2v-0.2l0,0l-0.3-0.2c-0.5,0-1.2,0-1.9,0.2c-0.6,0.2-1.2,0.5-1.4,0.8l-0.2,0.5
		v0.2l0.3,0.3h0.6c0.6,0,1.1-0.2,1.4-0.5l0.6-0.6v-0.2l0,0h-0.2H159c-0.5,0-1.1,0.3-1.6,0.6c-0.5,0.3-0.6,0.6-0.6,0.8V37v-0.2
		l-0.2-0.2c0,0,0,0,0.2,0h-0.2h0.6l1.2-0.3l0.6-0.5v-0.5v-0.2l0,0H159l-0.8,0.3c-0.3,0.3-0.3,0.6-0.3,0.8c0,0,0,0,0,0.2l0.3,0.6
		c0.2,0.2,0.3,0.2,0.6,0.2c0.3-0.2,0.6-0.5,0.6-0.9v-0.5v-0.2l0,0l0.2,0.2l0,0h-0.5h-0.5l-0.8,1.4l-0.2,0.2l0,0v-0.2l-0.2-0.2
		l0.2,0.2h0.5h0.2l0,0l-0.2,0.2v-0.2l0,0l0,0l0.2,0.2h0.2l0,0l-0.2,0.2l-0.9,0.6l-0.6,0.6L156.7,39.5z"/>
	<path class="st1" d="M157.4,247.1c0.2,0,0.3,0.3,0.3,0.5s-0.3,0.3-0.5,0.3c-0.5,0-0.9,0.2-1.2,0.8c-0.5,0.6-0.8,1.2-1.1,2
		c-0.3,0.8-0.3,1.4-0.2,1.7c0.2,0.3,0.6,0.6,1.4,0.9c0.8,0.3,1.9,0.3,2.6,0.3c1.2-0.2,2.3-1.1,3.1-2.6c0.5-0.8,0.6-1.6,0.8-2.2v-0.5
		v-0.5l0,0v0.2l0,0c0,0-0.5-0.3-1.1-0.3c-0.8,0-1.6,0-2.3,0.2l-1.4,0.3c-0.2,0.2-0.3,0-0.5-0.2c0,0,0-0.2,0-0.3
		c0.2-0.5,0.6-0.9,1.2-1.4c0.9-0.3,1.9-0.6,2.8-0.6l1.6,0.2c0.5,0.2,1.1,0.5,1.2,1.1c0.2,0.8,0,1.1,0,1.1l-0.2,0.9
		c-0.2,0.8-0.5,1.7-1.1,2.6c-1.1,1.7-2.6,3.1-4.3,3.1c-1.1,0-2.2-0.2-3.1-0.5c-0.9-0.3-1.9-0.9-2-1.7c-0.2-0.8,0-1.6,0.3-2.3
		c0.3-0.9,0.8-1.7,1.4-2.3C155.9,247.5,156.7,247,157.4,247.1"/>
	<path class="st1" d="M161,17.3c0.2,0,0.5,0,0.5,0.3v0.5c0,0.2,0,0.3-0.2,0.3l-1.9,2.6c-0.9,1.1-1.9,2.2-3.1,3.1
		c-1.9,1.4-3.7,2.5-5.4,2.3c-0.9-0.2-1.6-0.8-1.9-1.6c-0.3-0.8-0.2-1.7,0.2-2.6c0.5-1.2,1.4-2,2.2-2.9l1.2-1.1
		c0.3-0.3,0.6-0.8,1.2-0.9c0.3,0,0.6,0.2,0.8,0.3c0.3,0.5,0.3,0.9,0.3,1.6l0.3,1.2c0.3,1.4,2.3,2.9,4.3,3.3c2,0.3,3.9-0.6,4.5-2
		c0.3-0.8,0.3-1.4,0-2.2l-0.6-1.4l-0.9-0.8c-0.3-0.2-0.6-0.2-1.2,0.5l-0.8,1.4c0,0,0,0.2-0.2,0.2l-0.5,0.6c-0.2,0.2-0.3,0.2-0.5,0
		l-0.2-0.2V19v-0.2l0.8-1.9c0.6-1.1,1.9-1.7,2.8-1.4c0.8,0.3,1.4,0.8,1.9,1.2l1.1,1.9c0.5,1.2,0.3,2.5-0.2,3.6
		c-1.1,2.3-3.7,3.4-6.4,2.9c-2.5-0.5-5-2.2-5.3-4.5c0-0.3-0.3-0.9-0.3-1.6v-0.6v-0.2l0.2,0.2h0.2h0.2l0,0l-0.8,0.6l-1.1,1.1
		c-0.8,0.8-1.6,1.6-1.9,2.5c-0.3,0.8-0.2,1.4,0,1.7s0.3,0.6,0.6,0.6c1.1,0,2.8-0.6,4.5-2c1.1-0.9,2.2-1.9,2.9-2.9l1.9-2.5
		c0-0.2,0.2-0.2,0.3-0.2L161,17.3z"/>
	<path class="st13" d="M156.5,38.6c0-0.6,0.5-1.1,1.1-1.1s1.1,0.5,1.1,1.1v195.9c0,0.6-0.5,1.1-1.1,1.1c-0.6,0-1.1-0.5-1.1-1.1V38.6
		z"/>
	<path class="st1" d="M244.9,69c0.3,0,0.6,0.3,0.5,0.6c0,0.3-0.3,0.6-0.6,0.5c-0.3,0-0.6-0.3-0.5-0.6C244.2,69.1,244.4,69,244.9,69
		h-0.3l0,0l0,0C244.7,68.8,244.9,68.8,244.9,69h0.2H244.9L244.9,69L244.9,69z M245,69c0.5,0.2,0.9,0.6,0.8,1.1
		c-0.2,0.5-0.6,0.9-1.1,0.8s-0.9-0.6-0.8-1.1c0-0.5,0.3-0.8,0.8-0.8h-0.2l-0.2,0.2h-0.2l0,0c0.3-0.3,0.8-0.5,1.2-0.2l0.2,0.2
		l-0.2-0.2h-0.2h-0.2H245z M241.8,66.8c-0.3,0.3-0.8,0.3-1.1,0.2s-0.3-0.6-0.2-0.9c0.3-0.5,0.6-0.8,1.1-1.2l1.7-1.4l1.7-1.6l0.3-0.5
		c0-0.2,0.2-0.2,0.3-0.3c0.2,0,0.3-0.2,0.6-0.2s0.8,0.3,0.9,0.5c0.2,0.3,0.2,0.5,0.2,0.6l-0.2,0.8l-0.6,4.5l-0.3,1.7l-0.2,0.9v0.3
		l-0.2,0.3l-0.3,0.5c-0.2,0.2-0.5,0.3-0.8,0.3c-0.5,0-0.8-0.2-0.9-0.5c-0.5-0.5-0.5-1.4,0-1.9c0.5-0.5,1.1-0.5,1.7-0.2
		c0.2,0.2-0.8-0.2-0.5-0.2c0.2,0-0.8,0.2-0.6,0c0.2,0-0.5,0.3-0.5,0.2c0.2,0-0.3,0.3-0.2,0.2l-0.2,0.2l-0.2,0.2v0.2l0,0l0.2-1.1
		l0.5-1.7l0.9-4.5v-0.3V62v0.2v0.2l0.2,0.2l0.2,0.2l0.2,0.2c-0.2,0,0.6,0.2,0.5,0.2h0.3c-0.2,0,0.3-0.2,0.3-0.2l0.2-0.2
		c-0.2,0-0.2,0.2-0.3,0.2l0,0l0,0l-0.3,0.2l-1.7,1.4L241.8,66.8z"/>
	<path class="st1" d="M86.4,210.5h0.2h0.3c0.3,0.2,0.5,0.3,0.6,0.6l0.2,0.8c0.3,1.7,0.3,4.3,0.5,6.8v2.6v2.2l0.2,1.2v0.3v-0.2
		l-0.2-0.2l-0.3-0.2h-0.3h-0.2c0.2,0-0.3,0.2-0.3,0.2l-0.2,0.2l-0.2,0.2l0,0l0,0v-0.2c-0.2-0.3-1.1-0.9-1.7-1.1l-0.8-0.2l-1.1,0.9
		l-0.6,0.8l-0.3,0.5l-0.2,0.3v0.2v0.2v0.2l0,0c0.2,0.5,0,1.1-0.5,1.2s-0.9,0-1.1-0.3l-0.2-0.5l-0.2-0.3v-0.5l0.2-0.8l0.3-0.6
		l0.5-0.6l0.6-0.8c0.6-0.6,1.1-1.6,2.3-1.7c0.8-0.2,1.4,0,1.9,0.2c0.8,0.2,1.7,0.6,2.3,1.2c0.6,0.6,1.2,1.4,1.1,2.5l-0.3,0.9
		l-0.3,0.5l-0.6,0.3c-0.3,0-0.8-0.2-1.1-0.5c-0.3-0.5-0.3-0.6-0.5-0.9l-0.2-1.7V222v-2.6c0-2.5,0.2-5.1,0-6.7l-0.2-0.8
		c0-0.3,0-0.6,0.3-0.8L86.4,210.5z M87.1,211.1c0,0.2-0.2,0.5-0.3,0.5c-0.2,0-0.5-0.2-0.5-0.3l0,0V211l0.2-0.2c0,0,0.2-0.2,0.5-0.2
		l0.3,0.3c0,0.2,0,0.3-0.3,0.5h0.2V211.1V211l0,0V211.1z"/>
	<path class="st1" d="M158.5,234.9c0.2,0.2,0,0.5-0.2,0.6c-0.2,0-0.3,0-0.5-0.2c-0.2-0.2-0.3-0.6-0.2-0.9c0.2-0.3,0.5-0.5,0.8-0.6
		h0.2c0.5,0,0.6,0.2,0.9,0.3h-0.2c0.3,0.2,0.5,0.5,0.5,0.8l-0.2,0.8c-0.3,0.3-0.6,0.5-0.8,0.6l-0.8,0.3l-0.9,0.2
		c-0.3,0-0.5,0-0.8-0.3l-0.2-0.2c-0.3-0.5-0.2-0.8,0-0.9l0.3-0.5c0.5-0.3,0.8-0.3,1.1-0.2c0.5,0.2,0.6,0.5,0.8,0.6l0.2,0.6
		c0,0.5-0.3,0.8-0.5,1.1l-0.9,0.5c-0.5,0.2-1.1,0-1.6-0.5c0,0,0-0.2-0.2-0.2c-0.3-0.6-0.2-1.1,0-1.4c0.3-0.6,0.6-0.9,0.9-1.1
		l0.8-0.5c0.6-0.2,1.4-0.2,1.7,0.5v-0.2c0.3,0.3,0.5,0.8,0.3,1.2c-0.2,0.9-0.9,1.4-1.6,1.7c-0.3,0.2-0.8,0.3-1.1,0.2
		c-0.6,0-1.1-0.5-1.4-0.9c-0.2-0.3-0.3-0.8-0.3-1.1c0.2-0.6,0.6-0.9,0.9-1.1l0.9-0.3l0.8-0.3c0.5-0.2,0.9-0.3,1.6,0
		c0.3,0.2,0.5,0.5,0.5,0.8v0.5c0,0.9-0.8,1.4-1.6,1.7c-0.2,0.2-0.5,0.3-0.9,0.2c-0.6-0.2-0.8-0.5-0.8-0.8l-0.2-0.6
		c0-0.6,0.5-1.1,0.8-1.2l1.1-0.5l0.9-0.2h0.6c0.3,0.2,0.6,0.3,0.6,0.6v0.6c-0.2,0.3-0.3,0.5-0.5,0.6l-0.5,0.3l-1.1,0.5l-0.9,0.2
		c-0.3,0-0.8-0.2-1.1-0.6c0,0,0,0,0-0.2c-0.2-0.5,0-0.9,0.2-1.2l0.2-0.2c0.6-0.3,1.4-0.2,2,0.5c0.2,0.2,0.2,0.3,0,0.5
		c-0.2,0.2-0.2,0.2-0.3,0h-0.6h-0.2l0,0c0,0.2,0,0.2-0.2,0.2l0,0V235l-0.2-0.3c0,0,0,0,0,0.2l0,0l0,0h0.3l0.6-0.3l0.5-0.3h0.2l0,0
		v0.2v0.3v0.2c0-0.2,0.3,0.3,0.2,0.2c-0.2,0,0.5,0.2,0.3,0.2l0,0h-0.3l-0.8,0.2l-0.6,0.3l-0.2,0.2v-0.2v0.3l0,0l-0.2-0.2l-0.2-0.2
		l0,0h0.2c0.3-0.2,0.8-0.6,0.8-0.6v-0.2l0,0v0.2l0.2,0.2l0,0l-0.5,0.2l-0.9,0.3l-0.8,0.3h-0.2l0,0v-0.2v0.2l0.2,0.2h0.3l0.8-0.6
		v-0.2l0.2,0.2l0,0h-0.3l-0.3,0.2l-0.3,0.5v0.2v-0.2v0.2l-0.2-0.2h-0.2l0.3-0.2h0.2l0,0v0.2l0,0l0,0h0.2h0.2h-0.2l0,0l0.2-0.2v-0.2
		l0,0v-0.2v-0.2l-0.2-0.2l0.2,0.2l-0.2-0.2l0,0l0,0h0.6l0.3-0.2l0.3-0.2l0,0v0.2l0.2,0.2h0.2h-0.2
		C158.5,234.9,158.5,234.9,158.5,234.9L158.5,234.9z"/>
	<path class="st1" d="M158.5,36.9c0.2,0.2,0.3,0.5,0.2,0.6c-0.2,0.2-0.5,0.3-0.6,0.2s-0.3-0.5-0.2-0.6c0.2-0.2,0.3-0.3,0.5-0.2h-0.2
		l0,0l0,0C158.4,36.7,158.5,36.7,158.5,36.9c0.2,0,0.2,0,0.2,0.2l0,0L158.5,36.9L158.5,36.9L158.5,36.9z M158.7,38.1
		c0,0.2-0.2,0.5-0.3,0.5s-0.3,0-0.5-0.2c-0.3-0.5,0-1.1,0.3-1.6l0.6-0.5l0.6-0.3c0.5-0.2,0.8,0.2,0.9,0.3c0.2,0.3,0.2,0.5,0,0.8
		c-0.3,0.6-0.8,0.8-1.1,0.9l-1.4,0.6l-0.9,0.2h-0.6c-0.3,0-0.6-0.3-0.8-0.6c-0.2-0.3-0.2-0.8-0.2-1.2c0.2-0.8,0.6-1.2,1.1-1.6
		l1.6-0.8l1.6-0.3h0.8c0.5,0.2,0.6,0.5,0.8,0.8l0.2,0.9c-0.2,0.9-0.9,1.2-1.2,1.6c-0.8,0.6-1.7,1.2-2.8,0.8
		c-0.8-0.3-1.1-0.9-1.2-1.7c0-0.5,0-1.1,0.5-1.6c0.8-0.6,1.4-0.6,2-0.8h1.1c0.2,0,0.5,0,0.9,0.2c0.5,0.3,0.6,0.6,0.6,0.9v0.9
		c0,0.6-0.5,1.2-0.8,1.7c-0.5,0.5-0.9,0.8-1.4,0.9l-1.1,0.2h-0.8c-0.8-0.2-1.2-0.8-1.4-1.4c-0.2-0.8,0.2-1.2,0.5-1.6l1.1-0.8
		l1.1-0.3h0.8c0.5,0.2,0.8,0.6,0.6,1.2c-0.2,0.5-0.3,0.5-0.5,0.6l0.2,0.3l-0.8,0.6V38.1c-0.2-0.2-0.5,0-0.6-0.2
		c-0.3-0.2-0.3-0.6-0.2-0.9c0.2-0.2,0.2-0.2,0.3-0.2h-0.2l0.8-0.6l0.3-0.2l0,0l0,0v0.2v0.2l0.2,0.2l0.2,0.2h-0.2l-0.6,0.2l-0.6,0.5
		l-0.2,0.2v-0.2l0.2,0.3h0.3l0.5-0.2c0.6-0.3,1.2-0.9,1.2-1.2v-0.5l0,0l0.2,0.2l0,0h-0.5h-0.6l-0.6,0.2l-0.2,0.2l-0.3,0.5l0.2,0.5
		h0.3l0.8-0.5l0.5-0.5l0.2-0.2l0,0l0,0l0.2,0.2h-0.3l-1.2,0.3l-1.2,0.6l-0.5,0.5v0.5l-0.2-0.2h0.2l0.6-0.2l0.9-0.5l0.5-0.3l0.2-0.2
		V37v0.2v0.2l0.2,0.2l0.3,0.2h0.3l-0.5,0.2l-0.3,0.2L158.7,38.1z"/>
	<line class="st16" x1="96.3" y1="212.3" x2="157.8" y2="174.6"/>
	<path class="st1" d="M144.2,181.4c0,0.2,0.1,0.3,0.3,0.5c0.2,0,0.3-0.1,0.5-0.3c0-0.3,0.1-0.6-0.2-0.8l-0.7-0.4l-2.1-0.4
		c-1.7-0.2-3.4,0-5,0.1l-3.6,0.4c0,0-0.2,0-0.2,0.1l-0.2,0.1c-0.2,0.1-0.2,0.3,0,0.3l0,0l0.3,0.2l0.2,0l3.6-0.4
		c1.6-0.1,3.1-0.3,4.8-0.1l2,0.4L144.2,181.4L144.2,181.4z"/>
	<path class="st1" d="M138.9,181c-0.2,0-0.5,0-0.5,0.1c0,0.2,0,0.3,0.1,0.5l-0.1-0.2l0-0.2l0,0l-0.3,0.3l-1.3,1l-1.4,1.4l-1.1,1.6
		c-0.2,0.1,0,0.3,0,0.3c0.1,0.2,0.2,0,0.3,0l1.4-1.4l1.4-1.4l1.2-1l0.4-0.4l0.2-0.3L138.9,181z"/>
	<path class="st1" d="M97.7,212.7c-0.2,0.3-0.6,0.5-0.9,0.2c-0.3-0.2-0.5-0.6-0.2-0.9l0.3-0.3c0.5-0.3,0.8-0.2,1.1-0.2l0.5,0.2
		c0.2,0.2,0.3,0.3,0.3,0.6V212c0.2,0.5-0.2,0.6-0.3,0.8c-0.3,0.5-0.8,0.6-1.1,0.8l-0.6,0.3c-0.2,0-0.5,0.2-0.9,0
		c-0.3-0.2-0.5-0.5-0.6-0.6c-0.2-0.5,0-0.8,0-1.1c0.3-0.6,0.6-0.8,1.1-0.9l0.9-0.3l0.8-0.2c0.3,0,0.8,0,1.1,0.3
		c0.3,0.3,0.3,0.8,0.3,1.1l-0.2,0.8c-0.3,0.9-1.2,1.4-1.9,1.7l-1.1,0.3c-0.5,0.2-1.1,0.3-1.9-0.2l-0.2-0.2c-0.5-0.5-0.5-1.1-0.3-1.6
		l0.5-1.1l0.9-1.1c0.6-0.5,1.2-0.6,1.9-0.6c0.2,0,0.5-0.2,0.9,0c0.5,0.2,0.9,0.5,1.1,0.9c0.5,1.1,0,2.3-0.8,3.1
		c-0.5,0.5-1.1,0.9-1.7,1.2c-0.6,0.3-1.4,0.5-2,0.3c-0.8-0.2-1.2-0.8-1.4-1.4c-0.2-0.6-0.2-1.1-0.2-1.7c0.3-1.1,0.9-1.9,1.7-2.2
		c0.8-0.5,1.6-0.6,2.5-0.6c0.5,0,0.9,0,1.6,0.3c0.5,0.2,0.8,0.6,0.8,1.1c0.3,1.2-0.2,2.8-1.4,3.7c-1.1,0.9-2.6,1.4-4.2,0.8
		c-1.2-0.6-1.6-1.9-1.6-2.8c0-0.8,0.3-1.4,0.8-2c0.5-0.6,1.1-0.9,1.7-0.9h1.7c0.5,0,0.9,0,1.6,0.3c0.3,0.2,0.6,0.5,0.8,0.8
		c0.2,0.5,0.2,0.9,0,1.4l-0.6,1.1l-0.9,0.9l-0.8,0.5l-1.2,0.3h-1.4c-0.2,0-0.2,0-0.3-0.2l-0.3-0.2c-0.2-0.2-0.2-0.3-0.2-0.5l0,0
		l0.3-0.3c0,0,0.2-0.2,0.3-0.2l1.1-0.3l0.9-0.3l0.5-0.3l0.5-0.5l0.5-0.6l0.2-0.3v0.2l0,0l-0.9-0.2l-1.1,0.2l-0.5,0.3l-0.2,0.9
		c0,0.6,0.2,0.8,0.2,0.8c0.5,0.2,1.4,0.2,2-0.3c0.3-0.3,0.6-0.8,0.8-1.2V212l0,0l0,0h-0.5c-0.5,0-0.9,0.2-1.4,0.5
		c-0.5,0.3-0.6,0.6-0.6,0.9v0.6l0,0l0,0h-0.2c0.2,0,1.4-0.2,1.9-0.8l0.5-0.9V212l0.2,0.2l0.3,0.2h-0.2h-0.5l-0.6,0.2l-0.5,0.6
		l-0.2,0.6v-0.2l-0.2-0.2l0.2,0.2l-0.2-0.2h-0.2h0.5l0.8-0.2c0.6-0.2,0.9-0.5,0.9-0.6v-0.3l0,0l0,0l0.2,0.2l0.2,0.2l0,0l-0.3,0.2
		l-0.6,0.3l-0.2,0.2l0,0v-0.2v0.3l0,0v-0.2c0,0-0.3-0.3-0.2-0.2h-0.2h-0.2l0.3-0.2l0.8-0.3l0.2-0.2l0,0v0.2v0.2v0.2
		c0-0.2,0.2,0.3,0.2,0.3l0.2,0.2L97.7,212.7L97.7,212.7L97.7,212.7z M97.5,212.2c0.2,0,0.5,0.2,0.5,0.5c0,0.2-0.2,0.5-0.5,0.5
		c-0.3,0-0.8,0-0.9-0.5c0-0.2,0-0.5,0.3-0.5c0.2,0,0.5,0,0.5,0.3l-0.2-0.2l0,0L97.5,212.2z M97.8,212.3c0,0.5-0.3,0.8-0.8,0.8
		c-0.5,0-0.8-0.3-0.8-0.8c0-0.5,0.3-0.8,0.8-0.8C97.5,211.6,97.8,211.9,97.8,212.3"/>
	<line class="st16" x1="158" y1="99.6" x2="229.2" y2="69.1"/>
	<path class="st1" d="M229,69.3c-0.2,0.3-0.5,0.5-0.9,0.3c-0.3-0.2-0.5-0.5-0.3-0.9l0,0c0.3-0.6,0.8-0.6,1.1-0.6
		c0.5,0,1.1,0.2,1.1,0.9c0,0.3-0.2,0.5-0.3,0.6c-0.5,0.3-0.9,0.6-1.2,0.6l0.2-0.2c-0.2,0.2-0.5,0.2-0.8,0.2s-0.6-0.3-0.6-0.5
		c0,0-0.2-0.2-0.2-0.3c-0.2-0.8,0-1.6,0.6-2.3c0.5-0.6,1.1-0.9,1.9-1.1h1.2c0.5,0.2,0.9,0.5,1.1,0.9c0.5,1.1,0,2.3-0.8,3.3l-0.9,0.8
		l-1.1,0.3c-0.5,0-0.9,0-1.4-0.5c-0.6-0.6-0.6-1.4-0.5-1.9c0.2-0.6,0.3-1.1,0.6-1.6c0.5-0.6,1.1-0.9,1.6-1.1
		c0.6-0.2,1.1-0.2,1.7-0.2c0.2,0,0.6,0,1.2,0.5c0.5,0.5,0.6,1.1,0.6,1.6c0,0.8-0.5,1.6-1.1,2c-0.5,0.5-1.2,0.9-1.9,1.1
		c-1.6,0.3-2.9-1.1-2.9-2.6c0-0.9,0.3-1.7,0.6-2.3c0.6-0.9,1.6-1.2,2.5-1.6c0.9-0.2,1.7-0.3,2.5-0.2c0.6,0,1.2,0.2,1.7,0.6
		c0.5,0.5,0.8,1.1,0.8,1.7c0,1.1-0.5,2-1.2,2.8c-0.6,0.8-1.6,1.6-2.5,1.9l-1.1,0.3c-0.5,0-0.9,0-1.6-0.2c-0.6-0.3-0.8-0.8-0.9-1.2
		l-0.3-1.4c0-0.8,0-1.6,0.3-2.3c0.3-0.6,0.9-0.9,1.4-1.2l1.4-0.3h1.6c0,0,0.5,0,0.9,0.3c0.8,0.5,0.9,1.1,1.1,1.6
		c0.3,1.1-0.2,2-0.8,2.8c-0.6,0.8-1.4,1.4-2.2,1.7c-0.5,0.3-1.1,0.5-1.7,0.3c-0.2,0-0.6,0-1.1-0.3c-0.8-0.6-0.9-1.4-1.1-2v-1.1
		l0.2-0.5c0-0.2,0.2-0.2,0.2-0.3l0.6-0.5l0.5-0.2h0.2h1.6h0.6h0.2l0.8,0.2c0.2,0,0.3,0.2,0.2,0.3c0,0.2-0.2,0.2-0.2,0.2l-0.8,0.3
		h-0.2l-0.8,0.2l-0.8,0.2l-0.2,0.2c0,0,0,0-0.2,0.2h0.2l0.2-0.2c0,0.2,0.2-0.5,0.2-0.3V68c0,0.2,0,0.3,0,0.3l0,0v0.2V69l0.2,0.6
		l0.2,0.2l0,0l0,0l0,0h0.2l0.5-0.2c0.5-0.2,1.1-0.6,1.4-1.1c0.3-0.5,0.5-0.8,0.5-0.9l-0.2-0.5V67h0.2h-0.3h-1.1l-0.8,0.2l-0.2,0.2
		l-0.5,1.9l0.2,0.8l0.2,0.2h-0.2l0,0l0.8-0.2c0.9-0.3,2.3-2,2.3-2.6v-0.2l-0.6-0.2l-1.9,0.2c-0.6,0.2-0.9,0.5-1.1,0.6l-0.3,0.9
		c0,0.6,0.3,0.8,0.5,0.8l0.9-0.5l0.5-0.6v-0.2l0,0l0.2,0.2h-0.3c-0.6,0-1.2,0.2-1.4,0.5l-0.3,0.6v0.3v-0.2l0,0h0.5l0.5-0.3
		c0.2-0.3,0.5-0.8,0.5-1.2v-0.3l0.2,0.2H230l-0.8,0.5c-0.3,0.3-0.3,0.8-0.3,0.8c0,0.2,0,0.2,0,0.3l0,0v-0.2c0,0-0.3-0.3-0.2-0.3
		c0.2,0-0.3-0.2-0.3-0.2h-0.2l0.6-0.2l0.2-0.2l0,0v0.2v0.2l0.2,0.3L229,69.3L229,69.3l-0.2,0.2l0,0L229,69.3L229,69.3z M229,69.1
		c0,0.3-0.3,0.6-0.6,0.6s-0.6-0.3-0.6-0.6c0-0.3,0.3-0.6,0.6-0.6C228.9,68.3,229,68.7,229,69.1"/>
	<line class="st17" x1="157.4" y1="99.2" x2="157.8" y2="174.6"/>
	<rect x="135.3" y="84.6" class="st18" width="19.4" height="11.8"/>
	<circle cx="157.6" cy="99.4" r="3.7"/>
	<circle cx="157.8" cy="175.1" r="3.7"/>
	<text transform="matrix(1 0 0 1 139.6141 93.7547)" class="st2 st19">$b$</text>
	<text transform="matrix(1 0 0 1 168.1277 173.0066)" class="st2 st19">$a$</text>
</g>
<g>
	<text transform="matrix(1.151 0 0 1 6.9533 122.7748)" class="st15 st2 st11">$\sk(\sP)$</text>
</g>
</svg>
