<?xml version="1.0" encoding="utf-8"?>
<!-- Generator: Adobe Illustrator 23.0.3, SVG Export Plug-In . SVG Version: 6.00 Build 0)  -->
<svg version="1.1"
	 id="svg8" inkscape:version="0.92.4 (unknown)" sodipodi:docname="figure.svg" xmlns:cc="http://creativecommons.org/ns#" xmlns:dc="http://purl.org/dc/elements/1.1/" xmlns:inkscape="http://www.inkscape.org/namespaces/inkscape" xmlns:rdf="http://www.w3.org/1999/02/22-rdf-syntax-ns#" xmlns:sodipodi="http://sodipodi.sourceforge.net/DTD/sodipodi-0.dtd" xmlns:svg="http://www.w3.org/2000/svg"
	 xmlns="http://www.w3.org/2000/svg" xmlns:xlink="http://www.w3.org/1999/xlink" x="0px" y="0px" viewBox="0 0 680.3 178"
	 style="enable-background:new 0 0 680.3 178;" xml:space="preserve">
<style type="text/css">
	.st0{fill:#030304;}
	.st1{font-family:'ArialMT';}
	.st2{font-size:11.104px;}
	.st3{fill:none;stroke:#7B7878;stroke-width:2;stroke-linecap:round;stroke-linejoin:round;stroke-miterlimit:10;}
	.st4{fill:none;stroke:#030304;stroke-miterlimit:10;}
	.st5{font-family:'MyriadPro-Regular';}
</style>
<sodipodi:namedview  bordercolor="#666666" borderopacity="1.0" id="base" inkscape:current-layer="layer1" inkscape:cx="284.27627" inkscape:cy="182.72055" inkscape:document-units="mm" inkscape:guide-bbox="true" inkscape:pageopacity="0.0" inkscape:pageshadow="2" inkscape:window-height="995" inkscape:window-maximized="1" inkscape:window-width="2520" inkscape:window-x="20" inkscape:window-y="65" inkscape:zoom="0.99437388" pagecolor="#ffffff" showborder="true" showgrid="false" showguides="true" width="200mm">
	<inkscape:grid  dotted="false" empspacing="4" id="grid815" spacingx="10" spacingy="10" type="xygrid" units="mm">
		</inkscape:grid>
</sodipodi:namedview>
<g id="layer1" transform="translate(0,-177)" inkscape:groupmode="layer" inkscape:label="Layer 1">
</g>
<g>
	<text transform="matrix(1.0807 0 0 1 206.605 41.4283)" class="st0 st1 st2">$\sC_\eta$</text>
	<text transform="matrix(1.0807 0 0 1 267.6636 41.4283)" class="st0 st1 st2">$\sC_s$</text>
	<rect x="193.1" y="22.6" class="st3" width="125.8" height="119.6"/>
	<path class="st4" d="M233.3,51.5c-13.5,10.8-15.8,19.5-15.6,25.4c0.6,15.7,20.3,23.1,18.6,38.3c-1,8.3-7.9,14.8-13.2,18.8"/>
	<line class="st4" x1="264.4" y1="90.3" x2="309.2" y2="90.3"/>
	<line class="st4" x1="276" y1="131" x2="298.4" y2="49.5"/>
	<line class="st4" x1="298" y1="131" x2="275.6" y2="49.5"/>
</g>
<g>
	<text transform="matrix(1.0807 0 0 1 537.7402 41.4283)" class="st0 st1 st2">$\sC_\eta$</text>
	<text transform="matrix(1.0807 0 0 1 598.7988 41.4283)" class="st0 st1 st2">$\sC_s$</text>
	<rect x="524.3" y="22.6" class="st3" width="125.8" height="119.6"/>
	<path class="st4" d="M564.5,51.5C551,62.3,548.7,71,548.9,76.9c0.6,15.7,20.3,23.1,18.6,38.3c-1,8.3-7.9,14.8-13.2,18.8"/>
	<line class="st4" x1="598.8" y1="59.2" x2="632" y2="90.3"/>
	<line class="st4" x1="626.2" y1="67.6" x2="626.2" y2="117.1"/>
	<line class="st4" x1="632.6" y1="105.8" x2="593.9" y2="126"/>
</g>
<g>
	<text transform="matrix(1.0807 0 0 1 372.1725 41.4283)" class="st0 st1 st2">$\sC_\eta$</text>
	<text transform="matrix(1.0807 0 0 1 433.2316 41.4283)" class="st0 st1 st2">$\sC_s$</text>
	<rect x="358.7" y="22.6" class="st3" width="125.8" height="119.6"/>
	<path class="st4" d="M398.9,51.5c-13.5,10.8-15.8,19.5-15.6,25.4c0.6,15.7,20.3,23.1,18.6,38.3c-1,8.3-7.9,14.8-13.2,18.8"/>
	<path class="st4" d="M441.9,59.2c3.2,4.9,10.1,16.9,10,33.5c-0.1,16.2-6.8,28-10,32.9"/>
	<path class="st4" d="M461.9,59.5c-3.2,4.9-10.1,16.9-10,33.5c0.1,16.2,6.8,28,10,32.9"/>
</g>
<text transform="matrix(1.0807 0 0 1 387.3707 167.2291)" class="st5 st2">not snc</text>
<text transform="matrix(1.0807 0 0 1 224.144 167.2291)" class="st5 st2">not snc</text>
<g>
	<text transform="matrix(1.0807 0 0 1 41.0374 41.4283)" class="st0 st1 st2">$\sC_\eta$</text>
	<text transform="matrix(1.0807 0 0 1 102.096 41.4283)" class="st0 st1 st2">$\sC_s$</text>
	<rect x="27.6" y="22.6" class="st3" width="125.8" height="119.6"/>
	<path class="st4" d="M67.8,51.5C54.3,62.3,52,71,52.2,76.9c0.6,15.7,20.3,23.1,18.6,38.3c-1,8.3-7.9,14.8-13.2,18.8"/>
	<path class="st4" d="M131.2,135.1c-0.8-3.2-1.6-6.4-2.5-9.5c-0.9-3.3-1.8-6.5-2.7-9.7c-0.9-3-1.8-6.1-2.7-9c-1-3-1.9-6-3-8.9
		c-1.1-2.9-2.2-5.8-3.3-8.5c-1.1-2.6-2.3-5.1-3.5-7.4c-1.2-2.2-2.5-4.2-3.9-5.6c-1.4-1.4-2.9-2.4-4.4-2c-1.5,0.4-2.9,2.1-3.9,5.1
		c-1,2.9-1.5,6.6-1.7,10.3c-0.2,3.8,0,7.6,0.6,11.2c0.6,3.6,1.6,6.6,2.9,8.3c1.3,1.7,2.9,1.8,4.3,1.1c1.5-0.8,2.9-2.4,4.2-4.3
		c1.3-1.9,2.4-4.2,3.6-6.6c1.2-2.6,2.4-5.4,3.5-8.2c1.1-2.8,2.1-5.7,3.1-8.6c1-2.9,1.9-5.8,2.8-8.8c0.9-3.1,1.8-6.2,2.7-9.3
		c0.9-3.2,1.8-6.5,2.6-9.7c0.4-1.5,0.8-3.1,1.2-4.6"/>
</g>
<text transform="matrix(1.0807 0 0 1 63.886 167.2291)" class="st5 st2">not snc</text>
<text transform="matrix(1.0807 0 0 1 567.5889 167.2291)" class="st5 st2">snc</text>
</svg>
