<?xml version="1.0" encoding="utf-8"?>
<!-- Generator: Adobe Illustrator 23.0.3, SVG Export Plug-In . SVG Version: 6.00 Build 0)  -->
<svg version="1.1"
	 id="svg8" inkscape:version="0.92.4 (unknown)" sodipodi:docname="figure.svg" xmlns:cc="http://creativecommons.org/ns#" xmlns:dc="http://purl.org/dc/elements/1.1/" xmlns:inkscape="http://www.inkscape.org/namespaces/inkscape" xmlns:rdf="http://www.w3.org/1999/02/22-rdf-syntax-ns#" xmlns:sodipodi="http://sodipodi.sourceforge.net/DTD/sodipodi-0.dtd" xmlns:svg="http://www.w3.org/2000/svg"
	 xmlns="http://www.w3.org/2000/svg" xmlns:xlink="http://www.w3.org/1999/xlink" x="0px" y="0px" viewBox="0 0 680.3 236.4"
	 style="enable-background:new 0 0 680.3 236.4;" xml:space="preserve">
<style type="text/css">
	.st0{fill:#020203;}
	.st1{font-family:'ArialMT';}
	.st2{font-size:12px;}
	.st3{fill:none;stroke:#7B7878;stroke-width:2;stroke-linecap:round;stroke-linejoin:round;stroke-miterlimit:10;}
	.st4{fill:none;stroke:#020203;stroke-miterlimit:10;}
	.st5{fill:none;stroke:#F08300;stroke-width:2;stroke-miterlimit:10;}
	.st6{font-family:'MyriadPro-Regular';}
	.st7{fill:#F08300;}
	.st8{fill:none;stroke:#000000;stroke-miterlimit:10;}
	.st9{fill:none;stroke:#000000;stroke-miterlimit:10;stroke-dasharray:4.6097,4.6097;}
	.st10{fill:none;stroke:#000000;stroke-miterlimit:10;stroke-dasharray:4.1439,4.1439;}
	.st11{fill:none;stroke:#F08300;stroke-miterlimit:10;}
	.st12{fill:none;stroke:#F08300;stroke-miterlimit:10;stroke-dasharray:4.2163,4.2163;}
	.st13{fill:#2A99D6;}
	.st14{fill:none;stroke:#2A99D6;stroke-miterlimit:10;}
	.st15{fill:none;stroke:#2A99D6;stroke-miterlimit:10;stroke-dasharray:3.7576,3.7576;}
</style>
<sodipodi:namedview  bordercolor="#666666" borderopacity="1.0" id="base" inkscape:current-layer="layer1" inkscape:cx="284.27627" inkscape:cy="182.72055" inkscape:document-units="mm" inkscape:guide-bbox="true" inkscape:pageopacity="0.0" inkscape:pageshadow="2" inkscape:window-height="995" inkscape:window-maximized="1" inkscape:window-width="2520" inkscape:window-x="20" inkscape:window-y="65" inkscape:zoom="0.99437388" pagecolor="#ffffff" showborder="true" showgrid="false" showguides="true" width="200mm">
	<inkscape:grid  dotted="false" empspacing="4" id="grid815" spacingx="10" spacingy="10" type="xygrid" units="mm">
		</inkscape:grid>
</sodipodi:namedview>
<g id="layer1" transform="translate(0,-177)" inkscape:groupmode="layer" inkscape:label="Layer 1">
</g>
<text transform="matrix(1 0 0 1 284.9594 21.3405)" class="st0 st1 st2">$\sC$</text>
<text transform="matrix(1 0 0 1 220.913 200.5552)" class="st0 st1 st2">$\spec R$</text>
<circle class="st0" cx="310.4" cy="196.6" r="2.7"/>
<text transform="matrix(1 0 0 1 299.555 45.5327)" class="st0 st1 st2">$\sC_\eta$</text>
<text transform="matrix(1 0 0 1 360.614 45.5325)" class="st0 st1 st2">$\sC_s$</text>
<circle class="st0" cx="377.9" cy="196.6" r="2.7"/>
<text transform="matrix(1 0 0 1 302.3781 212.8778)" class="st0 st1 st2">$\eta$</text>
<text transform="matrix(1 0 0 1 369.1898 212.8772)" class="st0 st1 st2">$\mathfrak m$</text>
<rect x="286.1" y="25.2" class="st3" width="125.8" height="129.3"/>
<rect x="286.1" y="187.1" class="st3" width="125.8" height="35.1"/>
<path class="st4" d="M326.3,56.4c-13.5,11.7-15.8,21.1-15.6,27.5c0.6,17,20.3,25,18.6,41.4c-1,9-7.9,16-13.2,20.3"/>
<g>
	<g>
		<line class="st4" x1="343.6" y1="160.9" x2="343.6" y2="174.6"/>
		<g>
			<path class="st0" d="M343.6,180.7c-1.1-2.8-2.9-6.4-4.8-8.5l4.8,1.7l4.8-1.7C346.5,174.3,344.7,177.8,343.6,180.7z"/>
		</g>
	</g>
</g>
<line class="st4" x1="375.2" y1="58.6" x2="392.8" y2="100.9"/>
<line class="st5" x1="392.7" y1="69.6" x2="375.2" y2="133.1"/>
<line class="st4" x1="375.2" y1="104.9" x2="391.9" y2="139.3"/>
<text transform="matrix(1 0 0 1 87.4055 89.8068)" class="st6 st2">generic fiber $\sC_\eta = \sC_K$</text>
<text transform="matrix(1 0 0 1 440.5264 75.7787)" class="st6 st2">special fiber $\sC_s = \sC_k$</text>
<text transform="matrix(1 0 0 1 440.5266 106.4502)" class="st7 st6 st2">irreducible component of $\sC_s$</text>
<g>
	<g>
		<line class="st8" x1="403.3" y1="72" x2="405.3" y2="72"/>
		<line class="st9" x1="409.9" y1="72" x2="426" y2="72"/>
		<line class="st8" x1="428.3" y1="72" x2="430.3" y2="72"/>
	</g>
</g>
<g>
	<g>
		<line class="st8" x1="261.1" y1="86.8" x2="263.1" y2="86.8"/>
		<line class="st10" x1="267.2" y1="86.8" x2="298.3" y2="86.8"/>
		<line class="st8" x1="300.4" y1="86.8" x2="302.4" y2="86.8"/>
	</g>
</g>
<g>
	<g>
		<line class="st11" x1="388.4" y1="104.8" x2="390.4" y2="104.8"/>
		<line class="st12" x1="394.6" y1="104.8" x2="426.2" y2="104.8"/>
		<line class="st11" x1="428.3" y1="104.8" x2="430.3" y2="104.8"/>
	</g>
</g>
<circle class="st13" cx="380.2" cy="115.1" r="3.8"/>
<g>
	<g>
		<line class="st14" x1="388.4" y1="116.7" x2="390.2" y2="117.5"/>
		<line class="st15" x1="393.7" y1="118.9" x2="426.8" y2="132.5"/>
		<line class="st14" x1="428.5" y1="133.2" x2="430.3" y2="133.9"/>
	</g>
</g>
<text transform="matrix(1 0 0 1 438.8291 138.243)" class="st13 st6 st2">intersection point</text>
</svg>
