<?xml version="1.0" encoding="utf-8"?>
<!-- Generator: Adobe Illustrator 23.0.3, SVG Export Plug-In . SVG Version: 6.00 Build 0)  -->
<svg version="1.1"
	 id="svg8" inkscape:version="0.92.4 (unknown)" sodipodi:docname="figure.svg" xmlns:cc="http://creativecommons.org/ns#" xmlns:dc="http://purl.org/dc/elements/1.1/" xmlns:inkscape="http://www.inkscape.org/namespaces/inkscape" xmlns:rdf="http://www.w3.org/1999/02/22-rdf-syntax-ns#" xmlns:sodipodi="http://sodipodi.sourceforge.net/DTD/sodipodi-0.dtd" xmlns:svg="http://www.w3.org/2000/svg"
	 xmlns="http://www.w3.org/2000/svg" xmlns:xlink="http://www.w3.org/1999/xlink" x="0px" y="0px" viewBox="0 0 680.3 228.6"
	 style="enable-background:new 0 0 680.3 228.6;" xml:space="preserve">
<style type="text/css">
	.st0{fill:#62B44F;}
	.st1{fill:#F18C00;}
	.st2{font-family:'MyriadPro-Regular';}
	.st3{font-size:17.9062px;}
	.st4{fill:#020203;}
	.st5{font-family:'ArialMT';}
	.st6{font-size:14.8947px;}
	.st7{fill:none;stroke:#62B44F;stroke-width:2;stroke-miterlimit:10;}
	.st8{fill:#007BC4;}
	.st9{fill:none;stroke:#62B44F;stroke-width:2;stroke-miterlimit:10;stroke-dasharray:3.6496,3.6496;}
	.st10{fill:none;stroke:#62B44F;stroke-width:2;stroke-miterlimit:10;stroke-dasharray:4;}
	.st11{fill:none;stroke:#000000;stroke-miterlimit:10;}
	.st12{font-size:13.9335px;}
	.st13{font-size:12px;}
	.st14{fill:none;stroke:#000000;stroke-width:0.5;stroke-miterlimit:10;}
	.st15{fill:none;stroke:#62B44F;stroke-width:3;stroke-miterlimit:10;}
</style>
<sodipodi:namedview  bordercolor="#666666" borderopacity="1.0" id="base" inkscape:current-layer="layer1" inkscape:cx="284.27627" inkscape:cy="182.72055" inkscape:document-units="mm" inkscape:guide-bbox="true" inkscape:pageopacity="0.0" inkscape:pageshadow="2" inkscape:window-height="995" inkscape:window-maximized="1" inkscape:window-width="2520" inkscape:window-x="20" inkscape:window-y="65" inkscape:zoom="0.99437388" pagecolor="#ffffff" showborder="true" showgrid="false" showguides="true" width="200mm">
	<inkscape:grid  dotted="false" empspacing="4" id="grid815" spacingx="10" spacingy="10" type="xygrid" units="mm">
		</inkscape:grid>
</sodipodi:namedview>
<g id="layer1" transform="translate(0,-177)" inkscape:groupmode="layer" inkscape:label="Layer 1">
</g>
<g>
	<circle class="st0" cx="175.3" cy="107.1" r="3"/>
	<text transform="matrix(1 0 0 1 172.3233 93.1)" class="st1 st2 st3">1</text>
</g>
<text transform="matrix(0.2689 0 0 1 169.7625 35.5617)" class="st4 st5 st6">$\mathrm I_0$</text>
<text transform="matrix(0.2689 0 0 1 231.8971 35.562)" class="st4 st5 st6">$\mathrm I_1$</text>
<text transform="matrix(0.2689 0 0 1 316.8871 35.562)" class="st4 st5 st6">$\mathrm I_n$</text>
<g>
	<path class="st7" d="M234.9,60.3c-2.4,1.8-18.5,14.6-19.6,37.1c-1.2,25.3,17.8,40.5,19.6,41.9"/>
	<path class="st7" d="M234.9,60.3c2.4,1.8,18.5,14.6,19.6,37.1c1.2,25.3-17.8,40.5-19.6,41.9"/>
	<circle cx="234.9" cy="60.3" r="3"/>
	<text transform="matrix(1 0 0 1 215.2496 159.2529)" class="st8 st2 st3">$2$</text>
	<ellipse transform="matrix(0.1602 -0.9871 0.9871 0.1602 59.8582 348.7595)" cx="234.9" cy="139.2" rx="3" ry="3"/>
</g>
<g>
	<line class="st7" x1="308.5" y1="68.1" x2="345.3" y2="68.1"/>
	<line class="st7" x1="290" y1="100" x2="308.5" y2="68.1"/>
	<line class="st7" x1="308.5" y1="132.3" x2="290" y2="100.4"/>
	<line class="st7" x1="346.1" y1="132.1" x2="309.3" y2="132.1"/>
	<g>
		<g>
			<line class="st7" x1="364.6" y1="100.2" x2="363.6" y2="102"/>
			<line class="st9" x1="361.7" y1="105.1" x2="348.1" y2="128.8"/>
			<line class="st7" x1="347.1" y1="130.4" x2="346.1" y2="132.1"/>
		</g>
	</g>
	<line class="st7" x1="346.1" y1="67.9" x2="364.6" y2="99.8"/>
	<circle cx="308.5" cy="68.1" r="3"/>
	<circle cx="290" cy="100" r="3"/>
	<circle cx="308.5" cy="132.3" r="3"/>
	<circle cx="346.1" cy="132.1" r="3"/>
	<circle cx="364.6" cy="100.2" r="3"/>
	<circle cx="346.1" cy="67.9" r="3"/>
</g>
<g>
	<line class="st7" x1="628.3" y1="102" x2="597.5" y2="102"/>
	<line class="st7" x1="527.3" y1="101.8" x2="558.1" y2="101.8"/>
	<line class="st10" x1="597.5" y1="102" x2="558.1" y2="101.8"/>
	<line class="st11" x1="512.1" y1="117" x2="527.1" y2="102.1"/>
	<circle cx="512.1" cy="117" r="2.3"/>
	<line class="st11" x1="512.1" y1="86.9" x2="527.1" y2="101.9"/>
	<circle cx="512.1" cy="86.9" r="2.3"/>
	<line class="st11" x1="643.3" y1="117" x2="628.3" y2="102"/>
	<circle cx="643.3" cy="117" r="2.3"/>
	<line class="st11" x1="643.3" y1="86.9" x2="628.3" y2="101.8"/>
	<circle cx="643.3" cy="86.8" r="2.3"/>
	<circle cx="628.4" cy="101.8" r="2.3"/>
	<text transform="matrix(1 0 0 1 622.1072 87.7094)" class="st8 st2 st12">$2$</text>
	<circle cx="527.3" cy="101.8" r="2.3"/>
	<circle cx="597.5" cy="102" r="2.3"/>
	<text transform="matrix(1 0 0 1 592.1443 87.7866)" class="st8 st2 st12">$2$</text>
	<text transform="matrix(1 0 0 1 547.5046 87.7094)" class="st8 st2 st12">$2$</text>
	<text transform="matrix(1 0 0 1 524.0212 87.7089)" class="st8 st2 st12">$2$</text>
	<circle cx="558.1" cy="101.8" r="2.3"/>
</g>
<g>
	<line class="st11" x1="401.1" y1="117" x2="431.1" y2="102"/>
	<circle cx="401.1" cy="117" r="2.3"/>
	<line class="st11" x1="401.1" y1="86.9" x2="431.1" y2="101.9"/>
	<circle cx="401.1" cy="86.9" r="2.3"/>
	<line class="st11" x1="460.8" y1="117" x2="430.8" y2="102"/>
	<circle cx="460.8" cy="117" r="2.3"/>
	<line class="st11" x1="460.8" y1="86.9" x2="430.8" y2="101.9"/>
	<circle cx="460.8" cy="86.9" r="2.3"/>
	<circle class="st0" cx="431" cy="101.8" r="2.3"/>
	<text transform="matrix(1 0 0 1 424.6968 87.7475)" class="st8 st2 st12">$2$</text>
</g>
<text transform="matrix(1 0 0 1 42.1025 37.3982)" class="st2 st13">Type</text>
<text transform="matrix(0.2689 0 0 1 421.9756 35.5617)" class="st4 st5 st6">$\mathrm I_0^*$</text>
<text transform="matrix(0.2689 0 0 1 558.0566 35.5618)" class="st4 st5 st6">$\mathrm I_n^*$</text>
<line class="st14" x1="202.7" y1="16.8" x2="202.7" y2="203.2"/>
<line class="st14" x1="271.4" y1="8.8" x2="271.4" y2="203.2"/>
<line class="st14" x1="378.7" y1="8.8" x2="378.7" y2="203.2"/>
<line class="st14" x1="488.6" y1="8.8" x2="488.6" y2="203.2"/>
<line class="st14" x1="669.9" y1="8.8" x2="669.9" y2="203.2"/>
<line class="st14" x1="202.7" y1="8.8" x2="202.7" y2="203.2"/>
<line class="st14" x1="151.1" y1="8.8" x2="151.1" y2="203.2"/>
<line class="st14" x1="30.8" y1="45.2" x2="669.9" y2="45.2"/>
<line class="st14" x1="30.8" y1="167.1" x2="669.9" y2="167.1"/>
<text transform="matrix(1 0 0 1 42.1025 109.9686)" class="st2 st13">Dual graph</text>
<text transform="matrix(1 0 0 1 41.5566 190.837)" class="st2 st13">Length</text>
<line class="st15" x1="103.5" y1="186.8" x2="144.9" y2="186.8"/>
<text transform="matrix(1 0 0 1 169.7625 188.8365)" class="st2 st13">$0$</text>
<text transform="matrix(1 0 0 1 226.9461 188.8365)" class="st2 st13">$1$</text>
<text transform="matrix(1 0 0 1 315.7625 188.8367)" class="st2 st13">$n$</text>
<text transform="matrix(1 0 0 1 425.022 188.836)" class="st2 st13">$0$</text>
<text transform="matrix(1 0 0 1 565.041 188.8366)" class="st2 st13">$n / 2$</text>
<line class="st14" x1="30.8" y1="8.8" x2="30.8" y2="203.2"/>
<line class="st14" x1="31" y1="203.2" x2="670.1" y2="203.2"/>
<line class="st14" x1="30.8" y1="8.8" x2="669.9" y2="8.8"/>
</svg>
