<?xml version="1.0" encoding="utf-8"?>
<!-- Generator: Adobe Illustrator 23.0.3, SVG Export Plug-In . SVG Version: 6.00 Build 0)  -->
<svg version="1.1"
	 id="svg8" inkscape:version="0.92.4 (unknown)" sodipodi:docname="figure.svg" xmlns:cc="http://creativecommons.org/ns#" xmlns:dc="http://purl.org/dc/elements/1.1/" xmlns:inkscape="http://www.inkscape.org/namespaces/inkscape" xmlns:rdf="http://www.w3.org/1999/02/22-rdf-syntax-ns#" xmlns:sodipodi="http://sodipodi.sourceforge.net/DTD/sodipodi-0.dtd" xmlns:svg="http://www.w3.org/2000/svg"
	 xmlns="http://www.w3.org/2000/svg" xmlns:xlink="http://www.w3.org/1999/xlink" x="0px" y="0px" viewBox="0 0 680.3 248.9"
	 style="enable-background:new 0 0 680.3 248.9;" xml:space="preserve">
<style type="text/css">
	.st0{fill:#007BC4;stroke:#000000;stroke-width:2;stroke-miterlimit:10;}
	.st1{fill:#F08534;}
	.st2{font-family:'MyriadPro-Regular';}
	.st3{font-size:16.1677px;}
	.st4{fill:#007BC4;}
	.st5{font-family:'ArialMT';}
	.st6{fill:none;stroke:#F08534;stroke-width:2;stroke-miterlimit:10;}
	.st7{font-size:12px;}
	.st8{fill:none;stroke:#000000;stroke-width:0.5;stroke-miterlimit:10;}
	.st9{fill:none;stroke:#000000;stroke-miterlimit:10;}
	.st10{fill:none;stroke:#007BC4;stroke-width:2;stroke-miterlimit:10;}
</style>
<line class="st0" x1="590.8" y1="118.8" x2="590.8" y2="90.1"/>
<sodipodi:namedview  bordercolor="#666666" borderopacity="1.0" id="base" inkscape:current-layer="layer1" inkscape:cx="284.27627" inkscape:cy="182.72055" inkscape:document-units="mm" inkscape:guide-bbox="true" inkscape:pageopacity="0.0" inkscape:pageshadow="2" inkscape:window-height="995" inkscape:window-maximized="1" inkscape:window-width="2520" inkscape:window-x="20" inkscape:window-y="65" inkscape:zoom="0.99437388" pagecolor="#ffffff" showborder="true" showgrid="false" showguides="true" width="200mm">
	<inkscape:grid  dotted="false" empspacing="4" id="grid815" spacingx="10" spacingy="10" type="xygrid" units="mm">
		</inkscape:grid>
</sodipodi:namedview>
<g id="layer1" transform="translate(0,-177)" inkscape:groupmode="layer" inkscape:label="Layer 1">
</g>
<text transform="matrix(1 0 0 1 34.3786 94.1484)" class="st1 st2 st3">$\sk(\sP)$</text>
<text transform="matrix(1 0 0 1 34.3784 176.5477)" class="st4 st5 st3">$\sk(E)$</text>
<line class="st6" x1="193" y1="89.2" x2="270.1" y2="89.2"/>
<circle cx="269.5" cy="89.2" r="3.4"/>
<text transform="matrix(1 0 0 1 272.9394 79.7991)" class="st5 st3">$b$</text>
<line class="st6" x1="136" y1="89.2" x2="213.1" y2="89.2"/>
<text transform="matrix(1 0 0 1 116.721 79.7988)" class="st5 st3">$a$</text>
<circle cx="136" cy="89.2" r="3.4"/>
<text transform="matrix(1 0 0 1 34.3787 226.4975)" class="st5 st7">Type</text>
<text transform="matrix(1 0 0 1 167.7914 226.4975)" class="st5 st7">$\mathrm{III}$ or $\mathrm{III}^*$</text>
<text transform="matrix(0.8246 0 0 1 583.7177 226.4973)" class="st5 st7">$\mathrm{II}$</text>
<text transform="matrix(1 0 0 1 43.9996 32.6284)" class="st5 st7">$n$</text>
<line class="st8" x1="110.8" y1="11.7" x2="110.8" y2="244.3"/>
<line class="st8" x1="306.2" y1="8.7" x2="306.2" y2="241.3"/>
<line class="st8" x1="-8.5" y1="52.7" x2="708.2" y2="52.7"/>
<line class="st8" x1="-4.9" y1="205.4" x2="711.8" y2="205.4"/>
<circle class="st4" cx="202.7" cy="89.2" r="3.4"/>
<circle class="st4" cx="202.7" cy="182.3" r="3.4"/>
<g>
	<g>
		<line class="st9" x1="202.8" y1="168.2" x2="202.8" y2="108.4"/>
		<g>
			<path d="M202.8,102.4c1.1,2.8,2.9,6.4,4.8,8.5l-4.8-1.7l-4.8,1.7C199.9,108.8,201.7,105.2,202.8,102.4z"/>
		</g>
	</g>
</g>
<g>
	<text transform="matrix(1 0 0 1 142.531 32.6284)" class="st5 st7">$n\equiv 1,3 \mod 4$</text>
</g>
<g>
	<text transform="matrix(1 0 0 1 358.1016 32.6285)" class="st5 st7">$n\equiv 2 \mod 4$</text>
</g>
<text transform="matrix(1 0 0 1 368.3781 226.4977)" class="st5 st7">$\mathrm{I}_m^*, m &gt; 0$</text>
<line class="st6" x1="389.4" y1="90.2" x2="466.6" y2="90.2"/>
<circle cx="465.9" cy="90.3" r="3.4"/>
<text transform="matrix(1 0 0 1 472.3761 80.8481)" class="st5 st3">$b$</text>
<line class="st6" x1="332.4" y1="90.2" x2="409.5" y2="90.2"/>
<text transform="matrix(1 0 0 1 313.1577 80.8478)" class="st5 st3">$a$</text>
<circle cx="332.4" cy="90.3" r="3.4"/>
<circle class="st4" cx="399.2" cy="90.2" r="3.4"/>
<g>
	<g>
		<line class="st9" x1="399.2" y1="168.2" x2="399.2" y2="131.5"/>
		<g>
			<path d="M399.2,125.4c1.1,2.8,2.9,6.4,4.8,8.5l-4.8-1.7l-4.8,1.7C396.3,131.8,398.1,128.3,399.2,125.4z"/>
		</g>
	</g>
</g>
<line class="st10" x1="399.2" y1="90.2" x2="399.2" y2="118.9"/>
<line class="st10" x1="368.4" y1="185.8" x2="430" y2="185.8"/>
<line class="st6" x1="581.1" y1="89.2" x2="658.2" y2="89.2"/>
<circle cx="657.6" cy="89.2" r="3.4"/>
<text transform="matrix(1 0 0 1 661.0487 79.7991)" class="st5 st3">$b$</text>
<line class="st6" x1="524.1" y1="89.2" x2="601.2" y2="89.2"/>
<text transform="matrix(1 0 0 1 504.8303 79.7988)" class="st5 st3">$a$</text>
<circle cx="524.1" cy="89.2" r="3.4"/>
<circle cx="590.8" cy="89.2" r="3.4"/>
<circle class="st4" cx="590.8" cy="182.3" r="3.4"/>
<g>
	<g>
		<line class="st9" x1="590.8" y1="168.2" x2="590.8" y2="136.9"/>
		<g>
			<path d="M590.8,130.8c1.1,2.8,2.9,6.4,4.8,8.5l-4.8-1.7l-4.8,1.7C588,137.2,589.8,133.7,590.8,130.8z"/>
		</g>
	</g>
</g>
<line class="st8" x1="501.9" y1="7.7" x2="501.9" y2="240.3"/>
<circle class="st4" cx="590.8" cy="118.8" r="3.4"/>
<g>
	<text transform="matrix(1 0 0 1 534.051 32.6287)" class="st5 st7">$n\equiv 0 \mod 4$</text>
</g>
</svg>
