<?xml version="1.0" encoding="utf-8"?>
<!-- Generator: Adobe Illustrator 23.0.3, SVG Export Plug-In . SVG Version: 6.00 Build 0)  -->
<svg version="1.1"
	 id="svg8" inkscape:version="0.92.4 (unknown)" sodipodi:docname="figure.svg" xmlns:cc="http://creativecommons.org/ns#" xmlns:dc="http://purl.org/dc/elements/1.1/" xmlns:inkscape="http://www.inkscape.org/namespaces/inkscape" xmlns:rdf="http://www.w3.org/1999/02/22-rdf-syntax-ns#" xmlns:sodipodi="http://sodipodi.sourceforge.net/DTD/sodipodi-0.dtd" xmlns:svg="http://www.w3.org/2000/svg"
	 xmlns="http://www.w3.org/2000/svg" xmlns:xlink="http://www.w3.org/1999/xlink" x="0px" y="0px" viewBox="0 0 680.3 299.8"
	 style="enable-background:new 0 0 680.3 299.8;" xml:space="preserve">
<style type="text/css">
	.st0{fill:none;stroke:#F08534;stroke-width:2;stroke-miterlimit:10;}
	.st1{fill:none;stroke:#007BC4;stroke-width:2;stroke-miterlimit:10;}
	.st2{font-family:'ArialMT';}
	.st3{font-size:16.1677px;}
	.st4{font-size:12px;}
	.st5{fill:#007BC4;}
	.st6{fill:none;stroke:#000000;stroke-miterlimit:10;}
	.st7{fill:none;stroke:#000000;stroke-linecap:round;stroke-miterlimit:10;}
	.st8{fill:none;stroke:#000000;stroke-width:0.5;stroke-miterlimit:10;}
</style>
<line class="st0" x1="321" y1="131.6" x2="398.1" y2="131.6"/>
<line class="st1" x1="188.5" y1="131.6" x2="321" y2="131.6"/>
<sodipodi:namedview  bordercolor="#666666" borderopacity="1.0" id="base" inkscape:current-layer="layer1" inkscape:cx="284.27627" inkscape:cy="182.72055" inkscape:document-units="mm" inkscape:guide-bbox="true" inkscape:pageopacity="0.0" inkscape:pageshadow="2" inkscape:window-height="995" inkscape:window-maximized="1" inkscape:window-width="2520" inkscape:window-x="20" inkscape:window-y="65" inkscape:zoom="0.99437388" pagecolor="#ffffff" showborder="true" showgrid="false" showguides="true" width="200mm">
	<inkscape:grid  dotted="false" empspacing="4" id="grid815" spacingx="10" spacingy="10" type="xygrid" units="mm">
		</inkscape:grid>
</sodipodi:namedview>
<g id="layer1" transform="translate(0,-177)" inkscape:groupmode="layer" inkscape:label="Layer 1">
</g>
<line class="st0" x1="111.3" y1="131.6" x2="188.5" y2="131.6"/>
<text transform="matrix(1 0 0 1 11.1041 137.2233)" class="st2 st3">$\sk(\sP)$</text>
<g>
	<path d="M188.5,139.2c-0.1,1.5-2.1,4.1-12.4,4.1c-6.2,0-11.1-0.2-16.5-0.2c-4.6,0-8.5,0.5-9.1,3h-2.9c-0.5-2.5-3.5-3-9-3
		c-5.6,0-8.9,0.2-14.4,0.2c-10.2,0-12.5-2.6-12.8-4.1h2.5c1.2,2,5,2.3,9.3,2.3c5.5,0,8.7-0.2,14-0.2c6.2,0,10.7,1.3,11.8,2.9h0.3
		c1.2-1.5,5.1-2.9,11.9-2.9c5.6,0,10.1,0.2,15.4,0.2c4.6,0,8.3-0.4,9.5-2.3H188.5z"/>
</g>
<text transform="matrix(1 0 0 1 132.2094 165.677)" class="st2 st3">$v(2)$</text>
<circle cx="111.3" cy="131.5" r="3.4"/>
<text transform="matrix(1 0 0 1 104.3051 116.1409)" class="st2 st3">$a$</text>
<g>
	<path d="M398.1,139.2c-0.1,1.5-2.1,4.1-12.4,4.1c-6.2,0-11.1-0.2-16.5-0.2c-4.6,0-8.5,0.5-9.1,3h-2.9c-0.5-2.5-3.5-3-9-3
		c-5.6,0-8.9,0.2-14.4,0.2c-10.2,0-12.5-2.6-12.8-4.1h2.5c1.2,2,5,2.3,9.3,2.3c5.5,0,8.7-0.2,14-0.2c6.2,0,10.7,1.3,11.8,2.9h0.3
		c1.2-1.5,5.1-2.9,11.9-2.9c5.6,0,10.1,0.2,15.4,0.2c4.6,0,8.3-0.4,9.5-2.3H398.1z"/>
</g>
<text transform="matrix(1 0 0 1 343.894 165.677)" class="st2 st3">$v(2)$</text>
<circle cx="397.5" cy="131.5" r="3.4"/>
<text transform="matrix(1 0 0 1 390.4623 116.1409)" class="st2 st3">$b$</text>
<g>
	<path d="M323.1,123.9c-0.2-1.5-3.8-4.1-21.9-4.1c-10.9,0-19.6,0.2-29.2,0.2c-8.2,0-15-0.5-16.1-3h-5.2c-0.9,2.5-6.2,3-15.9,3
		c-9.9,0-15.8-0.2-25.5-0.2c-18.1,0-22.2,2.6-22.6,4.1h4.4c2.1-2,8.8-2.3,16.4-2.3c9.7,0,15.3,0.2,24.7,0.2
		c10.9,0,18.8-1.3,20.8-2.9h0.6c2.1,1.5,9,2.9,21,2.9c9.9,0,17.9-0.2,27.2-0.2c8.2,0,14.7,0.4,16.9,2.3H323.1z"/>
</g>
<text transform="matrix(1 0 0 1 225.8793 109.8304)" class="st2 st3">$n-2v(2)$</text>
<circle cx="188.5" cy="131.5" r="3.4"/>
<circle cx="321" cy="131.5" r="3.4"/>
<text transform="matrix(1 0 0 1 104.3049 30.7033)" class="st2 st4">If $n &gt; 2v(2)$</text>
<line class="st1" x1="186.7" y1="219.6" x2="315.8" y2="219.6"/>
<text transform="matrix(1 0 0 1 11.1039 219.6227)" class="st5 st2 st3">$\sk(E)$</text>
<g>
	<g>
		<line class="st6" x1="253.5" y1="201" x2="253.5" y2="169.7"/>
		<g>
			<path d="M253.5,163.7c1.1,2.8,2.9,6.4,4.8,8.5l-4.8-1.7l-4.8,1.7C250.6,170,252.4,166.5,253.5,163.7z"/>
		</g>
	</g>
</g>
<path class="st7" d="M253.5,201c0,1.1-0.9,2-2,2s-2-0.9-2-2"/>
<line class="st0" x1="562.1" y1="133.7" x2="639.3" y2="133.7"/>
<g>
	<path d="M639.3,142.7c-0.1,1.5-2.1,4.1-12.4,4.1c-6.2,0-11.1-0.2-16.5-0.2c-4.6,0-8.5,0.5-9.1,3h-2.9c-0.5-2.5-3.5-3-9-3
		c-5.6,0-8.9,0.2-14.4,0.2c-10.2,0-12.5-2.6-12.8-4.1h2.5c1.2,2,5,2.3,9.3,2.3c5.5,0,8.7-0.2,14-0.2c6.2,0,10.7,1.3,11.8,2.9h0.3
		c1.2-1.5,5.1-2.9,11.9-2.9c5.6,0,10.1,0.2,15.4,0.2c4.6,0,8.3-0.4,9.5-2.3H639.3z"/>
</g>
<text transform="matrix(1 0 0 1 590.0295 169.1947)" class="st2 st3">$v(2)$</text>
<circle cx="638.6" cy="133.8" r="3.4"/>
<text transform="matrix(1 0 0 1 646.0632 123.8815)" class="st2 st3">$b$</text>
<line class="st0" x1="505.1" y1="133.7" x2="582.2" y2="133.7"/>
<g>
	<path d="M582.2,126.1c-0.1-1.5-2.1-4.1-12.4-4.1c-6.2,0-11.1,0.2-16.5,0.2c-4.6,0-8.5-0.5-9.1-3h-2.9c-0.5,2.5-3.5,3-9,3
		c-5.6,0-8.9-0.2-14.4-0.2c-10.2,0-12.5,2.6-12.8,4.1h2.5c1.2-2,5-2.3,9.3-2.3c5.5,0,8.7,0.2,14,0.2c6.2,0,10.7-1.3,11.8-2.9h0.3
		c1.2,1.5,5.1,2.9,11.9,2.9c5.6,0,10.1-0.2,15.4-0.2c4.6,0,8.3,0.4,9.5,2.3H582.2z"/>
</g>
<text transform="matrix(1 0 0 1 518.9902 108.2644)" class="st2 st3">$v(2)$</text>
<circle cx="581.6" cy="133.8" r="3.4"/>
<text transform="matrix(1 0 0 1 468.2669 126.1491)" class="st2 st3">$a$</text>
<circle cx="505.1" cy="133.8" r="3.4"/>
<circle cx="562.1" cy="133.8" r="3.4"/>
<g>
	<text transform="matrix(1 0 0 1 464.2664 30.7033)" class="st2 st4">If $n &lt; 2v(2)$, $2\nmid v(2)$</text>
	<text transform="matrix(1 0 0 1 464.2669 50.0188)" class="st2 st4">+ extra assumptions</text>
</g>
<text transform="matrix(1 0 0 1 11.104 275.6822)" class="st2 st4">Type</text>
<text transform="matrix(1 0 0 1 212.094 275.6822)" class="st2 st4">$\mathrm I_{2n - 4v(2)}^*$</text>
<text transform="matrix(0.513 0 0 1 501.7 275.683)" class="st2 st4">$\mathrm I_{m}^*,\mathrm{II}, \mathrm{III}$ or $\mathrm{III^*}$</text>
<text transform="matrix(1 0 0 1 20.7251 30.7033)" class="st2 st4">$n$</text>
<line class="st8" x1="87.6" y1="17.3" x2="87.6" y2="287.4"/>
<line class="st8" x1="605.1" y1="388.7" x2="604.4" y2="389.4"/>
<line class="st8" x1="441.6" y1="17.3" x2="441.6" y2="287.4"/>
<line class="st8" x1="-28.2" y1="59.3" x2="688.5" y2="59.3"/>
<line class="st8" x1="-28.2" y1="248.5" x2="688.5" y2="248.5"/>
</svg>
