<?xml version="1.0" encoding="utf-8"?>
<!-- Generator: Adobe Illustrator 23.0.3, SVG Export Plug-In . SVG Version: 6.00 Build 0)  -->
<svg version="1.1"
	 id="svg8" inkscape:version="0.92.4 (unknown)" sodipodi:docname="figure.svg" xmlns:cc="http://creativecommons.org/ns#" xmlns:dc="http://purl.org/dc/elements/1.1/" xmlns:inkscape="http://www.inkscape.org/namespaces/inkscape" xmlns:rdf="http://www.w3.org/1999/02/22-rdf-syntax-ns#" xmlns:sodipodi="http://sodipodi.sourceforge.net/DTD/sodipodi-0.dtd" xmlns:svg="http://www.w3.org/2000/svg"
	 xmlns="http://www.w3.org/2000/svg" xmlns:xlink="http://www.w3.org/1999/xlink" x="0px" y="0px" viewBox="0 0 680.3 814.5"
	 style="enable-background:new 0 0 680.3 814.5;" xml:space="preserve">
<style type="text/css">
	.st0{fill:none;stroke:#020203;stroke-linecap:round;stroke-linejoin:round;stroke-miterlimit:10;}
	.st1{fill:none;stroke:#020203;stroke-linecap:round;stroke-linejoin:round;}
	.st2{fill:none;stroke:#020203;stroke-linecap:round;stroke-linejoin:round;stroke-dasharray:6.0201,6.0201;}
	.st3{font-family:'MyriadPro-Regular';}
	.st4{font-size:7.673px;}
	.st5{fill:none;stroke:#020203;stroke-miterlimit:10;}
	.st6{fill:none;stroke:#020203;stroke-miterlimit:10;stroke-dasharray:5.3333,5.3333;}
	.st7{font-size:14.9788px;}
	.st8{font-size:12px;}
	.st9{fill:none;stroke:#020203;stroke-width:0.75;stroke-miterlimit:10;}
</style>
<path class="st0" d="M525.2,43.9c3.1,0,6.2,0.1,9.3,0.3c3.1,0.2,6.2,0.5,9.2,0.9c2.9,0.4,6,0.9,8.6,2.4c1,0.6,2.1,1.5,1.6,2.8
	c-0.4,1.2-1.7,2.1-2.7,2.8c-1,0.7-2.1,1.4-3.2,2.1c-1.1,0.7-2.5,1.4-3.2,2.6c-1.6,2.4,4.3,3.9,5.7,4.3c2.9,0.9,5.8,1.5,8.7,2.1
	c3,0.6,6,1.2,9,1.8c3,0.6,6,1.1,9.1,1.6c3,0.5,6,1,9,1.5c0.7,0.1,1.4,0.2,2.2,0.3 M525.2,43.9c-3.1,0-6.2,0.1-9.3,0.3
	c-3.1,0.2-6.3,0.5-9.4,1c-1.6,0.3-3.2,0.6-4.7,1c-1.4,0.4-2.9,0.8-4,1.7c-2.6,2,0.5,4.4,2.2,5.6c1.1,0.7,2.1,1.4,3.2,2
	c1,0.6,2.4,1.4,2.9,2.6c0.6,1.4-1.2,2.2-2.1,2.7c-1.4,0.6-2.8,1.1-4.3,1.5c-3,0.9-6,1.5-9.1,2.2c-3,0.6-5.9,1.2-8.9,1.7
	c-3,0.6-6.1,1.1-9.1,1.6c-3,0.5-6,1-9.1,1.5c-0.8,0.1-1.6,0.2-2.4,0.4"/>
<path class="st0" d="M588.2,157.1c-3.9-3.2-7.7-6.4-11.7-9.5c-3.8-3-7.6-5.9-11.5-8.7c-4.1-2.9-8.2-5.8-12.5-8.6
	c-4.1-2.7-8.2-5.2-12.4-7.6c-4.5-2.6-9.1-4.9-13.7-7.2c-4.5-2.1-9.1-4-13.7-5.7c-4.6-1.7-9.2-3-14-4c-4.8-1-9.6-1.6-14.5-1.5
	c-4.7,0.1-9.6,0.7-14,2.6c-4.4,1.8-8.7,5-10.2,9.9c-1.6,5.1,0.7,10,4.5,13.3c3.6,3.2,8.5,4.8,13.1,5.5c4.7,0.8,9.5,0.7,14.2,0.2
	c4.9-0.6,9.8-1.6,14.5-3c4.7-1.4,9.4-3.1,13.9-5.1c4.5-2,9-4.1,13.5-6.4c4.4-2.3,8.8-4.9,13.1-7.5c4.1-2.5,8.2-5.2,12.2-8
	c4-2.7,7.9-5.6,11.7-8.5c3.9-3,7.8-6,11.6-9.1c1.9-1.6,3.8-3.2,5.7-4.8"/>
<g>
	<line class="st0" x1="499.7" y1="173.7" x2="547.9" y2="173.7"/>
	<line class="st0" x1="486.7" y1="208.2" x2="510.7" y2="166.5"/>
	<line class="st0" x1="510.9" y1="236.7" x2="486.9" y2="195"/>
	<line class="st0" x1="547.9" y1="229.9" x2="499.7" y2="229.9"/>
	<line class="st0" x1="560.8" y1="194.2" x2="536.7" y2="235.8"/>
	<g>
		<g>
			<line class="st1" x1="536.9" y1="166.5" x2="538.4" y2="169.1"/>
			<line class="st2" x1="541.4" y1="174.3" x2="558" y2="203"/>
			<line class="st1" x1="559.5" y1="205.6" x2="561" y2="208.2"/>
		</g>
	</g>
</g>
<path class="st0" d="M586.3,307.1c-7.6-2.5-15.2-5-22.9-7.3c-8.1-2.4-16.2-4.7-24.4-6.9c-7.9-2.1-16-4-24.1-5.8
	c-8.2-1.8-16.5-3.4-24.9-4.7c-8.1-1.3-16.3-2.3-24.5-2.8c-1-0.1-1.9-0.1-2.9-0.1c8.2-0.2,16.4-1.2,24.4-2.4
	c8.2-1.2,16.4-2.7,24.4-4.4c8.2-1.7,16.4-3.7,24.5-5.8c8.2-2.1,16.4-4.4,24.4-6.8c7.8-2.3,15.5-4.8,23.1-7.3
	c0.9-0.3,1.8-0.6,2.8-0.9"/>
<g>
	<path class="st0" d="M462.2,365.6c9.7-7.3,32.3-22,63-21.7c29.4,0.3,51,14.4,60.7,21.7"/>
	<path class="st0" d="M462.2,322.2c9.7,7.3,32.3,22,63,21.7c29.4-0.3,51-14.4,60.7-21.7"/>
</g>
<g>
	<line class="st0" x1="459.8" y1="488" x2="588.3" y2="488"/>
	<line class="st0" x1="482.8" y1="465.8" x2="482.8" y2="500.8"/>
	<line class="st0" x1="465.9" y1="465.8" x2="465.9" y2="500.8"/>
	<line class="st0" x1="577.7" y1="465.8" x2="577.7" y2="500.8"/>
	<line class="st0" x1="560.7" y1="465.8" x2="560.7" y2="500.8"/>
	<text transform="matrix(1.5639 0 0 1 519.39 485.0718)" class="st3 st4">2</text>
</g>
<g>
	<line class="st5" x1="428.3" y1="545.6" x2="461.8" y2="579"/>
	<line class="st5" x1="435.3" y1="541.2" x2="468.8" y2="574.6"/>
	<line class="st5" x1="487" y1="545.6" x2="453.5" y2="579"/>
	<line class="st5" x1="476" y1="545.6" x2="509.5" y2="579"/>
	<line class="st5" x1="619.7" y1="546" x2="586.3" y2="579.5"/>
	<line class="st5" x1="612.7" y1="541.6" x2="579.3" y2="575.1"/>
	<line class="st5" x1="561.1" y1="546" x2="594.5" y2="579.5"/>
	<line class="st5" x1="572.1" y1="546" x2="538.6" y2="579.5"/>
	<g>
		<g>
			<line class="st5" x1="497.3" y1="573.9" x2="500.3" y2="573.9"/>
			<line class="st6" x1="505.6" y1="573.9" x2="545.6" y2="573.9"/>
			<line class="st5" x1="548.3" y1="573.9" x2="551.3" y2="573.9"/>
		</g>
	</g>
	<text transform="matrix(1 0 0 1 470.1452 539.9555)" class="st3 st7">2</text>
	<text transform="matrix(1 0 0 1 483.1139 539.9555)" class="st3 st7">2</text>
	<text transform="matrix(1 0 0 1 557.11 542.0268)" class="st3 st7">2</text>
	<text transform="matrix(1 0 0 1 570.3073 541.309)" class="st3 st7">2</text>
	<text transform="matrix(1 0 0 1 518.6511 568.6987)" class="st3 st7">2</text>
</g>
<g>
	<line class="st5" x1="430.6" y1="639.6" x2="618.3" y2="639.6"/>
	<line class="st5" x1="446.2" y1="605.2" x2="446.2" y2="645.5"/>
	<line class="st5" x1="439.6" y1="614.1" x2="471.4" y2="614.1"/>
	<line class="st5" x1="517" y1="605.5" x2="517" y2="645.9"/>
	<line class="st5" x1="510.4" y1="614.5" x2="542.2" y2="614.5"/>
	<line class="st5" x1="587.8" y1="605.5" x2="587.8" y2="645.9"/>
	<line class="st5" x1="581.2" y1="614.5" x2="613" y2="614.5"/>
	<text transform="matrix(1 0 0 1 432.8381 631.5755)" class="st3 st8">2</text>
	<text transform="matrix(1 0 0 1 503.1695 631.5751)" class="st3 st8">2</text>
	<text transform="matrix(1 0 0 1 575.5007 631.5751)" class="st3 st8">2</text>
	<text transform="matrix(1 0 0 1 546.2327 655.3738)" class="st3 st8">3</text>
</g>
<g>
	<line class="st5" x1="435.5" y1="680.8" x2="435.5" y2="721.1"/>
	<line class="st5" x1="477.1" y1="680.8" x2="477.1" y2="721.1"/>
	<line class="st5" x1="518.7" y1="680.8" x2="518.7" y2="721.1"/>
	<line class="st5" x1="560.8" y1="680.8" x2="560.8" y2="721.1"/>
	<line class="st5" x1="604.3" y1="680.8" x2="604.3" y2="721.1"/>
	<line class="st5" x1="428.7" y1="714.6" x2="481.8" y2="714.6"/>
	<line class="st5" x1="472.9" y1="686.6" x2="566.6" y2="686.6"/>
	<line class="st5" x1="555.2" y1="714.6" x2="608.9" y2="714.6"/>
	<text transform="matrix(1 0 0 1 496.3155 680.7574)" class="st3 st8">4</text>
	<text transform="matrix(1 0 0 1 481.814 706.7188)" class="st3 st8">3</text>
	<text transform="matrix(1 0 0 1 523.5703 706.7187)" class="st3 st8">2</text>
	<text transform="matrix(1 0 0 1 564.5684 706.7185)" class="st3 st8">3</text>
	<text transform="matrix(1 0 0 1 583.6799 730.5445)" class="st3 st8">2</text>
	<text transform="matrix(1 0 0 1 450.292 730.5446)" class="st3 st8">2</text>
</g>
<g>
	<line class="st5" x1="428.3" y1="758.8" x2="428.3" y2="799.2"/>
	<line class="st5" x1="470" y1="758.8" x2="470" y2="799.2"/>
	<line class="st5" x1="511.6" y1="758.8" x2="511.6" y2="799.2"/>
	<line class="st5" x1="553.6" y1="758.8" x2="553.6" y2="799.2"/>
	<line class="st5" x1="597.2" y1="758.8" x2="597.2" y2="799.2"/>
	<line class="st5" x1="421.6" y1="792.6" x2="474.7" y2="792.6"/>
	<line class="st5" x1="465.8" y1="764.7" x2="514.5" y2="764.7"/>
	<line class="st5" x1="505.1" y1="792.6" x2="601.8" y2="792.6"/>
	<text transform="matrix(1 0 0 1 489.1884 758.7812)" class="st3 st8">4</text>
	<text transform="matrix(1 0 0 1 474.687 784.7426)" class="st3 st8">3</text>
	<text transform="matrix(1 0 0 1 516.4433 784.7425)" class="st3 st8">5</text>
	<text transform="matrix(1 0 0 1 557.4414 784.7423)" class="st3 st8">3</text>
	<text transform="matrix(1 0 0 1 576.5529 808.5683)" class="st3 st8">6</text>
	<text transform="matrix(1 0 0 1 443.165 808.5684)" class="st3 st8">2</text>
	<line class="st5" x1="586.2" y1="767.6" x2="621.8" y2="767.6"/>
	<text transform="matrix(1 0 0 1 609.5623 761.7167)" class="st3 st8">2</text>
	<text transform="matrix(1 0 0 1 603.1425 784.7424)" class="st3 st8">4</text>
</g>
<text transform="matrix(1 0 0 1 59.3752 25.1605)" class="st3 st8">reduction type</text>
<text transform="matrix(1 0 0 1 198.5977 25.1605)" class="st3 st8">$r =$ number of compenents</text>
<text transform="matrix(1 0 0 1 433.1338 25.1607)" class="st3 st8">Special fiber $\mathscr{E}_s$</text>
<text transform="matrix(1 0 0 1 74.642 60.5845)" class="st3 st8">$\mathrm{I}_0$</text>
<text transform="matrix(1 0 0 1 74.642 125.7709)" class="st3 st8">$\mathrm{I}_1$</text>
<text transform="matrix(1 0 0 1 74.642 207.4059)" class="st3 st8">$\mathrm{I}_n, \quad n \ge 2$</text>
<text transform="matrix(1 0 0 1 74.642 277.8405)" class="st3 st8">$\mathrm{II}$</text>
<text transform="matrix(1 0 0 1 74.642 348.3225)" class="st3 st8">$\mathrm{III}$</text>
<text transform="matrix(1 0 0 1 74.6422 417.4869)" class="st3 st8">$\mathrm{IV}$</text>
<text transform="matrix(1 0 0 1 74.642 486.3589)" class="st3 st8">$\mathrm{I}_0^*$</text>
<text transform="matrix(1 0 0 1 74.642 562.7372)" class="st3 st8">$\mathrm{I}_n^*, \quad n \ge 1$</text>
<g>
	<line class="st9" x1="415.3" y1="3.8" x2="415.3" y2="812.8"/>
	<g>
		<line class="st9" x1="46.5" y1="79.2" x2="633.8" y2="79.2"/>
		<line class="st9" x1="46.5" y1="36.6" x2="633.8" y2="36.6"/>
		<line class="st9" x1="46.5" y1="161.8" x2="633.8" y2="161.8"/>
		<line class="st9" x1="46.5" y1="242.6" x2="633.8" y2="242.6"/>
		<line class="st9" x1="46.5" y1="314.7" x2="633.8" y2="314.7"/>
		<line class="st9" x1="46.5" y1="374.4" x2="633.8" y2="374.4"/>
		<line class="st9" x1="46.5" y1="514.1" x2="633.8" y2="514.1"/>
		<line class="st9" x1="46.5" y1="590.8" x2="633.8" y2="590.8"/>
		<line class="st9" x1="46.5" y1="664" x2="633.8" y2="664"/>
		<line class="st9" x1="46.5" y1="740.3" x2="633.8" y2="740.3"/>
		<line class="st9" x1="46.5" y1="812.8" x2="633.8" y2="812.8"/>
		<line class="st9" x1="46.5" y1="3.8" x2="633.8" y2="3.8"/>
		<line class="st9" x1="633.8" y1="3.8" x2="633.8" y2="812.8"/>
		<line class="st9" x1="46.5" y1="3.8" x2="46.5" y2="812.8"/>
		<line class="st9" x1="187" y1="3.8" x2="187" y2="812.8"/>
		<line class="st9" x1="46.5" y1="450.9" x2="633.8" y2="450.9"/>
	</g>
</g>
<g>
	<line class="st5" x1="480.2" y1="412.6" x2="561.5" y2="412.6"/>
	<line class="st5" x1="500.5" y1="447.8" x2="541.1" y2="377.4"/>
	<line class="st5" x1="541.1" y1="447.8" x2="500.5" y2="377.4"/>
</g>
<text transform="matrix(1 0 0 1 74.6423 631.5754)" class="st3 st8">$\mathrm{IV}^*$</text>
<text transform="matrix(1 0 0 1 74.6421 706.7186)" class="st3 st8">$\mathrm{III}^*$</text>
<text transform="matrix(1 0 0 1 74.6422 781.0322)" class="st3 st8">$\mathrm{II}^*$</text>
<text transform="matrix(1 0 0 1 276.2272 60.5845)" class="st3 st8">$1$</text>
<text transform="matrix(1 0 0 1 276.2272 125.7709)" class="st3 st8">$1$</text>
<text transform="matrix(1 0 0 1 276.2273 207.4053)" class="st3 st8">$n$</text>
<text transform="matrix(1 0 0 1 276.2274 277.84)" class="st3 st8">$1$</text>
<text transform="matrix(1 0 0 1 276.2275 348.3226)" class="st3 st8">$2$</text>
<text transform="matrix(1 0 0 1 276.2272 417.4865)" class="st3 st8">$3$</text>
<text transform="matrix(1 0 0 1 276.2271 486.3585)" class="st3 st8">$5$</text>
<text transform="matrix(1 0 0 1 276.2271 562.7368)" class="st3 st8">$n+ 5$</text>
<text transform="matrix(1 0 0 1 276.2274 631.5754)" class="st3 st8">$7$</text>
<text transform="matrix(1 0 0 1 276.2273 706.7181)" class="st3 st8">$8$</text>
<text transform="matrix(1 0 0 1 276.2275 781.033)" class="st3 st8">$9$</text>
</svg>
