<?xml version="1.0" encoding="utf-8"?>
<!-- Generator: Adobe Illustrator 23.0.3, SVG Export Plug-In . SVG Version: 6.00 Build 0)  -->
<svg version="1.1"
	 id="svg8" inkscape:version="0.92.4 (unknown)" sodipodi:docname="figure.svg" xmlns:cc="http://creativecommons.org/ns#" xmlns:dc="http://purl.org/dc/elements/1.1/" xmlns:inkscape="http://www.inkscape.org/namespaces/inkscape" xmlns:rdf="http://www.w3.org/1999/02/22-rdf-syntax-ns#" xmlns:sodipodi="http://sodipodi.sourceforge.net/DTD/sodipodi-0.dtd" xmlns:svg="http://www.w3.org/2000/svg"
	 xmlns="http://www.w3.org/2000/svg" xmlns:xlink="http://www.w3.org/1999/xlink" x="0px" y="0px" viewBox="0 0 680.3 156.2"
	 style="enable-background:new 0 0 680.3 156.2;" xml:space="preserve">
<style type="text/css">
	.st0{font-family:'ArialMT';}
	.st1{font-size:12px;}
	.st2{fill:none;stroke:#000000;stroke-linecap:round;stroke-linejoin:round;stroke-miterlimit:10;}
	.st3{font-family:'MyriadPro-Regular';}
</style>
<sodipodi:namedview  bordercolor="#666666" borderopacity="1.0" id="base" inkscape:current-layer="layer1" inkscape:cx="284.27627" inkscape:cy="182.72055" inkscape:document-units="mm" inkscape:guide-bbox="true" inkscape:pageopacity="0.0" inkscape:pageshadow="2" inkscape:window-height="995" inkscape:window-maximized="1" inkscape:window-width="2520" inkscape:window-x="20" inkscape:window-y="65" inkscape:zoom="0.99437388" pagecolor="#ffffff" showborder="true" showgrid="false" showguides="true" width="200mm">
	<inkscape:grid  dotted="false" empspacing="4" id="grid815" spacingx="10" spacingy="10" type="xygrid" units="mm">
		</inkscape:grid>
</sodipodi:namedview>
<g id="layer1" transform="translate(0,-177)" inkscape:groupmode="layer" inkscape:label="Layer 1">
</g>
<text transform="matrix(1 0 0 1 106.5439 135.6045)" class="st0 st1">Type $\mathrm{I}_0$</text>
<text transform="matrix(1 0 0 1 301.4336 135.6044)" class="st0 st1">Type $\mathrm{I}_1$</text>
<text transform="matrix(1 0 0 1 496.2704 135.6047)" class="st0 st1">Type $\mathrm{II}$</text>
<path class="st2" d="M151.1,23.4c3.1,0,6.2,0.2,9.3,0.8c3.1,0.6,6.2,1.5,9.2,2.9c2.9,1.4,6,2.9,8.6,7.6c1,1.8,2.1,4.8,1.6,8.9
	c-0.4,3.9-1.7,6.8-2.7,9c-1,2.3-2.1,4.4-3.2,6.6c-1.1,2.2-2.5,4.5-3.2,8.1c-1.6,7.7,4.3,12.4,5.7,13.7c2.9,2.7,5.8,4.8,8.7,6.8
	c3,2,6,3.9,9,5.6c3,1.8,6,3.4,9.1,5c3,1.6,6,3.1,9,4.6c0.7,0.4,1.4,0.7,2.2,1.1 M151.1,23.4c-3.1,0-6.2,0.3-9.3,0.9
	c-3.1,0.6-6.3,1.5-9.4,3.1c-1.6,0.8-3.2,1.8-4.7,3.2c-1.4,1.2-2.9,2.7-4,5.5c-2.6,6.4,0.5,13.9,2.2,17.6c1.1,2.3,2.1,4.3,3.2,6.5
	c1,2,2.4,4.4,2.9,8.1c0.6,4.3-1.2,7.1-2.1,8.4c-1.4,2-2.8,3.5-4.3,4.8c-3,2.7-6,4.9-9.1,6.9c-3,2-5.9,3.8-8.9,5.5
	c-3,1.7-6.1,3.4-9.1,5c-3,1.6-6,3.1-9.1,4.6c-0.8,0.4-1.6,0.8-2.4,1.2"/>
<path class="st2" d="M373.5,104.6c-2-3.6-4-7.1-6.1-10.5c-2-3.3-3.9-6.5-5.9-9.6c-2.1-3.3-4.3-6.4-6.5-9.5c-2.1-2.9-4.3-5.8-6.4-8.4
	c-2.3-2.8-4.7-5.5-7.1-7.9c-2.3-2.4-4.7-4.4-7.1-6.3c-2.4-1.8-4.8-3.3-7.3-4.4c-2.5-1.1-5-1.7-7.5-1.7c-2.5,0.1-5,0.8-7.3,2.8
	c-2.3,2-4.5,5.5-5.3,10.9c-0.9,5.6,0.4,11.1,2.3,14.7c1.9,3.5,4.4,5.3,6.8,6.1c2.4,0.8,4.9,0.8,7.4,0.2c2.6-0.6,5.1-1.8,7.6-3.3
	c2.5-1.5,4.9-3.4,7.2-5.6c2.4-2.2,4.7-4.5,7-7.1c2.3-2.6,4.6-5.4,6.8-8.3c2.2-2.8,4.3-5.8,6.3-8.8c2.1-3,4.1-6.2,6.1-9.4
	c2-3.3,4-6.7,6-10.1c1-1.7,2-3.5,3-5.3"/>
<path class="st2" d="M561.3,112.2c-3.6-4.1-7.1-8.1-10.8-11.8c-3.8-3.9-7.6-7.6-11.4-11.1c-3.7-3.4-7.5-6.5-11.3-9.3
	c-3.8-2.9-7.7-5.4-11.7-7.6c-3.8-2-7.6-3.8-11.5-4.5c-0.4-0.1-0.9-0.1-1.4-0.2c3.9-0.4,7.7-2,11.5-3.9c3.9-2,7.7-4.4,11.5-7.1
	c3.9-2.8,7.7-5.9,11.5-9.2c3.9-3.4,7.7-7.1,11.5-10.9c3.7-3.7,7.3-7.7,10.8-11.7c0.4-0.5,0.9-1,1.3-1.5"/>
<text transform="matrix(1 0 0 1 189.7891 52.264)" class="st3 st1">1</text>
<text transform="matrix(1 0 0 1 381.5611 41.0459)" class="st3 st1">1</text>
<text transform="matrix(1 0 0 1 568.5256 35.7041)" class="st3 st1">1</text>
</svg>
