<?xml version="1.0" encoding="utf-8"?>
<!-- Generator: Adobe Illustrator 23.0.3, SVG Export Plug-In . SVG Version: 6.00 Build 0)  -->
<svg version="1.1"
	 id="svg8" inkscape:version="0.92.4 (unknown)" sodipodi:docname="figure.svg" xmlns:cc="http://creativecommons.org/ns#" xmlns:dc="http://purl.org/dc/elements/1.1/" xmlns:inkscape="http://www.inkscape.org/namespaces/inkscape" xmlns:rdf="http://www.w3.org/1999/02/22-rdf-syntax-ns#" xmlns:sodipodi="http://sodipodi.sourceforge.net/DTD/sodipodi-0.dtd" xmlns:svg="http://www.w3.org/2000/svg"
	 xmlns="http://www.w3.org/2000/svg" xmlns:xlink="http://www.w3.org/1999/xlink" x="0px" y="0px" viewBox="0 0 680.3 237.9"
	 style="enable-background:new 0 0 680.3 237.9;" xml:space="preserve">
<style type="text/css">
	.st0{fill:#C4D54F;}
	.st1{fill:#FFEC5C;}
	.st2{fill:#F4995B;}
	.st3{fill:#EA5658;}
	.st4{fill:none;stroke:#020203;stroke-miterlimit:10;}
	.st5{fill:none;}
	.st6{font-family:'ArialMT';}
	.st7{font-size:12px;}
</style>
<polygon class="st0" points="354.3,25.6 236.4,94.5 145.2,214.4 563.3,214.4 454.4,89.2 "/>
<polygon class="st1" points="354.3,41.6 204.4,215.4 504.1,215.4 "/>
<polygon class="st2" points="353.6,85.2 305.8,163.8 268.2,175.1 257.6,215.5 449.8,215.5 439.3,172.7 398.9,159.7 "/>
<polygon class="st3" points="354.3,157.3 322.7,215.5 385.9,215.5 "/>
<sodipodi:namedview  bordercolor="#666666" borderopacity="1.0" id="base" inkscape:current-layer="layer1" inkscape:cx="284.27627" inkscape:cy="182.72055" inkscape:document-units="mm" inkscape:guide-bbox="true" inkscape:pageopacity="0.0" inkscape:pageshadow="2" inkscape:window-height="995" inkscape:window-maximized="1" inkscape:window-width="2520" inkscape:window-x="20" inkscape:window-y="65" inkscape:zoom="0.99437388" pagecolor="#ffffff" showborder="true" showgrid="false" showguides="true" width="200mm">
	<inkscape:grid  dotted="false" empspacing="4" id="grid815" spacingx="10" spacingy="10" type="xygrid" units="mm">
		</inkscape:grid>
</sodipodi:namedview>
<g id="layer1" transform="translate(0,-177)" inkscape:groupmode="layer" inkscape:label="Layer 1">
</g>
<path class="st4" d="M353.9,25.6c0,34,0,68.2,0.2,102.2c0,29,0,58.3,0.2,87.3"/>
<g>
	<polyline class="st4" points="326.4,215.1 343.5,181.8 353.6,162.3 	"/>
	<line class="st4" x1="343.5" y1="215.1" x2="336.8" y2="194.9"/>
	<path class="st4" d="M296,215.1"/>
	<line class="st4" x1="279.8" y1="215.1" x2="353.8" y2="89.7"/>
	<polyline class="st4" points="316.7,215.1 309.8,195.3 303,175.6 	"/>
	<line class="st4" x1="296" y1="215.1" x2="309.8" y2="195.3"/>
	<line class="st4" x1="316.7" y1="152.4" x2="326.4" y2="175.6"/>
	<line class="st4" x1="340.1" y1="205.2" x2="335.1" y2="215.1"/>
	<line class="st4" x1="348.3" y1="194.9" x2="343.5" y2="181.8"/>
	<path class="st4" d="M348.3,200.2"/>
	<line class="st4" x1="295.3" y1="188.8" x2="299.9" y2="195.3"/>
	<line class="st4" x1="286.4" y1="203.8" x2="290.7" y2="213.7"/>
	<line class="st4" x1="313.6" y1="206" x2="306.1" y2="215.1"/>
	<polyline class="st4" points="330.7,128.6 340.3,145.5 336.2,152.4 330.7,161.3 340.1,175.6 	"/>
	<polyline class="st4" points="343,164 345.9,154.6 340.3,145.5 	"/>
	<line class="st4" x1="330.7" y1="161.3" x2="330.7" y2="173.1"/>
	<polyline class="st4" points="336.8,170.7 326.4,188.1 324.2,192 318.4,201.9 322.8,215.1 	"/>
	<line class="st4" x1="328.8" y1="198.7" x2="326.4" y2="188.1"/>
	<path class="st4" d="M321.6,144"/>
	<path class="st4" d="M312.6,159.2"/>
	<polyline class="st4" points="308.7,166 284.2,172.2 270.6,175.6 259.8,215.1 	"/>
	<line class="st4" x1="270.4" y1="215.1" x2="284.2" y2="172.2"/>
	<polyline class="st4" points="353.6,51.2 299.9,114.5 248.2,175.6 214.7,215.1 	"/>
	<polyline class="st4" points="253.1,215.1 249,195.3 245.6,178.5 	"/>
	<polyline class="st4" points="299.9,114.5 302.7,133.1 304.7,147.6 296,157.7 	"/>
	<polyline class="st4" points="353.6,75.5 330.7,99.3 330.7,114.5 	"/>
	<polyline class="st4" points="330.7,99.3 314.6,114.5 309.8,128.6 	"/>
	<polyline class="st4" points="353.6,126.1 343.5,128.6 343.5,139.1 	"/>
	<polyline class="st4" points="353.8,140.9 348.3,146.7 351.7,153.9 348.3,160.4 	"/>
	<line class="st4" x1="343.5" y1="133.1" x2="349" y2="139.1"/>
	<polyline class="st4" points="279.8,188.1 282.3,196.8 277.2,207.4 	"/>
	<polyline class="st4" points="320.8,108.6 320.8,128.6 312.6,137.7 	"/>
	<line class="st4" x1="320.8" y1="128.6" x2="324" y2="136.2"/>
	<polyline class="st4" points="249.4,198.7 243.9,207.4 239.3,215.1 	"/>
	<line class="st4" x1="247" y1="213.7" x2="243.9" y2="207.4"/>
	<polyline class="st4" points="228.5,198.7 231.1,207.4 233.1,215.1 	"/>
	<line class="st4" x1="225.8" y1="215.1" x2="231.1" y2="207.4"/>
	<line class="st4" x1="220" y1="208.8" x2="221.9" y2="215.1"/>
	<polyline class="st4" points="286.4,161.3 282.9,152.4 274.7,160.4 282.9,152.4 302.7,133.1 	"/>
	<polyline class="st4" points="279.8,168.1 274.7,160.4 262,170.7 256.5,215.1 	"/>
	<line class="st4" x1="253.1" y1="184.8" x2="262" y2="170.7"/>
	<line class="st4" x1="259.3" y1="193.6" x2="253.1" y2="200.2"/>
	<line class="st4" x1="259.3" y1="162.3" x2="213.5" y2="200.2"/>
	<line class="st4" x1="353.6" y1="35.4" x2="257.6" y2="97.4"/>
	<line class="st4" x1="262.2" y1="132.4" x2="257.6" y2="97.4"/>
	<line class="st4" x1="224.3" y1="125" x2="257.6" y2="97.4"/>
	<line class="st4" x1="249.4" y1="151.7" x2="240.8" y2="111.2"/>
	<line class="st4" x1="307.5" y1="93.6" x2="297.7" y2="71.4"/>
	<line class="st4" x1="307.5" y1="105.2" x2="290.4" y2="110.7"/>
	<line class="st4" x1="180.4" y1="213.7" x2="224.3" y2="125"/>
	<line class="st4" x1="191.8" y1="190.6" x2="202.4" y2="213.7"/>
	<line class="st4" x1="203.4" y1="167.2" x2="213.2" y2="188.8"/>
	<line class="st4" x1="204.8" y1="203.8" x2="213.2" y2="188.8"/>
	<line class="st4" x1="208.2" y1="215.1" x2="204.8" y2="203.8"/>
	<line class="st4" x1="235" y1="169.3" x2="224.3" y2="125"/>
	<line class="st4" x1="222.9" y1="172.2" x2="231.9" y2="156.7"/>
	<line class="st4" x1="220" y1="162.3" x2="228.2" y2="140.9"/>
</g>
<g>
	<polyline class="st4" points="380.9,214.6 363.8,181.4 353.9,161.9 	"/>
	<line class="st4" x1="363.8" y1="214.6" x2="370.7" y2="194.6"/>
	<path class="st4" d="M411.3,214.6"/>
	<line class="st4" x1="427.7" y1="214.6" x2="353.8" y2="89.2"/>
	<polyline class="st4" points="390.7,214.6 397.5,194.9 404.5,175.1 	"/>
	<line class="st4" x1="411.3" y1="214.6" x2="397.5" y2="194.9"/>
	<line class="st4" x1="390.7" y1="151.9" x2="380.9" y2="175.1"/>
	<line class="st4" x1="367.4" y1="204.8" x2="372.4" y2="214.6"/>
	<line class="st4" x1="359" y1="194.6" x2="363.8" y2="181.4"/>
	<path class="st4" d="M359,199.9"/>
	<line class="st4" x1="412.2" y1="188.3" x2="407.4" y2="194.9"/>
	<line class="st4" x1="421.1" y1="203.5" x2="416.8" y2="213.2"/>
	<line class="st4" x1="393.9" y1="205.5" x2="401.4" y2="214.6"/>
	<polyline class="st4" points="376.8,128.3 367.2,145.2 371.3,151.9 376.8,160.8 367.4,175.1 	"/>
	<polyline class="st4" points="364.3,163.5 361.4,154.3 367.2,145.2 	"/>
	<line class="st4" x1="376.8" y1="160.8" x2="376.8" y2="172.7"/>
	<polyline class="st4" points="370.7,170.1 380.9,187.7 383.3,191.5 389.1,201.4 384.7,214.6 	"/>
	<line class="st4" x1="378.7" y1="198.2" x2="380.9" y2="187.7"/>
	<path class="st4" d="M385.9,143.7"/>
	<path class="st4" d="M394.8,158.9"/>
	<polyline class="st4" points="398.9,165.7 423.3,171.7 437,175.1 447.7,214.6 	"/>
	<line class="st4" x1="437.1" y1="214.6" x2="423.3" y2="171.7"/>
	<polyline class="st4" points="353.9,50.9 407.4,113.9 459.3,175.1 492.8,214.6 	"/>
	<polyline class="st4" points="454.4,214.6 458.5,194.8 461.9,178 	"/>
	<polyline class="st4" points="407.4,113.9 404.8,132.7 402.8,147.1 411.3,157.3 	"/>
	<polyline class="st4" points="353.9,75 376.8,98.9 376.8,113.9 	"/>
	<polyline class="st4" points="376.8,98.9 392.9,113.9 397.5,128.3 	"/>
	<polyline class="st4" points="353.9,125.6 363.8,128.3 363.8,138.5 	"/>
	<polyline class="st4" points="353.8,140.6 359,146.2 355.8,153.4 359,159.9 	"/>
	<line class="st4" x1="363.8" y1="132.7" x2="358.4" y2="138.5"/>
	<polyline class="st4" points="427.7,187.7 425.2,196.3 430.1,207.1 	"/>
	<polyline class="st4" points="386.7,108.1 386.7,128.3 394.8,137.3 	"/>
	<line class="st4" x1="386.7" y1="128.3" x2="383.3" y2="135.6"/>
	<polyline class="st4" points="458.1,198.2 463.4,207.1 468,214.6 	"/>
	<line class="st4" x1="460.4" y1="213.2" x2="463.4" y2="207.1"/>
	<polyline class="st4" points="478.8,198.2 476.4,207.1 474.2,214.6 	"/>
	<line class="st4" x1="481.5" y1="214.6" x2="476.4" y2="207.1"/>
	<line class="st4" x1="487.5" y1="208.2" x2="485.6" y2="214.6"/>
	<polyline class="st4" points="421.1,160.8 424.5,151.9 432.8,159.9 424.5,151.9 404.8,132.7 	"/>
	<polyline class="st4" points="427.7,167.8 432.8,159.9 445.3,170.1 451,214.6 	"/>
	<line class="st4" x1="454.4" y1="184.3" x2="445.3" y2="170.1"/>
	<line class="st4" x1="448.2" y1="193.2" x2="454.4" y2="199.9"/>
	<line class="st4" x1="448.1" y1="161.9" x2="493.8" y2="199.9"/>
	<line class="st4" x1="353.9" y1="34.8" x2="449.9" y2="96.9"/>
	<line class="st4" x1="445.3" y1="131.9" x2="449.9" y2="96.9"/>
	<line class="st4" x1="483.2" y1="124.5" x2="449.9" y2="96.9"/>
	<line class="st4" x1="458.1" y1="151.2" x2="466.5" y2="110.7"/>
	<line class="st4" x1="400" y1="93.3" x2="409.8" y2="71.1"/>
	<line class="st4" x1="400" y1="104.9" x2="417" y2="110.2"/>
	<line class="st4" x1="527.2" y1="213.2" x2="483.2" y2="124.5"/>
	<line class="st4" x1="515.7" y1="190.1" x2="505.1" y2="213.2"/>
	<line class="st4" x1="504.1" y1="166.7" x2="494.4" y2="188.3"/>
	<line class="st4" x1="502.7" y1="203.5" x2="494.4" y2="188.3"/>
	<line class="st4" x1="499.1" y1="214.6" x2="502.7" y2="203.5"/>
	<line class="st4" x1="472.5" y1="169" x2="483.2" y2="124.5"/>
	<line class="st4" x1="484.6" y1="171.7" x2="475.6" y2="156.3"/>
	<line class="st4" x1="487.5" y1="161.9" x2="479.3" y2="140.6"/>
</g>
<rect x="320.8" y="2.7" class="st5" width="66.9" height="16.4"/>
<text transform="matrix(1 0 0 1 320.8119 11.1974)" class="st6 st7">$\aff^1 \an$</text>
<text transform="matrix(1 0 0 1 351.0196 233.9023)" class="st6 st7">$B(1)$</text>
<text transform="matrix(1 0 0 1 397.4875 233.9028)" class="st6 st7">$B(2)$</text>
<text transform="matrix(1 0 0 1 458.1333 233.9023)" class="st6 st7">$B(3)$</text>
<text transform="matrix(1 0 0 1 510.4091 233.9023)" class="st6 st7">$B(4)$</text>
</svg>
