<?xml version="1.0" encoding="utf-8"?>
<!-- Generator: Adobe Illustrator 23.0.3, SVG Export Plug-In . SVG Version: 6.00 Build 0)  -->
<svg version="1.1"
	 id="svg8" inkscape:version="0.92.4 (unknown)" sodipodi:docname="figure.svg" xmlns:cc="http://creativecommons.org/ns#" xmlns:dc="http://purl.org/dc/elements/1.1/" xmlns:inkscape="http://www.inkscape.org/namespaces/inkscape" xmlns:rdf="http://www.w3.org/1999/02/22-rdf-syntax-ns#" xmlns:sodipodi="http://sodipodi.sourceforge.net/DTD/sodipodi-0.dtd" xmlns:svg="http://www.w3.org/2000/svg"
	 xmlns="http://www.w3.org/2000/svg" xmlns:xlink="http://www.w3.org/1999/xlink" x="0px" y="0px" viewBox="0 0 680.3 244.5"
	 style="enable-background:new 0 0 680.3 244.5;" xml:space="preserve">
<style type="text/css">
	.st0{fill:none;stroke:#727271;stroke-miterlimit:10;}
	.st1{fill:#727271;}
	.st2{font-family:'MyriadPro-Regular';}
	.st3{font-size:14.4321px;}
	.st4{fill:none;stroke:#000000;stroke-miterlimit:10;}
	.st5{fill:#038C38;}
	.st6{font-size:12px;}
</style>
<sodipodi:namedview  bordercolor="#666666" borderopacity="1.0" id="base" inkscape:current-layer="layer1" inkscape:cx="284.27627" inkscape:cy="182.72055" inkscape:document-units="mm" inkscape:guide-bbox="true" inkscape:pageopacity="0.0" inkscape:pageshadow="2" inkscape:window-height="995" inkscape:window-maximized="1" inkscape:window-width="2520" inkscape:window-x="20" inkscape:window-y="65" inkscape:zoom="0.99437388" pagecolor="#ffffff" showborder="true" showgrid="false" showguides="true" width="200mm">
	<inkscape:grid  dotted="false" empspacing="4" id="grid815" spacingx="10" spacingy="10" type="xygrid" units="mm">
		</inkscape:grid>
</sodipodi:namedview>
<g id="layer1" transform="translate(0,-177)" inkscape:groupmode="layer" inkscape:label="Layer 1">
</g>
<line class="st0" x1="205.6" y1="216.7" x2="467.4" y2="216.7"/>
<text transform="matrix(1 0 0 1 467.4219 229.4974)" class="st1 st2 st3">$K$</text>
<circle cx="336.7" cy="216.7" r="3"/>
<line class="st4" x1="336.7" y1="216.7" x2="336.7" y2="14.1"/>
<text transform="matrix(1 0 0 1 318.3052 206.1078)" class="st2 st3">$\ell_0$</text>
<line class="st4" x1="402.2" y1="216.7" x2="336.7" y2="105.9"/>
<line class="st4" x1="247.8" y1="216.7" x2="336.7" y2="37.4"/>
<line class="st4" x1="299.8" y1="216.7" x2="284.8" y2="142.2"/>
<line class="st4" x1="278" y1="216.7" x2="293.4" y2="185.1"/>
<line class="st4" x1="290.4" y1="216.7" x2="293.4" y2="185.1"/>
<line class="st4" x1="283.2" y1="206.1" x2="285.7" y2="216.7"/>
<line class="st4" x1="268.2" y1="175.7" x2="271.8" y2="216.7"/>
<line class="st4" x1="269.4" y1="189.6" x2="261.8" y2="216.7"/>
<line class="st4" x1="254.6" y1="203.2" x2="254" y2="216.7"/>
<line class="st4" x1="264" y1="208.7" x2="267.9" y2="216.7"/>
<line class="st4" x1="278.1" y1="155.7" x2="284.5" y2="182.2"/>
<line class="st4" x1="282.8" y1="175.3" x2="279" y2="196.2"/>
<line class="st4" x1="307.1" y1="216.7" x2="336.7" y2="148.3"/>
<line class="st4" x1="309.6" y1="92.1" x2="313.4" y2="165.4"/>
<line class="st4" x1="312.4" y1="147.6" x2="301.7" y2="185.8"/>
<line class="st4" x1="367" y1="216.7" x2="372.8" y2="167"/>
<line class="st4" x1="336.7" y1="60.3" x2="460" y2="216.7"/>
<line class="st4" x1="388.4" y1="193.3" x2="379.9" y2="216.7"/>
<line class="st4" x1="405.6" y1="147.6" x2="412.2" y2="216.7"/>
<line class="st4" x1="409.8" y1="191.9" x2="430.1" y2="216.7"/>
<line class="st4" x1="444.8" y1="197.4" x2="440.2" y2="216.7"/>
<line class="st4" x1="405.6" y1="147.6" x2="434.8" y2="216.7"/>
<line class="st4" x1="452.4" y1="207.1" x2="450.3" y2="216.7"/>
<line class="st4" x1="395.9" y1="206.1" x2="392.3" y2="216.7"/>
<line class="st4" x1="369.9" y1="191.9" x2="374.1" y2="216.7"/>
<line class="st4" x1="336.7" y1="173.9" x2="354.4" y2="216.7"/>
<line class="st4" x1="348.8" y1="203.2" x2="360" y2="216.7"/>
<line class="st4" x1="343.3" y1="216.7" x2="348.8" y2="203.2"/>
<line class="st4" x1="272.5" y1="167" x2="212.7" y2="216.7"/>
<line class="st4" x1="233.2" y1="199.7" x2="236" y2="216.7"/>
<line class="st4" x1="242.6" y1="216.7" x2="248.6" y2="186.9"/>
<text transform="matrix(1 0 0 1 331.5547 239.7279)" class="st2 st3">0</text>
<circle class="st5" cx="367.1" cy="216.7" r="3"/>
<text transform="matrix(1 0 0 1 364.1777 240.2005)" class="st5 st2 st3">1</text>
<circle class="st5" cx="301.7" cy="185.8" r="3"/>
<text transform="matrix(1 0 0 1 298.7129 203.7855)" class="st5 st2 st3">4</text>
<circle class="st5" cx="373.6" cy="168.4" r="3"/>
<text transform="matrix(1 0 0 1 379.7012 170.6659)" class="st5 st2 st3">2</text>
<circle class="st5" cx="431.1" cy="179.9" r="3"/>
<text transform="matrix(1 0 0 1 437.2041 182.2211)" class="st5 st2 st3">3</text>
<text transform="matrix(1 0 0 1 352.2344 26.202)" class="st2 st6">$\aff_K^{1, \text{an}}$</text>
</svg>
