<?xml version="1.0" encoding="utf-8"?>
<!-- Generator: Adobe Illustrator 23.0.3, SVG Export Plug-In . SVG Version: 6.00 Build 0)  -->
<svg version="1.1"
	 id="svg8" inkscape:version="0.92.4 (unknown)" sodipodi:docname="figure.svg" xmlns:cc="http://creativecommons.org/ns#" xmlns:dc="http://purl.org/dc/elements/1.1/" xmlns:inkscape="http://www.inkscape.org/namespaces/inkscape" xmlns:rdf="http://www.w3.org/1999/02/22-rdf-syntax-ns#" xmlns:sodipodi="http://sodipodi.sourceforge.net/DTD/sodipodi-0.dtd" xmlns:svg="http://www.w3.org/2000/svg"
	 xmlns="http://www.w3.org/2000/svg" xmlns:xlink="http://www.w3.org/1999/xlink" x="0px" y="0px" viewBox="0 0 579.5 246.1"
	 style="enable-background:new 0 0 579.5 246.1;" xml:space="preserve">
<style type="text/css">
	.st0{fill:#C4C4C4;}
	.st1{fill:#FFFFFF;}
	.st2{fill:none;stroke:#000000;stroke-miterlimit:10;}
	.st3{font-family:'MyriadPro-Regular';}
	.st4{font-size:13.6215px;}
	.st5{fill:none;stroke:#E62A26;stroke-width:1.5;stroke-miterlimit:10;}
	.st6{fill:#E62A26;}
	.st7{fill:none;stroke:#4DB055;stroke-width:1.5;stroke-miterlimit:10;}
	.st8{fill:#4DB055;}
	.st9{fill:none;stroke:#356AB2;stroke-width:1.5;stroke-miterlimit:10;}
	.st10{fill:#356AB2;}
	.st11{font-size:12px;}
</style>
<g>
	<g>
		<path class="st0" d="M370.2,127.1c0-0.1,0.3-0.2,0.8-0.2s0.8,0.1,0.8,0.2v93.2c0,0.1-0.3,0.2-0.8,0.2s-0.8-0.1-0.8-0.2V127.1z"/>
		<path class="st0" d="M373.6,207.7c-0.3,0.2-0.6-0.2-0.8-0.5c0-0.3,0-0.5,0.3-0.6c0.3-0.2,0.8-0.3,1.7-0.5l3.6-0.8
			c1.2-0.2,2.6-0.5,4.2-0.6c1.4-0.2,2.9-0.2,4.5-0.2c2.2-0.2,4.8-0.3,8.2-0.8c2.5-0.3,5.3-1.1,8.3-1.8l17-3.9l18.7-4.2l9-1.9
			l6.5-1.3c2.8-0.5,4.3-0.5,5.6-0.3c3.2,0.2,7.7,0.3,11.9,0c2.6-0.2,4.9,0,6.8,0c1.1,0.2,2,0.3,2.9,0.6l1.2,0.3
			c1.2,0.3,3.1,0.3,4.8,0.2c0.8,0,1.7-0.3,2.6-0.6l1.9-0.3l0,0h-0.2c0,0-0.2,0.3-0.2,0.2v0.3c0-0.2,0.2,0.3,0.2,0.3l0.2,0.2
			c-0.2,0,0.2,0,0,0h-0.2h-1.5c-0.2,0-0.5-0.2-0.5-0.5c0-0.2,0.2-0.5,0.3-0.5l1.5-0.2h0.3h0.2c0.2,0,0.5,0.5,0.3,0.6l-0.2,0.3
			c-0.5,0.3-1.1,0.5-1.9,0.6c-0.9,0.3-2,0.6-2.9,0.8c-1.9,0.2-3.7,0-5.1-0.5l-1.2-0.5c-0.6,0-1.5,0.2-2.5,0.2c-2,0-4.2-0.2-6.8,0
			c-4.3,0.3-8.8,0.2-12.2,0c-1.1,0-2.5,0-5.3,0.5l-6.3,1.3l-9,1.9l-18.7,4.2l-17,3.7c-3.1,0.6-6,1.3-8.5,1.8
			c-3.6,0.5-6.2,0.6-8.3,0.8c-1.7,0-3.1,0-4.5,0.2l-4.2,0.5l-3.4,0.6L373.6,207.7z"/>
		<path class="st0" d="M495.3,214.1c0.3-0.3,0.8-0.2,1.1,0.2c0.3,0.3,0.2,0.8-0.2,1.1c-0.3,0.3-0.8,0.2-1.1-0.2l0,0l0,0l-1.5-1.5
			c-0.2-0.2-0.2-0.5,0-0.6c0.2-0.2,0.3-0.2,0.5-0.2l1.4,0.8l0.3,0.2l0,0h-0.2C495.6,214,495.1,214.1,495.3,214.1 M482.9,193.1
			c0,0.3-0.2,0.6-0.5,0.6c-0.3,0-0.5-0.2-0.6-0.3l-0.2-0.3c0-0.2-0.2-0.2,0-0.5c0.2-0.5,0.6-0.5,0.9-0.5l0.3,0.2
			c0.3,0.3,0.6,0.8,1.1,1.3c0.9,1.3,1.9,3.2,3.1,5.4l3.9,7.1c1.1,1.9,2.2,3.6,3.2,4.9l2,2.4l0.3,0.5c0.2,0.2,0.3,0.2,0.3,0.8
			c0.2,0.6-0.3,1.3-0.9,1.3c-0.6,0.2-1.2-0.3-1.2-1l0,0c0-0.2,0,0.3,0,0.2c0-0.2,0.2,0.2,0,0.2l0,0l-0.3-0.3l-2-2.4
			c-1.1-1.5-2.3-3.1-3.4-5.2l-3.7-7.3l-2.8-5.4l-0.8-1.3l0,0l0,0l0.2,0.2h0.3l0.3-0.2C482.6,193.4,482.9,193.1,482.9,193.1
			L482.9,193.1L482.9,193.1z M496.8,214.8c0,0.6-0.5,1.1-1.1,1.1s-1.1-0.5-1.1-1.1c0-0.6,0.5-1.1,1.1-1.1S496.8,214.1,496.8,214.8"
			/>
		<path class="st0" d="M480.5,217.7c0.5,0.2,0.6,0.8,0.5,1.3c-0.2,0.5-0.8,0.6-1.2,0.5c-0.5-0.2-0.6-0.8-0.5-1.3
			c0.2-0.3,0.5-0.5,0.8-0.5c0.2,0-0.3,0-0.2,0h-0.2c0.2,0-0.2,0.2-0.2,0c0.2,0-0.2,0.2-0.2,0.2l-0.2,0.2l0,0c0-0.3,0-0.8-0.2-1.5
			c0-0.2,0.2-0.5,0.3-0.5c0.2,0,0.3,0,0.5,0.2l0.8,1.6v0.2l0,0C480.8,218,480.6,217.9,480.5,217.7
			C480.8,217.9,480.5,217.7,480.5,217.7 M472.3,195c0.2,0.2,0.2,0.3,0.3,0.5l0,0v0.2l0.3,2.1c0.5,3.2,1.9,8,3.7,12.2
			c0.9,2.1,2,3.7,2.8,5l1.1,1.6c0.5,0.6,0.5,1.3,0.5,1.5c0,0.2,0.2,0.5,0,0.6c0,0.2,0.2,0.2-0.3,0.6c-0.2,0.2-0.3,0.2-0.5,0.3
			c-0.5,0.2-0.6,0-0.8,0l-0.3-0.2c-0.2-0.2-0.3-0.3-0.3-0.5l-0.3-1l-1.1-1.6c-0.8-1.3-1.9-3.1-2.8-5.4c-1.9-4.4-3.2-9.2-3.7-12.8
			V196v-0.5l0.2-0.3l0.3-0.2C471.6,194.8,472,194.8,472.3,195 M472.6,196c0,0.3-0.2,0.6-0.5,0.6s-0.5-0.2-0.6-0.5V196l0,0
			c0,0,0.3,0.2,0.2,0.2c0,0,0.3,0.2,0.2,0h0.2c0,0,0.3-0.2,0.2,0l0.2-0.2c-0.2,0.3-0.6,0.3-0.9,0.2c-0.3-0.2-0.3-0.6-0.2-1
			c0.2-0.3,0.6-0.3,0.9-0.2c0.2,0.2,0.2,0.3,0.3,0.5v0.2L472.6,196z"/>
		<path class="st0" d="M511.8,174.7c0.2-0.5,0.6-0.6,1.1-0.5c0.5,0.2,0.6,0.6,0.5,1.1c-0.2,0.5-0.6,0.6-1.1,0.5
			c-0.3-0.2-0.5-0.5-0.6-0.8c0-0.2,0,0.3,0,0.2c0-0.2,0.2,0.2,0.2,0.2l0.2,0.2h0.2l0,0h-1.4c-0.2,0-0.5-0.2-0.5-0.3
			c0-0.2,0.2-0.3,0.3-0.5l1.4-0.5l0,0l0,0L511.8,174.7C511.8,174.4,511.8,174.7,511.8,174.7 M489,189.3c0.3,0,0.6,0.2,0.6,0.5
			c0,0.3-0.2,0.6-0.5,0.6l-0.5,0.2h-0.2c0,0-0.5,0-0.6-0.2c-0.2-0.3-0.2-0.5-0.2-0.6c0.2-0.5,0.3-0.5,0.5-0.5l0.5-0.3l4.8-3.2
			l7.1-4.7l5.6-3.4c1.9-1.1,3.1-1.9,4.2-2.6l1.4-0.8c0.2-0.2,0.5-0.3,0.8-0.2c0.2,0,0.2,0,0.5,0.2c0.2,0.2,0.2,0.2,0.3,0.3
			c0.3,0.5,0.2,0.6,0.2,0.6c0,0.3-0.2,0.5-0.5,0.6l-1.5,1c-0.9,0.6-2.3,1.6-4.2,2.8l-5.7,3.2l-7.1,4.4c-2.2,1.3-3.9,2.4-4.9,3.1
			l-0.8,0.3c0,0,0.2-0.2,0.2,0l0.2-0.2c0,0,0.2-0.5,0.2-0.3c0,0.2-0.2-0.5,0-0.3C489.1,190,488.8,189.5,489,189.3c0,0.2-0.2,0-0.2,0
			l0,0H489z"/>
		<path class="st0" d="M453.1,193.5c0.2,0.3,0.2,0.6,0,0.8c-0.2,0.2-0.6,0.2-0.8,0c-0.2-0.2-0.3-0.5-0.3-0.8c0-0.3,0-0.6,0.2-0.8
			c0.2-0.6,0.6-1.1,1.2-1.8c1.2-1.3,3.1-2.9,5.7-4.9c3.2-2.4,7.1-5.4,11.4-8.3c2.3-1.5,4.6-3.1,7.3-4.7c5.6-3.2,11.9-6.5,17.2-9.4
			c2-1.1,3.7-2.3,5.1-3.2c2.3-1.5,3.9-2.1,5.1-2.6l7.1-2.8c0.6-0.3,1.4-0.5,2-0.8c0.9-0.5,1.9-1.1,2.8-1.8l1.5-1.1
			c0-0.2,0.2-0.2,0.3-0.2c0,0-0.2,0.3-0.2,0.2c0,0-0.2,0.3-0.2,0.2c0-0.2,0,0.6,0,0.5c0-0.2,0.2,0.5,0.2,0.3
			c-0.2-0.2,0.2,0.2,0.2,0.2h-0.2c-0.6,0-2,0.2-4,0.6c-0.2,0-0.5-0.2-0.5-0.3c0-0.2,0.2-0.5,0.3-0.5l4.2-1.3l0.9-0.2
			c0.2,0,0.6,0,0.8,0.5c0.3,0.3,0.2,0.8,0.2,1c0,0.2-0.2,0.2-0.2,0.3c-0.5,0.6-1.2,1.1-2.2,1.6c-0.9,0.6-2,1.5-3.1,1.9
			c-0.9,0.5-1.7,0.6-2.3,0.8l-7.1,2.8c-1.1,0.5-2.6,1.1-4.8,2.4c-1.4,1-3.2,2.1-5.3,3.2c-5.3,2.9-11.8,6.2-17.2,9.4
			c-2.6,1.5-4.9,2.9-7.3,4.5c-4.2,2.8-8.2,5.5-11.4,8c-2.5,1.9-4.5,3.4-5.6,4.5c-0.5,0.5-0.9,1-1.1,1.3L453.1,193.5L453.1,193.5z"/>
		<path class="st0" d="M444.9,216.4c0.3,0.5,0.2,1-0.2,1.3c-0.5,0.3-0.9,0.2-1.2-0.2c-0.2-0.2-0.2-0.5-0.2-0.8c0-0.2,0,0.3,0,0.3
			v0.2c0-0.2-1.9-1.6-2.6-3.2c-0.2-0.2,0-0.5,0.2-0.5c0.2-0.2,0.3,0,0.5,0.2c0.5,0.5,1.2,1.1,1.9,1.6l0.9,0.6
			C444.4,216.1,444.6,216.1,444.9,216.4 M426.2,202.6c0,0.3-0.3,0.5-0.6,0.5c-0.3,0-0.5-0.3-0.5-0.5s0-0.5,0.2-0.6
			c0.2-0.2,0.3-0.3,0.6-0.3c0.3,0,0.8,0,1.1,0c0.8,0.2,1.9,0.5,2.8,1c1.1,0.5,2.5,1.3,3.7,2.4c1.4,1.3,2.5,2.9,3.6,4.5
			c0.8,1.1,1.5,2.4,2.2,3.2c1.2,1.5,3.2,2.3,4.3,2.8l0.9,0.6l0.3,0.2l0.2,0.3c0.2,0.3,0.2,0.6,0,0.8c-0.2,0.5-0.5,0.5-0.6,0.5
			c-0.3,0.2-0.5,0-0.6,0l-0.8-0.2c-1.4-0.6-3.7-1.5-5.4-3.6c-0.9-1.1-1.5-2.4-2.3-3.6c-1.1-1.6-2-3.2-3.1-4.4
			c-1.1-1-2.2-1.6-3.1-2.3c-0.9-0.5-1.7-1-2.5-1.1l-0.6-0.2c0,0,0.2,0,0,0C425.9,203,426.2,202.5,426.2,202.6"/>
		<path class="st0" d="M405.3,205.5c0-0.3,0.2-0.6,0.5-0.6c0.2,0,0.5,0,0.6,0.3l-0.2-0.2h-0.3h-0.2l0,0l0.3-0.3l1.4-2.1l2-3.2
			c0.9-1.5,1.7-2.6,2.5-3.7c1.9-2.3,4.3-4.9,6-7c2.5-2.8,3.6-4.1,5.7-4.7c0.2-0.2,0.5,0,0.6,0.3c0,0.2,0,0.5-0.2,0.5
			c-0.9,0.5-1.4,1-2,1.8l-2.5,3.4c-1.9,2.3-4.5,4.9-6.2,7c-0.8,1-1.7,2.1-2.5,3.4l-2.2,3.2c-0.6,1-1.2,1.6-1.7,2.1
			c-0.3,0.2-0.5,0.5-0.8,0.5c-0.2,0-0.3,0.2-0.6,0C405.5,205.9,405.3,205.7,405.3,205.5"/>
		<path class="st0" d="M436.5,206.5c0.3-0.2,0.6-0.2,0.8,0c0.2,0.2,0.2,0.6,0,0.8l0,0v-0.2c0,0-0.2-0.3,0-0.3c0,0.2-0.3-0.3-0.2-0.2
			c0.2,0-0.2,0-0.2,0h0.3l2.3-0.8l4.6-1.8c1.1-0.5,2-0.8,2.8-1.3c0.8-0.3,1.4-0.8,1.7-1.1c0.2-0.2,0.5-0.3,0.6-0.2h0.2
			c0,0,0.2,0,0.2,0.2l0.2,0.3c0.2,0.2,0.2,0.5,0,0.6c-0.5,0.6-1.1,1.3-2,1.8c-0.9,0.5-2,1-3.1,1.3l-4.6,1.6
			c-0.9,0.3-1.9,0.6-2.6,0.6H437c-0.2,0-0.5,0-0.6-0.3c-0.2-0.3-0.2-0.6,0-0.8L436.5,206.5z"/>
		<path class="st0" d="M372.8,152.8c0.3-0.2,0.6,0.2,0.8,0.5c0.2,0.3-0.2,0.6-0.5,0.8c-0.2,0-0.3,0-0.5,0l-0.5-0.2
			c-0.2-0.2-0.3-0.3-0.2-0.5c0-0.2,0.2-0.2,0.3-0.2L372.8,152.8z"/>
		<path class="st0" d="M372.7,153.8c-0.3,0.2-0.6,0-0.8-0.2c-0.2-0.3,0-0.6,0.2-0.8c0.2-0.2,0.5-0.2,0.6,0h0.2
			c0.3,0.2,0.3,0.5,0.2,0.6C373,153.6,372.8,153.6,372.7,153.8L372.7,153.8z"/>
		<path class="st0" d="M373.6,152.2c0.3,0,0.5,0.3,0.5,0.6c0,0.3-0.3,0.5-0.6,0.5l-0.3-0.2c0,0-0.2-0.2-0.3-0.3c0-0.3,0-0.5,0.2-0.6
			c0.3-0.3,0.5-0.2,0.6-0.3l1.5-0.2c2-0.2,4.6,0,8-0.2c1.7-0.2,3.7-0.3,6.2-0.6l3.9-0.2c2-0.2,4.3-0.6,6.8-1l5.9-1
			c2.9-0.5,6-1,9.4-1.6s7.1-1.8,11-2.8c2.9-0.6,6-1.3,9-1.8l11.6-1.9l10.1-1.5l10.2-1.3c2.8-0.3,4.9-0.5,7-0.5h6.8h4.3
			c4-0.2,8.3-1.6,12.8-1c1.9,0.3,3.9-0.2,5.9-0.5c2.3-0.3,5.3-1.1,7.9-1.3c1.4-0.2,2.8,0,4,0c1.1,0,2.3,0,2.9-0.2h0.2h0.2
			c0,0-0.2,0,0,0l-0.2,0.2l-0.2,0.3c0-0.2,0,0.3,0,0.3v0.2l-0.3-0.2l-1.1-0.6c-0.2-0.2-0.3-0.3-0.2-0.5c0-0.2,0.3-0.3,0.5-0.3
			c1.1,0.3,1.7,0.3,2.2,0.6l0.3,0.3c0.2,0.2,0.3,0.5,0.2,0.8c-0.2,0.5-0.5,0.8-0.8,1c0,0-0.2,0-0.2,0.2c-0.9,0.3-2.2,0.3-3.4,0.3
			c-1.4,0-2.6,0-3.9,0c-2.5,0.2-5.3,0.8-7.7,1.3c-2,0.3-4.2,0.8-6.5,0.3c-4-0.6-8.2,0.8-12.5,0.8h-4.3h-6.6c-1.9,0-4.2,0.2-6.8,0.5
			l-10.1,1.3l-10.1,1.5l-11.4,1.9c-2.9,0.5-5.9,1-8.8,1.8c-3.7,0.8-7.4,1.9-11,2.8c-3.4,0.6-6.6,1.1-9.4,1.6l-5.9,1
			c-2.5,0.3-4.9,0.8-7,1l-3.7,0.2c-2.3,0.2-4.3,0.5-6.2,0.5c-3.6,0.2-6.2,0-8,0l-1.4,0.2h-0.2c0,0,0.2-0.2,0.2,0l0.2-0.2l0.2-0.3
			c0,0,0-0.3,0-0.2c0,0.2-0.2-0.3-0.2-0.2L373.6,152.2C373.8,152.3,373.6,152.2,373.6,152.2L373.6,152.2z"/>
		<path class="st0" d="M513.7,120.5c0.2-0.2,0.5-0.2,0.6,0.2c0.2,0.2,0.2,0.5-0.2,0.6c0,0-0.2,0-0.2,0.2l-0.5,0.3
			c-0.2,0.2-0.5,0.2-0.6-0.2c-0.2-0.2-0.2-0.3,0-0.5L513.7,120.5z M497.8,135c0,0.3-0.3,0.6-0.6,0.5c-0.2,0-0.2,0-0.3-0.2
			c-0.2-0.2-0.2-0.3-0.2-0.5v-0.3l0.2-0.5l0.6-0.8c2.5-2.1,6.6-4.2,10.2-7.1c1.7-1.3,3.1-2.8,4.2-3.9l1.1-1.3l0.2-0.3l0,0v0.2v0.2
			c0,0,0.2,0.5,0,0.3c0-0.2,0.3,0.5,0.2,0.3c-0.2-0.2,0.3,0.3,0.3,0.2c-0.5-0.3-0.6-1-0.3-1.5c0.3-0.5,0.9-0.6,1.4-0.3l0,0
			c0.2,0.2,0.3,0.5,0.5,0.6v0.5l-0.2,0.5l-0.3,0.6l-1.2,1.5c-1.1,1.3-2.6,2.8-4.5,4.1c-3.9,2.9-8.2,5-10.4,6.8L497.8,135l-0.2,0.3
			l0,0l0,0C497.8,135.1,497.8,135,497.8,135 M515.2,120.8c0,0.6-0.5,1.1-1.1,1.1c-0.6,0-1.1-0.5-1.1-1.1s0.5-1.1,1.1-1.1
			C514.8,119.9,515.2,120.4,515.2,120.8"/>
		<path class="st0" d="M515.4,149.7c0.2,0.5,0,1-0.5,1.3c-0.5,0.2-0.9,0-1.1-0.5c0-0.2-0.2-0.3,0-0.5c0-0.2,0,0.3,0,0.3v0.2
			l-0.2-0.2l-0.8-0.5c-0.6-0.3-1.5-0.6-2-0.8c-0.2,0-0.3-0.3-0.3-0.5c0-0.2,0.2-0.3,0.3-0.3c0.6,0,1.5,0.2,2.3,0.3l1.1,0.3l0.5,0.3
			C515.1,149.2,515.2,149.4,515.4,149.7 M499.6,140.2c0,0.3-0.2,0.6-0.5,0.6c-0.3,0-0.6-0.2-0.6-0.5c-0.2-0.5-0.2-1-0.2-1.3
			c0-0.3,0.3-0.8,0.6-1c0.5-0.2,0.8-0.2,1.1,0l1.1,0.6c0.9,0.8,1.9,1.9,2.6,3.1c0.9,1.3,1.9,2.4,2.8,3.6c1.2,1.3,2.9,2.3,4.5,3.1
			c0.6,0.3,1.2,0.5,1.9,0.5l0.9,0.2h0.2l0,0c0,0-0.3,0.2-0.2,0c0.6-0.3,1.2-0.2,1.5,0.5c0.3,0.6,0.2,1.3-0.5,1.6c0,0,0,0-0.2,0
			c-0.5,0.3-0.8,0.2-1.2,0.2l-1.2-0.2c-0.6-0.2-1.4-0.3-2.2-0.6c-1.7-0.8-3.7-2.1-5.1-3.7c-1.1-1.3-2-2.8-2.8-3.9s-1.5-2.3-2.2-2.9
			l-0.6-0.5h-0.2h0.2l0,0L499.6,140.2z M515.7,150.2c0,0.6-0.5,1.3-1.2,1.3c-0.6,0-1.2-0.5-1.2-1.3c0-0.6,0.5-1.3,1.2-1.3
			C515.1,149.1,515.7,149.6,515.7,150.2"/>
		<path class="st0" d="M480.9,157.7c0.3,0,0.8,0.2,0.8,0.6c0,0.3-0.2,0.8-0.6,0.8c-0.2,0-0.3,0-0.5-0.2c-0.2-0.2-0.5-0.5-0.9-1.3
			c-0.2-0.5-0.2-0.6-0.2-1v0.2v-0.2l-0.3-0.5c-0.2-0.2,0-0.5,0.2-0.6c0.2-0.2,0.5,0,0.5,0.2c0.2,0.3,0.5,0.5,0.5,1v-0.2l0.2,0.3
			l0.6,0.8l0.2,0.2l0,0h-0.2C481.1,157.7,480.8,157.7,480.9,157.7 M467.5,138.9c0.3,0,0.6,0.3,0.6,0.6c0,0.3-0.2,0.5-0.5,0.5l0,0
			v0.2c0,0.3,0.2,1,0.5,1.6c0.6,1.6,1.5,3.6,2.9,5.4c1.5,2.3,3.6,4.2,5.3,5.7c1.2,1,2,1.6,2.8,2.1l1.1,0.6c0.8,0.5,1.4,1.3,1.9,2.1
			c0.3,0.5,0.2,1.3-0.3,1.6c-0.5,0.3-1.2,0.2-1.5-0.3c-0.3-0.5-0.8-1-1.2-1.3L478,157c-0.8-0.6-1.7-1.3-2.9-2.4
			c-1.7-1.6-3.9-3.6-5.4-6.2c-1.4-2.1-2.3-4.2-2.8-6.2c-0.3-0.8-0.3-1.6-0.3-2.3c0-0.3,0.2-0.6,0.3-1
			C466.9,138.9,467.2,138.9,467.5,138.9"/>
		<path class="st0" d="M462.5,138c0.3,0.2,0.5,0.5,0.3,0.8c-0.2,0.3-0.3,0.5-0.6,0.5c-0.2,0-0.5-0.2-0.6-0.5c-0.2-0.3,0-0.5,0-0.5
			l0.3-0.5l1.1-1c0.9-1,2.2-2.1,3.6-3.6c1.1-1.1,2.2-2.6,3.4-4.2c1.4-1.8,2.9-3.6,4.5-5.2c0.8-0.8,1.7-1.6,2.3-2.3
			c1.1-1,1.7-1.5,2.5-1.8c0.6-0.2,1.2-0.3,1.7-0.3c0.3,0,0.5,0,0.6,0.2c0.2,0,0.3,0.2,0.3,0.3c0,0.2,0,0.5-0.2,0.5
			c-0.2,0.2-0.5,0.2-0.6,0l-0.2-0.2c0,0,0.3,0.3,0.2,0.2h0.2c0,0,0.2,0,0,0l-0.3,0.2l-1.2,0.6c-0.5,0.3-1.1,0.6-2.2,1.6
			c-0.8,0.6-1.5,1.3-2.3,2.1c-1.5,1.6-3.1,3.4-4.5,5c-1.2,1.6-2.5,2.9-3.7,4.2c-1.5,1.5-2.8,2.8-3.7,3.6l-1.1,1l-0.2,0.2l0,0v-0.2
			c0,0,0-0.3,0-0.2c0,0.2-0.3-0.5-0.2-0.3C462.8,138.2,462.5,138,462.5,138"/>
		<path class="st0" d="M473.8,98c0.2,0.3,0.2,0.6,0,0.8c-0.3,0.2-0.6,0.2-0.8,0c0-0.2-0.2-0.2-0.2-0.3c0-0.2,0.2,0.3,0.2,0.3
			c-0.2-0.2,0.3,0.2,0.2,0.2h0.2l0,0l-0.5,0.2c-0.5,0.2-0.9,0.5-1.4,1c-0.2,0.2-0.5,0.2-0.6,0c-0.2-0.2-0.2-0.3,0-0.6
			c0.5-0.5,0.9-1,1.5-1.3l0.6-0.3l0.3-0.2C473.3,97.8,473.5,97.6,473.8,98 M443.5,142.3c0.3-0.2,0.6,0,0.8,0.3
			c0.2,0.3,0,0.6-0.3,0.8l-0.6,0.2c-0.2,0-0.5-0.2-0.6-0.3c-0.3-0.3-0.3-0.8-0.3-1.1c0.2-0.8,0.5-1.8,1.1-2.9l2.2-4.4l3.2-6
			c2.6-4.7,5.9-8.6,8.5-11.5c2.2-2.4,4.2-4.7,5.7-6.8l4.8-6.3c0.6-0.8,1.2-1.8,2-2.9l1.5-2.3l1.1-0.8l0.3-0.2h0.2h0.2
			c0.2,0,0.3,0,0.5,0.2c0.3,0.3,0.3,0.5,0.3,0.6l-0.2,0.3l-0.3,0.3l-0.6,0.8l-1.5,2.3c-0.6,1.1-1.1,2.1-1.7,3.2l-4.8,6.3
			c-1.7,2.3-3.7,4.5-6,7c-2.6,2.8-5.9,6.5-8.5,11l-3.4,5.8l-2.5,4.4c-0.6,1-0.9,1.9-0.9,2.4v0.2
			C443.7,142.4,443.7,142.3,443.5,142.3C443.7,142.4,443.5,142.3,443.5,142.3L443.5,142.3z"/>
		<path class="st0" d="M462.4,115.3c-0.3-0.2-0.5-0.5-0.3-0.8c0.2-0.3,0.3-0.3,0.6-0.3h-0.2l0.5-0.2l1.2-0.6
			c0.9-0.6,2.2-1.3,3.6-1.9c3.1-1.3,6.2-2.1,8.8-2.4l4.9-0.5h0.2l0.9,0.2c0.3,0,0.5,0.3,0.5,0.5c0,0.2,0,0.2-0.2,0.3l-0.9,0.6h-0.2
			l-4.9,0.6c-2.6,0.3-5.6,0.8-8.5,2.1c-1.4,0.5-2.6,1.1-3.6,1.6l-1.2,0.6C463,115.3,462.8,115.5,462.4,115.3"/>
		<path class="st0" d="M450.9,171.5c0.5,0,0.6,0.5,0.6,0.8c0,0.3-0.5,0.6-0.8,0.6c-0.3,0-0.6-0.5-0.6-0.8c0-0.3,0.2-0.5,0.3-0.6
			c0.2,0-0.3,0.2-0.2,0.2c0-0.2-0.2,0.3-0.2,0.2v0.2v0.3c0,0-1.2-1-2-1.8c-0.2-0.2-0.2-0.5,0-0.6c0.2-0.2,0.3-0.2,0.5,0
			c0.6,0.5,1.9,0.8,2.6,1.5L450.9,171.5L450.9,171.5z M425.1,150c-0.3,0-0.6-0.3-0.6-0.6c0-0.3,0.2-0.5,0.5-0.6
			c0.5,0,0.9,0.2,1.4,0.3c0.5,0.3,0.9,0.6,1.2,1.1l3.1,3.7c2.5,2.8,7,6,11.1,9.2c1.9,1.5,3.6,2.9,4.9,4.1l1.7,1.6l2,2.3l0.2,0.2
			l0.2,0.2c0,0-0.2-0.2,0.2,0.2c0,0,0.2,0.2,0.2,0.3c0.2,0.5,0,0.8-0.2,1l-0.5,0.3c-0.5,0.2-0.9,0-1.4-0.2l-0.2-0.2l-2.2-2.1
			l-1.5-1.6c-1.2-1.1-2.9-2.6-4.8-4.1c-4.2-3.2-8.7-6.5-11.3-9.6c-1.2-1.6-2.2-2.9-2.9-3.9l-0.9-1.1
			C425.6,150.2,425.4,150,425.1,150"/>
		<path class="st0" d="M459.6,153.3c-0.3-0.3-0.2-0.6,0-1s0.6-0.2,0.9,0c0.2,0.3,0.2,0.6,0,1c-0.2,0.2-0.3,0.2-0.5,0.2
			c-0.2,0,0.2,0,0.2,0h0.2l-0.2,0.2l-1.5,0.8c-0.2,0.2-0.5,0-0.6-0.2c-0.2-0.2,0-0.5,0.2-0.5l1.4-1l0.2-0.2v0.2c0,0,0,0.3,0,0.2
			c0,0,0,0.3,0,0.2v0.2C459.4,153,459.6,153.3,459.6,153.3 M444,166c0.3,0.2,0.5,0.5,0.3,0.8c-0.2,0.3-0.5,0.5-0.8,0.3
			c-0.5-0.2-0.9-0.5-1.2-0.8c-0.3-0.3-0.5-1-0.5-1.5c0-1,0.6-2.1,1.7-3.2c1.4-1.5,3.6-2.8,5.7-4.1l3.2-1.8l4.8-2.6l1.5-0.6
			c0.5-0.2,0.6-0.3,1.1-0.2c0.2,0,0.3-0.2,0.5,0.5c0,0.2,0,0.3,0,0.5c-0.2,0.3-0.2,0.3-0.2,0.3l-2.2,1.3l-4.9,2.6l-3.2,1.6
			c-2.2,1.1-4.3,2.4-5.6,3.7c-0.9,0.8-1.4,1.6-1.4,2.1c0,0.2,0,0.5,0.2,0.6C443.3,165.6,443.7,165.8,444,166"/>
		<path class="st0" d="M439.6,167.7c-0.3-0.2-0.3-0.6,0-0.8c0.2-0.2,0.5-0.3,0.8-0.2c1.4,1,2.3,3.1,2.9,5.2c0.3,1.6,0.5,3.1,0.6,4.5
			l0.3,3.1l0.3,1.1c0,0.2,0.2,0.3,0.2,0.5v0.2c0.2,0.2,0.2,0.5,0,0.6c0,0,0,0-0.2,0c-0.3,0.2-0.6,0.2-1.1,0c-0.2,0-0.3-0.2-0.3-0.3
			c-0.3-0.5-0.6-1-0.8-1.6c-0.2-1-0.3-2.1-0.3-3.2c-0.2-1.5-0.2-2.9-0.5-4.2C441.2,170.5,440.4,168.5,439.6,167.7"/>
		<path class="st0" d="M371.1,118.6c-0.5,0.2-0.8,0-0.9-0.5c-0.2-0.5,0-0.8,0.5-1l139.2-54.2c0.5-0.2,0.8,0,0.9,0.5
			c0.2,0.5,0,0.8-0.5,1L371.1,118.6z"/>
		<path class="st0" d="M507.8,64.9c-0.3,0-0.6-0.3-0.6-0.6c0-0.3,0.2-0.6,0.5-0.6s1.9-0.8,3.4-1.8l3.6-1.6l0.6-0.2
			c0.2,0,0.3-0.3,0.6,0c0.2,0.2,0.2,0.5,0.2,0.6c-0.2,0.3-0.2,0.2-0.3,0.3l-0.6,0.3c-0.2,0.2-0.5,0-0.6-0.2c-0.2-0.2,0-0.5,0.2-0.5
			l0.5-0.3c0,0,0,0.2,0,0v0.2v0.2v0.2c0-0.2,0.3,0.2,0.2,0.2h0.2h0.2h-0.2l-0.5,0.2l-3.4,1.8C510.1,63.9,508.9,64.9,507.8,64.9"/>
		<path class="st0" d="M519,79.5c0.3-0.2,0.6,0,0.8,0.3c0.2,0.3,0,0.6-0.3,0.8c-0.3,0.2-0.6,0-0.8-0.3c0-0.2,0-0.3,0-0.5v0.2
			c0-0.2,0,0.3,0,0.2l0,0l-0.3-0.3c-0.2-0.2-0.2-0.5,0-0.6c0.2-0.2,0.3-0.2,0.5,0l0.5,0.2C519.1,79.5,519,79.5,519,79.5L519,79.5z
			 M503.2,67.8c0.2,0.3,0.2,0.6,0,0.8c-0.3,0.2-0.6,0.2-0.8,0c0,0,0-0.2-0.2-0.2l-0.2-0.3l0.2-0.3c0.2-0.2,0.3-0.2,0.5-0.2l0.3,0.2
			L503.2,67.8l-0.5-0.2c0.3-0.2,0.8-0.2,1.1,0c0.2,0,0.2,0,0.3,0.2c2.3,1.3,6.2,3.7,9.4,6c1.7,1.1,2.9,2.4,4,3.2l1.2,1l0.9,0.8
			c0.5,0.5,0.6,1.3,0.2,1.8c-0.3,0.5-1.1,0.6-1.5,0.3l-1.1-0.6l-1.4-1.1c-1.2-1-2.3-2.1-3.9-3.2c-3.1-2.4-6.8-4.9-9-6.5
			c-0.2,0-0.2-0.2-0.3-0.3c-0.2-0.3-0.5-0.5-0.5-0.8l0.5,0.3h0.2c0,0,0.3-0.3,0.3-0.2c0,0,0.2-0.3,0.2-0.2c0,0.2,0-0.3,0-0.2
			C503.2,68.1,503,67.8,503.2,67.8"/>
		<path class="st0" d="M503.3,74.9c0.3,0,0.6,0.2,0.6,0.5c0,0.3-0.2,0.6-0.5,0.6l0,0c-3.1,0-5.4-2.3-8.2-1.3c-0.2,0-0.5,0-0.5-0.3
			c0-0.2,0-0.5,0.3-0.5c1.7-0.5,3.2-0.3,4.5,0.2C500.9,74.4,502.1,74.9,503.3,74.9"/>
		<path class="st0" d="M517.6,69.6c0.3-0.3,0.6-0.3,0.9,0c0.3,0.3,0.3,0.6,0,1s-0.6,0.3-0.9,0c-0.2-0.2-0.2-0.3-0.2-0.6
			c0-0.2,0,0.3,0,0.3c0-0.2,0.2,0.3,0.2,0.2l0.2,0.2c-0.2,0,0.2,0.2,0.2,0.2l-1.2,0.2c-0.2,0-0.5-0.2-0.5-0.3c0-0.2,0-0.5,0.3-0.5
			L517.6,69.6L517.6,69.6C517.7,69.4,517.4,69.6,517.6,69.6 M510.6,73.8c0.3,0.2,0.5,0.5,0.5,0.8s-0.3,0.5-0.6,0.5
			c-0.2,0-0.5-0.2-0.6-0.3c-0.2-0.3,0-0.5,0-0.6c0.2-0.3,0.3-0.5,0.6-0.6c1.1-1,2.6-1.6,4-2.3l2.6-1.5c0,0,0.2,0,0.2-0.2l0.5-0.2
			h0.3c0.2,0,0.3,0,0.3,0.2c0.5,0.3,0.3,0.6,0.3,0.6l-0.2,0.3c-0.2,0.3-0.3,0.5-0.5,0.6c0,0-0.2,0-0.2,0.2l-2.9,1.3
			c-1.4,0.6-2.9,1.1-3.9,1.8l-0.3,0.2v-0.2c0,0,0-0.5,0-0.3C510.9,74.3,510.6,73.8,510.6,73.8C510.8,73.9,510.6,73.8,510.6,73.8"/>
		<path class="st0" d="M492.5,70.9c-0.3-0.3-0.5-0.8-0.2-1.1s0.8-0.5,1.1-0.2l32.6,25.3c0.3,0.3,0.5,0.8,0.2,1.1s-0.8,0.5-1.1,0.2
			L492.5,70.9z"/>
		<path class="st0" d="M514.9,88.1c-0.2-0.3,0-0.8,0.3-1.1c0.3-0.2,0.8,0,1.1,0.3l11.8,26.8c0.2,0.3,0,0.8-0.3,1.1
			c-0.3,0.2-0.8,0-1.1-0.3L514.9,88.1z"/>
		<path class="st0" d="M522.8,85.1c0.2-0.3,0.6-0.3,0.9-0.2c0.3,0.2,0.3,0.6,0.2,1c-0.2,0.3-0.6,0.3-0.9,0.2
			c-0.2-0.2-0.3-0.3-0.3-0.5c0-0.2,0,0.3,0,0.3v0.2l0.2,0.2l0,0h-0.6c-0.2,0-0.5-0.2-0.5-0.3c0-0.2,0.2-0.3,0.3-0.5L522.8,85.1
			L522.8,85.1C523,85,522.7,85.1,522.8,85.1 M515.2,89c0.2-0.3,0.5-0.3,0.8-0.2c0.2,0.2,0.3,0.3,0.3,0.6v-0.3c0,0.2-0.2-0.3-0.2-0.3
			l-0.2-0.2c0.2,0-0.3,0-0.2,0h-0.2l0,0l0,0l0.5-0.2l1.4-0.6c1.1-0.5,2.2-1.1,3.2-1.8L523,85c0.2-0.2,0.3-0.2,0.5-0.3h0.3
			c0.2,0,0.3,0.2,0.3,0.3c0.3,0.3,0.2,0.5,0.2,0.6c0,0.2-0.2,0.3-0.3,0.5c-0.6,0.5-1.4,0.8-2.5,1.3c-1.1,0.5-2.2,1.1-3.4,1.6
			l-1.4,0.5l-0.5,0.2h-0.3h-0.3c-0.2,0-0.3-0.2-0.3-0.5C515.1,89.2,515.1,89,515.2,89"/>
		<path class="st0" d="M507.8,97.8c0.2,0.3,0.2,0.6,0,0.8c-0.3,0.2-0.6,0.2-0.8,0c-0.2-0.2-0.2-0.3-0.2-0.3v0.2l-0.9-1.3
			c-0.2-0.2-0.2-0.5,0-0.6c0.2-0.2,0.5-0.2,0.5,0L507.8,97.8z M476.9,80.9c0.2,0.3,0,0.6-0.2,0.8c-0.3,0.2-0.6,0.2-0.8-0.2l-0.3-0.5
			c0-0.2-0.2-0.6,0.2-0.8c0.5-0.5,0.9-0.3,1.2-0.2c0.8,0.2,1.9,0.8,3.2,1.5c2.9,1.6,6.8,3.9,10.8,6.5c4,2.6,8.2,4.9,11.4,6.5
			l3.9,1.9l1.1,0.6c0.3,0.2,0.6,0.5,0.6,0.8c0,0.2,0.2,0.2,0,0.6c0,0.2,0,0.2-0.2,0.3c-0.3,0.5-0.5,0.5-0.6,0.5
			c-0.3,0.2-0.8,0.2-1.1,0l-1.2-0.6l-4-2.1c-3.2-1.8-7.4-4.1-11.6-6.7c-4-2.8-7.7-5.2-10.5-6.8l-2.8-1.6l-0.3-0.2c0,0,0.3,0,0.2,0
			c-0.2,0,0.3-0.3,0.3-0.3C476.7,81.1,476.7,80.8,476.9,80.9L476.9,80.9L476.9,80.9z"/>
		<path class="st0" d="M496.8,90.2c0.2-0.2,0.6-0.2,0.8,0c0.2,0.2,0.2,0.6,0,0.8l0,0l0.2-0.2V91v0.5l0.2,2.1l0.8,6l0.9,6.2
			c0.3,1.6,0.5,2.8,0.5,3.4c0,0.3-0.3,0.5-0.5,0.5c-0.3,0-0.5-0.2-0.5-0.5l-0.5-3.1l-0.9-6.2l-0.8-6.2l-0.2-2.1
			C496.5,91,496.4,90.7,496.8,90.2"/>
		<path class="st0" d="M511.2,93.1c-0.3-0.3-0.3-0.8,0-1.1s0.8-0.3,1.1,0s0.3,0.8,0,1.1c-0.3,0.2-0.6,0.3-0.9,0.2
			c-0.2,0,0.2,0,0.2,0c-0.2,0,0.2,0,0.2,0l-1.1,0.3c-0.2,0.2-0.5,0-0.5-0.3c0-0.2,0-0.3,0.2-0.5l0.6-0.6v0.2c0,0,0,0.3,0,0.2v0.2
			C511.1,92.8,511.2,93.3,511.2,93.1 M501.5,95.5c-0.3,0.2-0.6-0.2-0.8-0.3c-0.2-0.3,0-0.6,0.3-0.6c1.9-0.8,4.3-1.5,6.5-2.1l2.2-0.5
			c0.8-0.2,1.2-0.3,2-0.3c0.3,0,0.6,0.2,0.8,0.5l0.2,0.5c0,0.2,0,0.3,0,0.5l-0.2,0.3c-0.2,0.3-0.5,0.3-0.9,0.3l0,0l-1.4,0.3
			l-2.2,0.3C505.8,94.6,503.2,95,501.5,95.5"/>
		<path class="st0" d="M440.1,116.9c0.3-0.3,0.8-0.2,0.9,0.2c0.3,0.3,0.2,0.8-0.2,1c-0.2,0-0.2,0.2-0.3,0.2c-0.5,0-0.9,0-1.4-0.3
			c-0.6-0.3-1.1-0.6-1.5-1.5c-0.2-0.2,0-0.5,0.2-0.6c0.2-0.2,0.5,0,0.5,0.2c0.3,0.5,0.8,0.6,1.2,0.8L440.1,116.9L440.1,116.9
			L440.1,116.9z M406.9,107c0,0.3-0.3,0.5-0.6,0.5c-0.3,0-0.5-0.3-0.5-0.6c0.2-1,0.6-1.9,1.4-2.4c0.8-0.5,1.9-0.5,3.1-0.2
			c1.7,0.5,3.9,1.6,6.2,2.9c2.5,1.3,5.1,2.9,7.9,4.2c2.3,1,4.3,1.9,6.3,2.6l4.8,1.5c1.2,0.3,2.2,0.6,3.1,0.6h1.1l0.9,0.2
			c0.5,0,0.8,0.3,0.9,0.6c0,0.2,0.2,0.2,0.2,0.6c0,0.2,0,0.2,0,0.3c-0.2,0.3-0.2,0.5-0.3,0.5c-0.3,0.3-0.6,0.5-1.1,0.5h-0.8h-1.4
			c-1.1-0.2-2.2-0.5-3.4-0.8l-4.9-1.6c-2-0.6-4.2-1.6-6.5-2.8c-2.8-1.5-5.4-3.1-7.9-4.4c-2.3-1.5-4.3-2.6-5.7-3.1
			c-0.9-0.3-1.5-0.3-2-0.2C407.3,105.9,407,106.2,406.9,107"/>
		<path class="st0" d="M428.3,114c-0.2,0.2-0.5,0-0.6-0.2c-0.3-0.2-0.3-0.5-0.3-0.6v-0.2l0.2-0.3l1.2-0.8l6.8-3.9l5.6-2.9l2.6-1.1
			h0.2h0.6c0.2,0,0.6,0,0.9,0.5c0.2,0.3,0.2,1,0,1.1l-0.2,0.2l-0.3,0.2l-3.4,2.1c-0.2,0.2-0.5,0-0.6-0.2c-0.2-0.2,0-0.5,0.2-0.5
			c1.7-1.3,2.6-2.1,2.8-2.4l0,0l0,0c0,0,0,0.3,0,0.2c0-0.2,0.2,0.5,0.2,0.3c0-0.2,0.5,0.5,0.3,0.3c-0.2,0,0.5,0.2,0.3,0.2
			s0.3,0,0.3,0h0.2l-0.5,0.2h-0.2l-2.5,1l-5.6,2.8l-6.8,3.6l-1.2,0.6L428.3,114L428.3,114z M428.2,112.7c0.3,0,0.6,0.2,0.6,0.5
			c0,0.3,0,0.5-0.3,0.6l-0.3,0.2l0,0c-0.3,0.2-0.6,0-0.8-0.3s0-0.6,0.3-0.8c0.3-0.2,0.6,0,0.8,0.3c0,0.2,0,0.2,0,0.3
			c0,0.2-0.2-0.3,0-0.3c0,0.2-0.2-0.3-0.2-0.2C428.5,113.1,428.2,112.7,428.2,112.7C428.3,112.7,428,112.7,428.2,112.7L428.2,112.7z
			"/>
		<path class="st0" d="M439.9,127.2c0.3,0.3,0.2,1-0.3,1.1c-0.3,0.2-0.9,0.2-1.1-0.3s-0.2-1,0.3-1.1c0.3-0.2,0.8-0.2,0.9,0.2
			l-0.2-0.2c0.2,0-0.3-0.2-0.3-0.2h-0.2l0.2-0.2c0.2-0.2,0.5-0.2,0.6,0c0,0,0.2,0.2,0.2,0.3v0.3L439.9,127.2L439.9,127.2
			C440.1,127.2,439.9,127,439.9,127.2 M430.5,115.8c-0.2,0.3-0.5,0.5-0.8,0.5s-0.5-0.3-0.5-0.5c0-0.2-0.2-0.5,0.3-0.6
			c0.5-0.3,0.6,0,0.8,0.2l0.6,0.6l1.4,2.3c1.2,1.9,3.1,3.7,4.5,5.4l1.9,2.3l0.6,1l0,0h-0.2h-0.3c0.6,0,0.9,0.6,0.9,1.1s-0.6,1-1.1,1
			c-0.6,0-0.9-0.5-1.1-0.6l-0.6-1l-1.7-2.3c-1.4-1.6-3.2-3.6-4.5-5.8l-1.2-2.4l-0.3-0.6l0,0c0,0,0.3,0.2,0.2,0.2s0.5,0,0.3,0
			c-0.2,0,0.3-0.2,0.2-0.2C430.4,116.1,430.5,115.8,430.5,115.8L430.5,115.8z M440.1,127.7c0,0.6-0.5,1.1-1.1,1.1
			c-0.6,0-1.1-0.5-1.1-1.1c0-0.6,0.5-1.1,1.1-1.1C439.6,126.5,440.1,127,440.1,127.7"/>
		<path class="st0" d="M371.1,59c-0.3,0.2-0.8,0-0.9-0.5c-0.2-0.5,0-0.8,0.5-1L484.8,6.9c0.3-0.2,0.8,0,0.9,0.5c0.2,0.3,0,0.8-0.5,1
			L371.1,59z"/>
		<path class="st0" d="M451.4,21c0.3-0.2,0.6,0,0.8,0.2s0.2,0.5-0.2,0.6l-0.2,0.2l0,0c0,0,0,0.2-0.3,0.2s-0.6-0.3-0.6-0.5v-0.3
			l0.2-0.3l0.6-1.1c0.6-0.8,1.4-1.8,2.2-3.1c1.9-2.9,3.7-7.6,5.6-11.8c0.9-1.9,1.9-3.6,2.5-4.9c0.6-1.1,0.9-1.9,1.2-2.6l0.6-1.5
			l0.6-1l0.2-0.3l0,0c0,0-0.2,0.2,0,0.2c0.2-0.6,0.9-1,1.5-0.6c0.6,0.2,0.9,1,0.6,1.6c-0.2,0.3-0.3,0.5-0.5,0.6l0.2-0.2h0.2l0,0
			l-0.2,0.2l-0.5,0.6l-0.6,1.5l-1.4,2.8c-0.8,1.3-1.7,2.8-2.6,4.7c-2,3.9-3.9,8.8-6,11.8c-0.9,1.3-1.9,2.3-2.3,3.1l-0.8,0.8V22l0,0
			c0,0,0.2-0.3,0.2-0.2v-0.3c0,0.2-0.2-0.3-0.2-0.2c0,0.2-0.3-0.3-0.3-0.2c0.2,0-0.3,0-0.3,0L451.4,21C451.4,21,451.4,21.2,451.4,21
			 M466.5-4.3c0,0.6-0.5,1.1-1.1,1.1s-1.1-0.5-1.1-1.1s0.5-1.1,1.1-1.1S466.5-4.9,466.5-4.3"/>
		<path class="st0" d="M493.4,20.2c0.3,0.3,0.5,0.8,0.2,1.1c-0.3,0.3-0.8,0.5-1.1,0.2c-0.3-0.3-0.5-0.8-0.2-1.1
			C492.7,20.2,493,20.1,493.4,20.2l-0.3-0.2c0.2,0-0.2,0-0.2,0h-0.2C493,20.1,493.3,20.1,493.4,20.2L493.4,20.2L493.4,20.2
			L493.4,20.2L493.4,20.2L493.4,20.2z M467.5,19.1c-0.3,0-0.5-0.3-0.5-0.6c0-0.3,0.3-0.5,0.6-0.5l4.2-0.3l6.2-0.5
			c3.2-0.2,6,0.3,8.7,1.3l3.9,1.1l1.4,0.3h0.5h-0.2c0.6-0.3,1.4,0.2,1.5,0.8c0.3,0.6-0.2,1.5-0.8,1.6h-0.2h-0.6l-0.9-0.2l-1.5-0.5
			l-3.9-1.3c-2.5-0.8-4.9-1.5-7.9-1.5h-6.3C469.8,19.3,468.2,19.3,467.5,19.1 M493.9,21.2c0,0.6-0.6,1.3-1.2,1.3
			c-0.6,0-1.2-0.6-1.2-1.3c0-0.6,0.6-1.3,1.2-1.3C493.3,19.9,493.9,20.6,493.9,21.2"/>
		<path class="st0" d="M480.9,75.2c-0.2,0.2-0.6,0.2-0.8,0c-0.2-0.2-0.2-0.5-0.2-0.8l1.7-3.2c0.8-1.5,1.9-3.4,3.2-5.7l2.6-3.9
			c2.2-3.1,4-5.2,5.9-7.5l5.7-7.1c1.7-2.1,2.5-3.6,3.4-4.9l1.1-1.5l1.4-1.8l0.3-0.5l0,0l0,0v0.2c0-0.3,0.2-0.6,0.3-0.8l0,0
			c0,0-0.2,0.3-0.2,0.2c0,0-0.2,0.6-0.2,0.5s0.2,0.6,0.2,0.5s0.3,0.3,0.2,0.3c-0.2,0,0.2,0.2,0.2,0.2c-0.3,0-1.1,0.2-2.2,0.5
			c-0.2,0-0.5,0-0.5-0.3c0-0.2,0-0.3,0.2-0.5l2.2-1.5l0.5-0.3c0,0,0.3-0.2,0.6-0.2s0.6,0.3,0.9,0.5c0.2,0.3,0.3,0.6,0.3,1
			c0,0.8-0.5,1.1-0.8,1.6l-1.4,1.9l-1.1,1.3c-0.9,1.3-1.7,2.8-3.6,4.9l-5.9,7c-2,2.3-3.9,4.2-6,7.1l-2.6,3.7l-3.4,5.4
			C482.2,73.8,481.5,74.6,480.9,75.2"/>
		<path class="st0" d="M469.9,52.5c0.5-0.3,0.9-0.3,1.4,0.2c0.3,0.5,0.3,1-0.2,1.5c-0.5,0.5-0.9,0.3-1.4-0.2
			c-0.3-0.3-0.3-0.8-0.2-1.1c0-0.2-0.2,0.3-0.2,0.3c0-0.2,0,0.3,0,0.3c0-0.2,0,0.3,0,0.2v0.2l0.2,0.2l0,0c-0.2-0.2-0.8-0.3-1.5-0.5
			c-0.2,0-0.3-0.3-0.3-0.5c0-0.2,0.2-0.3,0.3-0.3L469.9,52.5l0.2,0l0,0L469.9,52.5L469.9,52.5C470.1,52.4,469.8,52.5,469.9,52.5
			 M418.9,41c0.3-0.2,0.6,0.2,0.8,0.5c0.2,0.3,0,0.6-0.3,0.6h-0.2V42c0,0,0-0.5,0-0.3c0,0.2-0.2-0.3-0.2-0.3l-0.2-0.2l0,0l1.5,0.2
			l5.3,0.6c1.7,0.2,3.4,0.6,5.3,1l3.9,1c2,0.5,4.2,0.6,6.5,1c3.4,0.5,6.5,1.3,9.1,2.1c2.6,0.8,5.1,1.8,7.4,2.8
			c2.5,1,4.9,1.8,7.1,1.9c1.2,0.2,2.5,0.2,3.7,0.2h1.5c0.2,0,0.3,0,0.5,0l0.5,0.2l0.3,0.3c0.2,0.2,0.2,0.3,0.2,0.5
			c0,0.3,0,0.5,0,0.6c-0.2,0.6-0.5,0.6-0.8,0.8c-0.2,0-0.3,0.2-0.5,0.2h-1.7c-1.1,0-2.6,0-4-0.2c-2.5-0.3-5.1-1.3-7.7-2.3
			c-4.5-1.9-9.4-3.9-16.1-4.9c-2.2-0.3-4.5-0.6-6.6-1.1l-3.9-1c-1.9-0.5-3.4-1-4.9-1.3l-5.1-0.8c-0.8-0.2-1.2-0.2-1.7-0.5l-0.3-0.3
			c-0.2-0.2-0.3-0.5-0.2-0.8s0.3-0.3,0.3-0.5L418.9,41z"/>
		<path class="st0" d="M464.7,52.5c0.3-0.2,0.6,0,0.8,0.3s0,0.6-0.3,0.8s-0.5,0.2-0.8,0.2c-0.2,0-0.5-0.3-0.5-0.5v-0.5
			c0.2-0.5,0.5-0.8,0.8-1.1c0.6-0.6,1.5-1.5,2.8-2.4l4.6-3.2l7.1-4.7l3.6-2.3c1.7-1.1,3.1-1.8,4.3-2.4l3.7-2.1l1.4-0.8
			c0.2-0.2,0.3-0.2,0.5-0.2l0,0c0,0-0.3,0.2-0.2,0.2c0.2-0.2-0.2,0.5-0.2,0.3c0-0.2,0,0.3,0,0.3l0,0l-0.2-0.2
			c-0.2-0.2-0.3-0.3-0.2-0.6c0-0.2,0.2-0.2,0.3-0.2h0.8c0.2,0,0.5,0.2,0.6,0.5c0.2,0.3,0.2,0.6,0,1c0,0.2-0.2,0.3-0.3,0.5
			c-0.5,0.5-1.1,0.8-1.9,1.1l-3.7,2.1c-1.2,0.6-2.6,1.3-4.2,2.4l-3.7,2.3l-7.1,4.5l-4.8,3.1c-1.2,0.8-2.2,1.5-2.6,2.1l-0.5,0.6l0,0
			v-0.2c0,0-0.2-0.3-0.2-0.2C464.8,52.8,464.5,52.7,464.7,52.5h-0.2H464.7z"/>
		<path class="st0" d="M483.7,56.6c-0.2-0.3-0.2-0.6,0.2-1c0.3-0.2,0.6-0.2,0.9,0.2c0.2,0.3,0.2,0.6-0.2,1
			C484.5,56.9,484.2,56.9,483.7,56.6l0.3,0.2c0,0,0.2,0,0,0l0,0c-0.2,0-0.5-0.2-0.3-0.5v-0.2v0.2v0.2
			C483.7,56.4,483.9,56.7,483.7,56.6 M467.3,56.1c0.2-0.3,0.5-0.5,0.8-0.3c0.3,0.2,0.5,0.5,0.3,0.6c0,0-0.2-0.3,0-0.2l0,0l1.2,0.2
			c1.2,0,3.1-0.3,4.9-0.6c2.2-0.3,4.2-0.6,5.9-0.8h1.9h1.5h0.5c0.2,0,0.5,0,0.8,0.6c0.3,0.5,0,1.1-0.5,1.3c-0.5,0.3-1.1,0-1.2-0.5
			l0,0c0-0.2,0.3,0.3,0.2,0.3c-0.2-0.2,0.3,0.2,0.2,0.2h0.2h-0.2h-1.4h-1.9c-1.5,0-3.6,0.2-5.7,0.5c-2,0.3-3.9,0.5-5.3,0.3
			c-0.6,0-1.2,0-1.7-0.3c-0.3-0.2-0.5-0.3-0.6-0.5C467.2,56.6,467.3,56.3,467.3,56.1 M485.4,56.1c0,0.5-0.5,1-0.9,1s-0.9-0.5-0.9-1
			c0-0.5,0.5-1,0.9-1C484.9,55,485.4,55.4,485.4,56.1"/>
		<path class="st0" d="M373.6,87.1c-0.3,0.2-0.6,0-0.8-0.3s0-0.6,0.3-0.8l3.1-1.6c2.5-1.1,6.5-2.4,10.4-4.1c2.3-1,4.3-1.8,6-2.6
			l2.5-1.1l1.1-0.5c0.5-0.2,0.9,0.2,1.1,0.6c0.2,0.3,0,0.8-0.5,1l-0.9,0.5l-2.5,1.1c-1.7,0.8-3.7,1.6-6.2,2.6
			c-4,1.5-8.2,2.8-10.4,3.7L373.6,87.1z"/>
		<path class="st0" d="M404.8,61.1c-0.2-0.3,0-0.6,0.3-0.8s0.6,0,0.8,0.3c0,0.2,0,0.2,0,0.3c0,0.3-0.2,0.6-0.3,1l-0.9,1.8
			c-0.2,0.2-0.3,0.3-0.6,0.2c-0.2-0.2-0.3-0.3-0.2-0.5l0.6-1.8L404.8,61.1L404.8,61.1L404.8,61.1z M387.2,80.1c0-0.2,0-0.5,0.2-0.6
			v-0.2l0.3-0.3l2.5-2.9c1.5-1.6,3.6-3.2,5.3-5c2.6-2.6,4.3-5.2,5.7-7.6c0.8-1.1,1.5-2.3,2.2-2.9l0.8-0.6l0.5-0.3
			c0.2,0,0.5-0.2,0.9,0c0.6,0.2,0.8,0.8,0.6,1.5c-0.2,0.5-0.6,0.8-1.1,0.6c-0.2,0,0.5,0,0.3,0h0.2l0,0l-0.5,0.5
			c-0.6,0.6-1.2,1.6-2,2.8c-1.5,2.3-3.6,5-6.3,7.6c-1.9,1.6-3.9,3.2-5.4,4.7l-2.6,2.8l-0.3,0.3l-0.2,0.2H388h-0.3
			C387.5,80.6,387.4,80.4,387.2,80.1 M387.8,79c0.2-0.3,0.6-0.3,0.8-0.2c0.3,0.2,0.3,0.5,0.2,0.8l-0.2,0.5l0,0v-0.2c0,0,0-0.3,0-0.2
			c0,0-0.2-0.3-0.2-0.2c0,0-0.3-0.3-0.3-0.2h-0.3c0.3,0,0.6,0.3,0.6,0.6c0,0.3-0.3,0.6-0.6,0.6c-0.3,0-0.6-0.3-0.6-0.6
			c0-0.2,0-0.3,0.2-0.3l0.2-0.2L387.8,79z"/>
		<path class="st0" d="M390.8,80.4c-0.3,0-0.5-0.3-0.5-0.6c0-0.3,0.3-0.5,0.6-0.5c2,0,4.9,0.5,8.2,1.3c2.5,0.6,4.3,1.8,6,2.6l1.7,1
			l1.2,0.5h0.3l0,0l-0.2,0.2c0-0.2,0.2-0.2,0.3-0.2s-0.2,0.2-0.2,0.2l0,0V84c0-0.2,0-0.5,0.3-0.5c0.2,0,0.3,0,0.5,0.2l0.5,1
			c0.2,0.3,0.2,0.5,0.2,0.8c0,0.2,0,0.3-0.2,0.3c-0.2,0.3-0.6,0.6-0.9,0.8c-0.3,0.2-0.6,0.2-0.9,0c-0.6,0-1.2-0.3-1.7-0.5l-1.9-1
			c-1.5-1-3.2-1.9-5.4-2.6C395.4,81.4,392.5,80.6,390.8,80.4"/>
		<path class="st0" d="M420.2,68.3c0.2-0.3,0.5-0.5,0.6-0.3c0.3,0.2,0.5,0.5,0.3,0.6c-0.2,0.3-0.5,0.5-0.6,0.3
			c-0.2,0-0.3-0.2-0.3-0.3l0.2,0.2c0-0.2,0.2,0.2,0.2,0.2h0.2h-0.5c-0.2,0-0.5-0.2-0.5-0.3c0-0.2,0.2-0.3,0.3-0.5l0.5-0.2h0.2
			c0,0-0.2,0.2,0,0l0,0C420.3,67.9,420.2,68.4,420.2,68.3 M399.6,79.5c-0.2-0.3-0.2-0.6,0.2-0.8c0.2-0.2,0.5-0.2,0.8,0
			c0.2,0.2,0.3,0.2,0.5,0.2l1.1-0.3c0.9-0.3,2.2-1.1,3.6-1.9l4.8-2.9c2.3-1.5,4-2.6,5.3-3.4l1.2-1l1.5-1c0.8-0.3,1.5-0.6,2-0.6h0.3
			c0,0,0.2,0,0.3,0.2s0.2,0.2,0.2,0.3c0,0.3,0,0.3,0,0.5c-0.2,0.3-0.3,0.3-0.3,0.3l-1.5,1l-1.2,1l-1.2,1.1l-5.4,3.4l-4.8,2.8
			c-1.5,0.8-2.8,1.5-4,1.8c-0.6,0.2-1.1,0.2-1.5,0.2C400.4,80.1,399.9,79.9,399.6,79.5"/>
		<path class="st0" d="M427.6,75.9c0.5-0.2,0.9,0,1.1,0.5s0,1-0.5,1.1c-0.5,0.2-0.9,0-1.1-0.5c-0.2-0.3,0-0.6,0.2-1l-0.2,0.2
			c0.2-0.2-0.2,0.5-0.2,0.3c0-0.2,0,0.3,0,0.3c0-0.2,0.2,0.2,0.2,0.2l0,0c-0.2-0.2-0.6-0.3-1.2-0.5c-0.2,0-0.3-0.3-0.3-0.5
			c0-0.2,0.2-0.3,0.5-0.3L427.6,75.9h0.2l0,0H427.6L427.6,75.9z M412.9,75.2c0.3-0.2,0.6,0,0.8,0.3c0.2,0.2,0,0.5-0.2,0.6l0,0v-0.2
			v-0.2c0,0.2,0-0.3,0-0.3s-0.2-0.3-0.2-0.2c0,0.2-0.3-0.2-0.2-0.2H413l0,0h0.2l1.9-0.2c1.9-0.2,3.9-0.5,5.9-0.2
			c1.4,0.2,2.8,0.6,4,0.8c1.2,0.2,2.3,0.3,2.3,0.2c0.2,0,0.5,0,0.6,0l0.3,0.2c0.2,0.2,0.2,0.2,0.3,0.3c0.2,0.5,0.2,0.6,0,0.8
			c0,0.2-0.2,0.3-0.3,0.5c-0.6,0.3-0.9,0.3-1.5,0.3h-1.9c-1.5-0.2-2.9-0.6-4.2-0.8c-1.7-0.3-3.6-0.2-5.6-0.2l-2-0.2
			c-0.3,0-0.6,0-0.8-0.5c-0.2-0.3,0-0.8,0.2-1L412.9,75.2z"/>
		<path class="st0" d="M441.5,60.6c0.2-0.3,0.6-0.5,1.1-0.3c0.3,0.2,0.5,0.6,0.3,1.1c-0.2,0.3-0.6,0.5-1.1,0.3
			c-0.3-0.2-0.5-0.3-0.5-0.6c0-0.2,0.2,0.3,0.2,0.3l0.2,0.2c-0.2-0.2,0.3,0.2,0.2,0.2h0.2h0.2c-0.6,0.2-2.2,1.1-2.5,1.6
			c-0.2,0.2-0.5,0.2-0.6,0s-0.2-0.3-0.2-0.5c0.5-1,1.7-1.9,2.6-2.4L441.5,60.6L441.5,60.6L441.5,60.6L441.5,60.6z M422.8,74.6
			c0.3-0.2,0.6-0.2,0.8,0c0.2,0.2,0.2,0.6,0,0.8l-0.3,0.5l0,0l0,0v-0.2c0,0-0.2-0.3,0-0.3c0,0.2-0.3-0.3-0.2-0.2
			c0.2,0.2-0.3-0.2-0.3-0.2h-0.2h0.2c0.5-0.3,1.5-1,2.9-2.1c2.8-2.4,6.3-6,10.1-8.8c2-1.5,3.7-2.4,4.9-3.2l1.1-0.6
			c0.2,0,0.3-0.2,0.3-0.2h0.3h0.2c0.2,0,0.3,0.2,0.5,0.3l0.3,0.5c0.2,0.5,0,0.8-0.2,1c0,0.2-0.2,0.2-0.3,0.3l-1.1,0.6
			c-1.2,0.8-2.9,1.6-4.8,3.1c-3.7,2.6-7.3,5.8-10.2,8.3c-1.4,1.1-2.6,1.9-3.4,2.1c-0.2,0-0.3,0.2-0.6,0.2c-0.2,0-0.3-0.2-0.5-0.3
			c-0.2-0.3-0.2-0.5,0-0.6C422,75.1,422.3,74.9,422.8,74.6"/>
		<path class="st0" d="M436.7,71.3c-0.3,0.2-0.6,0-0.8-0.3s0-0.5,0.2-0.6c0.9-0.8,2.6-0.8,4.5-1c1.2,0,2.3,0,3.4,0.2
			c1.4,0.2,2.8,0.5,4.2,0.5c1.1,0,2.3,0,3.6-0.5c0.9-0.2,1.7-0.3,2.5-0.5c0.2,0,0.5,0,0.5,0.3c0,0.2,0,0.3-0.2,0.5l-2.3,1.5
			c-1.5,0.5-2.8,0.8-4.2,0.8c-1.5,0-3.1-0.2-4.5-0.3c-1.1-0.2-2-0.3-3.1-0.3C438.9,71,437.2,71.2,436.7,71.3"/>
		<path class="st0" d="M371.4,136.4c0.2-0.3,0.5-0.5,0.8-0.3c0.3,0.2,0.5,0.3,0.5,0.6v-0.2c0,0.2-0.2-0.3-0.2-0.3l-0.2-0.2h0.2
			l1.5-0.5c1.4-0.5,3.4-1.5,5.9-2.6l8-3.9l4.6-2.1c2.8-1.3,5.7-2.4,8.2-3.4l4.8-1.9c0.8-0.2,1.2-0.3,1.7-0.2c0.3,0,0.8,0.2,0.9,0.8
			c0.2,0.3,0,0.6-0.2,0.8l-0.2,0.2c-0.3,0.3-0.9,0.6-1.7,1s-1.5,0.6-2.3,0.6c-0.2,0-0.5-0.2-0.5-0.3c0-0.2,0.2-0.3,0.3-0.5
			c1.2-0.5,2.9-1.6,2.9-1.8c0,0,0,0.3,0,0.2c0-0.2,0,0.3,0,0.3c0-0.2,0.3,0.5,0.2,0.3c-0.2-0.2,0.5,0.2,0.3,0.2c-0.2,0,0.2,0,0.2,0
			h0.2l0,0l-1.1,0.3l-4.9,1.9c-2.6,1-5.4,2.1-8.2,3.2l-4.6,1.9l-8.2,3.6c-2.3,1.1-4.5,1.9-6,2.4c-0.8,0.2-1.4,0.3-1.9,0.5
			c-0.3,0-0.5,0-0.8-0.2C371.6,137.2,371.3,136.7,371.4,136.4"/>
		<path class="st0" d="M404.5,139c0-0.5,0.5-0.8,0.8-0.8c0.5,0,0.8,0.5,0.8,0.8c0,0.5-0.5,0.8-0.8,0.8s-0.6-0.3-0.6-0.6v0.2
			c0-0.2,0.2,0.2,0,0.2l0,0l-0.2-0.2c-0.2-0.2-0.3-0.3-0.2-0.6l0.2-0.2h0.2l0,0v0.2C404.7,138.7,404.5,139,404.5,139L404.5,139z
			 M386.1,133.7c-0.2-0.2-0.2-0.2-0.2-0.3c-0.2-0.6,0.2-0.6,0.3-0.6c0.2-0.2,0.3-0.2,0.6-0.3l1.4-0.3c0.6,0,1.4-0.2,2.2-0.2
			c1.4,0.2,2,1.3,2.6,1.6c1.4,1,4.8,1.1,7.9,1.9c1.5,0.3,2.8,1,3.9,1.5l1.2,0.6l0.5,0.5c0.2,0.2,0.5,0.5,0.3,1.1
			c-0.2,0.6-0.8,1-1.4,0.6c-0.3-0.2-0.6-0.3-0.6-0.6c0-0.2,0.2,0.3,0.2,0.3c0-0.2,0.2,0.2,0.2,0.2l0,0H405l-1.1-0.6
			c-0.9-0.5-2-1-3.4-1.3c-2.8-0.6-6.2-0.6-8.5-2.4c-0.9-0.8-1.5-1.5-1.7-1.5c-0.5-0.2-1.1,0-1.9-0.2l-1.4-0.2h-0.5
			C386.3,133.8,386.3,134,386.1,133.7 M386.9,132.8c0.2,0.3,0.2,0.6,0,0.8c0,0-0.2,0.2-0.3,0.2l0,0l0,0c0,0,0.2-0.2,0.2,0
			c-0.3,0.2-0.6,0.2-0.8-0.2c-0.2-0.3-0.2-0.6,0.2-0.8C386.4,132.5,386.8,132.5,386.9,132.8c0.2,0.2,0.2,0.3,0.2,0.5
			c0,0.2,0-0.3,0-0.3C387.1,133.2,386.9,132.8,386.9,132.8L386.9,132.8z"/>
		<path class="st0" d="M396.3,133.3c0-0.3,0.3-0.5,0.6-0.5c0.3,0,0.5,0.3,0.5,0.6l0,0l-0.2,0.8l0.2,0.5h0.2l0.8-0.2l2.2-1.1l2.8-1.6
			l3.2-2.1c1.7-0.8,3.6-1.6,6.5-2.6c0.2,0,0.5,0,0.5,0.3c0,0.2,0,0.5-0.2,0.5c-2.8,1.5-4.5,2.4-5.9,3.6l-3.4,1.9l-2.9,1.6
			c-0.9,0.3-1.7,0.6-2.5,0.8l-1.1,0.2c-0.3,0-0.8-0.2-0.9-0.5c-0.3-0.3-0.5-0.8-0.5-1.1L396.3,133.3z"/>
		<path class="st0" d="M290,227.6c-0.2-0.3,0-0.6,0.3-0.8c0.3-0.2,0.6,0,0.8,0.3c0.3,0.5,0,0.6,0,1l-0.5,1.1l-1.7,3.6l-4.9,9.2
			l-2.2,4.1l-1.4,2.4l-0.2,0.2l-0.5,0.3h-0.3c0,0-0.2,0-0.2-0.2c-0.2-0.2-0.2-0.2-0.2-0.3v-0.6v-0.2l1.4-2.4l2.2-4.1l4.9-9.2
			l1.7-3.4L290,227.6L290,227.6C289.8,227.5,290,227.6,290,227.6"/>
		<path class="st0" d="M274,247.3c-0.3,0.3-0.6,0.3-0.9,0c-0.3-0.3-0.3-0.6,0-1c0.3-0.3,0.6-0.3,0.9,0c0.2,0.2,0.2,0.3,0.2,0.6
			c0,0.2,0-0.3,0-0.3c0,0.2-0.3-0.3-0.2-0.3c0.2,0.2-0.3-0.2-0.2-0.2h-0.2l0,0h0.2l1.2-0.8c0.2-0.2,0.5-0.2,0.6,0.2
			c0.2,0.2,0.2,0.5,0,0.5l-1.2,1.1L274,247.3L274,247.3C273.9,247.3,274,247.1,274,247.3 M371.1,195.3c-0.2,0.3-0.6,0.3-0.8,0.2
			c-0.3-0.2-0.3-0.5-0.2-0.8l0.3-0.5l0,0c0,0-0.3-0.2-1.1-0.2s-1.7,0-3.1,0.3c-2.9,0.6-7,2.1-11.4,3.6l-4.6,1.5
			c-2,0.6-4,1.3-6.3,2.1c-2.5,1-5.3,2.1-8.5,3.6c-2.5,1.1-5.1,2.4-7.9,3.9l-5.9,2.8l-10.2,4.9l-4.6,2.4c-3.2,1.8-6.6,3.7-9.7,5.8
			c-1.5,1-2.9,2.1-4.3,3.1l-3.6,2.6c-1.4,1-2.2,1.6-2.6,2.1c-0.3,0.3-0.6,0.8-0.9,1.3l-0.6,0.8c-0.8,1.1-1.7,2.1-2.5,2.9l-1.2,1.1
			l-1.2,1.6l-1.4,1.5l-0.9,1.3l-1.5,1.9l-0.6,1c-0.3,0.5-0.9,0.6-1.1,0.8c0,0-0.2,0-0.2,0.2l-0.6,0.3l-0.3,0.2h-0.2
			c-0.2,0-0.2,0-0.3,0s-0.3-0.2-0.5-0.2c-0.3-0.3-0.2-0.5-0.2-0.6c0-0.3,0.2-0.5,0.3-0.6l0.8-0.6c0,0,0.2,0,0.2-0.2l0.5-0.2l0,0
			l0.5-0.8l1.5-2.1l1.1-1.3l1.2-1.5c0.5-0.6,0.9-1.1,1.4-1.6l1.2-1.1c0.8-0.8,1.5-1.8,2.3-2.8l0.6-0.8c0.3-0.5,0.5-1,1.1-1.5
			c0.6-0.6,1.4-1.3,2.8-2.3l3.6-2.6c1.4-1,2.8-2.1,4.5-3.2c3.1-2.1,6.5-4.1,9.7-5.8l4.6-2.4l10.4-4.9l5.9-2.8
			c2.6-1.3,5.4-2.8,7.9-3.9c3.2-1.5,6-2.6,8.5-3.6c2.3-0.8,4.5-1.6,6.3-2.1l4.6-1.5c4.5-1.5,8.5-2.9,11.6-3.6
			c1.5-0.3,2.6-0.3,3.4-0.3s1.5,0.2,2,0.6c0.2,0.3,0.3,0.8,0.2,1.1C371.6,194.7,371.4,195,371.1,195.3"/>
		<path class="st0" d="M290,244.8c0.3,0,0.6,0.3,0.6,0.6s-0.3,0.6-0.6,0.6c-0.3,0-0.6-0.3-0.6-0.6c0-0.2,0-0.3,0.2-0.3l-0.2,0.2
			c0-0.2,0,0.2,0,0.2l0,0l-0.2-0.5c0-0.2,0.2-0.5,0.3-0.5s0.3,0,0.5,0.2l0.2,0.3l0,0l0,0L290,244.8C290.1,245,289.8,244.8,290,244.8
			 M295.2,225.7c-0.2,0.3-0.5,0.5-0.8,0.3c-0.3-0.2-0.5-0.5-0.3-0.8c0.2-0.2,0.2-0.3,0.3-0.5c0.2-0.2,0.6-0.3,0.8,0
			c0.2,0.2,0.2,0.3,0.2,0.5c0,0.3,0,0.6,0,1.1c-0.3,2.1-0.9,5.7-2.2,9.4l-1.9,5.8l-0.5,1.8l-0.2,1.1c-0.2,0.3,0,0.8-0.3,1.5
			c-0.2,0.3-0.6,0.3-0.9,0.2c-0.3-0.2-0.3-0.6-0.2-1V245l0.2-0.8l0.2-1.1l0.5-1.9l1.9-5.8c1.1-3.6,1.9-7.1,2.2-9.2l0.2-0.8l0,0
			c0,0,0.2,0.3,0.2,0.2c0,0,0.3,0.2,0.2,0.2s0.5,0,0.3,0C294.9,225.7,295.4,225.5,295.2,225.7l0.2-0.2L295.2,225.7z"/>
		<path class="st0" d="M317.6,211.4c-0.3,0-0.6-0.2-0.6-0.5c0-0.3,0.2-0.6,0.5-0.6c0.5-0.2,1.1,0.2,1.4,0.5c0.3,0.3,0.5,0.8,0.6,1.3
			c0.2,1,0.2,2.3,0.2,3.7c0,2.8-0.5,5.7-0.9,8.3l-1.2,6.2c0,0.2-0.2,0.2-0.2,0.3l-0.3,0.3c-0.2,0.2-0.5,0.2-0.6,0c0,0,0,0,0-0.2
			l-0.2-0.3c0-0.2,0-0.3,0-0.3l1.4-6c0.5-2.6,0.9-5.4,0.9-8c0-1.3,0-2.6-0.2-3.4l-0.3-0.8C317.8,211.4,317.8,211.4,317.6,211.4"/>
		<path class="st0" d="M317.3,220.3c0.2,0.3,0,0.6-0.3,0.8s-0.6,0-0.6-0.3c0,0,0.3,0.3,0.2,0.2c-0.2,0,0.3,0,0.3,0
			c-0.2,0,0.2,0,0.2,0l-0.5,0.5l-1.7,1.9c-0.8,0.8-1.7,1.5-2.5,2.1c-1.1,0.6-1.9,1-2.6,1.6c-0.2,0.2-0.5,0.2-0.6,0
			c-0.2-0.2-0.2-0.3,0-0.5c0.8-1,1.5-1.5,2.3-2.3c0.9-0.6,1.7-1.3,2.5-1.9l1.9-1.8l0.6-0.6c0.2,0,0.3-0.2,0.5-0.2
			C316.9,219.8,317.2,220.2,317.3,220.3"/>
		<path class="st0" d="M370.7,168.9c0.5-0.2,0.8,0.2,0.9,0.6c0.2,0.5-0.2,0.8-0.6,1l-138.1,28.7c-0.5,0.2-0.8-0.2-0.9-0.6
			c-0.2-0.5,0.2-0.8,0.6-1L370.7,168.9z"/>
		<path class="st0" d="M250.1,224.7c0.3,0.2,0.3,0.6,0.2,1c-0.2,0.3-0.6,0.3-0.9,0.2c-0.3-0.2-0.3-0.6-0.2-1
			c0.2-0.2,0.3-0.3,0.6-0.3c0.2,0-0.3,0-0.2,0h-0.2l0.3-0.3c0.2-0.2,0.5-0.2,0.6,0c0.2,0.2,0.2,0.3,0.2,0.5l-0.2,0.3v-0.2v-0.2
			C250.4,225,250.1,224.7,250.1,224.7 M270.8,194.4c0,0.3-0.3,0.5-0.6,0.5c-0.3,0-0.5-0.3-0.5-0.6v-0.8v0.2l0.3,0.2
			c-0.2,0,0.3,0,0.3,0l0,0l-1.4,1.8l-3.4,4.9l-4.3,6.7c-2.3,3.9-4.6,7.6-6.3,10.5l-1.5,2.8c-0.5,0.8-0.6,1.3-0.9,1.8l-0.9,1.6
			l-0.8,1.5l-0.3,0.5l-0.2,0.2l-0.2,0.2c0,0-0.2,0.2-0.5,0.2c-0.3,0-0.6-0.3-0.6-0.5c-0.2-0.3,0.2-0.8,0.5-1
			c0.3-0.2,0.8,0.2,0.9,0.5c0,0.2,0,0.2,0,0.3v-0.3c0,0.2-0.3-0.5-0.2-0.3c0.2,0.2-0.5-0.2-0.3-0.2c0.2,0-0.3,0-0.2,0
			c0.2,0-0.3,0-0.2,0h-0.2l0,0l0.3-0.3l0.8-1.3l0.8-1.6c0.2-0.5,0.5-1.1,0.9-2.1l1.5-2.8c1.7-2.9,3.9-6.7,6.3-10.5l4.3-6.7l3.4-4.9
			c0.8-1,1.2-1.8,1.9-2.1c0.2-0.2,0.5-0.2,0.8,0c0.3,0.2,0.5,0.5,0.5,0.6C270.9,193.4,270.9,193.9,270.8,194.4 M250.4,225.3
			c0,0.5-0.3,0.8-0.8,0.8c-0.5,0-0.8-0.3-0.8-0.8s0.3-0.8,0.8-0.8C250.1,224.5,250.4,224.9,250.4,225.3"/>
		<path class="st0" d="M241.1,215.8c-0.3,0.2-0.6,0.2-0.8,0c-0.2-0.3-0.2-0.6,0-0.8c0.3-0.2,0.6-0.2,0.8,0c0.2,0.2,0.2,0.3,0.2,0.5
			c0,0.2,0-0.3,0-0.2c0,0.2-0.2-0.3-0.2-0.2c0,0.2-0.2-0.2-0.2-0.2h-0.2l0,0h0.2l1.2-0.3c0.2,0,0.5,0,0.5,0.3c0,0.2,0,0.5-0.2,0.5
			l-1.2,0.6L241.1,215.8L241.1,215.8L241.1,215.8C241.1,215.8,241.3,215.6,241.1,215.8 M258.1,210.3c0,0.3-0.3,0.6-0.6,0.6
			c-0.3,0-0.5-0.3-0.6-0.6l0.2,0.2h-0.2c-0.3,0-1.1,0.2-1.9,0.5c-1.7,0.6-3.7,1.6-5.7,2.4c-2,0.8-3.9,1.3-5.4,1.8l-1.9,0.6l-0.8,0.2
			h-0.2h-0.3c-0.2,0-0.3,0-0.3-0.2c-0.5-0.3-0.3-0.6-0.2-0.8l0.2-0.2l0.3-0.3l0.8-0.5l2.2-0.6c1.4-0.5,3.2-1,5.3-1.6
			c2-0.8,4.2-1.6,5.9-2.3c0.8-0.3,1.5-0.5,2.2-0.5c0.3,0,0.6,0,0.9,0.3C258,209.4,258.1,209.9,258.1,210.3"/>
		<path class="st0" d="M286.4,186.9c0.3,0,0.5,0.3,0.5,0.6c0,0.3-0.3,0.5-0.6,0.5h-0.5l-0.2,0.2c-0.2,0.2-0.2,0.6-0.3,1.3
			c-0.2,1.3-0.2,2.9-0.8,5.8l-1.2,4.5l-2.8,9.4l-1.7,6.8c-0.3,1.6-0.6,2.9-0.6,3.9c-0.2,1.1-0.5,2.1-1.1,2.6
			c-0.3,0.2-0.8,0.3-1.1,0.3l-1.2-0.3c-0.2,0-0.3-0.3-0.3-0.5c0-0.2,0.3-0.3,0.5-0.3l0.9,0.2l0.3-0.2c0.2-0.2,0.3-0.6,0.3-1.8
			c0.2-1,0.3-2.4,0.6-4.1l1.7-7l2.8-9.4l1.4-4.4c0.8-2.8,0.8-4.2,0.9-5.7c0-0.6,0.2-1.3,0.6-1.8c0.2-0.3,0.5-0.5,0.8-0.6
			C285.6,186.7,285.9,186.7,286.4,186.9"/>
		<path class="st0" d="M277.1,217.6c-0.2,0.3-0.5,0.5-0.8,0.5c-0.3-0.2-0.5-0.3-0.5-0.6l0,0c0-0.2,0.3,0.3,0.3,0.2c0,0,0.2,0,0,0
			l-0.3,0.2c-0.5,0.2-1.4,0.8-2.3,1.5l-3.1,2.6l-7.3,6.3l-4.6,4.2l-3.2,3.1l-0.8,1l-0.2,0.2l0,0l0,0v-0.2c0,0,0-0.3,0-0.2
			c0,0-0.2-0.3,0-0.2c0,0.2-0.3-0.3-0.2-0.2h-0.2h-0.2h-0.2l1.5-1.5c0.2-0.2,0.5-0.2,0.6,0c0.2,0.2,0.2,0.5,0,0.6l-1.2,1.3l-0.5,0.5
			c0,0-0.2,0.2-0.5,0c-0.3-0.2-0.3-0.3-0.3-0.5c0-0.5,0.2-0.5,0.3-0.6l0.8-1l3.1-3.2l4.5-4.4l7.3-6.3l3.2-2.8
			c0.9-0.8,1.9-1.3,2.6-1.6c0.3-0.2,0.8-0.3,1.1,0c0.2,0.2,0.5,0.3,0.5,0.6L277.1,217.6z"/>
		<path class="st0" d="M268,241.7c-0.2,0.3-0.5,0.5-0.8,0.3c-0.3-0.2-0.5-0.5-0.3-0.8c0.2-0.3,0.5-0.5,0.8-0.3
			c0.2,0,0.3,0.2,0.3,0.5c0,0.2-0.2-0.3-0.2-0.3l-0.2-0.2c0.2,0-0.3,0-0.3,0c0.2,0-0.3,0-0.2,0h-0.2l0,0v-0.2l0.5-1.3
			c0-0.2,0.3-0.3,0.5-0.3c0.2,0,0.3,0.3,0.3,0.5l-0.3,1.3L268,241.7L268,241.7z M273.9,221.3c-0.3,0-0.6-0.3-0.6-0.6
			c0-0.3,0.2-0.5,0.5-0.6c0.2,0,0.5,0,0.6,0.3l0.2,0.5v0.8l-0.6,2.1c-0.6,1.8-1.4,4.1-2.3,6.5s-2,4.9-2.6,6.8
			c-0.3,1.1-0.6,2.1-0.8,2.9l-0.3,1.5c0,0,0-0.2,0,0c0,0.2,0,0.2-0.2,0.3c-0.3,0.3-0.6,0.2-0.8,0.2c-0.3-0.3-0.3-0.5-0.3-0.6v-1.5
			c0.2-1,0.5-2.1,0.8-3.2c0.8-2.1,1.9-4.5,2.8-6.8l2.5-6.5l0.6-1.9v-0.5v0.2c0,0,0.3,0.3,0.2,0.2C273.6,221.1,274,221.3,273.9,221.3
			"/>
		<path class="st0" d="M314.7,183.8c-0.3-0.2-0.5-0.5-0.3-0.8c0.2-0.3,0.5-0.5,0.6-0.3c0.3,0,0.5,0.3,0.6,0.5
			c0.2,0.2,0.2,0.5,0.2,0.8c0,0.5-0.2,1.1-0.3,1.8c-0.5,1.5-1.4,3.4-2.6,5.5c-2.6,4.2-6.5,8.9-9.3,12.7c-1.2,1.8-2.3,3.2-2.6,4.1
			l-0.2,0.3l0,0l-0.2-0.2h0.2l0.8-0.3c0.2-0.2,0.5,0,0.5,0.2c0.2,0.2,0,0.5-0.2,0.5c-0.6,0.3-1.1,0.6-1.5,0.5
			c-0.3-0.2-0.5-0.5-0.5-0.6l0.2-0.8c0.5-1.1,1.4-2.6,2.6-4.4c2.8-3.9,6.3-8.6,9-12.8c1.4-2.1,2.3-3.9,2.6-5.2
			C314.5,184.8,314.7,184.3,314.7,183.8L314.7,183.8L314.7,183.8z"/>
		<path class="st0" d="M286.7,201.3c0,0.3-0.2,0.5-0.5,0.5s-0.5-0.2-0.5-0.5c0-0.3,0.2-0.5,0.5-0.5c0.2,0,0.2,0,0.3,0h-0.2
			c0.2,0-0.2,0-0.2,0l0,0l1.1-0.3c0.2,0,0.5,0,0.5,0.3c0,0.2,0,0.5-0.3,0.5l-1.1,0.5l0,0l0,0l0,0v-0.2
			C286.7,201.5,286.7,201.2,286.7,201.3 M305,196.1c0.3,0,0.6,0.3,0.6,0.6c0,0.3-0.3,0.6-0.6,0.6c-1.4,0-2.6-0.2-4.6,0.2
			c-1.4,0.3-3.2,1-5.3,1.6l-6.2,2.1l-2.5,0.6h-0.2h-0.2c0,0-0.2,0.2-0.3-0.2c-0.2-0.2-0.2-0.3,0-0.5c0.2-0.5,0.2-0.3,0.3-0.3h0.2
			l2.3-0.8l6.3-1.9c2-0.6,3.7-1.3,5.4-1.6C302.3,196,303.7,196.3,305,196.1"/>
		<path class="st0" d="M311.9,195.5c0.2-0.2,0.6-0.3,0.8,0c0.2,0.2,0.2,0.3,0.2,0.5v1.8c0,1.8,0.2,4.2,0.5,6.5
			c0.2,1.6,0.5,2.9,0.8,3.9c0.2,0.5,0.3,0.6,0.5,0.8c0.2,0.2,0.3,0.2,0.6,0c0.2-0.2,0.5,0,0.5,0.2c0,0.2,0,0.3-0.2,0.5
			c-0.5,0.3-0.9,0.3-1.4,0.2c-0.5-0.2-0.8-0.6-1.1-1.1c-0.6-1.1-1.1-2.6-1.4-4.2c-0.3-2.4-0.5-4.9-0.3-6.8
			C311.5,196.9,311.5,196.1,311.9,195.5"/>
		<path class="st0" d="M313,203.1c0.3,0,0.5,0.3,0.5,0.6c0,0.3-0.3,0.5-0.6,0.5l0,0c-0.6-0.2-1.2,0.2-1.9,0.6l-1.7,1.6
			c-0.2,0.2-0.5,0.2-0.6-0.2c-0.2-0.2-0.2-0.5,0-0.5c0.5-0.3,0.9-1.1,1.7-1.6C311.1,203.6,312.1,203,313,203.1"/>
		<path class="st0" d="M368.7,149.7c-0.3,0-0.6-0.2-0.6-0.5c0-0.3,0.2-0.6,0.5-0.6h0.2h0.6l0,0l-0.2-0.5c-0.2-0.2-0.2-0.5,0.2-0.6
			c0.2-0.2,0.5-0.2,0.6,0c0.3,0.3,0.5,0.5,0.5,0.8c0,0.3,0,0.6-0.3,0.8C369.4,149.7,369,149.7,368.7,149.7"/>
		<path class="st0" d="M368.2,147.9c0,0.3-0.3,0.5-0.6,0.3c-0.3,0-0.5-0.3-0.3-0.6c0.2-0.3,0.3-0.5,0.6-0.3c0.2,0,0.3,0.2,0.3,0.3
			v-0.2l-0.2-0.2l0,0C368.4,147.6,368.4,147.8,368.2,147.9c0,0.2-0.2,0.2-0.2,0.3l0,0l0,0L368.2,147.9
			C368.2,148.1,368.2,147.8,368.2,147.9 M368.4,147.8c0,0.3-0.3,0.6-0.6,0.6c-0.3,0-0.6-0.3-0.6-0.6c0-0.3,0.3-0.6,0.6-0.6
			C368,147.1,368.4,147.5,368.4,147.8"/>
		<path class="st0" d="M369.6,147.5c0.2,0.3,0.2,0.6-0.2,0.8c-0.3,0.2-0.6,0.2-0.8-0.2c0,0,0,0,0-0.2c-0.2-0.5,0-0.8,0.2-1l0.5-0.5
			l-0.2,0.2c0,0,0,0.3,0,0.2c0-0.2,0.2,0.3,0.2,0.3c0-0.2,0.2,0.2,0.2,0.2l0,0l-0.5,0.2c-1.4,0.2-3.2,0.3-4.9,0.8
			c-2,0.5-4.8,1.3-7.3,1.8c-2.9,0.5-4.6,0-7.3,0.5c-1.9,0.3-4,1-6.8,1.6l-4.6,1l-8.7,1.5c-3.4,0.5-7,1-10.7,1.5
			c-7.7,0.8-14.5,0.8-21.2,0.6l-7.4-0.2h-7.7c-3.6,0-6.5-0.6-9.3-1.3c-5.9-1.5-12.8-2.3-18.6-3.1c-5.1-0.6-9.9-1.8-13-1.9
			c-1.2,0-2.2,0-2.8,0.2c-1.2,0.3-2.5,1.6-4.3,1.9c-0.8,0.2-1.5,0-2.2,0c-0.9,0-2.2,0.5-3.4,0.8l-2.5,0.6l-1.1,0.3
			c-0.6,0.2-1.2,0.5-1.7,1c-0.3,0.2-0.8,0.5-1.1,0.6c-0.3,0.2-0.5,0-0.8,0c-0.3-0.2-0.5-0.5-0.5-0.6c0-0.2,0-0.3,0-0.3v-0.2
			c0.2-0.2,0.3-0.5,0.5-0.5l0.8-0.5c0.6-0.5,1.2-1,2.2-1.3l1.2-0.3l2.5-0.6c1.2-0.3,2.5-0.8,3.7-0.8h1.9c1.4-0.3,2.5-1.5,4.2-1.9
			c1.1-0.3,2.2-0.3,3.4-0.2c3.4,0.2,8,1.3,13.1,1.9c5.7,0.8,12.7,1.6,18.9,3.1c2.6,0.6,5.4,1.3,8.8,1.5h7.7l7.4,0.2
			c6.5,0.2,13.3,0.2,20.9-0.6c3.6-0.3,7.3-0.8,10.5-1.5l8.7-1.5l4.5-0.8c2.6-0.5,4.9-1.1,6.8-1.5c2.9-0.5,4.8,0.2,7.4-0.3
			c2.3-0.3,5.1-1.1,7.3-1.6c1.9-0.5,3.7-0.5,4.9-0.6c0.5,0,0.6,0,0.9,0.2c0.2,0,0.3,0.2,0.5,0.5c0,0.2,0,0.3-0.2,0.5L369.6,147.5
			l0.3-0.2L369.6,147.5L369.6,147.5z"/>
		<path class="st0" d="M257.2,151.2c-0.3,0.2-0.6,0-0.8-0.2c-0.2-0.2-0.2-0.5,0.2-0.6l-0.2,0.2c0,0,0,0.3,0,0.2c0-0.2,0.2,0.5,0,0.3
			l0.2,0.2c0,0,0.2,0.2,0.2,0l0,0c-0.2,0,0,0,0,0h-0.3l-1.2,0.3c-0.9,0.3-2,1.5-3.6,3.1l-3.6,3.4l-3.7,3.2l-6.2,5.5l-5.9,5l-1.1,1
			l0,0v-0.3c0,0.2-0.2-0.2-0.2-0.2l0,0c0.3,0,1.2-0.2,2.2-0.5c0.2,0,0.5,0,0.5,0.3c0,0.2,0,0.5-0.3,0.5c-1.4,0.5-2.2,1-2.9,0.6
			c-0.2,0-0.5-0.3-0.6-0.6c0-0.3,0.2-0.5,0.2-0.6c0.3-0.5,0.6-0.8,1.2-1.3l5.9-5l6.2-5.5l3.6-3.2l3.6-3.4c1.7-1.6,2.8-2.9,4.2-3.2
			c0.6-0.2,1.1-0.3,1.5-0.3h0.5l0.3,0.2c0,0,0.2,0,0.3,0.3C257.5,150.7,257.3,151,257.2,151.2"/>
		<path class="st0" d="M284.7,158.3c0.2,0.3,0,0.6-0.3,0.8c-0.3,0.2-0.6,0-0.8-0.3l0,0l-0.5,0.2c-0.6,0.3-1.7,1.1-3.2,2.3l-6.2,4.9
			l-15.9,12.8l-5.3,4.4l-2.2,1.8l-0.6,0.5l-0.5,0.2h-0.5c-0.3-0.2-0.5-0.6-0.5-0.8l0.2-0.3c0.2-0.2,0.3-0.3,0.5-0.3l0.9-0.5
			c0.2-0.2,0.5,0,0.6,0.2c0.2,0.2,0,0.3,0,0.5l-0.3,0.5v0.2l0,0c0,0,0-0.3,0-0.2c0,0.2,0,0.5,0,0.6v-0.2c0,0,0-0.3,0-0.2
			c0,0.2-0.2-0.5,0-0.3c0,0.2-0.3-0.3-0.2-0.3c0,0-0.3-0.2-0.2-0.2c0.2,0-0.3,0-0.3,0h-0.2h-0.2l0,0l0.5-0.3l2.2-1.8l5.3-4.4
			l15.9-12.8l6.2-4.9c1.7-1.1,2.8-1.9,3.7-2.3c0.5-0.2,0.8-0.3,1.2-0.2C284.2,157.7,284.6,158,284.7,158.3"/>
		<path class="st0" d="M266.8,151.7c0.3-0.2,0.6-0.2,0.8,0.2c0.2,0.3,0.2,0.5-0.2,0.8c-0.2,0.2-0.5,0.2-0.6,0.2l-0.5-0.2l-0.6-0.5
			l-1.9-1.9c-0.6-0.6-1.5-1.5-2.5-2.4c-1.7-1.9-3.2-5-4.8-7.6c-1.5-2.6-2.9-4.9-4.2-6.3c-1.1-1.1-2.2-1.5-3.4-1.8
			c-1.2-0.3-2.2-0.5-2.6-0.5l0,0l0.2-0.3v0.2l0.5,0.5c0.2,0.2,0.2,0.5,0,0.6c-0.2,0.2-0.3,0.2-0.5,0c-0.5-0.3-0.8-0.6-0.9-1.1
			c-0.2-0.2-0.2-0.6,0-0.8c0.2-0.3,0.5-0.3,0.6-0.5c0.8-0.3,2-0.2,3.1,0c1.4,0.3,3.1,0.8,4.5,2.4c1.4,1.6,2.6,4.1,4.2,6.7
			c1.5,2.8,2.9,5.7,4.5,7.5c0.8,1,1.5,1.6,2.3,2.4l1.7,1.9l0.5,0.5l0,0h-0.2L266.8,151.7z"/>
		<path class="st0" d="M254.7,137.6c-0.2,0.3-0.6,0.3-0.8,0.2c-0.2-0.2-0.3-0.5-0.2-0.8l0,0v-0.2l-0.5-0.6l-1.9-1.8
			c-1.1-1-1.9-2.1-2.9-3.1c-2.2-1.6-6.3-1.9-10.5-1.8c-3.2,0-6,0-8.5-0.3l-2.6-0.5c-1.1-0.2-2.5-0.2-3.6-0.2h-1.4h-0.2h-0.2l0,0
			l0.2-0.2c0,0,0.2-0.5,0.2-0.3v-0.3c0,0.2-0.2-0.3-0.2-0.2l-0.2-0.2l0,0h0.2l0.9,0.2c0.8,0.2,1.9,0.3,2.6,1
			c0.2,0.2,0.2,0.3,0.2,0.6c-0.2,0.2-0.3,0.2-0.5,0.2c-0.6-0.3-1.5-0.5-2.3-0.6h-1.1h-0.5c-0.2,0-0.3,0-0.6-0.3l0.2,0.2
			c-0.2-0.2-0.5-0.5-0.5-0.8s0.2-0.5,0.2-0.6c0.2-0.3,0.5-0.5,0.8-0.5h0.2h1.4c1.1,0,2.5-0.2,3.9,0.2l2.5,0.5
			c2.3,0.3,4.9,0.3,8.2,0.3c4.2,0,8.7,0,11.4,2.3c1.2,1.1,2,2.3,2.9,3.2c0.6,0.6,1.4,1.3,1.9,1.9l0.6,1
			C254.9,136.7,254.9,137.2,254.7,137.6"/>
		<path class="st0" d="M221.2,144.7c-0.2,0.3-0.5,0.3-0.8,0.2c-0.3-0.2-0.3-0.5-0.2-0.8c0.2-0.3,0.5-0.3,0.8-0.2l0,0
			c0.2,0-0.3-0.2-0.2-0.2s-0.2,0-0.2,0c0.2,0-0.2,0-0.2,0l0,0l0.8-0.8c0.2-0.2,0.5-0.2,0.6,0c0.2,0.2,0.2,0.3,0,0.5L221.2,144.7
			L221.2,144.7C221.2,144.7,221.3,144.5,221.2,144.7 M237.9,128.8c0.3,0.2,0.3,0.6,0,0.8c-0.2,0.3-0.6,0.3-0.8,0h-0.2l-0.6,0.2
			c-0.5,0.2-1.2,0.6-2,1.6c-1.5,1.5-3.1,4.1-5.4,6.5c-1.9,1.9-3.9,3.9-5.6,5.2l-1.9,1.5l-0.5,0.3l0,0c-0.3,0.2-0.6,0.2-0.8-0.2
			c0,0-0.2-0.2-0.2-0.3V144l0.2-0.2l0.6-0.5l1.7-1.3c1.5-1.5,3.7-3.2,5.4-5.2c2.2-2.4,3.9-4.9,5.4-6.5c0.9-1,1.7-1.5,2.5-1.8
			l0.9-0.2C237.2,128.5,237.5,128.5,237.9,128.8"/>
		<path class="st0" d="M238.5,127.3c-0.3-0.2-0.5-0.5-0.3-0.8c0.2-0.3,0.3-0.3,0.6-0.3l0,0h-0.2l-0.2,0.2c0.2,0-0.3,0.5-0.2,0.3
			c0-0.2,0,0.3,0,0.3l0,0l-0.2-0.3l-1.9-2.4c-0.8-1.3-1.7-2.9-2.6-4.9c-1.5-2.9-3.1-6.3-4.8-9.4c-1.7-2.9-3.7-5.2-5.3-6.7l-1.4-1.1
			l-0.3-0.2l0,0c0,0,0.3,0,0.2,0s-0.3,0-0.5-0.2h0.2c0,0,0.5,0,0.3,0c-0.2,0,0.5-0.3,0.5-0.2c-0.2,0.2,0.2-0.3,0.2-0.3v-0.2v0.2
			c0.2,0.3,0.6,1.1,1.4,1.9c0.2,0.2,0.2,0.5,0,0.6c-0.2,0.2-0.3,0.2-0.5,0l-1.9-1.8l-0.5-0.5c0-0.2-0.2-0.2-0.2-0.5
			c0-0.3,0.2-0.8,0.5-1c0.2-0.2,0.3-0.2,0.5-0.2c0.6,0,0.9,0.2,1.4,0.5l1.5,1.3c1.7,1.6,3.7,4.1,5.6,7.1c1.9,3.2,3.4,6.7,4.8,9.6
			c0.9,1.9,1.7,3.6,2.5,4.7l1.5,2.6c0.2,0.3,0.5,0.5,0.3,1c0,0.3-0.6,0.6-0.8,0.5L238.5,127.3z"/>
		<path class="st0" d="M293.4,152c0.2,0.3,0,0.6-0.3,0.8c-0.3,0.2-0.6,0-0.8-0.3c-0.5-0.8-1.2-1.5-2.2-2.4c-0.5-0.6-0.8-1.3-1.2-2.3
			c-0.6-1.5-1.5-3.2-2.9-5.4c-0.8-1.1-1.7-2.3-2.6-3.2c-1.2-1.5-2.6-2.6-4-3.7c-2-1.6-3.4-2.8-4.6-3.4l-2-1.3
			c-0.8-0.8-1.4-1.8-1.2-2.6c0-0.5,0.3-0.8,0.6-1.1c0.3-0.3,0.8-0.5,1.4-0.6c0.2,0,0.5,0.2,0.5,0.3c0,0.2,0,0.5-0.3,0.5
			c-0.5,0.2-0.8,0.5-0.9,0.6l-0.2,0.3c0,0.2,0.3,0.6,0.9,1l2,1.3c1.2,0.8,2.8,1.9,4.8,3.6c1.4,1.1,2.8,2.4,4.2,4.1
			c0.9,1.1,2,2.3,2.8,3.6c1.4,2.3,2.2,4.2,2.8,5.5l0.9,2.1C292.1,150,292.9,150.9,293.4,152"/>
		<path class="st0" d="M271.9,126.8c0.2-0.3,0.5-0.5,0.8-0.5s0.5,0.3,0.5,0.6c0,0.2-0.2,0.5-0.3,0.6l-0.5,0.2l-0.8-0.2l-1.7-0.3
			c-1.9-0.3-4.8,0.5-7.4,0c-2.3-0.5-4.2-2.1-6.2-3.7c-1.4-1.1-2.6-1.9-3.2-3.1c0,0,0-0.2-0.2-0.2c-0.2-0.5,0-1,0.2-1.3
			c0.3-0.3,0.6-0.5,0.9-0.6c0.2,0,0.5,0,0.5,0.3c0,0.2,0,0.3-0.2,0.5l-0.2,0.2h0.2l0.2,0.2c0.3,0.5,1.5,1.5,2.9,2.6
			c1.9,1.6,3.7,3.1,5.4,3.6c2.2,0.5,4.9-0.3,7.3,0c0.8,0.2,1.4,0.3,1.9,0.5l0.5,0.2l0,0h-0.2l-0.2,0.2
			C272,126.7,271.9,126.8,271.9,126.8"/>
		<path class="st0" d="M369.4,101.9c0.3,0,0.6,0.3,0.5,0.6l0,0c0,0.3-0.2,0.3-0.3,0.5l-0.2,0.2l-0.8,0.2c-0.6,0-1.4,0.2-2,0
			c-0.2,0-0.2-0.2-0.3-0.2c-0.2-0.2-0.3-0.3-0.3-0.6c0-0.3,0.2-0.5,0.2-0.6c0.2-0.2,0.5-0.2,0.6,0l0,0l-0.2-0.2h-0.2h0.2
			c0.2,0,0.2,0,0.3,0c0.3,0.2,0.9,0.2,1.5,0.2H369.4L369.4,101.9z M369.3,103.2c-0.3,0-0.6-0.3-0.6-0.6c0-0.3,0.2-0.6,0.5-0.6h0.2
			h-0.2c0.3,0,0.6,0.2,0.8,0.5c0,0.3-0.2,0.6-0.5,0.8c-0.3,0-0.6-0.2-0.6-0.5c0-0.2,0.2,0.3,0.2,0.2
			C369,102.8,369.1,103,369.3,103.2L369.3,103.2C369.1,103,369.3,103.2,369.3,103.2L369.3,103.2z"/>
		<path class="st0" d="M370.7,104.3c-0.3,0.2-0.6,0.2-0.8-0.2c-0.2-0.2-0.2-0.5,0-0.8l0,0c0,0-0.2,0.3,0,0.3c0,0,0,0.3,0,0.2
			c0,0,0.2,0.3,0.2,0.2l0.2,0.2h0.2h-0.6l-2.3,0.2c-0.8,0-1.5-0.2-2.3-0.5c-1.1-0.5-1.7-1.5-2.3-1.9c-0.9-0.8-2.5-1.3-4.5-1.6
			c-2-0.3-4.5-0.5-7-0.6c-6-0.6-13-2.4-20.7-3.4c-7-0.8-13.9-1.3-20.7-2.8c-7.4-1.6-16.1-3.6-24.3-6.5c-3.7-1.3-7.1-2.9-10.1-4.5
			l-8.2-4.5c-2.5-1.3-4.9-2.3-7-3.1c-2.5-1-4.3-2.3-5.9-3.1c-0.9-0.5-1.7-1-2.8-1.3c-2.2-0.6-5.1-0.6-7.6-0.8
			c-2.6-0.2-4.2-0.8-5.6-1.1c-1.2-0.3-2.5-0.3-3.7-0.3l-1.7-0.2h-0.2c-0.8-0.3-1.4-0.6-2.2-1c-0.2-0.2-0.3-0.3-0.2-0.6
			c0.2-0.2,0.3-0.2,0.5-0.2c0.8,0.2,1.4,0,2,0h0.2l1.7,0.2c1.2,0,2.6,0,4,0.3c1.5,0.5,2.9,1,5.3,1.1c2.3,0.2,5.4,0,8,0.6
			c1.2,0.3,2.3,0.8,3.2,1.5c1.7,1,3.2,2.1,5.7,3.1c2,0.8,4.5,1.8,7.1,3.2l8.2,4.4c2.9,1.6,6.3,3.1,9.9,4.4c8,2.9,16.5,4.9,24,6.5
			c6.8,1.5,13.6,2.1,20.6,2.9c4,0.5,7.7,1.1,11.3,1.8c3.4,0.6,6.6,1.3,9.6,1.6c5.1,0.5,9.7,0.3,12.4,2.6c0.9,0.8,1.4,1.6,2,1.8
			c0.5,0.3,1.1,0.3,1.7,0.5l2.2,0.2l0.8,0.2c0.2,0,0.5,0.2,0.5,0.6C371,104,370.7,104.1,370.7,104.3"/>
		<path class="st0" d="M242.3,70.9c0.3,0,0.5,0.3,0.5,0.6c0,0.3-0.3,0.5-0.6,0.5c-1.1-0.2-2.2,0.3-3.9,1.1l-2.8,1.5l-9.4,4.9
			c-1.4,0.6-2.6,1.3-3.4,1.6l-0.5,0.2c-0.2,0-0.5,0.2-0.6-0.3c-0.2-0.3,0-0.5,0.2-0.6l0.5-0.5c0.2-0.2,0.5-0.2,0.6,0
			c0.2,0.2,0.2,0.5,0,0.6l-0.3,0.3l0,0v-0.2c0,0-0.2-0.3-0.2-0.2l-0.2-0.2h-0.2l0.3-0.2l3.2-1.6l9.3-5l2.9-1.5
			C239.4,71.2,240.8,70.5,242.3,70.9"/>
		<path class="st0" d="M237.2,42.3c0,0.5-0.5,0.8-1.1,0.8c-0.5,0-0.8-0.5-0.8-1.1c0-0.6,0.5-0.8,1.1-0.8c0.3,0,0.6,0.3,0.8,0.6
			c0,0.2,0-0.2,0-0.2l0,0V42.3l1.4,2.9c0.2,0.2,0,0.5-0.2,0.5c-0.2,0.2-0.5,0-0.5-0.2c-0.8-1.5-1.4-2.3-1.7-2.6l0,0h0.2h0.2h0.2
			c-0.2,0,0.5-0.2,0.3-0.2c-0.2,0,0.3-0.3,0.3-0.2c0,0,0.2-0.3,0.2-0.2C237.2,42.6,237.2,42.1,237.2,42.3 M249.8,68.9
			c0.3,0.2,0.5,0.5,0.3,0.8c-0.2,0.3-0.3,0.5-0.6,0.3c-0.8-0.2-1.2-0.6-1.9-1.5c-0.6-0.8-1.2-2.1-2.2-3.7c-1.1-1.8-2.3-3.9-3.7-6.5
			c-2.3-4.4-4.3-9.4-5.6-12.8c-0.5-1.3-0.6-2.1-0.8-2.8c0-0.2,0-0.2,0-0.3s0-0.5,0.2-0.6l0.3-0.5c0.2-0.2,0.6-0.3,1.1,0
			c0.2,0,0.2,0.2,0.3,0.3l0.2,0.2l0.2,0.3c0,0.2,0,0.2,0.2,0.3l0.8,2.4c1.1,3.4,2.9,8.3,5.1,12.7l3.6,6.5l1.9,3.7
			C249.1,68.4,249.5,68.7,249.8,68.9"/>
		<path class="st0" d="M239.6,94.2c0,0.3-0.3,0.5-0.6,0.3c-0.3,0-0.5-0.3-0.5-0.6c0-0.3,0.3-0.5,0.6-0.3c0.2,0,0.2,0,0.3,0.2
			l-0.2-0.2h-0.2c0.2,0-0.2,0-0.2,0l0,0l0.8-0.5c0.2-0.2,0.5,0,0.6,0.2c0.2,0.2,0,0.5-0.2,0.5l-0.8,0.6l0,0l0,0l0,0
			C239.6,94.4,239.7,94.1,239.6,94.2 M264.5,76.7c0.3,0.2,0.5,0.5,0.3,0.8c-0.2,0.3-0.5,0.5-0.8,0.3c-0.2,0-0.6,0-1.2,0.3l-2.6,1.5
			c-2.3,1.5-5.6,3.4-8.7,5.4c-1.9,1.3-3.6,2.4-4.8,3.6l-3.2,2.9c-0.9,0.8-1.7,1.5-2.3,1.9l-1.5,1c0,0,0.2,0.2-0.5,0
			c-0.2,0-0.3-0.2-0.3-0.3c-0.2-0.5,0-0.5,0-0.5v-0.2l1.4-1.3l2.3-1.9l3.2-2.9c1.4-1.1,2.9-2.4,4.9-3.7c3.1-2.1,6.3-3.9,8.8-5.4
			c1.1-0.6,2-1.1,2.8-1.5C262.9,76.7,263.7,76.4,264.5,76.7"/>
		<path class="st0" d="M269.6,59.8c0.2,0.3,0.2,0.6-0.2,0.8c-0.3,0.2-0.6,0.2-0.8-0.2c-1.1-1.3-1.5-2.3-2.2-3.1
			c-1.1-1.5-3.1-3.2-4.8-4.5c-2.3-1.9-4.6-3.1-6.8-5c-1.5-1.3-2.9-2.8-5.3-4.5c-1.5-1.1-3.6-1.6-5.1-2.4c-0.9-0.5-1.7-1.3-2.2-1.9
			l-0.6-1c-0.2-0.3-0.3-0.8-0.2-1.5c0-0.2,0.2-0.3,0.3-0.5c0.3-0.3,0.6-0.3,0.9-0.3l0.6,0.2l2,1c0.2,0.2,0.3,0.3,0.2,0.5
			c-0.2,0.2-0.3,0.3-0.5,0.2c-0.9-0.3-1.5-0.3-1.9-0.3h-0.2c0,0,0.2-0.2,0.2,0c0,0,0.2-0.5,0.2-0.3c0,0.2,0-0.5,0-0.3
			c0,0.2,0,0.5,0,0.6s0-0.3,0-0.2v-0.2l0,0l0.3,0.6c0.3,0.5,0.9,1.1,1.4,1.5c1.4,0.6,3.4,1.1,5.4,2.6c2.5,1.8,4,3.4,5.4,4.5
			c2,1.8,4.2,2.9,6.6,5.2c1.7,1.6,3.7,3.6,4.8,5.2C268.3,57.6,268.6,58.5,269.6,59.8"/>
		<path class="st0" d="M253.8,16.8c0,0.3-0.3,0.5-0.6,0.5c-0.3,0-0.5-0.3-0.5-0.6l-0.3-0.5l0.2,0.2h0.3c-0.2,0,0.3-0.3,0.3-0.2
			c0,0.2,0-0.3,0-0.3V16c0,0.2,0-0.2,0-0.2l0.2,0.3L253.8,16.8c1.1,2.4,1.7,5,2.2,8.1c0.9,4.9,2.6,9.7,4,13c1.1,2.3,1.4,4.9,2.2,6.8
			c0.3,1,0.8,1.8,1.4,2.6l2,3.1l1.2,2.1c1.7,2.9,3.9,4.5,5.3,7.3c1.4,2.8,1.7,6,2.5,9.7c0.3,1.5,0.6,2.6,1.1,4.1
			c0.5,1.1,1.1,2.4,1.7,3.7c0.3,0.6,0.6,1.3,0.9,2.1l0.2,1v0.2l0,0c0,0-0.3-0.2-0.2-0.2c0.6,0.3,0.9,1,0.6,1.6
			c-0.3,0.6-0.9,1-1.5,0.6c-0.3-0.2-0.6-0.3-0.8-0.6c-0.3-0.5-0.5-1-0.5-1.3l-0.2-0.6l-0.6-1.8c-0.6-1.3-1.2-2.6-1.7-3.9
			c-0.6-1.5-0.9-2.9-1.2-4.4c-0.8-3.9-1.1-7-2.2-9.1c-1.1-2.3-3.2-4.1-5.1-7.3l-1.1-2.1l-2-3.1c-0.6-0.8-1.1-1.8-1.5-2.9
			c-0.9-2.4-1.2-4.9-2.2-6.8c-1.4-3.4-3.2-8.3-4.2-13.5c-0.5-2.9-0.9-5.5-1.9-7.6l-0.5-1c-0.2-0.3-0.5-0.6-0.3-1.3v-0.2l0.5-0.5h0.6
			c0.3,0.2,0.5,0.3,0.6,0.5C253.6,15.7,253.9,16.2,253.8,16.8 M279.1,81.4c0,0.6-0.5,1.3-1.2,1.3c-0.6,0-1.2-0.5-1.2-1.3
			c0-0.6,0.5-1.3,1.2-1.3S279.1,80.8,279.1,81.4"/>
		<path class="st0" d="M369.1,126.7c0.2,0.3,0.2,0.6-0.2,0.8c-0.2,0.2-0.6,0.2-0.8,0c-0.2-0.2-0.6-0.3-1.4-0.3h-3.2
			c-1.9,0-4.2-0.3-7-0.6c-4.8-0.5-11-0.8-16.9-1.8c-2.6-0.5-5.1-1-7.4-1.5l-7.1-1.5l-2.5-0.8l-0.5-0.2h0.2c0,0,0.3-0.2,0.2,0
			c-0.2,0,0.3-0.3,0.3-0.2s0.2-0.3,0.2-0.3c0,0.2-0.2,0.3-0.3,0.5c-0.2,0,0.2-0.3,0.2-0.2c0,0.2,0-0.2,0-0.2l0.2,0.6
			c0,0.2-0.2,0.5-0.3,0.5s-0.3,0-0.5-0.2l-0.6-0.8c-0.2-0.2-0.2-0.3-0.2-0.6c0-0.2,0.2-0.5,0.5-0.6c0.2-0.2,0.5-0.2,0.6-0.2l0.8,0.2
			l2.3,0.6l7.1,1.5c2.3,0.5,4.8,1.1,7.4,1.5c5.9,1,12.1,1.3,16.9,1.8c2.9,0.3,5.1,0.6,6.8,0.6l3.4,0.3
			C368,125.9,368.7,126,369.1,126.7"/>
		<path class="st0" d="M326,120.4c0.2,0.2,0.2,0.6,0,0.8c-0.2,0.2-0.6,0.2-0.8,0c-0.8-0.8-1.4-1.6-2.8-3.1c-1.7-1.8-4.3-4.4-7.3-6.7
			c-1.4-1.1-2.9-2.1-4.6-2.9c-0.9-0.5-1.9-1-2.9-1.3c-1.2-0.3-2.5-0.6-3.7-1c-2-0.5-3.9-0.6-5.4-0.6c-1.4,0-2.6,0.2-3.4,0.5
			l-0.6,0.5l-0.2,0.2c0,0.2,0.2,0.3,0.5,0.6c0.3,0.3,0.8,0.6,1.4,0.8c0.2,0.2,0.3,0.3,0.2,0.5c-0.2,0.2-0.3,0.3-0.5,0.2
			c-0.6-0.3-1.2-0.6-1.5-1c-0.5-0.3-0.8-0.6-0.8-1.1c-0.2-0.5,0-1,0.2-1.3c0.3-0.3,0.6-0.6,1.1-0.8c0.9-0.5,2.2-0.6,3.9-0.8
			c1.7-0.2,3.6,0,5.7,0.3c1.4,0.3,2.6,0.6,4,1c1.1,0.3,2.2,0.8,3.1,1.3c1.7,1,3.2,1.9,4.8,3.2c3.1,2.4,5.6,5,7.3,7
			C324.8,118.7,325.4,119.7,326,120.4"/>
		<path class="st0" d="M299.1,140.5c0,0.3-0.2,0.5-0.3,0.6c-0.3,0-0.5-0.2-0.6-0.3s0.2-0.5,0.3-0.6c0.2,0,0.2,0,0.3,0
			c0.2,0-0.2,0-0.2,0c0.2,0-0.2,0-0.2,0l0.6-0.6c0.2-0.2,0.5-0.2,0.6,0c0.2,0.2,0.2,0.5,0,0.6l-0.8,0.8l0.2-0.2l0,0V140.5
			 M326,125.9c0.3,0,0.6,0.3,0.6,0.6s-0.2,0.6-0.5,0.6c-0.6,0.2-0.9-0.2-1.5-0.3c-0.6-0.2-1.2-0.3-2-0.2c-0.8,0.2-2,0.8-3.7,1.6
			c-2.2,1.1-4.9,2.3-7.4,3.7c-2.9,1.6-5.4,3.6-7.6,5.2l-2.8,2.3l-1.7,1.3l-0.5,0.3l-0.3,0.2h-0.3c-0.2,0-0.3-0.2-0.3-0.3v-0.3
			l0.2-0.3l0.5-0.5l1.4-1.5l2.8-2.4c2.2-1.8,4.8-3.6,7.7-5.4c2.6-1.5,5.4-2.6,7.6-3.6c1.7-0.8,2.9-1.6,4.2-1.8
			C324.3,125.1,326,125.9,326,125.9"/>
		<path class="st0" d="M299.6,103.6c0.3,0,0.6,0.2,0.6,0.5c0,0.3-0.2,0.6-0.5,0.6c-2.2,0.3-3.6-0.2-5.6-1.1l-4-2.1
			c-1.7-1-3.7-1.9-5.7-2.9c-1.9-0.8-3.9-1.3-5.4-1.6c-1.4-0.3-2.5-0.3-3.2-0.3h-0.2l-0.9-0.3c-0.3-0.2-0.5-0.5-0.5-0.6
			c0-0.2,0.2-0.5,0.3-0.5h0.2h0.2l0.8-0.2h0.2c0.8,0,2,0,3.6,0.3c1.7,0.3,3.7,0.8,5.7,1.6c2.2,1,4.2,2.1,5.9,2.9l4,2.1
			C296.6,103.5,297.5,103.8,299.6,103.6"/>
		<path class="st0" d="M285.8,101.5c0.2,0.3,0,0.6-0.3,0.8c-0.3,0.2-0.6,0-0.8-0.3l0.2,0.2h-0.3l-1.5,0.5c-1.4,0.6-3.2,1.5-5.1,2.4
			c-2.2,1-4.3,1.9-6.2,2.6c-0.9,0.3-1.7,0.3-2.3,0.3c-0.3,0-0.6-0.2-0.9-0.3c-0.3-0.2-0.3-0.5-0.5-0.8c0-0.2,0.2-0.5,0.3-0.5
			s0.5,0.2,0.5,0.3l0.2,0.2l0.5,0.2c0.5,0,1.1-0.2,1.9-0.5c1.7-0.6,3.7-1.6,5.9-2.8c1.9-1,3.7-1.8,5.3-2.4c0.8-0.3,1.4-0.5,2-0.5
			c0.3,0,0.6,0,0.8,0C285.3,100.9,285.6,101.2,285.8,101.5"/>
		<path class="st0" d="M295.5,129.8c-0.2,0.3-0.6,0.5-0.9,0.3c-0.3-0.2-0.5-0.6-0.3-1c0.2-0.3,0.6-0.5,0.9-0.3
			c0.2,0.2,0.3,0.3,0.3,0.6c0,0.2,0-0.2,0-0.2c0,0.2-0.2-0.2-0.2-0.2l-0.2-0.2l0,0l1.5,0.8c0.2,0.2,0.3,0.3,0.2,0.6
			c-0.2,0.2-0.3,0.3-0.5,0.2l-1.5-0.5l0,0c0,0,0.3-0.2,0.2,0h0.2L295.5,129.8C295.5,129.9,295.7,129.6,295.5,129.8 M309.3,129.9
			c0,0.2-0.2,0.5-0.3,0.5c-0.3,0.2-0.2,0-0.3,0h-0.2h-1.1l-4.2,0.2c-1.7,0-3.7,0.2-5.4,0c-1.5,0-2.8-0.3-3.2-0.5
			c-0.2,0-0.2-0.2-0.3-0.2l-0.3-0.3c0-0.2-0.2-0.2-0.2-0.6c0-0.2,0.2-0.3,0.2-0.5c0.3-0.3,0.3-0.2,0.5-0.3h0.3c0.2,0,0.2,0,0.3,0
			c0.3,0.2,1.5,0.3,2.8,0.5c1.5,0.2,3.6,0,5.3,0l4.2,0.2l1.1,0.2h0.2h0.2C309.1,129.4,309.3,129.4,309.3,129.9 M308.5,130.6
			c-0.3,0-0.6-0.3-0.6-0.6c0-0.3,0.2-0.5,0.5-0.6l0,0h-0.2l-0.2,0.2l-0.2,0.2v0.2c0,0,0,0.3,0,0.2c0-0.3,0.2-0.6,0.5-0.8
			c0.3,0,0.6,0.2,0.8,0.5c0,0.3-0.2,0.6-0.5,0.8C308.7,130.6,308.7,130.6,308.5,130.6C308.5,130.6,308.7,130.6,308.5,130.6
			L308.5,130.6z"/>
		<path class="st0" d="M315,131.9c0.2,0.2,0.2,0.6,0,0.8c-0.2,0.2-0.6,0.2-0.8,0c-0.2-0.2-0.3-0.2-0.5-0.2c-0.2,0-0.5,0.2-0.8,0.3
			c-0.8,0.5-1.5,1.3-2.2,2.4c-1.4,2.1-2.5,5-2.3,8.1c0,1.1,0,2.1,0.3,3.1c0,0.2-0.2,0.5-0.3,0.5s-0.3,0-0.5-0.2
			c-0.5-1-0.8-2.1-0.9-3.2c-0.2-3.4,0.9-6.7,2.5-9.1c0.9-1.3,1.9-2.3,2.8-2.8c0.5-0.3,0.9-0.5,1.4-0.5
			C314.1,131.4,314.5,131.6,315,131.9"/>
		<path class="st0" d="M371,66.4c0.3,0.2,0.3,0.5,0.2,0.8s-0.5,0.3-0.8,0.2c-0.3-0.2-0.9-0.3-2.2-0.2l-5.7,0.5l-7.9,0.8l-6.2,0.3
			c-4,0.2-8.7,0.3-13.5,0.8c-4,0.3-7.6,0.5-10.5,0.6c-2.9,0-5.4,0-7.4-0.2l-5.1-0.3c-0.2,0-0.3,0-0.3-0.2c-0.2-0.2-0.3,0-0.5-0.3
			v-0.2c-0.2-0.6,0.3-0.6,0.5-0.8c0.2,0,0.3-0.2,0.3-0.2h2l3.4,0.2c2,0.2,4.5,0.2,7.3,0.2c2.9,0,6.5-0.2,10.5-0.5
			c4.8-0.5,9.4-0.6,13.5-0.8l6.2-0.3l7.9-0.6c2.5-0.2,4.3-0.3,5.9-0.3C369.4,66,370.4,66.1,371,66.4"/>
		<path class="st0" d="M315.6,46.3c-0.2,0.5-0.6,0.8-1.1,0.8c-0.5-0.2-0.8-0.6-0.8-1.1c0-0.2,0.2-0.3,0.2-0.5l0.2-0.2
			c0,0,0.2-0.2,0.3-0.2c0.5-0.2,0.6,0,0.8,0l0.6,0.2l1.4,0.5c0.9,0.2,1.9,0.5,2.6,1c0.2,0.2,0.3,0.3,0.2,0.6
			c-0.2,0.2-0.3,0.3-0.6,0.2c-0.6-0.3-1.5-0.6-2.3-0.8h-1.2h-0.3c0,0,0.2-0.2,0.2,0c0,0,0.2-0.3,0.2-0.2
			C315.5,46.6,315.6,46.2,315.6,46.3c0,0,0,0.2-0.2,0.3C315.5,46.6,315.6,46.2,315.6,46.3 M339.6,67.7c0.3,0,0.5,0.3,0.5,0.6
			c0,0.3-0.3,0.5-0.6,0.5c-1.2-0.2-1.9-1.1-2.8-1.9c-0.6-0.5-1.7-1.1-3.1-1.8c-1.4-0.6-2.9-1.6-4.5-2.8c-1.7-1.3-3.2-3.1-4.8-5
			c-1.4-1.6-2.6-3.4-3.9-5c-1.2-1.5-2.6-2.8-3.7-3.7l-1.7-1.3l-0.5-0.3l-0.2-0.2l-0.2-0.2c-0.2-0.2-0.5-0.3-0.5-1
			c0-0.5,0.5-1,1.1-0.8c0.3,0,0.6,0.3,0.8,0.5c0,0.2-0.3-0.3-0.2-0.3c0.2,0.2-0.3-0.2-0.2-0.2h-0.2l0,0l0.3,0.2l0.9,0.5
			c0.3,0.3,1.1,0.8,1.9,1.5c1.1,1,2.5,2.3,3.9,4.1c1.2,1.6,2.5,3.4,3.9,5c1.5,1.9,3.1,3.6,4.5,4.7c2.9,2.4,5.7,3.2,7.4,4.9
			C338.7,66.9,339.1,67.6,339.6,67.7"/>
		<path class="st0" d="M334.6,72.4c0.3,0,0.5,0.3,0.5,0.6c0,0.3-0.3,0.5-0.6,0.5c-0.9-0.2-2,0.2-3.6,0.6c-1.7,0.6-3.6,1.5-5.1,2.1
			l-1.4,0.3c-0.2,0-0.5,0-0.8,0c-0.3-0.2-0.6-0.5-0.6-0.8c0-0.2,0-0.3,0-0.5l0.5-0.5l0.6-0.6c0.2-0.2,0.5-0.2,0.6,0
			c0.2,0.2,0.2,0.3,0,0.5l-0.3,0.6l0,0v-0.2c0,0-0.2-0.3-0.2-0.2c0.2,0.2,0.2,0.3,0.3,0.5c0,0.2-0.3-0.3-0.2-0.3s-0.3-0.2-0.2-0.2
			l0,0l1.1-0.3c1.5-0.5,3.4-1.5,5.3-1.9C332.2,72.4,333.4,72.1,334.6,72.4"/>
		<path class="st0" d="M369.4,47.2c-0.3,0.2-0.6,0-0.8-0.3c-0.2-0.3,0-0.6,0.3-0.8c0,0,0,0,0.2,0l0.6-0.2l0,0l0,0V46l0.2,0.3l0,0
			h-0.3l-1.4-0.2l-4.3-0.6c-1.5-0.2-3.6-0.3-5.6-0.8c-2.2-0.3-4.3-1.1-6.5-1.6c-2.5-0.6-4.8-1.1-6.8-1.8c-1.4-0.5-2.3-1.1-3.2-1.6
			c-1.1-0.5-2-1-3.6-1.3c-2.2-0.5-4.9-0.6-8-0.6c-1.9,0-3.6-0.3-5.3-0.5c-2.5-0.3-5.1-0.6-7.7-1c-3.6-0.6-7.1-1.5-10.4-2.4
			c-2.6-0.6-4.8-1.5-7-1.9c-3.2-0.8-6.3-0.8-8.8-1l-3.1-0.2h-0.8c-0.3,0-0.6,0-1.1-0.5c-0.6-0.6-0.6-1.3-0.5-1.6l0.3-0.8
			c0.3-0.5,0.6-0.8,0.9-1.1c0.6-0.5,1.2-0.6,1.9-0.8c0.3,0,0.8,0,1.1,0.3c0.3,0.2,0.5,0.5,0.5,0.8c0.2,0.5,0,1.1-0.5,1.6
			c-0.5,0.5-0.9,0.3-1.2,0.3H288c-0.2,0-0.2,0-0.3,0l0,0c-0.2,0-0.3,0-0.6-0.2c-0.3-0.2-0.5-0.3-0.6-0.6l-0.3-1
			c0-0.2,0.2-0.5,0.3-0.5s0.3,0,0.5,0.2l0.3,0.5l0,0H287l0,0c0.2-0.2,0.3-0.3,0.6-0.3c0.2,0,0.2,0,0.3,0h0.6l0,0c0,0-0.2,0.2-0.2,0
			c0,0-0.3,0.3-0.3,0.2l-0.2,0.3c0-0.2,0.2,0.3,0,0.3l0.2,0.2l0.3,0.2c-0.2,0,0.5,0,0.3,0c-0.2,0,0.3,0,0.3,0l-0.8,0.5l-0.5,0.6l0,0
			v-0.2V29c0,0.2-0.2-0.5,0-0.3c0,0.2-0.5-0.5-0.3-0.5c0,0,0.2,0,0.2,0.2s-0.3-0.2-0.2-0.2h-0.2h0.2l0.8,0.2l2.9,0.3
			c2.5,0.2,5.7,0.2,9.3,1.1c2.3,0.6,4.5,1.5,7,2.1c3.2,0.8,6.8,1.6,10.2,2.3c2.6,0.5,5.1,0.6,7.6,1c1.7,0.2,3.4,0.5,5.1,0.5
			c3.1,0,6,0.2,8.5,0.6c1.9,0.5,3.1,1.1,4.2,1.6c1.1,0.6,2,1.3,2.9,1.8c1.7,0.6,4,1.3,6.6,1.9c2.2,0.6,4.2,1.3,6.2,1.8l5.6,0.8
			l4.3,0.8l1.5,0.6l0.5,0.3c0.2,0.2,0.3,0.3,0.2,0.6v-0.5c0.2,0.2,0.2,0.3,0.2,0.5l-0.3,0.3L369.4,47.2z"/>
		<path class="st0" d="M267.5,1.2c-0.3,0.2-0.8,0.2-0.9-0.2c-0.2-0.3-0.2-0.8,0.2-1s0.8-0.2,0.9,0.2c0.2,0.2,0.2,0.5,0,0.6
			c0,0.2,0-0.3,0-0.3c0,0.2,0-0.2,0-0.2V0.3l0,0l1.7,1.6c0.2,0.2,0.2,0.5,0,0.6c-0.2,0.2-0.3,0.2-0.5,0.2l-2-1.3l0,0l0,0h0.2h0.2
			C267.2,1.2,267.7,1.1,267.5,1.2 M286.1,26.7c0.3,0.2,0.3,0.5,0.2,0.8c-0.2,0.3-0.5,0.3-0.8,0.2c-1.1-0.8-2.5-1.9-4.2-4.1
			c-1.2-1.5-2.5-3.6-3.9-5.8c-2.8-4.4-5.6-9.7-8-13.1c-1.2-1.8-2.2-2.8-2.6-3.2l-0.2-0.2l-0.2-0.3c0-0.2-0.3-0.2,0-0.6
			c0-0.2,0.2-0.3,0.3-0.3c0.5-0.3,0.5-0.2,0.6,0l0.3,0.2l0.2,0.2c0.5,0.5,1.5,1.6,2.8,3.6c2.5,3.7,5.3,9.1,7.9,13.5
			c1.4,2.3,2.6,4.2,3.7,5.7C283.9,24.9,285.2,25.9,286.1,26.7"/>
		<path class="st0" d="M283.3,29c0,0.3-0.3,0.5-0.6,0.5c-0.3,0-0.5-0.3-0.5-0.6l-0.2-0.5l-0.8-0.8c-0.8-0.6-2-1.3-3.6-1.8
			c-2.9-0.8-7.1-1-10.4-0.3c-1.1,0.2-2,0.3-2.6,0.6l-0.6,0.5l-0.2,0.3c0,0.2-0.2,0.5-0.3,0.5s-0.3-0.2-0.5-0.3
			c-0.2-0.3,0-0.8,0.2-1.1s0.5-0.6,0.8-1c0.8-0.5,1.7-0.8,2.9-1.1c3.6-0.6,7.9-0.5,11.1,0.5c1.7,0.5,3.1,1.3,4,2.1
			c0.5,0.3,0.8,0.8,1.1,1.1C283.3,28.2,283.5,28.5,283.3,29"/>
		<path class="st0" d="M312.5,38.1c0.2,0.3,0.2,0.6-0.2,0.8s-0.6,0.2-0.8,0c-0.6-0.8-1.2-1.1-2.8-0.6c-0.9,0.2-2.2,0.8-3.7,1.6
			c-3.7,1.8-8.7,4.1-12.8,6.5c-2,1.1-3.9,2.3-5.1,3.2c-0.6,0.5-1.1,1-1.4,1.3c-0.3,0.3-0.3,0.6-0.3,0.6c0,0.2-0.2,0.5-0.3,0.5
			s-0.5,0-0.5-0.3c-0.2-0.5,0.2-1,0.5-1.5c0.3-0.5,0.9-1,1.5-1.5c1.4-1.1,3.1-2.3,5.3-3.4c4.2-2.4,9.1-4.9,12.7-6.7
			c1.5-0.8,2.8-1.5,3.9-1.8C310.4,36.3,311.8,37.1,312.5,38.1"/>
	</g>
	<rect x="200" y="-4.3" class="st1" width="79.1" height="257.9"/>
	<rect x="472.3" y="-11.9" class="st1" width="79.1" height="257.9"/>
</g>
<sodipodi:namedview  bordercolor="#666666" borderopacity="1.0" id="base" inkscape:current-layer="layer1" inkscape:cx="284.27627" inkscape:cy="182.72055" inkscape:document-units="mm" inkscape:guide-bbox="true" inkscape:pageopacity="0.0" inkscape:pageshadow="2" inkscape:window-height="995" inkscape:window-maximized="1" inkscape:window-width="2520" inkscape:window-x="20" inkscape:window-y="65" inkscape:zoom="0.99437388" pagecolor="#ffffff" showborder="true" showgrid="false" showguides="true" width="200mm">
	<inkscape:grid  dotted="false" empspacing="4" id="grid815" spacingx="10" spacingy="10" type="xygrid" units="mm">
		</inkscape:grid>
</sodipodi:namedview>
<g id="layer1" transform="translate(0,-177)" inkscape:groupmode="layer" inkscape:label="Layer 1">
</g>
<g>
	<line class="st2" x1="371.1" y1="32.7" x2="371.1" y2="220"/>
	<circle cx="371.1" cy="32.7" r="3.9"/>
	<circle cx="371.1" cy="220" r="3.9"/>
	<circle cx="371.1" cy="126.3" r="3.9"/>
	<text transform="matrix(0.2082 0 0 1 374.9959 21.9848)" class="st3 st4">$\beta_{-1}$</text>
	<text transform="matrix(0.2893 0 0 1 369.534 240.4648)" class="st3 st4">$\beta_{1}$</text>
	<text transform="matrix(0.2956 0 0 1 381.6912 146.5155)" class="st3 st4">$\gamma = \phi(\delta)$</text>
	<text transform="matrix(1 0 0 1 381.6912 222.9814)" class="st3 st4">1</text>
	<text transform="matrix(1 0 0 1 381.2322 130.288)" class="st3 st4">2</text>
	<text transform="matrix(1 0 0 1 381.6912 37.5785)" class="st3 st4">1</text>
	<circle cx="324" cy="121.3" r="3.9"/>
	<path class="st2" d="M371.1,126.3c-12.8,0-20.8-0.8-25.9-1.7c-1.2-0.2-7.7-1.3-17.3-2.9c-1.5-0.2-2.7-0.4-3.5-0.6"/>
	<text transform="matrix(1 0 0 1 331.369 111.477)" class="st3 st4">2</text>
	<text transform="matrix(0.3505 0 0 1 291.8182 124.5312)" class="st3 st4">$\beta_0$</text>
</g>
<path class="st5" d="M371,126.9c-1.8,13-3.1,27.9-3.2,44.3c-0.1,18.5,1.2,35.1,3.2,49.4"/>
<text transform="matrix(0.2853 0 0 1 379.3748 179.8573)" class="st6 st3 st4">$\scriptstyle\phi(\alpha_1,\delta)$</text>
<path class="st7" d="M325.2,121.2c5.1,2.5,13.3,5.8,23.8,6.9c9.1,1,16.8-0.1,22-1.2"/>
<text transform="matrix(0.2853 0 0 1 319.2195 144.9628)" class="st8 st3 st4">$\scriptstyle\phi(\delta, \gamma)$</text>
<path class="st9" d="M371.1,32.7c-4.2,20.8-4.4,35.6-3.6,45.6c0.2,2.5,0.4,8.5,0.9,20.4c0.7,18,0.6,20-1.1,21.9
	c-6.9,7.8-30.9,4.5-39-5.4c-3.7-4.5-6.5-6.1-12.1-9.2c-1-0.6-2.7-1.4-3.6-0.8c-1,0.7-0.8,2.7-0.2,4.2c0.9,2.2,2.9,3,4.6,4.1
	c2,1.2,4.8,3.3,7.4,7.2"/>
<text transform="matrix(0.2853 0 0 1 325.2173 90.048)" class="st10 st3 st4">$\scriptstyle\phi(\gamma, \alpha_{-1})$</text>
<line class="st9" x1="140.4" y1="31.6" x2="140.4" y2="125.3"/>
<line class="st7" x1="140.4" y1="124.9" x2="140.4" y2="171.8"/>
<line class="st5" x1="140.4" y1="172" x2="140.4" y2="218.9"/>
<circle cx="140.4" cy="31.6" r="3.9"/>
<circle cx="140.4" cy="218.8" r="3.9"/>
<circle cx="140.4" cy="125.2" r="3.9"/>
<text transform="matrix(0.2082 0 0 1 101.0199 34.1366)" class="st3 st4">$\alpha_{-1}$</text>
<text transform="matrix(0.2893 0 0 1 110.2153 221.3646)" class="st3 st4">$\alpha_{1}$</text>
<text transform="matrix(0.2956 0 0 1 110.2153 128.7416)" class="st3 st4">$\alpha_0$</text>
<text transform="matrix(1 0 0 1 151.018 221.8705)" class="st3 st4">2</text>
<text transform="matrix(1 0 0 1 150.56 129.1771)" class="st3 st4">2</text>
<text transform="matrix(1 0 0 1 151.019 36.4676)" class="st3 st4">2</text>
<circle cx="140.4" cy="172" r="3.9"/>
<text transform="matrix(1 0 0 1 148.4682 172.0394)" class="st3 st4">4</text>
<text transform="matrix(0.2892 0 0 1 110.2143 177.4886)" class="st3 st4">$\delta$</text>
<g>
	<g>
		<line class="st2" x1="184.1" y1="127.6" x2="247.4" y2="127.6"/>
		<g>
			<path d="M253.5,127.6c-2.8,1.1-6.4,2.9-8.5,4.8l1.7-4.8l-1.7-4.8C247.1,124.8,250.6,126.6,253.5,127.6z"/>
		</g>
	</g>
</g>
<text transform="matrix(1 0 0 1 212.8219 118.9007)" class="st3 st11">$\phi$</text>
<text transform="matrix(1 0 0 1 493.9087 25.9083)" class="st3 st4">$A$</text>
</svg>
