<?xml version="1.0" encoding="utf-8"?>
<!-- Generator: Adobe Illustrator 23.0.3, SVG Export Plug-In . SVG Version: 6.00 Build 0)  -->
<svg version="1.1"
	 id="svg8" inkscape:version="0.92.4 (unknown)" sodipodi:docname="figure.svg" xmlns:cc="http://creativecommons.org/ns#" xmlns:dc="http://purl.org/dc/elements/1.1/" xmlns:inkscape="http://www.inkscape.org/namespaces/inkscape" xmlns:rdf="http://www.w3.org/1999/02/22-rdf-syntax-ns#" xmlns:sodipodi="http://sodipodi.sourceforge.net/DTD/sodipodi-0.dtd" xmlns:svg="http://www.w3.org/2000/svg"
	 xmlns="http://www.w3.org/2000/svg" xmlns:xlink="http://www.w3.org/1999/xlink" x="0px" y="0px" viewBox="0 0 680.3 260.3"
	 style="enable-background:new 0 0 680.3 260.3;" xml:space="preserve">
<style type="text/css">
	.st0{fill:none;stroke:#000000;stroke-miterlimit:10;}
	.st1{font-family:'MyriadPro-Regular';}
	.st2{font-size:14.7332px;}
	.st3{fill:none;stroke:#000000;stroke-miterlimit:10;stroke-dasharray:4.3186,4.3186;}
	.st4{font-size:12.8209px;}
	.st5{font-size:12px;}
</style>
<sodipodi:namedview  bordercolor="#666666" borderopacity="1.0" id="base" inkscape:current-layer="layer1" inkscape:cx="284.27627" inkscape:cy="182.72055" inkscape:document-units="mm" inkscape:guide-bbox="true" inkscape:pageopacity="0.0" inkscape:pageshadow="2" inkscape:window-height="995" inkscape:window-maximized="1" inkscape:window-width="2520" inkscape:window-x="20" inkscape:window-y="65" inkscape:zoom="0.99437388" pagecolor="#ffffff" showborder="true" showgrid="false" showguides="true" width="200mm">
	<inkscape:grid  dotted="false" empspacing="4" id="grid815" spacingx="10" spacingy="10" type="xygrid" units="mm">
		</inkscape:grid>
</sodipodi:namedview>
<g id="layer1" transform="translate(0,-177)" inkscape:groupmode="layer" inkscape:label="Layer 1">
</g>
<ellipse cx="427.3" cy="71.7" rx="2.5" ry="2.6"/>
<line class="st0" x1="427.3" y1="130.6" x2="427.3" y2="72.7"/>
<ellipse cx="427.3" cy="91.3" rx="2.5" ry="2.6"/>
<text transform="matrix(0.9866 0 0 1 434.0549 74.2559)" class="st1 st2">1</text>
<text transform="matrix(0.9866 0 0 1 434.0549 93.8955)" class="st1 st2">2</text>
<ellipse cx="427.3" cy="111" rx="2.5" ry="2.6"/>
<ellipse cx="427.3" cy="130.6" rx="2.5" ry="2.6"/>
<text transform="matrix(0.9866 0 0 1 434.0549 113.5352)" class="st1 st2">1</text>
<text transform="matrix(0.9866 0 0 1 434.0549 133.1758)" class="st1 st2">2</text>
<g>
	<g>
		<line class="st0" x1="427.3" y1="130.6" x2="427.3" y2="132.6"/>
		<line class="st3" x1="427.3" y1="136.9" x2="427.3" y2="160.7"/>
		<line class="st0" x1="427.3" y1="162.9" x2="427.3" y2="164.9"/>
	</g>
</g>
<ellipse cx="427.3" cy="165.1" rx="2.5" ry="2.6"/>
<line class="st0" x1="427.3" y1="224" x2="427.3" y2="166.1"/>
<ellipse cx="427.3" cy="184.7" rx="2.5" ry="2.6"/>
<ellipse cx="427.3" cy="204.4" rx="2.5" ry="2.6"/>
<ellipse cx="427.3" cy="224" rx="2.5" ry="2.6"/>
<text transform="matrix(0.9866 0 0 1 434.0549 184.7451)" class="st1 st2">1</text>
<text transform="matrix(0.9866 0 0 1 434.0549 204.3853)" class="st1 st2">2</text>
<text transform="matrix(0.9866 0 0 1 434.0549 224.0249)" class="st1 st2">1</text>
<text transform="matrix(0.9866 0 0 1 434.0549 167.6602)" class="st1 st2">2</text>
<ellipse cx="585.4" cy="71.6" rx="2.5" ry="2.6"/>
<line class="st0" x1="585.4" y1="130.5" x2="585.4" y2="72.6"/>
<text transform="matrix(0.9866 0 0 1 592.1371 74.1285)" class="st1 st2">1</text>
<ellipse cx="585.4" cy="110.9" rx="2.5" ry="2.6"/>
<text transform="matrix(0.9866 0 0 1 592.1371 113.4078)" class="st1 st2">1</text>
<g>
	<g>
		<line class="st0" x1="585.4" y1="130.5" x2="585.4" y2="132.5"/>
		<line class="st3" x1="585.4" y1="136.8" x2="585.4" y2="160.6"/>
		<line class="st0" x1="585.4" y1="162.7" x2="585.4" y2="164.7"/>
	</g>
</g>
<line class="st0" x1="585.4" y1="223.9" x2="585.4" y2="166"/>
<ellipse cx="585.4" cy="184.6" rx="2.5" ry="2.6"/>
<ellipse cx="585.4" cy="223.9" rx="2.5" ry="2.6"/>
<text transform="matrix(0.9866 0 0 1 592.1371 184.6177)" class="st1 st2">1</text>
<text transform="matrix(0.9866 0 0 1 592.1371 223.898)" class="st1 st2">1</text>
<ellipse cx="269.3" cy="71.4" rx="2.5" ry="2.6"/>
<line class="st0" x1="269.3" y1="130.4" x2="269.3" y2="72.5"/>
<ellipse cx="269.3" cy="91.1" rx="2.5" ry="2.6"/>
<text transform="matrix(0.9866 0 0 1 275.9735 74.001)" class="st1 st2">2</text>
<text transform="matrix(0.9866 0 0 1 275.9735 93.6407)" class="st1 st2">2</text>
<ellipse cx="269.3" cy="110.7" rx="2.5" ry="2.6"/>
<ellipse cx="269.3" cy="130.4" rx="2.5" ry="2.6"/>
<text transform="matrix(0.9866 0 0 1 275.9735 113.2803)" class="st1 st2">2</text>
<text transform="matrix(0.9866 0 0 1 275.9735 132.9209)" class="st1 st2">2</text>
<g>
	<g>
		<line class="st0" x1="269.3" y1="130.4" x2="269.3" y2="132.4"/>
		<line class="st3" x1="269.3" y1="136.7" x2="269.3" y2="160.4"/>
		<line class="st0" x1="269.3" y1="162.6" x2="269.3" y2="164.6"/>
	</g>
</g>
<ellipse cx="269.3" cy="164.9" rx="2.5" ry="2.6"/>
<line class="st0" x1="269.3" y1="223.8" x2="269.3" y2="165.9"/>
<ellipse cx="269.3" cy="184.5" rx="2.5" ry="2.6"/>
<ellipse cx="269.3" cy="204.1" rx="2.5" ry="2.6"/>
<ellipse cx="269.3" cy="223.8" rx="2.5" ry="2.6"/>
<text transform="matrix(0.9866 0 0 1 275.9735 184.4903)" class="st1 st2">2</text>
<text transform="matrix(0.9866 0 0 1 275.9735 204.1314)" class="st1 st2">2</text>
<text transform="matrix(0.9866 0 0 1 275.9735 223.771)" class="st1 st2">2</text>
<text transform="matrix(0.9866 0 0 1 275.9735 167.4053)" class="st1 st2">2</text>
<ellipse cx="113.7" cy="71.6" rx="2.5" ry="2.6"/>
<line class="st0" x1="113.7" y1="130.5" x2="113.7" y2="72.6"/>
<ellipse cx="113.7" cy="91.2" rx="2.5" ry="2.6"/>
<text transform="matrix(0.9866 0 0 1 100.3825 82.6107)" class="st1 st2">2</text>
<text transform="matrix(0.9866 0 0 1 120.4117 96.0336)" class="st1 st2">2</text>
<ellipse cx="113.7" cy="110.9" rx="2.5" ry="2.6"/>
<ellipse cx="113.7" cy="130.5" rx="2.5" ry="2.6"/>
<text transform="matrix(0.9866 0 0 1 120.4117 115.6733)" class="st1 st2">2</text>
<text transform="matrix(0.9866 0 0 1 120.4117 135.3139)" class="st1 st2">2</text>
<g>
	<g>
		<line class="st0" x1="113.7" y1="130.5" x2="113.7" y2="132.5"/>
		<line class="st3" x1="113.7" y1="136.8" x2="113.7" y2="160.6"/>
		<line class="st0" x1="113.7" y1="162.7" x2="113.7" y2="164.7"/>
	</g>
</g>
<ellipse cx="113.7" cy="165" rx="2.5" ry="2.6"/>
<line class="st0" x1="113.7" y1="223.9" x2="113.7" y2="166"/>
<ellipse cx="113.7" cy="184.6" rx="2.5" ry="2.6"/>
<ellipse cx="113.7" cy="204.3" rx="2.5" ry="2.6"/>
<ellipse cx="113.7" cy="223.9" rx="2.5" ry="2.6"/>
<text transform="matrix(0.9866 0 0 1 120.4119 184.6177)" class="st1 st2">2</text>
<text transform="matrix(0.9866 0 0 1 120.4119 204.2583)" class="st1 st2">2</text>
<text transform="matrix(0.9866 0 0 1 120.4119 223.898)" class="st1 st2">2</text>
<text transform="matrix(0.9866 0 0 1 120.4119 167.5327)" class="st1 st2">2</text>
<line class="st0" x1="97.9" y1="240.1" x2="113.7" y2="224"/>
<ellipse cx="97.9" cy="240.1" rx="2.5" ry="2.6"/>
<line class="st0" x1="129.5" y1="239.8" x2="113.7" y2="223.8"/>
<ellipse cx="129.5" cy="239.8" rx="2.5" ry="2.6"/>
<text transform="matrix(0.9866 0 0 1 94.9277 257.2914)" class="st1 st4">1</text>
<text transform="matrix(0.9866 0 0 1 127.4311 257.2914)" class="st1 st4">1</text>
<line class="st0" x1="97.5" y1="55.1" x2="113.3" y2="71.2"/>
<ellipse cx="97.5" cy="55.1" rx="2.5" ry="2.6"/>
<line class="st0" x1="129.5" y1="55.4" x2="113.7" y2="71.5"/>
<ellipse cx="129.5" cy="55.4" rx="2.5" ry="2.6"/>
<text transform="matrix(0.9866 0 0 1 94.1608 47.6829)" class="st1 st4">1</text>
<text transform="matrix(0.9866 0 0 1 126.6642 47.682)" class="st1 st4">1</text>
<text transform="matrix(0.6211 0 0 1 94.928 20.0467)" class="st1 st5">$\Delta(\mathscr E_\text{min})$</text>
<text transform="matrix(0.6203 0 0 1 246.9202 20.0467)" class="st1 st5">$\Delta(\mathscr E_\text{min}’)$</text>
<text transform="matrix(0.6203 0 0 1 405.6024 20.0467)" class="st1 st5">$\Delta(\mathscr P’)$</text>
<text transform="matrix(0.6203 0 0 1 569.4504 20.0467)" class="st1 st5">$\Delta(\mathscr P)$</text>
<g>
	<g>
		<line class="st0" x1="231.6" y1="144.4" x2="168.6" y2="144.4"/>
		<g>
			<path d="M162.6,144.4c2.8-1.1,6.4-2.9,8.5-4.8l-1.7,4.8l1.7,4.8C169,147.2,165.4,145.4,162.6,144.4z"/>
		</g>
	</g>
</g>
<g>
	<g>
		<line class="st0" x1="313.8" y1="147.7" x2="376.7" y2="147.7"/>
		<g>
			<path d="M382.8,147.7c-2.8,1.1-6.4,2.9-8.5,4.8l1.7-4.8l-1.7-4.8C376.4,144.9,379.9,146.7,382.8,147.7z"/>
		</g>
	</g>
</g>
<g>
	<g>
		<line class="st0" x1="471.9" y1="147.7" x2="534.8" y2="147.7"/>
		<g>
			<path d="M540.9,147.7c-2.8,1.1-6.4,2.9-8.5,4.8l1.7-4.8l-1.7-4.8C534.5,144.9,538,146.7,540.9,147.7z"/>
		</g>
	</g>
</g>
<text transform="matrix(1 0 0 1 326.5423 135.3139)" class="st1 st5">$\Delta(\psi)$</text>
</svg>
