<?xml version="1.0" encoding="utf-8"?>
<!-- Generator: Adobe Illustrator 23.0.3, SVG Export Plug-In . SVG Version: 6.00 Build 0)  -->
<svg version="1.1"
	 id="svg8" inkscape:version="0.92.4 (unknown)" sodipodi:docname="figure.svg" xmlns:cc="http://creativecommons.org/ns#" xmlns:dc="http://purl.org/dc/elements/1.1/" xmlns:inkscape="http://www.inkscape.org/namespaces/inkscape" xmlns:rdf="http://www.w3.org/1999/02/22-rdf-syntax-ns#" xmlns:sodipodi="http://sodipodi.sourceforge.net/DTD/sodipodi-0.dtd" xmlns:svg="http://www.w3.org/2000/svg"
	 xmlns="http://www.w3.org/2000/svg" xmlns:xlink="http://www.w3.org/1999/xlink" x="0px" y="0px" viewBox="0 0 209.3 191.2"
	 style="enable-background:new 0 0 209.3 191.2;" xml:space="preserve">
<style type="text/css">
	.st0{fill:none;stroke:#020203;stroke-width:2;stroke-linecap:round;stroke-linejoin:round;stroke-miterlimit:10;}
</style>
<sodipodi:namedview  bordercolor="#666666" borderopacity="1.0" id="base" inkscape:current-layer="layer1" inkscape:cx="284.27627" inkscape:cy="182.72055" inkscape:document-units="mm" inkscape:guide-bbox="true" inkscape:pageopacity="0.0" inkscape:pageshadow="2" inkscape:window-height="995" inkscape:window-maximized="1" inkscape:window-width="2520" inkscape:window-x="20" inkscape:window-y="65" inkscape:zoom="0.99437388" pagecolor="#ffffff" showborder="true" showgrid="false" showguides="true" width="200mm">
	<inkscape:grid  dotted="false" empspacing="4" id="grid815" spacingx="10" spacingy="10" type="xygrid" units="mm">
		</inkscape:grid>
</sodipodi:namedview>
<g id="layer1" transform="translate(0,-177)" inkscape:groupmode="layer" inkscape:label="Layer 1">
</g>
<g>
	<defs>
		<rect id="SVGID_1_" x="-439.3" y="-471.1" width="694.8" height="736.5"/>
	</defs>
	<clipPath id="SVGID_2_">
		<use xlink:href="#SVGID_1_"  style="overflow:visible;"/>
	</clipPath>
</g>
<path class="st0" d="M168,162.8l-2-3.1l-2-3l-1.9-2.9l-1.9-2.9l-1.9-2.8l-1.9-2.8l-1.9-2.7l-1.9-2.7l-1.8-2.6l-1.8-2.5l-1.8-2.5
	l-1.8-2.4l-1.8-2.4l-1.8-2.3l-1.8-2.3l-1.7-2.2l-1.7-2.2l-1.7-2.1l-3.4-4.1l-3.3-3.9l-3.2-3.7l-3.2-3.5l-3.1-3.3l-3.1-3.1l-3-2.9
	l-2.9-2.7l-2.9-2.6l-2.8-2.4l-2.8-2.2l-2.7-2l-2.6-1.9l-2.6-1.7l-2.5-1.6l-2.4-1.4L86,72.2l-2.3-1.1l-2.3-1l-2.2-0.9l-2.1-0.7
	L75,67.9l-2-0.5L71,67.1l-1.9-0.2l-1.8-0.1l-1.8,0l-1.7,0.1l-1.6,0.2l-1.6,0.3l-1.5,0.4l-1.5,0.5l-1.4,0.6l-1.3,0.7l-1.3,0.7
	L52.5,71l-1.1,0.9l-1.1,0.9l-1,1l-1,1.1L47.4,76l-0.8,1.2l-0.8,1.2L45,79.7L44.4,81l-0.6,1.4l-0.5,1.4l-0.5,1.4l-0.4,1.4l-0.3,1.5
	l-0.3,1.5l-0.2,1.5l-0.2,1.5l-0.1,1.5l0,1.5l0,1.5l0.1,1.5l0.2,1.5l0.2,1.5l0.3,1.5l0.3,1.5l0.4,1.4l0.5,1.4l0.5,1.4l0.6,1.4
	l0.6,1.3l0.7,1.3l0.8,1.2l0.8,1.2l0.9,1.1l1,1.1l1,1l1.1,0.9l1.1,0.9l1.2,0.8l1.3,0.7l1.3,0.6l1.4,0.6l1.5,0.5l1.5,0.4l1.6,0.3
	l1.6,0.2l1.7,0.1l1.8,0l1.8-0.1l1.9-0.2l1.9-0.3l2-0.5l2.1-0.6l2.1-0.7l2.2-0.9l2.3-1L86,119l2.4-1.3l2.4-1.4l2.5-1.6l2.6-1.7
	l2.6-1.9l2.7-2l2.8-2.2l2.8-2.4l2.9-2.6l2.9-2.7l3-2.9l3.1-3.1l3.1-3.3l3.2-3.5l3.2-3.7l3.3-3.9l3.4-4.1l1.7-2.1l1.7-2.2l1.7-2.2
	l1.8-2.3l1.8-2.3l1.8-2.4l1.8-2.4l1.8-2.5l1.8-2.5l1.8-2.6l1.9-2.7l1.9-2.7l1.9-2.8l1.9-2.8l1.9-2.9l1.9-2.9l2-3l2-3.1"/>
</svg>
