<?xml version="1.0" encoding="utf-8"?>
<!-- Generator: Adobe Illustrator 23.0.3, SVG Export Plug-In . SVG Version: 6.00 Build 0)  -->
<svg version="1.1"
	 id="svg8" inkscape:version="0.92.4 (unknown)" sodipodi:docname="figure.svg" xmlns:cc="http://creativecommons.org/ns#" xmlns:dc="http://purl.org/dc/elements/1.1/" xmlns:inkscape="http://www.inkscape.org/namespaces/inkscape" xmlns:rdf="http://www.w3.org/1999/02/22-rdf-syntax-ns#" xmlns:sodipodi="http://sodipodi.sourceforge.net/DTD/sodipodi-0.dtd" xmlns:svg="http://www.w3.org/2000/svg"
	 xmlns="http://www.w3.org/2000/svg" xmlns:xlink="http://www.w3.org/1999/xlink" x="0px" y="0px" viewBox="0 0 164.8 150.8"
	 style="enable-background:new 0 0 164.8 150.8;" xml:space="preserve">
<style type="text/css">
	.st0{fill:none;stroke:#020203;stroke-width:2.5;stroke-linecap:round;stroke-linejoin:round;stroke-miterlimit:10;}
</style>
<sodipodi:namedview  bordercolor="#666666" borderopacity="1.0" id="base" inkscape:current-layer="layer1" inkscape:cx="284.27627" inkscape:cy="182.72055" inkscape:document-units="mm" inkscape:guide-bbox="true" inkscape:pageopacity="0.0" inkscape:pageshadow="2" inkscape:window-height="995" inkscape:window-maximized="1" inkscape:window-width="2520" inkscape:window-x="20" inkscape:window-y="65" inkscape:zoom="0.99437388" pagecolor="#ffffff" showborder="true" showgrid="false" showguides="true" width="200mm">
	<inkscape:grid  dotted="false" empspacing="4" id="grid815" spacingx="10" spacingy="10" type="xygrid" units="mm">
		</inkscape:grid>
</sodipodi:namedview>
<g id="layer1" transform="translate(0,-177)" inkscape:groupmode="layer" inkscape:label="Layer 1">
</g>
<path class="st0" d="M110.8,136.8l-1-1.4l-1-1.4l-1-1.4l-0.9-1.4l-0.9-1.4l-0.9-1.3l-1.8-2.6l-1.8-2.5l-1.8-2.4l-1.7-2.3l-1.7-2.3
	l-1.7-2.2l-1.7-2.1l-1.6-2l-1.6-2l-1.6-1.9l-1.5-1.8l-1.5-1.7l-1.5-1.7l-1.4-1.6l-1.4-1.5l-1.4-1.5l-1.3-1.4l-1.3-1.3l-1.3-1.3
	L74.2,91L73,89.9l-1.2-1.1l-1.2-1.1l-1.1-1l-1.1-0.9l-1.1-0.9l-1-0.8l-1-0.8l-1-0.8l-1-0.7l-0.9-0.7l-0.9-0.6l-0.9-0.6l-0.8-0.5
	L59,78.9l-0.8-0.5L57.5,78l-0.7-0.4l-0.7-0.4l-0.7-0.3l-0.6-0.3l-0.6-0.3l-0.6-0.2l-0.5-0.2l-0.5-0.2l-0.5-0.2l-0.4-0.2l-0.4-0.1
	l-0.4-0.1L50.6,75l-0.3-0.1L50,74.9l-0.3-0.1l-0.2,0l-0.2,0l-0.2,0l-0.1,0l-0.2,0l0.2,0l0.1,0l0.2,0l0.2,0l0.2,0l0.3-0.1l0.3-0.1
	l0.3-0.1l0.3-0.1l0.4-0.1l0.4-0.1l0.4-0.2l0.5-0.2l0.5-0.2l0.5-0.2l0.6-0.2l0.6-0.3l0.6-0.3l0.7-0.3l0.7-0.4l0.7-0.4l0.7-0.4
	l0.8-0.5l0.8-0.5l0.8-0.5l0.9-0.6l0.9-0.6l0.9-0.7l1-0.7l1-0.7l1-0.8l1-0.8l1.1-0.9l1.1-0.9l1.1-1l1.2-1.1l1.2-1.1l1.2-1.2l1.3-1.2
	l1.3-1.3l1.3-1.3l1.3-1.4l1.4-1.5l1.4-1.5l1.4-1.6l1.5-1.7l1.5-1.7l1.5-1.8l1.6-1.9l1.6-2l1.6-2l1.7-2.1l1.7-2.2l1.7-2.3l1.7-2.3
	l1.8-2.4l1.8-2.5l1.8-2.6l0.9-1.3l0.9-1.4l0.9-1.4l1-1.4l1-1.4l1-1.4"/>
</svg>
