<?xml version="1.0" encoding="utf-8"?>
<!-- Generator: Adobe Illustrator 23.0.3, SVG Export Plug-In . SVG Version: 6.00 Build 0)  -->
<svg version="1.1"
	 id="svg8" inkscape:version="0.92.4 (unknown)" sodipodi:docname="figure.svg" xmlns:cc="http://creativecommons.org/ns#" xmlns:dc="http://purl.org/dc/elements/1.1/" xmlns:inkscape="http://www.inkscape.org/namespaces/inkscape" xmlns:rdf="http://www.w3.org/1999/02/22-rdf-syntax-ns#" xmlns:sodipodi="http://sodipodi.sourceforge.net/DTD/sodipodi-0.dtd" xmlns:svg="http://www.w3.org/2000/svg"
	 xmlns="http://www.w3.org/2000/svg" xmlns:xlink="http://www.w3.org/1999/xlink" x="0px" y="0px" viewBox="0 0 169.4 104.1"
	 style="enable-background:new 0 0 169.4 104.1;" xml:space="preserve">
<style type="text/css">
	.st0{fill:none;stroke:#44AC36;stroke-width:2;stroke-miterlimit:10;}
	.st1{fill:none;stroke:#000000;stroke-width:2;stroke-miterlimit:10;}
	.st2{fill:#2A4795;}
	.st3{font-family:'ArialMT';}
	.st4{font-size:3.1464px;}
</style>
<sodipodi:namedview  bordercolor="#666666" borderopacity="1.0" id="base" inkscape:current-layer="layer1" inkscape:cx="284.27627" inkscape:cy="182.72055" inkscape:document-units="mm" inkscape:guide-bbox="true" inkscape:pageopacity="0.0" inkscape:pageshadow="2" inkscape:window-height="995" inkscape:window-maximized="1" inkscape:window-width="2520" inkscape:window-x="20" inkscape:window-y="65" inkscape:zoom="0.99437388" pagecolor="#ffffff" showborder="true" showgrid="false" showguides="true" width="200mm">
	<inkscape:grid  dotted="false" empspacing="4" id="grid815" spacingx="10" spacingy="10" type="xygrid" units="mm">
		</inkscape:grid>
</sodipodi:namedview>
<g id="layer1" transform="translate(0,-177)" inkscape:groupmode="layer" inkscape:label="Layer 1">
</g>
<line class="st0" x1="-1.5" y1="114.5" x2="47.9" y2="163.9"/>
<line class="st0" x1="6.8" y1="26.4" x2="6.8" y2="83.4"/>
<line class="st0" x1="0" y1="75.9" x2="49.5" y2="75.9"/>
<line class="st0" x1="45.9" y1="26.4" x2="45.9" y2="83.4"/>
<line class="st0" x1="84.9" y1="26.4" x2="84.9" y2="83.4"/>
<line class="st0" x1="124" y1="26.4" x2="124" y2="83.4"/>
<line class="st0" x1="163" y1="26.4" x2="163" y2="83.4"/>
<line class="st1" x1="40.2" y1="30.6" x2="131.2" y2="30.6"/>
<line class="st0" x1="116.9" y1="75.9" x2="169.4" y2="75.9"/>
<text transform="matrix(1 0 0 1 15.1631 94.1042)" class="st2 st3 st4">$\scriptstyle 2$</text>
<text transform="matrix(1 0 0 1 51.4502 64.2179)" class="st2 st3 st4">$\scriptstyle 3$</text>
<text transform="matrix(1 0 0 1 57.3411 24.6909)" class="st2 st3 st4">$\scriptstyle 4$</text>
<text transform="matrix(1 0 0 1 89.6582 56.9952)" class="st2 st3 st4">$\scriptstyle 2$</text>
<text transform="matrix(1 0 0 1 132.9159 94.1044)" class="st2 st3 st4">$\scriptstyle 2$</text>
<text transform="matrix(1 0 0 1 129.0444 63.3912)" class="st2 st3 st4">$\scriptstyle 2$</text>
</svg>
