<?xml version="1.0" encoding="utf-8"?>
<!-- Generator: Adobe Illustrator 23.0.3, SVG Export Plug-In . SVG Version: 6.00 Build 0)  -->
<svg version="1.1"
	 id="svg8" inkscape:version="0.92.4 (unknown)" sodipodi:docname="figure.svg" xmlns:cc="http://creativecommons.org/ns#" xmlns:dc="http://purl.org/dc/elements/1.1/" xmlns:inkscape="http://www.inkscape.org/namespaces/inkscape" xmlns:rdf="http://www.w3.org/1999/02/22-rdf-syntax-ns#" xmlns:sodipodi="http://sodipodi.sourceforge.net/DTD/sodipodi-0.dtd" xmlns:svg="http://www.w3.org/2000/svg"
	 xmlns="http://www.w3.org/2000/svg" xmlns:xlink="http://www.w3.org/1999/xlink" x="0px" y="0px" viewBox="0 0 162.3 103.8"
	 style="enable-background:new 0 0 162.3 103.8;" xml:space="preserve">
<style type="text/css">
	.st0{fill:none;stroke:#47AD38;stroke-width:2;stroke-miterlimit:10;}
	.st1{fill:none;stroke:#020203;stroke-width:2;stroke-miterlimit:10;}
	.st2{fill:#2A4896;}
	.st3{font-family:'ArialMT';}
	.st4{font-size:3.1464px;}
</style>
<sodipodi:namedview  bordercolor="#666666" borderopacity="1.0" id="base" inkscape:current-layer="layer1" inkscape:cx="284.27627" inkscape:cy="182.72055" inkscape:document-units="mm" inkscape:guide-bbox="true" inkscape:pageopacity="0.0" inkscape:pageshadow="2" inkscape:window-height="995" inkscape:window-maximized="1" inkscape:window-width="2520" inkscape:window-x="20" inkscape:window-y="65" inkscape:zoom="0.99437388" pagecolor="#ffffff" showborder="true" showgrid="false" showguides="true" width="200mm">
	<inkscape:grid  dotted="false" empspacing="4" id="grid815" spacingx="10" spacingy="10" type="xygrid" units="mm">
		</inkscape:grid>
</sodipodi:namedview>
<g id="layer1" transform="translate(0,-177)" inkscape:groupmode="layer" inkscape:label="Layer 1">
</g>
<line class="st0" x1="5.9" y1="17.9" x2="5.9" y2="74.9"/>
<line class="st0" x1="0" y1="67.4" x2="43" y2="67.4"/>
<line class="st0" x1="39.8" y1="17.9" x2="39.8" y2="74.9"/>
<line class="st0" x1="73.7" y1="17.9" x2="73.7" y2="74.9"/>
<line class="st0" x1="107.6" y1="17.9" x2="107.6" y2="74.9"/>
<line class="st0" x1="141.5" y1="17.9" x2="141.5" y2="74.9"/>
<line class="st0" x1="35.7" y1="22.1" x2="76.8" y2="22.1"/>
<line class="st1" x1="71.4" y1="67.4" x2="147" y2="67.4"/>
<text transform="matrix(0.8679 0 0 1 13.1597 85.6048)" class="st2 st3 st4">$\scriptstyle 2$</text>
<text transform="matrix(0.8679 0 0 1 44.6528 55.7191)" class="st2 st3 st4">$\scriptstyle 3$</text>
<text transform="matrix(0.8679 0 0 1 49.7656 16.1918)" class="st2 st3 st4">$\scriptstyle 4$</text>
<text transform="matrix(0.8679 0 0 1 77.8135 48.4964)" class="st2 st3 st4">$\scriptstyle 5$</text>
<text transform="matrix(0.8679 0 0 1 115.3569 85.6058)" class="st2 st3 st4">$\scriptstyle 6$</text>
<text transform="matrix(0.8679 0 0 1 111.9966 54.8924)" class="st2 st3 st4">$\scriptstyle 3$</text>
<line class="st0" x1="135.7" y1="22.1" x2="162.3" y2="22.1"/>
<text transform="matrix(0.8679 0 0 1 147.0215 54.892)" class="st2 st3 st4">$\scriptstyle 2$</text>
<text transform="matrix(0.8679 0 0 1 148.1055 15.0389)" class="st2 st3 st4">$\scriptstyle 2$</text>
</svg>
