<?xml version="1.0" encoding="utf-8"?>
<!-- Generator: Adobe Illustrator 23.0.3, SVG Export Plug-In . SVG Version: 6.00 Build 0)  -->
<svg version="1.1"
	 id="svg8" inkscape:version="0.92.4 (unknown)" sodipodi:docname="figure.svg" xmlns:cc="http://creativecommons.org/ns#" xmlns:dc="http://purl.org/dc/elements/1.1/" xmlns:inkscape="http://www.inkscape.org/namespaces/inkscape" xmlns:rdf="http://www.w3.org/1999/02/22-rdf-syntax-ns#" xmlns:sodipodi="http://sodipodi.sourceforge.net/DTD/sodipodi-0.dtd" xmlns:svg="http://www.w3.org/2000/svg"
	 xmlns="http://www.w3.org/2000/svg" xmlns:xlink="http://www.w3.org/1999/xlink" x="0px" y="0px" viewBox="0 0 680.3 310.2"
	 style="enable-background:new 0 0 680.3 310.2;" xml:space="preserve">
<style type="text/css">
	.st0{fill:none;stroke:#000000;stroke-miterlimit:10;}
	.st1{font-family:'MyriadPro-Regular';}
	.st2{font-size:12px;}
	.st3{fill:none;}
	.st4{fill:none;stroke:#000000;stroke-width:0.5;stroke-miterlimit:10;}
	.st5{fill:none;stroke:#C60C0E;stroke-miterlimit:10;}
	.st6{fill:#C60C0E;}
</style>
<sodipodi:namedview  bordercolor="#666666" borderopacity="1.0" id="base" inkscape:current-layer="layer1" inkscape:cx="284.27627" inkscape:cy="182.72055" inkscape:document-units="mm" inkscape:guide-bbox="true" inkscape:pageopacity="0.0" inkscape:pageshadow="2" inkscape:window-height="995" inkscape:window-maximized="1" inkscape:window-width="2520" inkscape:window-x="20" inkscape:window-y="65" inkscape:zoom="0.99437388" pagecolor="#ffffff" showborder="true" showgrid="false" showguides="true" width="200mm">
	<inkscape:grid  dotted="false" empspacing="4" id="grid815" spacingx="10" spacingy="10" type="xygrid" units="mm">
		</inkscape:grid>
</sodipodi:namedview>
<g id="layer1" transform="translate(0,-177)" inkscape:groupmode="layer" inkscape:label="Layer 1">
</g>
<g>
	<line class="st0" x1="468.5" y1="38.4" x2="468.5" y2="295.5"/>
	<circle cx="468.5" cy="38.4" r="2.3"/>
	<text transform="matrix(1 0 0 1 475.8396 36.0462)" class="st1 st2">$b$</text>
	<circle cx="468.3" cy="86" r="2.3"/>
	<text transform="matrix(1 0 0 1 475.9386 80.3473)" class="st1 st2">$\beta_{-1}$</text>
	<circle cx="468.6" cy="247.9" r="2.3"/>
	<text transform="matrix(1 0 0 1 478.9327 264.0233)" class="st3 st1 st2">$\beta_{2n-4v(2)-1}$</text>
	<circle cx="468.4" cy="295.6" r="2.3"/>
	<text transform="matrix(1 0 0 1 475.9387 295.5655)" class="st1 st2">$a$</text>
	<g>
		<g>
			<line class="st4" x1="456.6" y1="248.4" x2="456.6" y2="295"/>
			<g>
				<polygon points="454.5,250.1 454.9,250.4 456.6,248.6 458.2,250.4 458.6,250.1 456.6,247.9 				"/>
			</g>
			<g>
				<polygon points="454.5,293.4 454.9,293 456.6,294.8 458.2,293 458.6,293.4 456.6,295.5 				"/>
			</g>
		</g>
	</g>
	<g>
		<g>
			<line class="st4" x1="456.6" y1="38.9" x2="456.6" y2="85.5"/>
			<g>
				<polygon points="454.5,40.5 454.9,40.9 456.6,39.1 458.2,40.9 458.6,40.5 456.6,38.3 				"/>
			</g>
			<g>
				<polygon points="454.5,83.8 454.9,83.5 456.6,85.3 458.2,83.5 458.6,83.8 456.6,86 				"/>
			</g>
		</g>
	</g>
	<text transform="matrix(0.3348 0 0 1 431.5717 64.9128)" class="st1 st2">$\scriptstyle v(2)$</text>
	<g>
		<g>
			<line class="st4" x1="481.1" y1="86.6" x2="481.1" y2="247.3"/>
			<g>
				<polygon points="479,88.2 479.4,88.6 481.1,86.8 482.8,88.6 483.1,88.2 481.1,86 				"/>
			</g>
			<g>
				<polygon points="479,245.7 479.4,245.3 481.1,247.1 482.8,245.3 483.1,245.7 481.1,247.9 				"/>
			</g>
		</g>
	</g>
	<text transform="matrix(0.4918 0 0 1 485.3734 162.9192)" class="st1 st2">$\scriptstyle n - 2v(2)$</text>
	<text transform="matrix(0.3348 0 0 1 431.5717 271.7151)" class="st1 st2">$\scriptstyle v(2)$</text>
</g>
<text transform="matrix(1 0 0 1 448.1479 12.4203)" class="st1 st2">$\sk(\mathscr P)$</text>
<circle cx="192.4" cy="86" r="2.3"/>
<circle cx="192.7" cy="247.9" r="2.3"/>
<line class="st0" x1="192.4" y1="86" x2="192.7" y2="247.9"/>
<text transform="matrix(1 0 0 1 186.3285 79.281)" class="st1 st2">$\alpha_{-1}$</text>
<text transform="matrix(1 0 0 1 186.3285 264.0238)" class="st1 st2">$\alpha_{2n - 4v(2)-2}$</text>
<text transform="matrix(1 0 0 1 176.0716 12.4203)" class="st1 st2">$\sk(E)$</text>
<g>
	<g>
		<line class="st0" x1="265.5" y1="162.9" x2="363.1" y2="162.9"/>
		<g>
			<path d="M369.1,162.9c-2.8,1.1-6.4,2.9-8.5,4.8l1.7-4.8l-1.7-4.8C362.7,160.1,366.3,161.9,369.1,162.9z"/>
		</g>
	</g>
</g>
<text transform="matrix(1 0 0 1 294.7571 153.2555)" class="st1 st2">$\phi$</text>
<line class="st5" x1="468.1" y1="86" x2="468.4" y2="247.9"/>
<text transform="matrix(1 0 0 1 382.3174 138.0422)" class="st6 st1 st2">$\phi(\sk(E))$</text>
</svg>
