<?xml version="1.0" encoding="utf-8"?>
<!-- Generator: Adobe Illustrator 23.0.3, SVG Export Plug-In . SVG Version: 6.00 Build 0)  -->
<svg version="1.1"
	 id="svg8" inkscape:version="0.92.4 (unknown)" sodipodi:docname="figure.svg" xmlns:cc="http://creativecommons.org/ns#" xmlns:dc="http://purl.org/dc/elements/1.1/" xmlns:inkscape="http://www.inkscape.org/namespaces/inkscape" xmlns:rdf="http://www.w3.org/1999/02/22-rdf-syntax-ns#" xmlns:sodipodi="http://sodipodi.sourceforge.net/DTD/sodipodi-0.dtd" xmlns:svg="http://www.w3.org/2000/svg"
	 xmlns="http://www.w3.org/2000/svg" xmlns:xlink="http://www.w3.org/1999/xlink" x="0px" y="0px" viewBox="0 0 680.3 207.6"
	 style="enable-background:new 0 0 680.3 207.6;" xml:space="preserve">
<style type="text/css">
	.st0{fill:none;stroke:#263F92;stroke-width:3;stroke-miterlimit:10;}
	.st1{fill:#999998;}
	.st2{fill:none;stroke:#007BC3;stroke-width:3;stroke-linecap:round;stroke-miterlimit:10;}
	.st3{font-family:'ArialMT';}
	.st4{font-size:12px;}
	.st5{fill:none;stroke:#A61916;stroke-width:3;stroke-miterlimit:10;}
	.st6{fill:none;stroke:#000000;stroke-miterlimit:10;}
	.st7{fill:#FFFFFF;}
	.st8{fill:#007BC3;}
</style>
<path class="st0" d="M203.3,54.7c-4,4-23.3,24.4-23.7,56.6c-0.3,33.4,20.1,54.6,23.9,58.4"/>
<sodipodi:namedview  bordercolor="#666666" borderopacity="1.0" id="base" inkscape:current-layer="layer1" inkscape:cx="284.27627" inkscape:cy="182.72055" inkscape:document-units="mm" inkscape:guide-bbox="true" inkscape:pageopacity="0.0" inkscape:pageshadow="2" inkscape:window-height="995" inkscape:window-maximized="1" inkscape:window-width="2520" inkscape:window-x="20" inkscape:window-y="65" inkscape:zoom="0.99437388" pagecolor="#ffffff" showborder="true" showgrid="false" showguides="true" width="200mm">
	<inkscape:grid  dotted="false" empspacing="4" id="grid815" spacingx="10" spacingy="10" type="xygrid" units="mm">
		</inkscape:grid>
</sodipodi:namedview>
<g id="layer1" transform="translate(0,-177)" inkscape:groupmode="layer" inkscape:label="Layer 1">
</g>
<g>
	<path class="st1" d="M480.3-36.5c0-0.4,0.3-0.7,0.7-0.7s0.7,0.3,0.7,0.7v289.8c0,0.4-0.3,0.7-0.7,0.7s-0.7-0.3-0.7-0.7V-36.5z"/>
	<path class="st1" d="M515.8,241.6c0.3-0.1,0.7,0,0.8,0.3s0,0.7-0.3,0.9c-0.3,0.1-0.7,0-0.8-0.3c-0.1-0.1-0.1-0.4,0-0.6
		c0-0.1-0.1,0.1,0,0.1c0-0.1,0,0.1,0,0.1v0.1l-0.4-0.4c-0.1-0.1-0.1-0.4,0-0.6c0.1-0.1,0.3-0.1,0.4,0l0.5,0.3h0.1l0,0H516
		L515.8,241.6C515.9,241.4,515.7,241.6,515.8,241.6 M481.9,224.1c-0.1-0.1-0.3-0.3-0.3-0.4v-0.4c0.1-0.3,0.3-0.4,0.5-0.6
		c1.1-0.3,2,0.6,2.9,1c3.3,2,6.7,3.3,10.4,5.4c1.8,1,3.3,2,4.9,3.1s3.4,2.1,4.8,3.1c1.6,1.3,3.5,2.3,5.7,2.9
		c1.1,0.3,2.5,0.9,3.4,1.3l1,0.6l1.1,0.7c0.1,0,0.3,0.1,0.3,0.3c0.1,0.1,0.3,0.1,0.3,0.6v0.3c0,0.1,0,0.3-0.1,0.3l-0.3,0.3
		c-0.4,0.3-0.5,0.1-0.7,0.1s-0.3,0-0.4-0.1l-1.1-0.7l-0.8-0.4c-1-0.4-2-0.9-3.1-1.1c-2.3-0.7-4.5-1.9-6.3-3.3c-1.2-1-3-2-4.6-3.1
		s-3-2-4.8-3.1c-3.4-2.1-6.8-3.4-10.2-5.6c-0.8-0.6-1.8-1-1.8-1C482.2,224.4,481.9,224.3,481.9,224.1L481.9,224.1z"/>
	<path class="st1" d="M499.3,249.2c0.4,0,0.7,0.4,0.7,0.9s-0.4,0.7-0.8,0.7s-0.7-0.4-0.7-0.9c0-0.3,0.3-0.6,0.5-0.6
		c0.1,0-0.1,0.1-0.1,0.1c0.1,0-0.1,0.1-0.1,0.1l0.1-0.1l1.2-1.9c0.1-0.1,0.3-0.1,0.5-0.1c0.1,0.1,0.1,0.3,0.1,0.4
		c-0.4,1-0.7,1.7-0.7,1.9c0,0-0.1-0.3,0-0.1c0,0-0.1-0.3-0.1-0.1l-0.1-0.1C499.7,249.3,499.2,249.2,499.3,249.2 M503.8,236.7
		c0.3,0,0.4,0.3,0.4,0.6c0,0.1-0.1,0.3-0.4,0.4c-0.1,0,0.3-0.1,0.1-0.1l0,0l-0.1,0.1l-0.3,1l-0.8,3.1l-0.8,2.7l-0.5,2.1l-0.5,2.1
		c-0.3,0.7-0.5,1.3-0.8,1.6c-0.1,0.1-0.3,0.3-0.4,0.3h-0.3c-0.1,0-0.3,0-0.7-0.3c-0.1-0.1-0.1-0.3-0.1-0.3c-0.1-0.6,0-0.4,0-0.4
		c0-0.1,0.1-0.3,0.3-0.4c0,0,0.3-0.4,0.5-1l0.7-2l0.5-2.1l0.8-2.7l1-3.1l0.4-1.1l0.3-0.4C503.3,236.7,503.6,236.6,503.8,236.7"/>
	<path class="st1" d="M533.9,233.1c0.3,0.1,0.4,0.4,0.3,0.7c-0.1,0.3-0.4,0.4-0.7,0.3c0,0-0.1,0-0.1-0.1h0.1h-0.1H533
		c-0.4,0-1,0.1-1.6,0.6c-0.1,0.1-0.4,0-0.4-0.1c-0.1-0.1,0-0.4,0.1-0.4c0.7-0.3,1.4-0.6,1.8-0.7C533.2,233,533.5,233,533.9,233.1
		 M510.2,240.6c-0.1,0.3-0.4,0.4-0.7,0.3c-0.3-0.1-0.4-0.4-0.3-0.7V240c0.3-0.3,0.5-0.6,1-0.9c0.4-0.6,1.4-1.1,2.5-1.6l3.5-0.9
		c3.3-0.9,7.4-2,10.8-2.9l4.1-0.9l1.8-0.3c0.1,0,0.3,0,0.3,0l0.7,0.1c0.1,0,0.1,0,0.3,0.1l0.1,0.1c0.3,0.4,0.1,0.6,0,0.7
		c-0.1,0.6-0.5,0.7-1,0.9c-0.1,0-0.1,0.1-0.3,0.1l-1.6,0.3l-4.1,0.9c-3.4,0.7-7.5,1.7-10.8,2.4l-3.4,0.7c-1.1,0.1-1.9,0.4-2.6,0.7
		C510.4,240.1,510.2,240.3,510.2,240.6"/>
	<path class="st1" d="M512.4,215c0.3-0.1,0.7,0,0.8,0.3s0,0.7-0.3,0.9c-0.1,0-0.3,0-0.4,0c-0.3,0-1.1-0.1-2-0.7
		c-0.1-0.1-0.3-0.3-0.1-0.6c0.1-0.1,0.3-0.3,0.4-0.1C511.5,215.1,512.3,215,512.4,215 M484.1,213c-0.3,0-0.5-0.1-0.5-0.4
		c0-0.3,0.1-0.6,0.4-0.6c2.7-0.6,6,0,9.3,0.4c2,0.3,3.5,0.9,5.9,1.6c1.9,0.6,4.6,0.7,7.2,0.7h3.1h1h1.2h1.2c0.5,0,1,0.4,1,1
		s-0.4,1-1,1h-1.2h-1.1h-1h-3.1c-2.6,0-5.4-0.1-7.6-0.9c-2.3-0.7-3.8-1.3-5.7-1.7C489.8,213.3,486.7,212.7,484.1,213 M513.6,215.6
		c0,0.6-0.4,1-1,1c-0.5,0-1-0.4-1-1s0.4-1,1-1C513.2,214.6,513.6,215,513.6,215.6"/>
	<path class="st1" d="M510.2,215.1c-0.1,0.3-0.4,0.4-0.7,0.3c-0.3-0.1-0.4-0.4-0.3-0.7l0.1-0.1l0,0l0,0c0,0-0.1,0.3-0.1,0.1v0.3
		c0-0.1,0.1,0.3,0.1,0.3l0.1,0.1h0.1l-0.3,0.1l0.1-0.1l0,0c0,0-0.1-0.3,0-0.1l-0.1-0.1c0,0-0.3-0.1-0.1-0.1s0.1,0,0.3,0.1
		c0,0-0.3-0.1-0.1-0.1h-0.1l0,0h0.1l0.7-0.3l3.4-1.7c1.2-0.7,3-1.4,5-2.3l6.7-2.7c4.4-1.7,7.9-3,10.9-4.1c1.5-0.6,2.9-1.1,4-1.7
		l1.2-0.7l0.8-0.4l0.1-0.1l0,0l0,0l-0.1,0.1v0.3c0-0.1,0.1,0.3,0,0.1c0-0.1,0.3,0.3,0.1,0.3s0.3,0.1,0.1,0.1h0.1h-0.1l-1.4,0.7
		c-0.1,0.1-0.4,0-0.5-0.1s0-0.4,0.1-0.4l1.2-1l0.3-0.3c0.1,0,0-0.1,0.4-0.1c0.3,0,0.5,0.3,0.7,0.6v0.4l-0.3,0.4l-0.8,0.9l-1.5,0.9
		c-1.2,0.6-2.6,1.3-4.1,1.9c-3,1.1-6.5,2.3-10.9,4l-6.7,2.6c-2,0.9-3.8,1.6-4.9,2.1l-3.5,1.6l-0.7,0.3l-0.4,0.1
		c-0.1,0-0.4,0.1-0.7-0.1c-0.1,0-0.1-0.1-0.1-0.3c-0.1-0.3-0.1-0.4,0-0.6l0.1-0.3c0.1-0.1,0.3-0.3,0.5-0.3l-0.1,0.1l0.4-0.3l0,0
		l0.3-0.1c0.3,0,0.5,0.3,0.5,0.6L510.2,215.1z"/>
	<path class="st1" d="M533.5,208.1c0.3,0,0.5,0.1,0.5,0.4c0,0.3-0.1,0.6-0.4,0.6l0,0c-1.1,0-1.8,0-2,0.1h0.1l-0.3,0.1l0,0l0.1-0.3
		v0.1c0,0.1,0-0.1,0-0.1l0,0l0.1,0.3l0.5,1.1c1.5,3.3,3.3,7.6,5.2,11.9c1,2.1,2,3.9,3,5.7c0.4,0.9,0.8,1.7,1.2,2.6l0.4,1.3v0.1
		c0,0.7,0,1.1-0.1,1.4l-1.6-0.3l0,0c0-0.3,0-0.9,0.1-1.4c0.1-0.6,0.5-1.1,1-1.7c0.1-0.1,0.4-0.1,0.5,0s0.1,0.3,0,0.4
		c-0.4,0.6-0.5,1-0.5,1.3l0.1,0.7v0.1c0,0-0.1-0.1,0,0c0.4,0.3,0.4,0.9,0.1,1.3c-0.3,0.3-0.7,0.4-1.1,0.3c-0.5-0.3-0.5-0.6-0.5-0.9
		l-0.3-0.6c0,0,0-0.1-0.1-0.1l-0.3-1.1l-1.1-2.4c-0.8-1.7-1.9-3.6-3-5.7c-1.9-4.4-3.5-8.7-4.9-12L530,210l-0.1-0.7
		c0-0.3,0-0.6,0.3-0.9l0.1-0.1c0.4-0.1,0.5-0.1,0.7,0h0.3h-0.1C531.7,208.3,532.6,208.3,533.5,208.1"/>
	<path class="st1" d="M537.6,206.4c-0.1-0.1-0.3-0.3-0.3-0.4c0-0.4,0.1-0.4,0.1-0.4l0.1-0.1l0.3-0.1l1.5-0.4l4.4-0.9
		c2-0.4,4.5-1.1,7.2-1.9c2.9-0.7,5.9-1.6,8.9-2.1c4.1-0.7,8.2-1,11.4-1.1l3.5-0.3l0.7-0.1h0.1c0,0,0.1,0,0.1-0.1
		c0,0-0.3,0.3-0.3,0.1c0.1-0.1-0.1,0.3-0.1,0.3v0.1l0,0l-0.3-0.6c-0.1-0.1-0.4-0.3-0.5-0.4h-0.1l-0.3,0.3c-0.1,0.1-0.3,0.3-0.5,0.1
		c-0.1-0.1-0.3-0.3-0.1-0.4c0.1-0.3,0.3-0.4,0.4-0.7c0.1-0.1,0.4-0.3,0.7-0.3c0.4,0,1,0.1,1.4,0.4s0.7,0.6,1,1
		c0.1,0.1,0.3,0.4,0.3,0.7s-0.1,0.9-0.4,1.1l-0.1,0.1c-0.5,0.3-1.1,0.3-1.5,0.3c-1,0.1-2.3,0.1-3.7,0.3c-3.1,0.1-7.2,0.4-11.2,1.1
		c-3,0.6-6,1.3-8.9,2c-2.7,0.7-5.3,1.3-7.4,1.7l-4.4,0.7l-1.5,0.3H538C537.9,206.4,537.9,206.5,537.6,206.4 M538.1,205.3
		c0.3,0,0.5,0.1,0.5,0.4c0,0.3-0.1,0.6-0.4,0.6H538l0,0c0,0,0.1-0.1,0.1,0c0,0,0.1-0.1,0.1,0c-0.3,0.1-0.5,0.1-0.8,0
		c-0.1-0.3-0.1-0.6,0-0.9c0.3-0.1,0.5-0.1,0.8,0c0,0.1,0.1,0.1,0.1,0.3c0,0.1-0.1-0.3-0.1-0.3C538.3,205.5,538,205.4,538.1,205.3
		C538.1,205.4,537.8,205.3,538.1,205.3L538.1,205.3L538.1,205.3z"/>
	<path class="st1" d="M559.9,224c-0.1,0.4-0.5,0.7-1,0.6c-0.4-0.1-0.7-0.6-0.5-1c0.1-0.4,0.5-0.7,1-0.6c0.4,0.1,0.5,0.4,0.5,0.7
		c0,0.1,0-0.3,0-0.3v-0.1l-0.1-0.1l-0.1-0.1l0,0h0.1c0.1,0,0.4,0.1,0.4,0.3c0,0.1,0,0.1,0,0.3L559.9,224
		C559.9,224,559.9,223.8,559.9,224 M547.4,205.5c-0.3,0.1-0.5,0.1-0.7-0.1c-0.1-0.3-0.1-0.6,0.1-0.7c0.7-0.6,1.5-0.9,2.2-0.6
		c0.7,0.3,1.4,0.9,2,1.6c1.2,1.4,2.3,3.6,3.4,5.4l3.5,6.6c0.5,1.1,1.1,2.1,1.4,3l0.4,0.7l0.1,1.1v0.3l0,0c0.1,0.4,0.1,0.9-0.3,1.3
		l-0.1,0.1l-0.1,0.1l-0.3,0.1c-0.4,0-0.8-0.1-1.1-0.6c-0.3-0.4-0.3-0.9-0.3-1.1l-0.1-0.7l-0.3-0.9c-0.3-0.7-0.7-1.6-1.2-2.7
		c-1-1.9-2.3-4.3-3.4-6.6c-1-2-1.9-4.1-2.9-5.4c-0.4-0.7-1-1.1-1.4-1.3C548.2,205.3,548,205.3,547.4,205.5"/>
	<path class="st1" d="M483.3,185.4c-0.3,0.1-0.5-0.1-0.7-0.4c0-0.3,0-0.4,0.3-0.6c0.3-0.1,0.7-0.3,1.5-0.4l3.1-0.7
		c1.1-0.1,2.3-0.4,3.7-0.6c1.2-0.1,2.6-0.1,4-0.1c1.9-0.1,4.2-0.3,7.2-0.7c2.2-0.3,4.6-1,7.4-1.6l15-3.4l16.5-3.7l7.9-1.7l5.7-1.1
		c2.5-0.4,3.8-0.4,4.9-0.3c2.9,0.1,6.8,0.3,10.5,0c2.3-0.1,4.4,0,6,0c1,0.1,1.8,0.3,2.6,0.6l1.1,0.3c1.1,0.3,2.7,0.3,4.2,0.1
		c0.7,0,1.5-0.3,2.3-0.6l1.6-0.3l0,0H588c0,0-0.1,0.3-0.1,0.1v0.3c0-0.1,0.1,0.3,0.1,0.3l0.1,0.1c-0.1,0,0.1,0,0,0H588h-1.4
		c-0.1,0-0.4-0.1-0.4-0.4c0-0.1,0.1-0.4,0.3-0.4l1.4-0.1h0.3h0.1c0.1,0,0.4,0.4,0.3,0.6l-0.1,0.3c-0.4,0.3-1,0.4-1.6,0.6
		c-0.8,0.3-1.8,0.6-2.6,0.7c-1.6,0.1-3.3,0-4.5-0.4l-1.1-0.4c-0.5,0-1.4,0.1-2.2,0.1c-1.8,0-3.7-0.1-6,0c-3.8,0.3-7.8,0.1-10.8,0
		c-1,0-2.2,0-4.6,0.4l-5.6,1.1l-7.9,1.7l-16.5,3.7l-15,3.3c-2.7,0.6-5.3,1.1-7.5,1.6c-3.1,0.4-5.4,0.6-7.4,0.7c-1.5,0-2.7,0-4,0.1
		l-3.7,0.4l-3,0.6L483.3,185.4z"/>
	<path class="st1" d="M590.5,191.1c0.3-0.3,0.7-0.1,1,0.1c0.3,0.3,0.1,0.7-0.1,1c-0.3,0.3-0.7,0.1-1-0.1l0,0l0,0l-1.4-1.3
		c-0.1-0.1-0.1-0.4,0-0.6c0.1-0.1,0.3-0.1,0.4-0.1l1.2,0.7l0.3,0.1l0,0h-0.1C590.7,191,590.3,191.1,590.5,191.1 M579.6,172.5
		c0,0.3-0.1,0.6-0.4,0.6s-0.4-0.1-0.5-0.3l-0.1-0.3c0-0.1-0.1-0.1,0-0.4c0.1-0.4,0.5-0.4,0.8-0.4l0.3,0.1c0.3,0.3,0.5,0.7,1,1.1
		c0.8,1.1,1.6,2.9,2.7,4.7l3.4,6.3c1,1.7,1.9,3.1,2.9,4.3l1.8,2.1l0.3,0.4c0.1,0.1,0.3,0.1,0.3,0.7c0.1,0.6-0.3,1.1-0.8,1.1
		c-0.5,0.1-1.1-0.3-1.1-0.9l0,0c0-0.1,0,0.3,0,0.1c0-0.1,0.1,0.1,0,0.1l0,0l-0.3-0.3l-1.8-2.1c-1-1.3-2-2.7-3-4.6l-3.3-6.4l-2.5-4.7
		l-0.7-1.1l0,0l0,0l0.1,0.1h0.3l0.3-0.1C579.3,172.8,579.6,172.5,579.6,172.5L579.6,172.5L579.6,172.5z M591.8,191.7
		c0,0.6-0.4,1-1,1c-0.5,0-1-0.4-1-1s0.4-1,1-1C591.4,190.7,591.8,191.1,591.8,191.7"/>
	<path class="st1" d="M577.4,194.3c0.4,0.1,0.5,0.7,0.4,1.1c-0.1,0.4-0.7,0.6-1.1,0.4c-0.4-0.1-0.5-0.7-0.4-1.1
		c0.1-0.3,0.4-0.4,0.7-0.4c0.1,0-0.3,0-0.1,0h-0.1c0.1,0-0.1,0.1-0.1,0c0.1,0-0.1,0.1-0.1,0.1l-0.1,0.1l0,0c0-0.3,0-0.7-0.1-1.3
		c0-0.1,0.1-0.4,0.3-0.4c0.1,0,0.3,0,0.4,0.1l0.7,1.4v0.1l0,0C577.7,194.5,577.5,194.4,577.4,194.3
		C577.7,194.4,577.4,194.3,577.4,194.3 M570.2,174.2c0.1,0.1,0.1,0.3,0.3,0.4l0,0v0.1l0.3,1.9c0.4,2.9,1.6,7,3.3,10.7
		c0.8,1.9,1.8,3.3,2.5,4.4l1,1.4c0.4,0.6,0.4,1.1,0.4,1.3c0,0.1,0.1,0.4,0,0.6c0,0.1,0.1,0.1-0.3,0.6c-0.1,0.1-0.3,0.1-0.4,0.3
		c-0.4,0.1-0.5,0-0.7,0l-0.3-0.1c-0.1-0.1-0.3-0.3-0.3-0.4l-0.3-0.9l-1-1.4c-0.7-1.1-1.6-2.7-2.5-4.7c-1.6-3.9-2.9-8.1-3.3-11.3v-2
		v-0.4l0.1-0.3l0.3-0.1C569.6,174.1,569.9,174.1,570.2,174.2 M570.4,175.1c0,0.3-0.1,0.6-0.4,0.6c-0.3,0-0.4-0.1-0.5-0.4v-0.1l0,0
		c0,0,0.3,0.1,0.1,0.1c0,0,0.3,0.1,0.1,0h0.1c0,0,0.3-0.1,0.1,0l0.1-0.1c-0.1,0.3-0.5,0.3-0.8,0.1c-0.3-0.1-0.3-0.6-0.1-0.9
		c0.1-0.3,0.5-0.3,0.8-0.1c0.1,0.1,0.1,0.3,0.3,0.4v0.1L570.4,175.1z"/>
	<path class="st1" d="M605,156.4c0.1-0.4,0.5-0.6,1-0.4c0.4,0.1,0.5,0.6,0.4,1s-0.5,0.6-1,0.4c-0.3-0.1-0.4-0.4-0.5-0.7
		c0-0.1,0,0.3,0,0.1c0-0.1,0.1,0.1,0.1,0.1l0.1,0.1h0.1l0,0H604c-0.1,0-0.4-0.1-0.4-0.3c0-0.1,0.1-0.3,0.3-0.4l1.2-0.4l0,0l0,0
		L605,156.4C605,156.1,605,156.4,605,156.4 M584.9,169.2c0.3,0,0.5,0.1,0.5,0.4c0,0.3-0.1,0.6-0.4,0.6l-0.4,0.1h-0.1
		c0,0-0.4,0-0.5-0.1c-0.1-0.3-0.1-0.4-0.1-0.6c0.1-0.4,0.3-0.4,0.4-0.4l0.4-0.3l4.2-2.9l6.3-4.1l4.9-3c1.6-1,2.7-1.7,3.7-2.3
		l1.2-0.7c0.1-0.1,0.4-0.3,0.7-0.1c0.1,0,0.1,0,0.4,0.1c0.1,0.1,0.1,0.1,0.3,0.3c0.3,0.4,0.1,0.6,0.1,0.6c0,0.3-0.1,0.4-0.4,0.6
		l-1.4,0.9c-0.8,0.6-2,1.4-3.7,2.4l-5,2.9l-6.3,3.9c-1.9,1.1-3.4,2.1-4.4,2.7l-0.7,0.3c0,0,0.1-0.1,0.1,0l0.1-0.1
		c0,0,0.1-0.4,0.1-0.3c0,0.1-0.1-0.4,0-0.3C585,169.8,584.7,169.4,584.9,169.2C584.9,169.3,584.8,169.2,584.9,169.2L584.9,169.2
		L584.9,169.2z"/>
	<path class="st1" d="M553.3,173c0.1,0.3,0.1,0.6,0,0.7c-0.1,0.1-0.5,0.1-0.7,0c-0.1-0.1-0.3-0.4-0.3-0.7s0-0.6,0.1-0.7
		c0.1-0.6,0.5-1,1.1-1.6c1.1-1.1,2.7-2.6,5-4.3c2.9-2.1,6.3-4.7,10.1-7.3c2-1.3,4.1-2.7,6.4-4.1c4.9-2.9,10.5-5.7,15.1-8.3
		c1.8-1,3.3-2,4.5-2.9c2-1.3,3.4-1.9,4.5-2.3l6.3-2.4c0.5-0.3,1.2-0.4,1.8-0.7c0.8-0.4,1.6-1,2.5-1.6l1.4-1c0-0.1,0.1-0.1,0.3-0.1
		c0,0-0.1,0.3-0.1,0.1c0,0-0.1,0.3-0.1,0.1c0-0.1,0,0.6,0,0.4c0-0.1,0.1,0.4,0.1,0.3c-0.1-0.1,0.1,0.1,0.1,0.1h-0.1
		c-0.5,0-1.8,0.1-3.5,0.6c-0.1,0-0.4-0.1-0.4-0.3c0-0.1,0.1-0.4,0.3-0.4l3.7-1.1l0.8-0.1c0.1,0,0.5,0,0.7,0.4
		c0.3,0.3,0.1,0.7,0.1,0.9s-0.1,0.1-0.1,0.3c-0.4,0.6-1.1,1-1.9,1.4c-0.8,0.6-1.8,1.3-2.7,1.7c-0.8,0.4-1.5,0.6-2,0.7l-6.3,2.4
		c-1,0.4-2.3,1-4.2,2.1c-1.2,0.9-2.9,1.9-4.6,2.9c-4.6,2.6-10.4,5.4-15.1,8.3c-2.3,1.3-4.4,2.6-6.4,4c-3.7,2.4-7.2,4.9-10.1,7
		c-2.2,1.7-4,3-4.9,4c-0.4,0.4-0.8,0.9-1,1.1L553.3,173L553.3,173z"/>
	<path class="st1" d="M546,193.1c0.3,0.4,0.1,0.9-0.1,1.1c-0.4,0.3-0.8,0.1-1.1-0.1c-0.1-0.1-0.1-0.4-0.1-0.7c0-0.1,0,0.3,0,0.3v0.1
		c0-0.1-1.6-1.4-2.3-2.9c-0.1-0.1,0-0.4,0.1-0.4c0.1-0.1,0.3,0,0.4,0.1c0.4,0.4,1.1,1,1.6,1.4l0.8,0.6
		C545.6,192.8,545.8,192.8,546,193.1 M529.6,181c0,0.3-0.3,0.4-0.5,0.4c-0.3,0-0.4-0.3-0.4-0.4c0-0.1,0-0.4,0.1-0.6s0.3-0.3,0.5-0.3
		c0.3,0,0.7,0,1,0c0.7,0.1,1.6,0.4,2.5,0.9c1,0.4,2.2,1.1,3.3,2.1c1.2,1.1,2.2,2.6,3.1,4c0.7,1,1.4,2.1,1.9,2.9
		c1.1,1.3,2.9,2,3.8,2.4l0.8,0.6l0.3,0.1l0.1,0.3c0.1,0.3,0.1,0.6,0,0.7c-0.1,0.4-0.4,0.4-0.5,0.4c-0.3,0.1-0.4,0-0.5,0l-0.7-0.1
		c-1.2-0.6-3.3-1.3-4.8-3.1c-0.8-1-1.4-2.1-2-3.1c-1-1.4-1.8-2.9-2.7-3.9c-1-0.9-1.9-1.4-2.7-2c-0.8-0.4-1.5-0.9-2.2-1l-0.5-0.1
		c0,0,0.1,0,0,0C529.3,181.2,529.6,180.8,529.6,181"/>
	<path class="st1" d="M511.2,183.5c0-0.3,0.1-0.6,0.4-0.6c0.1,0,0.4,0,0.5,0.3l-0.1-0.1h-0.3h-0.1l0,0l0.3-0.3l1.2-1.9l1.8-2.9
		c0.8-1.3,1.5-2.3,2.2-3.3c1.6-2,3.8-4.3,5.3-6.1c2.2-2.4,3.1-3.6,5-4.1c0.1-0.1,0.4,0,0.5,0.3c0,0.1,0,0.4-0.1,0.4
		c-0.8,0.4-1.2,0.9-1.8,1.6l-2.2,3c-1.6,2-4,4.3-5.4,6.1c-0.7,0.9-1.5,1.9-2.2,3l-1.9,2.9c-0.5,0.9-1.1,1.4-1.5,1.9
		c-0.3,0.1-0.4,0.4-0.7,0.4c-0.1,0-0.3,0.1-0.5,0C511.3,183.8,511.2,183.7,511.2,183.5"/>
	<path class="st1" d="M538.7,184.4c0.3-0.1,0.5-0.1,0.7,0c0.1,0.1,0.1,0.6,0,0.7l0,0V185c0,0-0.1-0.3,0-0.3c0,0.1-0.3-0.3-0.1-0.1
		c0.1,0-0.1,0-0.1,0h0.3l2-0.7l4.1-1.6c1-0.4,1.8-0.7,2.5-1.1c0.7-0.3,1.2-0.7,1.5-1c0.1-0.1,0.4-0.3,0.5-0.1h0.1c0,0,0.1,0,0.1,0.1
		l0.1,0.3c0.1,0.1,0.1,0.4,0,0.6c-0.4,0.6-1,1.1-1.8,1.6c-0.8,0.4-1.8,0.9-2.7,1.1l-4.1,1.4c-0.8,0.3-1.6,0.6-2.3,0.6h-0.4
		c-0.1,0-0.4,0-0.5-0.3s-0.1-0.6,0-0.7L538.7,184.4z"/>
	<path class="st1" d="M482.6,137.1c0.3-0.1,0.5,0.1,0.7,0.4c0.1,0.3-0.1,0.6-0.4,0.7c-0.1,0-0.3,0-0.4,0l-0.4-0.1
		c-0.1-0.1-0.3-0.3-0.1-0.4c0-0.1,0.1-0.1,0.3-0.1L482.6,137.1z"/>
	<path class="st1" d="M482.4,137.9c-0.3,0.1-0.5,0-0.7-0.1c-0.1-0.3,0-0.6,0.1-0.7c0.1-0.1,0.4-0.1,0.5,0h0.1
		c0.3,0.1,0.3,0.4,0.1,0.6C482.7,137.8,482.6,137.8,482.4,137.9L482.4,137.9z"/>
	<path class="st1" d="M483.3,136.5c0.3,0,0.4,0.3,0.4,0.6s-0.3,0.4-0.5,0.4l-0.3-0.1c0,0-0.1-0.1-0.3-0.3c0-0.3,0-0.4,0.1-0.6
		c0.3-0.3,0.4-0.1,0.5-0.3l1.4-0.1c1.8-0.1,4.1,0,7.1-0.1c1.5-0.1,3.3-0.3,5.4-0.6l3.4-0.1c1.8-0.1,3.8-0.6,6-0.9l5.2-0.9
		c2.6-0.4,5.3-0.9,8.3-1.4s6.3-1.6,9.7-2.4c2.6-0.6,5.3-1.1,7.9-1.6l10.2-1.7l8.9-1.3l9-1.1c2.5-0.3,4.4-0.4,6.1-0.4h6h3.8
		c3.5-0.1,7.4-1.4,11.3-0.9c1.6,0.3,3.4-0.1,5.2-0.4c2-0.3,4.6-1,6.9-1.1c1.2-0.1,2.5,0,3.5,0s2,0,2.6-0.1h0.1h0.1c0,0-0.1,0,0,0
		l-0.1,0.1l-0.1,0.3c0-0.1,0,0.3,0,0.3v0.1l-0.3-0.1l-1-0.6c-0.1-0.1-0.3-0.3-0.1-0.4c0-0.1,0.3-0.3,0.4-0.3c1,0.3,1.5,0.3,1.9,0.6
		l0.3,0.3c0.1,0.1,0.3,0.4,0.1,0.7c-0.1,0.4-0.4,0.7-0.7,0.9c0,0-0.1,0-0.1,0.1c-0.8,0.3-1.9,0.3-3,0.3c-1.2,0-2.3,0-3.4,0
		c-2.2,0.1-4.6,0.7-6.8,1.1c-1.8,0.3-3.7,0.7-5.7,0.3c-3.5-0.6-7.2,0.7-11,0.7h-3.8H572c-1.6,0-3.7,0.1-6,0.4l-8.9,1.1l-8.9,1.3
		l-10.1,1.7c-2.6,0.4-5.2,0.9-7.8,1.6c-3.3,0.7-6.5,1.7-9.7,2.4c-3,0.6-5.9,1-8.3,1.4l-5.2,0.9c-2.2,0.3-4.4,0.7-6.1,0.9l-3.3,0.1
		c-2,0.1-3.8,0.4-5.4,0.4c-3.1,0.1-5.4,0-7.1,0l-1.2,0.1h-0.1c0,0,0.1-0.1,0.1,0l0.1-0.1l0.1-0.3c0,0,0-0.3,0-0.1
		c0,0.1-0.1-0.3-0.1-0.1L483.3,136.5C483.4,136.6,483.3,136.5,483.3,136.5L483.3,136.5z"/>
	<path class="st1" d="M606.7,108.6c0.1-0.1,0.4-0.1,0.5,0.1c0.1,0.1,0.1,0.4-0.1,0.6c0,0-0.1,0-0.1,0.1l-0.4,0.3
		c-0.1,0.1-0.4,0.1-0.5-0.1c-0.1-0.1-0.1-0.3,0-0.4L606.7,108.6z M592.6,121.3c0,0.3-0.3,0.6-0.5,0.4c-0.1,0-0.1,0-0.3-0.1
		s-0.1-0.3-0.1-0.4v-0.3l0.1-0.4l0.5-0.7c2.2-1.9,5.9-3.7,9-6.3c1.5-1.1,2.7-2.4,3.7-3.4l1-1.1l0.1-0.3l0,0v0.1v0.1
		c0,0,0.1,0.4,0,0.3c0-0.1,0.3,0.4,0.1,0.3c-0.1-0.1,0.3,0.3,0.3,0.1c-0.4-0.3-0.5-0.9-0.3-1.3c0.3-0.4,0.8-0.6,1.2-0.3l0,0
		c0.1,0.1,0.3,0.4,0.4,0.6v0.4l-0.1,0.4l-0.3,0.6l-1.1,1.3c-1,1.1-2.3,2.4-4,3.6c-3.4,2.6-7.2,4.4-9.1,6L592.6,121.3l-0.1,0.3l0,0
		l0,0C592.6,121.5,592.6,121.3,592.6,121.3 M608,108.9c0,0.6-0.4,1-1,1s-1-0.4-1-1s0.4-1,1-1C607.6,108.1,608,108.5,608,108.9"/>
	<path class="st1" d="M608.2,134.4c0.1,0.4,0,0.9-0.4,1.1c-0.4,0.1-0.8,0-1-0.4c0-0.1-0.1-0.3,0-0.4c0-0.1,0,0.3,0,0.3v0.1l-0.1-0.1
		l-0.7-0.4c-0.5-0.3-1.4-0.6-1.8-0.7c-0.1,0-0.3-0.3-0.3-0.4c0-0.1,0.1-0.3,0.3-0.3c0.5,0,1.4,0.1,2,0.3l1,0.3l0.4,0.3
		C607.9,133.9,608,134.1,608.2,134.4 M594.3,125.9c0,0.3-0.1,0.6-0.4,0.6s-0.5-0.1-0.5-0.4c-0.1-0.4-0.1-0.9-0.1-1.1
		c0-0.3,0.3-0.7,0.5-0.9c0.4-0.1,0.7-0.1,1,0l1,0.6c0.8,0.7,1.6,1.7,2.3,2.7c0.8,1.1,1.6,2.1,2.5,3.1c1.1,1.1,2.6,2,4,2.7
		c0.5,0.3,1.1,0.4,1.6,0.4l0.8,0.1h0.1l0,0c0,0-0.3,0.1-0.1,0c0.5-0.3,1.1-0.1,1.4,0.4c0.3,0.6,0.1,1.1-0.4,1.4c0,0,0,0-0.1,0
		c-0.4,0.3-0.7,0.1-1.1,0.1l-1.1-0.1c-0.5-0.1-1.2-0.3-1.9-0.6c-1.5-0.7-3.3-1.9-4.5-3.3c-1-1.1-1.8-2.4-2.5-3.4s-1.4-2-1.9-2.6
		l-0.5-0.4H594h0.1l0,0L594.3,125.9z M608.4,134.8c0,0.6-0.4,1.1-1.1,1.1c-0.5,0-1.1-0.4-1.1-1.1c0-0.6,0.4-1.1,1.1-1.1
		C607.9,133.8,608.4,134.2,608.4,134.8"/>
	<path class="st1" d="M577.8,141.4c0.3,0,0.7,0.1,0.7,0.6c0,0.3-0.1,0.7-0.5,0.7c-0.1,0-0.3,0-0.4-0.1c-0.1-0.1-0.4-0.4-0.8-1.1
		c-0.1-0.4-0.1-0.6-0.1-0.9v0.1v-0.1l-0.3-0.4c-0.1-0.1,0-0.4,0.1-0.6c0.1-0.1,0.4,0,0.4,0.1c0.1,0.3,0.4,0.4,0.4,0.9v-0.1l0.1,0.3
		l0.5,0.7l0.1,0.1l0,0h-0.1C577.9,141.4,577.7,141.4,577.8,141.4 M565.9,124.8c0.3,0,0.5,0.3,0.5,0.6s-0.1,0.4-0.4,0.4l0,0v0.1
		c0,0.3,0.1,0.9,0.4,1.4c0.5,1.4,1.4,3.1,2.6,4.7c1.4,2,3.1,3.7,4.6,5c1.1,0.9,1.8,1.4,2.5,1.9l1,0.6c0.7,0.4,1.2,1.1,1.6,1.9
		c0.3,0.4,0.1,1.1-0.3,1.4s-1.1,0.1-1.4-0.3c-0.3-0.4-0.7-0.9-1.1-1.1l-0.8-0.6c-0.7-0.6-1.5-1.1-2.6-2.1c-1.5-1.4-3.4-3.1-4.8-5.4
		c-1.2-1.9-2-3.7-2.5-5.4c-0.3-0.7-0.3-1.4-0.3-2c0-0.3,0.1-0.6,0.3-0.9C565.4,124.8,565.7,124.8,565.9,124.8"/>
	<path class="st1" d="M561.6,124.1c0.3,0.1,0.4,0.4,0.3,0.7c-0.1,0.3-0.3,0.4-0.5,0.4c-0.1,0-0.4-0.1-0.5-0.4s0-0.4,0-0.4l0.3-0.4
		l1-0.9c0.8-0.9,1.9-1.9,3.1-3.1c1-1,1.9-2.3,3-3.7c1.2-1.6,2.6-3.1,4-4.6c0.7-0.7,1.5-1.4,2-2c1-0.9,1.5-1.3,2.2-1.6
		c0.5-0.1,1.1-0.3,1.5-0.3c0.3,0,0.4,0,0.5,0.1c0.1,0,0.3,0.1,0.3,0.3c0,0.1,0,0.4-0.1,0.4c-0.1,0.1-0.4,0.1-0.5,0l-0.1-0.1
		c0,0,0.3,0.3,0.1,0.1h0.1c0,0,0.1,0,0,0l-0.3,0.1l-1.1,0.6c-0.4,0.3-1,0.6-1.9,1.4c-0.7,0.6-1.4,1.1-2,1.9c-1.4,1.4-2.7,3-4,4.4
		c-1.1,1.4-2.2,2.6-3.3,3.7c-1.4,1.3-2.5,2.4-3.3,3.1l-1,0.9l-0.1,0.1l0,0v-0.1c0,0,0-0.3,0-0.1c0,0.1-0.3-0.4-0.1-0.3
		C561.9,124.2,561.6,124.1,561.6,124.1"/>
	<path class="st1" d="M571.5,88.8c0.1,0.3,0.1,0.6,0,0.7c-0.3,0.1-0.5,0.1-0.7,0c0-0.1-0.1-0.1-0.1-0.3s0.1,0.3,0.1,0.3
		c-0.1-0.1,0.3,0.1,0.1,0.1h0.1l0,0l-0.4,0.1c-0.4,0.1-0.8,0.4-1.2,0.9c-0.1,0.1-0.4,0.1-0.5,0s-0.1-0.3,0-0.6
		c0.4-0.4,0.8-0.9,1.4-1.1l0.5-0.3l0.3-0.1C571.1,88.6,571.2,88.5,571.5,88.8 M544.8,127.8c0.3-0.1,0.5,0,0.7,0.3
		c0.1,0.3,0,0.6-0.3,0.7l-0.5,0.1c-0.1,0-0.4-0.1-0.5-0.3c-0.3-0.3-0.3-0.7-0.3-1c0.1-0.7,0.4-1.6,1-2.6l1.9-3.9l2.9-5.3
		c2.3-4.1,5.2-7.6,7.5-10.2c1.9-2.1,3.7-4.1,5-6l4.2-5.6c0.5-0.7,1.1-1.6,1.8-2.6l1.4-2l1-0.7l0.3-0.1h0.1h0.1c0.1,0,0.3,0,0.4,0.1
		c0.3,0.3,0.3,0.4,0.3,0.6l-0.1,0.3l-0.3,0.3l-0.5,0.7l-1.4,2c-0.5,1-1,1.9-1.5,2.9l-4.2,5.6c-1.5,2-3.3,4-5.3,6.1
		c-2.3,2.4-5.2,5.7-7.5,9.7l-3,5.1l-2.2,3.9c-0.5,0.9-0.8,1.7-0.8,2.1v0.1C545,127.9,545,127.8,544.8,127.8
		C545,127.9,544.8,127.8,544.8,127.8L544.8,127.8z"/>
	<path class="st1" d="M561.4,104c-0.3-0.1-0.4-0.4-0.3-0.7c0.1-0.3,0.3-0.3,0.5-0.3h-0.1l0.4-0.1l1.1-0.6c0.8-0.6,1.9-1.1,3.1-1.7
		c2.7-1.1,5.4-1.9,7.8-2.1l4.4-0.4h0.1l0.8,0.1c0.3,0,0.4,0.3,0.4,0.4s0,0.1-0.1,0.3l-0.8,0.6h-0.1l-4.4,0.6
		c-2.3,0.3-4.9,0.7-7.5,1.9c-1.2,0.4-2.3,1-3.1,1.4l-1.1,0.6C562,104,561.9,104.2,561.4,104"/>
	<path class="st1" d="M551.4,153.5c0.4,0,0.5,0.4,0.5,0.7s-0.4,0.6-0.7,0.6s-0.5-0.4-0.5-0.7s0.1-0.4,0.3-0.6c0.1,0-0.3,0.1-0.1,0.1
		c0-0.1-0.1,0.3-0.1,0.1v0.1v0.3c0,0-1.1-0.9-1.8-1.6c-0.1-0.1-0.1-0.4,0-0.6c0.1-0.1,0.3-0.1,0.4,0c0.5,0.4,1.6,0.7,2.3,1.3
		L551.4,153.5L551.4,153.5z M528.6,134.6c-0.3,0-0.5-0.3-0.5-0.6s0.1-0.4,0.4-0.6c0.4,0,0.8,0.1,1.2,0.3c0.4,0.3,0.8,0.6,1.1,1
		l2.7,3.3c2.2,2.4,6.1,5.3,9.8,8.1c1.6,1.3,3.1,2.6,4.4,3.6l1.5,1.4l1.8,2l0.1,0.1l0.1,0.1c0,0-0.1-0.1,0.1,0.1c0,0,0.1,0.1,0.1,0.3
		c0.1,0.4,0,0.7-0.1,0.9l-0.4,0.3c-0.4,0.1-0.8,0-1.2-0.1l-0.1-0.1l-1.9-1.9l-1.4-1.4c-1.1-1-2.6-2.3-4.2-3.6
		c-3.7-2.9-7.6-5.7-9.9-8.4c-1.1-1.4-1.9-2.6-2.6-3.4l-0.8-1C529,134.8,528.9,134.6,528.6,134.6"/>
	<path class="st1" d="M559,137.5c-0.3-0.3-0.1-0.6,0-0.9c0.1-0.3,0.5-0.1,0.8,0c0.1,0.3,0.1,0.6,0,0.9c-0.1,0.1-0.3,0.1-0.4,0.1
		c-0.1,0,0.1,0,0.1,0h0.1l-0.1,0.1l-1.4,0.7c-0.1,0.1-0.4,0-0.5-0.1s0-0.4,0.1-0.4l1.2-0.9l0.1-0.1v0.1c0,0,0,0.3,0,0.1
		c0,0,0,0.3,0,0.1v0.1C558.9,137.2,559,137.5,559,137.5 M545.2,148.7c0.3,0.1,0.4,0.4,0.3,0.7c-0.1,0.3-0.4,0.4-0.7,0.3
		c-0.4-0.1-0.8-0.4-1.1-0.7s-0.4-0.9-0.4-1.3c0-0.9,0.5-1.9,1.5-2.9c1.2-1.3,3.1-2.4,5-3.6l2.9-1.6l4.2-2.3l1.4-0.6
		c0.4-0.1,0.5-0.3,1-0.1c0.1,0,0.3-0.1,0.4,0.4c0,0.1,0,0.3,0,0.4c-0.1,0.3-0.1,0.3-0.1,0.3l-1.9,1.1l-4.4,2.3l-2.9,1.4
		c-1.9,1-3.8,2.1-4.9,3.3c-0.8,0.7-1.2,1.4-1.2,1.9c0,0.1,0,0.4,0.1,0.6C544.7,148.4,545,148.5,545.2,148.7"/>
	<path class="st1" d="M541.4,150.2c-0.3-0.1-0.3-0.6,0-0.7c0.1-0.1,0.4-0.3,0.7-0.1c1.2,0.9,2,2.7,2.6,4.6c0.3,1.4,0.4,2.7,0.5,4
		l0.3,2.7l0.3,1c0,0.1,0.1,0.3,0.1,0.4v0.1c0.1,0.1,0.1,0.4,0,0.6c0,0,0,0-0.1,0c-0.3,0.1-0.5,0.1-1,0c-0.1,0-0.3-0.1-0.3-0.3
		c-0.3-0.4-0.5-0.9-0.7-1.4c-0.1-0.9-0.3-1.9-0.3-2.9c-0.1-1.3-0.1-2.6-0.4-3.7C542.8,152.7,542.1,150.9,541.4,150.2"/>
	<path class="st1" d="M481.1,106.9c-0.4,0.1-0.7,0-0.8-0.4c-0.1-0.4,0-0.7,0.4-0.9l122.6-47.7c0.4-0.1,0.7,0,0.8,0.4s0,0.7-0.4,0.9
		L481.1,106.9z"/>
	<path class="st1" d="M601.5,59.6c-0.3,0-0.5-0.3-0.5-0.6s0.1-0.6,0.4-0.6s1.6-0.7,3-1.6l3.1-1.4l0.5-0.1c0.1,0,0.3-0.3,0.5,0
		c0.1,0.1,0.1,0.4,0.1,0.6c-0.1,0.3-0.1,0.1-0.3,0.3l-0.5,0.3c-0.1,0.1-0.4,0-0.5-0.1s0-0.4,0.1-0.4l0.4-0.3c0,0,0,0.1,0,0v0.1v0.1
		V56c0-0.1,0.3,0.1,0.1,0.1h0.1h0.1H608l-0.4,0.1l-3,1.6C603.5,58.7,602.4,59.6,601.5,59.6"/>
	<path class="st1" d="M611.3,72.5c0.3-0.1,0.5,0,0.7,0.3c0.1,0.3,0,0.6-0.3,0.7s-0.5,0-0.7-0.3c0-0.1,0-0.3,0-0.4v0.1
		c0-0.1,0,0.3,0,0.1l0,0l-0.3-0.3c-0.1-0.1-0.1-0.4,0-0.6c0.1-0.1,0.3-0.1,0.4,0l0.4,0.1C611.4,72.5,611.3,72.5,611.3,72.5
		L611.3,72.5z M597.4,62.2c0.1,0.3,0.1,0.6,0,0.7c-0.3,0.1-0.5,0.1-0.7,0c0,0,0-0.1-0.1-0.1l-0.1-0.3l0.1-0.3
		c0.1-0.1,0.3-0.1,0.4-0.1L597.4,62.2L597.4,62.2L597,62c0.3-0.1,0.7-0.1,1,0c0.1,0,0.1,0,0.3,0.1c2,1.1,5.4,3.3,8.3,5.3
		c1.5,1,2.6,2.1,3.5,2.9l1.1,0.9l0.8,0.7c0.4,0.4,0.5,1.1,0.1,1.6c-0.3,0.4-1,0.6-1.4,0.3l-1-0.6l-1.2-1c-1.1-0.9-2-1.9-3.4-2.9
		c-2.7-2.1-6-4.3-7.9-5.7c-0.1,0-0.1-0.1-0.3-0.3c-0.1-0.3-0.4-0.4-0.4-0.7l0.4,0.3h0.1c0,0,0.3-0.3,0.3-0.1c0,0,0.1-0.3,0.1-0.1
		c0,0.1,0-0.3,0-0.1C597.4,62.4,597.3,62.2,597.4,62.2"/>
	<path class="st1" d="M597.5,68.5c0.3,0,0.5,0.1,0.5,0.4s-0.1,0.6-0.4,0.6l0,0c-2.7,0-4.8-2-7.2-1.1c-0.1,0-0.4,0-0.4-0.3
		c0-0.1,0-0.4,0.3-0.4c1.5-0.4,2.9-0.3,4,0.1C595.4,68,596.4,68.5,597.5,68.5"/>
	<path class="st1" d="M610.1,63.7c0.3-0.3,0.5-0.3,0.8,0s0.3,0.6,0,0.9s-0.5,0.3-0.8,0c-0.1-0.1-0.1-0.3-0.1-0.6c0-0.1,0,0.3,0,0.3
		c0-0.1,0.1,0.3,0.1,0.1l0.1,0.1c-0.1,0,0.1,0.1,0.1,0.1l-1.1,0.1c-0.1,0-0.4-0.1-0.4-0.3c0-0.1,0-0.4,0.3-0.4L610.1,63.7
		L610.1,63.7C610.2,63.6,609.9,63.7,610.1,63.7 M603.9,67.4c0.3,0.1,0.4,0.4,0.4,0.7c0,0.3-0.3,0.4-0.5,0.4c-0.1,0-0.4-0.1-0.5-0.3
		c-0.1-0.3,0-0.4,0-0.6c0.1-0.3,0.3-0.4,0.5-0.6c1-0.9,2.3-1.4,3.5-2l2.3-1.3c0,0,0.1,0,0.1-0.1l0.4-0.1h0.3c0.1,0,0.3,0,0.3,0.1
		c0.4,0.3,0.3,0.6,0.3,0.6l-0.1,0.3c-0.1,0.3-0.3,0.4-0.4,0.6c0,0-0.1,0-0.1,0.1l-2.6,1.1c-1.2,0.6-2.6,1-3.4,1.6l-0.3,0.1l0,0
		c0,0,0-0.4,0-0.3C604.2,67.9,603.9,67.4,603.9,67.4C604.1,67.6,603.9,67.4,603.9,67.4"/>
	<path class="st1" d="M588,64.9c-0.3-0.3-0.4-0.7-0.1-1c0.3-0.3,0.7-0.4,1-0.1L617.6,86c0.3,0.3,0.4,0.7,0.1,1
		c-0.3,0.3-0.7,0.4-1,0.1L588,64.9z"/>
	<path class="st1" d="M607.8,80c-0.1-0.3,0-0.7,0.3-1c0.3-0.1,0.7,0,1,0.3l10.4,23.6c0.1,0.3,0,0.7-0.3,1c-0.3,0.1-0.7,0-1-0.3
		L607.8,80z"/>
	<path class="st1" d="M614.7,77.5c0.1-0.3,0.5-0.3,0.8-0.1c0.3,0.1,0.3,0.6,0.1,0.9c-0.1,0.3-0.5,0.3-0.8,0.1
		c-0.1-0.1-0.3-0.3-0.3-0.4s0,0.3,0,0.3v0.1l0.1,0.1l0,0h-0.5c-0.1,0-0.4-0.1-0.4-0.3c0-0.1,0.1-0.3,0.3-0.4L614.7,77.5L614.7,77.5
		C614.8,77.3,614.6,77.5,614.7,77.5 M608,80.9c0.1-0.3,0.4-0.3,0.7-0.1c0.1,0.1,0.3,0.3,0.3,0.6V81c0,0.1-0.1-0.3-0.1-0.3l-0.1-0.1
		c0.1,0-0.3,0-0.1,0h-0.1l0,0l0,0l0.4-0.1l1.2-0.6c1-0.4,1.9-1,2.9-1.6l1.9-1c0.1-0.1,0.3-0.1,0.4-0.3h0.3c0.1,0,0.3,0.1,0.3,0.3
		c0.3,0.3,0.1,0.4,0.1,0.6c0,0.1-0.1,0.3-0.3,0.4c-0.5,0.4-1.2,0.7-2.2,1.1s-1.9,1-3,1.4l-1.2,0.4l-0.4,0.1h-0.3h-0.3
		c-0.1,0-0.3-0.1-0.3-0.4C607.9,81,607.9,80.9,608,80.9"/>
	<path class="st1" d="M601.5,88.6c0.1,0.3,0.1,0.6,0,0.7c-0.3,0.1-0.5,0.1-0.7,0c-0.1-0.1-0.1-0.3-0.1-0.3v0.1l-0.8-1.1
		c-0.1-0.1-0.1-0.4,0-0.6s0.4-0.1,0.4,0L601.5,88.6z M574.2,73.7c0.1,0.3,0,0.6-0.1,0.7c-0.3,0.1-0.5,0.1-0.7-0.1l-0.3-0.4
		c0-0.1-0.1-0.6,0.1-0.7c0.4-0.4,0.8-0.3,1.1-0.1c0.7,0.1,1.6,0.7,2.9,1.3c2.6,1.4,6,3.4,9.5,5.7c3.5,2.3,7.2,4.3,10.1,5.7l3.4,1.7
		l1,0.6c0.3,0.1,0.5,0.4,0.5,0.7c0,0.1,0.1,0.1,0,0.6c0,0.1,0,0.1-0.1,0.3c-0.3,0.4-0.4,0.4-0.5,0.4c-0.3,0.1-0.7,0.1-1,0l-1.1-0.6
		l-3.5-1.9c-2.9-1.6-6.5-3.6-10.2-5.9c-3.5-2.4-6.8-4.6-9.3-6l-2.5-1.4l-0.3-0.1c0,0,0.3,0,0.1,0c-0.1,0,0.3-0.3,0.3-0.3
		C574.1,73.9,574.1,73.6,574.2,73.7L574.2,73.7L574.2,73.7z"/>
	<path class="st1" d="M591.8,81.9c0.1-0.1,0.5-0.1,0.7,0c0.1,0.1,0.1,0.6,0,0.7l0,0l0.1-0.1v0.1V83l0.1,1.9l0.7,5.3l0.8,5.4
		c0.3,1.4,0.4,2.4,0.4,3c0,0.3-0.3,0.4-0.4,0.4c-0.3,0-0.4-0.1-0.4-0.4l-0.4-2.7l-0.8-5.4L592,85l-0.1-1.9
		C591.5,82.6,591.4,82.3,591.8,81.9"/>
	<path class="st1" d="M604.5,84.5c-0.3-0.3-0.3-0.7,0-1s0.7-0.3,1,0s0.3,0.7,0,1c-0.3,0.1-0.5,0.3-0.8,0.1c-0.1,0,0.1,0,0.1,0
		c-0.1,0,0.1,0,0.1,0l-1,0.3c-0.1,0.1-0.4,0-0.4-0.3c0-0.1,0-0.3,0.1-0.4l0.5-0.6v0.1c0,0,0,0.3,0,0.1V84
		C604.3,84.2,604.5,84.6,604.5,84.5 M595.9,86.6c-0.3,0.1-0.5-0.1-0.7-0.3c-0.1-0.3,0-0.6,0.3-0.6c1.6-0.7,3.8-1.3,5.7-1.9l1.9-0.4
		c0.7-0.1,1.1-0.3,1.8-0.3c0.3,0,0.5,0.1,0.7,0.4l0.1,0.4c0,0.1,0,0.3,0,0.4l-0.1,0.3c-0.1,0.3-0.4,0.3-0.8,0.3l0,0l-1.2,0.3
		l-1.9,0.3C599.7,85.7,597.4,86.2,595.9,86.6"/>
	<path class="st1" d="M541.8,105.5c0.3-0.3,0.7-0.1,0.8,0.1c0.3,0.3,0.1,0.7-0.1,0.9c-0.1,0-0.1,0.1-0.3,0.1c-0.4,0-0.8,0-1.2-0.3
		c-0.5-0.3-1-0.6-1.4-1.3c-0.1-0.1,0-0.4,0.1-0.6c0.1-0.1,0.4,0,0.4,0.1c0.3,0.4,0.7,0.6,1.1,0.7L541.8,105.5L541.8,105.5
		L541.8,105.5z M512.5,96.8c0,0.3-0.3,0.4-0.5,0.4c-0.3,0-0.4-0.3-0.4-0.6c0.1-0.9,0.5-1.7,1.2-2.1s1.6-0.4,2.7-0.1
		c1.5,0.4,3.4,1.4,5.4,2.6c2.2,1.1,4.5,2.6,6.9,3.7c2,0.9,3.8,1.7,5.6,2.3l4.2,1.3c1.1,0.3,1.9,0.6,2.7,0.6h1l0.8,0.1
		c0.4,0,0.7,0.3,0.8,0.6c0,0.1,0.1,0.1,0.1,0.6c0,0.1,0,0.1,0,0.3c-0.1,0.3-0.1,0.4-0.3,0.4c-0.3,0.3-0.5,0.4-1,0.4H541h-1.2
		c-1-0.1-1.9-0.4-3-0.7l-4.4-1.4c-1.8-0.6-3.7-1.4-5.7-2.4c-2.5-1.3-4.8-2.7-6.9-3.9c-2-1.3-3.8-2.3-5-2.7c-0.8-0.3-1.4-0.3-1.8-0.1
		C512.9,95.8,512.7,96,512.5,96.8"/>
	<path class="st1" d="M531.5,102.9c-0.1,0.1-0.4,0-0.5-0.1c-0.3-0.1-0.3-0.4-0.3-0.6V102l0.1-0.3l1.1-0.7l6-3.4l4.9-2.6l2.3-1h0.1
		h0.5c0.1,0,0.5,0,0.8,0.4c0.1,0.3,0.1,0.9,0,1l-0.1,0.1l-0.3,0.1l-3,1.9c-0.1,0.1-0.4,0-0.5-0.1s0-0.4,0.1-0.4
		c1.5-1.1,2.3-1.9,2.5-2.1l0,0l0,0c0,0,0,0.3,0,0.1c0-0.1,0.1,0.4,0.1,0.3s0.4,0.4,0.3,0.3c-0.1,0,0.4,0.1,0.3,0.1
		c-0.1,0,0.3,0,0.3,0h0.1l-0.4,0.1h-0.1l-2.2,0.9l-4.9,2.4l-6,3.1L531.5,102.9L531.5,102.9L531.5,102.9z M531.3,101.8
		c0.3,0,0.5,0.1,0.5,0.4s0,0.4-0.3,0.6l-0.3,0.1l0,0c-0.3,0.1-0.5,0-0.7-0.3s0-0.6,0.3-0.7s0.5,0,0.7,0.3c0,0.1,0,0.1,0,0.3
		s-0.1-0.3,0-0.3c0,0.1-0.1-0.3-0.1-0.1C531.6,102,531.3,101.8,531.3,101.8C531.5,101.8,531.2,101.8,531.3,101.8L531.3,101.8z"/>
	<path class="st1" d="M541.7,114.5c0.3,0.3,0.1,0.9-0.3,1c-0.3,0.1-0.8,0.1-1-0.3c-0.1-0.4-0.1-0.9,0.3-1c0.3-0.1,0.7-0.1,0.8,0.1
		l-0.1-0.1c0.1,0-0.3-0.1-0.3-0.1H541l0.1-0.1c0.1-0.1,0.4-0.1,0.5,0c0,0,0.1,0.1,0.1,0.3v0.3L541.7,114.5L541.7,114.5
		C541.8,114.5,541.7,114.3,541.7,114.5 M533.4,104.5c-0.1,0.3-0.4,0.4-0.7,0.4s-0.4-0.3-0.4-0.4s-0.1-0.4,0.3-0.6
		c0.4-0.3,0.5,0,0.7,0.1l0.5,0.6l1.2,2c1.1,1.7,2.7,3.3,4,4.7l1.6,2l0.5,0.9l0,0H541h-0.3c0.5,0,0.8,0.6,0.8,1s-0.5,0.9-1,0.9
		s-0.8-0.4-1-0.6l-0.5-0.9l-1.5-2c-1.2-1.4-2.9-3.1-4-5.1l-1.1-2.1l-0.3-0.6l0,0c0,0,0.3,0.1,0.1,0.1s0.4,0,0.3,0
		c-0.1,0,0.3-0.1,0.1-0.1C533.2,104.8,533.4,104.5,533.4,104.5L533.4,104.5z M541.8,114.9c0,0.6-0.4,1-1,1c-0.5,0-1-0.4-1-1
		s0.4-1,1-1C541.4,113.9,541.8,114.3,541.8,114.9"/>
	<path class="st1" d="M481.1,54.4c-0.3,0.1-0.7,0-0.8-0.4c-0.1-0.4,0-0.7,0.4-0.9L581.2,8.6c0.3-0.1,0.7,0,0.8,0.4
		c0.1,0.3,0,0.7-0.4,0.9L481.1,54.4z"/>
	<path class="st1" d="M551.8,21c0.3-0.1,0.5,0,0.7,0.1s0.1,0.4-0.1,0.6l-0.1,0.1l0,0c0,0,0,0.1-0.3,0.1s-0.5-0.3-0.5-0.4v-0.3
		l0.1-0.3l0.5-1c0.5-0.7,1.2-1.6,1.9-2.7c1.6-2.6,3.3-6.7,4.9-10.4c0.8-1.7,1.6-3.1,2.2-4.3c0.5-1,0.8-1.7,1.1-2.3l0.5-1.3l0.5-0.9
		l0.1-0.3l0,0c0,0-0.1,0.1,0,0.1c0.1-0.6,0.8-0.9,1.4-0.6c0.5,0.1,0.8,0.9,0.5,1.4c-0.1,0.3-0.3,0.4-0.4,0.6l0.1-0.1h0.1l0,0v0.3
		L564.6,0L564,1.3l-1.2,2.4c-0.7,1.1-1.5,2.4-2.3,4.1c-1.8,3.4-3.4,7.7-5.3,10.4c-0.8,1.1-1.6,2-2,2.7l-0.7,0.7v0.1l0,0
		c0,0,0.1-0.3,0.1-0.1v-0.3c0,0.1-0.1-0.3-0.1-0.1c0,0.1-0.3-0.3-0.3-0.1c0.1,0-0.3,0-0.3,0L551.8,21C551.8,21,551.8,21.1,551.8,21
		 M565.1-1.3c0,0.6-0.4,1-1,1c-0.5,0-1-0.4-1-1s0.4-1,1-1C564.7-2.3,565.1-1.9,565.1-1.3"/>
	<path class="st1" d="M588.8,20.3c0.3,0.3,0.4,0.7,0.1,1c-0.3,0.3-0.7,0.4-1,0.1s-0.4-0.7-0.1-1C588.1,20.3,588.4,20.1,588.8,20.3
		l-0.3-0.1c0.1,0-0.1,0-0.1,0h-0.1C588.4,20.1,588.7,20.1,588.8,20.3L588.8,20.3L588.8,20.3L588.8,20.3L588.8,20.3L588.8,20.3z
		 M565.9,19.3c-0.3,0-0.4-0.3-0.4-0.6s0.3-0.4,0.5-0.4l3.7-0.3l5.4-0.4c2.9-0.1,5.3,0.3,7.6,1.1l3.4,1l1.2,0.3h0.4h-0.1
		c0.5-0.3,1.2,0.1,1.4,0.7c0.3,0.6-0.1,1.3-0.7,1.4h-0.1h-0.5l-0.8-0.1l-1.4-0.4l-3.4-1.1c-2.2-0.7-4.4-1.3-6.9-1.3h-5.6
		C568,19.4,566.6,19.4,565.9,19.3 M589.2,21.1c0,0.6-0.5,1.1-1.1,1.1s-1.1-0.6-1.1-1.1c0-0.6,0.5-1.1,1.1-1.1S589.2,20.6,589.2,21.1
		"/>
	<path class="st1" d="M577.8,68.7c-0.1,0.1-0.5,0.1-0.7,0c-0.1-0.1-0.1-0.4-0.1-0.7l1.5-2.9c0.7-1.3,1.6-3,2.9-5l2.3-3.4
		c1.9-2.7,3.5-4.6,5.2-6.6l5-6.3c1.5-1.9,2.2-3.1,3-4.3l1-1.3l1.2-1.6l0.3-0.4l0,0l0,0v0.1c0-0.3,0.1-0.6,0.3-0.7l0,0
		c0,0-0.1,0.3-0.1,0.1c0,0-0.1,0.6-0.1,0.4s0.1,0.6,0.1,0.4c0-0.1,0.3,0.3,0.1,0.3c-0.1,0,0.1,0.1,0.1,0.1c-0.3,0-1,0.1-1.9,0.4
		c-0.1,0-0.4,0-0.4-0.3c0-0.1,0-0.3,0.1-0.4l1.9-1.3l0.4-0.3c0,0,0.3-0.1,0.5-0.1c0.3,0,0.5,0.3,0.8,0.4c0.1,0.3,0.3,0.6,0.3,0.9
		c0,0.7-0.4,1-0.7,1.4l-1.2,1.7l-1,1.1c-0.8,1.1-1.5,2.4-3.1,4.3l-5.2,6.1c-1.8,2-3.4,3.7-5.3,6.3l-2.3,3.3l-3,4.7
		C578.9,67.4,578.3,68.2,577.8,68.7"/>
	<path class="st1" d="M568.1,48.7c0.4-0.3,0.8-0.3,1.2,0.1c0.3,0.4,0.3,0.9-0.1,1.3c-0.4,0.4-0.8,0.3-1.2-0.1
		c-0.3-0.3-0.3-0.7-0.1-1c0-0.1-0.1,0.3-0.1,0.3c0-0.1,0,0.3,0,0.3c0-0.1,0,0.3,0,0.1v0.1l0.1,0.1l0,0c-0.1-0.1-0.7-0.3-1.4-0.4
		c-0.1,0-0.3-0.3-0.3-0.4c0-0.1,0.1-0.3,0.3-0.3L568.1,48.7L568.1,48.7L568.1,48.7L568.1,48.7L568.1,48.7
		C568.3,48.6,568,48.7,568.1,48.7 M523.2,38.6c0.3-0.1,0.5,0.1,0.7,0.4c0.1,0.3,0,0.6-0.3,0.6h-0.1v-0.1c0,0,0-0.4,0-0.3
		c0,0.1-0.1-0.3-0.1-0.3l-0.1-0.1l0,0l1.4,0.1l4.6,0.6c1.5,0.1,3,0.6,4.6,0.9l3.4,0.9c1.8,0.4,3.7,0.6,5.7,0.9c3,0.4,5.7,1.1,8,1.9
		c2.3,0.7,4.5,1.6,6.5,2.4c2.2,0.9,4.4,1.6,6.3,1.7c1.1,0.1,2.2,0.1,3.3,0.1h1.4c0.1,0,0.3,0,0.4,0l0.4,0.1l0.3,0.3
		c0.1,0.1,0.1,0.3,0.1,0.4c0,0.3,0,0.4,0,0.6c-0.1,0.6-0.4,0.6-0.7,0.7c-0.1,0-0.3,0.1-0.4,0.1H567c-1,0-2.3,0-3.5-0.1
		c-2.2-0.3-4.5-1.1-6.8-2c-4-1.7-8.3-3.4-14.2-4.3c-1.9-0.3-4-0.6-5.9-1l-3.4-0.9c-1.6-0.4-3-0.9-4.4-1.1l-4.5-0.7
		c-0.7-0.1-1.1-0.1-1.5-0.4l-0.3-0.3c-0.1-0.1-0.3-0.4-0.1-0.7c0.1-0.3,0.3-0.3,0.3-0.4L523.2,38.6z"/>
	<path class="st1" d="M563.5,48.7c0.3-0.1,0.5,0,0.7,0.3c0.1,0.3,0,0.6-0.3,0.7c-0.3,0.1-0.4,0.1-0.7,0.1c-0.1,0-0.4-0.3-0.4-0.4V49
		c0.1-0.4,0.4-0.7,0.7-1c0.5-0.6,1.4-1.3,2.5-2.1l4-2.9l6.3-4.1l3.1-2c1.5-1,2.7-1.6,3.8-2.1l3.3-1.9l1.2-0.7
		c0.1-0.1,0.3-0.1,0.4-0.1l0,0c0,0-0.3,0.1-0.1,0.1c0.1-0.1-0.1,0.4-0.1,0.3c0-0.1,0,0.3,0,0.3l0,0l-0.1-0.1
		c-0.1-0.1-0.3-0.3-0.1-0.6c0-0.1,0.1-0.1,0.3-0.1h0.7c0.1,0,0.4,0.1,0.5,0.4c0.1,0.3,0.1,0.6,0,0.9c0,0.1-0.1,0.3-0.3,0.4
		c-0.4,0.4-1,0.7-1.6,1l-3.3,1.9c-1.1,0.6-2.3,1.1-3.7,2.1l-3.3,2l-6.3,4l-4.2,2.7c-1.1,0.7-1.9,1.3-2.3,1.9l-0.4,0.6l0,0v-0.1
		c0,0-0.1-0.3-0.1-0.1C563.6,49,563.3,48.9,563.5,48.7L563.5,48.7L563.5,48.7z"/>
	<path class="st1" d="M580.2,52.3c-0.1-0.3-0.1-0.6,0.1-0.9c0.3-0.1,0.5-0.1,0.8,0.1c0.1,0.3,0.1,0.6-0.1,0.9
		C580.9,52.6,580.6,52.6,580.2,52.3l0.3,0.1c0,0,0.1,0,0,0l0,0c-0.1,0-0.4-0.1-0.3-0.4v-0.1V52v0.1
		C580.2,52.2,580.4,52.4,580.2,52.3 M565.8,51.9c0.1-0.3,0.4-0.4,0.7-0.3c0.3,0.1,0.4,0.4,0.3,0.6c0,0-0.1-0.3,0-0.1l0,0l1.1,0.1
		c1.1,0,2.7-0.3,4.4-0.6c1.9-0.3,3.7-0.6,5.2-0.7h1.6h1.4h0.4c0.1,0,0.4,0,0.7,0.6c0.3,0.4,0,1-0.4,1.1c-0.4,0.3-1,0-1.1-0.4l0,0
		c0-0.1,0.3,0.3,0.1,0.3c-0.1-0.1,0.3,0.1,0.1,0.1h0.1h-0.1H579h-1.6c-1.4,0-3.1,0.1-5,0.4c-1.8,0.3-3.4,0.4-4.6,0.3
		c-0.5,0-1.1,0-1.5-0.3c-0.3-0.1-0.4-0.3-0.5-0.4C565.7,52.3,565.8,52,565.8,51.9 M581.7,51.9c0,0.4-0.4,0.9-0.8,0.9
		s-0.8-0.4-0.8-0.9c0-0.4,0.4-0.9,0.8-0.9C581.3,50.9,581.7,51.3,581.7,51.9"/>
	<path class="st1" d="M483.3,79.2c-0.3,0.1-0.5,0-0.7-0.3c-0.1-0.3,0-0.6,0.3-0.7l2.7-1.4c2.2-1,5.7-2.1,9.1-3.6
		c2-0.9,3.8-1.6,5.3-2.3l2.2-1l1-0.4c0.4-0.1,0.8,0.1,1,0.6c0.1,0.3,0,0.7-0.4,0.9l-0.8,0.4l-2.2,1c-1.5,0.7-3.3,1.4-5.4,2.3
		c-3.5,1.3-7.2,2.4-9.1,3.3L483.3,79.2z"/>
	<path class="st1" d="M510.8,56.3c-0.1-0.3,0-0.6,0.3-0.7c0.3-0.1,0.5,0,0.7,0.3c0,0.1,0,0.1,0,0.3c0,0.3-0.1,0.6-0.3,0.9l-0.8,1.6
		c-0.1,0.1-0.3,0.3-0.5,0.1c-0.1-0.1-0.3-0.3-0.1-0.4l0.5-1.6L510.8,56.3L510.8,56.3L510.8,56.3z M495.2,73c0-0.1,0-0.4,0.1-0.6
		v-0.1l0.3-0.3l2.2-2.6c1.4-1.4,3.1-2.9,4.6-4.4c2.3-2.3,3.8-4.6,5-6.7c0.7-1,1.4-2,1.9-2.6l0.7-0.6l0.4-0.3c0.1,0,0.4-0.1,0.8,0
		c0.5,0.1,0.7,0.7,0.5,1.3c-0.1,0.4-0.5,0.7-1,0.6c-0.1,0,0.4,0,0.3,0h0.1l0,0l-0.4,0.4c-0.5,0.6-1.1,1.4-1.8,2.4
		c-1.4,2-3.1,4.4-5.6,6.7c-1.6,1.4-3.4,2.9-4.8,4.1l-2.3,2.4l-0.3,0.3l-0.1,0.1h-0.1h-0.3C495.5,73.5,495.4,73.3,495.2,73 M495.8,72
		c0.1-0.3,0.5-0.3,0.7-0.1c0.3,0.1,0.3,0.4,0.1,0.7l-0.1,0.4l0,0v-0.1c0,0,0-0.3,0-0.1c0,0-0.1-0.3-0.1-0.1c0,0-0.3-0.3-0.3-0.1
		h-0.3c0.3,0,0.5,0.3,0.5,0.6c0,0.3-0.3,0.6-0.5,0.6s-0.5-0.3-0.5-0.6c0-0.1,0-0.3,0.1-0.3l0.1-0.1L495.8,72z"/>
	<path class="st1" d="M498.4,73.3c-0.3,0-0.4-0.3-0.4-0.6s0.3-0.4,0.5-0.4c1.8,0,4.4,0.4,7.2,1.1c2.2,0.6,3.8,1.6,5.3,2.3l1.5,0.9
		l1.1,0.4h0.3l0,0l-0.1,0.1c0-0.1,0.1-0.1,0.3-0.1c0.1,0-0.1,0.1-0.1,0.1l0,0v-0.7c0-0.1,0-0.4,0.3-0.4c0.1,0,0.3,0,0.4,0.1L515,77
		c0.1,0.3,0.1,0.4,0.1,0.7c0,0.1,0,0.3-0.1,0.3c-0.1,0.3-0.5,0.6-0.8,0.7s-0.5,0.1-0.8,0c-0.5,0-1.1-0.3-1.5-0.4l-1.6-0.9
		c-1.4-0.9-2.9-1.7-4.8-2.3C502.5,74.2,499.9,73.5,498.4,73.3"/>
	<path class="st1" d="M524.3,62.6c0.1-0.3,0.4-0.4,0.5-0.3c0.3,0.1,0.4,0.4,0.3,0.6c-0.1,0.3-0.4,0.4-0.5,0.3
		c-0.1,0-0.3-0.1-0.3-0.3l0.1,0.1c0-0.1,0.1,0.1,0.1,0.1h0.1h-0.4c-0.1,0-0.4-0.1-0.4-0.3s0.1-0.3,0.3-0.4l0.4-0.1h0.1
		c0,0-0.1,0.1,0,0l0,0C524.4,62.3,524.3,62.7,524.3,62.6 M506.1,72.5c-0.1-0.3-0.1-0.6,0.1-0.7c0.1-0.1,0.4-0.1,0.7,0
		c0.1,0.1,0.3,0.1,0.4,0.1l1-0.3c0.8-0.3,1.9-1,3.1-1.7l4.2-2.6c2-1.3,3.5-2.3,4.6-3l1.1-0.9l1.4-0.9c0.7-0.3,1.4-0.6,1.8-0.6h0.3
		c0,0,0.1,0,0.3,0.1s0.1,0.1,0.1,0.3c0,0.3,0,0.3,0,0.4c-0.1,0.3-0.3,0.3-0.3,0.3l-1.4,0.9l-1.1,0.9l-1.1,1l-4.8,3l-4.2,2.4
		c-1.4,0.7-2.5,1.3-3.5,1.6c-0.5,0.1-1,0.1-1.4,0.1C506.8,73,506.4,72.9,506.1,72.5"/>
	<path class="st1" d="M530.8,69.3c0.4-0.1,0.8,0,1,0.4c0.1,0.4,0,0.9-0.4,1s-0.8,0-1-0.4c-0.1-0.3,0-0.6,0.1-0.9l-0.1,0.1
		c0.1-0.1-0.1,0.4-0.1,0.3s0,0.3,0,0.3c0-0.1,0.1,0.1,0.1,0.1l0,0c-0.1-0.1-0.5-0.3-1.1-0.4c-0.1,0-0.3-0.3-0.3-0.4s0.1-0.3,0.4-0.3
		L530.8,69.3L530.8,69.3L530.8,69.3L530.8,69.3L530.8,69.3z M517.9,68.7c0.3-0.1,0.5,0,0.7,0.3c0.1,0.1,0,0.4-0.1,0.6l0,0v-0.1v-0.1
		c0,0.1,0-0.3,0-0.3s-0.1-0.3-0.1-0.1c0,0.1-0.3-0.1-0.1-0.1H518l0,0h0.1l1.6-0.1c1.6-0.1,3.4-0.4,5.2-0.1c1.2,0.1,2.5,0.6,3.5,0.7
		c1.1,0.1,2,0.3,2,0.1c0.1,0,0.4,0,0.5,0l0.3,0.1c0.1,0.1,0.1,0.1,0.3,0.3c0.1,0.4,0.1,0.6,0,0.7c0,0.1-0.1,0.3-0.3,0.4
		c-0.5,0.3-0.8,0.3-1.4,0.3h-1.6c-1.4-0.1-2.6-0.6-3.7-0.7c-1.5-0.3-3.1-0.1-4.9-0.1l-1.8-0.1c-0.3,0-0.5,0-0.7-0.4
		c-0.1-0.3,0-0.7,0.1-0.9L517.9,68.7z"/>
	<path class="st1" d="M543.1,55.9c0.1-0.3,0.5-0.4,1-0.3c0.3,0.1,0.4,0.6,0.3,1c-0.1,0.3-0.5,0.4-1,0.3c-0.3-0.1-0.4-0.3-0.4-0.6
		c0-0.1,0.1,0.3,0.1,0.3l0.1,0.1c-0.1-0.1,0.3,0.1,0.1,0.1h0.1h0.1c-0.5,0.1-1.9,1-2.2,1.4c-0.1,0.1-0.4,0.1-0.5,0s-0.1-0.3-0.1-0.4
		c0.4-0.9,1.5-1.7,2.3-2.1L543.1,55.9L543.1,55.9L543.1,55.9L543.1,55.9z M526.6,68.2c0.3-0.1,0.5-0.1,0.7,0c0.1,0.1,0.1,0.6,0,0.7
		l-0.3,0.4l0,0l0,0v-0.1c0,0-0.1-0.3,0-0.3c0,0.1-0.3-0.3-0.1-0.1c0.1,0.1-0.3-0.1-0.3-0.1h-0.1h0.1c0.4-0.3,1.4-0.9,2.6-1.9
		c2.5-2.1,5.6-5.3,8.9-7.7c1.8-1.3,3.3-2.1,4.4-2.9l1-0.6c0.1,0,0.3-0.1,0.3-0.1h0.3h0.1c0.1,0,0.3,0.1,0.4,0.3l0.3,0.4
		c0.1,0.4,0,0.7-0.1,0.9c0,0.1-0.1,0.1-0.3,0.3l-1,0.6c-1.1,0.7-2.6,1.4-4.2,2.7c-3.3,2.3-6.4,5.1-9,7.3c-1.2,1-2.3,1.7-3,1.9
		c-0.1,0-0.3,0.1-0.5,0.1c-0.1,0-0.3-0.1-0.4-0.3c-0.1-0.3-0.1-0.4,0-0.6C525.9,68.6,526.2,68.5,526.6,68.2"/>
	<path class="st1" d="M538.8,65.3c-0.3,0.1-0.5,0-0.7-0.3c-0.1-0.3,0-0.4,0.1-0.6c0.8-0.7,2.3-0.7,4-0.9c1.1,0,2,0,3,0.1
		c1.2,0.1,2.5,0.4,3.7,0.4c1,0,2,0,3.1-0.4c0.8-0.1,1.5-0.3,2.2-0.4c0.1,0,0.4,0,0.4,0.3c0,0.1,0,0.3-0.1,0.4l-2,1.3
		c-1.4,0.4-2.5,0.7-3.7,0.7c-1.4,0-2.7-0.1-4-0.3c-1-0.1-1.8-0.3-2.7-0.3C540.7,65,539.2,65.2,538.8,65.3"/>
	<path class="st1" d="M481.3,122.6c0.1-0.3,0.4-0.4,0.7-0.3c0.3,0.1,0.4,0.3,0.4,0.6v-0.1c0,0.1-0.1-0.3-0.1-0.3l-0.1-0.1h0.1
		l1.4-0.4c1.2-0.4,3-1.3,5.2-2.3l7.1-3.4l4.1-1.9c2.5-1.1,5-2.1,7.2-3l4.2-1.7c0.7-0.1,1.1-0.3,1.5-0.1c0.3,0,0.7,0.1,0.8,0.7
		c0.1,0.3,0,0.6-0.1,0.7l-0.1,0.1c-0.3,0.3-0.8,0.6-1.5,0.9s-1.4,0.6-2,0.6c-0.1,0-0.4-0.1-0.4-0.3c0-0.1,0.1-0.3,0.3-0.4
		c1.1-0.4,2.6-1.4,2.6-1.6c0,0,0,0.3,0,0.1c0-0.1,0,0.3,0,0.3c0-0.1,0.3,0.4,0.1,0.3c-0.1-0.1,0.4,0.1,0.3,0.1c-0.1,0,0.1,0,0.1,0
		h0.1l0,0l-1,0.3l-4.4,1.7c-2.3,0.9-4.8,1.9-7.2,2.9l-4.1,1.7l-7.2,3.1c-2,1-4,1.7-5.3,2.1c-0.7,0.1-1.2,0.3-1.6,0.4
		c-0.3,0-0.4,0-0.7-0.1C481.5,123.3,481.2,122.9,481.3,122.6"/>
	<path class="st1" d="M510.5,124.9c0-0.4,0.4-0.7,0.7-0.7c0.4,0,0.7,0.4,0.7,0.7c0,0.4-0.4,0.7-0.7,0.7c-0.3,0-0.5-0.3-0.5-0.6v0.1
		c0-0.1,0.1,0.1,0,0.1l0,0l-0.1-0.1c-0.1-0.1-0.3-0.3-0.1-0.6l0.1-0.1h0.1l0,0v0.1C510.6,124.6,510.5,124.9,510.5,124.9L510.5,124.9
		z M494.3,120.2c-0.1-0.1-0.1-0.1-0.1-0.3c-0.1-0.6,0.1-0.6,0.3-0.6c0.1-0.1,0.3-0.1,0.5-0.3l1.2-0.3c0.5,0,1.2-0.1,1.9-0.1
		c1.2,0.1,1.8,1.1,2.3,1.4c1.2,0.9,4.2,1,6.9,1.7c1.4,0.3,2.5,0.9,3.4,1.3l1.1,0.6l0.4,0.4c0.1,0.1,0.4,0.4,0.3,1
		c-0.1,0.6-0.7,0.9-1.2,0.6c-0.3-0.1-0.5-0.3-0.5-0.6c0-0.1,0.1,0.3,0.1,0.3c0-0.1,0.1,0.1,0.1,0.1l0,0h-0.1l-1-0.6
		c-0.8-0.4-1.8-0.9-3-1.1c-2.5-0.6-5.4-0.6-7.5-2.1c-0.8-0.7-1.4-1.3-1.5-1.3c-0.4-0.1-1,0-1.6-0.1l-1.2-0.1h-0.4
		C494.4,120.3,494.4,120.5,494.3,120.2 M495,119.5c0.1,0.3,0.1,0.6,0,0.7c0,0-0.1,0.1-0.3,0.1l0,0l0,0c0,0,0.1-0.1,0.1,0
		c-0.3,0.1-0.5,0.1-0.7-0.1c-0.1-0.3-0.1-0.6,0.1-0.7C494.6,119.2,494.8,119.2,495,119.5c0.1,0.1,0.1,0.3,0.1,0.4s0-0.3,0-0.3
		C495.1,119.8,495,119.5,495,119.5L495,119.5z"/>
	<path class="st1" d="M503.3,119.9c0-0.3,0.3-0.4,0.5-0.4c0.3,0,0.4,0.3,0.4,0.6l0,0l-0.1,0.7l0.1,0.4h0.1l0.7-0.1l1.9-1l2.5-1.4
		l2.9-1.9c1.5-0.7,3.1-1.4,5.7-2.3c0.1,0,0.4,0,0.4,0.3c0,0.1,0,0.4-0.1,0.4c-2.5,1.3-4,2.1-5.2,3.1l-3,1.7l-2.6,1.4
		c-0.8,0.3-1.5,0.6-2.2,0.7l-1,0.1c-0.3,0-0.7-0.1-0.8-0.4c-0.3-0.3-0.4-0.7-0.4-1L503.3,119.9z"/>
	<path class="st1" d="M518.9-24.5c0.1-0.3,0.5-0.4,0.8-0.1c0.3,0.1,0.4,0.6,0.1,0.9c-0.1,0.1-0.3,0.3-0.4,0.3l-1.1,0.6
		c-0.1,0.1-0.4,0-0.5-0.1s0-0.4,0.1-0.4L518.9-24.5z M483.8-3.9c-0.3,0-0.5-0.1-0.5-0.4s0.1-0.6,0.3-0.6c0.8-0.3,1.6-1,2.7-1.4
		c0.7-0.3,1.2-0.1,1.6-0.4c0.8-0.3,2-1.1,3.1-2c1.6-1.1,3.1-2,5.2-3.1c2.6-1.4,6.1-3.6,9.5-5.7c1.8-1.1,3.4-2,4.6-2.6
		c1.1-0.4,1.8-0.6,2.3-0.9c1-0.4,2-1.3,3-2.1l1.9-1.3l1.4-0.9l0.1-0.1h0.1l0,0c0.4-0.3,1.1-0.1,1.4,0.3c0.3,0.4,0.1,1.1-0.3,1.4
		c0,0-0.1,0-0.1,0.1l0,0l0,0l-0.1,0.1l-1.2,0.9l-1.8,1.3c-1,0.7-2,1.7-3.4,2.3c-0.7,0.3-1.2,0.4-2.2,0.9c-1.2,0.6-2.9,1.4-4.5,2.4
		c-3.4,2-6.9,4.1-9.7,5.6c-2,1-3.5,1.9-5,2.9c-1.1,0.7-2.3,1.7-3.5,2.1c-0.8,0.3-1.4,0.1-1.6,0.3C485.7-4.6,484.8-4.2,483.8-3.9
		 M520.4-24.3c0,0.6-0.4,1-1,1s-1-0.4-1-1s0.4-1,1-1S520.4-24.9,520.4-24.3"/>
	<path class="st1" d="M524.5-7c0.1-0.4,0.4-0.6,0.8-0.4c0.4,0.1,0.5,0.4,0.4,0.9c0,0.1-0.1,0.1-0.1,0.3C525.3-6,525.1-6,524.8-6H524
		l-1.6-0.3c-0.1,0-0.3-0.3-0.3-0.4s0.1-0.3,0.4-0.3h1.5l0.5-0.1h0.1l0,0C524.5-7.2,524.4-6.9,524.5-7 M503-14.5
		c0.1,0.3-0.1,0.6-0.4,0.7c-0.3,0.1-0.5,0-0.5-0.3l-0.1-0.4c0-0.1,0-0.3,0-0.6c0.1-0.3,0.3-0.4,0.5-0.4h0.4c0.5,0.1,1.1,0.4,1.8,0.7
		c1.4,0.6,3.4,1.1,5.6,1.9l3.3,1c2.6,0.7,5.4,1.4,7.8,2.1l2.9,0.9c0.7,0.3,1.2,0.6,1.5,1c0.1,0.1,0.3,0.4,0.3,0.6c0,0.3,0,0.7-0.4,1
		h-0.1h-0.1h-0.1h-0.3c-0.3,0-0.4-0.1-0.5-0.3L523.4-7l-2.7-0.9c-2.3-0.7-5.2-1.4-7.8-2.3l-3.3-1.1c-2.2-0.7-4.1-1.4-5.7-2.3
		l-1.5-0.9l0,0h0.1c0,0,0.3-0.1,0.1-0.1C502.7-14.3,502.9-14.6,503-14.5v-0.1V-14.5z"/>
	<path class="st1" d="M531.5-17.3c-0.1-0.4,0.1-1,0.5-1.1s1,0.1,1.1,0.6c0.1,0.4-0.1,1-0.5,1.1c-0.3,0.1-0.5,0-0.8-0.1l0.1,0.1
		c-0.1-0.1,0.3,0.1,0.3,0.1c-0.1,0,0.1,0,0.1,0c-0.1,0,0.1,0,0.1,0l-0.4,0.1c-0.4,0.1-0.8,0.4-1.2,0.7c-0.1,0.1-0.4,0.1-0.5,0
		s-0.1-0.3,0-0.4c0.3-0.6,0.7-1,1.1-1.3l0.3-0.3l0,0v0.1v0.1C531.5-17.8,531.5-17.3,531.5-17.3L531.5-17.3z M519.1-10
		c-0.1-0.1-0.1-0.4,0.1-0.7s0.3-0.1,0.3-0.1h0.1l1.1-0.3c0.8-0.3,2-1.1,3.3-2c2.2-1.4,4.4-3,6-4.1c1-0.6,1.6-1,1.9-1.1
		c0.3-0.1,0.7-0.1,1,0.1l0.1,0.1c0.1,0.1,0.1,0.3,0.1,0.4v0.1c0,0.4-0.3,0.7-0.5,0.9c-0.1,0-0.8,0.4-1.8,1c-1.6,1-3.8,2.6-6.1,4
		c-1.4,0.7-2.6,1.7-3.7,2c-0.5,0.1-1.1,0.1-1.4,0.1h-0.1C519.5-9.7,519.4-9.6,519.1-10 M520-10.9c0.3,0,0.5,0.3,0.5,0.6
		s-0.3,0.4-0.4,0.6h-0.3l0,0h0.1l0,0c0,0,0.1-0.3,0.1-0.1c-0.1,0.3-0.4,0.4-0.7,0.3c-0.3-0.1-0.4-0.4-0.3-0.7
		c0.1-0.3,0.4-0.4,0.7-0.3C519.9-10.7,519.9-10.7,520-10.9C520-10.8,519.7-10.9,520-10.9c0,0-0.2,0-0.2,0l0,0H520z"/>
	<path class="st1" d="M481.6,21.3c0.3-0.1,0.5,0,0.7,0.3c0.1,0.3,0,0.6-0.1,0.7c0,0,0.1-0.3,0.1-0.1c0,0.1,0-0.3,0-0.3
		c0,0.1,0-0.1,0-0.1l0,0l0.1,0.1l1.1,0.3c1.1,0.1,2.6,0,5.2-0.9c2.2-0.6,4.9-1.7,8.3-3c4-1.4,8-2.7,12.4-4c4.9-1.4,10.4-2.6,15-3.7
		l5.9-1.3l2-0.6l0.3-0.1l0,0l-0.1,0.1l-0.1,0.1c0-0.1-0.1,0.4-0.1,0.3s0.1,0.6,0,0.4c-0.1-0.6,0.1-1.1,0.5-1.3
		c0.4-0.1,1,0.1,1.2,0.6c0.1,0.4,0,0.9-0.1,1.1c-0.3,0.4-0.7,0.6-1,0.7l-2.2,0.7l-5.9,1.3c-4.8,1.1-10.1,2.3-15,3.6
		c-4.2,1.1-8.4,2.4-12.3,3.7c-3.4,1.1-6.3,2.3-8.6,2.9c-2.6,0.7-4.4,0.9-5.7,0.6c-0.5-0.1-1.1-0.3-1.4-0.6c-0.1-0.1-0.3-0.3-0.4-0.4
		c0-0.1-0.1-0.3-0.1-0.4C481.3,21.6,481.5,21.4,481.6,21.3"/>
	<path class="st1" d="M544-9.5c-0.1-0.3,0-0.4,0.1-0.6c0.3-0.1,0.4,0,0.5,0.1v0.1c0.1,0.4-0.1,0.6-0.3,0.9l-0.5,1.7
		c-0.1,0.1-0.3,0.3-0.5,0.1c-0.1-0.1-0.3-0.3-0.1-0.4l0.7-1.6L544-9.5L544-9.5C544-9.6,544.1-9.5,544-9.5 M523.6,11.8
		c-0.3-0.1-0.3-0.4-0.3-0.6c0.1-0.4,0.1-0.3,0.1-0.3l0.1-0.1l0.4-0.3l1.5-1.3l5-4.9l4.1-4c2.3-2.4,4.1-4.4,5.7-6.4l2.6-3.3l0.7-0.7
		c0.1-0.1,0.3-0.4,0.8-0.6c0.4-0.1,1,0.1,1.1,0.7c0.1,0.4-0.1,1-0.7,1.1c-0.1,0,0.1-0.1,0.1,0L544.3-8l-2.6,3.3
		c-1.6,2-3.5,4.1-6,6.4l-4.1,3.9l-5.2,4.7l-1.5,1.3l-0.4,0.3l-0.1,0.1h-0.1C524,11.8,524,12.1,523.6,11.8 M523.6,11
		c0.3-0.1,0.5,0,0.7,0.3c0.1,0.1,0.1,0.3,0,0.4v-0.1v-0.1c0,0,0-0.3,0-0.1c0.1,0.3-0.1,0.6-0.4,0.7c-0.3,0.1-0.5-0.1-0.7-0.4
		C523.3,11.3,523.4,11,523.6,11S523.7,11,523.6,11C523.8,10.8,523.6,11,523.6,11L523.6,11z"/>
	<path class="st1" d="M531.6,12.1c-0.3-0.1-0.4-0.4-0.3-0.7c0.1-0.3,0.3-0.4,0.5-0.4c0.8,0.1,2.7-0.4,5.3-1.3l5-1.7
		c2.3-0.9,4.8-1.9,6.8-2.7l3.1-1.1c0.5-0.1,0.8-0.3,1.4,0c0.3,0.1,0.4,0.7,0.3,1l-0.3,0.3L552,6.7c-0.1,0.1-0.4,0.1-0.5,0
		s-0.1-0.3,0-0.4l1.1-1.4l0,0v0.3c0,0,0.1,0.3,0.1,0.1c-0.1-0.1,0.4,0.1,0.3,0.1c-0.1,0,0.1,0,0.1,0l-0.5,0.1l-3.1,1.1
		c-2,0.9-4.5,1.9-6.8,2.7l-5.2,1.6C535,11.8,533,12.6,531.6,12.1"/>
	<path class="st1" d="M508.3,14.8c0.1-0.3,0.4-0.3,0.7-0.1c0.1,0.1,0.3,0.3,0.3,0.6l0.3,1.3c0.3,1.4,1.1,3.3,1.9,5.4
		c0.7,1.7,1.5,3.6,2.2,5c0.5,1.1,1.1,2.1,1.4,2.6l0.1,0.1l0.1,0.1l0,0l-0.1-0.1l-0.3-0.1c0.1,0-0.4,0-0.3,0c0.1,0-0.3,0.1-0.3,0.1
		c0.1,0-0.3,0.1-0.1,0.1V30v-0.1c0-0.6-0.1-1.9-0.7-3.9c0-0.1,0-0.4,0.3-0.4c0.1,0,0.4,0,0.4,0.3l1.4,4l0.1,0.4
		c0,0.1,0.1,0.3-0.1,0.7s-0.8,0.4-1.1,0.4l-0.5-0.3l-0.1-0.1c-0.4-0.6-1-1.6-1.6-2.9c-0.7-1.6-1.5-3.4-2.2-5.1
		c-0.8-2.1-1.4-4.1-1.6-5.7C508,16,508,15.3,508.3,14.8"/>
	<path class="st1" d="M510.2,15.7c0.1,0.3,0,0.6-0.3,0.7s-0.5,0-0.7-0.3c-0.3-0.6-0.1-1.1,0.3-2.1l1-2.1c0.7-1.4,1.2-3.6,2-5.6
		c0.7-1.6,1.4-3,2-4.1c0.7-1.1,1.2-1.9,1.8-2.3l0.1-0.1c0.3-0.1,0.5-0.4,1.1-0.1c0.3,0.1,0.4,0.6,0.4,0.9l-0.1,0.3l-1,1.7
		c-0.1,0.1-0.3,0.3-0.5,0.1c-0.1-0.1-0.1-0.3-0.1-0.4l0.4-1V0.8l0,0c0,0,0.1,0.3,0.1,0.1l0.1,0.1c0,0,0.3,0.1,0.1,0.1h0.3
		c-0.1,0,0.3-0.1,0.3-0.1l0.1-0.1L517.5,1l-0.1,0.1c-0.3,0.3-0.8,1-1.5,1.9c-0.7,1-1.4,2.3-2,3.7c-0.8,1.9-1.5,3.9-2.3,5.4l-1.1,2
		C510.2,15.1,510.2,15.6,510.2,15.7"/>
	<path class="st1" d="M498.9,18.8c0,0.3-0.3,0.6-0.5,0.4c-0.3,0-0.4-0.3-0.4-0.4c0-0.3-0.5-1.1-0.5-2.4c0-0.7,0.4-1.3,0.7-1.9
		c0.5-1.1,1.4-2.4,2.2-4c0.7-1.3,1.2-2.6,1.9-4l1.5-3.7l0.8-2.1l0.4-1.3l0.3-0.7c0.1-0.4,0.5-0.7,1-0.6c0.3,0.1,0.5,0.4,0.5,0.7v0.7
		l-0.4,1.7l-1,2.3l-1.6,3.7c-0.7,1.3-1.4,2.7-2,4l-2.3,3.9c-0.3,0.7-0.5,1.1-0.5,1.4C498.6,17.4,499.1,18,498.9,18.8"/>
	<path class="st1" d="M445.4,237.6c0,0.3-0.1,0.6-0.4,0.6s-0.5-0.1-0.5-0.4s0.1-0.6,0.4-0.6c0.1,0,0.3,0,0.4,0.1s-0.3-0.1-0.1-0.1
		H445c0.1,0-0.1,0-0.1,0l0,0l0.7-0.3c0.1-0.1,0.4,0,0.5,0.1s0,0.4-0.1,0.4l-0.5,0.4l0,0c0,0,0.1-0.1,0-0.1L445.4,237.6
		C445.4,237.7,445.4,237.4,445.4,237.6 M480.9,219.1c-0.1,0.3-0.4,0.4-0.7,0.4c-0.3,0-0.4-0.3-0.4-0.4c0,0,0.1,0.3,0.1,0.1l0,0h-0.3
		l-1.5,0.1c-1.5,0.1-3.3,0.9-5.7,2c-3.5,1.6-8.2,4.1-12.3,6.4l-4.1,2.4l-3.7,2.1l-2,1.4l-1.8,1.6l-1.1,1l-1.6,1.3l-0.7,0.4l-0.3,0.1
		c-0.1,0,0,0.1-0.4,0h-0.1c-0.1,0-0.1-0.1-0.3-0.3v-0.1c-0.1-0.4,0.1-0.4,0.1-0.6l0.5-0.7l1.6-1.4l1.1-1l2-1.6l2-1.4l3.7-2.3
		l4.1-2.4c4.2-2.4,8.7-4.9,12.4-6.6c2.6-1.1,4.5-1.9,6.1-2.1c0.7,0,1.4,0,1.8,0.1c0.3,0,0.4,0.1,0.7,0.3l0.3,0.4L480.9,219.1z"/>
	<path class="st1" d="M450.3,233.9c-0.3-0.3-0.4-0.9-0.1-1.1c0.3-0.3,0.7-0.4,1.1-0.1c0.8,0.6,1.1,1.7,1.4,3l1.1,5.1
		c0.4,2.3,1.1,4.4,1.6,6l0.5,1.4l0.3,0.6l0,0c0,0-0.3-0.1-0.1-0.1c0,0-0.3-0.1-0.1-0.1s-0.4,0-0.3,0h-0.1c0.1,0-0.3,0.1-0.1,0.1
		l-0.1,0.1l0,0v-0.3l0.1-1.1c0-0.9,0-1.9,0.4-2.6c0.1-0.1,0.3-0.3,0.5-0.1c0.1,0.1,0.3,0.3,0.1,0.4c-0.1,0.4-0.1,1.4,0,2.3l0.1,1.1
		v0.4c0,0.1,0,0.4-0.1,0.7l0.1-0.1l-0.4,0.4c-0.1,0.1-0.4,0.1-0.5,0.1c-0.3,0-0.4-0.1-0.5-0.3c-0.3-0.3-0.4-0.4-0.7-0.9l-0.7-1.7
		c-0.5-1.7-1.1-4-1.5-6.3l-1-5.1l-0.4-1.6L450.3,233.9z"/>
	<path class="st1" d="M437.6,245.6c-0.3-0.1-0.4-0.4-0.3-0.7s0.4-0.4,0.7-0.3c0,0,0.1,0,0.1,0.1l0,0h0.5c0.4,0,0.8-0.3,1.4-0.6
		c0.1-0.1,0.4-0.1,0.5,0.1c0.1,0.1,0.1,0.4,0,0.6c-0.5,0.4-1.1,0.7-1.6,1C438.3,245.6,437.9,245.7,437.6,245.6 M448.7,240.4
		c0.1,0.3,0,0.6-0.3,0.7c-0.3,0.1-0.5,0-0.7-0.3c0,0,0,0,0-0.1c-0.3-0.9,0.1-1.6,0.3-2.4v-0.1l0,0l-0.1-0.1l0.1,0.1l0,0h-0.3l-1,0.3
		c-0.7,0.3-1.2,1-1.9,1.7l-1.8,1.7l-2.6,2.1l-1.9,1.4c-0.3,0.4-0.7,0.4-1.1,0.3c-0.4-0.3-0.4-0.7-0.3-1.1c0.3-0.4,0.7-0.6,1-0.9
		l1.4-1l2.6-2l1.8-1.6c0.7-0.7,1.4-1.6,2.3-2c0.5-0.1,1-0.3,1.5-0.3l0.7,0.1c0.3,0.1,0.5,0.3,0.7,0.7v0.1c0,0.4-0.1,0.7-0.3,1
		L448.7,240.4z M438.6,244.9c0,0.4-0.4,0.9-0.8,0.9s-0.8-0.4-0.8-0.9c0-0.4,0.4-0.9,0.8-0.9S438.6,244.4,438.6,244.9"/>
	<path class="st1" d="M454.9,245.6c0.3,0,0.5,0.1,0.5,0.4c0,0.3-0.1,0.6-0.4,0.6s-0.5-0.1-0.5-0.4V246l0,0v-0.4l-0.1-0.7
		c-0.1-0.1-0.1-0.4,0-0.6c0.1-0.1,0.3-0.1,0.4,0c0.4,0.3,0.4,0.9,0.4,1.3v0.4l0,0c0,0-0.1-0.1,0-0.1l-0.1-0.1H455
		C455.2,245.7,454.8,245.6,454.9,245.6 M454.5,246c0-0.3,0.3-0.4,0.5-0.4c0.3,0,0.4,0.3,0.4,0.6v0.1l-0.1,0.1l-0.1,0.1
		c-0.1,0-0.1,0.1-0.5,0.1C454.6,246.6,454.5,246.3,454.5,246L454.5,246z"/>
	<path class="st1" d="M468.1,242.6c0.1-0.3,0.5-0.3,0.7,0c0.3,0.1,0.3,0.6,0,0.7c-0.1,0.3-0.5,0.3-0.7,0l-0.1-0.1V243v-0.1l-0.1-0.4
		v-1.1c0-0.1,0.1-0.3,0.4-0.3c0.1,0,0.3,0.1,0.3,0.3l0.1,1l0.1,0.3l-0.1-0.1c0,0-0.3,0-0.1,0c0,0-0.3,0-0.1,0
		C468.4,242.4,468,242.7,468.1,242.6 M462,228.6c-0.1-0.3,0-0.6,0.1-0.7c0.3-0.1,0.5,0,0.7,0.1c1.2,1.7,1.9,4.9,3,7.9
		c0.5,1.6,1.1,2.9,1.6,4l0.5,1.1l0.5,0.9c0.1,0.1,0.3,0.4,0.3,0.6c0,0.1,0.1,0.1-0.1,0.6l-0.1,0.1c-0.4,0.4-0.5,0.1-0.8,0.1
		s-0.4-0.1-0.5-0.3l-0.7-1.1l-0.7-1.3c-0.5-1.3-1.2-2.7-1.6-4.3C463.5,233.4,463,230.3,462,228.6"/>
	<path class="st1" d="M467.9,240.6c0.3,0.1,0.4,0.4,0.3,0.7s-0.4,0.4-0.5,0.3c-0.1,0-0.4,0-0.7,0.1c-0.3,0.3-0.7,0.6-1,1
		c-0.7,1-1.5,2.4-2.2,3.7l-2.2,3.9l-0.8,1.4l-0.1,0.3l0,0v-0.1c0,0,0-0.3,0-0.1c0,0,0-0.3,0-0.1c0,0-0.1-0.3-0.1-0.1
		c0.1,0.1-0.4-0.4-0.3-0.3c0.1,0-0.4-0.1-0.3-0.1s-0.4,0-0.3,0s-0.1,0.1-0.1,0.1l0,0c0.1-0.1,0.3-0.1,0.5-0.1c0.1,0-0.3,0-0.1,0
		h-0.1c0.1,0,0.7-0.6,1.4-1.6c0.1-0.1,0.4-0.1,0.5,0s0.1,0.3,0.1,0.4l-0.8,1.6L461,252l0,0l0,0v-0.1c0,0.1,0,0.4-0.1,0.6l-0.1,0.1
		l-0.1,0.1c-0.1,0.1-0.5,0.1-0.8,0s-0.3-0.3-0.4-0.4c-0.1-0.3,0-0.4,0-0.4l0.1-0.6l0.7-1.4l2.2-3.9c0.8-1.4,1.6-2.7,2.6-3.9
		c0.4-0.6,1-1,1.4-1.1C466.8,240.4,467.3,240.3,467.9,240.6"/>
	<path class="st1" d="M477.7,254.7c0.4,0.1,0.5,0.4,0.5,0.7c-0.1,0.4-0.4,0.6-0.7,0.6c-0.4-0.1-0.5-0.4-0.5-0.7s0.3-0.4,0.5-0.6
		c0.1,0-0.1,0-0.1,0c0.1,0-0.1,0.1-0.1,0.1v-0.1c0.1-0.1,0.3-0.3,0.4-0.1L477.7,254.7l0.2,0.1l0,0l0,0L477.7,254.7
		C477.8,254.7,477.5,254.7,477.7,254.7 M468.3,242.3c0.3,0.1,0.4,0.4,0.3,0.7s-0.3,0.4-0.5,0.3h-0.3c-0.1,0-0.3-0.1-0.4-0.3
		c-0.1-0.1-0.1-0.4,0-0.7l0.3-0.3c0.3-0.3,0.7-0.3,1.1-0.4c1.1-0.1,2.2,0.6,3.3,1.6c1.1,1,2.3,2.3,3.3,4c1.1,1.9,1.8,3.9,2.3,5.4
		l0.4,1.7l0.1,0.6v0.1c0,0-0.1-0.1,0-0.1c0.3,0.6,0.1,1.1-0.4,1.4c-0.4,0.3-1,0.1-1.2-0.3c-0.3-0.3-0.3-0.4-0.3-0.6l-0.1-0.6
		l-0.4-1.7c-0.4-1.6-1.1-3.4-2-5c-0.8-1.6-1.9-2.9-2.7-3.7c-1-0.9-1.8-1.4-2.2-1.4H468l0,0c0,0,0.1-0.3,0.1-0.1c0,0.1,0-0.4,0.1-0.3
		C468.4,242.7,468.3,242.4,468.3,242.3L468.3,242.3L468.3,242.3z"/>
	<path class="st1" d="M477.5,207.7c-0.1,0.3-0.4,0.3-0.7,0.1c-0.1-0.1-0.3-0.4-0.3-0.6v0.3c0-0.1,0.3,0.3,0.1,0.3h0.1l-0.5,0.1
		l-2.3,0.4l-3,0.4c-1.2,0.1-2.7,0.4-4.5,0.7l-3.3,0.7l-8.3,1.9l-6.1,1.3l-5.4,1.3c-2.3,0.6-4.5,1.1-6.5,1.9c-2.7,0.9-5,2-6.8,2.7
		l-2.3,1c-0.4,0.1-0.4,0.3-0.4,0.4c0,0.3-0.1,0.4-0.4,0.4c-0.1,0-0.4-0.1-0.4-0.3c-0.1-0.4,0.1-1,0.5-1.4c0.5-0.4,1.2-0.9,2.3-1.4
		c1.8-0.9,4.2-2,6.9-2.9c2-0.7,4.2-1.3,6.5-1.9l5.4-1.3l6.1-1.3l8.4-1.9l3.4-0.7c1.9-0.4,3.4-0.6,4.6-0.7l3-0.3l2.3-0.3h0.8
		c0.1,0,0.3,0,0.4,0.3C477.7,207.3,477.5,207.5,477.5,207.7"/>
	<path class="st1" d="M436.5,214.1c0.3,0,0.5,0.3,0.5,0.6s-0.3,0.6-0.4,0.6c-0.4,0-0.5,0.1-0.7,0.3c-0.1,0.3-0.3,0.7-0.3,1.4
		l-0.4,6.1l-0.3,8v5l0.1,3.1v0.4l0,0l0,0c0,0-0.1-0.3-0.1-0.1c0,0-0.3-0.3-0.1-0.1c0.1,0-0.3-0.1-0.3-0.1c0.1,0-0.3,0-0.3,0
		c0.1,0-0.3,0.1-0.3,0.1c0.1,0-0.1,0.1-0.1,0.1l0,0v-0.1c0.1-0.6,0.1-1.9-0.1-3.9c0-0.1,0.1-0.4,0.3-0.4c0.1,0,0.4,0.1,0.4,0.3
		c0.4,2,0.5,3.3,0.5,4v0.4v0.1c0,0.1,0,0.3-0.4,0.6s-0.7,0-0.8-0.1l-0.3-0.3l-0.1-0.6l-0.1-3.4l0.1-5l0.4-8.1
		c0.1-2.6,0.4-4.7,0.5-6.3c0.1-0.7,0.3-1.4,0.5-1.9C435.3,214.4,435.9,214.1,436.5,214.1"/>
	<path class="st1" d="M433.1,228.3c0.3,0.1,0.3,0.6,0.1,0.7c-0.1,0.3-0.4,0.3-0.7,0.1h-0.3l-0.8,0.3c-0.7,0.3-1.6,0.7-2.6,1.3
		c-2,1.1-4.1,2.7-5.7,4.1c-1.1,0.7-1.8,1.4-2,1.6c-0.1,0.1-0.4,0.1-0.5,0s-0.1-0.3-0.1-0.4c0.1-0.7,1-1.3,1.9-2.3
		c1.6-1.3,3.8-2.9,6-4.1c1-0.6,1.9-1.1,2.9-1.4l1.1-0.3C432.6,228,432.9,228.1,433.1,228.3"/>
	<path class="st1" d="M431.5,218.8c0.1,0.3,0,0.6-0.3,0.7c-0.3,0.1-0.5,0-0.7-0.1c-0.1-0.3-0.8-0.7-1.6-0.7c-1-0.1-2.3,0-4.1,0.6
		c-1.9,0.6-4.1,1.9-6.3,3l-2.9,1.4l-5.7,2.9c-2.2,1-4.1,1.7-5.4,2.1l-1.4,0.3h-0.4h-0.3c-0.1,0-0.3-0.1-0.3-0.4
		c0-0.1,0.1-0.4,0.1-0.4l0.1-0.1l0.3-0.1l0.4-0.1l1.9-0.7c0.1,0,0.4,0,0.4,0.3c0,0.1,0,0.4-0.1,0.4l-1.8,0.9l-0.4,0.3l0,0l0,0V229
		c0,0,0-0.4,0-0.3c0,0-0.1-0.3-0.1-0.1c0,0-0.3-0.1-0.1-0.1c0,0-0.3,0-0.1,0c0.1,0-0.1,0-0.1,0c0.1,0,0,0,0,0l0.3-0.1l1.2-0.4
		c1.4-0.4,3.3-1.1,5.4-2.1l5.7-2.9l2.9-1.4c2.2-1.1,4.4-2.4,6.5-3.1c1.8-0.6,3.4-0.7,4.5-0.4C430.1,217.7,431.1,218.1,431.5,218.8"
		/>
	<path class="st1" d="M419,224c0,0.3-0.4,0.4-0.5,0.4c-0.3,0-0.4-0.3-0.4-0.6l0.1-0.7l0,0c0,0,0.1,0.3,0.1,0.1c0,0,0.3,0.1,0.1,0.1
		c-0.1,0,0.3,0,0.3,0c-0.1,0,0.3-0.1,0.1,0l0.1-0.1l-0.8,1.7c-0.8,2-1.8,4.6-2.2,6.6l-0.3,1.1v0.4c0.1,0.1,0.1,0.3,0,0.6l0,0v-0.3
		c0,0.1-0.1-0.3-0.1-0.3h-0.1c0.1,0,0.3,0.1,0.3,0.4v0.1l-0.1,0.3c-0.1,0.1-0.5,0.3-0.8,0.1c-0.1-0.1-0.3-0.1-0.4-0.4
		c-0.3-0.7,0-1.6,0.1-2.6c0.5-2.1,1.5-4.7,2.3-6.7c0.4-1,0.7-1.6,1.1-2c0.1-0.1,0.3-0.3,0.7-0.1c0.3,0.1,0.3,0.3,0.4,0.4v0.3
		L419,224z"/>
	<path class="st1" d="M445.3,224.8c0.4,0.1,0.5,0.6,0.4,0.9c-0.1,0.4-0.5,0.6-0.8,0.4c-0.4-0.1-0.5-0.6-0.4-0.9
		c0-0.3,0.3-0.4,0.4-0.4s-0.1,0.1-0.1,0c0.1,0-0.1,0.1-0.1,0.1l0,0l0.1-0.3l1-1.4c0.1-0.1,0.3-0.1,0.5-0.1c0.1,0.1,0.1,0.3,0.1,0.4
		l-0.5,1.6v0.1l0,0c0,0-0.1-0.3,0-0.1l-0.1-0.1l-0.1-0.1C445.5,225,445.3,224.8,445.3,224.8 M452.9,212.3c0-0.3,0.3-0.6,0.5-0.4
		c0.1,0,0.3,0.1,0.4,0.3c0.3,0.4,0.1,0.6,0,0.9l-0.3,0.7l-1.2,2.3c-1.5,2.6-3.5,5.7-5,8l-1.1,1.6l-0.4,0.3c-0.1,0.1,0,0.3-0.5,0.4
		c-0.4,0.1-0.8-0.1-0.8-0.6c-0.1-0.4,0.1-0.9,0.5-0.9c0.1,0-0.3,0.1-0.1,0c0,0-0.1,0.1-0.1,0l0,0l0.3-0.4l1.1-1.6
		c1.5-2.3,3.5-5.3,5-7.9l1.4-2.1L452.9,212.3L452.9,212.3L452.9,212.3C452.9,212.1,452.9,212.3,452.9,212.3"/>
	<path class="st1" d="M409.6,203c-0.1-0.3,0-0.6,0.3-0.7c0.3-0.1,0.5,0,0.7,0.3c0.3,0.4,0,0.6,0,0.9l-0.4,1l-1.5,3.1l-4.4,8.1
		l-1.9,3.6l-1.2,2.1l-0.1,0.1l-0.4,0.3h-0.3c0,0-0.1,0-0.1-0.1c-0.1-0.1-0.1-0.1-0.1-0.3v-0.6v-0.1l1.2-2.1l1.9-3.6l4.4-8.1l1.5-3
		L409.6,203L409.6,203C409.4,202.8,409.6,203,409.6,203"/>
	<path class="st1" d="M395.5,220.3c-0.3,0.3-0.5,0.3-0.8,0s-0.3-0.6,0-0.9c0.3-0.3,0.5-0.3,0.8,0c0.1,0.1,0.1,0.3,0.1,0.6
		c0,0.1,0-0.3,0-0.3c0,0.1-0.3-0.3-0.1-0.3c0.1,0.1-0.3-0.1-0.1-0.1h-0.1l0,0h0.1l1.1-0.7c0.1-0.1,0.4-0.1,0.5,0.1
		c0.1,0.1,0.1,0.4,0,0.4l-1.1,1L395.5,220.3L395.5,220.3C395.4,220.3,395.5,220.1,395.5,220.3 M481.1,174.5
		c-0.1,0.3-0.5,0.3-0.7,0.1c-0.3-0.1-0.3-0.4-0.1-0.7l0.3-0.4l0,0c0,0-0.3-0.1-1-0.1s-1.5,0-2.7,0.3c-2.6,0.6-6.1,1.9-10.1,3.1
		l-4.1,1.3c-1.8,0.6-3.5,1.1-5.6,1.9c-2.2,0.9-4.6,1.9-7.5,3.1c-2.2,1-4.5,2.1-6.9,3.4l-5.2,2.4l-9,4.3l-4.1,2.1
		c-2.9,1.6-5.9,3.3-8.6,5.1c-1.4,0.9-2.6,1.9-3.8,2.7l-3.1,2.3c-1.2,0.9-1.9,1.4-2.3,1.9c-0.3,0.3-0.5,0.7-0.8,1.1l-0.5,0.7
		c-0.7,1-1.5,1.9-2.2,2.6l-1.1,1l-1.1,1.4l-1.2,1.3l-0.8,1.1l-1.4,1.7l-0.5,0.9c-0.3,0.4-0.8,0.6-1,0.7c0,0-0.1,0-0.1,0.1l-0.5,0.3
		l-0.3,0.1H395c-0.1,0-0.1,0-0.3,0s-0.3-0.1-0.4-0.1c-0.3-0.3-0.1-0.4-0.1-0.6c0-0.3,0.1-0.4,0.3-0.6l0.7-0.6c0,0,0.1,0,0.1-0.1
		l0.4-0.1l0,0l0.4-0.7l1.4-1.9l1-1.1l1.1-1.3c0.4-0.6,0.8-1,1.2-1.4l1.1-1c0.7-0.7,1.4-1.6,2-2.4l0.5-0.7c0.3-0.4,0.4-0.9,1-1.3
		c0.5-0.6,1.2-1.1,2.5-2l3.1-2.3c1.2-0.9,2.5-1.9,4-2.9c2.7-1.9,5.7-3.6,8.6-5.1l4.1-2.1l9.1-4.3l5.2-2.4c2.3-1.1,4.8-2.4,6.9-3.4
		c2.9-1.3,5.3-2.3,7.5-3.1c2-0.7,4-1.4,5.6-1.9l4.1-1.3c4-1.3,7.5-2.6,10.2-3.1c1.4-0.3,2.3-0.3,3-0.3s1.4,0.1,1.8,0.6
		c0.1,0.3,0.3,0.7,0.1,1C481.5,174,481.3,174.2,481.1,174.5"/>
	<path class="st1" d="M409.6,218.1c0.3,0,0.5,0.3,0.5,0.6s-0.3,0.6-0.5,0.6c-0.3,0-0.5-0.3-0.5-0.6c0-0.1,0-0.3,0.1-0.3l-0.1,0.1
		c0-0.1,0,0.1,0,0.1l0,0l-0.1-0.4c0-0.1,0.1-0.4,0.3-0.4s0.3,0,0.4,0.1l0.1,0.3l0,0l0,0L409.6,218.1
		C409.7,218.3,409.4,218.1,409.6,218.1 M414.2,201.3c-0.1,0.3-0.4,0.4-0.7,0.3c-0.3-0.1-0.4-0.4-0.3-0.7c0.1-0.1,0.1-0.3,0.3-0.4
		c0.1-0.1,0.5-0.3,0.7,0c0.1,0.1,0.1,0.3,0.1,0.4c0,0.3,0,0.6,0,1c-0.3,1.9-0.8,5-1.9,8.3l-1.6,5.1l-0.4,1.6l-0.1,1
		c-0.1,0.3,0,0.7-0.3,1.3c-0.1,0.3-0.5,0.3-0.8,0.1c-0.3-0.1-0.3-0.6-0.1-0.9v-0.1l0.1-0.7l0.1-1l0.4-1.7l1.6-5.1
		c1-3.1,1.6-6.3,1.9-8.1l0.1-0.7l0,0c0,0,0.1,0.3,0.1,0.1c0,0,0.3,0.1,0.1,0.1c-0.1,0,0.4,0,0.3,0
		C413.9,201.3,414.3,201.1,414.2,201.3l0.1-0.1L414.2,201.3z"/>
	<path class="st1" d="M433.9,188.7c-0.3,0-0.5-0.1-0.5-0.4s0.1-0.6,0.4-0.6c0.4-0.1,1,0.1,1.2,0.4c0.3,0.3,0.4,0.7,0.5,1.1
		c0.1,0.9,0.1,2,0.1,3.3c0,2.4-0.4,5-0.8,7.3l-1.1,5.4c0,0.1-0.1,0.1-0.1,0.3l-0.3,0.3c-0.1,0.1-0.4,0.1-0.5,0c0,0,0,0,0-0.1
		l-0.1-0.3c0-0.1,0-0.3,0-0.3l1.2-5.3c0.4-2.3,0.8-4.7,0.8-7c0-1.1,0-2.3-0.1-3l-0.3-0.7C434.1,188.7,434.1,188.7,433.9,188.7"/>
	<path class="st1" d="M433.7,196.5c0.1,0.3,0,0.6-0.3,0.7c-0.3,0.1-0.5,0-0.5-0.3c0,0,0.3,0.3,0.1,0.1c-0.1,0,0.3,0,0.3,0
		c-0.1,0,0.1,0,0.1,0l-0.4,0.4l-1.5,1.7c-0.7,0.7-1.5,1.3-2.2,1.9c-1,0.6-1.6,0.9-2.3,1.4c-0.1,0.1-0.4,0.1-0.5,0s-0.1-0.3,0-0.4
		c0.7-0.9,1.4-1.3,2-2c0.8-0.6,1.5-1.1,2.2-1.7l1.6-1.6l0.5-0.6c0.1,0,0.3-0.1,0.4-0.1C433.3,196.1,433.5,196.4,433.7,196.5"/>
	<path class="st1" d="M480.7,151.2c0.4-0.1,0.7,0.1,0.8,0.6c0.1,0.4-0.1,0.7-0.5,0.9L359.3,178c-0.4,0.1-0.7-0.1-0.8-0.6
		c-0.1-0.4,0.1-0.7,0.5-0.9L480.7,151.2z"/>
	<path class="st1" d="M374.4,200.4c0.3,0.1,0.3,0.6,0.1,0.9c-0.1,0.3-0.5,0.3-0.8,0.1c-0.3-0.1-0.3-0.6-0.1-0.9
		c0.1-0.1,0.3-0.3,0.5-0.3c0.1,0-0.3,0-0.1,0h-0.1l0.3-0.3c0.1-0.1,0.4-0.1,0.5,0s0.1,0.3,0.1,0.4l-0.1,0.3v-0.1v-0.1
		C374.7,200.7,374.4,200.4,374.4,200.4 M392.7,173.7c0,0.3-0.3,0.4-0.5,0.4s-0.4-0.3-0.4-0.6v-0.7v0.1l0.3,0.1c-0.1,0,0.3,0,0.3,0
		l0,0l-1.2,1.6l-3,4.3l-3.8,5.9c-2,3.4-4.1,6.7-5.6,9.3l-1.4,2.4c-0.4,0.7-0.5,1.1-0.8,1.6l-0.8,1.4l-0.7,1.3l-0.3,0.4l-0.1,0.1
		l-0.1,0.1c0,0-0.1,0.1-0.4,0.1s-0.5-0.3-0.5-0.4c-0.1-0.3,0.1-0.7,0.4-0.9c0.3-0.1,0.7,0.1,0.8,0.4c0,0.1,0,0.1,0,0.3v-0.3
		c0,0.1-0.3-0.4-0.1-0.3c0.1,0.1-0.4-0.1-0.3-0.1s-0.3,0-0.1,0c0.1,0-0.3,0-0.1,0h-0.1l0,0l0.3-0.3l0.7-1.1l0.7-1.4
		c0.1-0.4,0.4-1,0.8-1.9l1.4-2.4c1.5-2.6,3.4-5.9,5.6-9.3l3.8-5.9l3-4.3c0.7-0.9,1.1-1.6,1.6-1.9c0.1-0.1,0.4-0.1,0.7,0
		c0.3,0.1,0.4,0.4,0.4,0.6C392.8,172.8,392.8,173.2,392.7,173.7 M374.7,201c0,0.4-0.3,0.7-0.7,0.7c-0.4,0-0.7-0.3-0.7-0.7
		s0.3-0.7,0.7-0.7C374.4,200.3,374.7,200.5,374.7,201"/>
	<path class="st1" d="M366.5,192.5c-0.3,0.1-0.5,0.1-0.7,0c-0.1-0.3-0.1-0.6,0-0.7c0.3-0.1,0.5-0.1,0.7,0s0.1,0.3,0.1,0.4
		c0,0.1,0-0.3,0-0.1c0,0.1-0.1-0.3-0.1-0.1c0,0.1-0.1-0.1-0.1-0.1h-0.1l0,0h0.1l1.1-0.3c0.1,0,0.4,0,0.4,0.3c0,0.1,0,0.4-0.1,0.4
		l-1.1,0.6L366.5,192.5L366.5,192.5L366.5,192.5C366.5,192.5,366.7,192.4,366.5,192.5 M381.5,187.7c0,0.3-0.3,0.6-0.5,0.6
		s-0.4-0.3-0.5-0.6l0.1,0.1h-0.1c-0.3,0-1,0.1-1.6,0.4c-1.5,0.6-3.3,1.4-5,2.1c-1.8,0.7-3.4,1.1-4.8,1.6l-1.6,0.6l-0.7,0.1h-0.1
		h-0.3c-0.1,0-0.3,0-0.3-0.1c-0.4-0.3-0.3-0.6-0.1-0.7l0.1-0.1l0.3-0.3l0.7-0.4l1.9-0.6c1.2-0.4,2.9-0.9,4.6-1.4
		c1.8-0.7,3.7-1.4,5.2-2c0.7-0.3,1.4-0.4,1.9-0.4c0.3,0,0.5,0,0.8,0.3C381.4,187,381.5,187.4,381.5,187.7"/>
	<path class="st1" d="M406.4,167.1c0.3,0,0.4,0.3,0.4,0.6s-0.3,0.4-0.5,0.4h-0.4l-0.1,0.1c-0.1,0.1-0.1,0.6-0.3,1.1
		c-0.1,1.1-0.1,2.6-0.7,5.1l-1.1,4l-2.5,8.3l-1.5,6c-0.3,1.4-0.5,2.6-0.5,3.4c-0.1,1-0.4,1.9-1,2.3c-0.3,0.1-0.7,0.3-1,0.3l-1.1-0.3
		c-0.1,0-0.3-0.3-0.3-0.4c0-0.1,0.3-0.3,0.4-0.3l0.8,0.1l0.3-0.1c0.1-0.1,0.3-0.6,0.3-1.6c0.1-0.9,0.3-2.1,0.5-3.6l1.5-6.1l2.5-8.3
		l1.2-3.9c0.7-2.4,0.7-3.7,0.8-5c0-0.6,0.1-1.1,0.5-1.6c0.1-0.3,0.4-0.4,0.7-0.6C405.7,166.9,406,166.9,406.4,167.1"/>
	<path class="st1" d="M398.3,194.1c-0.1,0.3-0.4,0.4-0.7,0.4c-0.3-0.1-0.4-0.3-0.4-0.6l0,0c0-0.1,0.3,0.3,0.3,0.1c0,0,0.1,0,0,0
		l-0.3,0.1c-0.4,0.1-1.2,0.7-2,1.3l-2.7,2.3l-6.4,5.6L382,207l-2.9,2.7l-0.7,0.9l-0.1,0.1l0,0l0,0v-0.1c0,0,0-0.3,0-0.1
		c0,0-0.1-0.3,0-0.1c0,0.1-0.3-0.3-0.1-0.1H378h-0.1h-0.1l1.4-1.3c0.1-0.1,0.4-0.1,0.5,0s0.1,0.4,0,0.6l-1.1,1.1l-0.4,0.4
		c0,0-0.1,0.1-0.4,0s-0.3-0.3-0.3-0.4c0-0.4,0.1-0.4,0.3-0.6l0.7-0.9l2.7-2.9l4-3.9l6.4-5.6l2.9-2.4c0.8-0.7,1.6-1.1,2.3-1.4
		c0.3-0.1,0.7-0.3,1,0c0.1,0.1,0.4,0.3,0.4,0.6L398.3,194.1z"/>
	<path class="st1" d="M390.2,215.4c-0.1,0.3-0.4,0.4-0.7,0.3c-0.3-0.1-0.4-0.4-0.3-0.7s0.4-0.4,0.7-0.3c0.1,0,0.3,0.1,0.3,0.4
		c0,0.1-0.1-0.3-0.1-0.3l-0.1-0.1c0.1,0-0.3,0-0.3,0c0.1,0-0.3,0-0.1,0h-0.1l0,0v-0.1l0.4-1.1c0-0.1,0.3-0.3,0.4-0.3
		s0.3,0.3,0.3,0.4l-0.3,1.1L390.2,215.4L390.2,215.4z M395.4,197.4c-0.3,0-0.5-0.3-0.5-0.6s0.1-0.4,0.4-0.6c0.1,0,0.4,0,0.5,0.3
		l0.1,0.4v0.7l-0.5,1.9c-0.5,1.6-1.2,3.6-2,5.7c-0.8,2.1-1.8,4.3-2.3,6c-0.3,1-0.5,1.9-0.7,2.6l-0.3,1.3c0,0,0-0.1,0,0
		s0,0.1-0.1,0.3c-0.3,0.3-0.5,0.1-0.7,0.1c-0.3-0.3-0.3-0.4-0.3-0.6v-1.3c0.1-0.9,0.4-1.9,0.7-2.9c0.7-1.9,1.6-4,2.5-6l2.2-5.7
		l0.5-1.7V197v0.1c0,0,0.3,0.3,0.1,0.1C395.1,197.3,395.5,197.4,395.4,197.4"/>
	<path class="st1" d="M431.4,164.4c-0.3-0.1-0.4-0.4-0.3-0.7s0.4-0.4,0.5-0.3c0.3,0,0.4,0.3,0.5,0.4c0.1,0.1,0.1,0.4,0.1,0.7
		c0,0.4-0.1,1-0.3,1.6c-0.4,1.3-1.2,3-2.3,4.9c-2.3,3.7-5.7,7.9-8.2,11.2c-1.1,1.6-2,2.9-2.3,3.6l-0.1,0.3l0,0l-0.1-0.1h0.1l0.7-0.3
		c0.1-0.1,0.4,0,0.4,0.1c0.1,0.1,0,0.4-0.1,0.4c-0.5,0.3-1,0.6-1.4,0.4c-0.3-0.1-0.4-0.4-0.4-0.6l0.1-0.7c0.4-1,1.2-2.3,2.3-3.9
		c2.5-3.4,5.6-7.6,7.9-11.3c1.2-1.9,2-3.4,2.3-4.6C431.2,165.2,431.4,164.8,431.4,164.4L431.4,164.4L431.4,164.4z"/>
	<path class="st1" d="M406.7,179.8c0,0.3-0.1,0.4-0.4,0.4s-0.4-0.1-0.4-0.4c0-0.3,0.1-0.4,0.4-0.4c0.1,0,0.1,0,0.3,0h-0.1
		c0.1,0-0.1,0-0.1,0l0,0l1-0.3c0.1,0,0.4,0,0.4,0.3c0,0.1,0,0.4-0.3,0.4l-1,0.4l0,0l0,0l0,0v-0.1C406.7,180,406.7,179.7,406.7,179.8
		 M422.8,175.2c0.3,0,0.5,0.3,0.5,0.6s-0.3,0.6-0.5,0.6c-1.2,0-2.3-0.1-4.1,0.1c-1.2,0.3-2.9,0.9-4.6,1.4l-5.4,1.9l-2.2,0.6h-0.1
		h-0.1c0,0-0.1,0.1-0.3-0.1c-0.1-0.1-0.1-0.3,0-0.4c0.1-0.4,0.1-0.3,0.3-0.3h0.1l2-0.7l5.6-1.7c1.8-0.6,3.3-1.1,4.8-1.4
		C420.5,175.1,421.7,175.4,422.8,175.2"/>
	<path class="st1" d="M428.9,174.7c0.1-0.1,0.5-0.3,0.7,0c0.1,0.1,0.1,0.3,0.1,0.4v1.6c0,1.6,0.1,3.7,0.4,5.7
		c0.1,1.4,0.4,2.6,0.7,3.4c0.1,0.4,0.3,0.6,0.4,0.7c0.1,0.1,0.3,0.1,0.5,0c0.1-0.1,0.4,0,0.4,0.1s0,0.3-0.1,0.4
		c-0.4,0.3-0.8,0.3-1.2,0.1c-0.4-0.1-0.7-0.6-1-1c-0.5-1-1-2.3-1.2-3.7c-0.3-2.1-0.4-4.3-0.3-6C428.5,176,428.5,175.2,428.9,174.7"
		/>
	<path class="st1" d="M429.9,181.4c0.3,0,0.4,0.3,0.4,0.6s-0.3,0.4-0.5,0.4l0,0c-0.5-0.1-1.1,0.1-1.6,0.6l-1.5,1.4
		c-0.1,0.1-0.4,0.1-0.5-0.1c-0.1-0.1-0.1-0.4,0-0.4c0.4-0.3,0.8-1,1.5-1.4C428.2,181.8,429,181.2,429.9,181.4"/>
	<path class="st1" d="M478.9,134.4c-0.3,0-0.5-0.1-0.5-0.4c0-0.3,0.1-0.6,0.4-0.6h0.1h0.5l0,0l-0.1-0.4c-0.1-0.1-0.1-0.4,0.1-0.6
		c0.1-0.1,0.4-0.1,0.5,0c0.3,0.3,0.4,0.4,0.4,0.7s0,0.6-0.3,0.7C479.6,134.4,479.2,134.4,478.9,134.4"/>
	<path class="st1" d="M478.5,132.8c0,0.3-0.3,0.4-0.5,0.3c-0.3,0-0.4-0.3-0.3-0.6s0.3-0.4,0.5-0.3c0.1,0,0.3,0.1,0.3,0.3v-0.1
		l-0.1-0.1l0,0C478.6,132.5,478.6,132.6,478.5,132.8c0,0.1-0.1,0.1-0.1,0.3l0,0l0,0L478.5,132.8
		C478.5,132.9,478.5,132.6,478.5,132.8 M478.6,132.6c0,0.3-0.3,0.6-0.5,0.6s-0.5-0.3-0.5-0.6s0.3-0.6,0.5-0.6
		C478.4,132.1,478.6,132.4,478.6,132.6"/>
	<path class="st1" d="M479.7,132.4c0.1,0.3,0.1,0.6-0.1,0.7c-0.3,0.1-0.5,0.1-0.7-0.1c0,0,0,0,0-0.1c-0.1-0.4,0-0.7,0.1-0.9l0.4-0.4
		l-0.1,0.1c0,0,0,0.3,0,0.1c0-0.1,0.1,0.3,0.1,0.3c0-0.1,0.1,0.1,0.1,0.1l0,0l-0.4,0.1c-1.2,0.1-2.9,0.3-4.4,0.7
		c-1.8,0.4-4.2,1.1-6.4,1.6c-2.6,0.4-4.1,0-6.4,0.4c-1.6,0.3-3.5,0.9-6,1.4l-4.1,0.9l-7.6,1.3c-3,0.4-6.1,0.9-9.4,1.3
		c-6.8,0.7-12.8,0.7-18.7,0.6l-6.5-0.1h-6.8c-3.1,0-5.7-0.6-8.2-1.1c-5.2-1.3-11.3-2-16.3-2.7c-4.5-0.6-8.7-1.6-11.4-1.7
		c-1.1,0-1.9,0-2.5,0.1c-1.1,0.3-2.2,1.4-3.8,1.7c-0.7,0.1-1.4,0-1.9,0c-0.8,0-1.9,0.4-3,0.7l-2.2,0.6l-1,0.3
		c-0.5,0.1-1.1,0.4-1.5,0.9c-0.3,0.1-0.7,0.4-1,0.6c-0.3,0.1-0.4,0-0.7,0c-0.3-0.1-0.4-0.4-0.4-0.6s0-0.3,0-0.3v-0.1
		c0.1-0.1,0.3-0.4,0.4-0.4l0.7-0.4c0.5-0.4,1.1-0.9,1.9-1.1l1.1-0.3l2.2-0.6c1.1-0.3,2.2-0.7,3.3-0.7h1.6c1.2-0.3,2.2-1.3,3.7-1.7
		c1-0.3,1.9-0.3,3-0.1c3,0.1,7.1,1.1,11.6,1.7c5,0.7,11.2,1.4,16.6,2.7c2.3,0.6,4.8,1.1,7.8,1.3h6.8l6.5,0.1
		c5.7,0.1,11.7,0.1,18.4-0.6c3.1-0.3,6.4-0.7,9.3-1.3l7.6-1.3l4-0.7c2.3-0.4,4.4-1,6-1.3c2.6-0.4,4.2,0.1,6.5-0.3
		c2-0.3,4.5-1,6.4-1.4c1.6-0.4,3.3-0.4,4.4-0.6c0.4,0,0.5,0,0.8,0.1c0.1,0,0.3,0.1,0.4,0.4c0,0.1,0,0.3-0.1,0.4L479.7,132.4l0.3-0.1
		L479.7,132.4L479.7,132.4z"/>
	<path class="st1" d="M380.7,135.6c-0.3,0.1-0.5,0-0.7-0.1s-0.1-0.4,0.1-0.6L380,135c0,0,0,0.3,0,0.1c0-0.1,0.1,0.4,0,0.3l0.1,0.1
		c0,0,0.1,0.1,0.1,0l0,0c-0.1,0,0,0,0,0H380l-1.1,0.3c-0.8,0.3-1.8,1.3-3.1,2.7l-3.1,3l-3.3,2.9l-5.4,4.9l-5.2,4.4l-1,0.9l0,0v-0.3
		c0,0.1-0.1-0.1-0.1-0.1l0,0c0.3,0,1.1-0.1,1.9-0.4c0.1,0,0.4,0,0.4,0.3c0,0.1,0,0.4-0.3,0.4c-1.2,0.4-1.9,0.9-2.6,0.6
		c-0.1,0-0.4-0.3-0.5-0.6c0-0.3,0.1-0.4,0.1-0.6c0.3-0.4,0.5-0.7,1.1-1.1l5.2-4.4l5.4-4.9l3.1-2.9l3.1-3c1.5-1.4,2.5-2.6,3.7-2.9
		c0.5-0.1,1-0.3,1.4-0.3h0.4l0.3,0.1c0,0,0.1,0,0.3,0.3C381,135.2,380.8,135.5,380.7,135.6"/>
	<path class="st1" d="M404.9,141.9c0.1,0.3,0,0.6-0.3,0.7c-0.3,0.1-0.5,0-0.7-0.3l0,0l-0.4,0.1c-0.5,0.3-1.5,1-2.9,2l-5.4,4.3
		l-14,11.3l-4.6,3.9l-1.9,1.6l-0.5,0.4l-0.4,0.1h-0.4c-0.3-0.1-0.4-0.6-0.4-0.7l0.1-0.3c0.1-0.1,0.3-0.3,0.4-0.3l0.8-0.4
		c0.1-0.1,0.4,0,0.5,0.1s0,0.3,0,0.4l-0.3,0.4v0.1l0,0c0,0,0-0.3,0-0.1c0,0.1,0,0.4,0,0.6v-0.1c0,0,0-0.3,0-0.1c0,0.1-0.1-0.4,0-0.3
		c0,0.1-0.3-0.3-0.1-0.3c0,0-0.3-0.1-0.1-0.1c0.1,0-0.3,0-0.3,0h-0.1h-0.1l0,0l0.4-0.3l1.9-1.6l4.6-3.9l14-11.3l5.4-4.3
		c1.5-1,2.5-1.7,3.3-2c0.4-0.1,0.7-0.3,1.1-0.1C404.5,141.4,404.8,141.6,404.9,141.9"/>
	<path class="st1" d="M389.1,136.1c0.3-0.1,0.5-0.1,0.7,0.1c0.1,0.3,0.1,0.4-0.1,0.7c-0.1,0.1-0.4,0.1-0.5,0.1l-0.4-0.1l-0.5-0.4
		l-1.6-1.7c-0.5-0.6-1.4-1.3-2.2-2.1c-1.5-1.7-2.9-4.4-4.2-6.7c-1.4-2.3-2.6-4.3-3.7-5.6c-1-1-1.9-1.3-3-1.6
		c-1.1-0.3-1.9-0.4-2.3-0.4l0,0l0.1-0.3v0.1l0.4,0.4c0.1,0.1,0.1,0.4,0,0.6c-0.1,0.1-0.3,0.1-0.4,0c-0.4-0.3-0.7-0.6-0.8-1
		c-0.1-0.1-0.1-0.6,0-0.7c0.1-0.3,0.4-0.3,0.5-0.4c0.7-0.3,1.8-0.1,2.7,0c1.2,0.3,2.7,0.7,4,2.1c1.2,1.4,2.3,3.6,3.7,5.9
		c1.4,2.4,2.6,5,4,6.6c0.7,0.9,1.4,1.4,2,2.1l1.5,1.7l0.4,0.4l0,0h-0.1L389.1,136.1z"/>
	<path class="st1" d="M378.5,123.6c-0.1,0.3-0.5,0.3-0.7,0.1c-0.1-0.1-0.3-0.4-0.1-0.7l0,0v-0.1l-0.4-0.6l-1.6-1.6
		c-1-0.9-1.6-1.9-2.6-2.7c-1.9-1.4-5.6-1.7-9.3-1.6c-2.9,0-5.3,0-7.5-0.3l-2.3-0.4c-1-0.1-2.2-0.1-3.1-0.1h-1.2h-0.1h-0.1l0,0
		l0.1-0.1c0,0,0.1-0.4,0.1-0.3v-0.3c0,0.1-0.1-0.3-0.1-0.1l-0.1-0.1l0,0h0.1l0.8,0.1c0.7,0.1,1.6,0.3,2.3,0.9
		c0.1,0.1,0.1,0.3,0.1,0.6c-0.1,0.1-0.3,0.1-0.4,0.1c-0.5-0.3-1.4-0.4-2-0.6h-1H349c-0.1,0-0.3,0-0.5-0.3l0.1,0.1
		c-0.1-0.1-0.4-0.4-0.4-0.7s0.1-0.4,0.1-0.6c0.1-0.3,0.4-0.4,0.7-0.4h0.1h1.2c1,0,2.2-0.1,3.4,0.1l2.2,0.4c2,0.3,4.4,0.3,7.2,0.3
		c3.7,0,7.6,0,10.1,2c1.1,1,1.8,2,2.6,2.9c0.5,0.6,1.2,1.1,1.6,1.7l0.5,0.9C378.6,122.9,378.6,123.3,378.5,123.6"/>
	<path class="st1" d="M348.9,129.9c-0.1,0.3-0.4,0.3-0.7,0.1c-0.3-0.1-0.3-0.4-0.1-0.7c0.1-0.3,0.4-0.3,0.7-0.1l0,0
		c0.1,0-0.3-0.1-0.1-0.1c0.1,0-0.1,0-0.1,0c0.1,0-0.1,0-0.1,0l0,0l0.7-0.7c0.1-0.1,0.4-0.1,0.5,0s0.1,0.3,0,0.4L348.9,129.9
		L348.9,129.9C348.9,129.9,349.1,129.8,348.9,129.9 M363.7,115.9c0.3,0.1,0.3,0.6,0,0.7c-0.1,0.3-0.5,0.3-0.7,0h-0.1l-0.5,0.1
		c-0.4,0.1-1.1,0.6-1.8,1.4c-1.4,1.3-2.7,3.6-4.8,5.7c-1.6,1.7-3.4,3.4-4.9,4.6l-1.6,1.3l-0.4,0.3l0,0c-0.3,0.1-0.5,0.1-0.7-0.1
		c0,0-0.1-0.1-0.1-0.3v-0.3l0.1-0.1l0.5-0.4l1.5-1.1c1.4-1.3,3.3-2.9,4.8-4.6c1.9-2.1,3.4-4.3,4.8-5.7c0.8-0.9,1.5-1.3,2.2-1.6
		l0.8-0.1C363.1,115.6,363.4,115.6,363.7,115.9"/>
	<path class="st1" d="M364.2,114.6c-0.3-0.1-0.4-0.4-0.3-0.7s0.3-0.3,0.5-0.3l0,0h-0.1l-0.1,0.1c0.1,0-0.3,0.4-0.1,0.3
		c0-0.1,0,0.3,0,0.3l0,0L364,114l-1.6-2.1c-0.7-1.1-1.5-2.6-2.3-4.3c-1.4-2.6-2.7-5.6-4.2-8.3c-1.5-2.6-3.3-4.6-4.6-5.9l-1.2-1
		l-0.3-0.1l0,0c0,0,0.3,0,0.1,0c-0.1,0-0.3,0-0.4-0.1h0.1c0,0,0.4,0,0.3,0s0.4-0.3,0.4-0.1c-0.1,0.1,0.1-0.3,0.1-0.3v-0.1v0.1
		c0.1,0.3,0.5,1,1.2,1.7c0.1,0.1,0.1,0.4,0,0.6c-0.1,0.1-0.3,0.1-0.4,0l-1.6-1.6l-0.4-0.4c0-0.1-0.1-0.1-0.1-0.4s0.1-0.7,0.4-0.9
		c0.1-0.1,0.3-0.1,0.4-0.1c0.5,0,0.8,0.1,1.2,0.4l1.4,1.1c1.5,1.4,3.3,3.6,4.9,6.3c1.6,2.9,3,5.9,4.2,8.4c0.8,1.7,1.5,3.1,2.2,4.1
		l1.4,2.3c0.1,0.3,0.4,0.4,0.3,0.9c0,0.3-0.5,0.6-0.7,0.4H364.2z"/>
	<path class="st1" d="M412.6,136.4c0.1,0.3,0,0.6-0.3,0.7c-0.3,0.1-0.5,0-0.7-0.3c-0.4-0.7-1.1-1.3-1.9-2.1c-0.4-0.6-0.7-1.1-1.1-2
		c-0.5-1.3-1.4-2.9-2.6-4.7c-0.7-1-1.5-2-2.3-2.9c-1.1-1.3-2.3-2.3-3.5-3.3c-1.8-1.4-3-2.4-4.1-3l-1.8-1.1c-0.7-0.7-1.2-1.6-1.1-2.3
		c0-0.4,0.3-0.7,0.5-1c0.3-0.3,0.7-0.4,1.2-0.6c0.1,0,0.4,0.1,0.4,0.3c0,0.1,0,0.4-0.3,0.4c-0.4,0.1-0.7,0.4-0.8,0.6l-0.1,0.3
		c0,0.1,0.3,0.6,0.8,0.9l1.8,1.1c1.1,0.7,2.5,1.7,4.2,3.1c1.2,1,2.5,2.1,3.7,3.6c0.8,1,1.8,2,2.5,3.1c1.2,2,1.9,3.7,2.5,4.9l0.8,1.9
		C411.5,134.6,412.2,135.4,412.6,136.4"/>
	<path class="st1" d="M393.6,114.2c0.1-0.3,0.4-0.4,0.7-0.4c0.3,0,0.4,0.3,0.4,0.6c0,0.1-0.1,0.4-0.3,0.6l-0.4,0.1l-0.7-0.1
		l-1.5-0.3c-1.6-0.3-4.2,0.4-6.5,0c-2-0.4-3.7-1.9-5.4-3.3c-1.2-1-2.3-1.7-2.9-2.7c0,0,0-0.1-0.1-0.1c-0.1-0.4,0-0.9,0.1-1.1
		c0.3-0.3,0.5-0.4,0.8-0.6c0.1,0,0.4,0,0.4,0.3c0,0.1,0,0.3-0.1,0.4l-0.1,0.1h0.1l0.1,0.1c0.3,0.4,1.4,1.3,2.6,2.3
		c1.6,1.4,3.3,2.7,4.8,3.1c1.9,0.4,4.4-0.3,6.4,0c0.7,0.1,1.2,0.3,1.6,0.4l0.4,0.1l0,0h-0.1l-0.1,0.1
		C393.8,114.1,393.6,114.2,393.6,114.2"/>
	<path class="st1" d="M479.6,92.2c0.3,0,0.5,0.3,0.4,0.6l0,0c0,0.3-0.1,0.3-0.3,0.4l-0.1,0.1l-0.7,0.1c-0.5,0-1.2,0.1-1.8,0
		c-0.1,0-0.1-0.1-0.3-0.1c-0.1-0.1-0.3-0.3-0.3-0.6c0-0.3,0.1-0.4,0.1-0.6c0.1-0.1,0.4-0.1,0.5,0l0,0L477,92h0h0.1
		c0.1,0,0.1,0,0.3,0c0.3,0.1,0.8,0.1,1.4,0.1L479.6,92.2L479.6,92.2z M479.4,93.3c-0.3,0-0.5-0.3-0.5-0.6c0-0.3,0.1-0.6,0.4-0.6h0.1
		h-0.1c0.3,0,0.5,0.1,0.7,0.4c0,0.3-0.1,0.6-0.4,0.7c-0.3,0-0.5-0.1-0.5-0.4c0-0.1,0.1,0.3,0.1,0.1C479.2,93,479.3,93.2,479.4,93.3
		L479.4,93.3C479.3,93.2,479.4,93.3,479.4,93.3L479.4,93.3z"/>
	<path class="st1" d="M480.7,94.3c-0.3,0.1-0.5,0.1-0.7-0.1c-0.1-0.1-0.1-0.4,0-0.7l0,0c0,0-0.1,0.3,0,0.3c0,0,0,0.3,0,0.1
		c0,0,0.1,0.3,0.1,0.1l0.1,0.1h0.1h-0.5l-2,0.1c-0.7,0-1.4-0.1-2-0.4c-1-0.4-1.5-1.3-2-1.7c-0.8-0.7-2.2-1.1-4-1.4s-4-0.4-6.1-0.6
		c-5.3-0.6-11.4-2.1-18.3-3c-6.1-0.7-12.3-1.1-18.3-2.4c-6.5-1.4-14.2-3.1-21.4-5.7c-3.3-1.1-6.3-2.6-8.9-4l-7.2-4
		c-2.2-1.1-4.4-2-6.1-2.7c-2.2-0.9-3.8-2-5.2-2.7c-0.8-0.4-1.5-0.9-2.5-1.1c-1.9-0.6-4.5-0.6-6.7-0.7c-2.3-0.1-3.7-0.7-4.9-1
		c-1.1-0.3-2.2-0.3-3.3-0.3l-1.5-0.1h-0.1c-0.7-0.3-1.2-0.6-1.9-0.9c-0.1-0.1-0.3-0.3-0.1-0.6c0.1-0.1,0.3-0.1,0.4-0.1
		c0.7,0.1,1.2,0,1.8,0h0.1l1.5,0.1c1.1,0,2.3,0,3.5,0.3c1.4,0.4,2.6,0.9,4.6,1s4.8,0,7.1,0.6c1.1,0.3,2,0.7,2.9,1.3
		c1.5,0.9,2.9,1.9,5,2.7c1.8,0.7,4,1.6,6.3,2.9l7.2,3.9c2.6,1.4,5.6,2.7,8.7,3.9c7.1,2.6,14.6,4.3,21.1,5.7c6,1.3,12,1.9,18.1,2.6
		c3.5,0.4,6.8,1,9.9,1.6c3,0.6,5.9,1.1,8.4,1.4c4.5,0.4,8.6,0.3,10.9,2.3c0.8,0.7,1.2,1.4,1.8,1.6c0.4,0.3,1,0.3,1.5,0.4l1.9,0.1
		l0.7,0.1c0.1,0,0.4,0.1,0.4,0.6C480.9,94,480.7,94.2,480.7,94.3"/>
	<path class="st1" d="M367.6,64.9c0.3,0,0.4,0.3,0.4,0.6c0,0.3-0.3,0.4-0.5,0.4c-1-0.1-1.9,0.3-3.4,1l-2.5,1.3l-8.3,4.3
		c-1.2,0.6-2.3,1.1-3,1.4l-0.4,0.1c-0.1,0-0.4,0.1-0.5-0.3c-0.1-0.3,0-0.4,0.1-0.6l0.4-0.4c0.1-0.1,0.4-0.1,0.5,0s0.1,0.4,0,0.6
		l-0.3,0.3l0,0v-0.1c0,0-0.1-0.3-0.1-0.1l-0.1-0.1h-0.1L350,73l2.9-1.4l8.2-4.4l2.6-1.3C365,65.2,366.2,64.6,367.6,64.9"/>
	<path class="st1" d="M363.1,39.7c0,0.4-0.4,0.7-1,0.7c-0.4,0-0.7-0.4-0.7-1s0.4-0.7,1-0.7c0.3,0,0.5,0.3,0.7,0.6c0,0.1,0-0.1,0-0.1
		l0,0V39.7l1.2,2.6c0.1,0.1,0,0.4-0.1,0.4c-0.1,0.1-0.4,0-0.4-0.1c-0.7-1.3-1.2-2-1.5-2.3l0,0h0.1h0.1h0.1c-0.1,0,0.4-0.1,0.3-0.1
		s0.3-0.3,0.3-0.1c0,0,0.1-0.3,0.1-0.1C363.1,40,363.1,39.6,363.1,39.7 M374.1,63.2c0.3,0.1,0.4,0.4,0.3,0.7
		c-0.1,0.3-0.3,0.4-0.5,0.3c-0.7-0.1-1.1-0.6-1.6-1.3s-1.1-1.9-1.9-3.3c-1-1.6-2-3.4-3.3-5.7c-2-3.9-3.8-8.3-4.9-11.3
		c-0.4-1.1-0.5-1.9-0.7-2.4c0-0.1,0-0.1,0-0.3c0-0.1,0-0.4,0.1-0.6l0.3-0.4c0.1-0.1,0.5-0.3,1,0c0.1,0,0.1,0.1,0.3,0.3l0.1,0.1
		l0.1,0.3c0,0.1,0,0.1,0.1,0.3l0.7,2.1c1,3,2.6,7.3,4.5,11.2l3.1,5.7l1.6,3.3C373.6,62.7,373.9,63,374.1,63.2"/>
	<path class="st1" d="M365.2,85.5c0,0.3-0.3,0.4-0.5,0.3c-0.3,0-0.4-0.3-0.4-0.6s0.3-0.4,0.5-0.3c0.1,0,0.1,0,0.3,0.1l-0.1-0.1h-0.1
		c0.1,0-0.1,0-0.1,0l0,0l0.7-0.4c0.1-0.1,0.4,0,0.5,0.1s0,0.4-0.1,0.4L365.2,85.5L365.2,85.5L365.2,85.5L365.2,85.5
		C365.2,85.6,365.3,85.3,365.2,85.5 M387.1,70c0.3,0.1,0.4,0.4,0.3,0.7c-0.1,0.3-0.4,0.4-0.7,0.3c-0.1,0-0.5,0-1.1,0.3l-2.3,1.3
		c-2,1.3-4.9,3-7.6,4.7c-1.6,1.1-3.1,2.1-4.2,3.1l-2.9,2.6c-0.8,0.7-1.5,1.3-2,1.7l-1.4,0.9c0,0,0.1,0.1-0.4,0
		c-0.1,0-0.3-0.1-0.3-0.3c-0.1-0.4,0-0.4,0-0.4v-0.1l1.2-1.1l2-1.7l2.9-2.6c1.2-1,2.6-2.1,4.4-3.3c2.7-1.9,5.6-3.4,7.8-4.7
		c1-0.6,1.8-1,2.5-1.3C385.7,70,386.4,69.7,387.1,70"/>
	<path class="st1" d="M391.6,55.2c0.1,0.3,0.1,0.6-0.1,0.7c-0.3,0.1-0.5,0.1-0.7-0.1c-1-1.1-1.4-2-1.9-2.7c-1-1.3-2.7-2.9-4.2-4
		c-2-1.7-4.1-2.7-6-4.4c-1.4-1.1-2.6-2.4-4.6-4c-1.4-1-3.1-1.4-4.5-2.1c-0.8-0.4-1.5-1.1-1.9-1.7l-0.5-0.9c-0.1-0.3-0.3-0.7-0.1-1.3
		c0-0.1,0.1-0.3,0.3-0.4c0.3-0.3,0.5-0.3,0.8-0.3l0.5,0.1l1.8,0.9c0.1,0.1,0.3,0.3,0.1,0.4c-0.1,0.1-0.3,0.3-0.4,0.1
		c-0.8-0.3-1.4-0.3-1.6-0.3h-0.1c0,0,0.1-0.1,0.1,0c0,0,0.1-0.4,0.1-0.3c0,0.1,0-0.4,0-0.3c0,0.1,0,0.4,0,0.6s0-0.3,0-0.1V35l0,0
		l0.3,0.6c0.3,0.4,0.8,1,1.2,1.3c1.2,0.6,3,1,4.8,2.3c2.2,1.6,3.5,3,4.8,4c1.8,1.6,3.7,2.6,5.9,4.6c1.5,1.4,3.3,3.1,4.2,4.6
		C390.5,53.2,390.8,54,391.6,55.2"/>
	<path class="st1" d="M377.7,17.3c0,0.3-0.3,0.4-0.5,0.4c-0.3,0-0.4-0.3-0.4-0.6l-0.3-0.4l0.1,0.1h0.3c-0.1,0,0.3-0.3,0.3-0.1
		c0,0.1,0-0.3,0-0.3v0.1c0,0.1,0-0.1,0-0.1l0.1,0.3L377.7,17.3c1,2.1,1.5,4.4,1.9,7.1c0.8,4.3,2.3,8.6,3.5,11.4c1,2,1.2,4.3,1.9,6
		c0.3,0.9,0.7,1.6,1.2,2.3l1.8,2.7l1.1,1.9c1.5,2.6,3.4,4,4.6,6.4s1.5,5.3,2.2,8.6c0.3,1.3,0.5,2.3,1,3.6c0.4,1,1,2.1,1.5,3.3
		c0.3,0.6,0.5,1.1,0.8,1.9l0.1,0.9v0.1l0,0c0,0-0.3-0.1-0.1-0.1c0.5,0.3,0.8,0.9,0.5,1.4c-0.3,0.6-0.8,0.9-1.4,0.6
		c-0.3-0.1-0.5-0.3-0.7-0.6c-0.3-0.4-0.4-0.9-0.4-1.1l-0.1-0.6l-0.5-1.6c-0.5-1.1-1.1-2.3-1.5-3.4c-0.5-1.3-0.8-2.6-1.1-3.9
		c-0.7-3.4-1-6.1-1.9-8c-1-2-2.9-3.6-4.5-6.4l-1-1.9l-1.8-2.7c-0.5-0.7-1-1.6-1.4-2.6c-0.8-2.1-1.1-4.3-1.9-6
		c-1.2-3-2.9-7.3-3.7-11.9c-0.4-2.6-0.8-4.9-1.6-6.7l-0.4-0.9c-0.1-0.3-0.4-0.6-0.3-1.1v-0.1l0.4-0.4h0.5c0.3,0.1,0.4,0.3,0.5,0.4
		C377.6,16.3,377.8,16.7,377.7,17.3 M400,74.2c0,0.6-0.4,1.1-1.1,1.1c-0.5,0-1.1-0.4-1.1-1.1c0-0.6,0.4-1.1,1.1-1.1
		C399.6,73,400,73.6,400,74.2"/>
	<path class="st1" d="M479.3,114.1c0.1,0.3,0.1,0.6-0.1,0.7c-0.1,0.1-0.5,0.1-0.7,0c-0.1-0.1-0.5-0.3-1.2-0.3h-2.9
		c-1.6,0-3.7-0.3-6.1-0.6c-4.2-0.4-9.7-0.7-14.8-1.6c-2.3-0.4-4.5-0.9-6.5-1.3l-6.3-1.3l-2.2-0.7l-0.4-0.1h0.1c0,0,0.3-0.1,0.1,0
		c-0.1,0,0.3-0.3,0.3-0.1s0.1-0.3,0.1-0.3c0,0.1-0.1,0.3-0.3,0.4c-0.1,0,0.1-0.3,0.1-0.1c0,0.1,0-0.1,0-0.1l0.1,0.6
		c0,0.1-0.1,0.4-0.3,0.4s-0.3,0-0.4-0.1l-0.5-0.7c-0.1-0.1-0.1-0.3-0.1-0.6c0-0.1,0.1-0.4,0.4-0.6c0.1-0.1,0.4-0.1,0.5-0.1l0.7,0.1
		l2,0.6l6.3,1.3c2,0.4,4.2,1,6.5,1.3c5.2,0.9,10.6,1.1,14.8,1.6c2.6,0.3,4.5,0.6,6,0.6l3,0.3C478.4,113.3,478.9,113.5,479.3,114.1"
		/>
	<path class="st1" d="M441.3,108.5c0.1,0.1,0.1,0.6,0,0.7s-0.5,0.1-0.7,0c-0.7-0.7-1.2-1.4-2.5-2.7c-1.5-1.6-3.8-3.9-6.4-5.9
		c-1.2-1-2.6-1.9-4.1-2.6c-0.8-0.4-1.6-0.9-2.6-1.1c-1.1-0.3-2.2-0.6-3.3-0.9c-1.8-0.4-3.4-0.6-4.8-0.6c-1.2,0-2.3,0.1-3,0.4
		l-0.5,0.4l-0.1,0.1c0,0.1,0.1,0.3,0.4,0.6c0.3,0.3,0.7,0.6,1.2,0.7c0.1,0.1,0.3,0.3,0.1,0.4c-0.1,0.1-0.3,0.3-0.4,0.1
		c-0.5-0.3-1.1-0.6-1.4-0.9c-0.4-0.3-0.7-0.6-0.7-1c-0.1-0.4,0-0.9,0.1-1.1c0.3-0.3,0.5-0.6,1-0.7c0.8-0.4,1.9-0.6,3.4-0.7
		s3.1,0,5,0.3c1.2,0.3,2.3,0.6,3.5,0.9c1,0.3,1.9,0.7,2.7,1.1c1.5,0.9,2.9,1.7,4.2,2.9c2.7,2.1,4.9,4.4,6.4,6.1
		C440.2,107,440.8,107.9,441.3,108.5"/>
	<path class="st1" d="M417.6,126.2c0,0.3-0.1,0.4-0.3,0.6c-0.3,0-0.4-0.1-0.5-0.3c-0.1-0.1,0.1-0.4,0.3-0.6c0.1,0,0.1,0,0.3,0
		c0.1,0-0.1,0-0.1,0c0.1,0-0.1,0-0.1,0l0.5-0.6c0.1-0.1,0.4-0.1,0.5,0s0.1,0.4,0,0.6l-0.7,0.7l0.1-0.1l0,0L417.6,126.2 M441.3,113.3
		c0.3,0,0.5,0.3,0.5,0.6s-0.1,0.6-0.4,0.6c-0.5,0.1-0.8-0.1-1.4-0.3c-0.5-0.1-1.1-0.3-1.8-0.1c-0.7,0.1-1.8,0.7-3.3,1.4
		c-1.9,1-4.4,2-6.5,3.3c-2.6,1.4-4.8,3.1-6.7,4.6l-2.5,2l-1.5,1.1l-0.4,0.3l-0.3,0.1h-0.3c-0.1,0-0.3-0.1-0.3-0.3v-0.3l0.1-0.3
		l0.4-0.4l1.2-1.3l2.5-2.1c1.9-1.6,4.2-3.1,6.8-4.7c2.3-1.3,4.8-2.3,6.7-3.1c1.5-0.7,2.6-1.4,3.7-1.6
		C439.8,112.6,441.3,113.3,441.3,113.3"/>
	<path class="st1" d="M424.1,98.2c-0.1,0.3-0.4,0.4-0.7,0.4c-0.3-0.1-0.4-0.3-0.4-0.6c0.1-0.7,0.3-1,0.4-1.3c0,0,0.1-0.3,0.4-0.3
		c0.4,0,0.5,0.3,0.7,0.4c0,0.3,0,0.3,0,0.4l-0.3,0.7c-0.5,1-1.5,2.1-2.9,3.4l-4.2,4.4c-1.8,1.7-3.1,3.1-4.1,4.1l-0.8,1.1l-0.1,0.3
		l0,0c0.1,0.1,0.1,0.4,0,0.6c-0.1,0.1-0.3,0.1-0.5,0c-0.1-0.1-0.3-0.3-0.4-0.6c0-0.3,0-0.4,0.1-0.7c0.1-0.4,0.4-0.9,1-1.4
		c1-1.1,2.3-2.7,4-4.4l4.2-4.3c1.2-1.3,2.2-2.4,2.6-3.1l0.3-0.4V97c0,0,0,0.3,0,0.1c0-0.1,0.3,0.3,0.1,0.3c0,0,0.3,0.1,0.1,0.1
		s0.3,0,0.3,0h0.1c-0.1,0,0.1-0.1,0.1-0.1L424.1,98.2z"/>
	<path class="st1" d="M418,93.8c0.3,0,0.5,0.1,0.5,0.4s-0.1,0.6-0.4,0.6c-1.9,0.3-3.1-0.1-4.9-1l-3.5-1.9c-1.5-0.9-3.3-1.7-5-2.6
		c-1.6-0.7-3.4-1.1-4.8-1.4c-1.2-0.3-2.2-0.3-2.9-0.3h-0.1l-0.8-0.3c-0.3-0.1-0.4-0.4-0.4-0.6s0.1-0.4,0.3-0.4h0.1h0.1l0.7-0.1h0.1
		c0.7,0,1.8,0,3.1,0.3c1.5,0.3,3.3,0.7,5,1.4c1.9,0.9,3.7,1.9,5.2,2.6l3.5,1.9C415.4,93.6,416.2,93.9,418,93.8"/>
	<path class="st1" d="M405.9,91.9c0.1,0.3,0,0.6-0.3,0.7s-0.5,0-0.7-0.3l0.1,0.1h-0.3l-1.4,0.4c-1.2,0.6-2.9,1.3-4.5,2.1
		c-1.9,0.9-3.8,1.7-5.4,2.3c-0.8,0.3-1.5,0.3-2,0.3c-0.3,0-0.5-0.1-0.8-0.3c-0.3-0.1-0.3-0.4-0.4-0.7c0-0.1,0.1-0.4,0.3-0.4
		s0.4,0.1,0.4,0.3l0.1,0.1l0.4,0.1c0.4,0,1-0.1,1.6-0.4c1.5-0.6,3.3-1.4,5.2-2.4c1.6-0.9,3.3-1.6,4.6-2.1c0.7-0.3,1.2-0.4,1.8-0.4
		c0.3,0,0.5,0,0.7,0C405.5,91.3,405.7,91.6,405.9,91.9"/>
	<path class="st1" d="M414.5,116.8c-0.1,0.3-0.5,0.4-0.8,0.3s-0.4-0.6-0.3-0.9s0.5-0.4,0.8-0.3c0.1,0.1,0.3,0.3,0.3,0.6
		c0,0.1,0-0.1,0-0.1c0,0.1-0.1-0.1-0.1-0.1l-0.1-0.1l0,0l1.4,0.7c0.1,0.1,0.3,0.3,0.1,0.6c-0.1,0.1-0.3,0.3-0.4,0.1l-1.4-0.4l0,0
		c0,0,0.3-0.1,0.1,0h0.1L414.5,116.8C414.5,116.9,414.6,116.6,414.5,116.8 M426.6,116.9c0,0.1-0.1,0.4-0.3,0.4c-0.3,0.1-0.1,0-0.3,0
		h-0.1h-1l-3.7,0.1c-1.5,0-3.3,0.1-4.8,0c-1.4,0-2.5-0.3-2.9-0.4c-0.1,0-0.1-0.1-0.3-0.1l-0.3-0.3c0-0.1-0.1-0.1-0.1-0.6
		c0-0.1,0.1-0.3,0.1-0.4c0.3-0.3,0.3-0.1,0.4-0.3h0.3c0.1,0,0.1,0,0.3,0c0.3,0.1,1.4,0.3,2.5,0.4c1.4,0.1,3.1,0,4.6,0l3.7,0.1l1,0.1
		h0.1h0.1C426.5,116.5,426.6,116.5,426.6,116.9 M425.9,117.5c-0.3,0-0.5-0.3-0.5-0.6c0-0.3,0.1-0.4,0.4-0.6l0,0h-0.1l-0.1,0.1
		l-0.1,0.1v0.1c0,0,0,0.3,0,0.1c0-0.3,0.1-0.6,0.4-0.7c0.3,0,0.5,0.1,0.7,0.4c0,0.3-0.1,0.6-0.4,0.7
		C426,117.5,426,117.5,425.9,117.5C425.9,117.5,426,117.5,425.9,117.5L425.9,117.5z"/>
	<path class="st1" d="M431.6,118.6c0.1,0.1,0.1,0.6,0,0.7s-0.5,0.1-0.7,0s-0.3-0.1-0.4-0.1s-0.4,0.1-0.7,0.3
		c-0.7,0.4-1.4,1.1-1.9,2.1c-1.2,1.9-2.2,4.4-2,7.1c0,1,0,1.9,0.3,2.7c0,0.1-0.1,0.4-0.3,0.4s-0.3,0-0.4-0.1
		c-0.4-0.9-0.7-1.9-0.8-2.9c-0.1-3,0.8-5.9,2.2-8c0.8-1.1,1.6-2,2.5-2.4c0.4-0.3,0.8-0.4,1.2-0.4
		C430.8,118.2,431.2,118.3,431.6,118.6"/>
	<path class="st1" d="M480.9,67.9c0.3,0.1,0.3,0.4,0.1,0.7c-0.1,0.3-0.4,0.3-0.7,0.1c-0.3-0.1-0.8-0.3-1.9-0.1l-5,0.4l-6.9,0.7
		l-5.4,0.3c-3.5,0.1-7.6,0.3-11.9,0.7c-3.5,0.3-6.7,0.4-9.3,0.6c-2.6,0-4.8,0-6.5-0.1l-4.5-0.3c-0.1,0-0.3,0-0.3-0.1
		c-0.1-0.1-0.3,0-0.4-0.3v-0.1c-0.1-0.6,0.3-0.6,0.4-0.7c0.1,0,0.3-0.1,0.3-0.1h1.8l3,0.1c1.8,0.1,4,0.1,6.4,0.1
		c2.6,0,5.7-0.1,9.3-0.4c4.2-0.4,8.3-0.6,11.9-0.7l5.4-0.3l6.9-0.6c2.2-0.1,3.8-0.3,5.2-0.3C479.6,67.4,480.4,67.6,480.9,67.9"/>
	<path class="st1" d="M432.2,50.2c-0.1,0.4-0.5,0.7-1,0.7c-0.4-0.1-0.7-0.6-0.7-1c0-0.1,0.1-0.3,0.1-0.4l0.1-0.1
		c0,0,0.1-0.1,0.3-0.1c0.4-0.1,0.5,0,0.7,0l0.5,0.1l1.2,0.4c0.8,0.1,1.6,0.4,2.3,0.9c0.1,0.1,0.3,0.3,0.1,0.6
		c-0.1,0.1-0.3,0.3-0.5,0.1c-0.5-0.3-1.4-0.6-2-0.7h-1.1H432c0,0,0.1-0.1,0.1,0c0,0,0.1-0.3,0.1-0.1C432,50.4,432.2,50,432.2,50.2
		c0,0,0,0.1-0.1,0.3C432,50.4,432.2,50,432.2,50.2 M453.3,69c0.3,0,0.4,0.3,0.4,0.6c0,0.3-0.3,0.4-0.5,0.4c-1.1-0.1-1.6-1-2.5-1.7
		c-0.5-0.4-1.5-1-2.7-1.6s-2.6-1.4-4-2.4c-1.5-1.1-2.9-2.7-4.2-4.4c-1.2-1.4-2.3-3-3.4-4.4c-1.1-1.3-2.3-2.4-3.3-3.3l-1.5-1.1
		l-0.4-0.3l-0.1-0.1l-0.1-0.1c-0.1-0.1-0.4-0.3-0.4-0.9c0-0.4,0.4-0.9,1-0.7c0.3,0,0.5,0.3,0.7,0.4c0,0.1-0.3-0.3-0.1-0.3
		c0.1,0.1-0.3-0.1-0.1-0.1H432l0,0l0,0l0.8,0.4c0.3,0.3,1,0.7,1.6,1.3c1,0.9,2.2,2,3.4,3.6c1.1,1.4,2.2,3,3.4,4.4
		c1.4,1.7,2.7,3.1,4,4.1c2.6,2.1,5,2.9,6.5,4.3C452.5,68.3,452.9,68.9,453.3,69"/>
	<path class="st1" d="M448.9,73.2c0.3,0,0.4,0.3,0.4,0.6c0,0.3-0.3,0.4-0.5,0.4c-0.8-0.1-1.8,0.1-3.1,0.6c-1.5,0.6-3.1,1.3-4.5,1.9
		L440,77c-0.1,0-0.4,0-0.7,0c-0.3-0.1-0.5-0.4-0.5-0.7c0-0.1,0-0.3,0-0.4l0.4-0.4l0.5-0.6c0.1-0.1,0.4-0.1,0.5,0s0.1,0.3,0,0.4
		l-0.3,0.6l0,0v-0.1c0,0-0.1-0.3-0.1-0.1c0.1,0.1,0.1,0.3,0.3,0.4c0,0.1-0.3-0.3-0.1-0.3s-0.3-0.1-0.1-0.1l0,0l1-0.3
		c1.4-0.4,3-1.3,4.6-1.7C446.7,73.2,447.8,72.9,448.9,73.2"/>
	<path class="st1" d="M479.6,44c-0.3,0.1-0.5,0-0.7-0.3c-0.1-0.3,0-0.6,0.3-0.7c0,0,0,0,0.1,0l0.5-0.1l0,0l0,0V43l0.1,0.3l0,0h-0.3
		l-1.2-0.1l-3.8-0.6c-1.4-0.1-3.1-0.3-4.9-0.7c-1.9-0.3-3.8-1-5.7-1.4c-2.2-0.6-4.2-1-6-1.6c-1.2-0.4-2-1-2.9-1.4
		c-1-0.4-1.8-0.9-3.1-1.1c-1.9-0.4-4.4-0.6-7.1-0.6c-1.6,0-3.1-0.3-4.6-0.4c-2.2-0.3-4.5-0.6-6.8-0.9c-3.1-0.6-6.3-1.3-9.1-2.1
		c-2.3-0.6-4.2-1.3-6.1-1.7c-2.9-0.7-5.6-0.7-7.8-0.9l-2.7-0.1h-0.7c-0.3,0-0.5,0-1-0.4c-0.5-0.6-0.5-1.1-0.4-1.4L406,27
		c0.3-0.4,0.5-0.7,0.8-1c0.5-0.4,1.1-0.6,1.6-0.7c0.3,0,0.7,0,1,0.3c0.3,0.1,0.4,0.4,0.4,0.7c0.1,0.4,0,1-0.4,1.4s-0.8,0.3-1.1,0.3
		h-0.5c-0.1,0-0.1,0-0.3,0l0,0c-0.1,0-0.3,0-0.5-0.1c-0.3-0.1-0.4-0.3-0.5-0.6l-0.3-0.9c0-0.1,0.1-0.4,0.3-0.4c0.1,0,0.3,0,0.4,0.1
		l0.3,0.4l0,0H407l0,0c0.1-0.1,0.3-0.3,0.5-0.3c0.1,0,0.1,0,0.3,0h0.5l0,0c0,0-0.1,0.1-0.1,0c0,0-0.3,0.3-0.3,0.1l-0.1,0.3
		c0-0.1,0.1,0.3,0,0.3l0.1,0.1l0.3,0.1c-0.1,0,0.4,0,0.3,0s0.3,0,0.3,0l-0.7,0.4l-0.4,0.6l0,0V28v0c0,0.1-0.1-0.4,0-0.3
		c0,0.1-0.4-0.4-0.3-0.4c0,0,0.1,0,0.1,0.1s-0.3-0.1-0.1-0.1h-0.1h0.1l0.7,0.1l2.6,0.3c2.2,0.1,5,0.1,8.2,1c2,0.6,4,1.3,6.1,1.9
		c2.9,0.7,6,1.4,9,2c2.3,0.4,4.5,0.6,6.7,0.9c1.5,0.1,3,0.4,4.5,0.4c2.7,0,5.3,0.1,7.5,0.6c1.6,0.4,2.7,1,3.7,1.4
		c1,0.6,1.8,1.1,2.6,1.6c1.5,0.6,3.5,1.1,5.9,1.7c1.9,0.6,3.7,1.1,5.4,1.6l4.9,0.7l3.8,0.7l1.4,0.6l0.4,0.3c0.1,0.1,0.3,0.3,0.1,0.6
		v-0.4c0.1,0.1,0.1,0.3,0.1,0.4l-0.3,0.3L479.6,44z"/>
	<path class="st1" d="M389.8,3.5c-0.3,0.1-0.7,0.1-0.8-0.1c-0.1-0.3-0.1-0.7,0.1-0.9c0.3-0.1,0.7-0.1,0.8,0.1c0.1,0.1,0.1,0.4,0,0.6
		c0,0.1,0-0.3,0-0.3c0,0.1,0-0.1,0-0.1V2.7l0,0l1.5,1.4c0.1,0.1,0.1,0.4,0,0.6c-0.1,0.1-0.3,0.1-0.4,0.1l-1.8-1.1l0,0l0,0h0.1h0.1
		C389.5,3.5,389.9,3.4,389.8,3.5 M406.2,26c0.3,0.1,0.3,0.4,0.1,0.7c-0.1,0.3-0.4,0.3-0.7,0.1c-1-0.7-2.2-1.7-3.7-3.6
		c-1.1-1.3-2.2-3.1-3.4-5.1c-2.5-3.9-4.9-8.6-7.1-11.6c-1.1-1.6-1.9-2.4-2.3-2.9L389,3.5l-0.1-0.3c0-0.1-0.3-0.1,0-0.6
		c0-0.1,0.1-0.3,0.3-0.3c0.4-0.3,0.4-0.1,0.5,0l0.3,0.1l0.1,0.1c0.4,0.4,1.4,1.4,2.5,3.1c2.2,3.3,4.6,8,6.9,11.9
		c1.2,2,2.3,3.7,3.3,5C404.2,24.4,405.3,25.3,406.2,26"/>
	<path class="st1" d="M403.7,28c0,0.3-0.3,0.4-0.5,0.4s-0.4-0.3-0.4-0.6l-0.1-0.4l-0.7-0.7c-0.7-0.6-1.8-1.1-3.1-1.6
		c-2.6-0.7-6.3-0.9-9.1-0.3c-1,0.1-1.8,0.3-2.3,0.6l-0.5,0.4l-0.1,0.3c0,0.1-0.1,0.4-0.3,0.4c-0.1,0-0.3-0.1-0.4-0.3
		c-0.1-0.3,0-0.7,0.1-1s0.4-0.6,0.7-0.9c0.7-0.4,1.5-0.7,2.6-1c3.1-0.6,6.9-0.4,9.8,0.4c1.5,0.4,2.7,1.1,3.5,1.9
		c0.4,0.3,0.7,0.7,1,1C403.7,27.3,403.8,27.6,403.7,28"/>
	<path class="st1" d="M429.4,36c0.1,0.3,0.1,0.6-0.1,0.7c-0.3,0.1-0.5,0.1-0.7,0c-0.5-0.7-1.1-1-2.5-0.6c-0.8,0.1-1.9,0.7-3.3,1.4
		c-3.3,1.6-7.6,3.6-11.3,5.7c-1.8,1-3.4,2-4.5,2.9c-0.5,0.4-1,0.9-1.2,1.1c-0.3,0.3-0.3,0.6-0.3,0.6c0,0.1-0.1,0.4-0.3,0.4
		c-0.1,0-0.4,0-0.4-0.3c-0.1-0.4,0.1-0.9,0.4-1.3c0.3-0.4,0.8-0.9,1.4-1.3c1.2-1,2.7-2,4.6-3c3.7-2.1,8-4.3,11.2-5.9
		c1.4-0.7,2.5-1.3,3.4-1.6C427.5,34.4,428.8,35.1,429.4,36"/>
	<path class="st1" d="M481.8,12c0.1-0.3,0.4-0.3,0.7-0.3c0.3,0.1,0.3,0.6,0.3,0.7l-0.1,0.3l-0.4,0.3l-1.5,0.6l-2.3,0.4l-5.9,0.9
		c-2.5,0.3-5.2,0.7-8.2,1c-2.9,0.3-5.9,0.3-9.4,0.3l-6.9,0.3c-4,0.1-8,0.1-12,0s-7.8-0.4-11.2-0.7l-5.2-0.6l-3.8-0.4
		c-1-0.1-1.6,0-2,0h-0.4l0,0l0,0h0.1c0,0,0.3-0.3,0.1-0.1c-0.1,0.1,0.1-0.6,0.1-0.4c0,0.1,0-0.4,0-0.3s-0.1-0.1-0.1-0.1s-0.1,0,0,0
		l0,0c0.7,0.3,2.3,1,4,1c0.1,0,0.4,0.1,0.4,0.3c0,0.1-0.1,0.4-0.3,0.4c-1.9,0.3-3.8-0.4-4.5-0.6l-0.3-0.1l-0.3-0.1
		c-0.1-0.1-0.3-0.6-0.1-0.7c0.1-0.4,0.4-0.4,0.5-0.4l0.5-0.1c0.5,0,1.4-0.1,2.3,0l3.8,0.4l5.2,0.6c3.3,0.3,7.1,0.6,11,0.7
		c4,0.1,7.9,0,11.9,0l6.9-0.3c3.4-0.1,6.5-0.1,9.3-0.4c2.9-0.3,5.6-0.6,8-1l5.9-0.9l2.3-0.4L481.8,12l0.3-0.1l0,0L481.8,12
		C481.9,11.8,481.8,12.1,481.8,12 M482.2,12.8c-0.3,0-0.4-0.3-0.4-0.6c0-0.1,0.1-0.4,0.4-0.4h0.3c0.3,0,0.5,0.3,0.5,0.6
		C482.7,12.7,482.4,12.8,482.2,12.8s-0.4-0.3-0.4-0.6c0-0.1,0-0.1,0-0.3c0-0.1,0,0.4-0.1,0.3c0-0.1,0.1,0.3,0,0.1
		c0-0.1,0.1,0.3,0.1,0.1C481.9,12.7,482,12.8,482.2,12.8L482.2,12.8z"/>
	<path class="st1" d="M418-15.2c0-0.3,0.3-0.4,0.5-0.4c0.3,0,0.4,0.3,0.4,0.6c0,0.1,0,0.1-0.1,0.3l0.1-0.1l0,0l0.3,1.7
		c0,0.1-0.1,0.4-0.3,0.4c-0.1,0-0.4-0.1-0.4-0.3l-0.4-1.4C418.1-14.8,418-14.9,418-15.2 M427,14c0,0.3-0.3,0.4-0.5,0.4
		c-0.3,0-0.4-0.3-0.4-0.6c0.1-1.3,0-1.9-0.8-3.7c-0.7-1.4-1.5-3.4-2.2-5.7c-0.5-1.6-1-3.3-1.4-5.3L420.3-7c-0.5-2.4-1.2-4.4-1.6-6
		l-0.4-1.3l-0.1-0.3l0,0c0,0,0.3,0.1,0.1,0.1c-0.4-0.3-0.5-0.7-0.3-1.1c0.3-0.4,0.7-0.6,1.1-0.3l0,0c0.5,0.3,0.4,0.6,0.5,0.9
		l0.5,1.4c0.4,1.6,1.1,3.7,1.6,6.1l1.4,6.3c0.4,1.9,0.8,3.6,1.2,5.1c0.7,2.3,1.5,4.3,2,5.7C427.1,11.4,427.3,12.6,427,14
		 M419.4-15.2c0,0.4-0.4,0.9-0.8,0.9s-0.8-0.4-0.8-0.9s0.4-0.9,0.8-0.9C419-16,419.4-15.6,419.4-15.2"/>
	<path class="st1" d="M424.3,6.4c0,0.3-0.3,0.4-0.5,0.4c-0.3,0-0.4-0.3-0.4-0.6c0.1-1.1,0.3-2,0-2.4c-0.1-0.4-0.5-0.7-1.2-1.1
		L418.7,1c-2.3-1.1-5.3-2.6-7.4-3.6L410-3.2l-0.4-0.1l0,0h0.1h0.1c-0.1,0,0.1-0.3,0.1-0.3c0,0.1,0-0.3,0-0.1l0.1,0.1
		c0.1,0.1,0.5,0.6,1.2,1c0.1,0.1,0.3,0.3,0.1,0.6c-0.1,0.1-0.3,0.3-0.4,0.1l-1.5-0.9L409-3.2c-0.1-0.1-0.3-0.6,0-0.9
		c0.1-0.3,0.4-0.3,0.7-0.3h0.7L412-4l7.4,3.7c1.5,0.7,2.6,1.3,3.5,1.9c0.8,0.6,1.5,1.1,1.6,2C424.5,4.3,424.5,5.3,424.3,6.4"/>
	<path class="st1" d="M439.7-19.9c0.1,0.4-0.1,0.7-0.4,0.9c-0.4,0.1-0.7-0.1-0.8-0.4c-0.1-0.4,0.1-0.7,0.4-0.9c0.1,0,0.3,0,0.4,0
		l0,0c0.1,0,0,0,0.1,0l0.3,0.1c0.8,0.3,2,1.1,2.9,2.1c0.1,0.1,0.1,0.4,0,0.6c-0.1,0.1-0.3,0.1-0.4,0c-0.7-0.7-2-1.4-2.6-1.4h0.1
		l0.1-0.1l0.1-0.1l0.1-0.3v-0.1C439.7-19.6,439.7-20,439.7-19.9 M481.3-17c0.3,0,0.5,0.1,0.5,0.4s-0.1,0.6-0.4,0.6
		c-0.8,0.1-2,0-3.5-0.1l-2.5-0.4l-3-0.4l-6.4-0.9c-6.9-0.7-14.2-0.6-20-0.6l-4.1-0.1l-2.6-0.1l-0.7-0.1l-0.3-0.1
		c-0.1-0.1-0.4-0.3-0.1-0.9l0.1-0.1c0.1-0.1,0.4-0.3,0.5-0.1l0,0h-0.1h0.1h0.3L442-20l4.1,0.1c5.9,0.1,13.1,0,20.2,0.9l6.4,0.9
		l3,0.6l2.5,0.6C479.7-17,480.8-16.9,481.3-17"/>
	<path class="st1" d="M447.7-19c-0.1,0.3-0.4,0.4-0.7,0.4c-0.3,0-0.4-0.3-0.4-0.6c0.3-1.3,0.5-3,0.5-5.4v-3.7l-0.1-4.1
		c0-0.4,0-0.7,0.3-1c0.1-0.1,0.3-0.6,0.8-0.4c0.3,0,0.4,0.3,0.4,0.3v0.1l0.5,1.9c0,0.1,0,0.4-0.3,0.4c-0.1,0-0.4,0-0.4-0.3l-0.5-1.1
		l-0.1-0.3l0,0c0,0,0.1,0.1,0.1,0c0,0,0.3,0,0.1,0c0,0,0.3,0,0.1,0c-0.1,0,0.4-0.3,0.3-0.1c-0.1,0.1,0.1-0.3,0.1-0.3
		c0,0.1,0-0.1,0-0.1l0,0l0.1,0.6l0.1,4.3l-0.1,3.7C448.4-22.2,448-20.5,447.7-19"/>
	<path class="st1" d="M447.7-19.2c0.3,0,0.5,0.3,0.5,0.6c0,0.3-0.3,0.6-0.5,0.6l0,0c-0.5,0-2.2,0.4-4.2,1.1s-4.5,1.7-6.8,2.6
		s-4.4,1.9-5.7,2.4l-1.2,0.7c0,0,0-0.1,0,0c0,0,0-0.3,0-0.1c0,0-0.1-0.3,0-0.1l-0.1-0.1h-0.1h0.3c0.1,0,0.4,0.1,0.4,0.3
		c0,0.1-0.1,0.4-0.3,0.4c-0.3,0-0.4,0.1-0.5,0s-0.3-0.4-0.1-0.6l0.1-0.3c0.3-0.3,0.7-0.4,1.4-0.9c1.4-0.7,3.4-1.6,5.7-2.6
		c2.3-1,4.8-1.9,6.8-2.7C445.1-18.6,446.7-19.2,447.7-19.2"/>
	<path class="st1" d="M461.2-15.6c-0.3,0-0.5-0.1-0.5-0.4c0-0.3,0.1-0.6,0.4-0.6c0.1,0,0.3-0.1,0.4,0c0.3,0.1,0.4,0.6,0.4,0.7
		c-0.1,0.3-0.3,0.4-0.4,0.7l-1.9,1.7c-1.8,1.6-4.1,3.4-6.3,5.4c-1.8,1.6-3.4,3-4.5,4.3c-0.5,0.6-1,1.1-1.1,1.6l-0.1,0.4l0.1,0.3
		c0.1,0.1,0.1,0.4,0,0.6c-0.1,0.1-0.3,0.1-0.4,0c-0.3-0.1-0.4-0.4-0.4-0.7s0-0.6,0.1-0.9c0.1-0.6,0.5-1.3,1.1-1.9
		c1.1-1.4,2.7-3,4.5-4.6c2.3-2,4.6-3.9,6.4-5.3l1.9-1.6L461-16l0,0v0.1v0.1c0-0.1,0.3,0.4,0.1,0.3C460.8-15.8,461.1-15.6,461.2-15.6
		C460.9-15.6,461.2-15.6,461.2-15.6"/>
	<path class="st1" d="M479-2.6c0.3,0,0.5,0.3,0.5,0.6s-0.3,0.6-0.5,0.6c-0.5,0-1.1,0.1-2,0.3l-1.9,0.3l-7.1,1l-5,0.6
		c-1.4,0.1-2.5,0.3-3.1-0.1c-0.1,0-0.1-0.1-0.1-0.1c-0.1-0.1-0.3-0.4-0.3-0.6c0-0.1,0-0.4,0.1-0.6c0.1-0.1,0.3-0.3,0.5-0.1
		c0.1,0,0.1,0.1,0.1,0.3l0,0l0,0c0.1,0,0.1,0,0.3,0.1c0.5,0.3,3.8,0,7.5-0.4l7.1-1L477-2C477.8-2.5,478.4-2.6,479-2.6"/>
	<path class="st1" d="M481.3,252.7c0.3-0.1,0.5,0,0.7,0.1c0.1,0.1,0.1,0.4,0,0.6l-0.3,0.3l-0.1,0.1c-0.1,0-0.4,0.1-0.5,0
		c-0.4-0.1-0.5-0.6-0.5-0.9l0.1-0.6c0-0.1,0.1-0.1,0.1-0.3c0.4-0.6,1-0.6,1.4-0.7c0.3,0,0.5,0.1,0.7,0.3l0.3,0.3l0.1,0.6
		c0,0.3,0,0.7-0.1,1c-0.3,1.3-1.6,2.4-2.7,3c-0.4,0.3-1,0.4-1.5,0.3c-0.4,0-0.8-0.3-1.1-0.7c-0.3-0.4-0.3-0.7-0.3-1.1
		c0.1-1.1,0.8-2,1.5-2.7s1.5-1.4,2.2-1.9c0.3-0.1,0.7-0.4,1.1-0.6c0.5-0.1,1,0,1.2,0.3c0.3,0.1,0.5,0.4,0.7,0.7
		c0.4,0.6,0.3,1.3,0.1,2c-0.3,0.9-0.7,1.6-1.2,2.3c-0.7,1-1.8,1.3-2.6,1.3c-0.1,0-0.5,0.3-1.2,0.1c-0.7-0.1-1-0.7-1.1-1l-0.3-0.9
		c0-0.7,0.1-1.3,0.4-1.7s0.7-0.7,1.1-1.1c0.8-0.6,1.6-1.1,2.6-1.3c0.5-0.1,1.2-0.1,1.8,0.1c0.5,0.3,1,0.7,1.2,1.3
		c0.5,1,0.4,2.3,0.1,3.4c-0.3,1.1-1,2.3-1.8,3c-1,0.9-2.2,1.3-3.4,1c-1.1-0.4-1.8-1.6-1.9-2.6c-0.3-1-0.1-2.3,0.4-3.3
		c0.5-1.1,1.6-1.7,2.6-2s2-0.4,3-0.1c0.8,0.1,1.8,0.4,2.2,1.3c0.4,0.6,0.4,1.3,0.1,1.9c-0.1,0.6-0.5,1.1-1,1.7c-0.8,1-2,2-3.4,2.4
		c-1.2,0.4-2.5,0.6-3.5,0.3c-1.1-0.1-2-0.7-2.6-1.7c-0.3-0.7-0.3-1.3-0.1-1.9s0.5-1,0.8-1.4c1.1-1.1,2.9-1.6,4.4-1.7
		c0.7-0.1,1.4-0.1,2,0c0.8,0.1,1.6,0.6,2.2,1.3c0.3,0.4,0.4,1,0.3,1.4c0,0.4-0.3,0.9-0.4,1.3c-0.4,0.7-1.2,1.4-2,1.9
		c-1,0.4-2,0.7-3.1,0.3c-0.5-0.3-1.1-0.7-1.2-1.1c-0.3-0.4-0.3-1-0.3-1.6v-0.1c0.1-1,0.8-1.7,1.5-2.3s1.5-0.9,2.2-0.9
		c0.8,0,1.6,0.3,2,1s0.4,1.7,0.1,2.9c0,0.1-0.3,0.3-0.4,0.3s-0.3-0.3-0.3-0.4c0.1-1.1,0-1.9-0.3-2c-0.3-0.3-0.5-0.3-1-0.1
		c-0.4,0.1-1,0.4-1.2,0.9c-0.3,0.4-0.4,0.7-0.4,0.9v0.1v0.4l0,0c0.3,0.1,0.8,0.1,1.5-0.1c0.4-0.1,1-0.6,1.2-1l0.3-0.4l0,0
		c0,0-0.3-0.3-0.8-0.3c-0.4,0-1,0-1.5,0c-1.2,0.3-2.6,0.9-3,1.3l-0.1,0.3c0.1,0.1,0.4,0.4,1,0.6c0.7,0.1,1.5,0.1,2.3-0.1
		c1-0.3,1.9-1,2.5-1.7c0.3-0.3,0.5-0.7,0.5-0.9V254l0,0c0,0-0.3-0.1-0.8-0.1c-0.7-0.1-1.4,0-2,0.3c-0.7,0.3-1.1,0.6-1.1,0.9
		c-0.3,0.6-0.3,1.1-0.3,1.7c0.1,0.6,0.3,0.7,0.4,0.9c0.3,0.1,0.8,0,1.4-0.3c0.4-0.4,1-1.1,1.1-2c0.3-0.9,0.3-1.6,0-1.9l-0.3-0.3
		h-0.5c-0.5,0.1-1.2,0.6-1.8,1l-0.5,0.6l-0.1,0.1v-0.1v0.3c0,0-0.1-0.1,0,0L480,255l-0.3-0.1c0.1,0-0.1,0,0,0h0.7
		c0.4,0,1-0.1,1.2-0.4c0.4-0.4,0.7-1.1,1-1.6V252h-0.1l0,0h0.1l-0.5,0.3c-1.2,0.9-2.7,2.6-2.7,3v0.3v-0.1c0,0-0.3-0.1-0.1-0.1h0.4
		c0.8-0.3,1.8-1.4,1.9-1.9v-0.3v0.1l0.1,0.1c0,0,0.3,0.1,0.1,0.1s0.3,0,0.3,0c-0.1,0,0.4,0,0.3,0h-0.3l0,0l0,0
		c0,0.1-0.1,0.1-0.1,0.3l-0.1,0.1l0,0c0,0,0.1-0.1,0-0.1v-0.3c0,0.1-0.1-0.4-0.1-0.4c0,0.1-0.3-0.3-0.3-0.3
		C481.6,252.9,481.3,252.7,481.3,252.7C481.5,252.7,481.2,252.7,481.3,252.7L481.3,252.7z"/>
	<path class="st1" d="M479.7-35.2c0,0.3-0.1,0.6-0.4,0.6s-0.4,0-0.5-0.3c-0.3-0.6-0.4-1.1-0.3-1.7c0.1-0.6,0.4-1.1,0.8-1.7l1.5-1.6
		c0.4-0.3,0.7-0.4,1.1-0.6c0.3,0,0.4,0,0.7,0.1c0.3,0.1,0.4,0.3,0.5,0.6c0.4,0.6,0.3,1.3,0.1,1.7c0,0.3-0.3,0.6-0.4,0.7l-0.7,0.4
		c-0.4,0.1-0.8,0.1-1.2,0.3c-0.5,0-1.1-0.1-1.5-0.6c-0.5-0.6-0.7-1.3-0.5-1.7c0.1-0.4,0.4-0.9,0.5-1.1c0.5-0.6,1.2-1.1,2-1.4
		c0.5-0.1,1.1-0.3,1.6-0.1c0.3,0,0.7-0.1,1.4,0.3c0.7,0.4,0.7,1.1,0.8,1.6v1.1c0,1.4-1,2.7-2.2,3.3c-1,0.4-2,0.3-3-0.3
		c-0.8-0.6-1.5-1.4-1.6-2.6v-0.1c-0.1-1.4,0.5-2.7,1.5-3.4c0.8-0.6,1.6-0.7,2.3-0.9c0.8-0.1,1.6,0.1,2,0.9c0.4,0.4,0.5,1.1,0.5,1.6
		c0,0.4,0,1-0.1,1.4c-0.1,1-1.1,1.7-1.9,2.1c-0.8,0.4-1.8,0.7-2.6,0.9c-0.5,0.1-1.1,0.4-2,0.1H478c-0.7-0.3-1.1-1-1.2-1.6
		s-0.1-1.1-0.1-1.7c0.3-1.6,1.2-2.6,2.3-3.1c1.1-0.7,2.3-1.1,3.4-1.1c0.5,0,1,0,1.5,0c0.5,0.1,1.1,0.4,1.5,1s0.5,1.4,0.4,2.1
		c-0.1,1-1,1.6-1.4,2.1c-1,1-2.2,1.4-3.4,1.6c-0.4,0-1.1,0.1-1.8,0c-1.1-0.3-1.9-1-2.3-2c-0.5-1.4,0-2.6,0.7-3.4
		c0.8-1.1,2.2-1.7,3.5-1.9c1.2-0.3,2.6-0.1,3.5,0.1c0.7,0.1,1.5,0.4,1.9,1.3c0.1,0.3,0.4,0.9,0.3,1.7c-0.3,1.1-1.1,1.6-1.9,2
		s-1.6,0.7-2.3,1c-1,0.3-1.8,0.4-2.6,0.1l-0.4-0.1c-0.3-0.1-0.5-0.3-0.7-0.9c-0.1-0.4,0-0.9,0.1-1.1l0.4-0.7c0.3-0.3,0.5-0.4,1-0.4
		l0,0h0.4c0.1,0,0.4,0.1,0.4,0.3v0.1v0.3l0,0V-40c0.1,0.3,0.1,0.7-0.1,1l-0.1,0.3v-0.1c0,0.1-0.1-0.6,0-0.4c0,0.1-0.3-0.4-0.3-0.3
		l-0.1-0.1h0.1c0.1,0,0.7,0,1.4-0.3c0.7-0.1,1.5-0.4,2-0.9l0.7-0.4l0.1-0.1v-0.3l0,0l-0.5-0.1c-0.7-0.1-1.6,0-2.6,0.1
		c-1,0.3-1.6,0.7-1.9,1.1l-0.3,0.6v0.1c0.1,0.3,0.3,0.4,0.4,0.4h1c0.8,0,1.5-0.1,2-0.6l1-0.9c0-0.1,0-0.1-0.1-0.3l0,0h-0.1h-1
		c-0.7,0.1-1.5,0.4-2.2,1c-0.7,0.4-1,1-1,1.3v0.6l0,0l-0.1-0.1c0,0-0.3-0.1-0.1-0.1c0,0,0.1,0,0.1,0.1c0.1,0-0.3-0.1-0.1-0.1h0.8
		c0.5,0,1.2-0.1,1.8-0.4c0.5-0.3,0.7-0.4,0.8-0.6l0.1-0.7v-0.1l0,0h-0.1c-0.4,0.1-0.8,0.3-1,0.4c-0.4,0.4-0.5,0.9-0.5,1.1v0.1
		c0,0.3,0.3,0.7,0.5,0.9c0.3,0.3,0.5,0.3,0.8,0.1c0.5-0.1,1-0.7,1-1.3v-0.7v-0.1v0.1c0,0,0.3,0.1,0.1,0.1h0.1h-0.5l-0.7,0.1
		c-0.4,0.1-0.8,0.4-1.1,0.7l-0.1,0.1v-0.1c0,0-0.1-0.4,0-0.3c0,0.1-0.3-0.3-0.1-0.3l0.3,0.1h0.5h0.1l0,0c0,0-0.1,0.3-0.1,0.1v-0.1
		v-0.1l0,0c0,0,0.4,0.3,0.3,0.3s0.1,0,0.1,0l-0.3,0.1l-1.4,1.3c-0.4,0.4-0.7,0.7-1,1C479.7-35.6,479.6-35.5,479.7-35.2"/>
	<path class="st1" d="M480-56.4c-0.4-0.3-0.4-0.7-0.1-1.1c0.3-0.4,0.7-0.4,1.1-0.1c0.4,0.3,0.4,0.7,0.1,1.1
		C480.8-56.2,480.4-56.1,480-56.4l0.1,0.1l0,0C480.1-56.2,480-56.2,480-56.4L480-56.4L480-56.4C479.8-56.4,480-56.2,480-56.4
		 M480.1-57.4c0.7-0.1,1.2,0.4,1.4,1.1c0.1,0.6-0.3,1.1-0.8,1.4l0,0l-0.4,0.3l-2,1.1c-1.4,0.9-2.7,1.6-4.2,1.9
		c-0.7,0.1-1.2,0.3-1.6,0.3c-0.1,0-0.4,0.1-0.8,0c-0.5-0.1-0.8-0.4-1.1-0.7c-0.1-0.3-0.3-0.6-0.4-1c0-0.6,0-0.9,0.1-1.3
		c0.1-0.6,0.4-1.1,0.7-1.6l0.5-1l0.4-0.7c0.3-0.4,0.5-1,1.1-1.3c0.3-0.1,0.5-0.3,0.8-0.3l0.8,0.1c0.7,0.1,1,0.6,1.2,0.9l0.4,0.4
		l0.3,0.3l0.8,0.6l1,0.7c0.4,0.4,1,0.9,1.2,1c0.7,0.3,1.2,0.4,1.6,0.4l0.7-0.1l0.3-0.1l0.1-0.3c0.1-0.3,0.4-0.6,0.4-1v-0.9v-0.1
		l0.1,0.1l-0.1-0.1h0.1h-0.1l0,0l0,0h-0.1h-0.1c-0.1,0-0.1,0-0.3,0.1l0,0l0,0H482l0.5-0.1c-0.1,0.1-0.3,0.1-0.4,0.3l-0.4,0.1
		l0.1-0.1l-0.3,0.3c-0.1,0.1-0.3,0.3-0.5,0.3l-0.3,0.1c-0.4,0.3-1,0-1.2-0.4c0-0.1-0.1-0.3-0.1-0.4v-0.4c0-0.1,0-0.4,0.1-0.6
		l0.3-0.4l0.1,0.1l0.4-0.7c0.1-0.1,0.1-0.3,0.3-0.4l0.3-0.3l0.4-0.3l0.3-0.1l0.1-0.1c0.1,0,0.1-0.1,0.3-0.1l0.3-0.1l0.3-0.1h0.4h0.1
		h0.3c0.4,0,0.8,0.1,1.2,0.4c0.1,0.1,0.5,0.3,1,0.7c0.4,0.6,0.5,1.1,0.7,1.7c0.1,0.7,0,1.4-0.1,1.9c-0.1,0.9-0.4,1.9-1,2.6l-0.4,0.6
		c-0.4,0.4-1.1,0.9-1.6,1s-1.1,0.3-1.9,0.1c-0.8-0.1-1.6-0.4-2.5-0.9c-0.8-0.4-1.5-1-2-1.6l-0.5-0.6l-0.8-0.6l-0.7-0.6l-0.1-0.6
		l-0.3-0.4l0,0l0,0l0,0l-0.4,0.4l-0.3,0.6l-0.4,0.9l-0.4,1.1v0.3c0,0.1,0,0,0,0.1l-0.1-0.1l-0.3-0.1h-0.1h0.3l1.1-0.1
		c1.1-0.3,2.3-1,3.5-1.7l1.9-1.1C479.4-57.1,479.6-57.4,480.1-57.4 M480.9-55.6c-0.1,0.3-0.5,0.4-0.8,0.3c-0.3-0.1-0.4-0.6-0.3-0.9
		v0.3v0.1c0,0,0.3,0.3,0.1,0.1l0.3,0.1c-0.1,0,0.4,0,0.3,0c-0.3,0.1-0.7-0.1-0.8-0.4c-0.1-0.3,0.1-0.7,0.4-0.9s0.7,0.1,0.8,0.4v0.1
		l-0.1,0.4L480.9-55.6l0.1-0.3L480.9-55.6z"/>
	<path class="st1" d="M479.7,270.5c-0.4,0.1-0.7-0.1-0.8-0.4c-0.1-0.4,0.1-0.7,0.4-0.9c0.4-0.1,0.7,0.1,0.8,0.4
		C480.3,269.9,480.1,270.3,479.7,270.5c0,0,0.3-0.1,0.1-0.1l0,0C480,270.5,479.8,270.5,479.7,270.5L479.7,270.5L479.7,270.5
		C479.7,270.5,479.8,270.5,479.7,270.5 M480.9,269.9L480.9,269.9l-0.1,0.1h-0.1c-0.1,0-0.3,0.1-0.4,0c0,0-0.3,0-0.5,0.3
		c-0.3,0.3-0.7,0.6-1,1c-0.5,0.9-0.8,1.9-0.7,2.3c0,0.1,0.1,0.3,0.5,0.4h0.8c0.5-0.1,1.2-0.3,1.8-0.7c0.7-0.4,1.2-1.1,1.4-1.7
		l0.1-0.6v-0.4l-0.3-0.4l-0.4-0.4l-0.8-0.1h-1H480l0.1-0.1c0,0.1-0.1,0.1-0.1,0.3l0.1-0.1l0,0v-0.1v0.1c0.1,0.4-0.1,0.9-0.5,0.9
		c-0.3,0.1-0.7,0-0.8-0.4l-0.1-0.3l0.1,0.1c-0.1-0.3-0.3-0.6-0.4-1c0-0.1,0-0.1,0-0.3c0-0.3,0.3-0.6,0.4-0.9s0.5-0.6,1-0.7
		s1-0.3,1.4-0.3c0.7,0,1.4,0,2.2,0.4c0.5,0.3,1,0.6,1.2,1c0.4,0.6,0.7,1.1,0.8,1.7c0.1,0.7,0,1.3-0.1,1.6c-0.1,0.4-0.3,0.9-0.5,1.3
		c-0.5,1-1.5,2-2.6,2.6c-0.8,0.4-1.8,0.7-2.6,0.7c-0.5,0-1.1,0-1.5-0.1c-0.8-0.3-1.6-0.9-1.9-1.9c-0.4-1.3,0.1-2.7,1-3.9
		c0.4-0.6,0.8-1,1.4-1.4c0.5-0.3,1.1-0.6,1.8-0.6c0.1,0,0.3,0.1,0.4,0.3c0.1,0.1,0.3,0.4,0.4,0.7
		C481.3,269.5,481.3,269.7,480.9,269.9 M480.9,270.2c-0.3,0.3-0.5,0.1-0.8,0c-0.3-0.3-0.1-0.6,0-0.9c0.1,0,0.1-0.1,0.3-0.1l0,0
		l-0.1,0.3c0-0.3,0.3-0.4,0.5-0.4c0.1,0,0.3,0.1,0.4,0.3v0.3C481.2,269.7,481.1,270,480.9,270.2"/>
</g>
<line class="st2" x1="481.1" y1="57.8" x2="480.8" y2="172.8"/>
<circle cx="480.7" cy="53.5" r="4.1"/>
<circle cx="480.9" cy="172.2" r="4.1"/>
<text transform="matrix(1 0 0 1 450.9864 57.8179)" class="st3 st4">$b$</text>
<text transform="matrix(1 0 0 1 495.105 170.3804)" class="st3 st4">$a$</text>
<path class="st5" d="M203.5,54.7c4,4,23.3,24.4,23.7,56.6c0.3,33.4-20.1,54.6-23.9,58.4"/>
<circle cx="203.5" cy="55.2" r="4.1"/>
<circle cx="203.4" cy="169.2" r="4.1"/>
<text transform="matrix(1 0 0 1 235.2468 110.9092)" class="st3 st4">$n$</text>
<text transform="matrix(1 0 0 1 154.4525 110.9093)" class="st3 st4">$n$</text>
<text transform="matrix(1 0 0 1 217.5619 55.9641)" class="st3 st4">$\phi^{-1}(b)$</text>
<text transform="matrix(1 0 0 1 216.3474 174.9459)" class="st3 st4">$\phi^{-1}(a)$</text>
<text transform="matrix(1 0 0 1 191.5828 26.9432)" class="st3 st4">$\sk(E)$</text>
<g>
	<g>
		<line class="st6" x1="271.1" y1="110.9" x2="330.2" y2="110.9"/>
		<g>
			<path d="M336.2,110.9c-2.8,1.1-6.4,2.9-8.5,4.8l1.7-4.8l-1.7-4.8C329.9,108.1,333.4,109.9,336.2,110.9z"/>
		</g>
	</g>
</g>
<text transform="matrix(1 0 0 1 288.7338 102.6367)" class="st3 st4">$\phi$</text>
<text transform="matrix(1 0 0 1 456.5561 128.2426)" class="st3 st4">$n$</text>
<rect x="487.2" y="22.8" class="st7" width="59.8" height="18.4"/>
<g>
	<text transform="matrix(1 0 0 1 488.7234 35.141)" class="st8 st3 st4">$\sk(\sP)$</text>
</g>
</svg>
