<?xml version="1.0" encoding="utf-8"?>
<!-- Generator: Adobe Illustrator 23.0.3, SVG Export Plug-In . SVG Version: 6.00 Build 0)  -->
<svg version="1.1"
	 id="svg8" inkscape:version="0.92.4 (unknown)" sodipodi:docname="figure.svg" xmlns:cc="http://creativecommons.org/ns#" xmlns:dc="http://purl.org/dc/elements/1.1/" xmlns:inkscape="http://www.inkscape.org/namespaces/inkscape" xmlns:rdf="http://www.w3.org/1999/02/22-rdf-syntax-ns#" xmlns:sodipodi="http://sodipodi.sourceforge.net/DTD/sodipodi-0.dtd" xmlns:svg="http://www.w3.org/2000/svg"
	 xmlns="http://www.w3.org/2000/svg" xmlns:xlink="http://www.w3.org/1999/xlink" x="0px" y="0px" viewBox="0 0 680.3 361.2"
	 style="enable-background:new 0 0 680.3 361.2;" xml:space="preserve">
<style type="text/css">
	.st0{fill:none;stroke:#030304;stroke-width:0.75;stroke-miterlimit:10;}
	.st1{fill:#030304;}
	.st2{font-family:'ArialMT';}
	.st3{font-size:12px;}
	.st4{font-size:6.778px;}
	.st5{font-size:5.6247px;}
	.st6{fill:none;stroke:#737171;stroke-width:2;stroke-linecap:round;stroke-linejoin:round;stroke-miterlimit:10;}
	.st7{fill:#020203;}
	.st8{font-size:9.7379px;}
	.st9{fill:none;stroke:#030304;stroke-miterlimit:10;}
	.st10{fill:none;stroke:#000000;stroke-miterlimit:10;}
	.st11{font-size:12.7667px;}
	.st12{fill:none;stroke:#030304;stroke-width:0.75;stroke-miterlimit:10;stroke-dasharray:3.709,3.709;}
	.st13{fill:none;stroke:#030304;stroke-width:0.75;stroke-miterlimit:10;stroke-dasharray:3.8133,3.8133;}
	.st14{font-size:11.9403px;}
	.st15{fill:none;stroke:#030304;stroke-width:0.75;stroke-miterlimit:10;stroke-dasharray:3.5295,3.5295;}
	.st16{fill:none;stroke:#030304;stroke-width:0.75;stroke-miterlimit:10;stroke-dasharray:3.4332,3.4332;}
</style>
<sodipodi:namedview  bordercolor="#666666" borderopacity="1.0" id="base" inkscape:current-layer="layer1" inkscape:cx="284.27627" inkscape:cy="182.72055" inkscape:document-units="mm" inkscape:guide-bbox="true" inkscape:pageopacity="0.0" inkscape:pageshadow="2" inkscape:window-height="995" inkscape:window-maximized="1" inkscape:window-width="2520" inkscape:window-x="20" inkscape:window-y="65" inkscape:zoom="0.99437388" pagecolor="#ffffff" showborder="true" showgrid="false" showguides="true" width="200mm">
	<inkscape:grid  dotted="false" empspacing="4" id="grid815" spacingx="10" spacingy="10" type="xygrid" units="mm">
		</inkscape:grid>
</sodipodi:namedview>
<g id="layer1" transform="translate(0,-177)" inkscape:groupmode="layer" inkscape:label="Layer 1">
</g>
<path class="st0" d="M538.6,72.9c5.7,10.8,14,30.5,14.1,56c0.1,25.9-8.4,45.9-14.1,56.7"/>
<text transform="matrix(1 0 0 1 521.1749 25.2348)" class="st1 st2 st3">$\mathscr P$</text>
<text transform="matrix(1 0 0 1 529.6229 52.8151)" class="st1 st2 st4">$\mathscr P_\eta$</text>
<text transform="matrix(1 0 0 1 584.4222 52.5075)" class="st1 st2 st5">$\mathscr P_s$</text>
<rect x="521.2" y="34" class="st6" width="118.9" height="165.9"/>
<text transform="matrix(1 0 0 1 272.7 25.235)" class="st1 st2 st3">$\sY$</text>
<line class="st0" x1="91.8" y1="83.5" x2="114.9" y2="107.9"/>
<line class="st0" x1="89.2" y1="171.4" x2="118.2" y2="146.4"/>
<text transform="matrix(1 0 0 1 37.9042 52.8154)" class="st1 st2 st4">$\mathscr E$</text>
<text transform="matrix(1 0 0 1 95.7529 52.3511)" class="st1 st2 st5">$\mathscr E_{\text{min},s}$</text>
<rect x="24.3" y="33.8" class="st6" width="127.1" height="165.9"/>
<text transform="matrix(0.5206 0 0 1 104.3462 90.204)" class="st7 st2 st8">$\scriptstyle G’$</text>
<text transform="matrix(0.5206 0 0 1 103.3652 174.9062)" class="st7 st2 st8">$\scriptstyle F’$</text>
<text transform="matrix(0.5811 0 0 1 431.9775 119.3983)" class="st7 st2 st3">\tiny{normalisation}</text>
<line class="st0" x1="95.8" y1="117.2" x2="115.4" y2="100.9"/>
<line class="st0" x1="115.4" y1="153.7" x2="95.8" y2="137.4"/>
<line class="st0" x1="95.8" y1="147.7" x2="115.4" y2="131.3"/>
<line class="st0" x1="115.4" y1="122.4" x2="95.8" y2="106"/>
<g>
	<g>
		<line class="st9" x1="428.7" y1="130" x2="492" y2="130"/>
		<g>
			<path class="st1" d="M498,130c-2.8,1.1-6.4,2.9-8.5,4.8l1.7-4.8l-1.7-4.8C491.6,127.1,495.2,128.9,498,130z"/>
		</g>
	</g>
</g>
<text transform="matrix(0.5811 0 0 1 167.4473 124.6918)" class="st7 st2 st3">\tiny{desingularisation}</text>
<g>
	<g>
		<line class="st9" x1="175.5" y1="135.3" x2="238.7" y2="135.3"/>
		<g>
			<path class="st1" d="M244.8,135.3c-2.8,1.1-6.4,2.9-8.5,4.8l1.7-4.8l-1.7-4.8C238.4,132.4,241.9,134.2,244.8,135.3z"/>
		</g>
	</g>
</g>
<text transform="matrix(1 0 0 1 24.3164 25.2348)" class="st1 st2 st3">$\mathscr E_\text{min}$</text>
<path class="st10" d="M37.9,128.3c0-6.1,0.3-12.3,1.6-18.2c0.6-2.7,1.3-5.8,3-7.8c1.9-2.2,4.2-0.9,6,0.9c1.9,2,3.4,4.7,5.5,6.3
	c2.5,1.9,4.2-1.4,5.2-3.7c2.3-5.3,3.6-11.2,5-16.9c1.4-6,2.7-12.1,3.9-18.2c0.1-0.7,0.3-1.5,0.4-2.2 M37.9,128.3
	c0,6.1,0.3,12.4,1.7,18.4c0.6,2.7,1.4,6.2,3.5,7.9c2,1.7,4.3-0.1,5.8-1.8c1.8-1.9,3.2-4.7,5.4-6.1c2.5-1.6,4.1,1.8,5,4
	c2.4,5.6,3.7,11.8,5.1,17.8c1.4,6,2.6,12,3.8,18.1c0.2,0.8,0.3,1.6,0.5,2.4"/>
<text transform="matrix(1 0 0 1 286.3336 55.3012)" class="st1 st2 st4">$E$</text>
<text transform="matrix(1 0 0 1 336.2496 55.301)" class="st1 st2 st5">$\sY_s$</text>
<rect x="272.7" y="36.4" class="st6" width="127.1" height="165.9"/>
<path class="st10" d="M286.3,131c0-6.1,0.3-12.3,1.6-18.2c0.6-2.7,1.3-5.8,3-7.8c1.9-2.2,4.2-0.9,6,0.9c1.9,2,3.4,4.7,5.5,6.3
	c2.5,1.9,4.2-1.4,5.2-3.7c2.3-5.3,3.6-11.2,5-16.9c1.4-6,2.7-12.1,3.9-18.2c0.1-0.7,0.3-1.5,0.4-2.2 M286.3,131
	c0,6.1,0.3,12.4,1.7,18.4c0.6,2.7,1.4,6.2,3.5,7.9c2,1.7,4.3-0.1,5.8-1.8c1.8-1.9,3.2-4.7,5.4-6.1c2.5-1.6,4.1,1.8,5,4
	c2.4,5.6,3.7,11.8,5.1,17.8s2.6,12,3.8,18.1c0.2,0.8,0.3,1.6,0.5,2.4"/>
<line class="st0" x1="348.9" y1="88" x2="386.9" y2="140.5"/>
<text transform="matrix(0.9399 0 0 1 361.7988 97.5321)" class="st7 st2 st11">$\tilde G$</text>
<text transform="matrix(0.9399 0 0 1 361.7988 172.4032)" class="st7 st2 st11">$\tilde F$</text>
<line class="st10" x1="597.8" y1="238.5" x2="597.8" y2="340"/>
<circle cx="597.8" cy="238.5" r="2.9"/>
<circle cx="597.8" cy="340" r="2.9"/>
<text transform="matrix(1 0 0 1 604.0776 238.5265)" class="st2 st3">$\scriptstyle{x}$</text>
<text transform="matrix(1 0 0 1 605.7026 341.4125)" class="st2 st3">$\scriptstyle{y}$</text>
<line class="st10" x1="116.6" y1="238.5" x2="116.6" y2="340"/>
<circle cx="116.6" cy="238.5" r="2.9"/>
<circle cx="116.6" cy="340" r="2.9"/>
<text transform="matrix(1 0 0 1 122.8901 238.5265)" class="st2 st3">$\scriptstyle{\phi^{-1}(x)}$</text>
<text transform="matrix(1 0 0 1 122.8902 342.8745)" class="st2 st3">$\scriptstyle{\phi^{-1}(y)}$</text>
<circle cx="116.6" cy="256.6" r="2.9"/>
<circle cx="116.6" cy="271.4" r="2.9"/>
<text transform="matrix(1 0 0 1 122.89 261.0017)" class="st2 st3">$\scriptstyle{H_1}$</text>
<text transform="matrix(1 0 0 1 121.5909 274.2768)" class="st2 st3">$\scriptstyle{H_2}$</text>
<circle cx="116.6" cy="320.1" r="2.9"/>
<text transform="matrix(1 0 0 1 121.5909 322.9168)" class="st2 st3">$\scriptstyle{H_r}$</text>
<text transform="matrix(1 0 0 1 122.8901 301.6423)" class="st2 st3">$\vdots$</text>
<text transform="matrix(0.1401 0 0 1 98.6494 238.5267)" class="st2 st3">$\scriptstyle 2$</text>
<text transform="matrix(0.1401 0 0 1 98.6494 261.0013)" class="st2 st3">$\scriptstyle 2$</text>
<text transform="matrix(0.1401 0 0 1 98.6494 274.2777)" class="st2 st3">$\scriptstyle 2$</text>
<text transform="matrix(0.1401 0 0 1 98.6494 322.9169)" class="st2 st3">$\scriptstyle 2$</text>
<text transform="matrix(0.1401 0 0 1 98.6494 342.8749)" class="st2 st3">$\scriptstyle 2$</text>
<circle cx="597.8" cy="253.7" r="2.9"/>
<circle cx="597.8" cy="268.6" r="2.9"/>
<text transform="matrix(1 0 0 1 604.0775 258.1408)" class="st2 st3">$\scriptstyle{\phi(H_1)}$</text>
<text transform="matrix(1 0 0 1 602.7784 271.4161)" class="st2 st3">$\scriptstyle{\phi(H_2)}$</text>
<circle cx="597.8" cy="317.2" r="2.9"/>
<text transform="matrix(1 0 0 1 602.7784 320.0559)" class="st2 st3">$\scriptstyle{\phi(H_r)}$</text>
<text transform="matrix(1 0 0 1 604.0776 298.7813)" class="st2 st3">$\vdots$</text>
<text transform="matrix(0.4448 0 0 1 116.5957 107.3876)" class="st2 st8">$\scriptstyle{H_1}$</text>
<text transform="matrix(0.4448 0 0 1 116.5957 119.6064)" class="st2 st8">$\scriptstyle{H_2}$</text>
<text transform="matrix(0.4448 0 0 1 114.9648 138.2597)" class="st2 st8">$\scriptstyle{H_{r-1}}$</text>
<text transform="matrix(0.4448 0 0 1 116.5957 154.581)" class="st2 st8">$\scriptstyle{H_r}$</text>
<g>
	<g>
		<line class="st9" x1="223.7" y1="280.3" x2="496" y2="280.3"/>
		<g>
			<path class="st1" d="M502.1,280.3c-2.8,1.1-6.4,2.9-8.5,4.8l1.7-4.8l-1.7-4.8C495.7,277.4,499.2,279.2,502.1,280.3z"/>
		</g>
	</g>
</g>
<text transform="matrix(0.2812 0 0 1 29.4473 235.3895)" class="st2 st3">$\sk(\mathscr E’)$</text>
<text transform="matrix(0.3184 0 0 1 527.1748 235.3895)" class="st2 st3">$\sk(\mathscr{P’})$</text>
<text transform="matrix(1 0 0 1 333.2812 265.3)" class="st2 st3">$\phi|_{\sk(\mathscr E’)}$</text>
<g>
	<g>
		<line class="st0" x1="109.9" y1="112.3" x2="109.9" y2="114.3"/>
		<line class="st12" x1="109.9" y1="118" x2="109.9" y2="138.4"/>
		<line class="st0" x1="109.9" y1="140.3" x2="109.9" y2="142.3"/>
	</g>
</g>
<g>
	<g>
		<line class="st0" x1="97.8" y1="68.5" x2="97.8" y2="70.5"/>
		<line class="st12" x1="97.8" y1="74.2" x2="97.8" y2="94.6"/>
		<line class="st0" x1="97.8" y1="96.5" x2="97.8" y2="98.5"/>
	</g>
</g>
<g>
	<g>
		<line class="st0" x1="97.8" y1="159" x2="97.8" y2="161"/>
		<line class="st12" x1="97.8" y1="164.7" x2="97.8" y2="185.1"/>
		<line class="st0" x1="97.8" y1="187" x2="97.8" y2="189"/>
	</g>
</g>
<g>
	<g>
		<line class="st0" x1="353.3" y1="71.2" x2="353.3" y2="73.2"/>
		<line class="st13" x1="353.3" y1="77" x2="353.3" y2="98"/>
		<line class="st0" x1="353.3" y1="99.9" x2="353.3" y2="101.9"/>
	</g>
</g>
<line class="st0" x1="348.9" y1="174.9" x2="386.9" y2="122.4"/>
<g>
	<g>
		<line class="st0" x1="353.3" y1="191.7" x2="353.3" y2="189.7"/>
		<line class="st13" x1="353.3" y1="185.9" x2="353.3" y2="164.9"/>
		<line class="st0" x1="353.3" y1="163" x2="353.3" y2="161"/>
	</g>
</g>
<line class="st0" x1="583.8" y1="88.6" x2="621.8" y2="137.7"/>
<text transform="matrix(1.005 0 0 1 596.6768 97.5282)" class="st7 st2 st14">$G$</text>
<text transform="matrix(1.005 0 0 1 596.6768 167.5526)" class="st7 st2 st14">$F$</text>
<g>
	<g>
		<line class="st0" x1="588.2" y1="72.9" x2="588.2" y2="74.9"/>
		<line class="st15" x1="588.2" y1="78.4" x2="588.2" y2="97.8"/>
		<line class="st0" x1="588.2" y1="99.6" x2="588.2" y2="101.6"/>
	</g>
</g>
<line class="st0" x1="583.8" y1="169.9" x2="621.8" y2="120.8"/>
<g>
	<g>
		<line class="st0" x1="588.2" y1="185.6" x2="588.2" y2="183.6"/>
		<line class="st15" x1="588.2" y1="180.1" x2="588.2" y2="160.7"/>
		<line class="st0" x1="588.2" y1="158.9" x2="588.2" y2="156.9"/>
	</g>
</g>
<g>
	<g>
		<line class="st0" x1="116.6" y1="217.4" x2="116.6" y2="219.4"/>
		<line class="st16" x1="116.6" y1="222.8" x2="116.6" y2="234.8"/>
		<line class="st0" x1="116.6" y1="236.5" x2="116.6" y2="238.5"/>
	</g>
</g>
<g>
	<g>
		<line class="st0" x1="116.6" y1="340" x2="116.6" y2="342"/>
		<line class="st16" x1="116.6" y1="345.4" x2="116.6" y2="357.4"/>
		<line class="st0" x1="116.6" y1="359.2" x2="116.6" y2="361.2"/>
	</g>
</g>
<g>
	<g>
		<line class="st0" x1="597.8" y1="217.4" x2="597.8" y2="219.4"/>
		<line class="st16" x1="597.8" y1="222.8" x2="597.8" y2="234.8"/>
		<line class="st0" x1="597.8" y1="236.6" x2="597.8" y2="238.6"/>
	</g>
</g>
<g>
	<g>
		<line class="st0" x1="597.8" y1="340" x2="597.8" y2="342"/>
		<line class="st16" x1="597.8" y1="345.5" x2="597.8" y2="357.5"/>
		<line class="st0" x1="597.8" y1="359.2" x2="597.8" y2="361.2"/>
	</g>
</g>
</svg>
