<?xml version="1.0" encoding="utf-8"?>
<!-- Generator: Adobe Illustrator 23.0.3, SVG Export Plug-In . SVG Version: 6.00 Build 0)  -->
<svg version="1.1"
	 id="svg8" inkscape:version="0.92.4 (unknown)" sodipodi:docname="figure.svg" xmlns:cc="http://creativecommons.org/ns#" xmlns:dc="http://purl.org/dc/elements/1.1/" xmlns:inkscape="http://www.inkscape.org/namespaces/inkscape" xmlns:rdf="http://www.w3.org/1999/02/22-rdf-syntax-ns#" xmlns:sodipodi="http://sodipodi.sourceforge.net/DTD/sodipodi-0.dtd" xmlns:svg="http://www.w3.org/2000/svg"
	 xmlns="http://www.w3.org/2000/svg" xmlns:xlink="http://www.w3.org/1999/xlink" x="0px" y="0px" viewBox="0 0 680.3 354.8"
	 style="enable-background:new 0 0 680.3 354.8;" xml:space="preserve">
<style type="text/css">
	.st0{fill:#030405;}
	.st1{font-family:'ArialMT';}
	.st2{font-size:12px;}
	.st3{font-size:6.778px;}
	.st4{fill:none;stroke:#747272;stroke-width:2;stroke-linecap:round;stroke-linejoin:round;stroke-miterlimit:10;}
	.st5{fill:none;stroke:#020203;stroke-miterlimit:10;}
	.st6{font-size:5.6806px;}
	.st7{fill:none;stroke:#020203;stroke-linecap:round;stroke-miterlimit:10;}
	.st8{fill:none;stroke:#020203;stroke-miterlimit:10;stroke-dasharray:4.2084,4.2084;}
	.st9{fill:none;stroke:#030304;stroke-miterlimit:10;}
	.st10{fill:#030304;}
	.st11{font-size:5.6247px;}
	.st12{fill:none;stroke:#737171;stroke-width:2;stroke-linecap:round;stroke-linejoin:round;stroke-miterlimit:10;}
	.st13{fill:#020203;}
	.st14{fill:none;stroke:#020203;stroke-miterlimit:10;stroke-dasharray:3.8953,3.8953;}
	.st15{fill:none;stroke:#000000;stroke-linecap:round;stroke-linejoin:round;}
	.st16{fill:none;stroke:#000000;stroke-width:0.5;stroke-miterlimit:10;}
</style>
<sodipodi:namedview  bordercolor="#666666" borderopacity="1.0" id="base" inkscape:current-layer="layer1" inkscape:cx="284.27627" inkscape:cy="182.72055" inkscape:document-units="mm" inkscape:guide-bbox="true" inkscape:pageopacity="0.0" inkscape:pageshadow="2" inkscape:window-height="995" inkscape:window-maximized="1" inkscape:window-width="2520" inkscape:window-x="20" inkscape:window-y="65" inkscape:zoom="0.99437388" pagecolor="#ffffff" showborder="true" showgrid="false" showguides="true" width="200mm">
	<inkscape:grid  dotted="false" empspacing="4" id="grid815" spacingx="10" spacingy="10" type="xygrid" units="mm">
		</inkscape:grid>
</sodipodi:namedview>
<g id="layer1" transform="translate(0,-177)" inkscape:groupmode="layer" inkscape:label="Layer 1">
</g>
<text transform="matrix(1 0 0 1 129.8941 19.9329)" class="st0 st1 st2">$\mathscr E_{\text{min}}$</text>
<text transform="matrix(1 0 0 1 134.0313 50.1552)" class="st0 st1 st3">$E$</text>
<rect x="120.4" y="31.3" class="st4" width="176.4" height="174.2"/>
<path class="st5" d="M134,125.9c0-6.1,0.3-12.3,1.6-18.2c0.6-2.7,1.3-5.8,3-7.8c1.9-2.2,4.2-0.9,6,0.9c1.9,2,3.4,4.7,5.5,6.3
	c2.5,1.9,4.2-1.4,5.2-3.7c2.3-5.3,3.6-11.2,5-16.9c1.4-6,2.7-12.1,3.9-18.2c0.1-0.7,0.3-1.5,0.4-2.2 M134,125.9
	c0,6.1,0.3,12.4,1.7,18.4c0.6,2.7,1.4,6.2,3.5,7.9c2,1.7,4.3-0.1,5.8-1.8c1.8-1.9,3.2-4.7,5.4-6.1c2.5-1.6,4.1,1.8,5,4
	c2.4,5.6,3.7,11.8,5.1,17.8s2.6,12,3.8,18.1c0.2,0.8,0.3,1.6,0.5,2.4"/>
<text transform="matrix(1 0 0 1 185.0979 50.1552)" class="st0 st1 st6">$\mathscr E_{\text{min}, s}$</text>
<path class="st7" d="M225.5,165.6c1-0.7,6.6-4.5,13.7-2.9c5.7,1.3,11.9,6.2,11.4,10.3c-0.7,5.6-13.8,8.5-22.6,8.7
	c-12.8,0.3-26.7-3.8-25.5-8.3c1-3.7,12.6-7.1,22.8-6.3c5.5,0.4,13,2.3,12.8,5c-0.2,2.2-5.9,4.6-11.1,4.5c-3.6-0.1-9-1.4-9.2-4
	c-0.2-2,2.6-3.8,3.6-4.4"/>
<line class="st5" x1="209.5" y1="172.9" x2="182.8" y2="137.9"/>
<line class="st5" x1="243.4" y1="172" x2="267.3" y2="139.4"/>
<g>
	<g>
		<line class="st5" x1="186.7" y1="150.1" x2="186.7" y2="148.1"/>
		<line class="st8" x1="186.7" y1="143.9" x2="186.7" y2="103.9"/>
		<line class="st5" x1="186.7" y1="101.8" x2="186.7" y2="99.8"/>
	</g>
</g>
<g>
	<g>
		<line class="st5" x1="262.6" y1="152.2" x2="262.6" y2="150.2"/>
		<line class="st8" x1="262.6" y1="146" x2="262.6" y2="106"/>
		<line class="st5" x1="262.6" y1="103.9" x2="262.6" y2="101.9"/>
	</g>
</g>
<path class="st7" d="M226.1,87.9c-1,0.7-6.6,4.5-13.7,2.9c-5.7-1.3-11.9-6.2-11.4-10.3c0.7-5.6,13.8-8.5,22.6-8.7
	c12.8-0.3,26.7,3.8,25.5,8.3c-1,3.7-12.6,7.1-22.8,6.3c-5.5-0.4-13-2.3-12.8-5c0.2-2.2,5.9-4.6,11.1-4.5c3.6,0.1,9,1.4,9.2,4
	c0.2,2-2.6,3.8-3.6,4.4"/>
<line class="st5" x1="242.1" y1="80.6" x2="268.8" y2="115.5"/>
<line class="st5" x1="208.1" y1="81.4" x2="184.3" y2="114"/>
<path class="st9" d="M461.5,62.4c5.7,11.2,14,31.7,14.1,58.3c0.1,27-8.4,47.7-14.1,59"/>
<text transform="matrix(1 0 0 1 434.4376 16.5706)" class="st10 st1 st2">$\mathscr P$</text>
<line class="st9" x1="504" y1="60.2" x2="527.1" y2="90.5"/>
<text transform="matrix(1 0 0 1 441.6529 48.6611)" class="st10 st1 st3">$\mathscr P_\eta$</text>
<text transform="matrix(1 0 0 1 507.9585 48.3536)" class="st10 st1 st11">$\mathscr P_s$</text>
<rect x="434.4" y="29.6" class="st12" width="131.5" height="175.9"/>
<text transform="matrix(1 0 0 1 186.6646 193.0753)" class="st13 st1 st2">$\scriptstyle{\phi^{-1}(a)}$</text>
<line class="st9" x1="508" y1="102.1" x2="527.6" y2="81.9"/>
<text transform="matrix(1 0 0 1 242.1288 68.6851)" class="st13 st1 st2">$\scriptstyle{\phi^{-1}(b)}$</text>
<line class="st9" x1="504" y1="181.9" x2="527.1" y2="151.5"/>
<line class="st9" x1="508" y1="139.9" x2="527.6" y2="160.2"/>
<g>
	<g>
		<line class="st5" x1="509.9" y1="148.9" x2="509.9" y2="146.9"/>
		<line class="st14" x1="509.9" y1="143" x2="509.9" y2="98.3"/>
		<line class="st5" x1="509.9" y1="96.3" x2="509.9" y2="94.3"/>
	</g>
</g>
<text transform="matrix(1 0 0 1 517.7589 179.1784)" class="st1 st2">$a$</text>
<text transform="matrix(1 0 0 1 519.5024 70.1806)" class="st1 st2">$b$</text>
<g>
	<g>
		<line class="st15" x1="310.4" y1="116.4" x2="415.3" y2="116.4"/>
		<g>
			<path d="M421.3,116.4c-2.8,1.1-6.4,2.9-8.5,4.8l1.7-4.8l-1.7-4.8C415,113.6,418.5,115.4,421.3,116.4z"/>
		</g>
	</g>
</g>
<text transform="matrix(1 0 0 1 353.0061 108.2752)" class="st1 st2">$\psi$</text>
<text transform="matrix(1 0 0 1 321.5857 177.6772)" class="st1 st2">{\scriptsize double cover of $\pro_k^1$}</text>
<circle class="st13" cx="461.4" cy="235" r="2.3"/>
<line class="st5" x1="461.4" y1="269.4" x2="461.4" y2="235"/>
<circle class="st13" cx="461.4" cy="331.8" r="2.3"/>
<text transform="matrix(1 0 0 1 466.5907 237.2366)" class="st1 st2">$b$</text>
<text transform="matrix(1 0 0 1 466.5913 334.7027)" class="st1 st2">$a$</text>
<circle class="st13" cx="461.4" cy="255.2" r="2.3"/>
<text transform="matrix(0.325 0 0 1 460.459 287.955)" class="st1 st2">$\vdots$</text>
<line class="st5" x1="461.4" y1="297.4" x2="461.4" y2="331.8"/>
<circle class="st13" cx="461.4" cy="311.5" r="2.3"/>
<circle class="st13" cx="259.5" cy="236.1" r="2.3"/>
<line class="st5" x1="279.2" y1="270.5" x2="279.2" y2="256.4"/>
<circle class="st13" cx="279.2" cy="256.4" r="2.3"/>
<line class="st5" x1="278.8" y1="255.4" x2="259.5" y2="236.1"/>
<line class="st5" x1="239.9" y1="270.5" x2="239.9" y2="256.4"/>
<circle class="st13" cx="239.9" cy="256.4" r="2.3"/>
<line class="st5" x1="240.3" y1="255.4" x2="259.5" y2="236.1"/>
<text transform="matrix(1 0 0 1 269.1629 232.7361)" class="st1 st2">$\phi^{-1}(b)$</text>
<circle class="st13" cx="259.5" cy="329.8" r="2.3"/>
<line class="st5" x1="279.2" y1="295.5" x2="279.2" y2="309.6"/>
<circle class="st13" cx="279.2" cy="309.6" r="2.3"/>
<line class="st5" x1="278.8" y1="310.6" x2="259.5" y2="329.8"/>
<line class="st5" x1="239.9" y1="295.5" x2="239.9" y2="309.6"/>
<circle class="st13" cx="239.9" cy="309.6" r="2.3"/>
<line class="st5" x1="240.3" y1="310.6" x2="259.5" y2="329.8"/>
<text transform="matrix(0.325 0 0 1 238.8657 287.955)" class="st1 st2">$\vdots$</text>
<text transform="matrix(0.325 0 0 1 278.2129 287.9545)" class="st1 st2">$\vdots$</text>
<text transform="matrix(1 0 0 1 271.5309 334.0068)" class="st1 st2">$\phi^{-1}(a)$</text>
<text transform="matrix(1 0 0 1 161.6461 247.7248)" class="st1 st2">$\Delta(\mathscr E_{\text{min}})$</text>
<text transform="matrix(1 0 0 1 488.0132 247.7253)" class="st1 st2">$\Delta(\mathscr P)$</text>
<g>
	<g>
		<line class="st15" x1="314.7" y1="279.2" x2="419.6" y2="279.2"/>
		<g>
			<path d="M425.6,279.2c-2.8,1.1-6.4,2.9-8.5,4.8l1.7-4.8l-1.7-4.8C419.3,276.3,422.8,278.1,425.6,279.2z"/>
		</g>
	</g>
</g>
<text transform="matrix(1 0 0 1 357.3064 270.9852)" class="st1 st2">$\Delta(\psi)$</text>
<g>
	<g>
		<path class="st16" d="M252.6,178.7c28.1,9.6,71.9,20.9,126.4,20.3c50.2-0.6,91-11,118.5-20.5"/>
		<g>
			<path d="M501.1,177.3c-1.5,1.2-3.2,3-4.1,4.6l0.1-3.2l-2-2.5C496.7,176.9,499.2,177.2,501.1,177.3z"/>
		</g>
	</g>
</g>
</svg>
