<?xml version="1.0" encoding="utf-8"?>
<!-- Generator: Adobe Illustrator 23.0.3, SVG Export Plug-In . SVG Version: 6.00 Build 0)  -->
<svg version="1.1"
	 id="svg8" inkscape:version="0.92.4 (unknown)" sodipodi:docname="figure.svg" xmlns:cc="http://creativecommons.org/ns#" xmlns:dc="http://purl.org/dc/elements/1.1/" xmlns:inkscape="http://www.inkscape.org/namespaces/inkscape" xmlns:rdf="http://www.w3.org/1999/02/22-rdf-syntax-ns#" xmlns:sodipodi="http://sodipodi.sourceforge.net/DTD/sodipodi-0.dtd" xmlns:svg="http://www.w3.org/2000/svg"
	 xmlns="http://www.w3.org/2000/svg" xmlns:xlink="http://www.w3.org/1999/xlink" x="0px" y="0px" viewBox="0 0 276.4 254.1"
	 style="enable-background:new 0 0 276.4 254.1;" xml:space="preserve">
<style type="text/css">
	.st0{fill:none;stroke:#020203;stroke-width:2.5;stroke-linecap:round;stroke-linejoin:round;stroke-miterlimit:10;}
</style>
<sodipodi:namedview  bordercolor="#666666" borderopacity="1.0" id="base" inkscape:current-layer="layer1" inkscape:cx="284.27627" inkscape:cy="182.72055" inkscape:document-units="mm" inkscape:guide-bbox="true" inkscape:pageopacity="0.0" inkscape:pageshadow="2" inkscape:window-height="995" inkscape:window-maximized="1" inkscape:window-width="2520" inkscape:window-x="20" inkscape:window-y="65" inkscape:zoom="0.99437388" pagecolor="#ffffff" showborder="true" showgrid="false" showguides="true" width="200mm">
	<inkscape:grid  dotted="false" empspacing="4" id="grid815" spacingx="10" spacingy="10" type="xygrid" units="mm">
		</inkscape:grid>
</sodipodi:namedview>
<g id="layer1" transform="translate(0,-177)" inkscape:groupmode="layer" inkscape:label="Layer 1">
</g>
<g>
	<g>
		<title>Implicit Curve eq1</title>
		<desc>eq1: -x³ + x + y² = 1</desc>
	</g>
</g>
<path class="st0" d="M50.4,126.9c0-8.4,0.9-16.8,3.2-24.9c2.1-7.7,5.4-15.3,10.7-21.4c5.3-6,12.4-9.8,20.5-10.1
	c7.6-0.3,15.1,2.1,22,5.2c7.5,3.3,14.6,7.6,22.1,10.7c3.6,1.5,7.3,2.6,11.2,2.8c3.9,0.2,7.7-0.8,11.1-2.6
	c6.9-3.6,12.3-9.7,17.1-15.7c4.9-6.2,9.3-12.9,13.5-19.7c4.3-7,8.3-14,12.1-21.2c3.8-7.1,7.5-14.2,11-21.4c0.9-1.7,1.7-3.5,2.6-5.2
	 M50.4,126.9c0.1,8.4,1,16.9,3.4,25c2.2,7.7,5.6,15.4,11.1,21.3c5.5,6,12.8,9.4,21,9.5c7.7,0.1,15.2-2.6,22.1-5.7
	c7.3-3.3,14.2-7.5,21.7-10.4c3.6-1.4,7.4-2.5,11.2-2.6c4,0,7.7,1.1,11.2,3c7.1,4,12.7,10.6,17.6,17c4.9,6.4,9.2,13.1,13.4,20
	c4.2,6.9,8.2,14,12,21.2c3.8,7.2,7.5,14.5,11.1,21.8c0.9,1.8,1.7,3.5,2.6,5.3"/>
</svg>
