<?xml version="1.0" encoding="utf-8"?>
<!-- Generator: Adobe Illustrator 23.0.3, SVG Export Plug-In . SVG Version: 6.00 Build 0)  -->
<svg version="1.1"
	 id="svg8" inkscape:version="0.92.4 (unknown)" sodipodi:docname="figure.svg" xmlns:cc="http://creativecommons.org/ns#" xmlns:dc="http://purl.org/dc/elements/1.1/" xmlns:inkscape="http://www.inkscape.org/namespaces/inkscape" xmlns:rdf="http://www.w3.org/1999/02/22-rdf-syntax-ns#" xmlns:sodipodi="http://sodipodi.sourceforge.net/DTD/sodipodi-0.dtd" xmlns:svg="http://www.w3.org/2000/svg"
	 xmlns="http://www.w3.org/2000/svg" xmlns:xlink="http://www.w3.org/1999/xlink" x="0px" y="0px" viewBox="0 0 276.4 254.1"
	 style="enable-background:new 0 0 276.4 254.1;" xml:space="preserve">
<style type="text/css">
	.st0{fill:none;stroke:#020203;stroke-width:2.5;stroke-linecap:round;stroke-linejoin:round;stroke-miterlimit:10;}
</style>
<sodipodi:namedview  bordercolor="#666666" borderopacity="1.0" id="base" inkscape:current-layer="layer1" inkscape:cx="284.27627" inkscape:cy="182.72055" inkscape:document-units="mm" inkscape:guide-bbox="true" inkscape:pageopacity="0.0" inkscape:pageshadow="2" inkscape:window-height="995" inkscape:window-maximized="1" inkscape:window-width="2520" inkscape:window-x="20" inkscape:window-y="65" inkscape:zoom="0.99437388" pagecolor="#ffffff" showborder="true" showgrid="false" showguides="true" width="200mm">
	<inkscape:grid  dotted="false" empspacing="4" id="grid815" spacingx="10" spacingy="10" type="xygrid" units="mm">
		</inkscape:grid>
</sodipodi:namedview>
<g id="layer1" transform="translate(0,-177)" inkscape:groupmode="layer" inkscape:label="Layer 1">
</g>
<g>
	<g>
		<title>Implicit Curve eq1</title>
		<desc>eq1: -x³ + x + y² = 1</desc>
	</g>
</g>
<path class="st0" d="M55.1,125.6l0-0.8l0-0.8l0-0.8l0-0.8l0-0.8l0-0.8l0-0.8l0-0.8l0-0.8l0.1-0.8l0.1-0.8l0.1-0.8l0.1-0.8l0.1-0.8
	l0.1-0.8l0-0.3l0.1-0.5l0.1-0.8l0.1-0.8l0.1-0.8l0.1-0.8l0.1-0.8l0.1-0.3l0.1-0.5l0.1-0.8l0.1-0.8l0.2-0.8l0.2-0.7l0.2-0.8l0.2-0.8
	l0.2-0.8l0.1-0.6l0.1-0.2l0.2-0.8l0.2-0.8l0.2-0.8l0.2-0.8l0.2-0.8l0.2-0.7l0.3-0.9l0.3-0.8l0.1-0.3l0.2-0.4l0.3-0.8l0.2-0.6
	l0.1-0.2l0.3-0.8l0.3-0.7l0.3-0.8l0.3-0.7l0.4-0.8l0.3-0.6l0.1-0.2l0.4-0.8l0.2-0.4l0.2-0.4l0.4-0.8l0.4-0.8l0.3-0.5l0.2-0.3
	l0.5-0.8l0.5-0.8l0.2-0.3l0.3-0.5l0.3-0.5l0.2-0.3l0.5-0.6l0.7-0.9l0.7-0.8l0.7-0.8l0.7-0.7l0.7-0.7l0.2-0.2l0.5-0.5l0.3-0.3
	l0.4-0.3l0.5-0.4l0.8-0.7l0.7-0.5l0.5-0.3l0.2-0.1l0.7-0.5l0.3-0.2l0.4-0.2l0.7-0.4l0.2-0.1l0.5-0.3l0.7-0.3l0.3-0.2l0.3-0.2
	l0.7-0.3l0.7-0.3l0.7-0.3l0.7-0.2l0.7-0.2l0.3-0.1l0.4-0.1l0.7-0.2l0.7-0.2l0.7-0.1l0.7-0.1l0.2,0l0.5-0.1l0.7-0.1l0.7-0.1l0.7-0.1
	l0.7,0l0.7,0l0.7,0h0.7l0.7,0l0.7,0l0.7,0l0.7,0.1l0.7,0.1l0.7,0.1l0.7,0.1l0.3,0l0.4,0.1l0.7,0.1l0.7,0.1l0.7,0.1l0.7,0.1l0.7,0.2
	l0.7,0.2l0.7,0.2l0.7,0.2l0.7,0.2l0.3,0.1l0.4,0.1l0.7,0.2l0.7,0.2l0.7,0.2l0.7,0.2l0.7,0.2l0.8,0.3l0.6,0.2l0.7,0.3l0.7,0.3
	l0.7,0.3l0.7,0.3l0.5,0.2l0.8,0.4l0.7,0.3l0.2,0.1l0.4,0.2l0.7,0.3l0.5,0.3l0.8,0.4l0.7,0.3l0.7,0.3l0.7,0.3l0.4,0.2l0.3,0.2
	l1.2,0.6l0.8,0.4l0.7,0.3l0.7,0.3l0.7,0.3l0.2,0.1l0.4,0.2l0.7,0.3l0.4,0.2l0.3,0.1l0.7,0.3l0.6,0.3l0.8,0.4l0.7,0.3l0.7,0.3
	l0.7,0.3l0.7,0.3l0.7,0.3l0.6,0.3l0.7,0.3l0.7,0.3l0.3,0.1l0.4,0.2l0.7,0.3l0.7,0.3l0.7,0.3l1.3,0.5l0.7,0.2l0.7,0.2l0.7,0.2
	l0.5,0.1l0.2,0.1l0.7,0.2l0.7,0.2L139,88l0.7,0.1l0.3,0.1l0.4,0.1l0.7,0.1l0.7,0.1l0.7,0.1l0.7,0l0.7,0l0.7,0l0.7,0l0.7,0l0.7-0.1
	l0.7-0.1l0.7-0.1l0.7-0.1L149,88l0.7-0.2l0.7-0.2l0.7-0.2l0.7-0.2l0.7-0.3l0.7-0.3l0.7-0.3l0.7-0.3l0.2-0.1l0.4-0.2l0.7-0.4l0.3-0.2
	l0.4-0.3l0.7-0.4l0.7-0.5l0.6-0.4l0.8-0.6l0.2-0.2l0.4-0.3l0.5-0.4l0.8-0.7l0.7-0.6l0.3-0.3l0.4-0.3l0.5-0.4l0.2-0.2l0.6-0.6
	l0.7-0.7l0.7-0.7l0.7-0.7l0.2-0.2l0.5-0.5l0.2-0.2l0.5-0.5l0.2-0.3l0.4-0.5l0.2-0.3l0.4-0.5l0.2-0.3l0.4-0.5l0.2-0.2l0.5-0.6
	l0.2-0.2l0.5-0.6l0.7-0.8l0.7-0.8l0.6-0.8l0.6-0.8l0.2-0.2l0.4-0.6l0.2-0.3l0.3-0.4l0.3-0.5l0.2-0.3l0.4-0.6l0.7-0.9l0.5-0.8
	l0.1-0.2l0.4-0.6l0.3-0.4l0.3-0.4l0.4-0.6l0.1-0.2l0.5-0.8l0.5-0.8l0.2-0.3l0.3-0.5l0.3-0.5l0.2-0.3l0.5-0.8l0.5-0.8l0.2-0.3
	l0.3-0.5l0.3-0.5l0.1-0.2l0.5-0.8l0.5-0.8l0.2-0.3l0.3-0.4l0.4-0.6l0.5-0.9l0.1-0.2l0.3-0.6l0.3-0.5L185,50l0.5-0.8l0.5-0.8l0.3-0.4
	l0.2-0.3l0.5-0.8l0.5-0.8l0.2-0.4l0.2-0.4l0.4-0.7l0.5-0.8l0.2-0.4l0.2-0.4l0.4-0.7l0.5-0.8l0.2-0.4l0.2-0.4l0.4-0.8l0.4-0.8
	l0.2-0.4l0.2-0.3l0.4-0.8l0.4-0.8l0.3-0.5l0.1-0.3l0.4-0.8l0.1-0.2l0.3-0.6l0.3-0.6l0.5-0.9l0.2-0.3l0.2-0.4l0.4-0.8l0.4-0.8
	l0.3-0.5l0.2-0.3l0.4-0.8l0.1-0.2l0.3-0.6l0.4-0.7L198,27l0.2-0.4l0.2-0.4l0.4-0.8l0.4-0.8l0.3-0.6l0.5-0.9l0.2-0.4l0.2-0.4l0.4-0.8
	l0.4-0.8l0.3-0.7l0.4-0.9l0.2-0.4l0.2-0.3l0.4-0.8l0.1-0.2l0.3-0.6l0.4-0.8l0.4-0.8l0.3-0.5l0.1-0.2l0.4-0.8l0.2-0.3l0.2-0.4
	l0.4-0.8l0.4-0.8l0.4-0.7l0.4-0.8l0.3-0.5l0.1-0.2l0.4-0.8l0.2-0.3l0.2-0.4l0.4-0.8l0.1-0.2l0.3-0.6l0.4-0.8l0.4-0.8l0.3-0.6
	 M55.1,125.6l0,0.8l0,0.8l0,0.8l0,0.8l0,0.8l0,0.8l0,0.8l0,0.8l0.1,0.8l0.1,0.8l0.1,0.8l0.1,0.8l0.1,0.8l0.1,0.8l0.1,0.4l0.1,1.1
	l0.1,0.8l0.1,0.8l0.1,0.8l0.1,0.8l0.1,0.5l0.2,1l0.1,0.8l0.2,0.8l0.2,0.8l0,0.2l0.1,0.6l0.2,0.8l0.2,0.8l0.2,0.8l0.2,0.8l0.2,0.8
	l0.2,0.8l0.1,0.2l0.4,1.3l0.2,0.8l0.2,0.8l0.3,0.8l0.2,0.5l0.1,0.2l0.3,0.8l0.3,0.8l0.6,1.5l0.3,0.8l0.3,0.8l0.7,1.5l0.7,1.3l0.5,1
	l0.2,0.3l0.3,0.5l0.4,0.7l0.5,0.9l0.1,0.2l0.7,1l0.2,0.3l0.5,0.7l0.6,0.9l0.7,0.9l0.5,0.6l0.1,0.2l0.5,0.6l0.1,0.2l0.6,0.6l0.7,0.8
	l0.7,0.7l0.7,0.6l0.3,0.2l0.4,0.3l0.5,0.4l0.8,0.6l0.7,0.5l0.6,0.4l0.7,0.4l0.7,0.4l0.7,0.4l0.6,0.3l0.7,0.4l0.7,0.3l0.3,0.1
	l0.4,0.2l0.7,0.3l0.7,0.2l0.3,0.1l0.4,0.1l0.7,0.2l0.7,0.2l0.7,0.2l0.5,0.1l0.8,0.2l0.7,0.1l0.7,0.1l0.7,0.1l0.7,0.1l0.7,0l0.7,0
	l0.7,0l0.7,0l0.7,0l0.7,0l0.7,0l0.7-0.1l0.7-0.1l0.7-0.1l0.7-0.1l0.7-0.1l0.7-0.1l0.7-0.1l0.7-0.1l0.7-0.1l0.7-0.2l0.7-0.2l0.3-0.1
	l0.4-0.1l0.7-0.2l0.7-0.2l0.7-0.2l0.3-0.1l0.4-0.1l0.7-0.2l0.7-0.2l0.6-0.2l0.8-0.3l0.7-0.2l0.6-0.2l0.7-0.3l0.7-0.3l0.5-0.2
	l0.8-0.4l0.7-0.3l0.3-0.1l0.4-0.2l0.7-0.3l0.6-0.3l0.7-0.3l0.7-0.3l0.3-0.1l0.4-0.2l0.7-0.3l0.5-0.3l0.8-0.4l0.7-0.3l0.7-0.3
	l0.7-0.3l0.3-0.1l0.4-0.2l0.7-0.3l0.4-0.2l0.2-0.1l0.7-0.3l0.6-0.3l0.7-0.4l0.7-0.3l0.7-0.3l0.7-0.3l0.3-0.1l0.4-0.2l0.7-0.3
	l0.5-0.2l0.2-0.1l0.7-0.3l0.7-0.3l0.7-0.3l0.7-0.3l0.4-0.2l0.3-0.1l0.7-0.3l0.7-0.3l0.7-0.3l0.7-0.3l0.6-0.2l0.7-0.3l0.7-0.2
	l0.7-0.2l0.7-0.2l0.7-0.2l0.7-0.2l0.5-0.1l0.2-0.1l0.7-0.2l0.7-0.2l0.7-0.1l0.7-0.1l0.7-0.1l0.7-0.1l0.7-0.1l0.7-0.1l0.7,0l0.7,0
	l0.7,0l0.7,0l0.7,0.1l0.7,0.1l0.3,0l0.4,0.1l0.7,0.1l0.7,0.1l0.7,0.2l0.7,0.2l0.2,0.1l0.4,0.1l0.7,0.2l0.7,0.3l0.7,0.3l1.2,0.6
	l0.8,0.4l0.6,0.3l0.7,0.4l0.5,0.3l0.2,0.1l0.7,0.5l0.3,0.2l0.4,0.3l0.7,0.5l0.7,0.5l0.3,0.2l0.4,0.3l0.7,0.6l0.7,0.6l0.7,0.6
	l0.3,0.2l0.4,0.4l0.7,0.6l0.7,0.7l0.6,0.6l0.7,0.8l0.7,0.7l0.7,0.7l0.7,0.8l0.7,0.8l0.7,0.8l0.7,0.8l0.6,0.8l0.6,0.8l0.7,1l0.7,0.9
	l0.4,0.5l0.3,0.4l0.3,0.4l0.4,0.5l0.7,0.9l0.6,0.9l0.5,0.8l0.2,0.2l0.4,0.6l0.3,0.4l0.7,1l0.1,0.2l0.5,0.8l0.5,0.8l0.2,0.2l0.4,0.5
	l0.3,0.5l0.7,1l0.5,0.8l0.1,0.2l0.7,1l0.2,0.3l0.5,0.7l0.5,0.8l0.2,0.2l0.7,1.1l0.1,0.2l0.5,0.8l0.5,0.8l0.2,0.4l0.7,1.1l0.5,0.8
	l0.2,0.3l0.7,1.1l0.5,0.9l0.1,0.2l0.7,1.1l0.1,0.2l0.4,0.8l0.1,0.2l0.3,0.6l0.3,0.5l0.1,0.2l0.4,0.8l0.1,0.2l0.7,1.2l0.1,0.2
	l0.4,0.8l0.1,0.2l0.7,1.2l0.5,0.9l0.2,0.3l0.3,0.5l0.4,0.7l0.5,0.8l0.2,0.4l0.2,0.4l0.4,0.8l0.4,0.8l0.3,0.5l0.6,1l0.1,0.2l0.7,1.2
	l0.5,0.9l0.2,0.4l0.2,0.4l0.4,0.8l0.7,1.4l0.5,0.9l0.2,0.3l0.2,0.4l0.4,0.8l0.4,0.8l0.3,0.6l0.5,0.9l0.2,0.3l0.2,0.4l0.4,0.8
	l0.4,0.8l0.3,0.6l0.5,0.9l0.2,0.4l0.2,0.4l0.4,0.8l0.1,0.2l0.7,1.3l0.4,0.8l0.3,0.5l0.1,0.2l0.4,0.8l0.2,0.3l0.6,1.2l0.4,0.8
	l0.4,0.7l0.4,0.8l0.3,0.5l0.5,1l0.2,0.4l0.2,0.4l0.4,0.8l0.1,0.2l0.6,1.3l0.4,0.8l0.3,0.7l0.4,0.9"/>
</svg>
