<?xml version="1.0" encoding="utf-8"?>
<!-- Generator: Adobe Illustrator 23.0.3, SVG Export Plug-In . SVG Version: 6.00 Build 0)  -->
<svg version="1.1"
	 id="svg8" inkscape:version="0.92.4 (unknown)" sodipodi:docname="figure.svg" xmlns:cc="http://creativecommons.org/ns#" xmlns:dc="http://purl.org/dc/elements/1.1/" xmlns:inkscape="http://www.inkscape.org/namespaces/inkscape" xmlns:rdf="http://www.w3.org/1999/02/22-rdf-syntax-ns#" xmlns:sodipodi="http://sodipodi.sourceforge.net/DTD/sodipodi-0.dtd" xmlns:svg="http://www.w3.org/2000/svg"
	 xmlns="http://www.w3.org/2000/svg" xmlns:xlink="http://www.w3.org/1999/xlink" x="0px" y="0px" viewBox="0 0 680.3 286.6"
	 style="enable-background:new 0 0 680.3 286.6;" xml:space="preserve">
<style type="text/css">
	.st0{fill:none;stroke:#020203;stroke-width:0.75;stroke-miterlimit:10;}
	.st1{fill:#020203;}
	.st2{font-family:'ArialMT';}
	.st3{font-size:12px;}
	.st4{font-size:6.778px;}
	.st5{font-size:5.6247px;}
	.st6{fill:none;stroke:#727070;stroke-width:2;stroke-linecap:round;stroke-linejoin:round;stroke-miterlimit:10;}
	.st7{font-family:'MyriadPro-Regular';}
	.st8{font-size:3.9192px;}
	.st9{font-size:4.3327px;}
	.st10{fill:none;stroke:#E31013;stroke-width:0.75;stroke-miterlimit:10;}
	.st11{fill:#E31013;}
	.st12{font-size:4.708px;}
</style>
<sodipodi:namedview  bordercolor="#666666" borderopacity="1.0" id="base" inkscape:current-layer="layer1" inkscape:cx="284.27627" inkscape:cy="182.72055" inkscape:document-units="mm" inkscape:guide-bbox="true" inkscape:pageopacity="0.0" inkscape:pageshadow="2" inkscape:window-height="995" inkscape:window-maximized="1" inkscape:window-width="2520" inkscape:window-x="20" inkscape:window-y="65" inkscape:zoom="0.99437388" pagecolor="#ffffff" showborder="true" showgrid="false" showguides="true" width="200mm">
	<inkscape:grid  dotted="false" empspacing="4" id="grid815" spacingx="10" spacingy="10" type="xygrid" units="mm">
		</inkscape:grid>
</sodipodi:namedview>
<g id="layer1" transform="translate(0,-177)" inkscape:groupmode="layer" inkscape:label="Layer 1">
</g>
<path class="st0" d="M312.7,65.6c5.7,18.8,14,53,14.1,97.4c0.1,45.1-8.4,79.8-14.1,98.7"/>
<text transform="matrix(1 0 0 1 263.2029 18.0614)" class="st1 st2 st3">$\mathscr P$</text>
<text transform="matrix(1 0 0 1 292.209 45.6417)" class="st1 st2 st4">$\mathscr P_\eta$</text>
<text transform="matrix(1 0 0 1 358.5147 45.3341)" class="st1 st2 st5">$\mathscr P_s$</text>
<rect x="263.2" y="26.7" class="st6" width="151" height="248.9"/>
<circle class="st1" cx="316.7" cy="79.9" r="2"/>
<text transform="matrix(1 0 0 1 279.0161 76.3388)" class="st7 st8">$\infty$</text>
<circle class="st1" cx="319.8" cy="94.4" r="2"/>
<text transform="matrix(1 0 0 1 279.0165 100.4262)" class="st7 st9">$1$</text>
<line class="st10" x1="307.1" y1="79.9" x2="375.4" y2="79.9"/>
<line class="st10" x1="310" y1="94.4" x2="378.3" y2="94.4"/>
<circle class="st1" cx="323.8" cy="212" r="2"/>
<text transform="matrix(1 0 0 1 279.0165 207.8055)" class="st7 st8">$\lambda$</text>
<circle class="st1" cx="321.1" cy="226.5" r="2"/>
<text transform="matrix(1 0 0 1 279.0167 233.3218)" class="st7 st9">$0$</text>
<line class="st10" x1="316.7" y1="212" x2="385" y2="212"/>
<line class="st10" x1="314.7" y1="226.5" x2="383" y2="226.5"/>
<text transform="matrix(1 0 0 1 323.1053 73.7131)" class="st11 st7 st12">$\overline{\delta}$</text>
<path class="st0" d="M362,65.6c5.7,18.8,14,53,14.1,97.4c0.1,45.1-8.4,79.8-14.1,98.7"/>
</svg>
