<?xml version="1.0" encoding="utf-8"?>
<!-- Generator: Adobe Illustrator 23.0.3, SVG Export Plug-In . SVG Version: 6.00 Build 0)  -->
<svg version="1.1"
	 id="svg8" inkscape:version="0.92.4 (unknown)" sodipodi:docname="figure.svg" xmlns:cc="http://creativecommons.org/ns#" xmlns:dc="http://purl.org/dc/elements/1.1/" xmlns:inkscape="http://www.inkscape.org/namespaces/inkscape" xmlns:rdf="http://www.w3.org/1999/02/22-rdf-syntax-ns#" xmlns:sodipodi="http://sodipodi.sourceforge.net/DTD/sodipodi-0.dtd" xmlns:svg="http://www.w3.org/2000/svg"
	 xmlns="http://www.w3.org/2000/svg" xmlns:xlink="http://www.w3.org/1999/xlink" x="0px" y="0px" viewBox="0 0 680.3 281.8"
	 style="enable-background:new 0 0 680.3 281.8;" xml:space="preserve">
<style type="text/css">
	.st0{fill:none;stroke:#020203;stroke-width:0.75;stroke-miterlimit:10;}
	.st1{fill:#020203;}
	.st2{font-family:'ArialMT';}
	.st3{font-size:12px;}
	.st4{font-size:6.778px;}
	.st5{font-size:5.6247px;}
	.st6{fill:none;stroke:#727070;stroke-width:2;stroke-linecap:round;stroke-linejoin:round;stroke-miterlimit:10;}
	.st7{font-family:'MyriadPro-Regular';}
	.st8{font-size:3.9192px;}
	.st9{font-size:4.3327px;}
	.st10{fill:none;stroke:#E31013;stroke-width:0.75;stroke-miterlimit:10;}
	.st11{fill:#E31013;}
	.st12{font-size:4.708px;}
</style>
<sodipodi:namedview  bordercolor="#666666" borderopacity="1.0" id="base" inkscape:current-layer="layer1" inkscape:cx="284.27627" inkscape:cy="182.72055" inkscape:document-units="mm" inkscape:guide-bbox="true" inkscape:pageopacity="0.0" inkscape:pageshadow="2" inkscape:window-height="995" inkscape:window-maximized="1" inkscape:window-width="2520" inkscape:window-x="20" inkscape:window-y="65" inkscape:zoom="0.99437388" pagecolor="#ffffff" showborder="true" showgrid="false" showguides="true" width="200mm">
	<inkscape:grid  dotted="false" empspacing="4" id="grid815" spacingx="10" spacingy="10" type="xygrid" units="mm">
		</inkscape:grid>
</sodipodi:namedview>
<g id="layer1" transform="translate(0,-177)" inkscape:groupmode="layer" inkscape:label="Layer 1">
</g>
<path class="st0" d="M468.7,63.6c5.7,18.8,14,53,14.1,97.4c0.1,45.1-8.4,79.8-14.1,98.7"/>
<text transform="matrix(1 0 0 1 419.2028 15.9729)" class="st1 st2 st3">$\mathscr P’$</text>
<line class="st0" x1="514.5" y1="65.5" x2="552.5" y2="180.2"/>
<line class="st0" x1="503" y1="262.8" x2="552.5" y2="142.9"/>
<text transform="matrix(1 0 0 1 448.2089 43.5531)" class="st1 st2 st4">$\mathscr P’_\eta$</text>
<text transform="matrix(1 0 0 1 514.5145 43.2455)" class="st1 st2 st5">$\mathscr P’_s$</text>
<rect x="419.2" y="24.7" class="st6" width="151" height="248.9"/>
<circle class="st1" cx="472.7" cy="77.8" r="2"/>
<text transform="matrix(1 0 0 1 435.016 74.2502)" class="st7 st8">$\infty$</text>
<circle class="st1" cx="475.8" cy="92.3" r="2"/>
<text transform="matrix(1 0 0 1 435.0164 98.3376)" class="st7 st9">$1$</text>
<text transform="matrix(1 0 0 1 525.0339 68.1782)" class="st7 st3">$G$</text>
<text transform="matrix(1 0 0 1 525.0339 249.7266)" class="st7 st3">$F$</text>
<line class="st10" x1="463.1" y1="77.8" x2="531.4" y2="77.8"/>
<line class="st10" x1="466" y1="92.3" x2="534.3" y2="92.3"/>
<circle class="st1" cx="479.8" cy="209.9" r="2"/>
<text transform="matrix(1 0 0 1 435.0164 205.717)" class="st7 st8">$\lambda$</text>
<circle class="st1" cx="477.1" cy="224.4" r="2"/>
<text transform="matrix(1 0 0 1 435.0165 231.2332)" class="st7 st9">$0$</text>
<line class="st10" x1="472.7" y1="209.9" x2="541" y2="209.9"/>
<line class="st10" x1="470.7" y1="224.4" x2="539" y2="224.4"/>
<text transform="matrix(1 0 0 1 479.1052 71.6245)" class="st11 st7 st12">$\overline{\delta}$</text>
<path class="st0" d="M159.6,63.6c5.7,18.8,14,53,14.1,97.4c0.1,45.1-8.4,79.8-14.1,98.7"/>
<text transform="matrix(1 0 0 1 110.0921 15.9731)" class="st1 st2 st3">$\mathscr P$</text>
<line class="st0" x1="202.1" y1="59.9" x2="225.2" y2="110.6"/>
<line class="st0" x1="188.1" y1="262.8" x2="228.5" y2="190.6"/>
<text transform="matrix(1 0 0 1 139.0982 43.5533)" class="st1 st2 st4">$\mathscr P_\eta$</text>
<text transform="matrix(1 0 0 1 205.4038 43.2457)" class="st1 st2 st5">$\mathscr P_s$</text>
<rect x="110.1" y="24.7" class="st6" width="151" height="248.9"/>
<circle class="st1" cx="163.6" cy="77.8" r="2"/>
<text transform="matrix(1 0 0 1 125.9053 74.2504)" class="st7 st8">$\infty$</text>
<circle class="st1" cx="166.7" cy="92.3" r="2"/>
<text transform="matrix(1 0 0 1 125.9053 96.1189)" class="st7 st9">$1$</text>
<text transform="matrix(1 0 0 1 215.9232 68.1784)" class="st7 st3">$\tilde G$</text>
<text transform="matrix(1 0 0 1 215.9232 249.7267)" class="st7 st3">$\tilde F$</text>
<line class="st10" x1="154" y1="77.8" x2="222.3" y2="77.8"/>
<line class="st10" x1="156.9" y1="92.3" x2="225.2" y2="92.3"/>
<circle class="st1" cx="170.7" cy="209.9" r="2"/>
<text transform="matrix(1 0 0 1 125.9057 205.7172)" class="st7 st8">$\lambda$</text>
<circle class="st1" cx="168" cy="224.4" r="2"/>
<text transform="matrix(1 0 0 1 125.9055 229.0145)" class="st7 st9">$0$</text>
<line class="st10" x1="163.6" y1="209.9" x2="231.9" y2="209.9"/>
<line class="st10" x1="161.6" y1="224.4" x2="229.8" y2="224.4"/>
<text transform="matrix(1 0 0 1 169.9944 71.6247)" class="st11 st7 st12">$\overline{\delta}$</text>
<g>
	<g>
		<line class="st0" x1="277" y1="155" x2="403.9" y2="155"/>
		<g>
			<path class="st1" d="M408.4,155c-2.1,0.8-4.8,2.1-6.4,3.6l1.3-3.6l-1.3-3.6C403.6,152.9,406.3,154.2,408.4,155z"/>
		</g>
	</g>
</g>
<text transform="matrix(1 0 0 1 277.0339 142.9471)" class="st7 st3">desingularisation</text>
<line class="st0" x1="206.1" y1="130" x2="225.7" y2="96.1"/>
<line class="st0" x1="225.7" y1="205.7" x2="206.1" y2="171.8"/>
<line class="st0" x1="206.1" y1="193.3" x2="225.7" y2="159.3"/>
<line class="st0" x1="225.7" y1="140.7" x2="206.1" y2="106.8"/>
<text transform="matrix(1 0 0 1 211.4572 155.0169)" class="st7 st3">$\vdots$</text>
</svg>
