<?xml version="1.0" encoding="utf-8"?>
<!-- Generator: Adobe Illustrator 23.0.3, SVG Export Plug-In . SVG Version: 6.00 Build 0)  -->
<svg version="1.1"
	 id="svg8" inkscape:version="0.92.4 (unknown)" sodipodi:docname="figure.svg" xmlns:cc="http://creativecommons.org/ns#" xmlns:dc="http://purl.org/dc/elements/1.1/" xmlns:inkscape="http://www.inkscape.org/namespaces/inkscape" xmlns:rdf="http://www.w3.org/1999/02/22-rdf-syntax-ns#" xmlns:sodipodi="http://sodipodi.sourceforge.net/DTD/sodipodi-0.dtd" xmlns:svg="http://www.w3.org/2000/svg"
	 xmlns="http://www.w3.org/2000/svg" xmlns:xlink="http://www.w3.org/1999/xlink" x="0px" y="0px" viewBox="0 0 680.3 294.9"
	 style="enable-background:new 0 0 680.3 294.9;" xml:space="preserve">
<style type="text/css">
	.st0{fill:#C5C5C4;}
	.st1{fill:#FFFFFF;}
	.st2{fill:#020203;}
	.st3{font-family:'ArialMT';}
	.st4{font-size:13.6215px;}
	.st5{fill:none;stroke:#020203;stroke-miterlimit:10;}
	.st6{font-family:'MyriadPro-Regular';}
	.st7{font-size:12px;}
	.st8{fill:none;stroke:#020203;stroke-miterlimit:10;stroke-dasharray:4;}
	.st9{fill:#C40D0E;}
</style>
<sodipodi:namedview  bordercolor="#666666" borderopacity="1.0" id="base" inkscape:current-layer="layer1" inkscape:cx="284.27627" inkscape:cy="182.72055" inkscape:document-units="mm" inkscape:guide-bbox="true" inkscape:pageopacity="0.0" inkscape:pageshadow="2" inkscape:window-height="995" inkscape:window-maximized="1" inkscape:window-width="2520" inkscape:window-x="20" inkscape:window-y="65" inkscape:zoom="0.99437388" pagecolor="#ffffff" showborder="true" showgrid="false" showguides="true" width="200mm">
	<inkscape:grid  dotted="false" empspacing="4" id="grid815" spacingx="10" spacingy="10" type="xygrid" units="mm">
		</inkscape:grid>
</sodipodi:namedview>
<g id="layer1" transform="translate(0,-177)" inkscape:groupmode="layer" inkscape:label="Layer 1">
</g>
<g>
	<g>
		<path class="st0" d="M406.6,149c0-0.1,0.3-0.2,0.8-0.2s0.8,0.1,0.8,0.2v93.2c0,0.1-0.3,0.2-0.8,0.2s-0.8-0.1-0.8-0.2V149z"/>
		<path class="st0" d="M410,229.6c-0.3,0.2-0.6-0.2-0.8-0.5c0-0.3,0-0.5,0.3-0.6c0.3-0.2,0.8-0.3,1.7-0.5l3.6-0.8
			c1.2-0.2,2.6-0.5,4.2-0.6c1.4-0.2,2.9-0.2,4.5-0.2c2.2-0.2,4.8-0.3,8.2-0.8c2.5-0.3,5.3-1.1,8.3-1.8l17-3.9l18.7-4.2l9-1.9
			l6.5-1.3c2.8-0.5,4.3-0.5,5.6-0.3c3.2,0.2,7.7,0.3,11.9,0c2.6-0.2,4.9,0,6.8,0c1.1,0.2,2,0.3,2.9,0.6l1.2,0.3
			c1.2,0.3,3.1,0.3,4.8,0.2c0.8,0,1.7-0.3,2.6-0.6l1.9-0.3l0,0h-0.2c0,0-0.2,0.3-0.2,0.2v0.3c0-0.2,0.2,0.3,0.2,0.3l0.2,0.2
			c-0.2,0,0.2,0,0,0h-0.2h-1.5c-0.2,0-0.5-0.2-0.5-0.5c0-0.2,0.2-0.5,0.3-0.5l1.5-0.2h0.3h0.2c0.2,0,0.5,0.5,0.3,0.6l-0.2,0.3
			c-0.5,0.3-1.1,0.5-1.9,0.6c-0.9,0.3-2,0.6-2.9,0.8c-1.9,0.2-3.7,0-5.1-0.5l-1.2-0.5c-0.6,0-1.5,0.2-2.5,0.2c-2,0-4.2-0.2-6.8,0
			c-4.3,0.3-8.8,0.2-12.2,0c-1.1,0-2.5,0-5.3,0.5l-6.3,1.3l-9,1.9l-18.7,4.2l-17,3.7c-3.1,0.6-6,1.3-8.5,1.8
			c-3.6,0.5-6.2,0.6-8.3,0.8c-1.7,0-3.1,0-4.5,0.2l-4.2,0.5l-3.4,0.6L410,229.6z"/>
		<path class="st0" d="M531.7,236c0.3-0.3,0.8-0.2,1.1,0.2c0.3,0.3,0.2,0.8-0.2,1.1c-0.3,0.3-0.8,0.2-1.1-0.2l0,0l0,0l-1.5-1.5
			c-0.2-0.2-0.2-0.5,0-0.6c0.2-0.2,0.3-0.2,0.5-0.2l1.4,0.8l0.3,0.2l0,0H532C532,235.9,531.5,236,531.7,236 M519.3,215
			c0,0.3-0.2,0.6-0.5,0.6s-0.5-0.2-0.6-0.3L518,215c0-0.2-0.2-0.2,0-0.5c0.2-0.5,0.6-0.5,0.9-0.5l0.3,0.2c0.3,0.3,0.6,0.8,1.1,1.3
			c0.9,1.3,1.9,3.2,3.1,5.4l3.9,7.1c1.1,1.9,2.2,3.6,3.2,4.9l2,2.4l0.3,0.5c0.2,0.2,0.3,0.2,0.3,0.8c0.2,0.6-0.3,1.3-0.9,1.3
			c-0.6,0.2-1.2-0.3-1.2-1l0,0c0-0.2,0,0.3,0,0.2c0-0.2,0.2,0.2,0,0.2l0,0l-0.3-0.3l-2-2.4c-1.1-1.5-2.3-3.1-3.4-5.2l-3.7-7.3
			l-2.8-5.4l-0.8-1.3l0,0l0,0l0.2,0.2h0.3l0.3-0.2C519,215.3,519.3,215,519.3,215L519.3,215L519.3,215z M533.2,236.7
			c0,0.6-0.5,1.1-1.1,1.1c-0.6,0-1.1-0.5-1.1-1.1s0.5-1.1,1.1-1.1C532.7,235.6,533.2,236,533.2,236.7"/>
		<path class="st0" d="M516.9,239.6c0.5,0.2,0.6,0.8,0.5,1.3c-0.2,0.5-0.8,0.6-1.2,0.5c-0.5-0.2-0.6-0.8-0.5-1.3
			c0.2-0.3,0.5-0.5,0.8-0.5c0.2,0-0.3,0-0.2,0h-0.2c0.2,0-0.2,0.2-0.2,0c0.2,0-0.2,0.2-0.2,0.2l-0.2,0.2l0,0c0-0.3,0-0.8-0.2-1.5
			c0-0.2,0.2-0.5,0.3-0.5c0.2,0,0.3,0,0.5,0.2l0.8,1.6v0.2l0,0C517.2,239.9,517,239.8,516.9,239.6
			C517.2,239.8,516.9,239.6,516.9,239.6 M508.7,216.9c0.2,0.2,0.2,0.3,0.3,0.5l0,0v0.2l0.3,2.1c0.5,3.2,1.9,8,3.7,12.2
			c0.9,2.1,2,3.7,2.8,5l1.1,1.6c0.5,0.6,0.5,1.3,0.5,1.5s0.2,0.5,0,0.6c0,0.2,0.2,0.2-0.3,0.6c-0.2,0.2-0.3,0.2-0.5,0.3
			c-0.5,0.2-0.6,0-0.8,0l-0.3-0.2c-0.2-0.2-0.3-0.3-0.3-0.5l-0.3-1l-1.1-1.6c-0.8-1.3-1.9-3.1-2.8-5.4c-1.9-4.4-3.2-9.2-3.7-12.8
			v-2.1v-0.5l0.2-0.3l0.3-0.2C508,216.7,508.4,216.7,508.7,216.9 M509,217.9c0,0.3-0.2,0.6-0.5,0.6s-0.5-0.2-0.6-0.5v-0.1l0,0
			c0,0,0.3,0.2,0.2,0.2c0,0,0.3,0.2,0.2,0h0.2c0,0,0.3-0.2,0.2,0L509,217.9c-0.3,0.3-0.7,0.3-1,0.2c-0.3-0.2-0.3-0.6-0.2-1
			c0.2-0.3,0.6-0.3,0.9-0.2c0.2,0.2,0.2,0.3,0.3,0.5v0.2L509,217.9z"/>
		<path class="st0" d="M548.2,196.6c0.2-0.5,0.6-0.6,1.1-0.5c0.5,0.2,0.6,0.6,0.5,1.1c-0.2,0.5-0.6,0.6-1.1,0.5
			c-0.3-0.2-0.5-0.5-0.6-0.8c0-0.2,0,0.3,0,0.2c0-0.2,0.2,0.2,0.2,0.2l0.2,0.2h0.2l0,0h-1.4c-0.2,0-0.5-0.2-0.5-0.3
			c0-0.2,0.2-0.3,0.3-0.5l1.4-0.5l0,0l0,0L548.2,196.6C548.2,196.3,548.2,196.6,548.2,196.6 M525.4,211.2c0.3,0,0.6,0.2,0.6,0.5
			s-0.2,0.6-0.5,0.6l-0.5,0.2h-0.2c0,0-0.5,0-0.6-0.2c-0.2-0.3-0.2-0.5-0.2-0.6c0.2-0.5,0.3-0.5,0.5-0.5l0.5-0.3l4.8-3.2l7.1-4.7
			l5.6-3.4c1.9-1.1,3.1-1.9,4.2-2.6l1.4-0.8c0.2-0.2,0.5-0.3,0.8-0.2c0.2,0,0.2,0,0.5,0.2c0.2,0.2,0.2,0.2,0.3,0.3
			c0.3,0.5,0.2,0.6,0.2,0.6c0,0.3-0.2,0.5-0.5,0.6l-1.5,1c-0.9,0.6-2.3,1.6-4.2,2.8l-5.7,3.2l-7.1,4.4c-2.2,1.3-3.9,2.4-4.9,3.1
			l-0.8,0.3c0,0,0.2-0.2,0.2,0l0.2-0.2c0,0,0.2-0.5,0.2-0.3s-0.2-0.5,0-0.3C525.5,211.9,525.2,211.4,525.4,211.2c0,0.2-0.2,0-0.2,0
			l0,0H525.4z"/>
		<path class="st0" d="M489.5,215.4c0.2,0.3,0.2,0.6,0,0.8s-0.6,0.2-0.8,0c-0.2-0.2-0.3-0.5-0.3-0.8s0-0.6,0.2-0.8
			c0.2-0.6,0.6-1.1,1.2-1.8c1.2-1.3,3.1-2.9,5.7-4.9c3.2-2.4,7.1-5.4,11.4-8.3c2.3-1.5,4.6-3.1,7.3-4.7c5.6-3.2,11.9-6.5,17.2-9.4
			c2-1.1,3.7-2.3,5.1-3.2c2.3-1.5,3.9-2.1,5.1-2.6l7.1-2.8c0.6-0.3,1.4-0.5,2-0.8c0.9-0.5,1.9-1.1,2.8-1.8l1.5-1.1
			c0-0.2,0.2-0.2,0.3-0.2c0,0-0.2,0.3-0.2,0.2c0,0-0.2,0.3-0.2,0.2c0-0.2,0,0.6,0,0.5c0-0.2,0.2,0.5,0.2,0.3
			c-0.2-0.2,0.2,0.2,0.2,0.2h-0.2c-0.6,0-2,0.2-4,0.6c-0.2,0-0.5-0.2-0.5-0.3c0-0.2,0.2-0.5,0.3-0.5l4.2-1.3l0.9-0.2
			c0.2,0,0.6,0,0.8,0.5c0.3,0.3,0.2,0.8,0.2,1s-0.2,0.2-0.2,0.3c-0.5,0.6-1.2,1.1-2.2,1.6c-0.9,0.6-2,1.5-3.1,1.9
			c-0.9,0.5-1.7,0.6-2.3,0.8l-7.1,2.8c-1.1,0.5-2.6,1.1-4.8,2.4c-1.4,1-3.2,2.1-5.3,3.2c-5.3,2.9-11.8,6.2-17.2,9.4
			c-2.6,1.5-4.9,2.9-7.3,4.5c-4.2,2.8-8.2,5.5-11.4,8c-2.5,1.9-4.5,3.4-5.6,4.5c-0.5,0.5-0.9,1-1.1,1.3L489.5,215.4L489.5,215.4z"/>
		<path class="st0" d="M481.3,238.3c0.3,0.5,0.2,1-0.2,1.3c-0.5,0.3-0.9,0.2-1.2-0.2c-0.2-0.2-0.2-0.5-0.2-0.8c0-0.2,0,0.3,0,0.3
			v0.2c0-0.2-1.9-1.6-2.6-3.2c-0.2-0.2,0-0.5,0.2-0.5c0.2-0.2,0.3,0,0.5,0.2c0.5,0.5,1.2,1.1,1.9,1.6l0.9,0.6
			C480.8,238,481,238,481.3,238.3 M462.6,224.5c0,0.3-0.3,0.5-0.6,0.5c-0.3,0-0.5-0.3-0.5-0.5s0-0.5,0.2-0.6
			c0.2-0.2,0.3-0.3,0.6-0.3c0.3,0,0.8,0,1.1,0c0.8,0.2,1.9,0.5,2.8,1c1.1,0.5,2.5,1.3,3.7,2.4c1.4,1.3,2.5,2.9,3.6,4.5
			c0.8,1.1,1.5,2.4,2.2,3.2c1.2,1.5,3.2,2.3,4.3,2.8l0.9,0.6l0.3,0.2l0.2,0.3c0.2,0.3,0.2,0.6,0,0.8c-0.2,0.5-0.5,0.5-0.6,0.5
			c-0.3,0.2-0.5,0-0.6,0l-0.8-0.2c-1.4-0.6-3.7-1.5-5.4-3.6c-0.9-1.1-1.5-2.4-2.3-3.6c-1.1-1.6-2-3.2-3.1-4.4
			c-1.1-1-2.2-1.6-3.1-2.3c-0.9-0.5-1.7-1-2.5-1.1l-0.6-0.2c0,0,0.2,0,0,0C462.3,224.9,462.6,224.4,462.6,224.5"/>
		<path class="st0" d="M441.7,227.4c0-0.3,0.2-0.6,0.5-0.6c0.2,0,0.5,0,0.6,0.3l-0.2-0.2h-0.3h-0.2l0,0l0.3-0.3l1.4-2.1l2-3.2
			c0.9-1.5,1.7-2.6,2.5-3.7c1.9-2.3,4.3-4.9,6-7c2.5-2.8,3.6-4.1,5.7-4.7c0.2-0.2,0.5,0,0.6,0.3c0,0.2,0,0.5-0.2,0.5
			c-0.9,0.5-1.4,1-2,1.8l-2.5,3.4c-1.9,2.3-4.5,4.9-6.2,7c-0.8,1-1.7,2.1-2.5,3.4l-2.2,3.2c-0.6,1-1.2,1.6-1.7,2.1
			c-0.3,0.2-0.5,0.5-0.8,0.5c-0.2,0-0.3,0.2-0.6,0C441.9,227.8,441.7,227.6,441.7,227.4"/>
		<path class="st0" d="M472.9,228.4c0.3-0.2,0.6-0.2,0.8,0c0.2,0.2,0.2,0.6,0,0.8l0,0V229c0,0-0.2-0.3,0-0.3c0,0.2-0.3-0.3-0.2-0.2
			c0.2,0-0.2,0-0.2,0h0.3l2.3-0.8l4.6-1.8c1.1-0.5,2-0.8,2.8-1.3c0.8-0.3,1.4-0.8,1.7-1.1c0.2-0.2,0.5-0.3,0.6-0.2h0.2
			c0,0,0.2,0,0.2,0.2l0.2,0.3c0.2,0.2,0.2,0.5,0,0.6c-0.5,0.6-1.1,1.3-2,1.8s-2,1-3.1,1.3l-4.6,1.6c-0.9,0.3-1.9,0.6-2.6,0.6h-0.5
			c-0.2,0-0.5,0-0.6-0.3c-0.2-0.3-0.2-0.6,0-0.8L472.9,228.4z"/>
		<path class="st0" d="M409.2,174.7c0.3-0.2,0.6,0.2,0.8,0.5c0.2,0.3-0.2,0.6-0.5,0.8c-0.2,0-0.3,0-0.5,0l-0.5-0.2
			c-0.2-0.2-0.3-0.3-0.2-0.5c0-0.2,0.2-0.2,0.3-0.2L409.2,174.7z"/>
		<path class="st0" d="M409.1,175.7c-0.3,0.2-0.6,0-0.8-0.2c-0.2-0.3,0-0.6,0.2-0.8s0.5-0.2,0.6,0h0.2c0.3,0.2,0.3,0.5,0.2,0.6
			C409.4,175.5,409.2,175.5,409.1,175.7L409.1,175.7z"/>
		<path class="st0" d="M406.8,191.2c0.3,0,0.5,0.3,0.5,0.6s-0.3,0.5-0.6,0.5l-0.3-0.2c0,0-0.2-0.2-0.3-0.3c0-0.3,0-0.5,0.2-0.6
			c0.3-0.3,0.5-0.2,0.6-0.3l1.5-0.2c2-0.2,4.6,0,8-0.2c1.7-0.2,3.7-0.3,6.2-0.6l3.9-0.2c2-0.2,4.3-0.6,6.8-1l5.9-1
			c2.9-0.5,6-1,9.4-1.6s7.1-1.8,11-2.8c2.9-0.6,6-1.3,9-1.8l11.6-1.9l10.1-1.5l10.2-1.3c2.8-0.3,4.9-0.5,7-0.5h6.8h4.3
			c4-0.2,8.3-1.6,12.8-1c1.9,0.3,3.9-0.2,5.9-0.5c2.3-0.3,5.3-1.1,7.9-1.3c1.4-0.2,2.8,0,4,0c1.1,0,2.3,0,2.9-0.2h0.2h0.2
			c0,0-0.2,0,0,0l-0.2,0.2l-0.2,0.3c0-0.2,0,0.3,0,0.3v0.2l-0.3-0.2l-1.1-0.6c-0.2-0.2-0.3-0.3-0.2-0.5c0-0.2,0.3-0.3,0.5-0.3
			c1.1,0.3,1.7,0.3,2.2,0.6l0.3,0.3c0.2,0.2,0.3,0.5,0.2,0.8c-0.2,0.5-0.5,0.8-0.8,1c0,0-0.2,0-0.2,0.2c-0.9,0.3-2.2,0.3-3.4,0.3
			c-1.4,0-2.6,0-3.9,0c-2.5,0.2-5.3,0.8-7.7,1.3c-2,0.3-4.2,0.8-6.5,0.3c-4-0.6-8.2,0.8-12.5,0.8h-4.3h-6.6c-1.9,0-4.2,0.2-6.8,0.5
			l-10.1,1.3l-10.1,1.5l-11.4,1.9c-2.9,0.5-5.9,1-8.8,1.8c-3.7,0.8-7.4,1.9-11,2.8c-3.4,0.6-6.6,1.1-9.4,1.6l-5.9,1
			c-2.5,0.3-4.9,0.8-7,1l-3.7,0.2c-2.3,0.2-4.3,0.5-6.2,0.5c-3.6,0.2-6.2,0-8,0l-1.4,0.2h-0.2c0,0,0.2-0.2,0.2,0l0.2-0.2l0.2-0.3
			c0,0,0-0.3,0-0.2c0,0.2-0.2-0.3-0.2-0.2L406.8,191.2C407,191.3,406.8,191.2,406.8,191.2L406.8,191.2z"/>
		<path class="st0" d="M550.1,142.4c0.2-0.2,0.5-0.2,0.6,0.2c0.2,0.2,0.2,0.5-0.2,0.6c0,0-0.2,0-0.2,0.2l-0.5,0.3
			c-0.2,0.2-0.5,0.2-0.6-0.2c-0.2-0.2-0.2-0.3,0-0.5L550.1,142.4z M534.2,156.9c0,0.3-0.3,0.6-0.6,0.5c-0.2,0-0.2,0-0.3-0.2
			c-0.2-0.2-0.2-0.3-0.2-0.5v-0.3l0.2-0.5l0.6-0.8c2.5-2.1,6.6-4.2,10.2-7.1c1.7-1.3,3.1-2.8,4.2-3.9l1.1-1.3l0.2-0.3l0,0v0.2v0.2
			c0,0,0.2,0.5,0,0.3c0-0.2,0.3,0.5,0.2,0.3c-0.2-0.2,0.3,0.3,0.3,0.2c-0.5-0.3-0.6-1-0.3-1.5s0.9-0.6,1.4-0.3l0,0
			c0.2,0.2,0.3,0.5,0.5,0.6v0.5l-0.2,0.5l-0.3,0.6l-1.2,1.5c-1.1,1.3-2.6,2.8-4.5,4.1c-3.9,2.9-8.2,5-10.4,6.8L534.2,156.9l-0.2,0.3
			l0,0l0,0C534.2,157,534.2,156.9,534.2,156.9 M551.6,142.7c0,0.6-0.5,1.1-1.1,1.1s-1.1-0.5-1.1-1.1c0-0.6,0.5-1.1,1.1-1.1
			C551.2,141.8,551.6,142.3,551.6,142.7"/>
		<path class="st0" d="M551.8,171.6c0.2,0.5,0,1-0.5,1.3c-0.5,0.2-0.9,0-1.1-0.5c0-0.2-0.2-0.3,0-0.5c0-0.2,0,0.3,0,0.3v0.2
			l-0.2-0.2l-0.8-0.5c-0.6-0.3-1.5-0.6-2-0.8c-0.2,0-0.3-0.3-0.3-0.5s0.2-0.3,0.3-0.3c0.6,0,1.5,0.2,2.3,0.3l1.1,0.3l0.5,0.3
			C551.5,171.1,551.6,171.3,551.8,171.6 M536,162.1c0,0.3-0.2,0.6-0.5,0.6s-0.6-0.2-0.6-0.5c-0.2-0.5-0.2-1-0.2-1.3s0.3-0.8,0.6-1
			c0.5-0.2,0.8-0.2,1.1,0l1.1,0.6c0.9,0.8,1.9,1.9,2.6,3.1c0.9,1.3,1.9,2.4,2.8,3.6c1.2,1.3,2.9,2.3,4.5,3.1
			c0.6,0.3,1.2,0.5,1.9,0.5l0.9,0.2h0.2l0,0c0,0-0.3,0.2-0.2,0c0.6-0.3,1.2-0.2,1.5,0.5c0.3,0.6,0.2,1.3-0.5,1.6c0,0,0,0-0.2,0
			c-0.5,0.3-0.8,0.2-1.2,0.2l-1.2-0.2c-0.6-0.2-1.4-0.3-2.2-0.6c-1.7-0.8-3.7-2.1-5.1-3.7c-1.1-1.3-2-2.8-2.8-3.9s-1.5-2.3-2.2-2.9
			l-0.6-0.5h-0.2h0.2l0,0L536,162.1z M552.1,172.1c0,0.6-0.5,1.3-1.2,1.3c-0.6,0-1.2-0.5-1.2-1.3c0-0.6,0.5-1.3,1.2-1.3
			C551.5,171,552.1,171.5,552.1,172.1"/>
		<path class="st0" d="M514.1,196.7c0.3,0,0.8,0.2,0.8,0.6c0,0.3-0.2,0.8-0.6,0.8c-0.2,0-0.3,0-0.5-0.2s-0.5-0.5-0.9-1.3
			c-0.2-0.5-0.2-0.6-0.2-1v0.2v-0.2l-0.3-0.5c-0.2-0.2,0-0.5,0.2-0.6c0.2-0.2,0.5,0,0.5,0.2c0.2,0.3,0.5,0.5,0.5,1v-0.2l0.2,0.3
			l0.6,0.8l0.2,0.2l0,0h-0.2C514.3,196.7,514,196.7,514.1,196.7 M500.7,177.9c0.3,0,0.6,0.3,0.6,0.6s-0.2,0.5-0.5,0.5l0,0v0.2
			c0,0.3,0.2,1,0.5,1.6c0.6,1.6,1.5,3.6,2.9,5.4c1.5,2.3,3.6,4.2,5.3,5.7c1.2,1,2,1.6,2.8,2.1l1.1,0.6c0.8,0.5,1.4,1.3,1.9,2.1
			c0.3,0.5,0.2,1.3-0.3,1.6s-1.2,0.2-1.5-0.3s-0.8-1-1.2-1.3l-1.1-0.7c-0.8-0.6-1.7-1.3-2.9-2.4c-1.7-1.6-3.9-3.6-5.4-6.2
			c-1.4-2.1-2.3-4.2-2.8-6.2c-0.3-0.8-0.3-1.6-0.3-2.3c0-0.3,0.2-0.6,0.3-1C500.1,177.9,500.4,177.9,500.7,177.9"/>
		<path class="st0" d="M495.7,177c0.3,0.2,0.5,0.5,0.3,0.8s-0.3,0.5-0.6,0.5c-0.2,0-0.5-0.2-0.6-0.5c-0.2-0.3,0-0.5,0-0.5l0.3-0.5
			l1.1-1c0.9-1,2.2-2.1,3.6-3.6c1.1-1.1,2.2-2.6,3.4-4.2c1.4-1.8,2.9-3.6,4.5-5.2c0.8-0.8,1.7-1.6,2.3-2.3c1.1-1,1.7-1.5,2.5-1.8
			c0.6-0.2,1.2-0.3,1.7-0.3c0.3,0,0.5,0,0.6,0.2c0.2,0,0.3,0.2,0.3,0.3c0,0.2,0,0.5-0.2,0.5c-0.2,0.2-0.5,0.2-0.6,0l-0.2-0.2
			c0,0,0.3,0.3,0.2,0.2h0.2c0,0,0.2,0,0,0l-0.3,0.2l-1.2,0.6c-0.5,0.3-1.1,0.6-2.2,1.6c-0.8,0.6-1.5,1.3-2.3,2.1
			c-1.5,1.6-3.1,3.4-4.5,5c-1.2,1.6-2.5,2.9-3.7,4.2c-1.5,1.5-2.8,2.8-3.7,3.6l-1.1,1l-0.2,0.2l0,0v-0.2c0,0,0-0.3,0-0.2
			c0,0.2-0.3-0.5-0.2-0.3C496,177.2,495.7,177,495.7,177"/>
		<path class="st0" d="M507,137c0.2,0.3,0.2,0.6,0,0.8c-0.3,0.2-0.6,0.2-0.8,0c0-0.2-0.2-0.2-0.2-0.3c0-0.2,0.2,0.3,0.2,0.3
			c-0.2-0.2,0.3,0.2,0.2,0.2h0.2l0,0l-0.5,0.2c-0.5,0.2-0.9,0.5-1.4,1c-0.2,0.2-0.5,0.2-0.6,0c-0.2-0.2-0.2-0.3,0-0.6
			c0.5-0.5,0.9-1,1.5-1.3l0.6-0.3l0.3-0.2C506.5,136.8,506.7,136.6,507,137 M476.7,181.3c0.3-0.2,0.6,0,0.8,0.3
			c0.2,0.3,0,0.6-0.3,0.8l-0.6,0.2c-0.2,0-0.5-0.2-0.6-0.3c-0.3-0.3-0.3-0.8-0.3-1.1c0.2-0.8,0.5-1.8,1.1-2.9l2.2-4.4l3.2-6
			c2.6-4.7,5.9-8.6,8.5-11.5c2.2-2.4,4.2-4.7,5.7-6.8l4.8-6.3c0.6-0.8,1.2-1.8,2-2.9l1.5-2.3l1.1-0.8l0.3-0.2h0.2h0.2
			c0.2,0,0.3,0,0.5,0.2c0.3,0.3,0.3,0.5,0.3,0.6l-0.2,0.3l-0.3,0.3l-0.6,0.8l-1.5,2.3c-0.6,1.1-1.1,2.1-1.7,3.2l-4.8,6.3
			c-1.7,2.3-3.7,4.5-6,7c-2.6,2.8-5.9,6.5-8.5,11l-3.4,5.8l-2.5,4.4c-0.6,1-0.9,1.9-0.9,2.4v0.2
			C476.9,181.4,476.9,181.3,476.7,181.3C476.9,181.4,476.7,181.3,476.7,181.3L476.7,181.3z"/>
		<path class="st0" d="M504.7,140.7c-0.3,0.1-0.7,0-0.8-0.3s0-0.4,0.2-0.6l-0.1,0.1l0.2-0.5l0.4-1.3c0.2-1.1,0.5-2.5,1-4
			c1.1-3.2,2.6-6,4.1-8.2l2.9-4l0.1-0.1l0.7-0.5c0.2-0.2,0.6-0.2,0.7,0c0.1,0.1,0.1,0.1,0.1,0.3l-0.2,1.1l-0.1,0.1l-2.8,4.1
			c-1.5,2.1-3.1,4.7-4.1,7.7c-0.6,1.4-0.9,2.7-1.2,3.8l-0.4,1.3C505.1,140.2,505.1,140.5,504.7,140.7"/>
		<path class="st0" d="M530.5,134.4c0.2-0.4,0.7-0.3,1-0.2c0.3,0.1,0.3,0.7,0.2,1s-0.7,0.3-1,0.2c-0.3-0.1-0.4-0.4-0.4-0.5
			c0.1-0.2,0,0.4,0.1,0.3c-0.2-0.1,0.2,0.3,0.1,0.3l0.2,0.1l0.3,0.1c0,0-1.4,0.6-2.5,1c-0.3,0.1-0.5,0-0.5-0.3
			c-0.1-0.3,0-0.4,0.2-0.4c0.7-0.3,1.6-1.4,2.5-1.7L530.5,134.4L530.5,134.4z M499.9,148.2c-0.1,0.3-0.5,0.4-0.8,0.3
			c-0.3-0.1-0.4-0.4-0.3-0.7c0.2-0.4,0.6-0.7,0.9-1.1c0.5-0.3,0.9-0.5,1.5-0.6l4.7-1.2c3.6-1,8.5-3.7,13.1-5.9c2.2-1,4.2-2,5.8-2.6
			l2.2-0.8l2.9-0.8l0.3-0.1l0.3-0.1c0,0-0.3,0.1,0.3-0.1c0,0,0.3-0.1,0.4,0c0.5,0,0.7,0.4,0.8,0.6l0.1,0.6c0,0.5-0.4,0.8-0.8,1.2
			l-0.3,0.1l-2.9,1.1l-2.1,0.6c-1.5,0.6-3.6,1.5-5.8,2.5c-4.7,2.4-9.7,5-13.6,5.9c-2,0.4-3.6,0.7-4.8,0.9l-1.4,0.3
			C500.3,147.8,500,147.9,499.9,148.2"/>
		<path class="st0" d="M518,118.6c-0.4,0.1-0.6-0.1-0.9-0.4c-0.3-0.4,0.1-0.6,0.4-0.8c0.4,0,0.6,0.1,0.9,0.4c0.1,0.3,0,0.4,0,0.5
			s0.1-0.2,0.1-0.2l0.1-0.2l0.1,0.3l0.1,1.7c0.1,0.3-0.2,0.4-0.4,0.5c-0.3,0.1-0.4-0.2-0.4-0.4l-0.3-1.7l-0.1-0.3l0.2,0.1
			c0,0,0.3,0.1,0.2,0.1c0,0,0.3,0.1,0.2,0.1l0.2,0.1C517.6,118.7,518,118.6,518,118.6 M522.5,138.2c0.3-0.2,0.7-0.2,0.9,0.1
			c0.2,0.3,0.2,0.7-0.1,0.9c-0.4,0.4-0.8,0.6-1.2,0.7c-0.4,0.1-1.1,0-1.6-0.2c-0.9-0.4-1.6-1.5-2.1-2.9c-0.7-1.9-0.9-4.5-1.2-6.9
			l-0.2-3.7l-0.2-5.5l0.1-1.6c0-0.5,0-0.7,0.3-1.1c0.1-0.2,0-0.4,0.7-0.2c0.2,0.1,0.3,0.1,0.4,0.2c0.2,0.3,0.2,0.3,0.2,0.3l0.2,2.5
			l0.2,5.5l0,3.6c0,2.5,0.3,4.9,0.9,6.7c0.3,1.2,0.8,2,1.3,2.2c0.2,0.1,0.4,0.2,0.6,0.1C521.9,138.7,522.2,138.4,522.5,138.2"/>
		<path class="st0" d="M522.1,142.9c-0.3,0.2-0.7,0-0.7-0.4c-0.1-0.3-0.1-0.6,0.2-0.8c1.5-0.8,3.8-0.7,5.9-0.3
			c1.6,0.4,3,0.9,4.3,1.4l2.9,1.1l1.1,0.2c0.2,0.1,0.4,0,0.5,0l0.2,0.1c0.3-0.1,0.5,0,0.5,0.3c0,0,0,0-0.1,0.2c0,0.4-0.1,0.6-0.5,1
			c-0.1,0.2-0.3,0.2-0.4,0.1c-0.6,0.1-1.2,0.1-1.8,0c-1-0.3-2-0.7-3-1.1c-1.4-0.5-2.7-1.1-4-1.4
			C525.3,142.7,523.2,142.5,522.1,142.9"/>
		<path class="st0" d="M407.6,149c-0.5,0.2-0.8,0-0.9-0.5c-0.2-0.5,0-0.8,0.5-1l139.2-54.2c0.5-0.2,0.8,0,0.9,0.5
			c0.2,0.5,0,0.8-0.5,1L407.6,149z"/>
		<path class="st0" d="M544.2,86.8c-0.3,0-0.6-0.3-0.6-0.6c0-0.3,0.2-0.6,0.5-0.6s1.9-0.8,3.4-1.8l3.6-1.6l0.6-0.2
			c0.2,0,0.3-0.3,0.6,0c0.2,0.2,0.2,0.5,0.2,0.6c-0.2,0.3-0.2,0.2-0.3,0.3l-0.6,0.3c-0.2,0.2-0.5,0-0.6-0.2c-0.2-0.2,0-0.5,0.2-0.5
			l0.5-0.3c0,0,0,0.2,0,0v0.2v0.2v0.2c0-0.2,0.3,0.2,0.2,0.2h0.2h0.2h-0.2l-0.5,0.2l-3.4,1.8C546.5,85.8,545.3,86.8,544.2,86.8"/>
		<path class="st0" d="M555.4,101.4c0.3-0.2,0.6,0,0.8,0.3s0,0.6-0.3,0.8c-0.3,0.2-0.6,0-0.8-0.3c0-0.2,0-0.3,0-0.5v0.2
			c0-0.2,0,0.3,0,0.2l0,0l-0.3-0.3c-0.2-0.2-0.2-0.5,0-0.6c0.2-0.2,0.3-0.2,0.5,0l0.5,0.2C555.5,101.4,555.4,101.4,555.4,101.4
			L555.4,101.4z M539.6,89.7c0.2,0.3,0.2,0.6,0,0.8c-0.3,0.2-0.6,0.2-0.8,0c0,0,0-0.2-0.2-0.2l-0.2-0.3l0.2-0.3
			c0.2-0.2,0.3-0.2,0.5-0.2l0.3,0.2H539.6l-0.5-0.2c0.3-0.2,0.8-0.2,1.1,0c0.2,0,0.2,0,0.3,0.2c2.3,1.3,6.2,3.7,9.4,6
			c1.7,1.1,2.9,2.4,4,3.2l1.2,1l0.9,0.8c0.5,0.5,0.6,1.3,0.2,1.8c-0.3,0.5-1.1,0.6-1.5,0.3l-1.1-0.6l-1.4-1.1
			c-1.2-1-2.3-2.1-3.9-3.2c-3.1-2.4-6.8-4.9-9-6.5c-0.2,0-0.2-0.2-0.3-0.3c-0.2-0.3-0.5-0.5-0.5-0.8l0.5,0.3h0.2
			c0,0,0.3-0.3,0.3-0.2c0,0,0.2-0.3,0.2-0.2c0,0.2,0-0.3,0-0.2C539.6,90,539.4,89.7,539.6,89.7"/>
		<path class="st0" d="M539.7,96.8c0.3,0,0.6,0.2,0.6,0.5s-0.2,0.6-0.5,0.6l0,0c-3.1,0-5.4-2.3-8.2-1.3c-0.2,0-0.5,0-0.5-0.3
			c0-0.2,0-0.5,0.3-0.5c1.7-0.5,3.2-0.3,4.5,0.2C537.3,96.3,538.5,96.8,539.7,96.8"/>
		<path class="st0" d="M554,91.5c0.3-0.3,0.6-0.3,0.9,0c0.3,0.3,0.3,0.6,0,1s-0.6,0.3-0.9,0c-0.2-0.2-0.2-0.3-0.2-0.6
			c0-0.2,0,0.3,0,0.3c0-0.2,0.2,0.3,0.2,0.2l0.2,0.2c-0.2,0,0.2,0.2,0.2,0.2l-1.2,0.2c-0.2,0-0.5-0.2-0.5-0.3c0-0.2,0-0.5,0.3-0.5
			L554,91.5L554,91.5C554.1,91.3,553.8,91.5,554,91.5 M547,95.7c0.3,0.2,0.5,0.5,0.5,0.8s-0.3,0.5-0.6,0.5c-0.2,0-0.5-0.2-0.6-0.3
			c-0.2-0.3,0-0.5,0-0.6c0.2-0.3,0.3-0.5,0.6-0.6c1.1-1,2.6-1.6,4-2.3l2.6-1.5c0,0,0.2,0,0.2-0.2l0.5-0.2h0.3c0.2,0,0.3,0,0.3,0.2
			c0.5,0.3,0.3,0.6,0.3,0.6l-0.2,0.3c-0.2,0.3-0.3,0.5-0.5,0.6c0,0-0.2,0-0.2,0.2l-2.9,1.3c-1.4,0.6-2.9,1.1-3.9,1.8l-0.3,0.2v-0.2
			c0,0,0-0.5,0-0.3C547.3,96.2,547,95.7,547,95.7C547.2,95.8,547,95.7,547,95.7"/>
		<path class="st0" d="M528.9,92.8c-0.3-0.3-0.5-0.8-0.2-1.1s0.8-0.5,1.1-0.2l32.6,25.3c0.3,0.3,0.5,0.8,0.2,1.1s-0.8,0.5-1.1,0.2
			L528.9,92.8z"/>
		<path class="st0" d="M551.3,110c-0.2-0.3,0-0.8,0.3-1.1c0.3-0.2,0.8,0,1.1,0.3l11.8,26.8c0.2,0.3,0,0.8-0.3,1.1
			c-0.3,0.2-0.8,0-1.1-0.3L551.3,110z"/>
		<path class="st0" d="M559.2,107c0.2-0.3,0.6-0.3,0.9-0.2c0.3,0.2,0.3,0.6,0.2,1c-0.2,0.3-0.6,0.3-0.9,0.2
			c-0.2-0.2-0.3-0.3-0.3-0.5s0,0.3,0,0.3v0.2l0.2,0.2l0,0h-0.6c-0.2,0-0.5-0.2-0.5-0.3c0-0.2,0.2-0.3,0.3-0.5L559.2,107L559.2,107
			C559.4,106.9,559.1,107,559.2,107 M551.6,110.9c0.2-0.3,0.5-0.3,0.8-0.2c0.2,0.2,0.3,0.3,0.3,0.6V111c0,0.2-0.2-0.3-0.2-0.3
			l-0.2-0.2c0.2,0-0.3,0-0.2,0h-0.2l0,0l0,0l0.5-0.2l1.4-0.6c1.1-0.5,2.2-1.1,3.2-1.8l2.4-1c0.2-0.2,0.3-0.2,0.5-0.3h0.3
			c0.2,0,0.3,0.2,0.3,0.3c0.3,0.3,0.2,0.5,0.2,0.6c0,0.2-0.2,0.3-0.3,0.5c-0.6,0.5-1.4,0.8-2.5,1.3s-2.2,1.1-3.4,1.6l-1.4,0.5
			l-0.5,0.2h-0.3H552c-0.2,0-0.3-0.2-0.3-0.5C551.5,111.1,551.5,110.9,551.6,110.9"/>
		<path class="st0" d="M544.3,128.2c0.2,0.3,0.2,0.6,0,0.8c-0.3,0.2-0.6,0.2-0.8,0c-0.2-0.2-0.2-0.3-0.2-0.3v0.2l-0.9-1.3
			c-0.2-0.2-0.2-0.5,0-0.6c0.2-0.2,0.5-0.2,0.5,0L544.3,128.2z M513.4,111.3c0.2,0.3,0,0.6-0.2,0.8c-0.3,0.2-0.6,0.2-0.8-0.2
			l-0.3-0.5c0-0.2-0.2-0.6,0.2-0.8c0.5-0.5,0.9-0.3,1.2-0.2c0.8,0.2,1.9,0.8,3.2,1.5c2.9,1.6,6.8,3.9,10.8,6.5s8.2,4.9,11.4,6.5
			l3.9,1.9l1.1,0.6c0.3,0.2,0.6,0.5,0.6,0.8c0,0.2,0.2,0.2,0,0.6c0,0.2,0,0.2-0.2,0.3c-0.3,0.5-0.5,0.5-0.6,0.5
			c-0.3,0.2-0.8,0.2-1.1,0l-1.2-0.6l-4-2.1c-3.2-1.8-7.4-4.1-11.6-6.7c-4-2.8-7.7-5.2-10.5-6.8l-2.8-1.6l-0.3-0.2c0,0,0.3,0,0.2,0
			c-0.2,0,0.3-0.3,0.3-0.3C513.2,111.5,513.2,111.2,513.4,111.3L513.4,111.3L513.4,111.3z"/>
		<path class="st0" d="M533.2,112.1c0.2-0.2,0.6-0.2,0.8,0s0.2,0.6,0,0.8l0,0l0.2-0.2v0.2v0.5l0.2,2.1l0.8,6l0.9,6.2
			c0.3,1.6,0.5,2.8,0.5,3.4c0,0.3-0.3,0.5-0.5,0.5c-0.3,0-0.5-0.2-0.5-0.5l-0.5-3.1l-0.9-6.2l-0.8-6.2l-0.2-2.1
			C532.9,112.9,532.8,112.6,533.2,112.1"/>
		<path class="st0" d="M547.6,115c-0.3-0.3-0.3-0.8,0-1.1s0.8-0.3,1.1,0s0.3,0.8,0,1.1c-0.3,0.2-0.6,0.3-0.9,0.2c-0.2,0,0.2,0,0.2,0
			c-0.2,0,0.2,0,0.2,0l-1.1,0.3c-0.2,0.2-0.5,0-0.5-0.3c0-0.2,0-0.3,0.2-0.5l0.6-0.6v0.2c0,0,0,0.3,0,0.2v0.2
			C547.5,114.7,547.6,115.2,547.6,115 M537.9,117.4c-0.3,0.2-0.6-0.2-0.8-0.3c-0.2-0.3,0-0.6,0.3-0.6c1.9-0.8,4.3-1.5,6.5-2.1
			l2.2-0.5c0.8-0.2,1.2-0.3,2-0.3c0.3,0,0.6,0.2,0.8,0.5l0.2,0.5c0,0.2,0,0.3,0,0.5l-0.2,0.3c-0.2,0.3-0.5,0.3-0.9,0.3l0,0l-1.4,0.3
			l-2.2,0.3C542.2,116.5,539.6,116.9,537.9,117.4"/>
		<path class="st0" d="M476.6,147.3c0.3-0.3,0.8-0.2,0.9,0.2c0.3,0.3,0.2,0.8-0.2,1c-0.2,0-0.2,0.2-0.3,0.2c-0.5,0-0.9,0-1.4-0.3
			c-0.6-0.3-1.1-0.6-1.5-1.5c-0.2-0.2,0-0.5,0.2-0.6c0.2-0.2,0.5,0,0.5,0.2c0.3,0.5,0.8,0.6,1.2,0.8H476.6L476.6,147.3L476.6,147.3z
			 M443.4,137.4c0,0.3-0.3,0.5-0.6,0.5c-0.3,0-0.5-0.3-0.5-0.6c0.2-1,0.6-1.9,1.4-2.4s1.9-0.5,3.1-0.2c1.7,0.5,3.9,1.6,6.2,2.9
			c2.5,1.3,5.1,2.9,7.9,4.2c2.3,1,4.3,1.9,6.3,2.6l4.8,1.5c1.2,0.3,2.2,0.6,3.1,0.6h1.1l0.9,0.2c0.5,0,0.8,0.3,0.9,0.6
			c0,0.2,0.2,0.2,0.2,0.6c0,0.2,0,0.2,0,0.3c-0.2,0.3-0.2,0.5-0.3,0.5c-0.3,0.3-0.6,0.5-1.1,0.5H476h-1.4c-1.1-0.2-2.2-0.5-3.4-0.8
			l-4.9-1.6c-2-0.6-4.2-1.6-6.5-2.8c-2.8-1.5-5.4-3.1-7.9-4.4c-2.3-1.5-4.3-2.6-5.7-3.1c-0.9-0.3-1.5-0.3-2-0.2
			C443.8,136.3,443.5,136.6,443.4,137.4"/>
		<path class="st0" d="M464.8,144.4c-0.2,0.2-0.5,0-0.6-0.2c-0.3-0.2-0.3-0.5-0.3-0.6v-0.2l0.2-0.3l1.2-0.8l6.8-3.9l5.6-2.9l2.6-1.1
			h0.2h0.6c0.2,0,0.6,0,0.9,0.5c0.2,0.3,0.2,1,0,1.1l-0.2,0.2l-0.3,0.2l-3.4,2.1c-0.2,0.2-0.5,0-0.6-0.2c-0.2-0.2,0-0.5,0.2-0.5
			c1.7-1.3,2.6-2.1,2.8-2.4l0,0l0,0c0,0,0,0.3,0,0.2c0-0.2,0.2,0.5,0.2,0.3s0.5,0.5,0.3,0.3c-0.2,0,0.5,0.2,0.3,0.2s0.3,0,0.3,0h0.2
			l-0.5,0.2h-0.2l-2.5,1l-5.6,2.8l-6.8,3.6l-1.2,0.6L464.8,144.4L464.8,144.4z M464.7,143.1c0.3,0,0.6,0.2,0.6,0.5s0,0.5-0.3,0.6
			l-0.3,0.2l0,0c-0.3,0.2-0.6,0-0.8-0.3s0-0.6,0.3-0.8c0.3-0.2,0.6,0,0.8,0.3c0,0.2,0,0.2,0,0.3c0,0.2-0.2-0.3,0-0.3
			c0,0.2-0.2-0.3-0.2-0.2C465,143.5,464.7,143.1,464.7,143.1C464.8,143.1,464.5,143.1,464.7,143.1L464.7,143.1z"/>
		<path class="st0" d="M476.4,157.6c0.3,0.3,0.2,1-0.3,1.1c-0.3,0.2-0.9,0.2-1.1-0.3s-0.2-1,0.3-1.1c0.3-0.2,0.8-0.2,0.9,0.2
			l-0.2-0.2c0.2,0-0.3-0.2-0.3-0.2h-0.2l0.2-0.2c0.2-0.2,0.5-0.2,0.6,0c0,0,0.2,0.2,0.2,0.3v0.3L476.4,157.6L476.4,157.6
			C476.6,157.6,476.4,157.4,476.4,157.6 M467,146.2c-0.2,0.3-0.5,0.5-0.8,0.5s-0.5-0.3-0.5-0.5s-0.2-0.5,0.3-0.6
			c0.5-0.3,0.6,0,0.8,0.2l0.6,0.6l1.4,2.3c1.2,1.9,3.1,3.7,4.5,5.4l1.9,2.3l0.6,1l0,0h-0.2h-0.3c0.6,0,0.9,0.6,0.9,1.1s-0.6,1-1.1,1
			c-0.6,0-0.9-0.5-1.1-0.6l-0.6-1l-1.7-2.3c-1.4-1.6-3.2-3.6-4.5-5.8l-1.2-2.4l-0.3-0.6l0,0c0,0,0.3,0.2,0.2,0.2s0.5,0,0.3,0
			s0.3-0.2,0.2-0.2C466.9,146.5,467,146.2,467,146.2L467,146.2z M476.6,158.1c0,0.6-0.5,1.1-1.1,1.1s-1.1-0.5-1.1-1.1
			c0-0.6,0.5-1.1,1.1-1.1C476.1,156.9,476.6,157.4,476.6,158.1"/>
		<path class="st0" d="M407.5,80.9c-0.3,0.2-0.8,0-0.9-0.5c-0.2-0.5,0-0.8,0.5-1l114.1-50.6c0.3-0.2,0.8,0,0.9,0.5
			c0.2,0.3,0,0.8-0.5,1L407.5,80.9z"/>
		<path class="st0" d="M487.8,42.9c0.3-0.2,0.6,0,0.8,0.2s0.2,0.5-0.2,0.6l-0.2,0.2l0,0c0,0,0,0.2-0.3,0.2s-0.6-0.3-0.6-0.5v-0.3
			l0.2-0.3l0.6-1.1c0.6-0.8,1.4-1.8,2.2-3.1c1.9-2.9,3.7-7.6,5.6-11.8c0.9-1.9,1.9-3.6,2.5-4.9c0.6-1.1,0.9-1.9,1.2-2.6l0.6-1.5
			l0.6-1l0.2-0.3l0,0c0,0-0.2,0.2,0,0.2c0.2-0.6,0.9-1,1.5-0.6c0.6,0.2,0.9,1,0.6,1.6c-0.2,0.3-0.3,0.5-0.5,0.6l0.2-0.2h0.2l0,0
			l-0.2,0.2l-0.5,0.6l-0.6,1.5l-1.4,2.8c-0.8,1.3-1.7,2.8-2.6,4.7c-2,3.9-3.9,8.8-6,11.8c-0.9,1.3-1.9,2.3-2.3,3.1l-0.8,0.8v0.1l0,0
			c0,0,0.2-0.3,0.2-0.2v-0.3c0,0.2-0.2-0.3-0.2-0.2c0,0.2-0.3-0.3-0.3-0.2c0.2,0-0.3,0-0.3,0L487.8,42.9
			C487.8,42.9,487.8,43.1,487.8,42.9 M502.9,17.6c0,0.6-0.5,1.1-1.1,1.1s-1.1-0.5-1.1-1.1c0-0.6,0.5-1.1,1.1-1.1
			S502.9,17,502.9,17.6"/>
		<path class="st0" d="M529.8,42.1c0.3,0.3,0.5,0.8,0.2,1.1s-0.8,0.5-1.1,0.2s-0.5-0.8-0.2-1.1C529.1,42.1,529.4,42,529.8,42.1
			l-0.3-0.2c0.2,0-0.2,0-0.2,0h-0.2C529.4,42,529.7,42,529.8,42.1L529.8,42.1L529.8,42.1L529.8,42.1L529.8,42.1L529.8,42.1z
			 M503.9,41c-0.3,0-0.5-0.3-0.5-0.6s0.3-0.5,0.6-0.5l4.2-0.3l6.2-0.5c3.2-0.2,6,0.3,8.7,1.3l3.9,1.1l1.4,0.3h0.5h-0.2
			c0.6-0.3,1.4,0.2,1.5,0.8c0.3,0.6-0.2,1.5-0.8,1.6h-0.2h-0.6l-0.9-0.2l-1.5-0.5l-3.9-1.3c-2.5-0.8-4.9-1.5-7.9-1.5h-6.3
			C506.2,41.2,504.6,41.2,503.9,41 M530.3,43.1c0,0.6-0.6,1.3-1.2,1.3c-0.6,0-1.2-0.6-1.2-1.3c0-0.6,0.6-1.3,1.2-1.3
			C529.7,41.8,530.3,42.5,530.3,43.1"/>
		<path class="st0" d="M517.4,105.6c-0.2,0.2-0.6,0.2-0.8,0s-0.2-0.5-0.2-0.8l1.7-3.2c0.8-1.5,1.9-3.4,3.2-5.7l2.6-3.9
			c2.2-3.1,4-5.2,5.9-7.5l5.7-7.1c1.7-2.1,2.5-3.6,3.4-4.9L540,71l1.4-1.8l0.3-0.5l0,0l0,0v0.2c0-0.3,0.2-0.6,0.3-0.8l0,0
			c0,0-0.2,0.3-0.2,0.2c0,0-0.2,0.6-0.2,0.5s0.2,0.6,0.2,0.5s0.3,0.3,0.2,0.3c-0.2,0,0.2,0.2,0.2,0.2c-0.3,0-1.1,0.2-2.2,0.5
			c-0.2,0-0.5,0-0.5-0.3c0-0.2,0-0.3,0.2-0.5l2.2-1.5l0.5-0.3c0,0,0.3-0.2,0.6-0.2c0.3,0,0.6,0.3,0.9,0.5c0.2,0.3,0.3,0.6,0.3,1
			c0,0.8-0.5,1.1-0.8,1.6l-1.4,1.9l-1.1,1.3c-0.9,1.3-1.7,2.8-3.6,4.9l-5.9,7c-2,2.3-3.9,4.2-6,7.1l-2.6,3.7l-3.4,5.4
			C518.7,104.2,518,105,517.4,105.6"/>
		<path class="st0" d="M506.3,74.4c0.5-0.3,0.9-0.3,1.4,0.2c0.3,0.5,0.3,1-0.2,1.5s-0.9,0.3-1.4-0.2c-0.3-0.3-0.3-0.8-0.2-1.1
			c0-0.2-0.2,0.3-0.2,0.3c0-0.2,0,0.3,0,0.3c0-0.2,0,0.3,0,0.2v0.2l0.2,0.2l0,0c-0.2-0.2-0.8-0.3-1.5-0.5c-0.2,0-0.3-0.3-0.3-0.5
			c0-0.2,0.2-0.3,0.3-0.3L506.3,74.4h0.2l0,0H506.3L506.3,74.4C506.5,74.3,506.2,74.4,506.3,74.4 M455.3,62.9
			c0.3-0.2,0.6,0.2,0.8,0.5c0.2,0.3,0,0.6-0.3,0.6h-0.2v-0.1c0,0,0-0.5,0-0.3s-0.2-0.3-0.2-0.3l-0.2-0.2l0,0l1.5,0.2l5.3,0.6
			c1.7,0.2,3.4,0.6,5.3,1l3.9,1c2,0.5,4.2,0.6,6.5,1c3.4,0.5,6.5,1.3,9.1,2.1c2.6,0.8,5.1,1.8,7.4,2.8c2.5,1,4.9,1.8,7.1,1.9
			c1.2,0.2,2.5,0.2,3.7,0.2h1.5c0.2,0,0.3,0,0.5,0l0.5,0.2l0.3,0.3c0.2,0.2,0.2,0.3,0.2,0.5c0,0.3,0,0.5,0,0.6
			c-0.2,0.6-0.5,0.6-0.8,0.8c-0.2,0-0.3,0.2-0.5,0.2H505c-1.1,0-2.6,0-4-0.2c-2.5-0.3-5.1-1.3-7.7-2.3c-4.5-1.9-9.4-3.9-16.1-4.9
			c-2.2-0.3-4.5-0.6-6.6-1.1l-3.9-1c-1.9-0.5-3.4-1-4.9-1.3l-5.1-0.8c-0.8-0.2-1.2-0.2-1.7-0.5l-0.3-0.3c-0.2-0.2-0.3-0.5-0.2-0.8
			s0.3-0.3,0.3-0.5L455.3,62.9z"/>
		<path class="st0" d="M501.1,74.4c0.3-0.2,0.6,0,0.8,0.3c0.2,0.3,0,0.6-0.3,0.8c-0.3,0.2-0.5,0.2-0.8,0.2c-0.2,0-0.5-0.3-0.5-0.5
			v-0.5c0.2-0.5,0.5-0.8,0.8-1.1c0.6-0.6,1.5-1.5,2.8-2.4l4.6-3.2l7.1-4.7l3.6-2.3c1.7-1.1,3.1-1.8,4.3-2.4l3.7-2.1l1.4-0.8
			c0.2-0.2,0.3-0.2,0.5-0.2l0,0c0,0-0.3,0.2-0.2,0.2c0.2-0.2-0.2,0.5-0.2,0.3s0,0.3,0,0.3l0,0l-0.2-0.2c-0.2-0.2-0.3-0.3-0.2-0.6
			c0-0.2,0.2-0.2,0.3-0.2h0.8c0.2,0,0.5,0.2,0.6,0.5c0.2,0.3,0.2,0.6,0,1c0,0.2-0.2,0.3-0.3,0.5c-0.5,0.5-1.1,0.8-1.9,1.1l-3.7,2.1
			c-1.2,0.6-2.6,1.3-4.2,2.4l-3.7,2.3l-7.1,4.5l-4.8,3.1c-1.2,0.8-2.2,1.5-2.6,2.1l-0.5,0.6l0,0v-0.2c0,0-0.2-0.3-0.2-0.2
			C501.2,74.7,500.9,74.6,501.1,74.4h-0.2H501.1z"/>
		<path class="st0" d="M520.1,78.5c-0.2-0.3-0.2-0.6,0.2-1c0.3-0.2,0.6-0.2,0.9,0.2c0.2,0.3,0.2,0.6-0.2,1
			C520.9,78.8,520.6,78.8,520.1,78.5l0.3,0.2c0,0,0.2,0,0,0l0,0c-0.2,0-0.5-0.2-0.3-0.5V78v0.2V78.5
			C520.1,78.3,520.3,78.6,520.1,78.5 M503.7,78c0.2-0.3,0.5-0.5,0.8-0.3c0.3,0.2,0.5,0.5,0.3,0.6c0,0-0.2-0.3,0-0.2l0,0l1.2,0.2
			c1.2,0,3.1-0.3,4.9-0.6c2.2-0.3,4.2-0.6,5.9-0.8h1.9h1.5h0.5c0.2,0,0.5,0,0.8,0.6c0.3,0.5,0,1.1-0.5,1.3c-0.5,0.3-1.1,0-1.2-0.5
			l0,0c0-0.2,0.3,0.3,0.2,0.3c-0.2-0.2,0.3,0.2,0.2,0.2h0.2h-0.2h-1.4h-1.9c-1.5,0-3.6,0.2-5.7,0.5c-2,0.3-3.9,0.5-5.3,0.3
			c-0.6,0-1.2,0-1.7-0.3c-0.3-0.2-0.5-0.3-0.6-0.5C503.6,78.5,503.7,78.2,503.7,78 M521.8,78c0,0.5-0.5,1-0.9,1
			c-0.4,0-0.9-0.5-0.9-1s0.5-1,0.9-1C521.3,76.9,521.8,77.3,521.8,78"/>
		<path class="st0" d="M410,109c-0.3,0.2-0.6,0-0.8-0.3s0-0.6,0.3-0.8l3.1-1.6c2.5-1.1,6.5-2.4,10.4-4.1c2.3-1,4.3-1.8,6-2.6
			l2.5-1.1l1.1-0.5c0.5-0.2,0.9,0.2,1.1,0.6c0.2,0.3,0,0.8-0.5,1l-0.9,0.5l-2.5,1.1c-1.7,0.8-3.7,1.6-6.2,2.6
			c-4,1.5-8.2,2.8-10.4,3.7L410,109z"/>
		<path class="st0" d="M441.2,83c-0.2-0.3,0-0.6,0.3-0.8c0.3-0.2,0.6,0,0.8,0.3c0,0.2,0,0.2,0,0.3c0,0.3-0.2,0.6-0.3,1l-0.9,1.8
			c-0.2,0.2-0.3,0.3-0.6,0.2c-0.2-0.2-0.3-0.3-0.2-0.5l0.6-1.8L441.2,83L441.2,83L441.2,83z M423.6,102c0-0.2,0-0.5,0.2-0.6v-0.2
			l0.3-0.3l2.5-2.9c1.5-1.6,3.6-3.2,5.3-5c2.6-2.6,4.3-5.2,5.7-7.6c0.8-1.1,1.5-2.3,2.2-2.9l0.8-0.6l0.5-0.3c0.2,0,0.5-0.2,0.9,0
			c0.6,0.2,0.8,0.8,0.6,1.5c-0.2,0.5-0.6,0.8-1.1,0.6c-0.2,0,0.5,0,0.3,0h0.2l0,0l-0.5,0.5c-0.6,0.6-1.2,1.6-2,2.8
			c-1.5,2.3-3.6,5-6.3,7.6c-1.9,1.6-3.9,3.2-5.4,4.7l-2.6,2.8l-0.3,0.3l-0.2,0.2h-0.3h-0.3C423.9,102.5,423.8,102.3,423.6,102
			 M424.2,100.9c0.2-0.3,0.6-0.3,0.8-0.2c0.3,0.2,0.3,0.5,0.2,0.8L425,102l0,0v-0.2c0,0,0-0.3,0-0.2c0,0-0.2-0.3-0.2-0.2
			c0,0-0.3-0.3-0.3-0.2h-0.3c0.3,0,0.6,0.3,0.6,0.6c0,0.3-0.3,0.6-0.6,0.6c-0.3,0-0.6-0.3-0.6-0.6c0-0.2,0-0.3,0.2-0.3l0.2-0.2
			L424.2,100.9z"/>
		<path class="st0" d="M427.2,102.3c-0.3,0-0.5-0.3-0.5-0.6c0-0.3,0.3-0.5,0.6-0.5c2,0,4.9,0.5,8.2,1.3c2.5,0.6,4.3,1.8,6,2.6l1.7,1
			l1.2,0.5h0.3l0,0l-0.2,0.2c0-0.2,0.2-0.2,0.3-0.2s-0.2,0.2-0.2,0.2l0,0v-0.9c0-0.2,0-0.5,0.3-0.5c0.2,0,0.3,0,0.5,0.2l0.5,1
			c0.2,0.3,0.2,0.5,0.2,0.8c0,0.2,0,0.3-0.2,0.3c-0.2,0.3-0.6,0.6-0.9,0.8c-0.3,0.2-0.6,0.2-0.9,0c-0.6,0-1.2-0.3-1.7-0.5l-1.9-1
			c-1.5-1-3.2-1.9-5.4-2.6C431.8,103.3,428.9,102.5,427.2,102.3"/>
		<path class="st0" d="M456.6,90.2c0.2-0.3,0.5-0.5,0.6-0.3c0.3,0.2,0.5,0.5,0.3,0.6c-0.2,0.3-0.5,0.5-0.6,0.3
			c-0.2,0-0.3-0.2-0.3-0.3l0.2,0.2c0-0.2,0.2,0.2,0.2,0.2h0.2h-0.5c-0.2,0-0.5-0.2-0.5-0.3c0-0.2,0.2-0.3,0.3-0.5l0.5-0.2h0.2
			c0,0-0.2,0.2,0,0l0,0C456.7,89.8,456.6,90.3,456.6,90.2 M436,101.4c-0.2-0.3-0.2-0.6,0.2-0.8c0.2-0.2,0.5-0.2,0.8,0
			c0.2,0.2,0.3,0.2,0.5,0.2l1.1-0.3c0.9-0.3,2.2-1.1,3.6-1.9l4.8-2.9c2.3-1.5,4-2.6,5.3-3.4l1.2-1l1.5-1c0.8-0.3,1.5-0.6,2-0.6h0.3
			c0,0,0.2,0,0.3,0.2s0.2,0.2,0.2,0.3c0,0.3,0,0.3,0,0.5c-0.2,0.3-0.3,0.3-0.3,0.3l-1.5,1l-1.2,1l-1.2,1.1l-5.4,3.4l-4.8,2.8
			c-1.5,0.8-2.8,1.5-4,1.8c-0.6,0.2-1.1,0.2-1.5,0.2C436.8,102,436.3,101.8,436,101.4"/>
		<path class="st0" d="M464,97.8c0.5-0.2,0.9,0,1.1,0.5s0,1-0.5,1.1c-0.5,0.2-0.9,0-1.1-0.5c-0.2-0.3,0-0.6,0.2-1l-0.2,0.2
			c0.2-0.2-0.2,0.5-0.2,0.3s0,0.3,0,0.3c0-0.2,0.2,0.2,0.2,0.2l0,0c-0.2-0.2-0.6-0.3-1.2-0.5c-0.2,0-0.3-0.3-0.3-0.5
			s0.2-0.3,0.5-0.3L464,97.8h0.2l0,0H464L464,97.8z M449.3,97.1c0.3-0.2,0.6,0,0.8,0.3c0.2,0.2,0,0.5-0.2,0.6l0,0v-0.2v-0.2
			c0,0.2,0-0.3,0-0.3s-0.2-0.3-0.2-0.2c0,0.2-0.3-0.2-0.2-0.2h-0.1l0,0h0.2l1.9-0.2c1.9-0.2,3.9-0.5,5.9-0.2c1.4,0.2,2.8,0.6,4,0.8
			c1.2,0.2,2.3,0.3,2.3,0.2c0.2,0,0.5,0,0.6,0l0.3,0.2c0.2,0.2,0.2,0.2,0.3,0.3c0.2,0.5,0.2,0.6,0,0.8c0,0.2-0.2,0.3-0.3,0.5
			c-0.6,0.3-0.9,0.3-1.5,0.3h-1.9c-1.5-0.2-2.9-0.6-4.2-0.8c-1.7-0.3-3.6-0.2-5.6-0.2l-2-0.2c-0.3,0-0.6,0-0.8-0.5
			c-0.2-0.3,0-0.8,0.2-1L449.3,97.1z"/>
		<path class="st0" d="M477.9,82.5c0.2-0.3,0.6-0.5,1.1-0.3c0.3,0.2,0.5,0.6,0.3,1.1c-0.2,0.3-0.6,0.5-1.1,0.3
			c-0.3-0.2-0.5-0.3-0.5-0.6c0-0.2,0.2,0.3,0.2,0.3l0.2,0.2c-0.2-0.2,0.3,0.2,0.2,0.2h0.2h0.2c-0.6,0.2-2.2,1.1-2.5,1.6
			c-0.2,0.2-0.5,0.2-0.6,0c-0.1-0.2-0.2-0.3-0.2-0.5c0.5-1,1.7-1.9,2.6-2.4L477.9,82.5L477.9,82.5L477.9,82.5L477.9,82.5z
			 M459.2,96.5c0.3-0.2,0.6-0.2,0.8,0c0.2,0.2,0.2,0.6,0,0.8l-0.3,0.5l0,0l0,0v-0.2c0,0-0.2-0.3,0-0.3c0,0.2-0.3-0.3-0.2-0.2
			c0.2,0.2-0.3-0.2-0.3-0.2H459h0.2c0.5-0.3,1.5-1,2.9-2.1c2.8-2.4,6.3-6,10.1-8.8c2-1.5,3.7-2.4,4.9-3.2l1.1-0.6
			c0.2,0,0.3-0.2,0.3-0.2h0.3h0.2c0.2,0,0.3,0.2,0.5,0.3l0.3,0.5c0.2,0.5,0,0.8-0.2,1c0,0.2-0.2,0.2-0.3,0.3l-1.1,0.6
			c-1.2,0.8-2.9,1.6-4.8,3.1c-3.7,2.6-7.3,5.8-10.2,8.3c-1.4,1.1-2.6,1.9-3.4,2.1c-0.2,0-0.3,0.2-0.6,0.2c-0.2,0-0.3-0.2-0.5-0.3
			c-0.2-0.3-0.2-0.5,0-0.6C458.4,97,458.7,96.8,459.2,96.5"/>
		<path class="st0" d="M473.1,93.2c-0.3,0.2-0.6,0-0.8-0.3s0-0.5,0.2-0.6c0.9-0.8,2.6-0.8,4.5-1c1.2,0,2.3,0,3.4,0.2
			c1.4,0.2,2.8,0.5,4.2,0.5c1.1,0,2.3,0,3.6-0.5c0.9-0.2,1.7-0.3,2.5-0.5c0.2,0,0.5,0,0.5,0.3c0,0.2,0,0.3-0.2,0.5l-2.3,1.5
			c-1.5,0.5-2.8,0.8-4.2,0.8c-1.5,0-3.1-0.2-4.5-0.3c-1.1-0.2-2-0.3-3.1-0.3C475.3,92.9,473.6,93.1,473.1,93.2"/>
		<path class="st0" d="M455.7,184.5c0.4-0.1,0.7,0,0.8,0.3c0.1,0.4,0.2,0.6,0,0.8l0.1-0.1c-0.1,0.1,0.1-0.4,0.1-0.4l0-0.3l0.1,0.1
			l1.4,0.7c1.4,0.6,3.5,1.2,6.1,2.1l8.5,2.6l4.8,1.6c2.9,1,5.8,2.1,8.3,3.1l4.8,1.9c0.7,0.4,1.1,0.6,1.4,1c0.2,0.2,0.4,0.7,0.1,1.2
			c-0.1,0.4-0.4,0.4-0.7,0.4l-0.3,0c-0.4,0-1.1-0.2-1.9-0.4c-0.9-0.3-1.5-0.6-2.1-1.1c-0.1-0.1-0.2-0.5-0.2-0.6
			c0.1-0.1,0.4-0.1,0.6-0.2c1.2,0.5,3.2,0.8,3.3,0.7c0,0-0.2,0.2-0.1,0.1c0.1-0.1-0.2,0.2-0.2,0.2c0.1-0.1-0.1,0.6-0.1,0.4
			c0-0.3,0.2,0.5,0.1,0.4s0.1,0.1,0.1,0.1l0.1,0.1l0,0l-1-0.5l-4.9-2c-2.6-1-5.4-2.2-8.2-3.3l-4.7-1.8l-8.4-3
			c-2.4-0.8-4.6-1.7-6-2.3c-0.7-0.4-1.2-0.7-1.7-0.9c-0.2-0.2-0.4-0.3-0.4-0.7C455.3,185.2,455.4,184.7,455.7,184.5"/>
		<path class="st0" d="M478.1,209c0.3-0.4,0.9-0.2,1.1,0c0.4,0.3,0.2,0.9,0,1.1c-0.3,0.4-0.9,0.2-1.1,0s-0.2-0.6,0-0.8l-0.1,0.1
			c0.1-0.1,0,0.3-0.1,0.1l0,0l0-0.3c0-0.3,0-0.4,0.3-0.6l0.3,0l0.1,0.1l0,0l-0.1,0.1C478.4,209,478.1,209,478.1,209L478.1,209z
			 M468.2,192.6c0-0.3,0-0.3,0.1-0.4c0.3-0.6,0.6-0.3,0.6-0.2c0.3,0,0.4,0.1,0.6,0.2l1.2,0.7c0.4,0.4,1.2,0.8,1.7,1.4
			c0.9,1.1,0.6,2.3,0.8,2.9c0.3,1.7,2.8,4.1,4.5,6.8c0.9,1.2,1.4,2.6,1.8,3.8l0.5,1.3l0,0.7c0,0.3,0,0.7-0.5,1
			c-0.6,0.3-1.3,0.2-1.4-0.5c-0.1-0.4-0.2-0.6,0-0.8c0.1-0.1-0.1,0.4-0.1,0.4c0.1-0.1,0,0.3,0,0.3l0,0l-0.1-0.1l-0.4-1.2
			c-0.3-1-0.8-2.1-1.6-3.3c-1.6-2.4-4.1-4.7-4.6-7.6c-0.1-1.2-0.1-2.1-0.2-2.3c-0.2-0.5-0.8-0.8-1.3-1.4l-0.9-1.1l-0.4-0.3
			C468.3,192.8,468.2,193,468.2,192.6 M469.4,192.5c-0.1,0.4-0.3,0.6-0.5,0.6c0,0-0.3,0-0.4-0.1l0,0l0,0c0,0,0.3,0,0.1,0.1
			c-0.4-0.1-0.6-0.3-0.4-0.7c0.1-0.4,0.3-0.6,0.7-0.4C469.3,191.9,469.6,192.2,469.4,192.5c0,0.3-0.1,0.4-0.2,0.5
			c-0.1,0.1,0.2-0.2,0.2-0.2C469.3,192.9,469.4,192.5,469.4,192.5L469.4,192.5z"/>
		<path class="st0" d="M476,199.3c0.2-0.2,0.6-0.2,0.8,0c0.2,0.2,0.2,0.6,0,0.8l0,0l-0.7,0.4l-0.2,0.5l0.1,0.1l0.7,0.4l2.4,0.7
			l3.1,0.7l3.8,0.7c1.8,0.6,3.7,1.3,6.5,2.5c0.1,0.1,0.4,0.3,0.2,0.6c-0.1,0.1-0.3,0.4-0.5,0.2c-3.1-0.8-4.9-1.3-6.8-1.4l-3.8-0.9
			l-3.2-0.8c-0.9-0.4-1.7-0.7-2.4-1.1l-0.9-0.6c-0.2-0.2-0.4-0.7-0.3-1c0-0.4,0.2-0.9,0.4-1.1L476,199.3z"/>
		<path class="st0" d="M326.4,249.5c-0.2-0.3,0-0.6,0.3-0.8s0.6,0,0.8,0.3c0.3,0.5,0,0.6,0,1l-0.5,1.1l-1.7,3.6l-4.9,9.2l-2.2,4.1
			l-1.4,2.4l-0.2,0.2l-0.5,0.3h-0.3c0,0-0.2,0-0.2-0.2c-0.2-0.2-0.2-0.2-0.2-0.3v-0.6v-0.2l1.4-2.4l2.2-4.1l4.9-9.2l1.7-3.4
			L326.4,249.5L326.4,249.5C326.2,249.4,326.4,249.5,326.4,249.5"/>
		<path class="st0" d="M310.4,269.2c-0.3,0.3-0.6,0.3-0.9,0c-0.3-0.3-0.3-0.6,0-1c0.3-0.3,0.6-0.3,0.9,0c0.2,0.2,0.2,0.3,0.2,0.6
			c0,0.2,0-0.3,0-0.3c0,0.2-0.3-0.3-0.2-0.3c0.2,0.2-0.3-0.2-0.2-0.2H310l0,0h0.2l1.2-0.8c0.2-0.2,0.5-0.2,0.6,0.2
			c0.2,0.2,0.2,0.5,0,0.5l-1.2,1.1L310.4,269.2L310.4,269.2C310.3,269.2,310.4,269,310.4,269.2 M407.5,217.2
			c-0.2,0.3-0.6,0.3-0.8,0.2c-0.3-0.2-0.3-0.5-0.2-0.8l0.3-0.5l0,0c0,0-0.3-0.2-1.1-0.2s-1.7,0-3.1,0.3c-2.9,0.6-7,2.1-11.4,3.6
			l-4.6,1.5c-2,0.6-4,1.3-6.3,2.1c-2.5,1-5.3,2.1-8.5,3.6c-2.5,1.1-5.1,2.4-7.9,3.9l-5.9,2.8l-10.2,4.9l-4.6,2.4
			c-3.2,1.8-6.6,3.7-9.7,5.8c-1.5,1-2.9,2.1-4.3,3.1l-3.6,2.6c-1.4,1-2.2,1.6-2.6,2.1c-0.3,0.3-0.6,0.8-0.9,1.3l-0.6,0.8
			c-0.8,1.1-1.7,2.1-2.5,2.9l-1.2,1.1l-1.2,1.6l-1.4,1.5l-0.9,1.3l-1.5,1.9l-0.6,1c-0.3,0.5-0.9,0.6-1.1,0.8c0,0-0.2,0-0.2,0.2
			l-0.6,0.3l-0.3,0.2h-0.2c-0.2,0-0.2,0-0.3,0s-0.3-0.2-0.5-0.2c-0.3-0.3-0.2-0.5-0.2-0.6c0-0.3,0.2-0.5,0.3-0.6l0.8-0.6
			c0,0,0.2,0,0.2-0.2l0.5-0.2l0,0l0.5-0.8l1.5-2.1l1.1-1.3l1.2-1.5c0.5-0.6,0.9-1.1,1.4-1.6l1.2-1.1c0.8-0.8,1.5-1.8,2.3-2.8
			l0.6-0.8c0.3-0.5,0.5-1,1.1-1.5c0.6-0.6,1.4-1.3,2.8-2.3l3.6-2.6c1.4-1,2.8-2.1,4.5-3.2c3.1-2.1,6.5-4.1,9.7-5.8l4.6-2.4l10.4-4.9
			l5.9-2.8c2.6-1.3,5.4-2.8,7.9-3.9c3.2-1.5,6-2.6,8.5-3.6c2.3-0.8,4.5-1.6,6.3-2.1l4.6-1.5c4.5-1.5,8.5-2.9,11.6-3.6
			c1.5-0.3,2.6-0.3,3.4-0.3s1.5,0.2,2,0.6c0.2,0.3,0.3,0.8,0.2,1.1C408,216.6,407.8,216.9,407.5,217.2"/>
		<path class="st0" d="M326.4,266.7c0.3,0,0.6,0.3,0.6,0.6c0,0.3-0.3,0.6-0.6,0.6c-0.3,0-0.6-0.3-0.6-0.6c0-0.2,0-0.3,0.2-0.3
			l-0.2,0.2c0-0.2,0,0.2,0,0.2l0,0l-0.2-0.5c0-0.2,0.2-0.5,0.3-0.5s0.3,0,0.5,0.2l0.2,0.3l0,0l0,0L326.4,266.7
			C326.5,266.9,326.2,266.7,326.4,266.7 M331.6,247.6c-0.2,0.3-0.5,0.5-0.8,0.3s-0.5-0.5-0.3-0.8c0.2-0.2,0.2-0.3,0.3-0.5
			c0.2-0.2,0.6-0.3,0.8,0c0.2,0.2,0.2,0.3,0.2,0.5c0,0.3,0,0.6,0,1.1c-0.3,2.1-0.9,5.7-2.2,9.4l-1.9,5.8l-0.5,1.8l-0.2,1.1
			c-0.2,0.3,0,0.8-0.3,1.5c-0.2,0.3-0.6,0.3-0.9,0.2c-0.3-0.2-0.3-0.6-0.2-1v-0.1l0.2-0.8l0.2-1.1l0.5-1.9l1.9-5.8
			c1.1-3.6,1.9-7.1,2.2-9.2l0.2-0.8l0,0c0,0,0.2,0.3,0.2,0.2c0,0,0.3,0.2,0.2,0.2S331.7,247.7,331.6,247.6
			C331.3,247.6,331.8,247.4,331.6,247.6l0.2-0.2L331.6,247.6z"/>
		<path class="st0" d="M354,233.3c-0.3,0-0.6-0.2-0.6-0.5s0.2-0.6,0.5-0.6c0.5-0.2,1.1,0.2,1.4,0.5s0.5,0.8,0.6,1.3
			c0.2,1,0.2,2.3,0.2,3.7c0,2.8-0.5,5.7-0.9,8.3l-1.2,6.2c0,0.2-0.2,0.2-0.2,0.3l-0.3,0.3c-0.2,0.2-0.5,0.2-0.6,0c0,0,0,0,0-0.2
			l-0.2-0.3c0-0.2,0-0.3,0-0.3l1.4-6c0.5-2.6,0.9-5.4,0.9-8c0-1.3,0-2.6-0.2-3.4l-0.3-0.8C354.2,233.3,354.2,233.3,354,233.3"/>
		<path class="st0" d="M353.7,242.2c0.2,0.3,0,0.6-0.3,0.8s-0.6,0-0.6-0.3c0,0,0.3,0.3,0.2,0.2c-0.2,0,0.3,0,0.3,0
			c-0.2,0,0.2,0,0.2,0l-0.5,0.5l-1.7,1.9c-0.8,0.8-1.7,1.5-2.5,2.1c-1.1,0.6-1.9,1-2.6,1.6c-0.2,0.2-0.5,0.2-0.6,0
			c-0.2-0.2-0.2-0.3,0-0.5c0.8-1,1.5-1.5,2.3-2.3c0.9-0.6,1.7-1.3,2.5-1.9l1.9-1.8l0.6-0.6c0.2,0,0.3-0.2,0.5-0.2
			C353.3,241.7,353.6,242.1,353.7,242.2"/>
		<path class="st0" d="M407.1,190.8c0.5-0.2,0.8,0.2,0.9,0.6c0.2,0.5-0.2,0.8-0.6,1l-138.1,28.7c-0.5,0.2-0.8-0.2-0.9-0.6
			c-0.2-0.5,0.2-0.8,0.6-1L407.1,190.8z"/>
		<path class="st0" d="M286.5,246.6c0.3,0.2,0.3,0.6,0.2,1c-0.2,0.3-0.6,0.3-0.9,0.2c-0.3-0.2-0.3-0.6-0.2-1
			c0.2-0.2,0.3-0.3,0.6-0.3c0.2,0-0.3,0-0.2,0h-0.2l0.3-0.3c0.2-0.2,0.5-0.2,0.6,0c0.2,0.2,0.2,0.3,0.2,0.5l-0.2,0.3v-0.2v-0.2
			C286.8,246.9,286.5,246.6,286.5,246.6 M307.2,216.3c0,0.3-0.3,0.5-0.6,0.5c-0.3,0-0.5-0.3-0.5-0.6v-0.8v0.2l0.3,0.2
			c-0.2,0,0.3,0,0.3,0l0,0l-1.4,1.8l-3.4,4.9l-4.3,6.7c-2.3,3.9-4.6,7.6-6.3,10.5l-1.5,2.8c-0.5,0.8-0.6,1.3-0.9,1.8l-0.9,1.6
			l-0.8,1.5l-0.3,0.5l-0.2,0.2l-0.2,0.2c0,0-0.2,0.2-0.5,0.2c-0.3,0-0.6-0.3-0.6-0.5c-0.2-0.3,0.2-0.8,0.5-1
			c0.3-0.2,0.8,0.2,0.9,0.5c0,0.2,0,0.2,0,0.3v-0.3c0,0.2-0.3-0.5-0.2-0.3c0.2,0.2-0.5-0.2-0.3-0.2c0.2,0-0.3,0-0.2,0
			c0.2,0-0.3,0-0.2,0h-0.2l0,0l0.3-0.3l0.8-1.3l0.8-1.6c0.2-0.5,0.5-1.1,0.9-2.1l1.5-2.8c1.7-2.9,3.9-6.7,6.3-10.5l4.3-6.7l3.4-4.9
			c0.8-1,1.2-1.8,1.9-2.1c0.2-0.2,0.5-0.2,0.8,0s0.5,0.5,0.5,0.6C307.3,215.3,307.3,215.8,307.2,216.3 M286.8,247.2
			c0,0.5-0.3,0.8-0.8,0.8s-0.8-0.3-0.8-0.8s0.3-0.8,0.8-0.8S286.8,246.8,286.8,247.2"/>
		<path class="st0" d="M277.5,237.7c-0.3,0.2-0.6,0.2-0.8,0c-0.2-0.3-0.2-0.6,0-0.8c0.3-0.2,0.6-0.2,0.8,0c0.2,0.2,0.2,0.3,0.2,0.5
			s0-0.3,0-0.2c0,0.2-0.2-0.3-0.2-0.2c0,0.2-0.2-0.2-0.2-0.2h-0.2l0,0h0.2l1.2-0.3c0.2,0,0.5,0,0.5,0.3c0,0.2,0,0.5-0.2,0.5
			l-1.2,0.6L277.5,237.7L277.5,237.7L277.5,237.7C277.5,237.7,277.7,237.5,277.5,237.7 M294.5,232.2c0,0.3-0.3,0.6-0.6,0.6
			c-0.3,0-0.5-0.3-0.6-0.6l0.2,0.2h-0.2c-0.3,0-1.1,0.2-1.9,0.5c-1.7,0.6-3.7,1.6-5.7,2.4c-2,0.8-3.9,1.3-5.4,1.8l-1.9,0.6l-0.8,0.2
			h-0.2h-0.3c-0.2,0-0.3,0-0.3-0.2c-0.5-0.3-0.3-0.6-0.2-0.8l0.2-0.2l0.3-0.3l0.8-0.5l2.2-0.6c1.4-0.5,3.2-1,5.3-1.6
			c2-0.8,4.2-1.6,5.9-2.3c0.8-0.3,1.5-0.5,2.2-0.5c0.3,0,0.6,0,0.9,0.3C294.4,231.3,294.5,231.8,294.5,232.2"/>
		<path class="st0" d="M322.8,208.8c0.3,0,0.5,0.3,0.5,0.6s-0.3,0.5-0.6,0.5h-0.5l-0.2,0.2c-0.2,0.2-0.2,0.6-0.3,1.3
			c-0.2,1.3-0.2,2.9-0.8,5.8l-1.2,4.5l-2.8,9.4l-1.7,6.8c-0.3,1.6-0.6,2.9-0.6,3.9c-0.2,1.1-0.5,2.1-1.1,2.6
			c-0.3,0.2-0.8,0.3-1.1,0.3l-1.2-0.3c-0.2,0-0.3-0.3-0.3-0.5s0.3-0.3,0.5-0.3l0.9,0.2l0.3-0.2c0.2-0.2,0.3-0.6,0.3-1.8
			c0.2-1,0.3-2.4,0.6-4.1l1.7-7l2.8-9.4l1.4-4.4c0.8-2.8,0.8-4.2,0.9-5.7c0-0.6,0.2-1.3,0.6-1.8c0.2-0.3,0.5-0.5,0.8-0.6
			C322,208.6,322.3,208.6,322.8,208.8"/>
		<path class="st0" d="M313.5,239.5c-0.2,0.3-0.5,0.5-0.8,0.5c-0.3-0.2-0.5-0.3-0.5-0.6l0,0c0-0.2,0.3,0.3,0.3,0.2c0,0,0.2,0,0,0
			l-0.3,0.2c-0.5,0.2-1.4,0.8-2.3,1.5l-3.1,2.6l-7.3,6.3l-4.6,4.2l-3.2,3.1l-0.8,1l-0.2,0.2l0,0l0,0v-0.2c0,0,0-0.3,0-0.2
			c0,0-0.2-0.3,0-0.2c0,0.2-0.3-0.3-0.2-0.2h-0.2h-0.2h-0.2l1.5-1.5c0.2-0.2,0.5-0.2,0.6,0c0.2,0.2,0.2,0.5,0,0.6l-1.2,1.3l-0.5,0.5
			c0,0-0.2,0.2-0.5,0c-0.3-0.2-0.3-0.3-0.3-0.5c0-0.5,0.2-0.5,0.3-0.6l0.8-1l3.1-3.2l4.5-4.4l7.3-6.3l3.2-2.8
			c0.9-0.8,1.9-1.3,2.6-1.6c0.3-0.2,0.8-0.3,1.1,0c0.2,0.2,0.5,0.3,0.5,0.6L313.5,239.5z"/>
		<path class="st0" d="M304.4,263.6c-0.2,0.3-0.5,0.5-0.8,0.3c-0.3-0.2-0.5-0.5-0.3-0.8c0.2-0.3,0.5-0.5,0.8-0.3
			c0.2,0,0.3,0.2,0.3,0.5c0,0.2-0.2-0.3-0.2-0.3l-0.2-0.2c0.2,0-0.3,0-0.3,0c0.2,0-0.3,0-0.2,0h-0.2l0,0v-0.2l0.5-1.3
			c0-0.2,0.3-0.3,0.5-0.3s0.3,0.3,0.3,0.5l-0.3,1.3L304.4,263.6L304.4,263.6z M310.3,243.2c-0.3,0-0.6-0.3-0.6-0.6s0.2-0.5,0.5-0.6
			c0.2,0,0.5,0,0.6,0.3l0.2,0.5v0.8l-0.6,2.1c-0.6,1.8-1.4,4.1-2.3,6.5s-2,4.9-2.6,6.8c-0.3,1.1-0.6,2.1-0.8,2.9l-0.3,1.5
			c0,0,0-0.2,0,0c0,0.2,0,0.2-0.2,0.3c-0.3,0.3-0.6,0.2-0.8,0.2c-0.3-0.3-0.3-0.5-0.3-0.6v-1.5c0.2-1,0.5-2.1,0.8-3.2
			c0.8-2.1,1.9-4.5,2.8-6.8l2.5-6.5l0.6-1.9v-0.5v0.2c0,0,0.3,0.3,0.2,0.2C310,243,310.4,243.2,310.3,243.2"/>
		<path class="st0" d="M351.1,205.7c-0.3-0.2-0.5-0.5-0.3-0.8s0.5-0.5,0.6-0.3c0.3,0,0.5,0.3,0.6,0.5c0.2,0.2,0.2,0.5,0.2,0.8
			c0,0.5-0.2,1.1-0.3,1.8c-0.5,1.5-1.4,3.4-2.6,5.5c-2.6,4.2-6.5,8.9-9.3,12.7c-1.2,1.8-2.3,3.2-2.6,4.1l-0.2,0.3l0,0l-0.2-0.2h0.2
			l0.8-0.3c0.2-0.2,0.5,0,0.5,0.2c0.2,0.2,0,0.5-0.2,0.5c-0.6,0.3-1.1,0.6-1.5,0.5c-0.3-0.2-0.5-0.5-0.5-0.6l0.2-0.8
			c0.5-1.1,1.4-2.6,2.6-4.4c2.8-3.9,6.3-8.6,9-12.8c1.4-2.1,2.3-3.9,2.6-5.2C350.9,206.7,351.1,206.2,351.1,205.7L351.1,205.7
			L351.1,205.7z"/>
		<path class="st0" d="M323.1,223.2c0,0.3-0.2,0.5-0.5,0.5s-0.5-0.2-0.5-0.5s0.2-0.5,0.5-0.5c0.2,0,0.2,0,0.3,0h-0.2
			c0.2,0-0.2,0-0.2,0l0,0l1.1-0.3c0.2,0,0.5,0,0.5,0.3c0,0.2,0,0.5-0.3,0.5l-1.1,0.5l0,0l0,0l0,0v-0.2
			C323.1,223.4,323.1,223.1,323.1,223.2 M341.4,218c0.3,0,0.6,0.3,0.6,0.6s-0.3,0.6-0.6,0.6c-1.4,0-2.6-0.2-4.6,0.2
			c-1.4,0.3-3.2,1-5.3,1.6l-6.2,2.1l-2.5,0.6h-0.2h-0.2c0,0-0.2,0.2-0.3-0.2c-0.2-0.2-0.2-0.3,0-0.5c0.2-0.5,0.2-0.3,0.3-0.3h0.2
			l2.3-0.8l6.3-1.9c2-0.6,3.7-1.3,5.4-1.6C338.7,217.9,340.1,218.2,341.4,218"/>
		<path class="st0" d="M348.3,217.4c0.2-0.2,0.6-0.3,0.8,0c0.2,0.2,0.2,0.3,0.2,0.5v1.8c0,1.8,0.2,4.2,0.5,6.5
			c0.2,1.6,0.5,2.9,0.8,3.9c0.2,0.5,0.3,0.6,0.5,0.8s0.3,0.2,0.6,0c0.2-0.2,0.5,0,0.5,0.2s0,0.3-0.2,0.5c-0.5,0.3-0.9,0.3-1.4,0.2
			c-0.5-0.2-0.8-0.6-1.1-1.1c-0.6-1.1-1.1-2.6-1.4-4.2c-0.3-2.4-0.5-4.9-0.3-6.8C347.9,218.8,347.9,218,348.3,217.4"/>
		<path class="st0" d="M349.4,225c0.3,0,0.5,0.3,0.5,0.6s-0.3,0.5-0.6,0.5l0,0c-0.6-0.2-1.2,0.2-1.9,0.6l-1.7,1.6
			c-0.2,0.2-0.5,0.2-0.6-0.2c-0.2-0.2-0.2-0.5,0-0.5c0.5-0.3,0.9-1.1,1.7-1.6C347.5,225.5,348.5,224.9,349.4,225"/>
		<path class="st0" d="M405.1,171.6c-0.3,0-0.6-0.2-0.6-0.5s0.2-0.6,0.5-0.6h0.2h0.6l0,0l-0.2-0.5c-0.2-0.2-0.2-0.5,0.2-0.6
			c0.2-0.2,0.5-0.2,0.6,0c0.3,0.3,0.5,0.5,0.5,0.8s0,0.6-0.3,0.8C405.8,171.6,405.4,171.6,405.1,171.6"/>
		<path class="st0" d="M404.6,169.8c0,0.3-0.3,0.5-0.6,0.3c-0.3,0-0.5-0.3-0.3-0.6s0.3-0.5,0.6-0.3c0.2,0,0.3,0.2,0.3,0.3v-0.2
			l-0.2-0.2l0,0C404.8,169.5,404.8,169.7,404.6,169.8c0,0.2-0.2,0.2-0.2,0.3l0,0l0,0L404.6,169.8C404.6,170,404.6,169.7,404.6,169.8
			 M404.8,169.7c0,0.3-0.3,0.6-0.6,0.6c-0.3,0-0.6-0.3-0.6-0.6s0.3-0.6,0.6-0.6C404.4,169,404.8,169.4,404.8,169.7"/>
		<path class="st0" d="M406,169.4c0.2,0.3,0.2,0.6-0.2,0.8c-0.3,0.2-0.6,0.2-0.8-0.2c0,0,0,0,0-0.2c-0.2-0.5,0-0.8,0.2-1l0.5-0.5
			l-0.2,0.2c0,0,0,0.3,0,0.2c0-0.2,0.2,0.3,0.2,0.3c0-0.2,0.2,0.2,0.2,0.2l0,0l-0.5,0.2c-1.4,0.2-3.2,0.3-4.9,0.8
			c-2,0.5-4.8,1.3-7.3,1.8c-2.9,0.5-4.6,0-7.3,0.5c-1.9,0.3-4,1-6.8,1.6l-4.6,1l-8.7,1.5c-3.4,0.5-7,1-10.7,1.5
			c-7.7,0.8-14.5,0.8-21.2,0.6l-7.4-0.2h-7.7c-3.6,0-6.5-0.6-9.3-1.3c-5.9-1.5-12.8-2.3-18.6-3.1c-5.1-0.6-9.9-1.8-13-1.9
			c-1.2,0-2.2,0-2.8,0.2c-1.2,0.3-2.5,1.6-4.3,1.9c-0.8,0.2-1.5,0-2.2,0c-0.9,0-2.2,0.5-3.4,0.8l-2.5,0.6l-1.1,0.3
			c-0.6,0.2-1.2,0.5-1.7,1c-0.3,0.2-0.8,0.5-1.1,0.6c-0.3,0.2-0.5,0-0.8,0c-0.3-0.2-0.5-0.5-0.5-0.6c0-0.2,0-0.3,0-0.3v-0.2
			c0.2-0.2,0.3-0.5,0.5-0.5l0.8-0.5c0.6-0.5,1.2-1,2.2-1.3l1.2-0.3l2.5-0.6c1.2-0.3,2.5-0.8,3.7-0.8h1.9c1.4-0.3,2.5-1.5,4.2-1.9
			c1.1-0.3,2.2-0.3,3.4-0.2c3.4,0.2,8,1.3,13.1,1.9c5.7,0.8,12.7,1.6,18.9,3.1c2.6,0.6,5.4,1.3,8.8,1.5h7.7l7.4,0.2
			c6.5,0.2,13.3,0.2,20.9-0.6c3.6-0.3,7.3-0.8,10.5-1.5l8.7-1.5l4.5-0.8c2.6-0.5,4.9-1.1,6.8-1.5c2.9-0.5,4.8,0.2,7.4-0.3
			c2.3-0.3,5.1-1.1,7.3-1.6c1.9-0.5,3.7-0.5,4.9-0.6c0.5,0,0.6,0,0.9,0.2c0.2,0,0.3,0.2,0.5,0.5c0,0.2,0,0.3-0.2,0.5L406,169.4
			l0.3-0.2L406,169.4L406,169.4z"/>
		<path class="st0" d="M293.6,173.1c-0.3,0.2-0.6,0-0.8-0.2c-0.2-0.2-0.2-0.5,0.2-0.6l-0.2,0.2c0,0,0,0.3,0,0.2c0-0.2,0.2,0.5,0,0.3
			l0.2,0.2c0,0,0.2,0.2,0.2,0l0,0c-0.2,0,0,0,0,0h-0.3l-1.2,0.3c-0.9,0.3-2,1.5-3.6,3.1l-3.6,3.4l-3.7,3.2l-6.2,5.5l-5.9,5l-1.1,1
			l0,0v-0.3c0,0.2-0.2-0.2-0.2-0.2l0,0c0.3,0,1.2-0.2,2.2-0.5c0.2,0,0.5,0,0.5,0.3c0,0.2,0,0.5-0.3,0.5c-1.4,0.5-2.2,1-2.9,0.6
			c-0.2,0-0.5-0.3-0.6-0.6c0-0.3,0.2-0.5,0.2-0.6c0.3-0.5,0.6-0.8,1.2-1.3l5.9-5l6.2-5.5l3.6-3.2l3.6-3.4c1.7-1.6,2.8-2.9,4.2-3.2
			c0.6-0.2,1.1-0.3,1.5-0.3h0.5l0.3,0.2c0,0,0.2,0,0.3,0.3C293.9,172.6,293.7,172.9,293.6,173.1"/>
		<path class="st0" d="M321.1,180.2c0.2,0.3,0,0.6-0.3,0.8s-0.6,0-0.8-0.3l0,0l-0.5,0.2c-0.6,0.3-1.7,1.1-3.2,2.3l-6.2,4.9
			l-15.9,12.8l-5.3,4.4l-2.2,1.8l-0.6,0.5l-0.5,0.2h-0.5c-0.3-0.2-0.5-0.6-0.5-0.8l0.2-0.3c0.2-0.2,0.3-0.3,0.5-0.3l0.9-0.5
			c0.2-0.2,0.5,0,0.6,0.2c0.2,0.2,0,0.3,0,0.5l-0.3,0.5v0.2l0,0c0,0,0-0.3,0-0.2c0,0.2,0,0.5,0,0.6v-0.2c0,0,0-0.3,0-0.2
			c0,0.2-0.2-0.5,0-0.3c0,0.2-0.3-0.3-0.2-0.3c0,0-0.3-0.2-0.2-0.2c0.2,0-0.3,0-0.3,0h-0.2h-0.2l0,0l0.5-0.3l2.2-1.8l5.3-4.4
			l15.9-12.8l6.2-4.9c1.7-1.1,2.8-1.9,3.7-2.3c0.5-0.2,0.8-0.3,1.2-0.2C320.6,179.6,321,179.9,321.1,180.2"/>
		<path class="st0" d="M303.2,173.6c0.3-0.2,0.6-0.2,0.8,0.2c0.2,0.3,0.2,0.5-0.2,0.8c-0.2,0.2-0.5,0.2-0.6,0.2l-0.5-0.2l-0.6-0.5
			l-1.9-1.9c-0.6-0.6-1.5-1.5-2.5-2.4c-1.7-1.9-3.2-5-4.8-7.6c-1.5-2.6-2.9-4.9-4.2-6.3c-1.1-1.1-2.2-1.5-3.4-1.8
			c-1.2-0.3-2.2-0.5-2.6-0.5l0,0l0.2-0.3v0.2l0.5,0.5c0.2,0.2,0.2,0.5,0,0.6c-0.2,0.2-0.3,0.2-0.5,0c-0.5-0.3-0.8-0.6-0.9-1.1
			c-0.2-0.2-0.2-0.6,0-0.8c0.2-0.3,0.5-0.3,0.6-0.5c0.8-0.3,2-0.2,3.1,0c1.4,0.3,3.1,0.8,4.5,2.4c1.4,1.6,2.6,4.1,4.2,6.7
			c1.5,2.8,2.9,5.7,4.5,7.5c0.8,1,1.5,1.6,2.3,2.4l1.7,1.9l0.5,0.5l0,0L303.2,173.6L303.2,173.6z"/>
		<path class="st0" d="M291.1,159.5c-0.2,0.3-0.6,0.3-0.8,0.2c-0.2-0.2-0.3-0.5-0.2-0.8l0,0v-0.2l-0.5-0.6l-1.9-1.8
			c-1.1-1-1.9-2.1-2.9-3.1c-2.2-1.6-6.3-1.9-10.5-1.8c-3.2,0-6,0-8.5-0.3l-2.6-0.5c-1.1-0.2-2.5-0.2-3.6-0.2h-1.4H258h-0.2l0,0
			l0.2-0.2c0,0,0.2-0.5,0.2-0.3v-0.3c0,0.2-0.2-0.3-0.2-0.2l-0.2-0.2l0,0h0.2l0.9,0.2c0.8,0.2,1.9,0.3,2.6,1
			c0.2,0.2,0.2,0.3,0.2,0.6c-0.2,0.2-0.3,0.2-0.5,0.2c-0.6-0.3-1.5-0.5-2.3-0.6h-1.1h-0.5c-0.2,0-0.3,0-0.6-0.3l0.2,0.2
			c-0.2-0.2-0.5-0.5-0.5-0.8s0.2-0.5,0.2-0.6c0.2-0.3,0.5-0.5,0.8-0.5h0.2h1.4c1.1,0,2.5-0.2,3.9,0.2l2.5,0.5
			c2.3,0.3,4.9,0.3,8.2,0.3c4.2,0,8.7,0,11.4,2.3c1.2,1.1,2,2.3,2.9,3.2c0.6,0.6,1.4,1.3,1.9,1.9l0.6,1
			C291.3,158.6,291.3,159.1,291.1,159.5"/>
		<path class="st0" d="M257.6,166.6c-0.2,0.3-0.5,0.3-0.8,0.2c-0.3-0.2-0.3-0.5-0.2-0.8c0.2-0.3,0.5-0.3,0.8-0.2l0,0
			c0.2,0-0.3-0.2-0.2-0.2s-0.2,0-0.2,0c0.2,0-0.2,0-0.2,0l0,0l0.8-0.8c0.2-0.2,0.5-0.2,0.6,0c0.2,0.2,0.2,0.3,0,0.5L257.6,166.6
			L257.6,166.6C257.6,166.6,257.7,166.4,257.6,166.6 M274.3,150.7c0.3,0.2,0.3,0.6,0,0.8c-0.2,0.3-0.6,0.3-0.8,0h-0.2l-0.6,0.2
			c-0.5,0.2-1.2,0.6-2,1.6c-1.5,1.5-3.1,4.1-5.4,6.5c-1.9,1.9-3.9,3.9-5.6,5.2l-1.9,1.5l-0.5,0.3l0,0c-0.3,0.2-0.6,0.2-0.8-0.2
			c0,0-0.2-0.2-0.2-0.3v-0.4l0.2-0.2l0.6-0.5l1.7-1.3c1.5-1.5,3.7-3.2,5.4-5.2c2.2-2.4,3.9-4.9,5.4-6.5c0.9-1,1.7-1.5,2.5-1.8
			l0.9-0.2C273.6,150.4,273.9,150.4,274.3,150.7"/>
		<path class="st0" d="M274.9,149.2c-0.3-0.2-0.5-0.5-0.3-0.8c0.2-0.3,0.3-0.3,0.6-0.3l0,0H275l-0.2,0.2c0.2,0-0.3,0.5-0.2,0.3
			c0-0.2,0,0.3,0,0.3l0,0l-0.2-0.3l-1.9-2.4c-0.8-1.3-1.7-2.9-2.6-4.9c-1.5-2.9-3.1-6.3-4.8-9.4c-1.7-2.9-3.7-5.2-5.3-6.7l-1.4-1.1
			l-0.3-0.2l0,0c0,0,0.3,0,0.2,0s-0.3,0-0.5-0.2h0.2c0,0,0.5,0,0.3,0c-0.2,0,0.5-0.3,0.5-0.2c-0.2,0.2,0.2-0.3,0.2-0.3V123v0.2
			c0.2,0.3,0.6,1.1,1.4,1.9c0.2,0.2,0.2,0.5,0,0.6c-0.2,0.2-0.3,0.2-0.5,0l-1.9-1.8l-0.5-0.5c0-0.2-0.2-0.2-0.2-0.5s0.2-0.8,0.5-1
			c0.2-0.2,0.3-0.2,0.5-0.2c0.6,0,0.9,0.2,1.4,0.5l1.5,1.3c1.7,1.6,3.7,4.1,5.6,7.1c1.9,3.2,3.4,6.7,4.8,9.6
			c0.9,1.9,1.7,3.6,2.5,4.7l1.5,2.6c0.2,0.3,0.5,0.5,0.3,1c0,0.3-0.6,0.6-0.8,0.5L274.9,149.2z"/>
		<path class="st0" d="M329.8,173.9c0.2,0.3,0,0.6-0.3,0.8s-0.6,0-0.8-0.3c-0.5-0.8-1.2-1.5-2.2-2.4c-0.5-0.6-0.8-1.3-1.2-2.3
			c-0.6-1.5-1.5-3.2-2.9-5.4c-0.8-1.1-1.7-2.3-2.6-3.2c-1.2-1.5-2.6-2.6-4-3.7c-2-1.6-3.4-2.8-4.6-3.4l-2-1.3
			c-0.8-0.8-1.4-1.8-1.2-2.6c0-0.5,0.3-0.8,0.6-1.1c0.3-0.3,0.8-0.5,1.4-0.6c0.2,0,0.5,0.2,0.5,0.3c0,0.2,0,0.5-0.3,0.5
			c-0.5,0.2-0.8,0.5-0.9,0.6l-0.2,0.3c0,0.2,0.3,0.6,0.9,1l2,1.3c1.2,0.8,2.8,1.9,4.8,3.6c1.4,1.1,2.8,2.4,4.2,4.1
			c0.9,1.1,2,2.3,2.8,3.6c1.4,2.3,2.2,4.2,2.8,5.5l0.9,2.1C328.5,171.9,329.3,172.8,329.8,173.9"/>
		<path class="st0" d="M308.3,148.7c0.2-0.3,0.5-0.5,0.8-0.5s0.5,0.3,0.5,0.6c0,0.2-0.2,0.5-0.3,0.6l-0.5,0.2l-0.8-0.2l-1.7-0.3
			c-1.9-0.3-4.8,0.5-7.4,0c-2.3-0.5-4.2-2.1-6.2-3.7c-1.4-1.1-2.6-1.9-3.2-3.1c0,0,0-0.2-0.2-0.2c-0.2-0.5,0-1,0.2-1.3
			c0.3-0.3,0.6-0.5,0.9-0.6c0.2,0,0.5,0,0.5,0.3c0,0.2,0,0.3-0.2,0.5l-0.2,0.2h0.2l0.2,0.2c0.3,0.5,1.5,1.5,2.9,2.6
			c1.9,1.6,3.7,3.1,5.4,3.6c2.2,0.5,4.9-0.3,7.3,0c0.8,0.2,1.4,0.3,1.9,0.5l0.5,0.2l0,0h-0.2l-0.2,0.2
			C308.4,148.6,308.3,148.7,308.3,148.7"/>
		<path class="st0" d="M405.8,123.8c0.3,0,0.6,0.3,0.5,0.6l0,0c0,0.3-0.2,0.3-0.3,0.5l-0.2,0.2l-0.8,0.2c-0.6,0-1.4,0.2-2,0
			c-0.2,0-0.2-0.2-0.3-0.2c-0.2-0.2-0.3-0.3-0.3-0.6c0-0.3,0.2-0.5,0.2-0.6c0.2-0.2,0.5-0.2,0.6,0l0,0l-0.2-0.2h-0.2h0.2
			c0.2,0,0.2,0,0.3,0c0.3,0.2,0.9,0.2,1.5,0.2L405.8,123.8L405.8,123.8z M405.7,125.1c-0.3,0-0.6-0.3-0.6-0.6c0-0.3,0.2-0.6,0.5-0.6
			h0.2h-0.2c0.3,0,0.6,0.2,0.8,0.5c0,0.3-0.2,0.6-0.5,0.8c-0.3,0-0.6-0.2-0.6-0.5c0-0.2,0.2,0.3,0.2,0.2
			C405.4,124.7,405.5,124.9,405.7,125.1L405.7,125.1C405.5,124.9,405.7,125.1,405.7,125.1L405.7,125.1z"/>
		<path class="st0" d="M407.1,126.2c-0.3,0.2-0.6,0.2-0.8-0.2c-0.2-0.2-0.2-0.5,0-0.8l0,0c0,0-0.2,0.3,0,0.3c0,0,0,0.3,0,0.2
			c0,0,0.2,0.3,0.2,0.2l0.2,0.2h0.2h-0.6l-2.3,0.2c-0.8,0-1.5-0.2-2.3-0.5c-1.1-0.5-1.7-1.5-2.3-1.9c-0.9-0.8-2.5-1.3-4.5-1.6
			c-2-0.3-4.5-0.5-7-0.6c-6-0.6-13-2.4-20.7-3.4c-7-0.8-13.9-1.3-20.7-2.8c-7.4-1.6-16.1-3.6-24.3-6.5c-3.7-1.3-7.1-2.9-10.1-4.5
			l-8.2-4.5c-2.5-1.3-4.9-2.3-7-3.1c-2.5-1-4.3-2.3-5.9-3.1c-0.9-0.5-1.7-1-2.8-1.3c-2.2-0.6-5.1-0.6-7.6-0.8
			c-2.6-0.2-4.2-0.8-5.6-1.1c-1.2-0.3-2.5-0.3-3.7-0.3l-1.7-0.2h-0.2c-0.8-0.3-1.4-0.6-2.2-1c-0.2-0.2-0.3-0.3-0.2-0.6
			c0.2-0.2,0.3-0.2,0.5-0.2c0.8,0.2,1.4,0,2,0h0.2l1.7,0.2c1.2,0,2.6,0,4,0.3c1.5,0.5,2.9,1,5.3,1.1c2.3,0.2,5.4,0,8,0.6
			c1.2,0.3,2.3,0.8,3.2,1.5c1.7,1,3.2,2.1,5.7,3.1c2,0.8,4.5,1.8,7.1,3.2l8.2,4.4c2.9,1.6,6.3,3.1,9.9,4.4c8,2.9,16.5,4.9,24,6.5
			c6.8,1.5,13.6,2.1,20.6,2.9c4,0.5,7.7,1.1,11.3,1.8c3.4,0.6,6.6,1.3,9.6,1.6c5.1,0.5,9.7,0.3,12.4,2.6c0.9,0.8,1.4,1.6,2,1.8
			c0.5,0.3,1.1,0.3,1.7,0.5l2.2,0.2l0.8,0.2c0.2,0,0.5,0.2,0.5,0.6C407.4,125.9,407.1,126,407.1,126.2"/>
		<path class="st0" d="M278.7,92.8c0.3,0,0.5,0.3,0.5,0.6c0,0.3-0.3,0.5-0.6,0.5c-1.1-0.2-2.2,0.3-3.9,1.1l-2.8,1.5l-9.4,4.9
			c-1.4,0.6-2.6,1.3-3.4,1.6l-0.5,0.2c-0.2,0-0.5,0.2-0.6-0.3c-0.2-0.3,0-0.5,0.2-0.6l0.5-0.5c0.2-0.2,0.5-0.2,0.6,0
			c0.2,0.2,0.2,0.5,0,0.6l-0.3,0.3l0,0v-0.2c0,0-0.2-0.3-0.2-0.2l-0.2-0.2h-0.2l0.3-0.2l3.2-1.6l9.3-5l2.9-1.5
			C275.8,93.1,277.2,92.4,278.7,92.8"/>
		<path class="st0" d="M273.6,64.2c0,0.5-0.5,0.8-1.1,0.8c-0.5,0-0.8-0.5-0.8-1.1c0-0.6,0.5-0.8,1.1-0.8c0.3,0,0.6,0.3,0.8,0.6
			c0,0.2,0-0.2,0-0.2l0,0V64.2l1.4,2.9c0.2,0.2,0,0.5-0.2,0.5c-0.2,0.2-0.5,0-0.5-0.2c-0.8-1.5-1.4-2.3-1.7-2.6l0,0h0.2h0.2h0.2
			c-0.2,0,0.5-0.2,0.3-0.2c-0.2,0,0.3-0.3,0.3-0.2c0,0,0.2-0.3,0.2-0.2C273.6,64.5,273.6,64,273.6,64.2 M286.2,90.8
			c0.3,0.2,0.5,0.5,0.3,0.8c-0.2,0.3-0.3,0.5-0.6,0.3c-0.8-0.2-1.2-0.6-1.9-1.5c-0.6-0.8-1.2-2.1-2.2-3.7c-1.1-1.8-2.3-3.9-3.7-6.5
			c-2.3-4.4-4.3-9.4-5.6-12.8c-0.5-1.3-0.6-2.1-0.8-2.8c0-0.2,0-0.2,0-0.3s0-0.5,0.2-0.6l0.3-0.5c0.2-0.2,0.6-0.3,1.1,0
			c0.2,0,0.2,0.2,0.3,0.3l0.2,0.2L274,64c0,0.2,0,0.2,0.2,0.3l0.8,2.4c1.1,3.4,2.9,8.3,5.1,12.7l3.6,6.5l1.9,3.7
			C285.5,90.3,285.9,90.6,286.2,90.8"/>
		<path class="st0" d="M276,116.1c0,0.3-0.3,0.5-0.6,0.3c-0.3,0-0.5-0.3-0.5-0.6c0-0.3,0.3-0.5,0.6-0.3c0.2,0,0.2,0,0.3,0.2
			l-0.2-0.2h-0.2c0.2,0-0.2,0-0.2,0l0,0l0.8-0.5c0.2-0.2,0.5,0,0.6,0.2c0.2,0.2,0,0.5-0.2,0.5l-0.8,0.6l0,0l0,0l0,0
			C276,116.3,276.1,116,276,116.1 M300.9,98.6c0.3,0.2,0.5,0.5,0.3,0.8s-0.5,0.5-0.8,0.3c-0.2,0-0.6,0-1.2,0.3l-2.6,1.5
			c-2.3,1.5-5.6,3.4-8.7,5.4c-1.9,1.3-3.6,2.4-4.8,3.6l-3.2,2.9c-0.9,0.8-1.7,1.5-2.3,1.9l-1.5,1c0,0,0.2,0.2-0.5,0
			c-0.2,0-0.3-0.2-0.3-0.3c-0.2-0.5,0-0.5,0-0.5v-0.2l1.4-1.3l2.3-1.9l3.2-2.9c1.4-1.1,2.9-2.4,4.9-3.7c3.1-2.1,6.3-3.9,8.8-5.4
			c1.1-0.6,2-1.1,2.8-1.5C299.3,98.6,300.1,98.3,300.9,98.6"/>
		<path class="st0" d="M306,81.7c0.2,0.3,0.2,0.6-0.2,0.8c-0.3,0.2-0.6,0.2-0.8-0.2c-1.1-1.3-1.5-2.3-2.2-3.1
			c-1.1-1.5-3.1-3.2-4.8-4.5c-2.3-1.9-4.6-3.1-6.8-5c-1.5-1.3-2.9-2.8-5.3-4.5c-1.5-1.1-3.6-1.6-5.1-2.4c-0.9-0.5-1.7-1.3-2.2-1.9
			l-0.6-1c-0.2-0.3-0.3-0.8-0.2-1.5c0-0.2,0.2-0.3,0.3-0.5c0.3-0.3,0.6-0.3,0.9-0.3l0.6,0.2l2,1c0.2,0.2,0.3,0.3,0.2,0.5
			c-0.2,0.2-0.3,0.3-0.5,0.2c-0.9-0.3-1.5-0.3-1.9-0.3h-0.2c0,0,0.2-0.2,0.2,0c0,0,0.2-0.5,0.2-0.3s0-0.5,0-0.3s0,0.5,0,0.6
			s0-0.3,0-0.2v-0.2l0,0l0.3,0.6c0.3,0.5,0.9,1.1,1.4,1.5c1.4,0.6,3.4,1.1,5.4,2.6c2.5,1.8,4,3.4,5.4,4.5c2,1.8,4.2,2.9,6.6,5.2
			c1.7,1.6,3.7,3.6,4.8,5.2C304.7,79.5,305,80.4,306,81.7"/>
		<path class="st0" d="M290.2,38.7c0,0.3-0.3,0.5-0.6,0.5c-0.3,0-0.5-0.3-0.5-0.6l-0.3-0.5l0.2,0.2h0.3c-0.2,0,0.3-0.3,0.3-0.2
			c0,0.2,0-0.3,0-0.3v0.1c0,0.2,0-0.2,0-0.2l0.2,0.3L290.2,38.7c1.1,2.4,1.7,5,2.2,8.1c0.9,4.9,2.6,9.7,4,13
			c1.1,2.3,1.4,4.9,2.2,6.8c0.3,1,0.8,1.8,1.4,2.6l2,3.1l1.2,2.1c1.7,2.9,3.9,4.5,5.3,7.3c1.4,2.8,1.7,6,2.5,9.7
			c0.3,1.5,0.6,2.6,1.1,4.1c0.5,1.1,1.1,2.4,1.7,3.7c0.3,0.6,0.6,1.3,0.9,2.1l0.2,1v0.2l0,0c0,0-0.3-0.2-0.2-0.2
			c0.6,0.3,0.9,1,0.6,1.6s-0.9,1-1.5,0.6c-0.3-0.2-0.6-0.3-0.8-0.6c-0.3-0.5-0.5-1-0.5-1.3l-0.2-0.6l-0.6-1.8
			c-0.6-1.3-1.2-2.6-1.7-3.9c-0.6-1.5-0.9-2.9-1.2-4.4c-0.8-3.9-1.1-7-2.2-9.1c-1.1-2.3-3.2-4.1-5.1-7.3l-1.1-2.1l-2-3.1
			c-0.6-0.8-1.1-1.8-1.5-2.9c-0.9-2.4-1.2-4.9-2.2-6.8c-1.4-3.4-3.2-8.3-4.2-13.5c-0.5-2.9-0.9-5.5-1.9-7.6l-0.5-1
			c-0.2-0.3-0.5-0.6-0.3-1.3V37l0.5-0.5h0.6c0.3,0.2,0.5,0.3,0.6,0.5C290,37.6,290.3,38.1,290.2,38.7 M315.5,103.3
			c0,0.6-0.5,1.3-1.2,1.3c-0.6,0-1.2-0.5-1.2-1.3c0-0.6,0.5-1.3,1.2-1.3S315.5,102.7,315.5,103.3"/>
		<path class="st0" d="M405.5,148.6c0.2,0.3,0.2,0.6-0.2,0.8c-0.2,0.2-0.6,0.2-0.8,0c-0.2-0.2-0.6-0.3-1.4-0.3h-3.2
			c-1.9,0-4.2-0.3-7-0.6c-4.8-0.5-11-0.8-16.9-1.8c-2.6-0.5-5.1-1-7.4-1.5l-7.1-1.5l-2.5-0.8l-0.5-0.2h0.2c0,0,0.3-0.2,0.2,0
			c-0.2,0,0.3-0.3,0.3-0.2s0.2-0.3,0.2-0.3c0,0.2-0.2,0.3-0.3,0.5c-0.2,0,0.2-0.3,0.2-0.2c0,0.2,0-0.2,0-0.2l0.2,0.6
			c0,0.2-0.2,0.5-0.3,0.5s-0.3,0-0.5-0.2l-0.6-0.8c-0.2-0.2-0.2-0.3-0.2-0.6c0-0.2,0.2-0.5,0.5-0.6c0.2-0.2,0.5-0.2,0.6-0.2l0.8,0.2
			l2.3,0.6l7.1,1.5c2.3,0.5,4.8,1.1,7.4,1.5c5.9,1,12.1,1.3,16.9,1.8c2.9,0.3,5.1,0.6,6.8,0.6l3.4,0.3
			C404.4,147.8,405.1,147.9,405.5,148.6"/>
		<path class="st0" d="M362.4,142.3c0.2,0.2,0.2,0.6,0,0.8s-0.6,0.2-0.8,0c-0.8-0.8-1.4-1.6-2.8-3.1c-1.7-1.8-4.3-4.4-7.3-6.7
			c-1.4-1.1-2.9-2.1-4.6-2.9c-0.9-0.5-1.9-1-2.9-1.3c-1.2-0.3-2.5-0.6-3.7-1c-2-0.5-3.9-0.6-5.4-0.6c-1.4,0-2.6,0.2-3.4,0.5
			l-0.6,0.5l-0.2,0.2c0,0.2,0.2,0.3,0.5,0.6c0.3,0.3,0.8,0.6,1.4,0.8c0.2,0.2,0.3,0.3,0.2,0.5c-0.2,0.2-0.3,0.3-0.5,0.2
			c-0.6-0.3-1.2-0.6-1.5-1c-0.5-0.3-0.8-0.6-0.8-1.1c-0.2-0.5,0-1,0.2-1.3c0.3-0.3,0.6-0.6,1.1-0.8c0.9-0.5,2.2-0.6,3.9-0.8
			c1.7-0.2,3.6,0,5.7,0.3c1.4,0.3,2.6,0.6,4,1c1.1,0.3,2.2,0.8,3.1,1.3c1.7,1,3.2,1.9,4.8,3.2c3.1,2.4,5.6,5,7.3,7
			C361.2,140.6,361.8,141.6,362.4,142.3"/>
		<path class="st0" d="M335.5,162.4c0,0.3-0.2,0.5-0.3,0.6c-0.3,0-0.5-0.2-0.6-0.3s0.2-0.5,0.3-0.6c0.2,0,0.2,0,0.3,0
			c0.2,0-0.2,0-0.2,0c0.2,0-0.2,0-0.2,0l0.6-0.6c0.2-0.2,0.5-0.2,0.6,0c0.2,0.2,0.2,0.5,0,0.6l-0.8,0.8l0.2-0.2l0,0v-0.3
			 M362.4,147.8c0.3,0,0.6,0.3,0.6,0.6c0,0.3-0.2,0.6-0.5,0.6c-0.6,0.2-0.9-0.2-1.5-0.3c-0.6-0.2-1.2-0.3-2-0.2
			c-0.8,0.2-2,0.8-3.7,1.6c-2.2,1.1-4.9,2.3-7.4,3.7c-2.9,1.6-5.4,3.6-7.6,5.2l-2.8,2.3l-1.7,1.3l-0.5,0.3l-0.3,0.2h-0.3
			c-0.2,0-0.3-0.2-0.3-0.3v-0.3l0.2-0.3l0.5-0.5l1.4-1.5l2.8-2.4c2.2-1.8,4.8-3.6,7.7-5.4c2.6-1.5,5.4-2.6,7.6-3.6
			c1.7-0.8,2.9-1.6,4.2-1.8C360.7,147,362.4,147.8,362.4,147.8"/>
		<path class="st0" d="M336,125.5c0.3,0,0.6,0.2,0.6,0.5s-0.2,0.6-0.5,0.6c-2.2,0.3-3.6-0.2-5.6-1.1l-4-2.1c-1.7-1-3.7-1.9-5.7-2.9
			c-1.9-0.8-3.9-1.3-5.4-1.6c-1.4-0.3-2.5-0.3-3.2-0.3H312l-0.9-0.3c-0.3-0.2-0.5-0.5-0.5-0.6c0-0.2,0.2-0.5,0.3-0.5h0.2h0.2
			l0.8-0.2h0.2c0.8,0,2,0,3.6,0.3c1.7,0.3,3.7,0.8,5.7,1.6c2.2,1,4.2,2.1,5.9,2.9l4,2.1C333,125.4,333.9,125.7,336,125.5"/>
		<path class="st0" d="M322.2,123.4c0.2,0.3,0,0.6-0.3,0.8c-0.3,0.2-0.6,0-0.8-0.3l0.2,0.2H321l-1.5,0.5c-1.4,0.6-3.2,1.5-5.1,2.4
			c-2.2,1-4.3,1.9-6.2,2.6c-0.9,0.3-1.7,0.3-2.3,0.3c-0.3,0-0.6-0.2-0.9-0.3c-0.3-0.2-0.3-0.5-0.5-0.8c0-0.2,0.2-0.5,0.3-0.5
			s0.5,0.2,0.5,0.3l0.2,0.2l0.5,0.2c0.5,0,1.1-0.2,1.9-0.5c1.7-0.6,3.7-1.6,5.9-2.8c1.9-1,3.7-1.8,5.3-2.4c0.8-0.3,1.4-0.5,2-0.5
			c0.3,0,0.6,0,0.8,0C321.7,122.8,322,123.1,322.2,123.4"/>
		<path class="st0" d="M331.9,151.7c-0.2,0.3-0.6,0.5-0.9,0.3s-0.5-0.6-0.3-1c0.2-0.3,0.6-0.5,0.9-0.3c0.2,0.2,0.3,0.3,0.3,0.6
			c0,0.2,0-0.2,0-0.2c0,0.2-0.2-0.2-0.2-0.2l-0.2-0.2l0,0l1.5,0.8c0.2,0.2,0.3,0.3,0.2,0.6c-0.2,0.2-0.3,0.3-0.5,0.2l-1.5-0.5l0,0
			c0,0,0.3-0.2,0.2,0h0.2L331.9,151.7C331.9,151.8,332.1,151.5,331.9,151.7 M345.7,151.8c0,0.2-0.2,0.5-0.3,0.5
			c-0.3,0.2-0.2,0-0.3,0h-0.2h-1.1l-4.2,0.2c-1.7,0-3.7,0.2-5.4,0c-1.5,0-2.8-0.3-3.2-0.5c-0.2,0-0.2-0.2-0.3-0.2l-0.3-0.3
			c0-0.2-0.2-0.2-0.2-0.6c0-0.2,0.2-0.3,0.2-0.5c0.3-0.3,0.3-0.2,0.5-0.3h0.3c0.2,0,0.2,0,0.3,0c0.3,0.2,1.5,0.3,2.8,0.5
			c1.5,0.2,3.6,0,5.3,0l4.2,0.2l1.1,0.2h0.2h0.2C345.5,151.3,345.7,151.3,345.7,151.8 M344.9,152.5c-0.3,0-0.6-0.3-0.6-0.6
			s0.2-0.5,0.5-0.6l0,0h-0.2l-0.2,0.2l-0.2,0.2v0.2c0,0,0,0.3,0,0.2c0-0.3,0.2-0.6,0.5-0.8c0.3,0,0.6,0.2,0.8,0.5
			C345.5,152.1,345.3,152.4,344.9,152.5C345.1,152.5,345.1,152.5,344.9,152.5C344.9,152.5,345.1,152.5,344.9,152.5L344.9,152.5z"/>
		<path class="st0" d="M351.4,153.8c0.2,0.2,0.2,0.6,0,0.8s-0.6,0.2-0.8,0c-0.2-0.2-0.3-0.2-0.5-0.2s-0.5,0.2-0.8,0.3
			c-0.8,0.5-1.5,1.3-2.2,2.4c-1.4,2.1-2.5,5-2.3,8.1c0,1.1,0,2.1,0.3,3.1c0,0.2-0.2,0.5-0.3,0.5s-0.3,0-0.5-0.2
			c-0.5-1-0.8-2.1-0.9-3.2c-0.2-3.4,0.9-6.7,2.5-9.1c0.9-1.3,1.9-2.3,2.8-2.8c0.5-0.3,0.9-0.5,1.4-0.5
			C350.5,153.3,350.9,153.5,351.4,153.8"/>
		<path class="st0" d="M407.7,83.8c0.3,0.2,0.3,0.5,0.2,0.8c-0.1,0.3-0.5,0.3-0.8,0.2s-0.9-0.3-2.2-0.2l-5.7,0.5l-7.9,0.8l-6.2,0.3
			c-4,0.2-8.7,0.3-13.5,0.8c-4,0.3-7.6,0.5-10.5,0.6c-2.9,0-5.4,0-7.4-0.2l-5.1-0.3c-0.2,0-0.3,0-0.3-0.2c-0.2-0.2-0.3,0-0.5-0.3
			v-0.2c-0.2-0.6,0.3-0.6,0.5-0.8c0.2,0,0.3-0.2,0.3-0.2h2l3.4,0.2c2,0.2,4.5,0.2,7.3,0.2c2.9,0,6.5-0.2,10.5-0.5
			c4.8-0.5,9.4-0.6,13.5-0.8l6.2-0.3l7.9-0.6c2.5-0.2,4.3-0.3,5.9-0.3C406.1,83.3,407,83.4,407.7,83.8"/>
		<path class="st0" d="M345.7,71.9c0,0.5-0.3,1-0.8,1.1c-0.5,0-0.9-0.4-1.1-0.8c-0.1-0.2,0-0.4,0-0.5l0.1-0.2c0,0,0.1-0.2,0.2-0.3
			c0.4-0.3,0.6-0.2,0.7-0.2h0.6h1.5c0.9-0.1,1.9-0.1,2.8,0.1c0.2,0.1,0.4,0.2,0.4,0.6c-0.1,0.2-0.2,0.4-0.5,0.3
			c-0.7-0.1-1.7-0.1-2.5,0l-1.2,0.4l-0.3,0.1c0,0,0.1-0.2,0.1,0c0,0,0-0.4,0.1-0.2C345.6,72.2,345.6,71.7,345.7,71.9
			c0,0,0.1,0.2,0,0.4C345.6,72.2,345.6,71.7,345.7,71.9 M375.1,84.7c0.3-0.1,0.5,0.2,0.6,0.5c0.1,0.3-0.1,0.6-0.4,0.7
			c-1.2,0.2-2.1-0.5-3.3-1c-0.7-0.3-2-0.5-3.5-0.7c-1.5-0.2-3.3-0.6-5.1-1.2c-2-0.7-4.1-1.9-6.1-3.3c-1.8-1.1-3.6-2.4-5.2-3.6
			c-1.6-1-3.4-1.8-4.7-2.4l-2-0.7l-0.5-0.2l-0.2-0.1l-0.2-0.1c-0.2-0.1-0.5-0.2-0.7-0.8c-0.2-0.5,0.1-1.1,0.8-1.1
			c0.3-0.1,0.7,0.1,0.9,0.2c0.1,0.2-0.4-0.2-0.2-0.3c0.2,0.1-0.3-0.1-0.2-0.1H345l0,0l0.3,0.1l1,0.2c0.4,0.2,1.3,0.4,2.2,0.8
			c1.3,0.6,3.1,1.4,4.9,2.6c1.7,1.2,3.4,2.5,5.2,3.6c2.1,1.4,4.1,2.4,5.7,3.1c3.6,1.4,6.5,1.3,8.6,2.3
			C374,84.2,374.6,84.7,375.1,84.7"/>
		<path class="st0" d="M370.1,85.4c0.3-0.1,0.6,0.1,0.7,0.4s-0.1,0.6-0.4,0.7c-0.9,0.2-1.8,0.9-3,2c-1.3,1.3-2.7,2.7-3.9,3.9
			l-1.2,0.8c-0.1,0.1-0.4,0.2-0.7,0.3c-0.3,0-0.8-0.2-0.9-0.5c-0.1-0.1-0.1-0.3-0.2-0.4l0.2-0.6l0.3-0.8c0.1-0.2,0.4-0.3,0.6-0.2
			c0.2,0.1,0.3,0.2,0.2,0.4v0.7l0,0l-0.1-0.1c0,0-0.3-0.2-0.2-0.1c0.2,0.1,0.3,0.2,0.5,0.3c0.1,0.1-0.4-0.2-0.3-0.2
			c0.1-0.1-0.3,0-0.2-0.1l0,0l0.9-0.7c1.2-1.1,2.6-2.7,4.1-3.8C367.8,86.4,368.8,85.6,370.1,85.4"/>
		<path class="st0" d="M405.8,69.1c-0.3,0.2-0.6,0-0.8-0.3c-0.2-0.3,0-0.6,0.3-0.8c0,0,0,0,0.2,0l0.6-0.2l0,0l0,0v0.1l0.2,0.3l0,0
			H406l-1.4-0.2l-4.3-0.6c-1.5-0.2-3.6-0.3-5.6-0.8c-2.2-0.3-4.3-1.1-6.5-1.6c-2.5-0.6-4.8-1.1-6.8-1.8c-1.4-0.5-2.3-1.1-3.2-1.6
			c-1.1-0.5-2-1-3.6-1.3c-2.2-0.5-4.9-0.6-8-0.6c-1.9,0-3.6-0.3-5.3-0.5c-2.5-0.3-5.1-0.6-7.7-1c-3.6-0.6-7.1-1.5-10.4-2.4
			c-2.6-0.6-4.8-1.5-7-1.9c-3.2-0.8-6.3-0.8-8.8-1l-3.1-0.2h-0.8c-0.3,0-0.6,0-1.1-0.5c-0.6-0.6-0.6-1.3-0.5-1.6l0.3-0.8
			c0.3-0.5,0.6-0.8,0.9-1.1c0.6-0.5,1.2-0.6,1.9-0.8c0.3,0,0.8,0,1.1,0.3c0.3,0.2,0.5,0.5,0.5,0.8c0.2,0.5,0,1.1-0.5,1.6
			s-0.9,0.3-1.2,0.3h-0.5c-0.2,0-0.2,0-0.3,0l0,0c-0.2,0-0.3,0-0.6-0.2c-0.3-0.2-0.5-0.3-0.6-0.6l-0.3-1c0-0.2,0.2-0.5,0.3-0.5
			s0.3,0,0.5,0.2l0.3,0.5l0,0h-0.3l0,0c0.2-0.2,0.3-0.3,0.6-0.3c0.2,0,0.2,0,0.3,0h0.6l0,0c0,0-0.2,0.2-0.2,0c0,0-0.3,0.3-0.3,0.2
			l-0.2,0.3c0-0.2,0.2,0.3,0,0.3l0.2,0.2l0.3,0.2c-0.2,0,0.5,0,0.3,0s0.3,0,0.3,0l-0.8,0.5l-0.5,0.6l0,0v-0.2v-0.2
			c0,0.2-0.2-0.5,0-0.3c0,0.2-0.5-0.5-0.3-0.5c0,0,0.2,0,0.2,0.2s-0.3-0.2-0.2-0.2h-0.2h0.2l0.8,0.2l2.9,0.3
			c2.5,0.2,5.7,0.2,9.3,1.1c2.3,0.6,4.5,1.5,7,2.1c3.2,0.8,6.8,1.6,10.2,2.3c2.6,0.5,5.1,0.6,7.6,1c1.7,0.2,3.4,0.5,5.1,0.5
			c3.1,0,6,0.2,8.5,0.6c1.9,0.5,3.1,1.1,4.2,1.6c1.1,0.6,2,1.3,2.9,1.8c1.7,0.6,4,1.3,6.6,1.9c2.2,0.6,4.2,1.3,6.2,1.8l5.6,0.8
			l4.3,0.8l1.5,0.6l0.5,0.3c0.2,0.2,0.3,0.3,0.2,0.6v-0.5c0.2,0.2,0.2,0.3,0.2,0.5l-0.3,0.3L405.8,69.1z"/>
		<path class="st0" d="M303.9,23.1c-0.3,0.2-0.8,0.2-0.9-0.2c-0.2-0.3-0.2-0.8,0.2-1s0.8-0.2,0.9,0.2c0.2,0.2,0.2,0.5,0,0.6
			c0,0.2,0-0.3,0-0.3c0,0.2,0-0.2,0-0.2l0,0l0,0l1.7,1.6c0.2,0.2,0.2,0.5,0,0.6c-0.2,0.2-0.3,0.2-0.5,0.2l-2-1.3l0,0l0,0h0.2h0.2
			C303.6,23.1,304.1,23,303.9,23.1 M322.5,48.6c0.3,0.2,0.3,0.5,0.2,0.8c-0.2,0.3-0.5,0.3-0.8,0.2c-1.1-0.8-2.5-1.9-4.2-4.1
			c-1.2-1.5-2.5-3.6-3.9-5.8c-2.8-4.4-5.6-9.7-8-13.1c-1.2-1.8-2.2-2.8-2.6-3.2l-0.2-0.2l-0.2-0.3c0-0.2-0.3-0.2,0-0.6
			c0-0.2,0.2-0.3,0.3-0.3c0.5-0.3,0.5-0.2,0.6,0l0.3,0.2l0.2,0.2c0.5,0.5,1.5,1.6,2.8,3.6c2.5,3.7,5.3,9.1,7.9,13.5
			c1.4,2.3,2.6,4.2,3.7,5.7C320.3,46.8,321.6,47.8,322.5,48.6"/>
		<path class="st0" d="M319.7,50.9c0,0.3-0.3,0.5-0.6,0.5c-0.3,0-0.5-0.3-0.5-0.6l-0.2-0.5l-0.8-0.8c-0.8-0.6-2-1.3-3.6-1.8
			c-2.9-0.8-7.1-1-10.4-0.3c-1.1,0.2-2,0.3-2.6,0.6l-0.6,0.5l-0.2,0.3c0,0.2-0.2,0.5-0.3,0.5s-0.3-0.2-0.5-0.3
			c-0.2-0.3,0-0.8,0.2-1.1c0.2-0.3,0.5-0.6,0.8-1c0.8-0.5,1.7-0.8,2.9-1.1c3.6-0.6,7.9-0.5,11.1,0.5c1.7,0.5,3.1,1.3,4,2.1
			c0.5,0.3,0.8,0.8,1.1,1.1C319.7,50.1,319.9,50.4,319.7,50.9"/>
		<path class="st0" d="M348.9,60c0.2,0.3,0.2,0.6-0.2,0.8s-0.6,0.2-0.8,0c-0.6-0.8-1.2-1.1-2.8-0.6c-0.9,0.2-2.2,0.8-3.7,1.6
			c-3.7,1.8-8.7,4.1-12.8,6.5c-2,1.1-3.9,2.3-5.1,3.2c-0.6,0.5-1.1,1-1.4,1.3c-0.3,0.3-0.3,0.6-0.3,0.6c0,0.2-0.2,0.5-0.3,0.5
			s-0.5,0-0.5-0.3c-0.2-0.5,0.2-1,0.5-1.5s0.9-1,1.5-1.5c1.4-1.1,3.1-2.3,5.3-3.4c4.2-2.4,9.1-4.9,12.7-6.7c1.5-0.8,2.8-1.5,3.9-1.8
			C346.8,58.2,348.2,59,348.9,60"/>
	</g>
	<rect x="236.4" y="17.6" class="st1" width="79.1" height="257.9"/>
	<rect x="508.7" y="10" class="st1" width="79.1" height="257.9"/>
</g>
<circle class="st2" cx="176.8" cy="53.5" r="3.9"/>
<circle class="st2" cx="176.8" cy="240.7" r="3.9"/>
<text transform="matrix(0.7029 0 0 1 144.1355 56.0018)" class="st2 st3 st4">$w$</text>
<text transform="matrix(0.623 0 0 1 117.7157 242.5131)" class="st2 st3 st4">$h\an(w)$</text>
<text transform="matrix(1 0 0 1 187.4275 243.7358)" class="st2 st3 st4">1</text>
<text transform="matrix(1 0 0 1 186.9695 151.0424)" class="st2 st3 st4">4</text>
<text transform="matrix(1 0 0 1 187.4285 58.3329)" class="st2 st3 st4">1</text>
<text transform="matrix(1 0 0 1 530.3182 47.7736)" class="st2 st3 st4">$\pro^{1, \text{an}}_K$</text>
<line class="st5" x1="176.8" y1="240.7" x2="176.8" y2="53.5"/>
<line class="st5" x1="176.8" y1="147" x2="121.6" y2="147"/>
<circle class="st2" cx="121.6" cy="146.4" r="3.9"/>
<text transform="matrix(1 0 0 1 117.0412 138.3209)" class="st6 st7">2</text>
<text transform="matrix(1 0 0 1 145.3743 18.6653)" class="st6 st7">$\sk(\mathscr E_\text{min})$</text>
<path class="st8" d="M195,153.5c21.4,7.9,54.5,17.2,95.6,17.7c48,0.6,85.9-11,108.5-19.9"/>
<line class="st8" x1="206" y1="240" x2="395.8" y2="240"/>
<line class="st8" x1="204.4" y1="55.3" x2="394.2" y2="55.3"/>
<text transform="matrix(0.2374 0 0 1 513.6426 111.9154)" class="st6 st7">$\scriptstyle \pm \sqrt \lambda$</text>
<text transform="matrix(0.5538 0 0 1 88.7315 150.9657)" class="st6 st7">$\delta$</text>
<circle class="st9" cx="176.8" cy="147.1" r="3.9"/>
<text transform="matrix(1 0 0 1 125.5159 172.6649)" class="st9 st6 st7">$\mathscr \sk(E)$</text>
<text transform="matrix(1 0 0 1 415.0016 173.5205)" class="st9 st6 st7">$\phi(\mathscr \sk(E))$</text>
<line class="st5" x1="475.5" y1="121.8" x2="407.4" y2="148.2"/>
<line class="st5" x1="407.5" y1="54.6" x2="407.5" y2="241.9"/>
<circle class="st2" cx="407.5" cy="54.6" r="3.9"/>
<circle class="st2" cx="407.5" cy="241.9" r="3.9"/>
<text transform="matrix(0.2893 0 0 1 422.894 263.9454)" class="st2 st3 st4">$g\an(\phi(w))$</text>
<text transform="matrix(1 0 0 1 418.1007 244.8467)" class="st2 st3 st4">1</text>
<text transform="matrix(1 0 0 1 424.4393 157.0076)" class="st2 st3 st4">2</text>
<text transform="matrix(1 0 0 1 418.1007 59.4438)" class="st2 st3 st4">1</text>
<text transform="matrix(0.2893 0 0 1 426.7094 41.5935)" class="st2 st3 st4">$\phi(w)$</text>
<line class="st8" x1="407.5" y1="54.6" x2="407.5" y2="23.1"/>
<text transform="matrix(1 0 0 1 399.4052 13.7008)" class="st6 st7">$b$</text>
<text transform="matrix(1 0 0 1 399.4049 288.7768)" class="st6 st7">$a$</text>
<line class="st8" x1="407.5" y1="272.9" x2="407.5" y2="241.5"/>
<circle class="st2" cx="475.9" cy="121.2" r="3.9"/>
<circle class="st9" cx="407.5" cy="148.2" r="3.9"/>
<circle class="st2" cx="408.1" cy="95.8" r="3.9"/>
<text transform="matrix(1 0 0 1 418.655 100.7278)" class="st2 st3 st4">1</text>
<circle class="st2" cx="176.8" cy="117.3" r="3.9"/>
<circle class="st2" cx="176.8" cy="84.7" r="3.9"/>
<text transform="matrix(1 0 0 1 189.7946 87.5653)" class="st6 st7">2</text>
<text transform="matrix(1 0 0 1 189.7948 119.1034)" class="st6 st7">3</text>
<line class="st8" x1="201.5" y1="84.9" x2="395.6" y2="93.8"/>
<circle class="st2" cx="408.6" cy="201" r="3.9"/>
<text transform="matrix(1 0 0 1 419.1927 203.4324)" class="st2 st3 st4">1</text>
<circle class="st2" cx="177.3" cy="179.6" r="3.9"/>
<circle class="st2" cx="177.3" cy="212.2" r="3.9"/>
<text transform="matrix(1 0 0 1 190.3323 216.3724)" class="st6 st7">2</text>
<text transform="matrix(1 0 0 1 190.3325 184.8343)" class="st6 st7">3</text>
<line class="st8" x1="202.1" y1="212" x2="396.1" y2="203.1"/>
<text transform="matrix(1 0 0 1 415.4512 131.1248)" class="st6 st7">$c$</text>
<text transform="matrix(1 0 0 1 419.1928 84.6654)" class="st6 st7">$d$</text>
<text transform="matrix(1 0 0 1 425.2693 216.1287)" class="st6 st7">$g\an(d)$</text>
<text transform="matrix(1 0 0 1 470.9566 109.0654)" class="st6 st7">$2$</text>
<path class="st8" d="M127.7,137.2c46.3-9.3,98.8-17.3,156.5-21.7c67.5-5.2,128.8-4.6,182.3-1.2"/>
</svg>
