<?xml version="1.0" encoding="utf-8"?>
<!-- Generator: Adobe Illustrator 23.0.3, SVG Export Plug-In . SVG Version: 6.00 Build 0)  -->
<svg version="1.1"
	 id="svg8" inkscape:version="0.92.4 (unknown)" sodipodi:docname="figure.svg" xmlns:cc="http://creativecommons.org/ns#" xmlns:dc="http://purl.org/dc/elements/1.1/" xmlns:inkscape="http://www.inkscape.org/namespaces/inkscape" xmlns:rdf="http://www.w3.org/1999/02/22-rdf-syntax-ns#" xmlns:sodipodi="http://sodipodi.sourceforge.net/DTD/sodipodi-0.dtd" xmlns:svg="http://www.w3.org/2000/svg"
	 xmlns="http://www.w3.org/2000/svg" xmlns:xlink="http://www.w3.org/1999/xlink" x="0px" y="0px" viewBox="0 0 680.3 294.5"
	 style="enable-background:new 0 0 680.3 294.5;" xml:space="preserve">
<style type="text/css">
	.st0{fill:#C5C5C4;}
	.st1{fill:#FFFFFF;}
	.st2{fill:#020203;}
	.st3{font-family:'ArialMT';}
	.st4{font-size:13.6215px;}
	.st5{fill:none;stroke:#020203;stroke-miterlimit:10;}
	.st6{font-family:'MyriadPro-Regular';}
	.st7{font-size:12px;}
	.st8{fill:none;stroke:#020203;stroke-miterlimit:10;stroke-dasharray:4;}
	.st9{fill:#C40D0E;}
</style>
<sodipodi:namedview  bordercolor="#666666" borderopacity="1.0" id="base" inkscape:current-layer="layer1" inkscape:cx="284.27627" inkscape:cy="182.72055" inkscape:document-units="mm" inkscape:guide-bbox="true" inkscape:pageopacity="0.0" inkscape:pageshadow="2" inkscape:window-height="995" inkscape:window-maximized="1" inkscape:window-width="2520" inkscape:window-x="20" inkscape:window-y="65" inkscape:zoom="0.99437388" pagecolor="#ffffff" showborder="true" showgrid="false" showguides="true" width="200mm">
	<inkscape:grid  dotted="false" empspacing="4" id="grid815" spacingx="10" spacingy="10" type="xygrid" units="mm">
		</inkscape:grid>
</sodipodi:namedview>
<g id="layer1" transform="translate(0,-177)" inkscape:groupmode="layer" inkscape:label="Layer 1">
</g>
<g>
	<g>
		<path class="st0" d="M413.3,150.1c0-0.1,0.3-0.2,0.8-0.2s0.8,0.1,0.8,0.2v93.2c0,0.1-0.3,0.2-0.8,0.2s-0.8-0.1-0.8-0.2V150.1z"/>
		<path class="st0" d="M416.7,230.7c-0.3,0.2-0.6-0.2-0.8-0.5c0-0.3,0-0.5,0.3-0.6c0.3-0.2,0.8-0.3,1.7-0.5l3.6-0.8
			c1.2-0.2,2.6-0.5,4.2-0.6c1.4-0.2,2.9-0.2,4.5-0.2c2.2-0.2,4.8-0.3,8.2-0.8c2.5-0.3,5.3-1.1,8.3-1.8l17-3.9l18.7-4.2l9-1.9
			l6.5-1.3c2.8-0.5,4.3-0.5,5.6-0.3c3.2,0.2,7.7,0.3,11.9,0c2.6-0.2,4.9,0,6.8,0c1.1,0.2,2,0.3,2.9,0.6l1.2,0.3
			c1.2,0.3,3.1,0.3,4.8,0.2c0.8,0,1.7-0.3,2.6-0.6l1.9-0.3l0,0h-0.2c0,0-0.2,0.3-0.2,0.2v0.3c0-0.2,0.2,0.3,0.2,0.3l0.2,0.2
			c-0.2,0,0.2,0,0,0h-0.2h-1.5c-0.2,0-0.5-0.2-0.5-0.5c0-0.2,0.2-0.5,0.3-0.5l1.5-0.2h0.3h0.2c0.2,0,0.5,0.5,0.3,0.6l-0.2,0.3
			c-0.5,0.3-1.1,0.5-1.9,0.6c-0.9,0.3-2,0.6-2.9,0.8c-1.9,0.2-3.7,0-5.1-0.5l-1.2-0.5c-0.6,0-1.5,0.2-2.5,0.2c-2,0-4.2-0.2-6.8,0
			c-4.3,0.3-8.8,0.2-12.2,0c-1.1,0-2.5,0-5.3,0.5l-6.3,1.3l-9,1.9l-18.7,4.2l-17,3.7c-3.1,0.6-6,1.3-8.5,1.8
			c-3.6,0.5-6.2,0.6-8.3,0.8c-1.7,0-3.1,0-4.5,0.2l-4.2,0.5l-3.4,0.6L416.7,230.7z"/>
		<path class="st0" d="M538.4,237.1c0.3-0.3,0.8-0.2,1.1,0.2c0.3,0.3,0.2,0.8-0.2,1.1c-0.3,0.3-0.8,0.2-1.1-0.2l0,0l0,0l-1.5-1.5
			c-0.2-0.2-0.2-0.5,0-0.6c0.2-0.2,0.3-0.2,0.5-0.2l1.4,0.8l0.3,0.2l0,0h-0.2C538.7,237,538.2,237.1,538.4,237.1 M526,216.1
			c0,0.3-0.2,0.6-0.5,0.6c-0.3,0-0.5-0.2-0.6-0.3l-0.2-0.3c0-0.2-0.2-0.2,0-0.5c0.2-0.5,0.6-0.5,0.9-0.5l0.3,0.2
			c0.3,0.3,0.6,0.8,1.1,1.3c0.9,1.3,1.9,3.2,3.1,5.4l3.9,7.1c1.1,1.9,2.2,3.6,3.2,4.9l2,2.4l0.3,0.5c0.2,0.2,0.3,0.2,0.3,0.8
			c0.2,0.6-0.3,1.3-0.9,1.3c-0.6,0.2-1.2-0.3-1.2-1l0,0c0-0.2,0,0.3,0,0.2c0-0.2,0.2,0.2,0,0.2l0,0l-0.3-0.3l-2-2.4
			c-1.1-1.5-2.3-3.1-3.4-5.2l-3.7-7.3l-2.8-5.4l-0.8-1.3l0,0l0,0l0.2,0.2h0.3l0.3-0.2C525.7,216.4,526,216.1,526,216.1L526,216.1
			L526,216.1z M539.9,237.8c0,0.6-0.5,1.1-1.1,1.1c-0.6,0-1.1-0.5-1.1-1.1s0.5-1.1,1.1-1.1C539.4,236.7,539.9,237.1,539.9,237.8"/>
		<path class="st0" d="M523.6,240.7c0.5,0.2,0.6,0.8,0.5,1.3c-0.2,0.5-0.8,0.6-1.2,0.5c-0.5-0.2-0.6-0.8-0.5-1.3
			c0.2-0.3,0.5-0.5,0.8-0.5c0.2,0-0.3,0-0.2,0h-0.2c0.2,0-0.2,0.2-0.2,0c0.2,0-0.2,0.2-0.2,0.2l-0.2,0.2l0,0c0-0.3,0-0.8-0.2-1.5
			c0-0.2,0.2-0.5,0.3-0.5c0.2,0,0.3,0,0.5,0.2l0.8,1.6v0.2l0,0C523.9,241,523.7,240.9,523.6,240.7
			C523.9,240.9,523.6,240.7,523.6,240.7 M515.4,218c0.2,0.2,0.2,0.3,0.3,0.5l0,0v0.2l0.3,2.1c0.5,3.2,1.9,8,3.7,12.2
			c0.9,2.1,2,3.7,2.8,5l1.1,1.6c0.5,0.6,0.5,1.3,0.5,1.5s0.2,0.5,0,0.6c0,0.2,0.2,0.2-0.3,0.6c-0.2,0.2-0.3,0.2-0.5,0.3
			c-0.5,0.2-0.6,0-0.8,0l-0.3-0.2c-0.2-0.2-0.3-0.3-0.3-0.5l-0.3-1l-1.1-1.6c-0.8-1.3-1.9-3.1-2.8-5.4c-1.9-4.4-3.2-9.2-3.7-12.8
			V219v-0.5l0.2-0.3l0.3-0.2C514.7,217.8,515.1,217.8,515.4,218 M515.7,219c0,0.3-0.2,0.6-0.5,0.6c-0.3,0-0.5-0.2-0.6-0.5V219l0,0
			c0,0,0.3,0.2,0.2,0.2c0,0,0.3,0.2,0.2,0h0.2c0,0,0.3-0.2,0.2,0L515.7,219c-0.3,0.3-0.7,0.3-1,0.2c-0.3-0.2-0.3-0.6-0.2-1
			c0.2-0.3,0.6-0.3,0.9-0.2c0.2,0.2,0.2,0.3,0.3,0.5v0.2V219z"/>
		<path class="st0" d="M554.9,197.7c0.2-0.5,0.6-0.6,1.1-0.5c0.5,0.2,0.6,0.6,0.5,1.1c-0.2,0.5-0.6,0.6-1.1,0.5
			c-0.3-0.2-0.5-0.5-0.6-0.8c0-0.2,0,0.3,0,0.2c0-0.2,0.2,0.2,0.2,0.2l0.2,0.2h0.2l0,0H554c-0.2,0-0.5-0.2-0.5-0.3
			c0-0.2,0.2-0.3,0.3-0.5l1.4-0.5l0,0l0,0L554.9,197.7C554.9,197.4,554.9,197.7,554.9,197.7 M532.1,212.3c0.3,0,0.6,0.2,0.6,0.5
			s-0.2,0.6-0.5,0.6l-0.5,0.2h-0.2c0,0-0.5,0-0.6-0.2c-0.2-0.3-0.2-0.5-0.2-0.6c0.2-0.5,0.3-0.5,0.5-0.5l0.5-0.3l4.8-3.2l7.1-4.7
			l5.6-3.4c1.9-1.1,3.1-1.9,4.2-2.6l1.4-0.8c0.2-0.2,0.5-0.3,0.8-0.2c0.2,0,0.2,0,0.5,0.2c0.2,0.2,0.2,0.2,0.3,0.3
			c0.3,0.5,0.2,0.6,0.2,0.6c0,0.3-0.2,0.5-0.5,0.6l-1.5,1c-0.9,0.6-2.3,1.6-4.2,2.8l-5.7,3.2l-7.1,4.4c-2.2,1.3-3.9,2.4-4.9,3.1
			l-0.8,0.3c0,0,0.2-0.2,0.2,0l0.2-0.2c0,0,0.2-0.5,0.2-0.3s-0.2-0.5,0-0.3C532.2,213,531.9,212.5,532.1,212.3c0,0.2-0.2,0-0.2,0
			l0,0H532.1z"/>
		<path class="st0" d="M496.2,216.5c0.2,0.3,0.2,0.6,0,0.8s-0.6,0.2-0.8,0c-0.2-0.2-0.3-0.5-0.3-0.8s0-0.6,0.2-0.8
			c0.2-0.6,0.6-1.1,1.2-1.8c1.2-1.3,3.1-2.9,5.7-4.9c3.2-2.4,7.1-5.4,11.4-8.3c2.3-1.5,4.6-3.1,7.3-4.7c5.6-3.2,11.9-6.5,17.2-9.4
			c2-1.1,3.7-2.3,5.1-3.2c2.3-1.5,3.9-2.1,5.1-2.6l7.1-2.8c0.6-0.3,1.4-0.5,2-0.8c0.9-0.5,1.9-1.1,2.8-1.8l1.5-1.1
			c0-0.2,0.2-0.2,0.3-0.2c0,0-0.2,0.3-0.2,0.2c0,0-0.2,0.3-0.2,0.2c0-0.2,0,0.6,0,0.5c0-0.2,0.2,0.5,0.2,0.3
			c-0.2-0.2,0.2,0.2,0.2,0.2h-0.2c-0.6,0-2,0.2-4,0.6c-0.2,0-0.5-0.2-0.5-0.3c0-0.2,0.2-0.5,0.3-0.5l4.2-1.3l0.9-0.2
			c0.2,0,0.6,0,0.8,0.5c0.3,0.3,0.2,0.8,0.2,1s-0.2,0.2-0.2,0.3c-0.5,0.6-1.2,1.1-2.2,1.6c-0.9,0.6-2,1.5-3.1,1.9
			c-0.9,0.5-1.7,0.6-2.3,0.8l-7.1,2.8c-1.1,0.5-2.6,1.1-4.8,2.4c-1.4,1-3.2,2.1-5.3,3.2c-5.3,2.9-11.8,6.2-17.2,9.4
			c-2.6,1.5-4.9,2.9-7.3,4.5c-4.2,2.8-8.2,5.5-11.4,8c-2.5,1.9-4.5,3.4-5.6,4.5c-0.5,0.5-0.9,1-1.1,1.3L496.2,216.5L496.2,216.5z"/>
		<path class="st0" d="M488,239.4c0.3,0.5,0.2,1-0.2,1.3c-0.5,0.3-0.9,0.2-1.2-0.2c-0.2-0.2-0.2-0.5-0.2-0.8c0-0.2,0,0.3,0,0.3v0.2
			c0-0.2-1.9-1.6-2.6-3.2c-0.2-0.2,0-0.5,0.2-0.5c0.2-0.2,0.3,0,0.5,0.2c0.5,0.5,1.2,1.1,1.9,1.6l0.9,0.6
			C487.5,239.1,487.7,239.1,488,239.4 M469.3,225.6c0,0.3-0.3,0.5-0.6,0.5c-0.3,0-0.5-0.3-0.5-0.5s0-0.5,0.2-0.6
			c0.2-0.2,0.3-0.3,0.6-0.3c0.3,0,0.8,0,1.1,0c0.8,0.2,1.9,0.5,2.8,1c1.1,0.5,2.5,1.3,3.7,2.4c1.4,1.3,2.5,2.9,3.6,4.5
			c0.8,1.1,1.5,2.4,2.2,3.2c1.2,1.5,3.2,2.3,4.3,2.8l0.9,0.6l0.3,0.2l0.2,0.3c0.2,0.3,0.2,0.6,0,0.8c-0.2,0.5-0.5,0.5-0.6,0.5
			c-0.3,0.2-0.5,0-0.6,0l-0.8-0.2c-1.4-0.6-3.7-1.5-5.4-3.6c-0.9-1.1-1.5-2.4-2.3-3.6c-1.1-1.6-2-3.2-3.1-4.4
			c-1.1-1-2.2-1.6-3.1-2.3c-0.9-0.5-1.7-1-2.5-1.1l-0.6-0.2c0,0,0.2,0,0,0C469,226,469.3,225.5,469.3,225.6"/>
		<path class="st0" d="M448.4,228.5c0-0.3,0.2-0.6,0.5-0.6c0.2,0,0.5,0,0.6,0.3l-0.2-0.2H449h-0.2l0,0l0.3-0.3l1.4-2.1l2-3.2
			c0.9-1.5,1.7-2.6,2.5-3.7c1.9-2.3,4.3-4.9,6-7c2.5-2.8,3.6-4.1,5.7-4.7c0.2-0.2,0.5,0,0.6,0.3c0,0.2,0,0.5-0.2,0.5
			c-0.9,0.5-1.4,1-2,1.8l-2.5,3.4c-1.9,2.3-4.5,4.9-6.2,7c-0.8,1-1.7,2.1-2.5,3.4l-2.2,3.2c-0.6,1-1.2,1.6-1.7,2.1
			c-0.3,0.2-0.5,0.5-0.8,0.5c-0.2,0-0.3,0.2-0.6,0C448.6,228.9,448.4,228.7,448.4,228.5"/>
		<path class="st0" d="M479.6,229.5c0.3-0.2,0.6-0.2,0.8,0c0.2,0.2,0.2,0.6,0,0.8l0,0v-0.2c0,0-0.2-0.3,0-0.3c0,0.2-0.3-0.3-0.2-0.2
			c0.2,0-0.2,0-0.2,0h0.3l2.3-0.8l4.6-1.8c1.1-0.5,2-0.8,2.8-1.3c0.8-0.3,1.4-0.8,1.7-1.1c0.2-0.2,0.5-0.3,0.6-0.2h0.2
			c0,0,0.2,0,0.2,0.2l0.2,0.3c0.2,0.2,0.2,0.5,0,0.6c-0.5,0.6-1.1,1.3-2,1.8s-2,1-3.1,1.3l-4.6,1.6c-0.9,0.3-1.9,0.6-2.6,0.6h-0.5
			c-0.2,0-0.5,0-0.6-0.3c-0.2-0.3-0.2-0.6,0-0.8L479.6,229.5z"/>
		<path class="st0" d="M415.9,175.8c0.3-0.2,0.6,0.2,0.8,0.5c0.2,0.3-0.2,0.6-0.5,0.8c-0.2,0-0.3,0-0.5,0l-0.5-0.2
			c-0.2-0.2-0.3-0.3-0.2-0.5c0-0.2,0.2-0.2,0.3-0.2L415.9,175.8z"/>
		<path class="st0" d="M415.8,176.8c-0.3,0.2-0.6,0-0.8-0.2c-0.2-0.3,0-0.6,0.2-0.8s0.5-0.2,0.6,0h0.2c0.3,0.2,0.3,0.5,0.2,0.6
			C416.1,176.6,415.9,176.6,415.8,176.8L415.8,176.8z"/>
		<path class="st0" d="M413.5,192.3c0.3,0,0.5,0.3,0.5,0.6s-0.3,0.5-0.6,0.5l-0.3-0.2c0,0-0.2-0.2-0.3-0.3c0-0.3,0-0.5,0.2-0.6
			c0.3-0.3,0.5-0.2,0.6-0.3l1.5-0.2c2-0.2,4.6,0,8-0.2c1.7-0.2,3.7-0.3,6.2-0.6l3.9-0.2c2-0.2,4.3-0.6,6.8-1l5.9-1
			c2.9-0.5,6-1,9.4-1.6s7.1-1.8,11-2.8c2.9-0.6,6-1.3,9-1.8l11.6-1.9l10.1-1.5l10.2-1.3c2.8-0.3,4.9-0.5,7-0.5h6.8h4.3
			c4-0.2,8.3-1.6,12.8-1c1.9,0.3,3.9-0.2,5.9-0.5c2.3-0.3,5.3-1.1,7.9-1.3c1.4-0.2,2.8,0,4,0c1.1,0,2.3,0,2.9-0.2h0.2h0.2
			c0,0-0.2,0,0,0l-0.2,0.2l-0.2,0.3c0-0.2,0,0.3,0,0.3v0.2l-0.3-0.2l-1.1-0.6c-0.2-0.2-0.3-0.3-0.2-0.5c0-0.2,0.3-0.3,0.5-0.3
			c1.1,0.3,1.7,0.3,2.2,0.6l0.3,0.3c0.2,0.2,0.3,0.5,0.2,0.8c-0.2,0.5-0.5,0.8-0.8,1c0,0-0.2,0-0.2,0.2c-0.9,0.3-2.2,0.3-3.4,0.3
			c-1.4,0-2.6,0-3.9,0c-2.5,0.2-5.3,0.8-7.7,1.3c-2,0.3-4.2,0.8-6.5,0.3c-4-0.6-8.2,0.8-12.5,0.8h-4.3h-6.6c-1.9,0-4.2,0.2-6.8,0.5
			l-10.1,1.3l-10.1,1.5l-11.4,1.9c-2.9,0.5-5.9,1-8.8,1.8c-3.7,0.8-7.4,1.9-11,2.8c-3.4,0.6-6.6,1.1-9.4,1.6l-5.9,1
			c-2.5,0.3-4.9,0.8-7,1l-3.7,0.2c-2.3,0.2-4.3,0.5-6.2,0.5c-3.6,0.2-6.2,0-8,0l-1.4,0.2h-0.2c0,0,0.2-0.2,0.2,0l0.2-0.2l0.2-0.3
			c0,0,0-0.3,0-0.2c0,0.2-0.2-0.3-0.2-0.2L413.5,192.3C413.7,192.4,413.5,192.3,413.5,192.3L413.5,192.3z"/>
		<path class="st0" d="M556.8,143.5c0.2-0.2,0.5-0.2,0.6,0.2c0.2,0.2,0.2,0.5-0.2,0.6c0,0-0.2,0-0.2,0.2l-0.5,0.3
			c-0.2,0.2-0.5,0.2-0.6-0.2c-0.2-0.2-0.2-0.3,0-0.5L556.8,143.5z M540.9,158c0,0.3-0.3,0.6-0.6,0.5c-0.2,0-0.2,0-0.3-0.2
			c-0.2-0.2-0.2-0.3-0.2-0.5v-0.3l0.2-0.5l0.6-0.8c2.5-2.1,6.6-4.2,10.2-7.1c1.7-1.3,3.1-2.8,4.2-3.9l1.1-1.3l0.2-0.3l0,0v0.2v0.2
			c0,0,0.2,0.5,0,0.3c0-0.2,0.3,0.5,0.2,0.3c-0.2-0.2,0.3,0.3,0.3,0.2c-0.5-0.3-0.6-1-0.3-1.5s0.9-0.6,1.4-0.3l0,0
			c0.2,0.2,0.3,0.5,0.5,0.6v0.5l-0.2,0.5l-0.3,0.6l-1.2,1.5c-1.1,1.3-2.6,2.8-4.5,4.1c-3.9,2.9-8.2,5-10.4,6.8L540.9,158l-0.2,0.3
			l0,0l0,0C540.9,158.1,540.9,158,540.9,158 M558.3,143.8c0,0.6-0.5,1.1-1.1,1.1s-1.1-0.5-1.1-1.1c0-0.6,0.5-1.1,1.1-1.1
			C557.9,142.9,558.3,143.4,558.3,143.8"/>
		<path class="st0" d="M558.5,172.7c0.2,0.5,0,1-0.5,1.3c-0.5,0.2-0.9,0-1.1-0.5c0-0.2-0.2-0.3,0-0.5c0-0.2,0,0.3,0,0.3v0.2
			l-0.2-0.2l-0.8-0.5c-0.6-0.3-1.5-0.6-2-0.8c-0.2,0-0.3-0.3-0.3-0.5s0.2-0.3,0.3-0.3c0.6,0,1.5,0.2,2.3,0.3l1.1,0.3l0.5,0.3
			C558.2,172.2,558.3,172.4,558.5,172.7 M542.7,163.2c0,0.3-0.2,0.6-0.5,0.6c-0.3,0-0.6-0.2-0.6-0.5c-0.2-0.5-0.2-1-0.2-1.3
			s0.3-0.8,0.6-1c0.5-0.2,0.8-0.2,1.1,0l1.1,0.6c0.9,0.8,1.9,1.9,2.6,3.1c0.9,1.3,1.9,2.4,2.8,3.6c1.2,1.3,2.9,2.3,4.5,3.1
			c0.6,0.3,1.2,0.5,1.9,0.5l0.9,0.2h0.2l0,0c0,0-0.3,0.2-0.2,0c0.6-0.3,1.2-0.2,1.5,0.5c0.3,0.6,0.2,1.3-0.5,1.6c0,0,0,0-0.2,0
			c-0.5,0.3-0.8,0.2-1.2,0.2l-1.2-0.2c-0.6-0.2-1.4-0.3-2.2-0.6c-1.7-0.8-3.7-2.1-5.1-3.7c-1.1-1.3-2-2.8-2.8-3.9
			c-0.8-1.1-1.5-2.3-2.2-2.9l-0.6-0.5h-0.2h0.2l0,0L542.7,163.2z M558.8,173.2c0,0.6-0.5,1.3-1.2,1.3c-0.6,0-1.2-0.5-1.2-1.3
			c0-0.6,0.5-1.3,1.2-1.3C558.2,172.1,558.8,172.6,558.8,173.2"/>
		<path class="st0" d="M520.8,197.8c0.3,0,0.8,0.2,0.8,0.6c0,0.3-0.2,0.8-0.6,0.8c-0.2,0-0.3,0-0.5-0.2s-0.5-0.5-0.9-1.3
			c-0.2-0.5-0.2-0.6-0.2-1v0.2v-0.2l-0.3-0.5c-0.2-0.2,0-0.5,0.2-0.6c0.2-0.2,0.5,0,0.5,0.2c0.2,0.3,0.5,0.5,0.5,1v-0.2l0.2,0.3
			l0.6,0.8l0.2,0.2l0,0h-0.2C521,197.8,520.7,197.8,520.8,197.8 M507.4,179c0.3,0,0.6,0.3,0.6,0.6s-0.2,0.5-0.5,0.5l0,0v0.2
			c0,0.3,0.2,1,0.5,1.6c0.6,1.6,1.5,3.6,2.9,5.4c1.5,2.3,3.6,4.2,5.3,5.7c1.2,1,2,1.6,2.8,2.1l1.1,0.6c0.8,0.5,1.4,1.3,1.9,2.1
			c0.3,0.5,0.2,1.3-0.3,1.6s-1.2,0.2-1.5-0.3s-0.8-1-1.2-1.3l-1.1-0.7c-0.8-0.6-1.7-1.3-2.9-2.4c-1.7-1.6-3.9-3.6-5.4-6.2
			c-1.4-2.1-2.3-4.2-2.8-6.2c-0.3-0.8-0.3-1.6-0.3-2.3c0-0.3,0.2-0.6,0.3-1C506.8,179,507.1,179,507.4,179"/>
		<path class="st0" d="M502.4,178.1c0.3,0.2,0.5,0.5,0.3,0.8s-0.3,0.5-0.6,0.5c-0.2,0-0.5-0.2-0.6-0.5c-0.2-0.3,0-0.5,0-0.5l0.3-0.5
			l1.1-1c0.9-1,2.2-2.1,3.6-3.6c1.1-1.1,2.2-2.6,3.4-4.2c1.4-1.8,2.9-3.6,4.5-5.2c0.8-0.8,1.7-1.6,2.3-2.3c1.1-1,1.7-1.5,2.5-1.8
			c0.6-0.2,1.2-0.3,1.7-0.3c0.3,0,0.5,0,0.6,0.2c0.2,0,0.3,0.2,0.3,0.3c0,0.2,0,0.5-0.2,0.5c-0.2,0.2-0.5,0.2-0.6,0l-0.2-0.2
			c0,0,0.3,0.3,0.2,0.2h0.2c0,0,0.2,0,0,0l-0.3,0.2l-1.2,0.6c-0.5,0.3-1.1,0.6-2.2,1.6c-0.8,0.6-1.5,1.3-2.3,2.1
			c-1.5,1.6-3.1,3.4-4.5,5c-1.2,1.6-2.5,2.9-3.7,4.2c-1.5,1.5-2.8,2.8-3.7,3.6l-1.1,1L502,179l0,0v-0.2c0,0,0-0.3,0-0.2
			c0,0.2-0.3-0.5-0.2-0.3C502.7,178.3,502.4,178.1,502.4,178.1"/>
		<path class="st0" d="M513.7,138.1c0.2,0.3,0.2,0.6,0,0.8c-0.3,0.2-0.6,0.2-0.8,0c0-0.2-0.2-0.2-0.2-0.3c0-0.2,0.2,0.3,0.2,0.3
			c-0.2-0.2,0.3,0.2,0.2,0.2h0.2l0,0l-0.5,0.2c-0.5,0.2-0.9,0.5-1.4,1c-0.2,0.2-0.5,0.2-0.6,0c-0.2-0.2-0.2-0.3,0-0.6
			c0.5-0.5,0.9-1,1.5-1.3l0.6-0.3l0.3-0.2C513.2,137.9,513.4,137.7,513.7,138.1 M483.4,182.4c0.3-0.2,0.6,0,0.8,0.3
			c0.2,0.3,0,0.6-0.3,0.8l-0.6,0.2c-0.2,0-0.5-0.2-0.6-0.3c-0.3-0.3-0.3-0.8-0.3-1.1c0.2-0.8,0.5-1.8,1.1-2.9l2.2-4.4l3.2-6
			c2.6-4.7,5.9-8.6,8.5-11.5c2.2-2.4,4.2-4.7,5.7-6.8l4.8-6.3c0.6-0.8,1.2-1.8,2-2.9l1.5-2.3l1.1-0.8l0.3-0.2h0.2h0.2
			c0.2,0,0.3,0,0.5,0.2c0.3,0.3,0.3,0.5,0.3,0.6l-0.2,0.3l-0.3,0.3l-0.6,0.8l-1.5,2.3c-0.6,1.1-1.1,2.1-1.7,3.2l-4.8,6.3
			c-1.7,2.3-3.7,4.5-6,7c-2.6,2.8-5.9,6.5-8.5,11L487,176l-2.5,4.4c-0.6,1-0.9,1.9-0.9,2.4v0.2C483.6,182.5,483.6,182.4,483.4,182.4
			C483.6,182.5,483.4,182.4,483.4,182.4L483.4,182.4z"/>
		<path class="st0" d="M511.4,141.8c-0.3,0.1-0.7,0-0.8-0.3c-0.1-0.3,0-0.4,0.2-0.6l-0.1,0.1l0.2-0.5l0.4-1.3c0.2-1.1,0.5-2.5,1-4
			c1.1-3.2,2.6-6,4.1-8.2l2.9-4l0.1-0.1l0.7-0.5c0.2-0.2,0.6-0.2,0.7,0c0.1,0.1,0.1,0.1,0.1,0.3l-0.2,1.1l-0.1,0.1l-2.8,4.1
			c-1.5,2.1-3.1,4.7-4.1,7.7c-0.6,1.4-0.9,2.7-1.2,3.8l-0.4,1.3C511.8,141.3,511.8,141.6,511.4,141.8"/>
		<path class="st0" d="M537.2,135.5c0.2-0.4,0.7-0.3,1-0.2s0.3,0.7,0.2,1c-0.1,0.3-0.7,0.3-1,0.2c-0.3-0.1-0.4-0.4-0.4-0.5
			c0.1-0.2,0,0.4,0.1,0.3c-0.2-0.1,0.2,0.3,0.1,0.3l0.2,0.1l0.3,0.1c0,0-1.4,0.6-2.5,1c-0.3,0.1-0.5,0-0.5-0.3
			c-0.1-0.3,0-0.4,0.2-0.4c0.7-0.3,1.6-1.4,2.5-1.7L537.2,135.5L537.2,135.5z M506.5,149.3c-0.1,0.3-0.5,0.4-0.8,0.3
			c-0.3-0.1-0.4-0.4-0.3-0.7c0.2-0.4,0.6-0.7,0.9-1.1c0.5-0.3,0.9-0.5,1.5-0.6l4.7-1.2c3.6-1,8.5-3.7,13.1-5.9c2.2-1,4.2-2,5.8-2.6
			l2.2-0.8l2.9-0.8l0.3-0.1l0.3-0.1c0,0-0.3,0.1,0.3-0.1c0,0,0.3-0.1,0.4,0c0.5,0,0.7,0.4,0.8,0.6l0,0.6c0,0.5-0.4,0.8-0.8,1.2
			l-0.3,0.1l-2.9,1.1l-2.1,0.6c-1.5,0.6-3.6,1.5-5.8,2.5c-4.7,2.4-9.7,5-13.6,5.9c-2,0.4-3.6,0.7-4.8,0.9l-1.4,0.3
			C506.9,148.9,506.7,149,506.5,149.3"/>
		<path class="st0" d="M524.6,119.7c-0.4,0.1-0.6-0.1-0.9-0.4c-0.3-0.4,0.1-0.6,0.4-0.8c0.4,0,0.6,0.1,0.9,0.4c0.1,0.3,0,0.4,0,0.5
			s0.1-0.2,0.1-0.2l0.1-0.2l0.1,0.3l0.1,1.7c0.1,0.3-0.2,0.4-0.4,0.5c-0.3,0.1-0.4-0.2-0.4-0.4l-0.3-1.7l-0.1-0.3l0.2,0.1
			c0,0,0.3,0.1,0.2,0.1c0,0,0.3,0.1,0.2,0.1l0.2,0.1C524.3,119.8,524.6,119.7,524.6,119.7 M529.2,139.3c0.3-0.2,0.7-0.2,0.9,0.1
			c0.2,0.3,0.2,0.7-0.1,0.9c-0.4,0.4-0.8,0.6-1.2,0.7c-0.4,0.1-1.1,0-1.6-0.2c-0.9-0.4-1.6-1.5-2.1-2.9c-0.7-1.9-0.9-4.5-1.2-6.9
			l-0.2-3.7l-0.2-5.5l0.1-1.6c0-0.5,0-0.7,0.3-1.1c0.1-0.2,0-0.4,0.7-0.2c0.2,0.1,0.3,0.1,0.4,0.2c0.2,0.3,0.2,0.3,0.2,0.3l0.2,2.5
			l0.2,5.5l0,3.6c0,2.5,0.3,4.9,0.9,6.7c0.3,1.2,0.8,2,1.3,2.2c0.2,0.1,0.4,0.2,0.6,0.1C528.5,139.8,528.9,139.5,529.2,139.3"/>
		<path class="st0" d="M528.8,144c-0.3,0.2-0.7,0-0.7-0.4c-0.1-0.3,0-0.6,0.2-0.8c1.5-0.8,3.8-0.7,5.9-0.3c1.6,0.4,3,0.9,4.3,1.4
			l2.9,1.1l1.1,0.2c0.2,0.1,0.4,0,0.5,0l0.2,0.1c0.3-0.1,0.5,0,0.5,0.3c0,0,0,0-0.1,0.2c0,0.4-0.1,0.6-0.5,1
			c-0.1,0.2-0.3,0.2-0.4,0.1c-0.6,0-1.2,0.1-1.8,0c-1-0.3-2-0.7-3-1.1c-1.4-0.5-2.7-1.1-4-1.4C532,143.8,529.9,143.6,528.8,144"/>
		<path class="st0" d="M414.3,150.1c-0.5,0.2-0.8,0-0.9-0.5c-0.2-0.5,0-0.8,0.5-1l139.2-54.2c0.5-0.2,0.8,0,0.9,0.5
			c0.2,0.5,0,0.8-0.5,1L414.3,150.1z"/>
		<path class="st0" d="M550.9,87.9c-0.3,0-0.6-0.3-0.6-0.6c0-0.3,0.2-0.6,0.5-0.6c0.3,0,1.9-0.8,3.4-1.8l3.6-1.6l0.6-0.2
			c0.2,0,0.3-0.3,0.6,0c0.2,0.2,0.2,0.5,0.2,0.6c-0.2,0.3-0.2,0.2-0.3,0.3l-0.6,0.3c-0.2,0.2-0.5,0-0.6-0.2c-0.2-0.2,0-0.5,0.2-0.5
			l0.5-0.3c0,0,0,0.2,0,0v0.2v0.2v0.2c0-0.2,0.3,0.2,0.2,0.2h0.2h0.2h-0.2l-0.5,0.2l-3.4,1.8C553.2,86.9,552,87.9,550.9,87.9"/>
		<path class="st0" d="M562.1,102.5c0.3-0.2,0.6,0,0.8,0.3s0,0.6-0.3,0.8c-0.3,0.2-0.6,0-0.8-0.3c0-0.2,0-0.3,0-0.5v0.2
			c0-0.2,0,0.3,0,0.2l0,0l-0.3-0.3c-0.2-0.2-0.2-0.5,0-0.6c0.2-0.2,0.3-0.2,0.5,0l0.5,0.2C562.2,102.5,562.1,102.5,562.1,102.5
			L562.1,102.5z M546.3,90.8c0.2,0.3,0.2,0.6,0,0.8c-0.3,0.2-0.6,0.2-0.8,0c0,0,0-0.2-0.2-0.2l-0.2-0.3l0.2-0.3
			c0.2-0.2,0.3-0.2,0.5-0.2l0.3,0.2H546.3l-0.5-0.2c0.3-0.2,0.8-0.2,1.1,0c0.2,0,0.2,0,0.3,0.2c2.3,1.3,6.2,3.7,9.4,6
			c1.7,1.1,2.9,2.4,4,3.2l1.2,1l0.9,0.8c0.5,0.5,0.6,1.3,0.2,1.8c-0.3,0.5-1.1,0.6-1.5,0.3l-1.1-0.6l-1.4-1.1
			c-1.2-1-2.3-2.1-3.9-3.2c-3.1-2.4-6.8-4.9-9-6.5c-0.2,0-0.2-0.2-0.3-0.3c-0.2-0.3-0.5-0.5-0.5-0.8l0.5,0.3h0.2
			c0,0,0.3-0.3,0.3-0.2c0,0,0.2-0.3,0.2-0.2c0,0.2,0-0.3,0-0.2C546.3,91.1,546.1,90.8,546.3,90.8"/>
		<path class="st0" d="M546.4,97.9c0.3,0,0.6,0.2,0.6,0.5s-0.2,0.6-0.5,0.6l0,0c-3.1,0-5.4-2.3-8.2-1.3c-0.2,0-0.5,0-0.5-0.3
			c0-0.2,0-0.5,0.3-0.5c1.7-0.5,3.2-0.3,4.5,0.2C544,97.4,545.2,97.9,546.4,97.9"/>
		<path class="st0" d="M560.7,92.6c0.3-0.3,0.6-0.3,0.9,0c0.3,0.3,0.3,0.6,0,1s-0.6,0.3-0.9,0c-0.2-0.2-0.2-0.3-0.2-0.6
			c0-0.2,0,0.3,0,0.3c0-0.2,0.2,0.3,0.2,0.2l0.2,0.2c-0.2,0,0.2,0.2,0.2,0.2l-1.2,0.2c-0.2,0-0.5-0.2-0.5-0.3c0-0.2,0-0.5,0.3-0.5
			L560.7,92.6L560.7,92.6C560.8,92.4,560.5,92.6,560.7,92.6 M553.7,96.8c0.3,0.2,0.5,0.5,0.5,0.8s-0.3,0.5-0.6,0.5
			c-0.2,0-0.5-0.2-0.6-0.3c-0.2-0.3,0-0.5,0-0.6c0.2-0.3,0.3-0.5,0.6-0.6c1.1-1,2.6-1.6,4-2.3l2.6-1.5c0,0,0.2,0,0.2-0.2l0.5-0.2
			h0.3c0.2,0,0.3,0,0.3,0.2c0.5,0.3,0.3,0.6,0.3,0.6l-0.2,0.3c-0.2,0.3-0.3,0.5-0.5,0.6c0,0-0.2,0-0.2,0.2l-2.9,1.3
			c-1.4,0.6-2.9,1.1-3.9,1.8l-0.3,0.2v-0.2c0,0,0-0.5,0-0.3C554,97.3,553.7,96.8,553.7,96.8C553.9,96.9,553.7,96.8,553.7,96.8"/>
		<path class="st0" d="M535.6,93.9c-0.3-0.3-0.5-0.8-0.2-1.1s0.8-0.5,1.1-0.2l32.6,25.3c0.3,0.3,0.5,0.8,0.2,1.1s-0.8,0.5-1.1,0.2
			L535.6,93.9z"/>
		<path class="st0" d="M558,111.1c-0.2-0.3,0-0.8,0.3-1.1c0.3-0.2,0.8,0,1.1,0.3l11.8,26.8c0.2,0.3,0,0.8-0.3,1.1
			c-0.3,0.2-0.8,0-1.1-0.3L558,111.1z"/>
		<path class="st0" d="M565.9,108.1c0.2-0.3,0.6-0.3,0.9-0.2c0.3,0.2,0.3,0.6,0.2,1c-0.2,0.3-0.6,0.3-0.9,0.2
			c-0.2-0.2-0.3-0.3-0.3-0.5s0,0.3,0,0.3v0.2l0.2,0.2l0,0h-0.6c-0.2,0-0.5-0.2-0.5-0.3c0-0.2,0.2-0.3,0.3-0.5L565.9,108.1
			L565.9,108.1C566.1,108,565.8,108.1,565.9,108.1 M558.3,112c0.2-0.3,0.5-0.3,0.8-0.2c0.2,0.2,0.3,0.3,0.3,0.6v-0.3
			c0,0.2-0.2-0.3-0.2-0.3l-0.2-0.2c0.2,0-0.3,0-0.2,0h-0.2l0,0l0,0l0.5-0.2l1.4-0.6c1.1-0.5,2.2-1.1,3.2-1.8l2.4-1
			c0.2-0.2,0.3-0.2,0.5-0.3h0.3c0.2,0,0.3,0.2,0.3,0.3c0.3,0.3,0.2,0.5,0.2,0.6c0,0.2-0.2,0.3-0.3,0.5c-0.6,0.5-1.4,0.8-2.5,1.3
			s-2.2,1.1-3.4,1.6l-1.4,0.5l-0.5,0.2H559h-0.3c-0.2,0-0.3-0.2-0.3-0.5C558.2,112.2,558.2,112,558.3,112"/>
		<path class="st0" d="M551,129.3c0.2,0.3,0.2,0.6,0,0.8c-0.3,0.2-0.6,0.2-0.8,0s-0.2-0.3-0.2-0.3v0.2l-0.9-1.3
			c-0.2-0.2-0.2-0.5,0-0.6c0.2-0.2,0.5-0.2,0.5,0L551,129.3z M520.1,112.4c0.2,0.3,0,0.6-0.2,0.8c-0.3,0.2-0.6,0.2-0.8-0.2l-0.3-0.5
			c0-0.2-0.2-0.6,0.2-0.8c0.5-0.5,0.9-0.3,1.2-0.2c0.8,0.2,1.9,0.8,3.2,1.5c2.9,1.6,6.8,3.9,10.8,6.5s8.2,4.9,11.4,6.5l3.9,1.9
			l1.1,0.6c0.3,0.2,0.6,0.5,0.6,0.8c0,0.2,0.2,0.2,0,0.6c0,0.2,0,0.2-0.2,0.3c-0.3,0.5-0.5,0.5-0.6,0.5c-0.3,0.2-0.8,0.2-1.1,0
			l-1.2-0.6l-4-2.1c-3.2-1.8-7.4-4.1-11.6-6.7c-4-2.8-7.7-5.2-10.5-6.8l-2.8-1.6l-0.3-0.2c0,0,0.3,0,0.2,0c-0.2,0,0.3-0.3,0.3-0.3
			C519.9,112.6,519.9,112.3,520.1,112.4L520.1,112.4L520.1,112.4z"/>
		<path class="st0" d="M539.9,113.2c0.2-0.2,0.6-0.2,0.8,0s0.2,0.6,0,0.8l0,0l0.2-0.2v0.2v0.5l0.2,2.1l0.8,6l0.9,6.2
			c0.3,1.6,0.5,2.8,0.5,3.4c0,0.3-0.3,0.5-0.5,0.5c-0.3,0-0.5-0.2-0.5-0.5l-0.5-3.1l-0.9-6.2l-0.8-6.2l-0.2-2.1
			C539.6,114,539.5,113.7,539.9,113.2"/>
		<path class="st0" d="M554.3,116.1c-0.3-0.3-0.3-0.8,0-1.1s0.8-0.3,1.1,0s0.3,0.8,0,1.1c-0.3,0.2-0.6,0.3-0.9,0.2
			c-0.2,0,0.2,0,0.2,0c-0.2,0,0.2,0,0.2,0l-1.1,0.3c-0.2,0.2-0.5,0-0.5-0.3c0-0.2,0-0.3,0.2-0.5l0.6-0.6v0.2c0,0,0,0.3,0,0.2v0.2
			C554.2,115.8,554.3,116.3,554.3,116.1 M544.6,118.5c-0.3,0.2-0.6-0.2-0.8-0.3c-0.2-0.3,0-0.6,0.3-0.6c1.9-0.8,4.3-1.5,6.5-2.1
			l2.2-0.5c0.8-0.2,1.2-0.3,2-0.3c0.3,0,0.6,0.2,0.8,0.5l0.2,0.5c0,0.2,0,0.3,0,0.5l-0.2,0.3c-0.2,0.3-0.5,0.3-0.9,0.3l0,0l-1.4,0.3
			l-2.2,0.3C548.9,117.6,546.3,118,544.6,118.5"/>
		<path class="st0" d="M483.3,148.4c0.3-0.3,0.8-0.2,0.9,0.2c0.3,0.3,0.2,0.8-0.2,1c-0.2,0-0.2,0.2-0.3,0.2c-0.5,0-0.9,0-1.4-0.3
			c-0.6-0.3-1.1-0.6-1.5-1.5c-0.2-0.2,0-0.5,0.2-0.6c0.2-0.2,0.5,0,0.5,0.2c0.3,0.5,0.8,0.6,1.2,0.8L483.3,148.4L483.3,148.4
			L483.3,148.4z M450.1,138.5c0,0.3-0.3,0.5-0.6,0.5c-0.3,0-0.5-0.3-0.5-0.6c0.2-1,0.6-1.9,1.4-2.4s1.9-0.5,3.1-0.2
			c1.7,0.5,3.9,1.6,6.2,2.9c2.5,1.3,5.1,2.9,7.9,4.2c2.3,1,4.3,1.9,6.3,2.6l4.8,1.5c1.2,0.3,2.2,0.6,3.1,0.6h1.1l0.9,0.2
			c0.5,0,0.8,0.3,0.9,0.6c0,0.2,0.2,0.2,0.2,0.6c0,0.2,0,0.2,0,0.3c-0.2,0.3-0.2,0.5-0.3,0.5c-0.3,0.3-0.6,0.5-1.1,0.5h-0.8h-1.4
			c-1.1-0.2-2.2-0.5-3.4-0.8l-4.9-1.6c-2-0.6-4.2-1.6-6.5-2.8c-2.8-1.5-5.4-3.1-7.9-4.4c-2.3-1.5-4.3-2.6-5.7-3.1
			c-0.9-0.3-1.5-0.3-2-0.2C450.5,137.4,450.2,137.7,450.1,138.5"/>
		<path class="st0" d="M471.5,145.5c-0.2,0.2-0.5,0-0.6-0.2c-0.3-0.2-0.3-0.5-0.3-0.6v-0.2l0.2-0.3l1.2-0.8l6.8-3.9l5.6-2.9l2.6-1.1
			h0.2h0.6c0.2,0,0.6,0,0.9,0.5c0.2,0.3,0.2,1,0,1.1l-0.2,0.2l-0.3,0.2l-3.4,2.1c-0.2,0.2-0.5,0-0.6-0.2c-0.2-0.2,0-0.5,0.2-0.5
			c1.7-1.3,2.6-2.1,2.8-2.4l0,0l0,0c0,0,0,0.3,0,0.2c0-0.2,0.2,0.5,0.2,0.3s0.5,0.5,0.3,0.3c-0.2,0,0.5,0.2,0.3,0.2s0.3,0,0.3,0h0.2
			l-0.5,0.2h-0.2l-2.5,1l-5.6,2.8l-6.8,3.6l-1.2,0.6L471.5,145.5L471.5,145.5z M471.4,144.2c0.3,0,0.6,0.2,0.6,0.5s0,0.5-0.3,0.6
			l-0.3,0.2l0,0c-0.3,0.2-0.6,0-0.8-0.3s0-0.6,0.3-0.8s0.6,0,0.8,0.3c0,0.2,0,0.2,0,0.3c0,0.2-0.2-0.3,0-0.3c0,0.2-0.2-0.3-0.2-0.2
			C471.7,144.6,471.4,144.2,471.4,144.2C471.5,144.2,471.2,144.2,471.4,144.2L471.4,144.2z"/>
		<path class="st0" d="M483.1,158.7c0.3,0.3,0.2,1-0.3,1.1c-0.3,0.2-0.9,0.2-1.1-0.3s-0.2-1,0.3-1.1c0.3-0.2,0.8-0.2,0.9,0.2
			l-0.2-0.2c0.2,0-0.3-0.2-0.3-0.2h-0.2l0.2-0.2c0.2-0.2,0.5-0.2,0.6,0c0,0,0.2,0.2,0.2,0.3v0.3L483.1,158.7L483.1,158.7
			C483.3,158.7,483.1,158.5,483.1,158.7 M473.7,147.3c-0.2,0.3-0.5,0.5-0.8,0.5s-0.5-0.3-0.5-0.5s-0.2-0.5,0.3-0.6
			c0.5-0.3,0.6,0,0.8,0.2l0.6,0.6l1.4,2.3c1.2,1.9,3.1,3.7,4.5,5.4l1.9,2.3l0.6,1l0,0h-0.2H482c0.6,0,0.9,0.6,0.9,1.1s-0.6,1-1.1,1
			c-0.6,0-0.9-0.5-1.1-0.6l-0.6-1l-1.7-2.3c-1.4-1.6-3.2-3.6-4.5-5.8l-1.2-2.4l-0.3-0.6l0,0c0,0,0.3,0.2,0.2,0.2s0.5,0,0.3,0
			s0.3-0.2,0.2-0.2C473.6,147.6,473.7,147.3,473.7,147.3L473.7,147.3z M483.3,159.2c0,0.6-0.5,1.1-1.1,1.1s-1.1-0.5-1.1-1.1
			c0-0.6,0.5-1.1,1.1-1.1C482.8,158,483.3,158.5,483.3,159.2"/>
		<path class="st0" d="M414.2,82c-0.3,0.2-0.8,0-0.9-0.5c-0.2-0.5,0-0.8,0.5-1l114.1-50.6c0.3-0.2,0.8,0,0.9,0.5
			c0.2,0.3,0,0.8-0.5,1L414.2,82z"/>
		<path class="st0" d="M494.5,44c0.3-0.2,0.6,0,0.8,0.2s0.2,0.5-0.2,0.6l-0.2,0.2l0,0c0,0,0,0.2-0.3,0.2s-0.6-0.3-0.6-0.5v-0.3
			l0.2-0.3l0.6-1.1c0.6-0.8,1.4-1.8,2.2-3.1c1.9-2.9,3.7-7.6,5.6-11.8c0.9-1.9,1.9-3.6,2.5-4.9c0.6-1.1,0.9-1.9,1.2-2.6l0.6-1.5
			l0.6-1l0.2-0.3l0,0c0,0-0.2,0.2,0,0.2c0.2-0.6,0.9-1,1.5-0.6c0.6,0.2,0.9,1,0.6,1.6c-0.2,0.3-0.3,0.5-0.5,0.6l0.2-0.2h0.2l0,0
			l-0.2,0.2l-0.5,0.6l-0.6,1.5l-1.4,2.8c-0.8,1.3-1.7,2.8-2.6,4.7c-2,3.9-3.9,8.8-6,11.8c-0.9,1.3-1.9,2.3-2.3,3.1l-0.8,0.8V45l0,0
			c0,0,0.2-0.3,0.2-0.2v-0.3c0,0.2-0.2-0.3-0.2-0.2c0,0.2-0.3-0.3-0.3-0.2c0.2,0-0.3,0-0.3,0L494.5,44C494.5,44,494.5,44.2,494.5,44
			 M509.6,18.7c0,0.6-0.5,1.1-1.1,1.1s-1.1-0.5-1.1-1.1s0.5-1.1,1.1-1.1S509.6,18.1,509.6,18.7"/>
		<path class="st0" d="M536.5,43.2c0.3,0.3,0.5,0.8,0.2,1.1c-0.3,0.3-0.8,0.5-1.1,0.2s-0.5-0.8-0.2-1.1
			C535.8,43.2,536.1,43.1,536.5,43.2l-0.3-0.2c0.2,0-0.2,0-0.2,0h-0.2C536.1,43.1,536.4,43.1,536.5,43.2L536.5,43.2L536.5,43.2
			L536.5,43.2L536.5,43.2L536.5,43.2z M510.6,42.1c-0.3,0-0.5-0.3-0.5-0.6c0-0.3,0.3-0.5,0.6-0.5l4.2-0.3l6.2-0.5
			c3.2-0.2,6,0.3,8.7,1.3l3.9,1.1l1.4,0.3h0.5h-0.2c0.6-0.3,1.4,0.2,1.5,0.8c0.3,0.6-0.2,1.5-0.8,1.6h-0.2h-0.6l-0.9-0.2l-1.5-0.5
			l-3.9-1.3c-2.5-0.8-4.9-1.5-7.9-1.5h-6.3C512.9,42.3,511.3,42.3,510.6,42.1 M537,44.2c0,0.6-0.6,1.3-1.2,1.3
			c-0.6,0-1.2-0.6-1.2-1.3c0-0.6,0.6-1.3,1.2-1.3C536.4,42.9,537,43.6,537,44.2"/>
		<path class="st0" d="M524.1,106.7c-0.2,0.2-0.6,0.2-0.8,0c-0.2-0.2-0.2-0.5-0.2-0.8l1.7-3.2c0.8-1.5,1.9-3.4,3.2-5.7l2.6-3.9
			c2.2-3.1,4-5.2,5.9-7.5l5.7-7.1c1.7-2.1,2.5-3.6,3.4-4.9l1.1-1.5l1.4-1.8l0.3-0.5l0,0l0,0V70c0-0.3,0.2-0.6,0.3-0.8l0,0
			c0,0-0.2,0.3-0.2,0.2c0,0-0.2,0.6-0.2,0.5s0.2,0.6,0.2,0.5s0.3,0.3,0.2,0.3c-0.2,0,0.2,0.2,0.2,0.2c-0.3,0-1.1,0.2-2.2,0.5
			c-0.2,0-0.5,0-0.5-0.3c0-0.2,0-0.3,0.2-0.5l2.2-1.5l0.5-0.3c0,0,0.3-0.2,0.6-0.2c0.3,0,0.6,0.3,0.9,0.5c0.2,0.3,0.3,0.6,0.3,1
			c0,0.8-0.5,1.1-0.8,1.6l-1.4,1.9l-1.1,1.3c-0.9,1.3-1.7,2.8-3.6,4.9l-5.9,7c-2,2.3-3.9,4.2-6,7.1l-2.6,3.7l-3.4,5.4
			C525.4,105.3,524.7,106.1,524.1,106.7"/>
		<path class="st0" d="M513,75.5c0.5-0.3,0.9-0.3,1.4,0.2c0.3,0.5,0.3,1-0.2,1.5s-0.9,0.3-1.4-0.2c-0.3-0.3-0.3-0.8-0.2-1.1
			c0-0.2-0.2,0.3-0.2,0.3c0-0.2,0,0.3,0,0.3c0-0.2,0,0.3,0,0.2v0.2l0.2,0.2l0,0c-0.2-0.2-0.8-0.3-1.5-0.5c-0.2,0-0.3-0.3-0.3-0.5
			c0-0.2,0.2-0.3,0.3-0.3L513,75.5h0.2l0,0H513L513,75.5C513.2,75.4,512.9,75.5,513,75.5 M462,64c0.3-0.2,0.6,0.2,0.8,0.5
			c0.2,0.3,0,0.6-0.3,0.6h-0.2V65c0,0,0-0.5,0-0.3c0,0.2-0.2-0.3-0.2-0.3l-0.2-0.2l0,0l1.5,0.2l5.3,0.6c1.7,0.2,3.4,0.6,5.3,1l3.9,1
			c2,0.5,4.2,0.6,6.5,1c3.4,0.5,6.5,1.3,9.1,2.1c2.6,0.8,5.1,1.8,7.4,2.8c2.5,1,4.9,1.8,7.1,1.9c1.2,0.2,2.5,0.2,3.7,0.2h1.5
			c0.2,0,0.3,0,0.5,0l0.5,0.2l0.3,0.3c0.2,0.2,0.2,0.3,0.2,0.5c0,0.3,0,0.5,0,0.6c-0.2,0.6-0.5,0.6-0.8,0.8c-0.2,0-0.3,0.2-0.5,0.2
			h-1.7c-1.1,0-2.6,0-4-0.2c-2.5-0.3-5.1-1.3-7.7-2.3c-4.5-1.9-9.4-3.9-16.1-4.9c-2.2-0.3-4.5-0.6-6.6-1.1l-3.9-1
			c-1.9-0.5-3.4-1-4.9-1.3l-5.1-0.8c-0.8-0.2-1.2-0.2-1.7-0.5l-0.3-0.3c-0.2-0.2-0.3-0.5-0.2-0.8c0.1-0.3,0.3-0.3,0.3-0.5L462,64z"
			/>
		<path class="st0" d="M507.8,75.5c0.3-0.2,0.6,0,0.8,0.3c0.2,0.3,0,0.6-0.3,0.8c-0.3,0.2-0.5,0.2-0.8,0.2c-0.2,0-0.5-0.3-0.5-0.5
			v-0.5c0.2-0.5,0.5-0.8,0.8-1.1c0.6-0.6,1.5-1.5,2.8-2.4l4.6-3.2l7.1-4.7l3.6-2.3c1.7-1.1,3.1-1.8,4.3-2.4l3.7-2.1l1.4-0.8
			c0.2-0.2,0.3-0.2,0.5-0.2l0,0c0,0-0.3,0.2-0.2,0.2c0.2-0.2-0.2,0.5-0.2,0.3s0,0.3,0,0.3l0,0l-0.2-0.2c-0.2-0.2-0.3-0.3-0.2-0.6
			c0-0.2,0.2-0.2,0.3-0.2h0.8c0.2,0,0.5,0.2,0.6,0.5c0.2,0.3,0.2,0.6,0,1c0,0.2-0.2,0.3-0.3,0.5c-0.5,0.5-1.1,0.8-1.9,1.1l-3.7,2.1
			c-1.2,0.6-2.6,1.3-4.2,2.4l-3.7,2.3l-7.1,4.5l-4.8,3.1c-1.2,0.8-2.2,1.5-2.6,2.1l-0.5,0.6l0,0v-0.2c0,0-0.2-0.3-0.2-0.2
			C507.9,75.8,507.6,75.7,507.8,75.5h-0.2H507.8z"/>
		<path class="st0" d="M526.8,79.6c-0.2-0.3-0.2-0.6,0.2-1c0.3-0.2,0.6-0.2,0.9,0.2c0.2,0.3,0.2,0.6-0.2,1
			C527.6,79.9,527.3,79.9,526.8,79.6l0.3,0.2c0,0,0.2,0,0,0l0,0c-0.2,0-0.5-0.2-0.3-0.5v-0.2v0.2V79.6
			C526.8,79.4,527,79.7,526.8,79.6 M510.4,79.1c0.2-0.3,0.5-0.5,0.8-0.3c0.3,0.2,0.5,0.5,0.3,0.6c0,0-0.2-0.3,0-0.2l0,0l1.2,0.2
			c1.2,0,3.1-0.3,4.9-0.6c2.2-0.3,4.2-0.6,5.9-0.8h1.9h1.5h0.5c0.2,0,0.5,0,0.8,0.6c0.3,0.5,0,1.1-0.5,1.3c-0.5,0.3-1.1,0-1.2-0.5
			l0,0c0-0.2,0.3,0.3,0.2,0.3c-0.2-0.2,0.3,0.2,0.2,0.2h0.2h-0.2h-1.4h-1.9c-1.5,0-3.6,0.2-5.7,0.5c-2,0.3-3.9,0.5-5.3,0.3
			c-0.6,0-1.2,0-1.7-0.3c-0.3-0.2-0.5-0.3-0.6-0.5C510.3,79.6,510.4,79.3,510.4,79.1 M528.5,79.1c0,0.5-0.5,1-0.9,1s-0.9-0.5-0.9-1
			s0.5-1,0.9-1C528,78,528.5,78.4,528.5,79.1"/>
		<path class="st0" d="M416.7,110.1c-0.3,0.2-0.6,0-0.8-0.3s0-0.6,0.3-0.8l3.1-1.6c2.5-1.1,6.5-2.4,10.4-4.1c2.3-1,4.3-1.8,6-2.6
			l2.5-1.1l1.1-0.5c0.5-0.2,0.9,0.2,1.1,0.6c0.2,0.3,0,0.8-0.5,1l-0.9,0.5l-2.5,1.1c-1.7,0.8-3.7,1.6-6.2,2.6
			c-4,1.5-8.2,2.8-10.4,3.7L416.7,110.1z"/>
		<path class="st0" d="M447.9,84.1c-0.2-0.3,0-0.6,0.3-0.8c0.3-0.2,0.6,0,0.8,0.3c0,0.2,0,0.2,0,0.3c0,0.3-0.2,0.6-0.3,1l-0.9,1.8
			c-0.2,0.2-0.3,0.3-0.6,0.2c-0.2-0.2-0.3-0.3-0.2-0.5l0.6-1.8L447.9,84.1L447.9,84.1L447.9,84.1z M430.3,103.1c0-0.2,0-0.5,0.2-0.6
			v-0.2l0.3-0.3l2.5-2.9c1.5-1.6,3.6-3.2,5.3-5c2.6-2.6,4.3-5.2,5.7-7.6c0.8-1.1,1.5-2.3,2.2-2.9l0.8-0.6l0.5-0.3
			c0.2,0,0.5-0.2,0.9,0c0.6,0.2,0.8,0.8,0.6,1.5c-0.2,0.5-0.6,0.8-1.1,0.6c-0.2,0,0.5,0,0.3,0h0.2l0,0l-0.5,0.5
			c-0.6,0.6-1.2,1.6-2,2.8c-1.5,2.3-3.6,5-6.3,7.6c-1.9,1.6-3.9,3.2-5.4,4.7l-2.6,2.8l-0.3,0.3l-0.2,0.2h-0.3h-0.3
			C430.6,103.6,430.5,103.4,430.3,103.1 M430.9,102c0.2-0.3,0.6-0.3,0.8-0.2c0.3,0.2,0.3,0.5,0.2,0.8l-0.2,0.5l0,0v-0.2
			c0,0,0-0.3,0-0.2c0,0-0.2-0.3-0.2-0.2c0,0-0.3-0.3-0.3-0.2h-0.3c0.3,0,0.6,0.3,0.6,0.6c0,0.3-0.3,0.6-0.6,0.6
			c-0.3,0-0.6-0.3-0.6-0.6c0-0.2,0-0.3,0.2-0.3l0.2-0.2L430.9,102z"/>
		<path class="st0" d="M433.9,103.4c-0.3,0-0.5-0.3-0.5-0.6c0-0.3,0.3-0.5,0.6-0.5c2,0,4.9,0.5,8.2,1.3c2.5,0.6,4.3,1.8,6,2.6l1.7,1
			l1.2,0.5h0.3l0,0l-0.2,0.2c0-0.2,0.2-0.2,0.3-0.2s-0.2,0.2-0.2,0.2l0,0V107c0-0.2,0-0.5,0.3-0.5c0.2,0,0.3,0,0.5,0.2l0.5,1
			c0.2,0.3,0.2,0.5,0.2,0.8c0,0.2,0,0.3-0.2,0.3c-0.2,0.3-0.6,0.6-0.9,0.8c-0.3,0.2-0.6,0.2-0.9,0c-0.6,0-1.2-0.3-1.7-0.5l-1.9-1
			c-1.5-1-3.2-1.9-5.4-2.6C438.5,104.4,435.6,103.6,433.9,103.4"/>
		<path class="st0" d="M463.3,91.3c0.2-0.3,0.5-0.5,0.6-0.3c0.3,0.2,0.5,0.5,0.3,0.6c-0.2,0.3-0.5,0.5-0.6,0.3
			c-0.2,0-0.3-0.2-0.3-0.3l0.2,0.2c0-0.2,0.2,0.2,0.2,0.2h0.2h-0.5c-0.2,0-0.5-0.2-0.5-0.3c0-0.2,0.2-0.3,0.3-0.5l0.5-0.2h0.2
			c0,0-0.2,0.2,0,0l0,0C463.4,90.9,463.3,91.4,463.3,91.3 M442.7,102.5c-0.2-0.3-0.2-0.6,0.2-0.8c0.2-0.2,0.5-0.2,0.8,0
			c0.2,0.2,0.3,0.2,0.5,0.2l1.1-0.3c0.9-0.3,2.2-1.1,3.6-1.9l4.8-2.9c2.3-1.5,4-2.6,5.3-3.4l1.2-1l1.5-1c0.8-0.3,1.5-0.6,2-0.6h0.3
			c0,0,0.2,0,0.3,0.2s0.2,0.2,0.2,0.3c0,0.3,0,0.3,0,0.5c-0.2,0.3-0.3,0.3-0.3,0.3l-1.5,1l-1.2,1l-1.2,1.1l-5.4,3.4l-4.8,2.8
			c-1.5,0.8-2.8,1.5-4,1.8c-0.6,0.2-1.1,0.2-1.5,0.2C443.5,103.1,443,102.9,442.7,102.5"/>
		<path class="st0" d="M470.7,98.9c0.5-0.2,0.9,0,1.1,0.5s0,1-0.5,1.1c-0.5,0.2-0.9,0-1.1-0.5c-0.2-0.3,0-0.6,0.2-1l-0.2,0.2
			c0.2-0.2-0.2,0.5-0.2,0.3s0,0.3,0,0.3c0-0.2,0.2,0.2,0.2,0.2l0,0c-0.2-0.2-0.6-0.3-1.2-0.5c-0.2,0-0.3-0.3-0.3-0.5
			s0.2-0.3,0.5-0.3L470.7,98.9h0.2l0,0H470.7L470.7,98.9z M456,98.2c0.3-0.2,0.6,0,0.8,0.3c0.2,0.2,0,0.5-0.2,0.6l0,0v-0.2v-0.2
			c0,0.2,0-0.3,0-0.3s-0.2-0.3-0.2-0.2c0,0.2-0.3-0.2-0.2-0.2h-0.1l0,0h0.2l1.9-0.2c1.9-0.2,3.9-0.5,5.9-0.2c1.4,0.2,2.8,0.6,4,0.8
			c1.2,0.2,2.3,0.3,2.3,0.2c0.2,0,0.5,0,0.6,0l0.3,0.2c0.2,0.2,0.2,0.2,0.3,0.3c0.2,0.5,0.2,0.6,0,0.8c0,0.2-0.2,0.3-0.3,0.5
			c-0.6,0.3-0.9,0.3-1.5,0.3h-1.9c-1.5-0.2-2.9-0.6-4.2-0.8c-1.7-0.3-3.6-0.2-5.6-0.2l-2-0.2c-0.3,0-0.6,0-0.8-0.5
			c-0.2-0.3,0-0.8,0.2-1L456,98.2z"/>
		<path class="st0" d="M484.6,83.6c0.2-0.3,0.6-0.5,1.1-0.3c0.3,0.2,0.5,0.6,0.3,1.1c-0.2,0.3-0.6,0.5-1.1,0.3
			c-0.3-0.2-0.5-0.3-0.5-0.6c0-0.2,0.2,0.3,0.2,0.3l0.2,0.2c-0.2-0.2,0.3,0.2,0.2,0.2h0.2h0.2c-0.6,0.2-2.2,1.1-2.5,1.6
			c-0.2,0.2-0.5,0.2-0.6,0c-0.1-0.2-0.2-0.3-0.2-0.5c0.5-1,1.7-1.9,2.6-2.4L484.6,83.6L484.6,83.6L484.6,83.6L484.6,83.6z
			 M465.9,97.6c0.3-0.2,0.6-0.2,0.8,0c0.2,0.2,0.2,0.6,0,0.8l-0.3,0.5l0,0l0,0v-0.2c0,0-0.2-0.3,0-0.3c0,0.2-0.3-0.3-0.2-0.2
			c0.2,0.2-0.3-0.2-0.3-0.2h-0.2h0.2c0.5-0.3,1.5-1,2.9-2.1c2.8-2.4,6.3-6,10.1-8.8c2-1.5,3.7-2.4,4.9-3.2l1.1-0.6
			c0.2,0,0.3-0.2,0.3-0.2h0.3h0.2c0.2,0,0.3,0.2,0.5,0.3l0.3,0.5c0.2,0.5,0,0.8-0.2,1c0,0.2-0.2,0.2-0.3,0.3l-1.1,0.6
			c-1.2,0.8-2.9,1.6-4.8,3.1c-3.7,2.6-7.3,5.8-10.2,8.3c-1.4,1.1-2.6,1.9-3.4,2.1c-0.2,0-0.3,0.2-0.6,0.2c-0.2,0-0.3-0.2-0.5-0.3
			c-0.2-0.3-0.2-0.5,0-0.6C465.1,98.1,465.4,97.9,465.9,97.6"/>
		<path class="st0" d="M479.8,94.3c-0.3,0.2-0.6,0-0.8-0.3s0-0.5,0.2-0.6c0.9-0.8,2.6-0.8,4.5-1c1.2,0,2.3,0,3.4,0.2
			c1.4,0.2,2.8,0.5,4.2,0.5c1.1,0,2.3,0,3.6-0.5c0.9-0.2,1.7-0.3,2.5-0.5c0.2,0,0.5,0,0.5,0.3c0,0.2,0,0.3-0.2,0.5l-2.3,1.5
			c-1.5,0.5-2.8,0.8-4.2,0.8c-1.5,0-3.1-0.2-4.5-0.3c-1.1-0.2-2-0.3-3.1-0.3C482,94,480.3,94.2,479.8,94.3"/>
		<path class="st0" d="M462.3,185.6c0.4-0.1,0.7,0,0.8,0.3s0.2,0.6,0,0.8l0.1-0.1c-0.1,0.1,0.1-0.4,0.1-0.4l0-0.3l0.1,0.1l1.4,0.7
			c1.4,0.6,3.5,1.2,6.1,2.1l8.5,2.6l4.8,1.6c2.9,1,5.8,2.1,8.3,3.1l4.8,1.9c0.7,0.4,1.1,0.6,1.4,1c0.2,0.2,0.4,0.7,0.1,1.2
			c-0.1,0.4-0.4,0.4-0.7,0.4l-0.3,0c-0.4,0-1.1-0.2-1.9-0.4c-0.9-0.3-1.5-0.6-2.1-1.1c-0.1-0.1-0.2-0.5-0.2-0.6
			c0.1-0.1,0.4-0.1,0.6-0.2c1.2,0.5,3.2,0.8,3.3,0.7c0,0-0.2,0.2-0.1,0.1c0.1-0.1-0.2,0.2-0.2,0.2c0.1-0.1-0.1,0.6-0.1,0.4
			c0-0.3,0.2,0.5,0.1,0.4s0.1,0.1,0.1,0.1l0.1,0.1l0,0l-1-0.5l-4.9-2c-2.6-1-5.4-2.2-8.2-3.3l-4.7-1.8l-8.4-3
			c-2.4-0.8-4.6-1.7-6-2.3c-0.7-0.4-1.2-0.7-1.7-0.9c-0.2-0.2-0.4-0.3-0.4-0.7C461.9,186.4,462.1,185.8,462.3,185.6"/>
		<path class="st0" d="M484.7,210.1c0.3-0.4,0.9-0.2,1.1,0c0.4,0.3,0.2,0.9,0,1.1c-0.3,0.4-0.9,0.2-1.1,0s-0.2-0.6,0-0.8l-0.1,0.1
			c0.1-0.1,0,0.3-0.1,0.1l0,0l0-0.3c0-0.3,0-0.4,0.3-0.6l0.3,0l0.1,0.1l0,0l-0.1,0.1C485.1,210.1,484.7,210.1,484.7,210.1
			L484.7,210.1z M474.9,193.7c0-0.3,0-0.3,0.1-0.4c0.3-0.6,0.6-0.3,0.6-0.2c0.3,0,0.4,0.1,0.6,0.2l1.2,0.7c0.4,0.4,1.2,0.8,1.7,1.4
			c0.9,1.1,0.6,2.3,0.8,2.9c0.3,1.7,2.8,4.1,4.5,6.8c0.9,1.2,1.4,2.6,1.8,3.8l0.5,1.3l0,0.7c0,0.3,0,0.7-0.5,1
			c-0.6,0.3-1.3,0.2-1.4-0.5c-0.1-0.4-0.2-0.6,0-0.8c0.1-0.1-0.1,0.4-0.1,0.4c0.1-0.1,0,0.3,0,0.3l0,0l-0.1-0.1l-0.4-1.2
			c-0.3-1-0.8-2.1-1.6-3.3c-1.6-2.4-4.1-4.7-4.6-7.6c-0.1-1.2-0.1-2.1-0.2-2.3c-0.2-0.5-0.8-0.8-1.3-1.4l-0.9-1.1l-0.4-0.3
			C475,193.9,474.9,194.1,474.9,193.7 M476.1,193.6c-0.1,0.4-0.3,0.6-0.5,0.6c0,0-0.3,0-0.4-0.1l0,0l0,0c0,0,0.3,0,0.1,0.1
			c-0.4-0.1-0.6-0.3-0.4-0.7c0.1-0.4,0.3-0.6,0.7-0.4C476,193,476.2,193.3,476.1,193.6c0,0.3-0.1,0.4-0.2,0.5
			c-0.1,0.1,0.2-0.2,0.2-0.2C476,194,476.1,193.6,476.1,193.6L476.1,193.6z"/>
		<path class="st0" d="M482.6,200.4c0.2-0.2,0.6-0.2,0.8,0c0.2,0.2,0.2,0.6,0,0.8l0,0l-0.7,0.4l-0.2,0.5l0.1,0.1l0.7,0.4l2.4,0.7
			l3.1,0.7l3.8,0.7c1.8,0.6,3.7,1.3,6.5,2.5c0.1,0.1,0.4,0.3,0.2,0.6c-0.1,0.1-0.3,0.4-0.5,0.2c-3.1-0.8-4.9-1.3-6.8-1.4l-3.8-0.9
			l-3.2-0.8c-0.9-0.4-1.7-0.7-2.4-1.1l-0.9-0.6c-0.2-0.2-0.4-0.7-0.3-1c0-0.4,0.2-0.9,0.4-1.1L482.6,200.4z"/>
		<path class="st0" d="M333.1,250.6c-0.2-0.3,0-0.6,0.3-0.8s0.6,0,0.8,0.3c0.3,0.5,0,0.6,0,1l-0.5,1.1l-1.7,3.6l-4.9,9.2l-2.2,4.1
			l-1.4,2.4l-0.2,0.2l-0.5,0.3h-0.3c0,0-0.2,0-0.2-0.2c-0.2-0.2-0.2-0.2-0.2-0.3v-0.6v-0.2l1.4-2.4l2.2-4.1l4.9-9.2l1.7-3.4
			L333.1,250.6L333.1,250.6C332.9,250.5,333.1,250.6,333.1,250.6"/>
		<path class="st0" d="M317.1,270.3c-0.3,0.3-0.6,0.3-0.9,0c-0.3-0.3-0.3-0.6,0-1c0.3-0.3,0.6-0.3,0.9,0c0.2,0.2,0.2,0.3,0.2,0.6
			c0,0.2,0-0.3,0-0.3c0,0.2-0.3-0.3-0.2-0.3c0.2,0.2-0.3-0.2-0.2-0.2h-0.2l0,0h0.2l1.2-0.8c0.2-0.2,0.5-0.2,0.6,0.2
			c0.2,0.2,0.2,0.5,0,0.5l-1.2,1.1L317.1,270.3L317.1,270.3C317,270.3,317.1,270.1,317.1,270.3 M414.2,218.3
			c-0.2,0.3-0.6,0.3-0.8,0.2c-0.3-0.2-0.3-0.5-0.2-0.8l0.3-0.5l0,0c0,0-0.3-0.2-1.1-0.2s-1.7,0-3.1,0.3c-2.9,0.6-7,2.1-11.4,3.6
			l-4.6,1.5c-2,0.6-4,1.3-6.3,2.1c-2.5,1-5.3,2.1-8.5,3.6c-2.5,1.1-5.1,2.4-7.9,3.9l-5.9,2.8l-10.2,4.9l-4.6,2.4
			c-3.2,1.8-6.6,3.7-9.7,5.8c-1.5,1-2.9,2.1-4.3,3.1l-3.6,2.6c-1.4,1-2.2,1.6-2.6,2.1c-0.3,0.3-0.6,0.8-0.9,1.3l-0.6,0.8
			c-0.8,1.1-1.7,2.1-2.5,2.9l-1.2,1.1l-1.2,1.6l-1.4,1.5l-0.9,1.3l-1.5,1.9l-0.6,1c-0.3,0.5-0.9,0.6-1.1,0.8c0,0-0.2,0-0.2,0.2
			l-0.6,0.3l-0.3,0.2h-0.2c-0.2,0-0.2,0-0.3,0s-0.3-0.2-0.5-0.2c-0.3-0.3-0.2-0.5-0.2-0.6c0-0.3,0.2-0.5,0.3-0.6l0.8-0.6
			c0,0,0.2,0,0.2-0.2l0.5-0.2l0,0l0.5-0.8l1.5-2.1l1.1-1.3l1.2-1.5c0.5-0.6,0.9-1.1,1.4-1.6l1.2-1.1c0.8-0.8,1.5-1.8,2.3-2.8
			l0.6-0.8c0.3-0.5,0.5-1,1.1-1.5c0.6-0.6,1.4-1.3,2.8-2.3l3.6-2.6c1.4-1,2.8-2.1,4.5-3.2c3.1-2.1,6.5-4.1,9.7-5.8l4.6-2.4l10.4-4.9
			l5.9-2.8c2.6-1.3,5.4-2.8,7.9-3.9c3.2-1.5,6-2.6,8.5-3.6c2.3-0.8,4.5-1.6,6.3-2.1l4.6-1.5c4.5-1.5,8.5-2.9,11.6-3.6
			c1.5-0.3,2.6-0.3,3.4-0.3s1.5,0.2,2,0.6c0.2,0.3,0.3,0.8,0.2,1.1C414.7,217.7,414.5,218,414.2,218.3"/>
		<path class="st0" d="M333.1,267.8c0.3,0,0.6,0.3,0.6,0.6c0,0.3-0.3,0.6-0.6,0.6c-0.3,0-0.6-0.3-0.6-0.6c0-0.2,0-0.3,0.2-0.3
			l-0.2,0.2c0-0.2,0,0.2,0,0.2l0,0l-0.2-0.5c0-0.2,0.2-0.5,0.3-0.5s0.3,0,0.5,0.2l0.2,0.3l0,0l0,0L333.1,267.8
			C333.2,268,332.9,267.8,333.1,267.8 M338.3,248.7c-0.2,0.3-0.5,0.5-0.8,0.3s-0.5-0.5-0.3-0.8c0.2-0.2,0.2-0.3,0.3-0.5
			c0.2-0.2,0.6-0.3,0.8,0c0.2,0.2,0.2,0.3,0.2,0.5c0,0.3,0,0.6,0,1.1c-0.3,2.1-0.9,5.7-2.2,9.4l-1.9,5.8l-0.5,1.8l-0.2,1.1
			c-0.2,0.3,0,0.8-0.3,1.5c-0.2,0.3-0.6,0.3-0.9,0.2c-0.3-0.2-0.3-0.6-0.2-1V268l0.2-0.8l0.2-1.1l0.5-1.9l1.9-5.8
			c1.1-3.6,1.9-7.1,2.2-9.2l0.2-0.8l0,0c0,0,0.2,0.3,0.2,0.2c0,0,0.3,0.2,0.2,0.2S338.4,248.8,338.3,248.7
			C338,248.7,338.5,248.5,338.3,248.7l0.2-0.2L338.3,248.7z"/>
		<path class="st0" d="M360.7,234.4c-0.3,0-0.6-0.2-0.6-0.5s0.2-0.6,0.5-0.6c0.5-0.2,1.1,0.2,1.4,0.5s0.5,0.8,0.6,1.3
			c0.2,1,0.2,2.3,0.2,3.7c0,2.8-0.5,5.7-0.9,8.3l-1.2,6.2c0,0.2-0.2,0.2-0.2,0.3l-0.3,0.3c-0.2,0.2-0.5,0.2-0.6,0c0,0,0,0,0-0.2
			l-0.2-0.3c0-0.2,0-0.3,0-0.3l1.4-6c0.5-2.6,0.9-5.4,0.9-8c0-1.3,0-2.6-0.2-3.4l-0.3-0.8C360.9,234.4,360.9,234.4,360.7,234.4"/>
		<path class="st0" d="M360.4,243.3c0.2,0.3,0,0.6-0.3,0.8s-0.6,0-0.6-0.3c0,0,0.3,0.3,0.2,0.2c-0.2,0,0.3,0,0.3,0
			c-0.2,0,0.2,0,0.2,0l-0.5,0.5l-1.7,1.9c-0.8,0.8-1.7,1.5-2.5,2.1c-1.1,0.6-1.9,1-2.6,1.6c-0.2,0.2-0.5,0.2-0.6,0
			c-0.2-0.2-0.2-0.3,0-0.5c0.8-1,1.5-1.5,2.3-2.3c0.9-0.6,1.7-1.3,2.5-1.9l1.9-1.8l0.6-0.6c0.2,0,0.3-0.2,0.5-0.2
			C360,242.8,360.3,243.2,360.4,243.3"/>
		<path class="st0" d="M413.8,191.9c0.5-0.2,0.8,0.2,0.9,0.6c0.2,0.5-0.2,0.8-0.6,1L276,222.2c-0.5,0.2-0.8-0.2-0.9-0.6
			c-0.2-0.5,0.2-0.8,0.6-1L413.8,191.9z"/>
		<path class="st0" d="M293.2,247.7c0.3,0.2,0.3,0.6,0.2,1c-0.2,0.3-0.6,0.3-0.9,0.2c-0.3-0.2-0.3-0.6-0.2-1
			c0.2-0.2,0.3-0.3,0.6-0.3c0.2,0-0.3,0-0.2,0h-0.2l0.3-0.3c0.2-0.2,0.5-0.2,0.6,0c0.2,0.2,0.2,0.3,0.2,0.5l-0.2,0.3v-0.2v-0.2
			C293.5,248,293.2,247.7,293.2,247.7 M313.9,217.4c0,0.3-0.3,0.5-0.6,0.5c-0.3,0-0.5-0.3-0.5-0.6v-0.8v0.2l0.3,0.2
			c-0.2,0,0.3,0,0.3,0l0,0l-1.4,1.8l-3.4,4.9l-4.3,6.7c-2.3,3.9-4.6,7.6-6.3,10.5l-1.5,2.8c-0.5,0.8-0.6,1.3-0.9,1.8l-0.9,1.6
			l-0.8,1.5l-0.3,0.5l-0.2,0.2l-0.2,0.2c0,0-0.2,0.2-0.5,0.2c-0.3,0-0.6-0.3-0.6-0.5c-0.2-0.3,0.2-0.8,0.5-1
			c0.3-0.2,0.8,0.2,0.9,0.5c0,0.2,0,0.2,0,0.3v-0.3c0,0.2-0.3-0.5-0.2-0.3c0.2,0.2-0.5-0.2-0.3-0.2c0.2,0-0.3,0-0.2,0
			c0.2,0-0.3,0-0.2,0h-0.2l0,0l0.3-0.3l0.8-1.3l0.8-1.6c0.2-0.5,0.5-1.1,0.9-2.1l1.5-2.8c1.7-2.9,3.9-6.7,6.3-10.5l4.3-6.7l3.4-4.9
			c0.8-1,1.2-1.8,1.9-2.1c0.2-0.2,0.5-0.2,0.8,0s0.5,0.5,0.5,0.6C314,216.4,314,216.9,313.9,217.4 M293.5,248.3
			c0,0.5-0.3,0.8-0.8,0.8s-0.8-0.3-0.8-0.8s0.3-0.8,0.8-0.8C293.2,247.5,293.5,247.9,293.5,248.3"/>
		<path class="st0" d="M284.2,238.8c-0.3,0.2-0.6,0.2-0.8,0c-0.2-0.3-0.2-0.6,0-0.8c0.3-0.2,0.6-0.2,0.8,0s0.2,0.3,0.2,0.5
			s0-0.3,0-0.2c0,0.2-0.2-0.3-0.2-0.2c0,0.2-0.2-0.2-0.2-0.2h-0.2l0,0h0.2l1.2-0.3c0.2,0,0.5,0,0.5,0.3c0,0.2,0,0.5-0.2,0.5
			l-1.2,0.6L284.2,238.8L284.2,238.8L284.2,238.8C284.2,238.8,284.4,238.6,284.2,238.8 M301.2,233.3c0,0.3-0.3,0.6-0.6,0.6
			c-0.3,0-0.5-0.3-0.6-0.6l0.2,0.2H300c-0.3,0-1.1,0.2-1.9,0.5c-1.7,0.6-3.7,1.6-5.7,2.4c-2,0.8-3.9,1.3-5.4,1.8l-1.9,0.6l-0.8,0.2
			h-0.2h-0.3c-0.2,0-0.3,0-0.3-0.2c-0.5-0.3-0.3-0.6-0.2-0.8l0.2-0.2l0.3-0.3l0.8-0.5l2.2-0.6c1.4-0.5,3.2-1,5.3-1.6
			c2-0.8,4.2-1.6,5.9-2.3c0.8-0.3,1.5-0.5,2.2-0.5c0.3,0,0.6,0,0.9,0.3C301.1,232.4,301.2,232.9,301.2,233.3"/>
		<path class="st0" d="M329.5,209.9c0.3,0,0.5,0.3,0.5,0.6s-0.3,0.5-0.6,0.5h-0.5l-0.2,0.2c-0.2,0.2-0.2,0.6-0.3,1.3
			c-0.2,1.3-0.2,2.9-0.8,5.8l-1.2,4.5l-2.8,9.4l-1.7,6.8c-0.3,1.6-0.6,2.9-0.6,3.9c-0.2,1.1-0.5,2.1-1.1,2.6
			c-0.3,0.2-0.8,0.3-1.1,0.3l-1.2-0.3c-0.2,0-0.3-0.3-0.3-0.5s0.3-0.3,0.5-0.3l0.9,0.2l0.3-0.2c0.2-0.2,0.3-0.6,0.3-1.8
			c0.2-1,0.3-2.4,0.6-4.1l1.7-7l2.8-9.4l1.4-4.4c0.8-2.8,0.8-4.2,0.9-5.7c0-0.6,0.2-1.3,0.6-1.8c0.2-0.3,0.5-0.5,0.8-0.6
			C328.7,209.7,329,209.7,329.5,209.9"/>
		<path class="st0" d="M320.2,240.6c-0.2,0.3-0.5,0.5-0.8,0.5c-0.3-0.2-0.5-0.3-0.5-0.6l0,0c0-0.2,0.3,0.3,0.3,0.2c0,0,0.2,0,0,0
			l-0.3,0.2c-0.5,0.2-1.4,0.8-2.3,1.5l-3.1,2.6l-7.3,6.3l-4.6,4.2l-3.2,3.1l-0.8,1l-0.2,0.2l0,0l0,0v-0.2c0,0,0-0.3,0-0.2
			c0,0-0.2-0.3,0-0.2c0,0.2-0.3-0.3-0.2-0.2H297h-0.2h-0.2l1.5-1.5c0.2-0.2,0.5-0.2,0.6,0c0.2,0.2,0.2,0.5,0,0.6l-1.2,1.3l-0.5,0.5
			c0,0-0.2,0.2-0.5,0c-0.3-0.2-0.3-0.3-0.3-0.5c0-0.5,0.2-0.5,0.3-0.6l0.8-1l3.1-3.2l4.5-4.4l7.3-6.3l3.2-2.8
			c0.9-0.8,1.9-1.3,2.6-1.6c0.3-0.2,0.8-0.3,1.1,0c0.2,0.2,0.5,0.3,0.5,0.6L320.2,240.6z"/>
		<path class="st0" d="M311.1,264.7c-0.2,0.3-0.5,0.5-0.8,0.3c-0.3-0.2-0.5-0.5-0.3-0.8c0.2-0.3,0.5-0.5,0.8-0.3
			c0.2,0,0.3,0.2,0.3,0.5c0,0.2-0.2-0.3-0.2-0.3l-0.2-0.2c0.2,0-0.3,0-0.3,0c0.2,0-0.3,0-0.2,0H310l0,0v-0.2l0.5-1.3
			c0-0.2,0.3-0.3,0.5-0.3s0.3,0.3,0.3,0.5l-0.3,1.3L311.1,264.7L311.1,264.7z M317,244.3c-0.3,0-0.6-0.3-0.6-0.6s0.2-0.5,0.5-0.6
			c0.2,0,0.5,0,0.6,0.3l0.2,0.5v0.8l-0.6,2.1c-0.6,1.8-1.4,4.1-2.3,6.5s-2,4.9-2.6,6.8c-0.3,1.1-0.6,2.1-0.8,2.9l-0.3,1.5
			c0,0,0-0.2,0,0c0,0.2,0,0.2-0.2,0.3c-0.3,0.3-0.6,0.2-0.8,0.2c-0.3-0.3-0.3-0.5-0.3-0.6v-1.5c0.2-1,0.5-2.1,0.8-3.2
			c0.8-2.1,1.9-4.5,2.8-6.8l2.5-6.5l0.6-1.9V244v0.2c0,0,0.3,0.3,0.2,0.2C316.7,244.1,317.1,244.3,317,244.3"/>
		<path class="st0" d="M357.8,206.8c-0.3-0.2-0.5-0.5-0.3-0.8s0.5-0.5,0.6-0.3c0.3,0,0.5,0.3,0.6,0.5c0.2,0.2,0.2,0.5,0.2,0.8
			c0,0.5-0.2,1.1-0.3,1.8c-0.5,1.5-1.4,3.4-2.6,5.5c-2.6,4.2-6.5,8.9-9.3,12.7c-1.2,1.8-2.3,3.2-2.6,4.1l-0.2,0.3l0,0l-0.2-0.2h0.2
			l0.8-0.3c0.2-0.2,0.5,0,0.5,0.2c0.2,0.2,0,0.5-0.2,0.5c-0.6,0.3-1.1,0.6-1.5,0.5c-0.3-0.2-0.5-0.5-0.5-0.6l0.2-0.8
			c0.5-1.1,1.4-2.6,2.6-4.4c2.8-3.9,6.3-8.6,9-12.8c1.4-2.1,2.3-3.9,2.6-5.2C357.6,207.8,357.8,207.3,357.8,206.8L357.8,206.8
			L357.8,206.8z"/>
		<path class="st0" d="M329.8,224.3c0,0.3-0.2,0.5-0.5,0.5s-0.5-0.2-0.5-0.5s0.2-0.5,0.5-0.5c0.2,0,0.2,0,0.3,0h-0.2
			c0.2,0-0.2,0-0.2,0l0,0l1.1-0.3c0.2,0,0.5,0,0.5,0.3c0,0.2,0,0.5-0.3,0.5l-1.1,0.5l0,0l0,0l0,0v-0.2
			C329.8,224.5,329.8,224.2,329.8,224.3 M348.1,219.1c0.3,0,0.6,0.3,0.6,0.6s-0.3,0.6-0.6,0.6c-1.4,0-2.6-0.2-4.6,0.2
			c-1.4,0.3-3.2,1-5.3,1.6l-6.2,2.1l-2.5,0.6h-0.2h-0.2c0,0-0.2,0.2-0.3-0.2c-0.2-0.2-0.2-0.3,0-0.5c0.2-0.5,0.2-0.3,0.3-0.3h0.2
			l2.3-0.8l6.3-1.9c2-0.6,3.7-1.3,5.4-1.6C345.4,219,346.8,219.3,348.1,219.1"/>
		<path class="st0" d="M355,218.5c0.2-0.2,0.6-0.3,0.8,0c0.2,0.2,0.2,0.3,0.2,0.5v1.8c0,1.8,0.2,4.2,0.5,6.5
			c0.2,1.6,0.5,2.9,0.8,3.9c0.2,0.5,0.3,0.6,0.5,0.8s0.3,0.2,0.6,0c0.2-0.2,0.5,0,0.5,0.2s0,0.3-0.2,0.5c-0.5,0.3-0.9,0.3-1.4,0.2
			c-0.5-0.2-0.8-0.6-1.1-1.1c-0.6-1.1-1.1-2.6-1.4-4.2c-0.3-2.4-0.5-4.9-0.3-6.8C354.6,219.9,354.6,219.1,355,218.5"/>
		<path class="st0" d="M356.1,226.1c0.3,0,0.5,0.3,0.5,0.6s-0.3,0.5-0.6,0.5l0,0c-0.6-0.2-1.2,0.2-1.9,0.6l-1.7,1.6
			c-0.2,0.2-0.5,0.2-0.6-0.2c-0.2-0.2-0.2-0.5,0-0.5c0.5-0.3,0.9-1.1,1.7-1.6C354.2,226.6,355.2,226,356.1,226.1"/>
		<path class="st0" d="M411.8,172.7c-0.3,0-0.6-0.2-0.6-0.5s0.2-0.6,0.5-0.6h0.2h0.6l0,0l-0.2-0.5c-0.2-0.2-0.2-0.5,0.2-0.6
			c0.2-0.2,0.5-0.2,0.6,0c0.3,0.3,0.5,0.5,0.5,0.8s0,0.6-0.3,0.8C412.5,172.7,412.1,172.7,411.8,172.7"/>
		<path class="st0" d="M411.3,170.9c0,0.3-0.3,0.5-0.6,0.3c-0.3,0-0.5-0.3-0.3-0.6s0.3-0.5,0.6-0.3c0.2,0,0.3,0.2,0.3,0.3v-0.2
			l-0.2-0.2l0,0C411.5,170.6,411.5,170.8,411.3,170.9c0,0.2-0.2,0.2-0.2,0.3l0,0l0,0L411.3,170.9
			C411.3,171.1,411.3,170.8,411.3,170.9 M411.5,170.8c0,0.3-0.3,0.6-0.6,0.6c-0.3,0-0.6-0.3-0.6-0.6s0.3-0.6,0.6-0.6
			C411.1,170.1,411.5,170.5,411.5,170.8"/>
		<path class="st0" d="M412.7,170.5c0.2,0.3,0.2,0.6-0.2,0.8c-0.3,0.2-0.6,0.2-0.8-0.2c0,0,0,0,0-0.2c-0.2-0.5,0-0.8,0.2-1l0.5-0.5
			l-0.2,0.2c0,0,0,0.3,0,0.2c0-0.2,0.2,0.3,0.2,0.3c0-0.2,0.2,0.2,0.2,0.2l0,0l-0.5,0.2c-1.4,0.2-3.2,0.3-4.9,0.8
			c-2,0.5-4.8,1.3-7.3,1.8c-2.9,0.5-4.6,0-7.3,0.5c-1.9,0.3-4,1-6.8,1.6l-4.6,1l-8.7,1.5c-3.4,0.5-7,1-10.7,1.5
			c-7.7,0.8-14.5,0.8-21.2,0.6l-7.4-0.2h-7.7c-3.6,0-6.5-0.6-9.3-1.3c-5.9-1.5-12.8-2.3-18.6-3.1c-5.1-0.6-9.9-1.8-13-1.9
			c-1.2,0-2.2,0-2.8,0.2c-1.2,0.3-2.5,1.6-4.3,1.9c-0.8,0.2-1.5,0-2.2,0c-0.9,0-2.2,0.5-3.4,0.8l-2.5,0.6l-1.1,0.3
			c-0.6,0.2-1.2,0.5-1.7,1c-0.3,0.2-0.8,0.5-1.1,0.6c-0.3,0.2-0.5,0-0.8,0c-0.3-0.2-0.5-0.5-0.5-0.6c0-0.2,0-0.3,0-0.3v-0.2
			c0.2-0.2,0.3-0.5,0.5-0.5l0.8-0.5c0.6-0.5,1.2-1,2.2-1.3l1.2-0.3l2.5-0.6c1.2-0.3,2.5-0.8,3.7-0.8h1.9c1.4-0.3,2.5-1.5,4.2-1.9
			c1.1-0.3,2.2-0.3,3.4-0.2c3.4,0.2,8,1.3,13.1,1.9c5.7,0.8,12.7,1.6,18.9,3.1c2.6,0.6,5.4,1.3,8.8,1.5h7.7l7.4,0.2
			c6.5,0.2,13.3,0.2,20.9-0.6c3.6-0.3,7.3-0.8,10.5-1.5l8.7-1.5l4.5-0.8c2.6-0.5,4.9-1.1,6.8-1.5c2.9-0.5,4.8,0.2,7.4-0.3
			c2.3-0.3,5.1-1.1,7.3-1.6c1.9-0.5,3.7-0.5,4.9-0.6c0.5,0,0.6,0,0.9,0.2c0.2,0,0.3,0.2,0.5,0.5c0,0.2,0,0.3-0.2,0.5L412.7,170.5
			l0.3-0.2L412.7,170.5L412.7,170.5z"/>
		<path class="st0" d="M300.3,174.2c-0.3,0.2-0.6,0-0.8-0.2c-0.2-0.2-0.2-0.5,0.2-0.6l-0.2,0.2c0,0,0,0.3,0,0.2c0-0.2,0.2,0.5,0,0.3
			l0.2,0.2c0,0,0.2,0.2,0.2,0l0,0c-0.2,0,0,0,0,0h-0.3l-1.2,0.3c-0.9,0.3-2,1.5-3.6,3.1l-3.6,3.4l-3.7,3.2l-6.2,5.5l-5.9,5l-1.1,1
			l0,0v-0.3c0,0.2-0.2-0.2-0.2-0.2l0,0c0.3,0,1.2-0.2,2.2-0.5c0.2,0,0.5,0,0.5,0.3c0,0.2,0,0.5-0.3,0.5c-1.4,0.5-2.2,1-2.9,0.6
			c-0.2,0-0.5-0.3-0.6-0.6c0-0.3,0.2-0.5,0.2-0.6c0.3-0.5,0.6-0.8,1.2-1.3l5.9-5l6.2-5.5l3.6-3.2l3.6-3.4c1.7-1.6,2.8-2.9,4.2-3.2
			c0.6-0.2,1.1-0.3,1.5-0.3h0.5l0.3,0.2c0,0,0.2,0,0.3,0.3C300.6,173.7,300.4,174,300.3,174.2"/>
		<path class="st0" d="M327.8,181.3c0.2,0.3,0,0.6-0.3,0.8s-0.6,0-0.8-0.3l0,0l-0.5,0.2c-0.6,0.3-1.7,1.1-3.2,2.3l-6.2,4.9
			L300.9,202l-5.3,4.4l-2.2,1.8l-0.6,0.5l-0.5,0.2h-0.5c-0.3-0.2-0.5-0.6-0.5-0.8l0.2-0.3c0.2-0.2,0.3-0.3,0.5-0.3l0.9-0.5
			c0.2-0.2,0.5,0,0.6,0.2c0.2,0.2,0,0.3,0,0.5l-0.3,0.5v0.2l0,0c0,0,0-0.3,0-0.2c0,0.2,0,0.5,0,0.6v-0.2c0,0,0-0.3,0-0.2
			c0,0.2-0.2-0.5,0-0.3c0,0.2-0.3-0.3-0.2-0.3c0,0-0.3-0.2-0.2-0.2c0.2,0-0.3,0-0.3,0h-0.2h-0.2l0,0l0.5-0.3l2.2-1.8l5.3-4.4
			l15.9-12.8l6.2-4.9c1.7-1.1,2.8-1.9,3.7-2.3c0.5-0.2,0.8-0.3,1.2-0.2C327.3,180.7,327.7,181,327.8,181.3"/>
		<path class="st0" d="M309.9,174.7c0.3-0.2,0.6-0.2,0.8,0.2c0.2,0.3,0.2,0.5-0.2,0.8c-0.2,0.2-0.5,0.2-0.6,0.2l-0.5-0.2l-0.6-0.5
			l-1.9-1.9c-0.6-0.6-1.5-1.5-2.5-2.4c-1.7-1.9-3.2-5-4.8-7.6c-1.5-2.6-2.9-4.9-4.2-6.3c-1.1-1.1-2.2-1.5-3.4-1.8
			c-1.2-0.3-2.2-0.5-2.6-0.5l0,0l0.2-0.3v0.2l0.5,0.5c0.2,0.2,0.2,0.5,0,0.6c-0.2,0.2-0.3,0.2-0.5,0c-0.5-0.3-0.8-0.6-0.9-1.1
			c-0.2-0.2-0.2-0.6,0-0.8c0.2-0.3,0.5-0.3,0.6-0.5c0.8-0.3,2-0.2,3.1,0c1.4,0.3,3.1,0.8,4.5,2.4c1.4,1.6,2.6,4.1,4.2,6.7
			c1.5,2.8,2.9,5.7,4.5,7.5c0.8,1,1.5,1.6,2.3,2.4l1.7,1.9l0.5,0.5l0,0L309.9,174.7L309.9,174.7z"/>
		<path class="st0" d="M297.8,160.6c-0.2,0.3-0.6,0.3-0.8,0.2c-0.2-0.2-0.3-0.5-0.2-0.8l0,0v-0.2l-0.5-0.6l-1.9-1.8
			c-1.1-1-1.9-2.1-2.9-3.1c-2.2-1.6-6.3-1.9-10.5-1.8c-3.2,0-6,0-8.5-0.3l-2.6-0.5c-1.1-0.2-2.5-0.2-3.6-0.2h-1.4h-0.2h-0.2l0,0
			l0.2-0.2c0,0,0.2-0.5,0.2-0.3v-0.3c0,0.2-0.2-0.3-0.2-0.2l-0.2-0.2l0,0h0.2l0.9,0.2c0.8,0.2,1.9,0.3,2.6,1
			c0.2,0.2,0.2,0.3,0.2,0.6c-0.2,0.2-0.3,0.2-0.5,0.2c-0.6-0.3-1.5-0.5-2.3-0.6h-1.1H264c-0.2,0-0.3,0-0.6-0.3l0.2,0.2
			c-0.2-0.2-0.5-0.5-0.5-0.8s0.2-0.5,0.2-0.6c0.2-0.3,0.5-0.5,0.8-0.5h0.2h1.4c1.1,0,2.5-0.2,3.9,0.2l2.5,0.5
			c2.3,0.3,4.9,0.3,8.2,0.3c4.2,0,8.7,0,11.4,2.3c1.2,1.1,2,2.3,2.9,3.2c0.6,0.6,1.4,1.3,1.9,1.9l0.6,1
			C298,159.7,298,160.2,297.8,160.6"/>
		<path class="st0" d="M264.3,167.7c-0.2,0.3-0.5,0.3-0.8,0.2c-0.3-0.2-0.3-0.5-0.2-0.8c0.2-0.3,0.5-0.3,0.8-0.2l0,0
			c0.2,0-0.3-0.2-0.2-0.2c0.1,0-0.2,0-0.2,0c0.2,0-0.2,0-0.2,0l0,0l0.8-0.8c0.2-0.2,0.5-0.2,0.6,0c0.2,0.2,0.2,0.3,0,0.5
			L264.3,167.7L264.3,167.7C264.3,167.7,264.4,167.5,264.3,167.7 M281,151.8c0.3,0.2,0.3,0.6,0,0.8c-0.2,0.3-0.6,0.3-0.8,0H280
			l-0.6,0.2c-0.5,0.2-1.2,0.6-2,1.6c-1.5,1.5-3.1,4.1-5.4,6.5c-1.9,1.9-3.9,3.9-5.6,5.2l-1.9,1.5l-0.5,0.3l0,0
			c-0.3,0.2-0.6,0.2-0.8-0.2c0,0-0.2-0.2-0.2-0.3V167l0.2-0.2l0.6-0.5l1.7-1.3c1.5-1.5,3.7-3.2,5.4-5.2c2.2-2.4,3.9-4.9,5.4-6.5
			c0.9-1,1.7-1.5,2.5-1.8l0.9-0.2C280.3,151.5,280.6,151.5,281,151.8"/>
		<path class="st0" d="M281.6,150.3c-0.3-0.2-0.5-0.5-0.3-0.8c0.2-0.3,0.3-0.3,0.6-0.3l0,0h-0.2l-0.2,0.2c0.2,0-0.3,0.5-0.2,0.3
			c0-0.2,0,0.3,0,0.3l0,0l-0.2-0.3l-1.9-2.4c-0.8-1.3-1.7-2.9-2.6-4.9c-1.5-2.9-3.1-6.3-4.8-9.4c-1.7-2.9-3.7-5.2-5.3-6.7l-1.4-1.1
			l-0.3-0.2l0,0c0,0,0.3,0,0.2,0c-0.1,0-0.3,0-0.5-0.2h0.2c0,0,0.5,0,0.3,0c-0.2,0,0.5-0.3,0.5-0.2c-0.2,0.2,0.2-0.3,0.2-0.3v-0.2
			v0.2c0.2,0.3,0.6,1.1,1.4,1.9c0.2,0.2,0.2,0.5,0,0.6c-0.2,0.2-0.3,0.2-0.5,0l-1.9-1.8l-0.5-0.5c0-0.2-0.2-0.2-0.2-0.5
			s0.2-0.8,0.5-1c0.2-0.2,0.3-0.2,0.5-0.2c0.6,0,0.9,0.2,1.4,0.5l1.5,1.3c1.7,1.6,3.7,4.1,5.6,7.1c1.9,3.2,3.4,6.7,4.8,9.6
			c0.9,1.9,1.7,3.6,2.5,4.7l1.5,2.6c0.2,0.3,0.5,0.5,0.3,1c0,0.3-0.6,0.6-0.8,0.5L281.6,150.3z"/>
		<path class="st0" d="M336.5,175c0.2,0.3,0,0.6-0.3,0.8s-0.6,0-0.8-0.3c-0.5-0.8-1.2-1.5-2.2-2.4c-0.5-0.6-0.8-1.3-1.2-2.3
			c-0.6-1.5-1.5-3.2-2.9-5.4c-0.8-1.1-1.7-2.3-2.6-3.2c-1.2-1.5-2.6-2.6-4-3.7c-2-1.6-3.4-2.8-4.6-3.4l-2-1.3
			c-0.8-0.8-1.4-1.8-1.2-2.6c0-0.5,0.3-0.8,0.6-1.1c0.3-0.3,0.8-0.5,1.4-0.6c0.2,0,0.5,0.2,0.5,0.3c0,0.2,0,0.5-0.3,0.5
			c-0.5,0.2-0.8,0.5-0.9,0.6l-0.2,0.3c0,0.2,0.3,0.6,0.9,1l2,1.3c1.2,0.8,2.8,1.9,4.8,3.6c1.4,1.1,2.8,2.4,4.2,4.1
			c0.9,1.1,2,2.3,2.8,3.6c1.4,2.3,2.2,4.2,2.8,5.5l0.9,2.1C335.2,173,336,173.9,336.5,175"/>
		<path class="st0" d="M315,149.8c0.2-0.3,0.5-0.5,0.8-0.5s0.5,0.3,0.5,0.6c0,0.2-0.2,0.5-0.3,0.6l-0.5,0.2l-0.8-0.2l-1.7-0.3
			c-1.9-0.3-4.8,0.5-7.4,0c-2.3-0.5-4.2-2.1-6.2-3.7c-1.4-1.1-2.6-1.9-3.2-3.1c0,0,0-0.2-0.2-0.2c-0.2-0.5,0-1,0.2-1.3
			c0.3-0.3,0.6-0.5,0.9-0.6c0.2,0,0.5,0,0.5,0.3c0,0.2,0,0.3-0.2,0.5l-0.2,0.2h0.2l0.2,0.2c0.3,0.5,1.5,1.5,2.9,2.6
			c1.9,1.6,3.7,3.1,5.4,3.6c2.2,0.5,4.9-0.3,7.3,0c0.8,0.2,1.4,0.3,1.9,0.5l0.5,0.2l0,0h-0.2l-0.2,0.2
			C315.1,149.7,315,149.8,315,149.8"/>
		<path class="st0" d="M412.5,124.9c0.3,0,0.6,0.3,0.5,0.6l0,0c0,0.3-0.2,0.3-0.3,0.5l-0.2,0.2l-0.8,0.2c-0.6,0-1.4,0.2-2,0
			c-0.2,0-0.2-0.2-0.3-0.2c-0.2-0.2-0.3-0.3-0.3-0.6c0-0.3,0.2-0.5,0.2-0.6c0.2-0.2,0.5-0.2,0.6,0l0,0l-0.2-0.2h-0.2h0.2
			c0.2,0,0.2,0,0.3,0c0.3,0.2,0.9,0.2,1.5,0.2L412.5,124.9L412.5,124.9z M412.4,126.2c-0.3,0-0.6-0.3-0.6-0.6c0-0.3,0.2-0.6,0.5-0.6
			h0.2h-0.2c0.3,0,0.6,0.2,0.8,0.5c0,0.3-0.2,0.6-0.5,0.8c-0.3,0-0.6-0.2-0.6-0.5c0-0.2,0.2,0.3,0.2,0.2
			C412.1,125.8,412.2,126,412.4,126.2L412.4,126.2C412.2,126,412.4,126.2,412.4,126.2L412.4,126.2z"/>
		<path class="st0" d="M413.8,127.3c-0.3,0.2-0.6,0.2-0.8-0.2c-0.2-0.2-0.2-0.5,0-0.8l0,0c0,0-0.2,0.3,0,0.3c0,0,0,0.3,0,0.2
			c0,0,0.2,0.3,0.2,0.2l0.2,0.2h0.2H413l-2.3,0.2c-0.8,0-1.5-0.2-2.3-0.5c-1.1-0.5-1.7-1.5-2.3-1.9c-0.9-0.8-2.5-1.3-4.5-1.6
			c-2-0.3-4.5-0.5-7-0.6c-6-0.6-13-2.4-20.7-3.4c-7-0.8-13.9-1.3-20.7-2.8c-7.4-1.6-16.1-3.6-24.3-6.5c-3.7-1.3-7.1-2.9-10.1-4.5
			l-8.2-4.5c-2.5-1.3-4.9-2.3-7-3.1c-2.5-1-4.3-2.3-5.9-3.1c-0.9-0.5-1.7-1-2.8-1.3c-2.2-0.6-5.1-0.6-7.6-0.8
			c-2.6-0.2-4.2-0.8-5.6-1.1c-1.2-0.3-2.5-0.3-3.7-0.3l-1.7-0.2h-0.2c-0.8-0.3-1.4-0.6-2.2-1c-0.2-0.2-0.3-0.3-0.2-0.6
			c0.2-0.2,0.3-0.2,0.5-0.2c0.8,0.2,1.4,0,2,0h0.2l1.7,0.2c1.2,0,2.6,0,4,0.3c1.5,0.5,2.9,1,5.3,1.1c2.3,0.2,5.4,0,8,0.6
			c1.2,0.3,2.3,0.8,3.2,1.5c1.7,1,3.2,2.1,5.7,3.1c2,0.8,4.5,1.8,7.1,3.2l8.2,4.4c2.9,1.6,6.3,3.1,9.9,4.4c8,2.9,16.5,4.9,24,6.5
			c6.8,1.5,13.6,2.1,20.6,2.9c4,0.5,7.7,1.1,11.3,1.8c3.4,0.6,6.6,1.3,9.6,1.6c5.1,0.5,9.7,0.3,12.4,2.6c0.9,0.8,1.4,1.6,2,1.8
			c0.5,0.3,1.1,0.3,1.7,0.5l2.2,0.2l0.8,0.2c0.2,0,0.5,0.2,0.5,0.6C414.1,127,413.8,127.1,413.8,127.3"/>
		<path class="st0" d="M285.4,93.9c0.3,0,0.5,0.3,0.5,0.6c0,0.3-0.3,0.5-0.6,0.5c-1.1-0.2-2.2,0.3-3.9,1.1l-2.8,1.5l-9.4,4.9
			c-1.4,0.6-2.6,1.3-3.4,1.6l-0.5,0.2c-0.2,0-0.5,0.2-0.6-0.3c-0.2-0.3,0-0.5,0.2-0.6l0.5-0.5c0.2-0.2,0.5-0.2,0.6,0
			c0.2,0.2,0.2,0.5,0,0.6l-0.3,0.3l0,0v-0.2c0,0-0.2-0.3-0.2-0.2l-0.2-0.2h-0.2l0.3-0.2l3.2-1.6l9.3-5l2.9-1.5
			C282.5,94.2,283.9,93.5,285.4,93.9"/>
		<path class="st0" d="M280.3,65.3c0,0.5-0.5,0.8-1.1,0.8c-0.5,0-0.8-0.5-0.8-1.1s0.5-0.8,1.1-0.8c0.3,0,0.6,0.3,0.8,0.6
			c0,0.2,0-0.2,0-0.2l0,0V65.3l1.4,2.9c0.2,0.2,0,0.5-0.2,0.5c-0.2,0.2-0.5,0-0.5-0.2c-0.8-1.5-1.4-2.3-1.7-2.6l0,0h0.2h0.2h0.2
			c-0.2,0,0.5-0.2,0.3-0.2c-0.2,0,0.3-0.3,0.3-0.2c0,0,0.2-0.3,0.2-0.2C280.3,65.6,280.3,65.1,280.3,65.3 M292.9,91.9
			c0.3,0.2,0.5,0.5,0.3,0.8s-0.3,0.5-0.6,0.3c-0.8-0.2-1.2-0.6-1.9-1.5c-0.6-0.8-1.2-2.1-2.2-3.7c-1.1-1.8-2.3-3.9-3.7-6.5
			c-2.3-4.4-4.3-9.4-5.6-12.8c-0.5-1.3-0.6-2.1-0.8-2.8c0-0.2,0-0.2,0-0.3s0-0.5,0.2-0.6l0.3-0.5c0.2-0.2,0.6-0.3,1.1,0
			c0.2,0,0.2,0.2,0.3,0.3l0.2,0.2l0.2,0.3c0,0.2,0,0.2,0.2,0.3l0.8,2.4c1.1,3.4,2.9,8.3,5.1,12.7l3.6,6.5l1.9,3.7
			C292.2,91.4,292.6,91.7,292.9,91.9"/>
		<path class="st0" d="M282.7,117.2c0,0.3-0.3,0.5-0.6,0.3c-0.3,0-0.5-0.3-0.5-0.6c0-0.3,0.3-0.5,0.6-0.3c0.2,0,0.2,0,0.3,0.2
			l-0.2-0.2h-0.2c0.2,0-0.2,0-0.2,0l0,0l0.8-0.5c0.2-0.2,0.5,0,0.6,0.2c0.2,0.2,0,0.5-0.2,0.5l-0.8,0.6l0,0l0,0l0,0
			C282.7,117.4,282.8,117.1,282.7,117.2 M307.6,99.7c0.3,0.2,0.5,0.5,0.3,0.8s-0.5,0.5-0.8,0.3c-0.2,0-0.6,0-1.2,0.3l-2.6,1.5
			c-2.3,1.5-5.6,3.4-8.7,5.4c-1.9,1.3-3.6,2.4-4.8,3.6l-3.2,2.9c-0.9,0.8-1.7,1.5-2.3,1.9l-1.5,1c0,0,0.2,0.2-0.5,0
			c-0.2,0-0.3-0.2-0.3-0.3c-0.2-0.5,0-0.5,0-0.5v-0.2l1.4-1.3l2.3-1.9l3.2-2.9c1.4-1.1,2.9-2.4,4.9-3.7c3.1-2.1,6.3-3.9,8.8-5.4
			c1.1-0.6,2-1.1,2.8-1.5C306,99.7,306.8,99.4,307.6,99.7"/>
		<path class="st0" d="M312.7,82.8c0.2,0.3,0.2,0.6-0.2,0.8c-0.3,0.2-0.6,0.2-0.8-0.2c-1.1-1.3-1.5-2.3-2.2-3.1
			c-1.1-1.5-3.1-3.2-4.8-4.5c-2.3-1.9-4.6-3.1-6.8-5c-1.5-1.3-2.9-2.8-5.3-4.5c-1.5-1.1-3.6-1.6-5.1-2.4c-0.9-0.5-1.7-1.3-2.2-1.9
			l-0.6-1c-0.2-0.3-0.3-0.8-0.2-1.5c0-0.2,0.2-0.3,0.3-0.5c0.3-0.3,0.6-0.3,0.9-0.3l0.6,0.2l2,1c0.2,0.2,0.3,0.3,0.2,0.5
			c-0.2,0.2-0.3,0.3-0.5,0.2c-0.9-0.3-1.5-0.3-1.9-0.3h-0.2c0,0,0.2-0.2,0.2,0c0,0,0.2-0.5,0.2-0.3s0-0.5,0-0.3s0,0.5,0,0.6
			s0-0.3,0-0.2v-0.2l0,0l0.3,0.6c0.3,0.5,0.9,1.1,1.4,1.5c1.4,0.6,3.4,1.1,5.4,2.6c2.5,1.8,4,3.4,5.4,4.5c2,1.8,4.2,2.9,6.6,5.2
			c1.7,1.6,3.7,3.6,4.8,5.2C311.4,80.6,311.7,81.5,312.7,82.8"/>
		<path class="st0" d="M296.9,39.8c0,0.3-0.3,0.5-0.6,0.5c-0.3,0-0.5-0.3-0.5-0.6l-0.3-0.5l0.2,0.2h0.3c-0.2,0,0.3-0.3,0.3-0.2
			c0,0.2,0-0.3,0-0.3V39c0,0.2,0-0.2,0-0.2l0.2,0.3L296.9,39.8c1.1,2.4,1.7,5,2.2,8.1c0.9,4.9,2.6,9.7,4,13c1.1,2.3,1.4,4.9,2.2,6.8
			c0.3,1,0.8,1.8,1.4,2.6l2,3.1l1.2,2.1c1.7,2.9,3.9,4.5,5.3,7.3c1.4,2.8,1.7,6,2.5,9.7c0.3,1.5,0.6,2.6,1.1,4.1
			c0.5,1.1,1.1,2.4,1.7,3.7c0.3,0.6,0.6,1.3,0.9,2.1l0.2,1v0.2l0,0c0,0-0.3-0.2-0.2-0.2c0.6,0.3,0.9,1,0.6,1.6s-0.9,1-1.5,0.6
			c-0.3-0.2-0.6-0.3-0.8-0.6c-0.3-0.5-0.5-1-0.5-1.3l-0.2-0.6l-0.6-1.8c-0.6-1.3-1.2-2.6-1.7-3.9c-0.6-1.5-0.9-2.9-1.2-4.4
			c-0.8-3.9-1.1-7-2.2-9.1c-1.1-2.3-3.2-4.1-5.1-7.3l-1.1-2.1l-2-3.1c-0.6-0.8-1.1-1.8-1.5-2.9c-0.9-2.4-1.2-4.9-2.2-6.8
			c-1.4-3.4-3.2-8.3-4.2-13.5c-0.5-2.9-0.9-5.5-1.9-7.6l-0.5-1c-0.2-0.3-0.5-0.6-0.3-1.3v-0.2l0.5-0.5h0.6c0.3,0.2,0.5,0.3,0.6,0.5
			C296.7,38.7,297,39.2,296.9,39.8 M322.2,104.4c0,0.6-0.5,1.3-1.2,1.3c-0.6,0-1.2-0.5-1.2-1.3c0-0.6,0.5-1.3,1.2-1.3
			S322.2,103.8,322.2,104.4"/>
		<path class="st0" d="M412.2,149.7c0.2,0.3,0.2,0.6-0.2,0.8c-0.2,0.2-0.6,0.2-0.8,0c-0.2-0.2-0.6-0.3-1.4-0.3h-3.2
			c-1.9,0-4.2-0.3-7-0.6c-4.8-0.5-11-0.8-16.9-1.8c-2.6-0.5-5.1-1-7.4-1.5l-7.1-1.5l-2.5-0.8l-0.5-0.2h0.2c0,0,0.3-0.2,0.2,0
			c-0.2,0,0.3-0.3,0.3-0.2s0.2-0.3,0.2-0.3c0,0.2-0.2,0.3-0.3,0.5c-0.2,0,0.2-0.3,0.2-0.2c0,0.2,0-0.2,0-0.2l0.2,0.6
			c0,0.2-0.2,0.5-0.3,0.5s-0.3,0-0.5-0.2l-0.6-0.8c-0.2-0.2-0.2-0.3-0.2-0.6c0-0.2,0.2-0.5,0.5-0.6c0.2-0.2,0.5-0.2,0.6-0.2l0.8,0.2
			l2.3,0.6l7.1,1.5c2.3,0.5,4.8,1.1,7.4,1.5c5.9,1,12.1,1.3,16.9,1.8c2.9,0.3,5.1,0.6,6.8,0.6l3.4,0.3
			C411.1,148.9,411.8,149,412.2,149.7"/>
		<path class="st0" d="M369.1,143.4c0.2,0.2,0.2,0.6,0,0.8s-0.6,0.2-0.8,0c-0.8-0.8-1.4-1.6-2.8-3.1c-1.7-1.8-4.3-4.4-7.3-6.7
			c-1.4-1.1-2.9-2.1-4.6-2.9c-0.9-0.5-1.9-1-2.9-1.3c-1.2-0.3-2.5-0.6-3.7-1c-2-0.5-3.9-0.6-5.4-0.6c-1.4,0-2.6,0.2-3.4,0.5
			l-0.6,0.5l-0.2,0.2c0,0.2,0.2,0.3,0.5,0.6c0.3,0.3,0.8,0.6,1.4,0.8c0.2,0.2,0.3,0.3,0.2,0.5c-0.2,0.2-0.3,0.3-0.5,0.2
			c-0.6-0.3-1.2-0.6-1.5-1c-0.5-0.3-0.8-0.6-0.8-1.1c-0.2-0.5,0-1,0.2-1.3c0.3-0.3,0.6-0.6,1.1-0.8c0.9-0.5,2.2-0.6,3.9-0.8
			c1.7-0.2,3.6,0,5.7,0.3c1.4,0.3,2.6,0.6,4,1c1.1,0.3,2.2,0.8,3.1,1.3c1.7,1,3.2,1.9,4.8,3.2c3.1,2.4,5.6,5,7.3,7
			C367.9,141.7,368.5,142.7,369.1,143.4"/>
		<path class="st0" d="M342.2,163.5c0,0.3-0.2,0.5-0.3,0.6c-0.3,0-0.5-0.2-0.6-0.3s0.2-0.5,0.3-0.6c0.2,0,0.2,0,0.3,0
			c0.2,0-0.2,0-0.2,0c0.2,0-0.2,0-0.2,0l0.6-0.6c0.2-0.2,0.5-0.2,0.6,0c0.2,0.2,0.2,0.5,0,0.6l-0.8,0.8l0.2-0.2l0,0v-0.3
			 M369.1,148.9c0.3,0,0.6,0.3,0.6,0.6c0,0.3-0.2,0.6-0.5,0.6c-0.6,0.2-0.9-0.2-1.5-0.3c-0.6-0.2-1.2-0.3-2-0.2
			c-0.8,0.2-2,0.8-3.7,1.6c-2.2,1.1-4.9,2.3-7.4,3.7c-2.9,1.6-5.4,3.6-7.6,5.2l-2.8,2.3l-1.7,1.3L342,164l-0.3,0.2h-0.3
			c-0.2,0-0.3-0.2-0.3-0.3v-0.3l0.2-0.3l0.5-0.5l1.4-1.5l2.8-2.4c2.2-1.8,4.8-3.6,7.7-5.4c2.6-1.5,5.4-2.6,7.6-3.6
			c1.7-0.8,2.9-1.6,4.2-1.8C367.4,148.1,369.1,148.9,369.1,148.9"/>
		<path class="st0" d="M342.7,126.6c0.3,0,0.6,0.2,0.6,0.5s-0.2,0.6-0.5,0.6c-2.2,0.3-3.6-0.2-5.6-1.1l-4-2.1
			c-1.7-1-3.7-1.9-5.7-2.9c-1.9-0.8-3.9-1.3-5.4-1.6c-1.4-0.3-2.5-0.3-3.2-0.3h-0.2l-0.9-0.3c-0.3-0.2-0.5-0.5-0.5-0.6
			c0-0.2,0.2-0.5,0.3-0.5h0.2h0.2l0.8-0.2h0.2c0.8,0,2,0,3.6,0.3c1.7,0.3,3.7,0.8,5.7,1.6c2.2,1,4.2,2.1,5.9,2.9l4,2.1
			C339.7,126.5,340.6,126.8,342.7,126.6"/>
		<path class="st0" d="M328.9,124.5c0.2,0.3,0,0.6-0.3,0.8c-0.3,0.2-0.6,0-0.8-0.3l0.2,0.2h-0.3l-1.5,0.5c-1.4,0.6-3.2,1.5-5.1,2.4
			c-2.2,1-4.3,1.9-6.2,2.6c-0.9,0.3-1.7,0.3-2.3,0.3c-0.3,0-0.6-0.2-0.9-0.3c-0.3-0.2-0.3-0.5-0.5-0.8c0-0.2,0.2-0.5,0.3-0.5
			s0.5,0.2,0.5,0.3l0.2,0.2l0.5,0.2c0.5,0,1.1-0.2,1.9-0.5c1.7-0.6,3.7-1.6,5.9-2.8c1.9-1,3.7-1.8,5.3-2.4c0.8-0.3,1.4-0.5,2-0.5
			c0.3,0,0.6,0,0.8,0C328.4,123.9,328.7,124.2,328.9,124.5"/>
		<path class="st0" d="M338.6,152.8c-0.2,0.3-0.6,0.5-0.9,0.3s-0.5-0.6-0.3-1c0.2-0.3,0.6-0.5,0.9-0.3c0.2,0.2,0.3,0.3,0.3,0.6
			c0,0.2,0-0.2,0-0.2c0,0.2-0.2-0.2-0.2-0.2l-0.2-0.2l0,0l1.5,0.8c0.2,0.2,0.3,0.3,0.2,0.6c-0.2,0.2-0.3,0.3-0.5,0.2l-1.5-0.5l0,0
			c0,0,0.3-0.2,0.2,0h0.2L338.6,152.8C338.6,152.9,338.8,152.6,338.6,152.8 M352.4,152.9c0,0.2-0.2,0.5-0.3,0.5
			c-0.3,0.2-0.2,0-0.3,0h-0.2h-1.1l-4.2,0.2c-1.7,0-3.7,0.2-5.4,0c-1.5,0-2.8-0.3-3.2-0.5c-0.2,0-0.2-0.2-0.3-0.2l-0.3-0.3
			c0-0.2-0.2-0.2-0.2-0.6c0-0.2,0.2-0.3,0.2-0.5c0.3-0.3,0.3-0.2,0.5-0.3h0.3c0.2,0,0.2,0,0.3,0c0.3,0.2,1.5,0.3,2.8,0.5
			c1.5,0.2,3.6,0,5.3,0l4.2,0.2l1.1,0.2h0.2h0.2C352.2,152.4,352.4,152.4,352.4,152.9 M351.6,153.6c-0.3,0-0.6-0.3-0.6-0.6
			s0.2-0.5,0.5-0.6l0,0h-0.2l-0.2,0.2l-0.2,0.2v0.2c0,0,0,0.3,0,0.2c0-0.3,0.2-0.6,0.5-0.8c0.3,0,0.6,0.2,0.8,0.5
			C352.2,153.2,352,153.5,351.6,153.6C351.8,153.6,351.8,153.6,351.6,153.6C351.6,153.6,351.8,153.6,351.6,153.6L351.6,153.6z"/>
		<path class="st0" d="M358.1,154.9c0.2,0.2,0.2,0.6,0,0.8s-0.6,0.2-0.8,0c-0.2-0.2-0.3-0.2-0.5-0.2s-0.5,0.2-0.8,0.3
			c-0.8,0.5-1.5,1.3-2.2,2.4c-1.4,2.1-2.5,5-2.3,8.1c0,1.1,0,2.1,0.3,3.1c0,0.2-0.2,0.5-0.3,0.5s-0.3,0-0.5-0.2
			c-0.5-1-0.8-2.1-0.9-3.2c-0.2-3.4,0.9-6.7,2.5-9.1c0.9-1.3,1.9-2.3,2.8-2.8c0.5-0.3,0.9-0.5,1.4-0.5
			C357.2,154.4,357.6,154.6,358.1,154.9"/>
		<path class="st0" d="M414.4,84.9c0.3,0.2,0.3,0.5,0.2,0.8c-0.1,0.3-0.5,0.3-0.8,0.2s-0.9-0.3-2.2-0.2l-5.7,0.5L398,87l-6.2,0.3
			c-4,0.2-8.7,0.3-13.5,0.8c-4,0.3-7.6,0.5-10.5,0.6c-2.9,0-5.4,0-7.4-0.2l-5.1-0.3c-0.2,0-0.3,0-0.3-0.2c-0.2-0.2-0.3,0-0.5-0.3
			v-0.2c-0.2-0.6,0.3-0.6,0.5-0.8c0.2,0,0.3-0.2,0.3-0.2h2l3.4,0.2c2,0.2,4.5,0.2,7.3,0.2c2.9,0,6.5-0.2,10.5-0.5
			c4.8-0.5,9.4-0.6,13.5-0.8l6.2-0.3l7.9-0.6c2.5-0.2,4.3-0.3,5.9-0.3C412.8,84.4,413.7,84.5,414.4,84.9"/>
		<path class="st0" d="M352.4,73c0,0.5-0.3,1-0.8,1.1c-0.5,0-0.9-0.4-1.1-0.8c-0.1-0.2,0-0.4,0-0.5l0.1-0.2c0,0,0.1-0.2,0.2-0.3
			c0.4-0.3,0.6-0.2,0.7-0.2h0.6h1.5c0.9-0.1,1.9-0.1,2.8,0.1c0.2,0.1,0.4,0.2,0.4,0.6c-0.1,0.2-0.2,0.4-0.5,0.3
			c-0.7-0.1-1.7-0.1-2.5,0l-1.2,0.4l-0.3,0.1c0,0,0.1-0.2,0.1,0c0,0,0-0.4,0.1-0.2C352.3,73.3,352.3,72.8,352.4,73
			c0,0,0.1,0.2,0,0.4C352.3,73.3,352.3,72.8,352.4,73 M381.8,85.8c0.3-0.1,0.5,0.2,0.6,0.5c0.1,0.3-0.1,0.6-0.4,0.7
			c-1.2,0.2-2.1-0.5-3.3-1c-0.7-0.3-2-0.5-3.5-0.7c-1.5-0.2-3.3-0.6-5.1-1.2c-2-0.7-4.1-1.9-6.1-3.3c-1.8-1.1-3.6-2.4-5.2-3.6
			c-1.6-1-3.4-1.8-4.7-2.4l-2-0.7l-0.5-0.2l-0.2-0.1l-0.2-0.1c-0.2-0.1-0.5-0.2-0.7-0.8c-0.2-0.5,0.1-1.1,0.8-1.1
			c0.3-0.1,0.7,0.1,0.9,0.2c0.1,0.2-0.4-0.2-0.2-0.3c0.2,0.1-0.3-0.1-0.2-0.1h-0.1l0,0l0.3,0.1l1,0.2c0.4,0.2,1.3,0.4,2.2,0.8
			c1.3,0.6,3.1,1.4,4.9,2.6c1.7,1.2,3.4,2.5,5.2,3.6c2.1,1.4,4.1,2.4,5.7,3.1c3.6,1.4,6.5,1.3,8.6,2.3
			C380.7,85.3,381.3,85.8,381.8,85.8"/>
		<path class="st0" d="M376.8,86.5c0.3-0.1,0.6,0.1,0.7,0.4s-0.1,0.6-0.4,0.7c-0.9,0.2-1.8,0.9-3,2c-1.3,1.3-2.7,2.7-3.9,3.9
			l-1.2,0.8c-0.1,0.1-0.4,0.2-0.7,0.3c-0.3,0-0.8-0.2-0.9-0.5c-0.1-0.1-0.1-0.3-0.2-0.4l0.2-0.6l0.3-0.8c0.1-0.2,0.4-0.3,0.6-0.2
			c0.2,0.1,0.3,0.2,0.2,0.4v0.7l0,0l-0.1-0.1c0,0-0.3-0.2-0.2-0.1c0.2,0.1,0.3,0.2,0.5,0.3c0.1,0.1-0.4-0.2-0.3-0.2
			c0.1-0.1-0.3,0-0.2-0.1l0,0l0.9-0.7c1.2-1.1,2.6-2.7,4.1-3.8C374.5,87.5,375.5,86.7,376.8,86.5"/>
		<path class="st0" d="M412.5,70.2c-0.3,0.2-0.6,0-0.8-0.3c-0.2-0.3,0-0.6,0.3-0.8c0,0,0,0,0.2,0l0.6-0.2l0,0l0,0V69l0.2,0.3l0,0
			h-0.3l-1.4-0.2l-4.3-0.6c-1.5-0.2-3.6-0.3-5.6-0.8c-2.2-0.3-4.3-1.1-6.5-1.6c-2.5-0.6-4.8-1.1-6.8-1.8c-1.4-0.5-2.3-1.1-3.2-1.6
			c-1.1-0.5-2-1-3.6-1.3c-2.2-0.5-4.9-0.6-8-0.6c-1.9,0-3.6-0.3-5.3-0.5c-2.5-0.3-5.1-0.6-7.7-1c-3.6-0.6-7.1-1.5-10.4-2.4
			c-2.6-0.6-4.8-1.5-7-1.9c-3.2-0.8-6.3-0.8-8.8-1l-3.1-0.2h-0.8c-0.3,0-0.6,0-1.1-0.5c-0.6-0.6-0.6-1.3-0.5-1.6l0.3-0.8
			c0.3-0.5,0.6-0.8,0.9-1.1c0.6-0.5,1.2-0.6,1.9-0.8c0.3,0,0.8,0,1.1,0.3c0.3,0.2,0.5,0.5,0.5,0.8c0.2,0.5,0,1.1-0.5,1.6
			s-0.9,0.3-1.2,0.3h-0.5c-0.2,0-0.2,0-0.3,0l0,0c-0.2,0-0.3,0-0.6-0.2c-0.3-0.2-0.5-0.3-0.6-0.6l-0.3-1c0-0.2,0.2-0.5,0.3-0.5
			s0.3,0,0.5,0.2l0.3,0.5l0,0h-0.3l0,0c0.2-0.2,0.3-0.3,0.6-0.3c0.2,0,0.2,0,0.3,0h0.6l0,0c0,0-0.2,0.2-0.2,0c0,0-0.3,0.3-0.3,0.2
			l-0.2,0.3c0-0.2,0.2,0.3,0,0.3l0.2,0.2l0.3,0.2c-0.2,0,0.5,0,0.3,0s0.3,0,0.3,0l-0.8,0.5l-0.5,0.6l0,0v-0.2V52
			c0,0.2-0.2-0.5,0-0.3c0,0.2-0.5-0.5-0.3-0.5c0,0,0.2,0,0.2,0.2s-0.3-0.2-0.2-0.2h-0.2h0.2l0.8,0.2l2.9,0.3
			c2.5,0.2,5.7,0.2,9.3,1.1c2.3,0.6,4.5,1.5,7,2.1c3.2,0.8,6.8,1.6,10.2,2.3c2.6,0.5,5.1,0.6,7.6,1c1.7,0.2,3.4,0.5,5.1,0.5
			c3.1,0,6,0.2,8.5,0.6c1.9,0.5,3.1,1.1,4.2,1.6c1.1,0.6,2,1.3,2.9,1.8c1.7,0.6,4,1.3,6.6,1.9c2.2,0.6,4.2,1.3,6.2,1.8l5.6,0.8
			l4.3,0.8l1.5,0.6l0.5,0.3c0.2,0.2,0.3,0.3,0.2,0.6V69c0.2,0.2,0.2,0.3,0.2,0.5l-0.3,0.3L412.5,70.2z"/>
		<path class="st0" d="M310.6,24.2c-0.3,0.2-0.8,0.2-0.9-0.2c-0.2-0.3-0.2-0.8,0.2-1c0.4-0.2,0.8-0.2,0.9,0.2c0.2,0.2,0.2,0.5,0,0.6
			c0,0.2,0-0.3,0-0.3c0,0.2,0-0.2,0-0.2l0,0l0,0l1.7,1.6c0.2,0.2,0.2,0.5,0,0.6c-0.2,0.2-0.3,0.2-0.5,0.2l-2-1.3l0,0l0,0h0.2h0.2
			C310.3,24.2,310.8,24.1,310.6,24.2 M329.2,49.7c0.3,0.2,0.3,0.5,0.2,0.8c-0.2,0.3-0.5,0.3-0.8,0.2c-1.1-0.8-2.5-1.9-4.2-4.1
			c-1.2-1.5-2.5-3.6-3.9-5.8c-2.8-4.4-5.6-9.7-8-13.1c-1.2-1.8-2.2-2.8-2.6-3.2l-0.2-0.2l-0.2-0.3c0-0.2-0.3-0.2,0-0.6
			c0-0.2,0.2-0.3,0.3-0.3c0.5-0.3,0.5-0.2,0.6,0l0.3,0.2l0.2,0.2c0.5,0.5,1.5,1.6,2.8,3.6c2.5,3.7,5.3,9.1,7.9,13.5
			c1.4,2.3,2.6,4.2,3.7,5.7C327,47.9,328.3,48.9,329.2,49.7"/>
		<path class="st0" d="M326.4,52c0,0.3-0.3,0.5-0.6,0.5c-0.3,0-0.5-0.3-0.5-0.6l-0.2-0.5l-0.8-0.8c-0.8-0.6-2-1.3-3.6-1.8
			c-2.9-0.8-7.1-1-10.4-0.3c-1.1,0.2-2,0.3-2.6,0.6l-0.6,0.5l-0.2,0.3c0,0.2-0.2,0.5-0.3,0.5s-0.3-0.2-0.5-0.3
			c-0.2-0.3,0-0.8,0.2-1.1c0.2-0.3,0.5-0.6,0.8-1c0.8-0.5,1.7-0.8,2.9-1.1c3.6-0.6,7.9-0.5,11.1,0.5c1.7,0.5,3.1,1.3,4,2.1
			c0.5,0.3,0.8,0.8,1.1,1.1C326.4,51.2,326.6,51.5,326.4,52"/>
		<path class="st0" d="M355.6,61.1c0.2,0.3,0.2,0.6-0.2,0.8s-0.6,0.2-0.8,0c-0.6-0.8-1.2-1.1-2.8-0.6c-0.9,0.2-2.2,0.8-3.7,1.6
			c-3.7,1.8-8.7,4.1-12.8,6.5c-2,1.1-3.9,2.3-5.1,3.2c-0.6,0.5-1.1,1-1.4,1.3c-0.3,0.3-0.3,0.6-0.3,0.6c0,0.2-0.2,0.5-0.3,0.5
			s-0.5,0-0.5-0.3c-0.2-0.5,0.2-1,0.5-1.5s0.9-1,1.5-1.5c1.4-1.1,3.1-2.3,5.3-3.4c4.2-2.4,9.1-4.9,12.7-6.7c1.5-0.8,2.8-1.5,3.9-1.8
			C353.5,59.3,354.9,60.1,355.6,61.1"/>
	</g>
	<rect x="243.1" y="18.7" class="st1" width="79.1" height="257.9"/>
	<rect x="515.4" y="11.1" class="st1" width="79.1" height="257.9"/>
</g>
<circle class="st2" cx="183.5" cy="54.6" r="3.9"/>
<circle class="st2" cx="183.5" cy="241.8" r="3.9"/>
<text transform="matrix(0.7029 0 0 1 150.816 57.1067)" class="st2 st3 st4">$w$</text>
<text transform="matrix(0.623 0 0 1 124.3962 243.618)" class="st2 st3 st4">$h\an(w)$</text>
<text transform="matrix(1 0 0 1 194.108 244.8407)" class="st2 st3 st4">1</text>
<text transform="matrix(1 0 0 1 193.65 152.1474)" class="st2 st3 st4">4</text>
<text transform="matrix(1 0 0 1 194.109 59.4378)" class="st2 st3 st4">1</text>
<text transform="matrix(1 0 0 1 536.9987 48.8785)" class="st2 st3 st4">$\pro^{1, \text{an}}_K$</text>
<line class="st5" x1="183.5" y1="241.8" x2="183.5" y2="54.6"/>
<line class="st5" x1="183.5" y1="148.1" x2="128.3" y2="148.1"/>
<circle class="st2" cx="128.3" cy="147.5" r="3.9"/>
<text transform="matrix(1 0 0 1 123.7217 139.4258)" class="st6 st7">2</text>
<text transform="matrix(1 0 0 1 152.0547 12.5706)" class="st6 st7">$\sk(\mathscr E_\text{min})$</text>
<path class="st8" d="M201.7,154.6c21.4,7.9,54.5,17.2,95.6,17.7c48,0.6,85.9-11,108.5-19.9"/>
<line class="st8" x1="212.7" y1="241.1" x2="402.5" y2="241.1"/>
<line class="st8" x1="211.1" y1="56.4" x2="400.9" y2="56.4"/>
<text transform="matrix(0.2374 0 0 1 520.3231 113.0203)" class="st6 st7">$\scriptstyle \pm \sqrt \lambda$</text>
<text transform="matrix(1 0 0 1 191.7113 174.6251)" class="st6 st7">$\gamma$</text>
<text transform="matrix(1 0 0 1 477.637 111.4004)" class="st6 st7">$2$</text>
<text transform="matrix(0.5058 0 0 1 92.8496 152.0701)" class="st6 st7">$\delta$</text>
<circle class="st9" cx="183.5" cy="148.2" r="3.9"/>
<text transform="matrix(1 0 0 1 130.1109 175.87)" class="st9 st6 st7">$\mathscr \sk(E)$</text>
<text transform="matrix(1 0 0 1 421.6822 174.6254)" class="st9 st6 st7">$\phi(\mathscr \sk(E))$</text>
<line class="st5" x1="482.2" y1="122.9" x2="414.1" y2="149.3"/>
<g>
	<line class="st5" x1="414.2" y1="55.7" x2="414.2" y2="243"/>
	<circle class="st2" cx="414.2" cy="55.7" r="3.9"/>
	<circle class="st2" cx="414.2" cy="243" r="3.9"/>
	<text transform="matrix(0.2893 0 0 1 429.5745 265.0504)" class="st2 st3 st4">$g\an(\phi(w))$</text>
	<text transform="matrix(1 0 0 1 424.7812 245.9516)" class="st2 st3 st4">1</text>
	<text transform="matrix(1 0 0 1 431.1198 158.1125)" class="st2 st3 st4">2</text>
	<text transform="matrix(1 0 0 1 424.7812 60.5487)" class="st2 st3 st4">1</text>
	<text transform="matrix(0.2893 0 0 1 421.7441 42.6984)" class="st2 st3 st4">$\phi(w)$</text>
	<line class="st8" x1="414.2" y1="55.7" x2="414.2" y2="24.3"/>
	<text transform="matrix(1 0 0 1 406.0858 14.8058)" class="st6 st7">$b$</text>
	<text transform="matrix(1 0 0 1 406.0854 289.8817)" class="st6 st7">$a$</text>
	<line class="st8" x1="414.2" y1="274" x2="414.2" y2="242.6"/>
	<circle class="st2" cx="482.6" cy="122.3" r="3.9"/>
	<circle class="st9" cx="414.2" cy="149.3" r="3.9"/>
</g>
<path class="st8" d="M134.9,141.9c46.3-9.3,98.8-17.3,156.5-21.7c67.5-5.2,128.8-4.6,182.3-1.2"/>
<text transform="matrix(1 0 0 1 421.6822 132.0107)" class="st6 st7">$c$</text>
</svg>
