<?xml version="1.0" encoding="utf-8"?>
<!-- Generator: Adobe Illustrator 23.0.3, SVG Export Plug-In . SVG Version: 6.00 Build 0)  -->
<svg version="1.1"
	 id="svg8" inkscape:version="1.2 (dc2aeda, 2022-05-15)" sodipodi:docname="blowup-intersection-poins-skeleton.svg" xmlns:cc="http://creativecommons.org/ns#" xmlns:dc="http://purl.org/dc/elements/1.1/" xmlns:inkscape="http://www.inkscape.org/namespaces/inkscape" xmlns:rdf="http://www.w3.org/1999/02/22-rdf-syntax-ns#" xmlns:sodipodi="http://sodipodi.sourceforge.net/DTD/sodipodi-0.dtd" xmlns:svg="http://www.w3.org/2000/svg"
	 xmlns="http://www.w3.org/2000/svg" xmlns:xlink="http://www.w3.org/1999/xlink" x="0px" y="0px" viewBox="0 0 680.3 326.7"
	 style="enable-background:new 0 0 680.3 326.7;" xml:space="preserve">
<style type="text/css">
	.st0{fill:#020202;}
	.st1{font-family:'ArialMT';}
	.st2{font-size:12px;}
	.st3{fill:none;stroke:#727070;stroke-width:2;stroke-linecap:round;stroke-linejoin:round;stroke-miterlimit:10;}
	.st4{fill:none;stroke:#031510;stroke-miterlimit:10;}
	.st5{fill:none;stroke:#000000;stroke-miterlimit:10;}
	.st6{fill:#BE1E1A;}
	.st7{fill:none;stroke:#BE1E1A;stroke-miterlimit:10;}
	.st8{font-size:4.7393px;}
	.st9{fill:#1D1D1B;}
	.st10{font-size:4.5133px;}
	.st11{font-size:4.5135px;}
	.st12{font-size:5.9847px;}
	.st13{fill:none;stroke:#031510;stroke-width:0.75;stroke-miterlimit:10;}
	.st14{fill:#031510;}
</style>
<sodipodi:namedview  bordercolor="#666666" borderopacity="1.0" id="base" inkscape:current-layer="layer1" inkscape:cx="459.72169" inkscape:cy="299.14904" inkscape:deskcolor="#d1d1d1" inkscape:document-units="mm" inkscape:guide-bbox="true" inkscape:pagecheckerboard="0" inkscape:pageopacity="0.0" inkscape:pageshadow="2" inkscape:showpageshadow="2" inkscape:window-height="1172" inkscape:window-maximized="0" inkscape:window-width="960" inkscape:window-x="0" inkscape:window-y="0" inkscape:zoom="0.90924577" pagecolor="#ffffff" showborder="true" showgrid="false" showguides="true" width="200mm">
	<inkscape:grid  dotted="false" empspacing="4" id="grid815" spacingx="10" spacingy="10" type="xygrid" units="mm">
		</inkscape:grid>
</sodipodi:namedview>
<text transform="matrix(1 0 0 1 172.5943 27.7059)" class="st0 st1 st2">$\mathscr C’ = \bl_x \mathscr C$</text>
<text transform="matrix(1 0 0 1 188.9952 54.1864)" class="st0 st1 st2">$\mathscr C’_\eta$</text>
<text transform="matrix(1 0 0 1 237.8329 54.1866)" class="st0 st1 st2">$\mathscr C’_s$</text>
<rect x="172.6" y="35.8" class="st3" width="123.3" height="158"/>
<path class="st4" d="M208.2,65c-12.4,22.8-11.7,37.7-8.3,47.3c3.7,10.4,10.1,13.7,13.2,24.7c4.1,14.8-1.9,29.5-8,40.2"/>
<line class="st4" x1="265.2" y1="137.2" x2="241.2" y2="177.6"/>
<line class="st4" x1="260.4" y1="153.7" x2="260.4" y2="83.6"/>
<line class="st4" x1="220.9" y1="72.8" x2="261.5" y2="72.8"/>
<text transform="matrix(1 0 0 1 367.235 27.7549)" class="st0 st1 st2">$\mathscr C$</text>
<text transform="matrix(1 0 0 1 384.0533 52.8863)" class="st0 st1 st2">$\mathscr C_\eta$</text>
<text transform="matrix(1 0 0 1 430.1372 52.886)" class="st0 st1 st2">$\mathscr C_s$</text>
<rect x="367.2" y="34.5" class="st3" width="119.4" height="159.4"/>
<path class="st4" d="M402.9,65c-12.4,22.8-11.7,37.7-8.3,47.3c3.7,10.4,10.1,13.7,13.2,24.7c4.1,14.8-1.9,29.5-8,40.2"/>
<line class="st5" x1="457.5" y1="136.1" x2="433.5" y2="176.5"/>
<g>
	<g>
		<line class="st5" x1="452.7" y1="152.6" x2="452.7" y2="82.5"/>
	</g>
</g>
<line class="st5" x1="435" y1="68.6" x2="458" y2="97.4"/>
<circle class="st6" cx="452.7" cy="91.2" r="2.1"/>
<text transform="matrix(1 0 0 1 470.2662 92.6333)" class="st6 st1 st2">$\scriptstyle x$</text>
<g>
	<text transform="matrix(1 0 0 1 457.4939 127.6162)" class="st0 st1 st2">$\scriptstyle{F_2}$</text>
</g>
<line class="st7" x1="242.1" y1="62.1" x2="268.9" y2="102.8"/>
<text transform="matrix(1 0 0 1 241.1683 86.4956)" class="st6 st1 st8">$\scriptstyle{E}$</text>
<g>
	<text transform="matrix(1 0 0 1 442.6894 75.7552)" class="st0 st1 st2">$\scriptstyle{F_1}$</text>
</g>
<g>
	<text transform="matrix(1 0 0 1 440.3828 177.1544)" class="st0 st1 st2">$\scriptstyle{F_3}$</text>
</g>
<g>
	<text transform="matrix(0.2627 0 0 1 265.6937 123.6035)" class="st0 st1 st2">$\scriptstyle{F_2}$</text>
</g>
<g>
	<text transform="matrix(1 0 0 1 262.5072 72.8304)" class="st0 st1 st2">$\scriptstyle{F_1}$</text>
</g>
<g>
	<text transform="matrix(1 0 0 1 248.0835 178.6159)" class="st0 st1 st2">$\scriptstyle{F_3}$</text>
</g>
<circle class="st9" cx="459.9" cy="262" r="2.9"/>
<g>
	<text transform="matrix(1 0 0 1 471.8269 262.0318)" class="st0 st1 st10">$F_2$</text>
</g>
<g>
	<text transform="matrix(1 0 0 1 482.0304 306.6953)" class="st0 st1 st11">$F_3$</text>
</g>
<circle class="st9" cx="397" cy="262" r="2.9"/>
<circle class="st9" cx="472.1" cy="306.7" r="2.9"/>
<line class="st4" x1="397" y1="262" x2="459.9" y2="262"/>
<line class="st4" x1="471.8" y1="306.4" x2="459.9" y2="262"/>
<g>
	<text transform="matrix(1 0 0 1 388.8748 281.0111)" class="st0 st1 st12">$F_1$</text>
</g>
<text transform="matrix(1 0 0 1 379.3937 226.4163)" class="st9 st1 st2">$\Delta(\mathscr{C})$</text>
<g>
	<g>
		<line class="st13" x1="317" y1="265.7" x2="357.3" y2="265.7"/>
		<g>
			<path class="st14" d="M312.5,265.7c2.1,0.8,4.8,2.1,6.4,3.6l-1.3-3.6l1.3-3.6C317.3,263.6,314.6,264.9,312.5,265.7z"/>
		</g>
	</g>
</g>
<path class="st13" d="M357.3,265.7c1.2,0,2.2-1,2.2-2.2s-1-2.2-2.2-2.2"/>
<text transform="matrix(1 0 0 1 331.1955 257.994)" class="st9 st1 st2">$i$</text>
<g>
	<g>
		<line class="st13" x1="312.5" y1="280" x2="356.2" y2="280"/>
		<g>
			<path class="st14" d="M355.6,276.3c0.9,1.6,2.4,2.8,3.9,3.8c-1.6,1-3,2.2-3.9,3.8h-0.9c1-1.5,2.2-2.8,3.6-3.8
				c-1.5-1-2.7-2.3-3.6-3.8H355.6z"/>
			<path class="st14" d="M353.4,276.3c0.9,1.6,2.4,2.8,3.9,3.8c-1.6,1-3,2.2-3.9,3.8h-0.9c1-1.5,2.2-2.8,3.6-3.8
				c-1.5-1-2.7-2.3-3.6-3.8H353.4z"/>
		</g>
	</g>
</g>
<text transform="matrix(1 0 0 1 331.1957 295.2014)" class="st9 st1 st2">$r$</text>
<text transform="matrix(1 0 0 1 196.5711 225.3822)" class="st9 st1 st2">$\Delta(\mathscr{C}’)$</text>
<g>
	<g>
		<line class="st4" x1="302.8" y1="120.8" x2="353.5" y2="120.8"/>
		<g>
			<path class="st14" d="M359.6,120.8c-2.8,1.1-6.4,2.9-8.5,4.8l1.7-4.8l-1.7-4.8C353.2,118,356.7,119.8,359.6,120.8z"/>
		</g>
	</g>
</g>
<circle class="st9" cx="262.5" cy="265.2" r="2.9"/>
<g>
	<text transform="matrix(1 0 0 1 274.3585 265.226)" class="st0 st1 st10">$F_2$</text>
</g>
<g>
	<text transform="matrix(1 0 0 1 284.3715 309.5728)" class="st0 st1 st11">$F_3$</text>
</g>
<circle class="st9" cx="199.5" cy="265.2" r="2.9"/>
<circle class="st9" cx="274.5" cy="309.6" r="2.9"/>
<line class="st4" x1="199.5" y1="265.2" x2="262.5" y2="265.2"/>
<line class="st4" x1="274.4" y1="309.6" x2="262.5" y2="265.2"/>
<g>
	<text transform="matrix(1 0 0 1 191.4066 284.2058)" class="st0 st1 st12">$F_1$</text>
</g>
<ellipse transform="matrix(0.3827 -0.9239 0.9239 0.3827 -105.9033 371.9567)" class="st6" cx="225.4" cy="265.2" rx="2.9" ry="2.9"/>
<text transform="matrix(1 0 0 1 220.9316 254.3672)" class="st6 st1 st8">$E$</text>
</svg>
