<?xml version="1.0" encoding="utf-8"?>
<!-- Generator: Adobe Illustrator 23.0.3, SVG Export Plug-In . SVG Version: 6.00 Build 0)  -->
<svg version="1.1"
	 id="svg8" inkscape:version="0.92.4 (unknown)" sodipodi:docname="figure.svg" xmlns:cc="http://creativecommons.org/ns#" xmlns:dc="http://purl.org/dc/elements/1.1/" xmlns:inkscape="http://www.inkscape.org/namespaces/inkscape" xmlns:rdf="http://www.w3.org/1999/02/22-rdf-syntax-ns#" xmlns:sodipodi="http://sodipodi.sourceforge.net/DTD/sodipodi-0.dtd" xmlns:svg="http://www.w3.org/2000/svg"
	 xmlns="http://www.w3.org/2000/svg" xmlns:xlink="http://www.w3.org/1999/xlink" x="0px" y="0px" viewBox="0 0 680.3 330.5"
	 style="enable-background:new 0 0 680.3 330.5;" xml:space="preserve">
<style type="text/css">
	.st0{fill:#030304;}
	.st1{font-family:'ArialMT';}
	.st2{font-size:12px;}
	.st3{fill:none;stroke:#737171;stroke-width:2;stroke-linecap:round;stroke-linejoin:round;stroke-miterlimit:10;}
	.st4{fill:none;stroke:#031510;stroke-miterlimit:10;}
	.st5{fill:none;stroke:#000000;stroke-miterlimit:10;}
	.st6{fill:#BF1F1A;}
	.st7{fill:none;stroke:#BF1F1A;stroke-miterlimit:10;}
	.st8{font-size:4.7393px;}
	.st9{fill:#008FD3;}
	.st10{fill:none;stroke:#008FD3;stroke-miterlimit:10;}
	.st11{font-size:2.8811px;}
	.st12{font-size:4.5133px;}
	.st13{font-size:4.5135px;}
	.st14{font-size:5.9847px;}
	.st15{fill:none;stroke:#031510;stroke-width:0.75;stroke-miterlimit:10;}
	.st16{fill:#031510;}
</style>
<sodipodi:namedview  bordercolor="#666666" borderopacity="1.0" id="base" inkscape:current-layer="layer1" inkscape:cx="284.27627" inkscape:cy="182.72055" inkscape:document-units="mm" inkscape:guide-bbox="true" inkscape:pageopacity="0.0" inkscape:pageshadow="2" inkscape:window-height="995" inkscape:window-maximized="1" inkscape:window-width="2520" inkscape:window-x="20" inkscape:window-y="65" inkscape:zoom="0.99437388" pagecolor="#ffffff" showborder="true" showgrid="false" showguides="true" width="200mm">
	<inkscape:grid  dotted="false" empspacing="4" id="grid815" spacingx="10" spacingy="10" type="xygrid" units="mm">
		</inkscape:grid>
</sodipodi:namedview>
<g id="layer1" transform="translate(0,-177)" inkscape:groupmode="layer" inkscape:label="Layer 1">
</g>
<text transform="matrix(1 0 0 1 299.9553 23.3448)" class="st0 st1 st2">$\mathscr C’ = \bl_x \mathscr C$</text>
<text transform="matrix(1 0 0 1 316.3562 49.8254)" class="st0 st1 st2">$\mathscr C’_\eta$</text>
<text transform="matrix(1 0 0 1 365.1938 49.8255)" class="st0 st1 st2">$\mathscr C’_s$</text>
<rect x="300" y="31.4" class="st3" width="123.3" height="158"/>
<path class="st4" d="M335.6,60.6c-12.4,22.8-11.7,37.7-8.3,47.3c3.7,10.4,10.1,13.7,13.2,24.7c4.1,14.8-1.9,29.5-8,40.2"/>
<line class="st4" x1="392.6" y1="132.8" x2="368.6" y2="173.2"/>
<line class="st4" x1="387.8" y1="149.3" x2="387.8" y2="79.2"/>
<line class="st4" x1="370.1" y1="65.3" x2="393.1" y2="94"/>
<text transform="matrix(1 0 0 1 494.596 23.3938)" class="st0 st1 st2">$\mathscr C$</text>
<text transform="matrix(1 0 0 1 511.4142 48.5252)" class="st0 st1 st2">$\mathscr C_\eta$</text>
<text transform="matrix(1 0 0 1 557.4982 48.5249)" class="st0 st1 st2">$\mathscr C_s$</text>
<rect x="494.6" y="30.1" class="st3" width="119.4" height="159.4"/>
<path class="st4" d="M530.3,60.6c-12.4,22.8-11.7,37.7-8.3,47.3c3.7,10.4,10.1,13.7,13.2,24.7c4.1,14.8-1.9,29.5-8,40.2"/>
<line class="st5" x1="584.9" y1="131.7" x2="560.9" y2="172.1"/>
<g>
	<g>
		<line class="st5" x1="580.1" y1="148.2" x2="580.1" y2="78.1"/>
	</g>
</g>
<line class="st5" x1="562.4" y1="64.2" x2="585.4" y2="93"/>
<circle class="st6" cx="580.1" cy="122.3" r="2.1"/>
<text transform="matrix(1 0 0 1 584.1694 123.7517)" class="st6 st1 st2">$\scriptstyle x$</text>
<g>
	<text transform="matrix(1 0 0 1 585.3546 109.1098)" class="st0 st1 st2">$\scriptstyle{F_2}$</text>
</g>
<line class="st7" x1="358.2" y1="123.3" x2="397.5" y2="123.3"/>
<text transform="matrix(1 0 0 1 355.1792 135.8505)" class="st6 st1 st8">$\scriptstyle{E}$</text>
<g>
	<text transform="matrix(1 0 0 1 570.0504 71.3941)" class="st0 st1 st2">$\scriptstyle{F_1}$</text>
</g>
<g>
	<text transform="matrix(1 0 0 1 567.7438 172.7933)" class="st0 st1 st2">$\scriptstyle{F_3}$</text>
</g>
<g>
	<text transform="matrix(0.2627 0 0 1 393.0547 119.2425)" class="st0 st1 st2">$\scriptstyle{F_2}$</text>
</g>
<g>
	<text transform="matrix(1 0 0 1 377.7509 72.8557)" class="st0 st1 st2">$\scriptstyle{F_1}$</text>
</g>
<g>
	<text transform="matrix(1 0 0 1 375.4444 174.2548)" class="st0 st1 st2">$\scriptstyle{F_3}$</text>
</g>
<circle class="st9" cx="387.8" cy="104.3" r="2.1"/>
<text transform="matrix(1 0 0 1 391.8823 105.8404)" class="st9 st1 st2">$\scriptstyle{x’}$</text>
<text transform="matrix(1 0 0 1 94.095 23.419)" class="st0 st1 st2">$\mathscr C’’ = \bl_{x’} \mathscr C’$</text>
<text transform="matrix(1 0 0 1 110.4959 49.8996)" class="st0 st1 st2">$\mathscr C’_\eta$</text>
<text transform="matrix(1 0 0 1 159.3335 49.8998)" class="st0 st1 st2">$\mathscr C’’_s$</text>
<rect x="94.1" y="31.5" class="st3" width="123.3" height="158"/>
<path class="st4" d="M129.7,60.7c-12.4,22.8-11.7,37.7-8.3,47.3c3.7,10.4,10.1,13.7,13.2,24.7c4.1,14.8-1.9,29.5-8,40.2"/>
<line class="st4" x1="186.7" y1="132.9" x2="162.7" y2="173.3"/>
<line class="st4" x1="181.9" y1="149.4" x2="181.9" y2="79.3"/>
<line class="st4" x1="164.2" y1="65.4" x2="187.2" y2="94.1"/>
<line class="st7" x1="152.3" y1="123.3" x2="191.6" y2="123.3"/>
<text transform="matrix(1 0 0 1 149.3189 135.9248)" class="st6 st1 st8">$\scriptstyle{E}$</text>
<g>
	<text transform="matrix(0.2613 0 0 1 187.1953 119.3167)" class="st0 st1 st2">$\scriptstyle{F_2}$</text>
</g>
<g>
	<text transform="matrix(1 0 0 1 171.8906 72.9299)" class="st0 st1 st2">$\scriptstyle{F_1}$</text>
</g>
<g>
	<text transform="matrix(1 0 0 1 169.5842 174.329)" class="st0 st1 st2">$\scriptstyle{F_3}$</text>
</g>
<line class="st10" x1="151.4" y1="104.4" x2="190.7" y2="104.4"/>
<g>
	<text transform="matrix(1 0 0 1 144.8959 100.6474)" class="st9 st1 st11">$\scriptstyle{E’}$</text>
</g>
<circle cx="545.4" cy="273.2" r="2.9"/>
<g>
	<text transform="matrix(1 0 0 1 551.8684 267.0055)" class="st0 st1 st12">$F_2$</text>
</g>
<g>
	<text transform="matrix(1 0 0 1 592.761 308.5455)" class="st0 st1 st13">$F_3$</text>
</g>
<circle cx="508.1" cy="308.5" r="2.9"/>
<circle cx="582.9" cy="308.5" r="2.9"/>
<line class="st4" x1="508.1" y1="308.5" x2="545.4" y2="273.2"/>
<line class="st4" x1="582.9" y1="308.5" x2="545.4" y2="273.2"/>
<g>
	<text transform="matrix(1 0 0 1 491.7863 300.2613)" class="st0 st1 st14">$F_1$</text>
</g>
<text transform="matrix(1 0 0 1 506.7547 222.0552)" class="st1 st2">$\Delta{\mathscr{C}}$</text>
<g>
	<g>
		<line class="st15" x1="436.6" y1="261.4" x2="476.9" y2="261.4"/>
		<g>
			<path class="st16" d="M432.1,261.4c2.1,0.8,4.8,2.1,6.4,3.6l-1.3-3.6l1.3-3.6C436.8,259.2,434.2,260.6,432.1,261.4z"/>
		</g>
	</g>
</g>
<path class="st15" d="M476.9,261.4c1.2,0,2.2-1,2.2-2.2c0-1.2-1-2.2-2.2-2.2"/>
<text transform="matrix(1 0 0 1 447.6209 253.6332)" class="st1 st2">$i$</text>
<g>
	<g>
		<line class="st15" x1="432.1" y1="275.7" x2="475.8" y2="275.7"/>
		<g>
			<path class="st16" d="M475.2,271.9c0.9,1.6,2.4,2.8,3.9,3.8c-1.6,1-3,2.2-3.9,3.8h-0.9c1-1.5,2.2-2.8,3.6-3.8
				c-1.5-1-2.7-2.3-3.6-3.8H475.2z"/>
			<path class="st16" d="M472.9,271.9c0.9,1.6,2.4,2.8,3.9,3.8c-1.6,1-3,2.2-3.9,3.8H472c1-1.5,2.2-2.8,3.6-3.8
				c-1.5-1-2.7-2.3-3.6-3.8H472.9z"/>
		</g>
	</g>
</g>
<text transform="matrix(1 0 0 1 447.6211 290.8405)" class="st1 st2">$r$</text>
<circle cx="365.7" cy="272.2" r="2.9"/>
<g>
	<text transform="matrix(1 0 0 1 372.1461 266.0227)" class="st0 st1 st12">$F_2$</text>
</g>
<g>
	<text transform="matrix(1 0 0 1 413.0387 307.5627)" class="st0 st1 st13">$F_3$</text>
</g>
<circle cx="328.3" cy="307.6" r="2.9"/>
<circle cx="403.1" cy="307.6" r="2.9"/>
<line class="st4" x1="328.3" y1="307.6" x2="365.7" y2="272.2"/>
<line class="st4" x1="403.1" y1="307.6" x2="365.7" y2="272.2"/>
<g>
	<text transform="matrix(1 0 0 1 312.0641 299.2786)" class="st0 st1 st14">$F_1$</text>
</g>
<text transform="matrix(1 0 0 1 323.9321 221.0212)" class="st1 st2">$\Delta{\mathscr{C}’}$</text>
<text transform="matrix(1 0 0 1 322.4716 248.7618)" class="st1 st2">$E$</text>
<line class="st4" x1="365.7" y1="272.2" x2="349.9" y2="244.5"/>
<g>
	<g>
		<line class="st15" x1="241.9" y1="265.2" x2="282.2" y2="265.2"/>
		<g>
			<path class="st16" d="M237.4,265.2c2.1,0.8,4.8,2.1,6.4,3.6l-1.3-3.6l1.3-3.6C242.2,263,239.5,264.4,237.4,265.2z"/>
		</g>
	</g>
</g>
<path class="st15" d="M282.2,265.2c1.2,0,2.2-1,2.2-2.2c0-1.2-1-2.2-2.2-2.2"/>
<text transform="matrix(1 0 0 1 252.9622 257.4364)" class="st1 st2">$i’$</text>
<g>
	<g>
		<line class="st15" x1="237.4" y1="279.5" x2="281.1" y2="279.5"/>
		<g>
			<path class="st16" d="M280.5,275.7c0.9,1.6,2.4,2.8,3.9,3.8c-1.6,1-3,2.2-3.9,3.8h-0.9c1-1.5,2.2-2.8,3.6-3.8
				c-1.5-1-2.7-2.3-3.6-3.8H280.5z"/>
			<path class="st16" d="M278.3,275.7c0.9,1.6,2.4,2.8,3.9,3.8c-1.6,1-3,2.2-3.9,3.8h-0.9c1-1.5,2.2-2.8,3.6-3.8
				c-1.5-1-2.7-2.3-3.6-3.8H278.3z"/>
		</g>
	</g>
</g>
<text transform="matrix(1 0 0 1 252.9625 294.6437)" class="st1 st2">$r’$</text>
<circle cx="152.4" cy="269.4" r="2.9"/>
<g>
	<text transform="matrix(1 0 0 1 166.2006 269.3018)" class="st0 st1 st12">$F_2$</text>
</g>
<g>
	<text transform="matrix(1 0 0 1 199.806 304.7421)" class="st0 st1 st13">$F_3$</text>
</g>
<circle cx="115.1" cy="304.7" r="2.9"/>
<circle cx="189.9" cy="304.7" r="2.9"/>
<line class="st4" x1="115.1" y1="304.7" x2="152.4" y2="269.4"/>
<line class="st4" x1="189.9" y1="304.7" x2="152.4" y2="269.4"/>
<g>
	<text transform="matrix(1 0 0 1 98.8314 296.4579)" class="st0 st1 st14">$F_1$</text>
</g>
<text transform="matrix(1 0 0 1 113.7997 218.2518)" class="st1 st2">$\Delta{\mathscr{C}’’}$</text>
<text transform="matrix(1 0 0 1 109.2389 245.9411)" class="st1 st2">$E$</text>
<line class="st4" x1="152.4" y1="269.4" x2="136.6" y2="241.7"/>
<g>
	<text transform="matrix(1 0 0 1 175.1233 245.9411)" class="st9 st1 st2">$E’$</text>
</g>
<line class="st4" x1="153.3" y1="269.4" x2="169.1" y2="241.7"/>
<ellipse transform="matrix(0.3827 -0.9239 0.9239 0.3827 -138.951 275.4373)" class="st6" cx="136.6" cy="241.7" rx="2.9" ry="2.9"/>
<ellipse transform="matrix(0.9239 -0.3827 0.3827 0.9239 -79.6227 83.1013)" class="st9" cx="169.1" cy="241.7" rx="2.9" ry="2.9"/>
<ellipse transform="matrix(0.3827 -0.9239 0.9239 0.3827 -9.9248 474.1799)" class="st6" cx="349.9" cy="244.5" rx="2.9" ry="2.9"/>
<g>
	<g>
		<line class="st4" x1="430.2" y1="116.5" x2="480.9" y2="116.5"/>
		<g>
			<path class="st16" d="M486.9,116.5c-2.8,1.1-6.4,2.9-8.5,4.8l1.7-4.8l-1.7-4.8C480.6,113.6,484.1,115.4,486.9,116.5z"/>
		</g>
	</g>
</g>
<g>
	<g>
		<line class="st4" x1="225.1" y1="116.5" x2="284.9" y2="116.5"/>
		<g>
			<path class="st16" d="M290.9,116.5c-2.8,1.1-6.4,2.9-8.5,4.8l1.7-4.8l-1.7-4.8C284.6,113.6,288.1,115.4,290.9,116.5z"/>
		</g>
	</g>
</g>
</svg>
