<?xml version="1.0" encoding="utf-8"?>
<!-- Generator: Adobe Illustrator 23.0.3, SVG Export Plug-In . SVG Version: 6.00 Build 0)  -->
<svg version="1.1"
	 id="svg8" inkscape:version="0.92.4 (unknown)" sodipodi:docname="figure.svg" xmlns:cc="http://creativecommons.org/ns#" xmlns:dc="http://purl.org/dc/elements/1.1/" xmlns:inkscape="http://www.inkscape.org/namespaces/inkscape" xmlns:rdf="http://www.w3.org/1999/02/22-rdf-syntax-ns#" xmlns:sodipodi="http://sodipodi.sourceforge.net/DTD/sodipodi-0.dtd" xmlns:svg="http://www.w3.org/2000/svg"
	 xmlns="http://www.w3.org/2000/svg" xmlns:xlink="http://www.w3.org/1999/xlink" x="0px" y="0px" viewBox="0 0 680.3 128.9"
	 style="enable-background:new 0 0 680.3 128.9;" xml:space="preserve">
<style type="text/css">
	.st0{fill:none;stroke:#B41917;stroke-miterlimit:10;}
	.st1{fill:#B41917;}
	.st2{fill:none;stroke:#000000;stroke-miterlimit:10;}
	.st3{font-family:'MyriadPro-Regular';}
	.st4{font-size:12px;}
</style>
<line class="st0" x1="465.9" y1="80.1" x2="486.4" y2="80.1"/>
<circle class="st1" cx="486.4" cy="80.1" r="2.6"/>
<line class="st0" x1="581.1" y1="24.7" x2="595.1" y2="38.8"/>
<circle class="st1" cx="580.6" cy="24.2" r="2.6"/>
<line class="st0" x1="609.2" y1="24" x2="595.1" y2="38"/>
<circle class="st1" cx="609.7" cy="23.5" r="2.6"/>
<line class="st0" x1="342.6" y1="56.3" x2="342.6" y2="35.8"/>
<line class="st0" x1="342.6" y1="35.8" x2="342.6" y2="15.4"/>
<circle class="st1" cx="342.6" cy="35.8" r="2.6"/>
<circle class="st1" cx="342.6" cy="15.4" r="2.6"/>
<line class="st0" x1="238.9" y1="86" x2="238.9" y2="65.5"/>
<line class="st0" x1="238.9" y1="64.8" x2="238.9" y2="44.4"/>
<line class="st0" x1="238.9" y1="44.4" x2="238.9" y2="23.9"/>
<line class="st0" x1="238.9" y1="86.7" x2="238.9" y2="107.1"/>
<circle class="st1" cx="145.3" cy="49.7" r="2.6"/>
<line class="st0" x1="122.1" y1="55.4" x2="145.3" y2="49.7"/>
<circle class="st1" cx="122.1" cy="32.9" r="2.6"/>
<line class="st0" x1="122.1" y1="56.9" x2="122.1" y2="32.9"/>
<sodipodi:namedview  bordercolor="#666666" borderopacity="1.0" id="base" inkscape:current-layer="layer1" inkscape:cx="284.27627" inkscape:cy="182.72055" inkscape:document-units="mm" inkscape:guide-bbox="true" inkscape:pageopacity="0.0" inkscape:pageshadow="2" inkscape:window-height="995" inkscape:window-maximized="1" inkscape:window-width="2520" inkscape:window-x="20" inkscape:window-y="65" inkscape:zoom="0.99437388" pagecolor="#ffffff" showborder="true" showgrid="false" showguides="true" width="200mm">
	<inkscape:grid  dotted="false" empspacing="4" id="grid815" spacingx="10" spacingy="10" type="xygrid" units="mm">
		</inkscape:grid>
</sodipodi:namedview>
<g id="layer1" transform="translate(0,-177)" inkscape:groupmode="layer" inkscape:label="Layer 1">
</g>
<circle cx="72.1" cy="102.8" r="2.6"/>
<line class="st2" x1="82" y1="72.1" x2="72.1" y2="102.8"/>
<circle class="st1" cx="77" cy="48.6" r="2.6"/>
<line class="st2" x1="107.6" y1="74.9" x2="81.9" y2="72.6"/>
<circle cx="107.9" cy="74.9" r="2.6"/>
<line class="st2" x1="120.9" y1="97.2" x2="107.7" y2="75.1"/>
<circle cx="121" cy="97.1" r="2.6"/>
<line class="st2" x1="72.1" y1="102.8" x2="120.9" y2="97.2"/>
<line class="st0" x1="82" y1="72.1" x2="77" y2="48.6"/>
<circle cx="81.8" cy="72.6" r="2.6"/>
<circle class="st1" cx="77" cy="24.7" r="2.6"/>
<line class="st0" x1="77" y1="48.6" x2="77" y2="24.7"/>
<circle cx="122.1" cy="55.9" r="2.6"/>
<line class="st2" x1="107.9" y1="75.2" x2="122.1" y2="55.9"/>
<circle cx="238.9" cy="86" r="2.6"/>
<text transform="matrix(1 0 0 1 244.5383 89.5167)" class="st3 st4">$1$</text>
<circle class="st1" cx="238.9" cy="65.5" r="2.6"/>
<circle class="st1" cx="238.9" cy="44.4" r="2.6"/>
<circle class="st1" cx="238.9" cy="23.9" r="2.6"/>
<circle class="st1" cx="238.9" cy="107.1" r="2.6"/>
<circle cx="330.2" cy="110.5" r="2.6"/>
<line class="st2" x1="340.1" y1="79.7" x2="330.2" y2="110.5"/>
<line class="st2" x1="365.7" y1="82.6" x2="340.1" y2="80.2"/>
<circle cx="366.1" cy="82.6" r="2.6"/>
<line class="st2" x1="379" y1="104.9" x2="365.9" y2="82.8"/>
<circle cx="379.2" cy="104.8" r="2.6"/>
<line class="st2" x1="330.2" y1="110.5" x2="379" y2="104.9"/>
<line class="st2" x1="340.1" y1="79.7" x2="342.6" y2="57.3"/>
<circle cx="340" cy="80.2" r="2.6"/>
<circle cx="342.6" cy="58" r="2.6"/>
<text transform="matrix(1 0 0 1 348.1774 61.4928)" class="st3 st4">$1$</text>
<line class="st2" x1="465.1" y1="80.1" x2="439.4" y2="77.7"/>
<circle cx="465.4" cy="80.1" r="2.6"/>
<line class="st2" x1="478.4" y1="102.4" x2="465.2" y2="80.2"/>
<circle cx="439.4" cy="77.7" r="2.6"/>
<circle cx="478.5" cy="102.7" r="2.6"/>
<line class="st2" x1="474.1" y1="55.8" x2="465.4" y2="80.1"/>
<circle cx="474.2" cy="55.5" r="2.6"/>
<text transform="matrix(1 0 0 1 478.7249 52.857)" class="st3 st4">$1$</text>
<text transform="matrix(1 0 0 1 484.7432 103.1749)" class="st3 st4">$2$</text>
<text transform="matrix(1 0 0 1 431.4168 72.9171)" class="st3 st4">$1$</text>
<line class="st2" x1="595.1" y1="80.4" x2="595.1" y2="60"/>
<line class="st2" x1="595.1" y1="59.3" x2="595.1" y2="38.8"/>
<line class="st2" x1="595.1" y1="81.1" x2="595.1" y2="101.6"/>
<circle cx="595.1" cy="80.4" r="2.6"/>
<circle cx="595.1" cy="60" r="2.6"/>
<circle cx="595.1" cy="38.8" r="2.6"/>
<line class="st0" x1="581.1" y1="115.6" x2="595.1" y2="101.6"/>
<circle class="st1" cx="580.6" cy="116.1" r="2.6"/>
<line class="st0" x1="609.2" y1="116.4" x2="595.1" y2="102.3"/>
<circle class="st1" cx="609.7" cy="116.9" r="2.6"/>
<circle cx="595.1" cy="101.6" r="2.6"/>
</svg>
