<?xml version="1.0" encoding="utf-8"?>
<!-- Generator: Adobe Illustrator 23.0.3, SVG Export Plug-In . SVG Version: 6.00 Build 0)  -->
<svg version="1.1"
	 id="svg8" inkscape:version="0.92.4 (unknown)" sodipodi:docname="figure.svg" xmlns:cc="http://creativecommons.org/ns#" xmlns:dc="http://purl.org/dc/elements/1.1/" xmlns:inkscape="http://www.inkscape.org/namespaces/inkscape" xmlns:rdf="http://www.w3.org/1999/02/22-rdf-syntax-ns#" xmlns:sodipodi="http://sodipodi.sourceforge.net/DTD/sodipodi-0.dtd" xmlns:svg="http://www.w3.org/2000/svg"
	 xmlns="http://www.w3.org/2000/svg" xmlns:xlink="http://www.w3.org/1999/xlink" x="0px" y="0px" viewBox="0 0 680.3 272.2"
	 style="enable-background:new 0 0 680.3 272.2;" xml:space="preserve">
<style type="text/css">
	.st0{fill:none;stroke:#000000;stroke-width:0.5;stroke-miterlimit:10;}
	.st1{font-family:'ArialMT';}
	.st2{font-size:12px;}
	.st3{fill:none;stroke:#716F6F;stroke-width:2;stroke-linecap:round;stroke-linejoin:round;stroke-miterlimit:10;}
	.st4{fill:none;stroke:#090907;stroke-linecap:round;stroke-linejoin:round;}
	.st5{fill:none;stroke:#090907;stroke-linecap:round;stroke-linejoin:round;stroke-dasharray:5.9836,5.9836;}
</style>
<path class="st0" d="M76.8,49.1c5.7,12.6,14,35.6,14.1,65.4c0.1,30.3-8.4,53.6-14.1,66.3"/>
<text transform="matrix(1 0 0 1 59.864 18.139)" class="st1 st2">$\pro^1_K$</text>
<g>
	<g>
		<line class="st0" x1="76.8" y1="190" x2="76.8" y2="206.8"/>
		<g>
			<path d="M76.8,209.8c-0.5-1.4-1.4-3.2-2.4-4.3l2.4,0.9l2.4-0.9C78.3,206.7,77.4,208.4,76.8,209.8z"/>
		</g>
	</g>
</g>
<text transform="matrix(1 0 0 1 11.499 230.6816)" class="st1 st2">$\spec K$</text>
<circle cx="76.8" cy="227.5" r="2.7"/>
<path class="st0" d="M196.7,49.1c5.7,12.6,14,35.6,14.1,65.4c0.1,30.3-8.4,53.6-14.1,66.3"/>
<text transform="matrix(1 0 0 1 172.4372 18.1393)" class="st1 st2">$\mathscr P$</text>
<g>
	<g>
		<line class="st0" x1="231.7" y1="190" x2="231.7" y2="206.8"/>
		<g>
			<path d="M231.7,209.8c-0.5-1.4-1.4-3.2-2.4-4.3l2.4,0.9l2.4-0.9C233.1,206.7,232.2,208.4,231.7,209.8z"/>
		</g>
	</g>
</g>
<text transform="matrix(1 0 0 1 172.437 209.5035)" class="st1 st2">$\spec R$</text>
<circle cx="196.7" cy="227.5" r="2.7"/>
<line class="st0" x1="242.5" y1="60" x2="280.5" y2="174.7"/>
<line class="st0" x1="239.4" y1="177" x2="288.9" y2="57.1"/>
<text transform="matrix(1 0 0 1 185.8324 44.4769)" class="st1 st2">$\mathscr P_\eta$</text>
<text transform="matrix(1 0 0 1 246.8914 44.4767)" class="st1 st2">$\mathscr P_s$</text>
<circle cx="264.2" cy="227.5" r="2.7"/>
<text transform="matrix(1 0 0 1 188.6555 243.822)" class="st1 st2">$\eta$</text>
<text transform="matrix(1 0 0 1 255.4673 243.8214)" class="st1 st2">$\mathfrak m$</text>
<rect x="172.4" y="25.7" class="st3" width="125.8" height="159.7"/>
<rect x="172.4" y="218" class="st3" width="125.8" height="35.1"/>
<g>
	<g>
		<line class="st4" x1="341.4" y1="9.3" x2="341.4" y2="12.3"/>
		<line class="st5" x1="341.4" y1="18.3" x2="341.4" y2="254.6"/>
		<line class="st4" x1="341.4" y1="257.6" x2="341.4" y2="260.6"/>
	</g>
</g>
<text transform="matrix(1 0 0 1 390.0411 18.4609)" class="st1 st2">$E$</text>
<g>
	<g>
		<line class="st0" x1="428" y1="190" x2="428" y2="206.8"/>
		<g>
			<path d="M428,209.8c-0.5-1.4-1.4-3.2-2.4-4.3l2.4,0.9l2.4-0.9C429.5,206.7,428.6,208.4,428,209.8z"/>
		</g>
	</g>
</g>
<text transform="matrix(1 0 0 1 362.7223 230.6821)" class="st1 st2">$\spec K$</text>
<circle cx="428" cy="227.5" r="2.7"/>
<g>
	<g>
		<line class="st0" x1="583" y1="190" x2="583" y2="206.8"/>
		<g>
			<path d="M583,209.8c-0.5-1.4-1.4-3.2-2.4-4.3l2.4,0.9l2.4-0.9C584.4,206.7,583.5,208.4,583,209.8z"/>
		</g>
	</g>
</g>
<text transform="matrix(1 0 0 1 523.6603 209.5031)" class="st1 st2">$\spec R$</text>
<circle cx="548" cy="227.5" r="2.7"/>
<circle cx="615.5" cy="227.5" r="2.7"/>
<text transform="matrix(1 0 0 1 539.8787 243.8216)" class="st1 st2">$\eta$</text>
<text transform="matrix(1 0 0 1 606.6906 243.822)" class="st1 st2">$\mathfrak m$</text>
<rect x="523.7" y="218" class="st3" width="125.8" height="35.1"/>
<rect x="522.5" y="25.7" class="st3" width="125.8" height="159.7"/>
<text transform="matrix(1 0 0 1 522.4569 18.461)" class="st1 st2">$\mathscr E$</text>
<text transform="matrix(1 0 0 1 539.8792 44.4765)" class="st1 st2">$\mathscr E_\eta$</text>
<text transform="matrix(1 0 0 1 612.7998 44.4767)" class="st1 st2">$\mathscr E_s$</text>
<path class="st0" d="M638,182.4l-0.7-3.1l-0.7-3l-0.7-3l-0.7-2.9l-0.7-2.8l-0.7-2.8l-0.7-2.7l-0.7-2.7l-0.7-2.6l-0.7-2.6l-0.6-2.5
	l-0.6-2.4l-0.6-2.4l-0.6-2.3l-0.6-2.3l-0.6-2.2l-0.6-2.2l-0.6-2.1l-1.2-4.1l-1.2-3.9l-1.2-3.7l-1.1-3.5l-1.1-3.3l-1.1-3.1l-1.1-2.9
	l-1-2.7l-1-2.6l-1-2.4l-1-2.2l-1-2.1l-0.9-1.9l-0.9-1.7l-0.9-1.6l-0.9-1.4l-0.8-1.3l-0.8-1.1l-0.8-1l-0.8-0.9l-0.8-0.7l-0.7-0.6
	l-0.7-0.5l-0.7-0.3l-0.7-0.2l-0.6-0.1h-0.6l-0.6,0.1l-0.6,0.2l-0.6,0.3l-0.5,0.4l-0.5,0.5l-0.5,0.6l-0.5,0.7l-0.5,0.7l-0.4,0.8
	l-0.4,0.9l-0.4,1l-0.4,1l-0.3,1.1l-0.3,1.1l-0.3,1.2l-0.3,1.2l-0.3,1.3l-0.2,1.3l-0.2,1.4l-0.2,1.4l-0.2,1.4l-0.1,1.4l-0.1,1.5
	l-0.1,1.5l-0.1,1.5l-0.1,1.5v1.5v1.5v1.5v1.5l0.1,1.5l0.1,1.5l0.1,1.5l0.1,1.5l0.1,1.4l0.2,1.4l0.2,1.4l0.2,1.4l0.2,1.3l0.3,1.3
	l0.3,1.2l0.3,1.2l0.3,1.1l0.3,1.1l0.4,1l0.4,0.9l0.4,0.9l0.4,0.8l0.5,0.7l0.5,0.6l0.5,0.6l0.5,0.5l0.5,0.4l0.6,0.3l0.6,0.2l0.6,0.1
	h0.6l0.6-0.1l0.7-0.2l0.7-0.3l0.7-0.5l0.7-0.6l0.8-0.7l0.8-0.9l0.8-1l0.8-1.1l0.8-1.3l0.9-1.4l0.9-1.6l0.9-1.7l0.9-1.9l1-2l1-2.2
	l1-2.4l1-2.6l1-2.7l1.1-2.9l1.1-3.1l1.1-3.3l1.1-3.5l1.2-3.7l1.2-3.9l1.2-4.1l0.6-2.1l0.6-2.2l0.6-2.2l0.6-2.3l0.6-2.3l0.6-2.4
	l0.6-2.4l0.6-2.5l0.7-2.6l0.7-2.6l0.7-2.7l0.7-2.7l0.7-2.8l0.7-2.8l0.7-2.9l0.7-3l0.7-3l0.7-3.1"/>
<path class="st0" d="M384.7,114.5c0-3.5,0.2-7,0.6-10.5c0.4-3.5,1.1-7.1,2.2-10.5c1-3.1,2.5-6.7,5.4-8.6c3.3-2.1,7-0.3,9.8,1.8
	c2.6,1.9,4.8,4.3,7.6,6.1c1.5,1,3.3,1.7,5.1,1c1.6-0.6,2.7-2,3.7-3.3c2.1-2.9,3.6-6.2,4.9-9.5c1.4-3.2,2.6-6.5,3.8-9.9
	c1.2-3.4,2.4-6.9,3.5-10.4c1.1-3.5,2.2-7.1,3.2-10.6c0.2-0.8,0.5-1.7,0.7-2.5 M384.7,114.5c0,3.5,0.2,7.1,0.6,10.6
	c0.5,3.6,1.1,7.2,2.3,10.7c1.1,3.1,2.8,7,6,8.4c3.4,1.6,6.9-0.6,9.6-2.6c2.4-1.9,4.5-4.1,7.1-5.8c1.5-1,3.3-1.6,5.1-0.9
	c1.6,0.7,2.8,2.1,3.8,3.5c2.2,3.1,3.8,6.7,5.2,10.3c1.4,3.3,2.6,6.7,3.8,10.2c1.2,3.4,2.3,6.8,3.4,10.3c1.1,3.5,2.2,7,3.2,10.6
	c0.3,0.9,0.5,1.8,0.8,2.7"/>
<path class="st0" d="M535.7,115.1c0-3.5,0.2-7,0.6-10.5c0.4-3.5,1.1-7.1,2.2-10.5c1-3.1,2.5-6.7,5.4-8.6c3.3-2.1,7-0.3,9.8,1.8
	c2.6,1.9,4.8,4.3,7.6,6.1c1.5,1,3.3,1.7,5.1,1c1.6-0.6,2.7-2,3.7-3.3c2.1-2.9,3.6-6.2,4.9-9.5c1.4-3.2,2.6-6.5,3.8-9.9
	c1.2-3.4,2.4-6.9,3.5-10.4c1.1-3.5,2.2-7.1,3.2-10.6c0.2-0.8,0.5-1.7,0.7-2.5 M535.7,115.1c0,3.5,0.2,7.1,0.6,10.6
	c0.5,3.6,1.1,7.2,2.3,10.7c1.1,3.1,2.8,7,6,8.4c3.4,1.6,6.9-0.6,9.6-2.6c2.4-1.9,4.5-4.1,7.1-5.8c1.5-1,3.3-1.6,5.1-0.9
	c1.6,0.7,2.8,2.1,3.8,3.5c2.2,3.1,3.8,6.7,5.2,10.3c1.4,3.3,2.6,6.7,3.8,10.2c1.2,3.4,2.3,6.8,3.4,10.3c1.1,3.5,2.2,7,3.2,10.6
	c0.3,0.9,0.5,1.8,0.8,2.7"/>
</svg>
