<?xml version="1.0" encoding="utf-8"?>
<!-- Generator: Adobe Illustrator 23.0.3, SVG Export Plug-In . SVG Version: 6.00 Build 0)  -->
<svg version="1.1"
	 id="svg8" inkscape:version="0.92.4 (unknown)" sodipodi:docname="figure.svg" xmlns:cc="http://creativecommons.org/ns#" xmlns:dc="http://purl.org/dc/elements/1.1/" xmlns:inkscape="http://www.inkscape.org/namespaces/inkscape" xmlns:rdf="http://www.w3.org/1999/02/22-rdf-syntax-ns#" xmlns:sodipodi="http://sodipodi.sourceforge.net/DTD/sodipodi-0.dtd" xmlns:svg="http://www.w3.org/2000/svg"
	 xmlns="http://www.w3.org/2000/svg" xmlns:xlink="http://www.w3.org/1999/xlink" x="0px" y="0px" viewBox="0 0 680.3 272.2"
	 style="enable-background:new 0 0 680.3 272.2;" xml:space="preserve">
<style type="text/css">
	.st0{fill:none;stroke:#000000;stroke-width:0.5;stroke-miterlimit:10;}
	.st1{font-family:'ArialMT';}
	.st2{font-size:12px;}
	.st3{fill:none;stroke:#716F6F;stroke-width:2;stroke-linecap:round;stroke-linejoin:round;stroke-miterlimit:10;}
	.st4{fill:none;stroke:#090907;stroke-linecap:round;stroke-linejoin:round;}
	.st5{fill:none;stroke:#090907;stroke-linecap:round;stroke-linejoin:round;stroke-dasharray:5.9836,5.9836;}
	.st6{clip-path:url(#SVGID_2_);fill:none;stroke:#000000;stroke-width:0.5;stroke-miterlimit:10;}
	.st7{font-family:'MyriadPro-Regular';}
	.st8{clip-path:url(#SVGID_4_);fill:none;stroke:#000000;stroke-width:0.5;stroke-miterlimit:10;}
	
		.st9{fill:none;stroke:#000000;stroke-width:0.5;stroke-linecap:round;stroke-linejoin:round;stroke-miterlimit:10;stroke-opacity:0.698;}
</style>
<path class="st0" d="M76.8,49.1c5.7,12.6,14,35.6,14.1,65.4c0.1,30.3-8.4,53.6-14.1,66.3"/>
<text transform="matrix(1 0 0 1 59.8639 31.4056)" class="st1 st2">$\pro^1_K$</text>
<g>
	<g>
		<line class="st0" x1="76.8" y1="190" x2="76.8" y2="206.8"/>
		<g>
			<path d="M76.8,209.8c-0.5-1.4-1.4-3.2-2.4-4.3l2.4,0.9l2.4-0.9C78.3,206.7,77.4,208.4,76.8,209.8z"/>
		</g>
	</g>
</g>
<text transform="matrix(1 0 0 1 11.499 230.6816)" class="st1 st2">$\spec K$</text>
<circle cx="76.8" cy="227.5" r="2.7"/>
<path class="st0" d="M196.7,49.1c5.7,12.6,14,35.6,14.1,65.4c0.1,30.3-8.4,53.6-14.1,66.3"/>
<text transform="matrix(1 0 0 1 172.4371 31.4059)" class="st1 st2">$\mathscr P$</text>
<g>
	<g>
		<line class="st0" x1="231.7" y1="190" x2="231.7" y2="206.8"/>
		<g>
			<path d="M231.7,209.8c-0.5-1.4-1.4-3.2-2.4-4.3l2.4,0.9l2.4-0.9C233.1,206.7,232.2,208.4,231.7,209.8z"/>
		</g>
	</g>
</g>
<text transform="matrix(1 0 0 1 172.437 209.5035)" class="st1 st2">$\spec R$</text>
<circle cx="196.7" cy="227.5" r="2.7"/>
<line class="st0" x1="242.5" y1="60" x2="280.5" y2="174.7"/>
<line class="st0" x1="239.4" y1="177" x2="288.9" y2="57.1"/>
<text transform="matrix(1 0 0 1 175.0798 75.8161)" class="st1 st2">$\mathscr P_\eta$</text>
<text transform="matrix(1 0 0 1 246.8915 57.892)" class="st1 st2">$\mathscr P_s$</text>
<circle cx="264.2" cy="227.5" r="2.7"/>
<text transform="matrix(1 0 0 1 188.6555 243.822)" class="st1 st2">$\eta$</text>
<text transform="matrix(1 0 0 1 255.4673 243.8214)" class="st1 st2">$\mathfrak m$</text>
<rect x="172.4" y="39.4" class="st3" width="125.8" height="146"/>
<rect x="172.4" y="218" class="st3" width="125.8" height="35.1"/>
<g>
	<g>
		<line class="st4" x1="341.4" y1="9.3" x2="341.4" y2="12.3"/>
		<line class="st5" x1="341.4" y1="18.3" x2="341.4" y2="254.6"/>
		<line class="st4" x1="341.4" y1="257.6" x2="341.4" y2="260.6"/>
	</g>
</g>
<g>
	<defs>
		<rect id="SVGID_1_" x="384.5" y="47.6" width="51" height="134.8"/>
	</defs>
	<clipPath id="SVGID_2_">
		<use xlink:href="#SVGID_1_"  style="overflow:visible;"/>
	</clipPath>
	<path class="st6" d="M384.7,116.3L384.7,116.3 M384.7,116.3l0,0.6 M384.7,115L384.7,115 M384.7,115l0,1.3 M384.7,116.3L384.7,116.3
		 M384.7,113.6L384.7,113.6 M384.7,113.7l0,1.3 M384.7,114.9L384.7,114.9 M384.7,113l0,0.6 M384.7,113.6L384.7,113.6 M385.5,126.9
		L385.5,126.9 M385.5,126.9l0,0.2 M385.3,125.5l0,0.3 M385.3,125.8l0.1,1 M385.5,126.8L385.5,126.8 M385.2,124.2l0.1,0.5
		 M385.2,124.7l0,0.4 M385.3,125.1l0,0.4 M385.1,123.6L385.1,123.6 M385.1,123.5l-0.1-0.6 M385.2,124.2l-0.1-0.6 M385,122.4l0-0.5
		 M385,122l0-0.4 M385,122.9l0-0.5 M384.9,121.2l0-0.8 M384.9,120.5l0-0.2 M384.9,121.6l0-0.3 M384.9,120l0-1 M384.8,119l0-0.1
		 M384.9,120.2l0-0.2 M384.8,118.8l0-1.2 M384.8,117.6L384.8,117.6 M384.8,118.9L384.8,118.9 M384.8,117.6l0-0.7 M384.8,117.6
		L384.8,117.6 M384.7,113l0-0.7 M384.8,112.3L384.8,112.3 M384.8,112.3l0-1.2 M384.8,111.1L384.8,111.1 M384.8,112.3L384.8,112.3
		 M384.8,110.9l0-1 M384.9,109.9l0-0.2 M384.8,111l0-0.1 M384.9,109.4l0-0.8 M384.9,108.7l0-0.3 M384.9,109.7l0-0.2 M385,107.9
		l0-0.5 M385,107.5l0-0.5 M384.9,108.3l0-0.4 M385.1,106.4L385.1,106.4 M385.1,106.3l0.1-0.6 M385,107l0.1-0.6 M385.3,104.4l0,0.4
		 M385.3,104.8l0,0.4 M385.2,105.2l-0.1,0.5 M385.5,103.1L385.5,103.1 M385.5,103.1l-0.1,1 M385.3,104.1l0,0.3 M385.5,102.8l0,0.2
		 M385.5,103L385.5,103 M386.1,130.8l0,0.2 M386.1,131l0.1,0.6 M385.9,129.5l0.1,0.5 M386,130l0.1,0.4 M386,130.4l0.1,0.4
		 M385.8,129l-0.1-0.5 M385.7,128.5l-0.1-0.4 M385.9,129.5l-0.1-0.5 M385.6,128l-0.1-0.9 M385.7,128.2l0-0.2 M385.5,102.8l0.1-0.9
		 M385.6,101.9l0-0.2 M385.7,101.4l0.1-0.5 M385.8,100.9l0.1-0.5 M385.7,101.7l0.1-0.4 M386.1,99.1l-0.1,0.4 M386,99.5l-0.1,0.4
		 M386,99.9l-0.1,0.5 M386.3,98.3l-0.1,0.6 M386.1,98.9l0,0.2 M387,134.8L387,134.8 M387,134.8L387,134.8 M386.7,133.5l0.1,0.4
		 M386.8,133.9l0.2,0.8 M387,134.7L387,134.7 M386.5,133l-0.1-0.5 M386.4,132.4l-0.1-0.3 M386.7,133.5l-0.1-0.5 M386.3,132l-0.1-0.4
		 M386.4,132.1l0-0.1 M386.3,98.3l0.1-0.4 M386.3,97.9l0-0.1 M386.4,97.5l0.1-0.5 M386.5,97l0.1-0.5 M386.4,97.8l0.1-0.3 M387,95.1
		L387,95.1 M387,95.2l-0.2,0.8 M386.8,96l-0.1,0.4 M387,95.1L387,95.1 M387,95.1L387,95.1 M387.4,136.1l0.1,0.5 M387.5,136.6
		l0.3,0.8 M387.3,135.7l-0.2-0.8 M387.4,136.1l-0.1-0.4 M387,95.1l0.2-0.8 M387.3,94.2l0.1-0.4 M387.8,92.6l-0.3,0.8 M387.5,93.4
		l-0.1,0.5 M388.3,138.8l0.1,0.3 M388.4,139l0.1,0.4 M388.1,138.2l-0.2-0.7 M387.8,137.5l0-0.1 M388.3,138.8l-0.2-0.5 M387.8,137.4
		L387.8,137.4 M387.8,137.4L387.8,137.4 M387.8,92.6L387.8,92.6 M387.8,92.5L387.8,92.5 M387.8,92.4l0.2-0.7 M388.1,91.7l0.2-0.5
		 M387.8,92.5l0-0.1 M388.5,90.5l-0.1,0.4 M388.4,90.9l-0.1,0.3 M388.9,140.1l0.2,0.4 M389.1,140.5l0.2,0.5 M388.7,139.8l-0.2-0.4
		 M388.9,140.1l-0.1-0.3 M388.5,90.5l0.2-0.4 M388.7,90.1l0.1-0.3 M389.3,88.9l-0.2,0.5 M389.1,89.4l-0.2,0.4 M389.5,141.4l0.3,0.5
		 M389.8,141.9l0.3,0.5 M389.4,141.2l-0.1-0.2 M389.5,141.4l-0.1-0.2 M389.3,88.9l0.1-0.2 M389.4,88.7l0.1-0.2 M390.1,87.6l-0.3,0.5
		 M389.8,88l-0.3,0.5 M390.3,142.7l0.3,0.4 M390.6,143.1l0.2,0.3 M390.2,142.5l-0.1-0.2 M390.3,142.7l-0.1-0.2 M390.1,87.6l0.1-0.2
		 M390.2,87.4l0.1-0.2 M390.8,86.5l-0.2,0.3 M390.6,86.8l-0.3,0.4 M391.3,144l0.2,0.2 M391.5,144.2l0.1,0.1 M391,143.7l-0.2-0.2
		 M391.3,144l-0.3-0.3 M390.8,86.5l0.2-0.2 M391,86.2l0.3-0.3 M391.6,85.6l-0.1,0.1 M391.5,85.7l-0.2,0.2 M392,144.7l-0.4-0.4
		 M392.4,145.1l-0.3-0.3 M392,144.8L392,144.8 M391.6,85.6l0.4-0.4 M392,85.2L392,85.2 M392,85.1l0.3-0.3 M392.7,145.4l0.3,0.2
		 M393,145.6l0.1,0.1 M392.5,145.2l-0.1-0.1 M392.7,145.4l-0.3-0.2 M392.4,84.8l0.1-0.1 M392.5,84.8l0.3-0.2 M393.1,84.3l-0.1,0.1
		 M393,84.4l-0.3,0.2 M393.1,145.6l0.2,0.1 M393.4,145.8l0.2,0.1 M393.6,145.9l0.3,0.2 M393.4,84.1l-0.2,0.1 M393.9,83.9l-0.3,0.2
		 M393.6,84l-0.2,0.1 M394.2,146.2l-0.3-0.1 M394.6,146.3l-0.2-0.1 M394.4,146.3l-0.2-0.1 M393.9,83.9l0.3-0.1 M394.2,83.7l0.2-0.1
		 M394.4,83.6l0.2-0.1 M394.8,146.4l-0.2,0 M395.4,146.5l-0.1,0 M395.3,146.5l-0.5-0.1 M394.6,83.6l0.2,0 M394.8,83.5l0.5-0.1
		 M395.3,83.4l0.1,0 M395.5,146.5L395.5,146.5 M396.2,146.6L396.2,146.6 M396.1,146.6l-0.6-0.1 M395.4,83.4L395.4,83.4 M395.5,83.4
		l0.6-0.1 M396.1,83.3L396.1,83.3 M396.2,146.6L396.2,146.6 M396.9,146.6L396.9,146.6 M396.9,146.6l-0.7,0 M396.2,83.3L396.2,83.3
		 M396.2,83.3l0.7,0 M396.9,83.3L396.9,83.3 M397,146.6L397,146.6 M397.7,146.5l-0.1,0 M397.6,146.5l-0.6,0.1 M396.9,83.3
		L396.9,83.3 M397,83.4l0.6,0.1 M397.6,83.4l0.1,0 M397.8,146.4l-0.1,0 M398.4,146.3l-0.2,0.1 M398.2,146.3l-0.4,0.1 M397.7,83.5
		l0.1,0 M397.8,83.5l0.4,0.1 M398.2,83.6l0.2,0.1 M398.7,146.2l-0.3,0.1 M399.2,146l-0.3,0.1 M398.9,146.1l-0.1,0 M398.4,83.7
		l0.3,0.1 M398.7,83.8l0.1,0 M398.9,83.8l0.3,0.1 M399.2,146l0.3-0.1 M399.5,145.9l0.2-0.1 M399.7,145.8l0.2-0.1 M399.5,84.1
		l-0.3-0.1 M400,84.3l-0.2-0.1 M399.7,84.2l-0.2-0.1 M400,145.6l0.1-0.1 M400.1,145.6l0.4-0.2 M400.7,145.2L400.7,145.2
		 M400.7,145.3l-0.2,0.1 M400.5,84.6l0.2,0.1 M400.7,84.6L400.7,84.6 M400.1,84.3l-0.1-0.1 M400.5,84.6l-0.4-0.2 M400.8,145.2
		l-0.1,0.1 M401.5,144.8l-0.2,0.2 M401.2,144.9l-0.4,0.2 M400.7,84.7l0.1,0.1 M400.8,84.7l0.4,0.2 M401.2,85l0.2,0.2 M401.5,144.8
		l0.3-0.2 M401.8,144.6l0.2-0.2 M402,144.4l0.2-0.2 M401.8,85.3l-0.3-0.2 M402.2,85.6l-0.2-0.2 M402,85.5l-0.2-0.2 M402.2,144.3
		L402.2,144.3 M402.3,144.2l0.2-0.2 M403,143.7l-0.1,0.1 M402.9,143.8l-0.3,0.2 M402.6,85.9l0.3,0.2 M402.9,86.1l0.1,0.1
		 M402.3,85.7L402.3,85.7 M402.6,85.9l-0.2-0.2 M403.3,143.5l-0.3,0.3 M403.8,143.1l-0.4,0.3 M403.4,143.4L403.4,143.4 M403,86.2
		l0.3,0.3 M403.3,86.5L403.3,86.5 M403.4,86.5l0.4,0.3 M403.8,143.1l0.2-0.1 M403.9,143l0.3-0.3 M404.5,142.5L404.5,142.5
		 M404.4,142.6l-0.2,0.2 M404.3,87.2l0.2,0.2 M404.4,87.3L404.4,87.3 M403.9,86.9l-0.2-0.1 M404.3,87.2l-0.3-0.3 M404.8,142.3
		l-0.2,0.2 M405.3,141.8l-0.3,0.3 M405,142.1l-0.2,0.1 M404.5,87.4l0.2,0.2 M404.8,87.6l0.2,0.1 M405,87.8l0.3,0.3 M405.3,141.8
		l0.2-0.1 M405.5,141.7l0.3-0.3 M406.1,141.2L406.1,141.2 M406,141.3l-0.2,0.1 M405.8,88.5l0.2,0.1 M406,88.7L406,88.7 M405.5,88.2
		l-0.2-0.1 M405.8,88.5l-0.3-0.3 M406.3,141l-0.3,0.2 M406.8,140.5l-0.3,0.3 M406.5,140.8l-0.2,0.1 M406.1,88.7l0.3,0.2 M406.3,89
		l0.2,0.1 M406.5,89.1l0.3,0.3 M406.8,140.5l0.2-0.1 M407,140.4l0.3-0.3 M407.6,139.8L407.6,139.8 M407.5,139.9l-0.2,0.2
		 M407.3,89.8l0.2,0.2 M407.5,90L407.5,90 M407,89.6l-0.2-0.1 M407.3,89.8l-0.3-0.3 M407.9,139.6l-0.3,0.2 M408.3,139.2l-0.3,0.3
		 M408,139.5l-0.1,0.1 M407.6,90.1l0.3,0.2 M407.9,90.3l0.1,0.1 M408,90.4l0.3,0.3 M408.3,139.2l0.2-0.1 M408.5,139l0.3-0.3
		 M409.1,138.5L409.1,138.5 M409,138.6l-0.2,0.1 M408.8,91.2l0.2,0.1 M409,91.3L409,91.3 M408.5,90.9l-0.2-0.1 M408.8,91.2l-0.3-0.3
		 M409.3,138.4l-0.2,0.2 M409.9,138l-0.3,0.2 M409.5,138.2l-0.2,0.2 M409.1,91.4l0.2,0.2 M409.3,91.5l0.2,0.2 M409.5,91.7l0.3,0.2
		 M409.9,138l0.2-0.2 M410.1,137.8l0.5-0.4 M410.6,137.4L410.6,137.4 M410.6,137.4L410.6,137.4 M410.6,92.5L410.6,92.5 M410.6,92.5
		L410.6,92.5 M410.1,92.1l-0.2-0.2 M410.6,92.5l-0.5-0.4 M410.6,137.4L410.6,137.4 M411.4,136.9l-0.2,0.1 M411.2,137.1l-0.5,0.3
		 M410.6,92.5L410.6,92.5 M410.6,92.5l0.5,0.3 M411.2,92.9l0.2,0.1 M411.4,136.9l0.4-0.2 M411.7,136.7L411.7,136.7 M411.8,136.7
		l0.3-0.2 M411.7,93.2l-0.4-0.2 M412.1,93.4l-0.3-0.2 M411.8,93.2L411.8,93.2 M412.1,136.5l0.2-0.1 M412.3,136.5l0.5-0.2
		 M412.8,136.3l0.1,0 M412.3,93.5l-0.2-0.1 M412.9,93.7l-0.1,0 M412.8,93.6l-0.5-0.2 M412.9,136.3L412.9,136.3 M413,136.2l0.6-0.1
		 M413.7,136.1L413.7,136.1 M413.7,136.1l-0.1,0 M413.5,93.8l0.1,0 M413.7,93.8L413.7,93.8 M413,93.7L413,93.7 M413.5,93.8l-0.6-0.1
		 M413.7,136.1L413.7,136.1 M414.4,136L414.4,136 M414.4,136l-0.7,0 M413.7,93.8L413.7,93.8 M413.7,93.8l0.7,0 M414.4,93.9
		L414.4,93.9 M415,136.1l0.2,0 M415.2,136.1L415.2,136.1 M414.5,136L414.5,136 M415,136.1l-0.5-0.1 M414.4,93.9L414.4,93.9
		 M414.5,93.9l0.5-0.1 M415.2,93.8L415.2,93.8 M415.2,93.8l-0.2,0 M415.2,136.2L415.2,136.2 M415.2,136.2l0.6,0.2 M415.8,136.4
		l0.1,0.1 M415.2,93.8L415.2,93.8 M415.9,93.5l-0.1,0.1 M415.8,93.6l-0.6,0.2 M415.9,136.4l0.2,0.1 M416.2,136.5l0.2,0.1
		 M416.4,136.6l0.3,0.2 M416.2,93.4l-0.2,0.1 M416.7,93.1l-0.3,0.2 M416.4,93.3l-0.2,0.1 M417,137l-0.2-0.2 M417.5,137.4
		L417.5,137.4 M417.5,137.4L417,137 M416.7,93.1l0.2-0.2 M417,92.9l0.5-0.4 M417.5,92.5L417.5,92.5 M417.5,137.4l0.5,0.5 M418,137.9
		l0.3,0.3 M417.5,137.4L417.5,137.4 M417.5,137.4L417.5,137.4 M417.5,92.5L417.5,92.5 M417.5,92.5L417.5,92.5 M418.2,91.7L418,92
		 M418,92l-0.5,0.5 M418.7,138.8l0.2,0.2 M418.9,138.9l0.1,0.1 M418.4,138.4l-0.2-0.2 M418.7,138.8l-0.3-0.4 M418.2,91.7l0.2-0.2
		 M418.4,91.5l0.3-0.4 M419,90.8l-0.1,0.1 M418.9,91l-0.2,0.2 M419.7,140.1L419.7,140.1 M419.7,140.1L419.7,140.1 M419.3,139.5
		l-0.3-0.4 M419.7,140.1l-0.4-0.6 M419,90.8l0.3-0.4 M419.3,90.4l0.4-0.6 M419.8,89.8L419.8,89.8 M419.7,89.8L419.7,89.8
		 M419.8,140.1l0.3,0.4 M420,140.5l0.1,0.2 M420.1,140.7l0.4,0.6 M420,89.4l-0.3,0.4 M420.5,88.6l-0.4,0.6 M420.1,89.2l-0.1,0.2
		 M420.6,141.4l0.4,0.6 M420.9,142l0.4,0.6 M420.5,141.4L420.5,141.4 M420.6,141.4L420.6,141.4 M420.5,88.6L420.5,88.6 M420.5,88.6
		L420.5,88.6 M421.3,87.3l-0.4,0.6 M420.9,87.9l-0.4,0.6 M422,144L422,144 M422,144.1L422,144.1 M421.3,142.7l0.4,0.7 M421.7,143.4
		L421.7,143.4 M421.7,143.4l0.3,0.6 M421.3,142.7L421.3,142.7 M421.3,142.7L421.3,142.7 M421.3,87.3L421.3,87.3 M421.3,87.2
		L421.3,87.2 M422,85.9l-0.3,0.6 M421.7,86.5L421.7,86.5 M421.7,86.5l-0.4,0.7 M422,85.8L422,85.8 M422,85.8L422,85.8 M422.6,145.4
		l0.1,0.1 M422.7,145.5l0.1,0.2 M422.4,144.8l-0.3-0.7 M422.6,145.4l-0.3-0.6 M422,85.8l0.3-0.7 M422.4,85.1l0.3-0.6 M422.8,84.2
		l-0.1,0.2 M422.7,84.4l-0.1,0.1 M423.3,146.7l0.1,0.3 M423.4,147l0.2,0.4 M423.1,146.2l-0.3-0.6 M423.3,146.7l-0.2-0.4 M422.8,84.2
		l0.3-0.6 M423.1,83.7l0.2-0.4 M423.6,82.6l-0.2,0.4 M423.4,82.9l-0.1,0.3 M423.8,148l0.2,0.5 M424,148.5l0.3,0.6 M423.7,147.7
		l-0.2-0.4 M423.8,148l-0.1-0.3 M423.6,82.6l0.2-0.4 M423.7,82.2l0.1-0.3 M424.3,80.8l-0.3,0.6 M424,81.4l-0.2,0.5 M424.9,150.6
		l0.1,0.1 M425,150.8l0.1,0.2 M424.7,150l-0.1-0.2 M424.6,149.8l-0.2-0.5 M424.9,150.6l-0.3-0.6 M424.4,149.2l0-0.1 M424.4,149.3
		L424.4,149.3 M424.3,80.8l0-0.1 M424.4,80.7L424.4,80.7 M424.6,80.1l0.1-0.2 M424.7,79.9l0.3-0.6 M424.4,80.6l0.2-0.5 M425.1,78.9
		l-0.1,0.2 M425,79.1l-0.1,0.1 M425.5,152l0.2,0.4 M425.6,152.4l0.2,0.6 M425.3,151.6l-0.2-0.6 M425.5,152l-0.2-0.4 M425.1,78.9
		l0.2-0.6 M425.3,78.3l0.2-0.4 M425.8,77l-0.2,0.6 M425.6,77.6l-0.2,0.4 M426.5,154.6l0,0.1 M426.5,154.7l0.1,0.2 M426,153.3
		l0.2,0.7 M426.2,153.9L426.2,153.9 M426.2,154l0.2,0.6 M425.9,153.1l-0.1-0.2 M426,153.3l-0.1-0.1 M425.8,77l0.1-0.2 M425.9,76.8
		l0.1-0.1 M426.5,75.3l-0.2,0.6 M426.2,75.9L426.2,75.9 M426.2,76l-0.2,0.7 M426.6,75l-0.1,0.2 M426.5,75.2l0,0.1 M427,155.9
		l0.2,0.4 M427.1,156.4l0.2,0.7 M426.8,155.6l-0.2-0.6 M427,155.9l-0.1-0.4 M426.6,75l0.2-0.6 M426.8,74.4L427,74 M427.4,72.9
		l-0.2,0.7 M427.1,73.6L427,74 M427.9,158.6l0.1,0.2 M428,158.8l0.1,0.4 M427.7,158l-0.1-0.4 M427.6,157.6l-0.1-0.3 M427.9,158.6
		l-0.2-0.6 M427.4,157.2l0-0.1 M427.4,157.3L427.4,157.3 M427.4,72.9l0-0.1 M427.4,72.7L427.4,72.7 M427.6,72.3l0.1-0.4 M427.7,71.9
		l0.2-0.6 M427.4,72.7l0.1-0.3 M428.1,70.7l-0.1,0.4 M428,71.1l-0.1,0.2 M428.8,161.2L428.8,161.2 M428.8,161.3l0,0.1 M428.4,159.9
		l0.2,0.6 M428.6,160.5l0.1,0.4 M428.7,160.9l0.1,0.3 M428.3,159.6l-0.1-0.4 M428.4,159.9l-0.1-0.3 M428.1,70.7l0.1-0.4 M428.3,70.3
		l0.1-0.3 M428.8,68.7l-0.1,0.3 M428.7,69l-0.1,0.4 M428.6,69.4l-0.2,0.6 M428.9,68.5l0,0.1 M428.8,68.6L428.8,68.6 M429.3,162.5
		l0.1,0.4 M429.4,163l0.2,0.8 M429.1,162.1l-0.2-0.7 M429.3,162.5l-0.1-0.4 M428.9,68.5l0.2-0.7 M429.1,67.8l0.1-0.4 M429.7,66.2
		l-0.2,0.8 M429.4,66.9l-0.1,0.4 M430.1,165.2l0.1,0.3 M430.2,165.5l0.2,0.6 M430,164.7l-0.2-0.6 M429.8,164l-0.1-0.2 M430.1,165.2
		l-0.2-0.5 M429.7,163.8L429.7,163.8 M429.7,163.9L429.7,163.9 M429.7,66.2L429.7,66.2 M429.7,66.1L429.7,66.1 M429.8,65.9l0.2-0.6
		 M430,65.3l0.2-0.5 M429.7,66l0.1-0.2 M430.4,63.8l-0.2,0.6 M430.2,64.4l-0.1,0.3 M431,167.8l0.1,0.2 M431,168.1l0.1,0.4
		 M430.8,167.2l-0.1-0.2 M430.7,167l-0.2-0.5 M431,167.8l-0.2-0.6 M430.5,166.4l-0.1-0.3 M430.6,166.5l0-0.2 M430.4,63.8l0.1-0.3
		 M430.5,63.6l0-0.2 M430.7,62.9l0.1-0.2 M430.8,62.7l0.2-0.6 M430.6,63.4l0.2-0.5 M431.2,61.4l-0.1,0.4 M431,61.9l-0.1,0.2
		 M431.8,170.5l0,0.2 M431.8,170.6l0.1,0.3 M431.4,169.2l0.2,0.6 M431.6,169.8l0.1,0.2 M431.6,169.9l0.2,0.5 M431.3,168.9l-0.1-0.4
		 M431.4,169.2l-0.1-0.2 M431.2,61.4l0.1-0.4 M431.3,61l0.1-0.2 M431.8,59.4l-0.2,0.5 M431.6,60l-0.1,0.2 M431.6,60.1l-0.2,0.6
		 M431.9,59l-0.1,0.3 M431.8,59.3l0,0.2 M432.6,173.1l0,0.1 M432.6,173.2l0.1,0.2 M432.2,171.8l0.2,0.6 M432.4,172.4l0.1,0.4
		 M432.5,172.8l0.1,0.4 M432.1,171.5l-0.2-0.6 M432.2,171.8l-0.1-0.3 M431.9,59l0.2-0.6 M432.1,58.4l0.1-0.3 M432.6,56.8l-0.1,0.4
		 M432.5,57.1l-0.1,0.4 M432.4,57.6l-0.2,0.6 M432.7,56.5l-0.1,0.2 M432.6,56.7l0,0.1 M433.4,175.8L433.4,175.8 M433.4,175.8l0,0.1
		 M433,174.4l0.2,0.5 M433.2,175l0.2,0.6 M433.3,175.5l0.1,0.2 M432.9,174.1l-0.2-0.7 M433,174.4l-0.1-0.3 M432.7,56.5l0.2-0.7
		 M432.9,55.8l0.1-0.3 M433.4,54.2l-0.1,0.2 M433.3,54.4l-0.2,0.6 M433.2,54.9l-0.2,0.5 M433.5,53.9l0,0.1 M433.4,54.1L433.4,54.1
		 M434.2,178.4L434.2,178.4 M434.2,178.5l0,0.1 M433.8,177.1l0.1,0.5 M433.9,177.6l0.2,0.6 M434.1,178.2l0.1,0.2 M433.7,176.7
		l-0.2-0.7 M433.8,177.1l-0.1-0.4 M433.5,53.9l0.2-0.7 M433.7,53.2l0.1-0.4 M434.2,51.5l-0.1,0.2 M434.1,51.7l-0.2,0.6 M433.9,52.3
		l-0.1,0.5 M434.2,51.3l0,0.1 M434.2,51.4L434.2,51.4 M434.9,181.1L434.9,181.1 M434.9,181.1l0,0.1 M434.5,179.7l0.1,0.5
		 M434.7,180.2l0.2,0.6 M434.9,180.9l0.1,0.2 M434.4,179.3l-0.2-0.8 M434.5,179.7l-0.1-0.4 M434.2,51.3l0.2-0.8 M434.4,50.6l0.1-0.4
		 M434.9,48.9l-0.1,0.2 M434.9,49l-0.2,0.6 M434.7,49.7l-0.1,0.5 M435,48.7l0,0.1 M434.9,48.8L434.9,48.8 M435.3,182.4L435.3,182.4
		 M435.3,182.4L435.3,182.4 M435.3,182.4L435.3,182.4 M435.2,182l-0.2-0.8 M435.3,182.4l-0.1-0.4 M435,48.7l0.2-0.8 M435.2,47.9
		l0.1-0.4"/>
</g>
<text transform="matrix(1 0 0 1 390.041 31.7274)" class="st7 st2">$E$</text>
<g>
	<g>
		<line class="st0" x1="428" y1="190" x2="428" y2="206.8"/>
		<g>
			<path d="M428,209.8c-0.5-1.4-1.4-3.2-2.4-4.3l2.4,0.9l2.4-0.9C429.5,206.7,428.6,208.4,428,209.8z"/>
		</g>
	</g>
</g>
<text transform="matrix(1 0 0 1 362.7223 230.6821)" class="st1 st2">$\spec K$</text>
<circle cx="428" cy="227.5" r="2.7"/>
<g>
	<g>
		<line class="st0" x1="583" y1="190" x2="583" y2="206.8"/>
		<g>
			<path d="M583,209.8c-0.5-1.4-1.4-3.2-2.4-4.3l2.4,0.9l2.4-0.9C584.4,206.7,583.5,208.4,583,209.8z"/>
		</g>
	</g>
</g>
<text transform="matrix(1 0 0 1 523.6603 209.5031)" class="st1 st2">$\spec R$</text>
<circle cx="548" cy="227.5" r="2.7"/>
<circle cx="615.5" cy="227.5" r="2.7"/>
<text transform="matrix(1 0 0 1 539.8787 243.8216)" class="st1 st2">$\eta$</text>
<text transform="matrix(1 0 0 1 606.6906 243.822)" class="st1 st2">$\mathfrak m$</text>
<rect x="523.7" y="218" class="st3" width="125.8" height="35.1"/>
<g>
	<defs>
		<rect id="SVGID_3_" x="535.5" y="47.6" width="51" height="134.8"/>
	</defs>
	<clipPath id="SVGID_4_">
		<use xlink:href="#SVGID_3_"  style="overflow:visible;"/>
	</clipPath>
	<path class="st8" d="M535.7,116.3L535.7,116.3 M535.7,116.3l0,0.6 M535.7,115L535.7,115 M535.7,115l0,1.3 M535.7,116.3L535.7,116.3
		 M535.7,113.6L535.7,113.6 M535.7,113.7l0,1.3 M535.7,114.9L535.7,114.9 M535.7,113l0,0.6 M535.7,113.6L535.7,113.6 M536.4,126.9
		L536.4,126.9 M536.4,126.9l0,0.2 M536.3,125.5l0,0.3 M536.3,125.8l0.1,1 M536.4,126.8L536.4,126.8 M536.1,124.2l0.1,0.5
		 M536.2,124.7l0,0.4 M536.2,125.1l0,0.4 M536.1,123.6L536.1,123.6 M536.1,123.5l-0.1-0.6 M536.1,124.2l-0.1-0.6 M536,122.4l0-0.5
		 M535.9,122l0-0.4 M536,122.9l0-0.5 M535.9,121.2l0-0.8 M535.9,120.5l0-0.2 M535.9,121.6l0-0.3 M535.8,120l0-1 M535.8,119l0-0.1
		 M535.8,120.2l0-0.2 M535.8,118.8l0-1.2 M535.7,117.6L535.7,117.6 M535.8,118.9L535.8,118.9 M535.7,117.6l0-0.7 M535.7,117.6
		L535.7,117.6 M535.7,113l0-0.7 M535.7,112.3L535.7,112.3 M535.7,112.3l0-1.2 M535.8,111.1L535.8,111.1 M535.7,112.3L535.7,112.3
		 M535.8,110.9l0-1 M535.8,109.9l0-0.2 M535.8,111l0-0.1 M535.9,109.4l0-0.8 M535.9,108.7l0-0.3 M535.8,109.7l0-0.2 M535.9,107.9
		l0-0.5 M536,107.5l0-0.5 M535.9,108.3l0-0.4 M536.1,106.4L536.1,106.4 M536.1,106.3l0.1-0.6 M536,107l0.1-0.6 M536.3,104.4l0,0.4
		 M536.2,104.8l0,0.4 M536.2,105.2l-0.1,0.5 M536.4,103.1L536.4,103.1 M536.4,103.1l-0.1,1 M536.3,104.1l0,0.3 M536.5,102.8l0,0.2
		 M536.4,103L536.4,103 M537.1,130.8l0,0.2 M537.1,131l0.1,0.6 M536.8,129.5l0.1,0.5 M536.9,130l0.1,0.4 M537,130.4l0.1,0.4
		 M536.8,129l-0.1-0.5 M536.7,128.5l-0.1-0.4 M536.8,129.5l-0.1-0.5 M536.6,128l-0.1-0.9 M536.6,128.2l0-0.2 M536.5,102.8l0.1-0.9
		 M536.6,101.9l0-0.2 M536.7,101.4l0.1-0.5 M536.8,100.9l0.1-0.5 M536.6,101.7l0.1-0.4 M537.1,99.1l-0.1,0.4 M537,99.5l-0.1,0.4
		 M536.9,99.9l-0.1,0.5 M537.2,98.3l-0.1,0.6 M537.1,98.9l0,0.2 M538,134.8L538,134.8 M538,134.8L538,134.8 M537.6,133.5l0.1,0.4
		 M537.7,133.9l0.2,0.8 M538,134.7L538,134.7 M537.5,133l-0.1-0.5 M537.4,132.4l-0.1-0.3 M537.6,133.5l-0.1-0.5 M537.3,132l-0.1-0.4
		 M537.3,132.1l0-0.1 M537.2,98.3l0.1-0.4 M537.3,97.9l0-0.1 M537.4,97.5l0.1-0.5 M537.5,97l0.1-0.5 M537.3,97.8l0.1-0.3 M538,95.1
		L538,95.1 M538,95.2l-0.2,0.8 M537.7,96l-0.1,0.4 M538,95.1L538,95.1 M538,95.1L538,95.1 M538.4,136.1l0.1,0.5 M538.5,136.6
		l0.3,0.8 M538.2,135.7l-0.2-0.8 M538.4,136.1l-0.1-0.4 M538,95.1l0.2-0.8 M538.2,94.2l0.1-0.4 M538.8,92.6l-0.3,0.8 M538.5,93.4
		l-0.1,0.5 M539.3,138.8l0.1,0.3 M539.4,139l0.1,0.4 M539.1,138.2l-0.2-0.7 M538.8,137.5l0-0.1 M539.3,138.8l-0.2-0.5 M538.8,137.4
		L538.8,137.4 M538.8,137.4L538.8,137.4 M538.8,92.6L538.8,92.6 M538.8,92.5L538.8,92.5 M538.8,92.4l0.2-0.7 M539.1,91.7l0.2-0.5
		 M538.8,92.5l0-0.1 M539.5,90.5l-0.1,0.4 M539.4,90.9l-0.1,0.3 M539.8,140.1l0.2,0.4 M540,140.5l0.2,0.5 M539.7,139.8l-0.2-0.4
		 M539.8,140.1l-0.1-0.3 M539.5,90.5l0.2-0.4 M539.7,90.1l0.1-0.3 M540.3,88.9l-0.2,0.5 M540,89.4l-0.2,0.4 M540.5,141.4l0.3,0.5
		 M540.8,141.9l0.3,0.5 M540.4,141.2l-0.1-0.2 M540.5,141.4l-0.1-0.2 M540.3,88.9l0.1-0.2 M540.4,88.7l0.1-0.2 M541,87.6l-0.3,0.5
		 M540.8,88l-0.3,0.5 M541.3,142.7l0.3,0.4 M541.6,143.1l0.2,0.3 M541.2,142.5l-0.1-0.2 M541.3,142.7l-0.1-0.2 M541,87.6l0.1-0.2
		 M541.2,87.4l0.1-0.2 M541.8,86.5l-0.2,0.3 M541.6,86.8l-0.3,0.4 M542.3,144l0.2,0.2 M542.5,144.2l0.1,0.1 M542,143.7l-0.2-0.2
		 M542.3,144l-0.3-0.3 M541.8,86.5l0.2-0.2 M542,86.2l0.3-0.3 M542.6,85.6l-0.1,0.1 M542.5,85.7l-0.2,0.2 M542.9,144.7l-0.4-0.4
		 M543.3,145.1l-0.3-0.3 M543,144.8L543,144.8 M542.6,85.6l0.4-0.4 M542.9,85.2L542.9,85.2 M543,85.1l0.3-0.3 M543.7,145.4l0.3,0.2
		 M544,145.6l0.1,0.1 M543.4,145.2l-0.1-0.1 M543.7,145.4l-0.3-0.2 M543.3,84.8l0.1-0.1 M543.4,84.8l0.3-0.2 M544.1,84.3l-0.1,0.1
		 M544,84.4l-0.3,0.2 M544.1,145.6l0.2,0.1 M544.3,145.8l0.2,0.1 M544.5,145.9l0.3,0.2 M544.3,84.1l-0.2,0.1 M544.8,83.9l-0.3,0.2
		 M544.5,84l-0.2,0.1 M545.1,146.2l-0.3-0.1 M545.6,146.3l-0.2-0.1 M545.4,146.3l-0.2-0.1 M544.8,83.9l0.3-0.1 M545.1,83.7l0.2-0.1
		 M545.4,83.6l0.2-0.1 M545.8,146.4l-0.2,0 M546.4,146.5l-0.1,0 M546.3,146.5l-0.5-0.1 M545.6,83.6l0.2,0 M545.8,83.5l0.5-0.1
		 M546.3,83.4l0.1,0 M546.5,146.5L546.5,146.5 M547.1,146.6L547.1,146.6 M547.1,146.6l-0.6-0.1 M546.4,83.4L546.4,83.4 M546.5,83.4
		l0.6-0.1 M547.1,83.3L547.1,83.3 M547.2,146.6L547.2,146.6 M547.9,146.6L547.9,146.6 M547.8,146.6l-0.7,0 M547.1,83.3L547.1,83.3
		 M547.2,83.3l0.7,0 M547.8,83.3L547.8,83.3 M548,146.6L548,146.6 M548.7,146.5l-0.1,0 M548.5,146.5l-0.6,0.1 M547.9,83.3
		L547.9,83.3 M548,83.4l0.6,0.1 M548.5,83.4l0.1,0 M548.8,146.4l-0.1,0 M549.4,146.3l-0.2,0.1 M549.2,146.3l-0.4,0.1 M548.7,83.5
		l0.1,0 M548.8,83.5l0.4,0.1 M549.2,83.6l0.2,0.1 M549.7,146.2l-0.3,0.1 M550.2,146l-0.3,0.1 M549.9,146.1l-0.1,0 M549.4,83.7
		l0.3,0.1 M549.7,83.8l0.1,0 M549.9,83.8l0.3,0.1 M550.2,146l0.3-0.1 M550.5,145.9l0.2-0.1 M550.7,145.8l0.2-0.1 M550.5,84.1
		l-0.3-0.1 M550.9,84.3l-0.2-0.1 M550.7,84.2l-0.2-0.1 M550.9,145.6l0.1-0.1 M551.1,145.6l0.4-0.2 M551.7,145.2L551.7,145.2
		 M551.6,145.3l-0.2,0.1 M551.5,84.6l0.2,0.1 M551.6,84.6L551.6,84.6 M551.1,84.3l-0.1-0.1 M551.5,84.6l-0.4-0.2 M551.8,145.2
		l-0.1,0.1 M552.5,144.8l-0.2,0.2 M552.2,144.9l-0.4,0.2 M551.7,84.7l0.1,0.1 M551.8,84.7l0.4,0.2 M552.2,85l0.2,0.2 M552.5,144.8
		l0.3-0.2 M552.8,144.6l0.2-0.2 M553,144.4l0.2-0.2 M552.8,85.3l-0.3-0.2 M553.2,85.6l-0.2-0.2 M553,85.5l-0.2-0.2 M553.2,144.3
		L553.2,144.3 M553.3,144.2l0.2-0.2 M554,143.7l-0.1,0.1 M553.9,143.8l-0.3,0.2 M553.5,85.9l0.3,0.2 M553.9,86.1l0.1,0.1
		 M553.3,85.7L553.3,85.7 M553.5,85.9l-0.2-0.2 M554.3,143.5l-0.3,0.3 M554.7,143.1l-0.4,0.3 M554.4,143.4L554.4,143.4 M554,86.2
		l0.3,0.3 M554.3,86.5L554.3,86.5 M554.4,86.5l0.4,0.3 M554.7,143.1l0.2-0.1 M554.9,143l0.3-0.3 M555.5,142.5L555.5,142.5
		 M555.4,142.6l-0.2,0.2 M555.2,87.2l0.2,0.2 M555.4,87.3L555.4,87.3 M554.9,86.9l-0.2-0.1 M555.2,87.2l-0.3-0.3 M555.8,142.3
		l-0.2,0.2 M556.3,141.8l-0.3,0.3 M555.9,142.1l-0.2,0.1 M555.5,87.4l0.2,0.2 M555.8,87.6l0.2,0.1 M555.9,87.8l0.3,0.3 M556.3,141.8
		l0.2-0.1 M556.4,141.7l0.3-0.3 M557,141.2L557,141.2 M556.9,141.3l-0.2,0.1 M556.8,88.5l0.2,0.1 M556.9,88.7L556.9,88.7
		 M556.4,88.2l-0.2-0.1 M556.8,88.5l-0.3-0.3 M557.3,141l-0.3,0.2 M557.8,140.5l-0.3,0.3 M557.5,140.8l-0.2,0.1 M557,88.7l0.3,0.2
		 M557.3,89l0.2,0.1 M557.5,89.1l0.3,0.3 M557.8,140.5l0.2-0.1 M558,140.4l0.3-0.3 M558.6,139.8L558.6,139.8 M558.5,139.9l-0.2,0.2
		 M558.3,89.8l0.2,0.2 M558.5,90L558.5,90 M558,89.6l-0.2-0.1 M558.3,89.8l-0.3-0.3 M558.8,139.6l-0.3,0.2 M559.3,139.2l-0.3,0.3
		 M559,139.5l-0.1,0.1 M558.6,90.1l0.3,0.2 M558.8,90.3l0.1,0.1 M559,90.4l0.3,0.3 M559.3,139.2l0.2-0.1 M559.5,139l0.3-0.3
		 M560.1,138.5L560.1,138.5 M560,138.6l-0.2,0.1 M559.8,91.2l0.2,0.1 M560,91.3L560,91.3 M559.5,90.9l-0.2-0.1 M559.8,91.2l-0.3-0.3
		 M560.3,138.4l-0.2,0.2 M560.8,138l-0.3,0.2 M560.5,138.2l-0.2,0.2 M560.1,91.4l0.2,0.2 M560.3,91.5l0.2,0.2 M560.5,91.7l0.3,0.2
		 M560.8,138l0.2-0.2 M561,137.8l0.5-0.4 M561.6,137.4L561.6,137.4 M561.6,137.4L561.6,137.4 M561.6,92.5L561.6,92.5 M561.6,92.5
		L561.6,92.5 M561,92.1l-0.2-0.2 M561.6,92.5l-0.5-0.4 M561.6,137.4L561.6,137.4 M562.4,136.9l-0.2,0.1 M562.1,137.1l-0.5,0.3
		 M561.6,92.5L561.6,92.5 M561.6,92.5l0.5,0.3 M562.1,92.9l0.2,0.1 M562.4,136.9l0.4-0.2 M562.7,136.7L562.7,136.7 M562.8,136.7
		l0.3-0.2 M562.7,93.2l-0.4-0.2 M563.1,93.4l-0.3-0.2 M562.8,93.2L562.8,93.2 M563.1,136.5l0.2-0.1 M563.3,136.5l0.5-0.2
		 M563.8,136.3l0.1,0 M563.3,93.5l-0.2-0.1 M563.9,93.7l-0.1,0 M563.8,93.6l-0.5-0.2 M563.9,136.3L563.9,136.3 M564,136.2l0.6-0.1
		 M564.6,136.1L564.6,136.1 M564.6,136.1l-0.1,0 M564.5,93.8l0.1,0 M564.6,93.8L564.6,93.8 M564,93.7L564,93.7 M564.5,93.8l-0.6-0.1
		 M564.7,136.1L564.7,136.1 M565.4,136L565.4,136 M565.4,136l-0.7,0 M564.6,93.8L564.6,93.8 M564.7,93.8l0.7,0 M565.4,93.9
		L565.4,93.9 M565.9,136.1l0.2,0 M566.1,136.1L566.1,136.1 M565.4,136L565.4,136 M565.9,136.1l-0.5-0.1 M565.4,93.9L565.4,93.9
		 M565.4,93.9l0.5-0.1 M566.2,93.8L566.2,93.8 M566.1,93.8l-0.2,0 M566.2,136.2L566.2,136.2 M566.2,136.2l0.6,0.2 M566.8,136.4
		l0.1,0.1 M566.2,93.8L566.2,93.8 M566.9,93.5l-0.1,0.1 M566.8,93.6l-0.6,0.2 M566.9,136.4l0.2,0.1 M567.2,136.5l0.2,0.1
		 M567.4,136.6l0.3,0.2 M567.2,93.4l-0.2,0.1 M567.7,93.1l-0.3,0.2 M567.4,93.3l-0.2,0.1 M567.9,137l-0.2-0.2 M568.4,137.4
		L568.4,137.4 M568.4,137.4l-0.5-0.4 M567.7,93.1l0.2-0.2 M567.9,92.9l0.5-0.4 M568.4,92.5L568.4,92.5 M568.5,137.4l0.5,0.5
		 M568.9,137.9l0.3,0.3 M568.5,137.4L568.5,137.4 M568.5,137.4L568.5,137.4 M568.4,92.5L568.4,92.5 M568.5,92.5L568.5,92.5
		 M569.2,91.7l-0.3,0.3 M568.9,92l-0.5,0.5 M569.7,138.8l0.2,0.2 M569.9,138.9l0.1,0.1 M569.4,138.4l-0.2-0.2 M569.7,138.8l-0.3-0.4
		 M569.2,91.7l0.2-0.2 M569.4,91.5l0.3-0.4 M570,90.8l-0.1,0.1 M569.9,91l-0.2,0.2 M570.7,140.1L570.7,140.1 M570.7,140.1
		L570.7,140.1 M570.3,139.5l-0.3-0.4 M570.7,140.1l-0.4-0.6 M570,90.8l0.3-0.4 M570.3,90.4l0.4-0.6 M570.7,89.8L570.7,89.8
		 M570.7,89.8L570.7,89.8 M570.7,140.1l0.3,0.4 M571,140.5l0.1,0.2 M571.1,140.7l0.4,0.6 M571,89.4l-0.3,0.4 M571.5,88.6l-0.4,0.6
		 M571.1,89.2l-0.1,0.2 M571.5,141.4l0.4,0.6 M571.9,142l0.4,0.6 M571.5,141.4L571.5,141.4 M571.5,141.4L571.5,141.4 M571.5,88.6
		L571.5,88.6 M571.5,88.6L571.5,88.6 M572.3,87.3l-0.4,0.6 M571.9,87.9l-0.4,0.6 M573,144L573,144 M573,144.1L573,144.1
		 M572.3,142.7l0.4,0.7 M572.6,143.4L572.6,143.4 M572.7,143.4l0.3,0.6 M572.3,142.7L572.3,142.7 M572.3,142.7L572.3,142.7
		 M572.3,87.3L572.3,87.3 M572.3,87.2L572.3,87.2 M573,85.9l-0.3,0.6 M572.7,86.5L572.7,86.5 M572.6,86.5l-0.4,0.7 M573,85.8
		L573,85.8 M573,85.8L573,85.8 M573.6,145.4l0.1,0.1 M573.7,145.5l0.1,0.2 M573.3,144.8l-0.3-0.7 M573.6,145.4l-0.3-0.6 M573,85.8
		l0.3-0.7 M573.3,85.1l0.3-0.6 M573.8,84.2l-0.1,0.2 M573.7,84.4l-0.1,0.1 M574.2,146.7l0.1,0.3 M574.4,147l0.2,0.4 M574,146.2
		l-0.3-0.6 M574.2,146.7l-0.2-0.4 M573.8,84.2l0.3-0.6 M574,83.7l0.2-0.4 M574.5,82.6l-0.2,0.4 M574.4,82.9l-0.1,0.3 M574.8,148
		l0.2,0.5 M575,148.5l0.3,0.6 M574.7,147.7l-0.2-0.4 M574.8,148l-0.1-0.3 M574.5,82.6l0.2-0.4 M574.7,82.2l0.1-0.3 M575.3,80.8
		l-0.3,0.6 M575,81.4l-0.2,0.5 M575.9,150.6l0.1,0.1 M576,150.8l0.1,0.2 M575.7,150l-0.1-0.2 M575.6,149.8l-0.2-0.5 M575.9,150.6
		l-0.3-0.6 M575.3,149.2l0-0.1 M575.4,149.3L575.4,149.3 M575.3,80.8l0-0.1 M575.3,80.7L575.3,80.7 M575.6,80.1l0.1-0.2 M575.7,79.9
		l0.3-0.6 M575.4,80.6l0.2-0.5 M576.1,78.9l-0.1,0.2 M576,79.1l-0.1,0.1 M576.4,152l0.2,0.4 M576.6,152.4l0.2,0.6 M576.3,151.6
		l-0.2-0.6 M576.4,152l-0.2-0.4 M576.1,78.9l0.2-0.6 M576.3,78.3l0.2-0.4 M576.8,77l-0.2,0.6 M576.6,77.6l-0.2,0.4 M577.5,154.6
		l0,0.1 M577.5,154.7l0.1,0.2 M577,153.3l0.2,0.7 M577.2,153.9L577.2,153.9 M577.2,154l0.2,0.6 M576.9,153.1l-0.1-0.2 M577,153.3
		l-0.1-0.1 M576.8,77l0.1-0.2 M576.9,76.8l0.1-0.1 M577.5,75.3l-0.2,0.6 M577.2,75.9L577.2,75.9 M577.2,76l-0.2,0.7 M577.6,75
		l-0.1,0.2 M577.5,75.2l0,0.1 M577.9,155.9l0.2,0.4 M578.1,156.4l0.2,0.7 M577.8,155.6l-0.2-0.6 M577.9,155.9l-0.1-0.4 M577.6,75
		l0.2-0.6 M577.8,74.4l0.1-0.4 M578.3,72.9l-0.2,0.7 M578.1,73.6l-0.2,0.4 M578.9,158.6l0.1,0.2 M579,158.8l0.1,0.4 M578.7,158
		l-0.1-0.4 M578.5,157.6l-0.1-0.3 M578.9,158.6l-0.2-0.6 M578.4,157.2l0-0.1 M578.4,157.3L578.4,157.3 M578.3,72.9l0-0.1
		 M578.4,72.7L578.4,72.7 M578.5,72.3l0.1-0.4 M578.7,71.9l0.2-0.6 M578.4,72.7l0.1-0.3 M579.1,70.7l-0.1,0.4 M579,71.1l-0.1,0.2
		 M579.8,161.2L579.8,161.2 M579.8,161.3l0,0.1 M579.3,159.9l0.2,0.6 M579.5,160.5l0.1,0.4 M579.7,160.9l0.1,0.3 M579.3,159.6
		l-0.1-0.4 M579.3,159.9l-0.1-0.3 M579.1,70.7l0.1-0.4 M579.3,70.3l0.1-0.3 M579.8,68.7l-0.1,0.3 M579.7,69l-0.1,0.4 M579.5,69.4
		l-0.2,0.6 M579.9,68.5l0,0.1 M579.8,68.6L579.8,68.6 M580.2,162.5l0.1,0.4 M580.4,163l0.2,0.8 M580.1,162.1l-0.2-0.7 M580.2,162.5
		l-0.1-0.4 M579.9,68.5l0.2-0.7 M580.1,67.8l0.1-0.4 M580.6,66.2l-0.2,0.8 M580.4,66.9l-0.1,0.4 M581.1,165.2l0.1,0.3 M581.2,165.5
		l0.2,0.6 M580.9,164.7l-0.2-0.6 M580.7,164l-0.1-0.2 M581.1,165.2l-0.2-0.5 M580.7,163.8L580.7,163.8 M580.7,163.9L580.7,163.9
		 M580.6,66.2L580.6,66.2 M580.7,66.1L580.7,66.1 M580.7,65.9l0.2-0.6 M580.9,65.3l0.2-0.5 M580.7,66l0.1-0.2 M581.4,63.8l-0.2,0.6
		 M581.2,64.4l-0.1,0.3 M581.9,167.8l0.1,0.2 M582,168.1l0.1,0.4 M581.7,167.2l-0.1-0.2 M581.7,167l-0.2-0.5 M581.9,167.8l-0.2-0.6
		 M581.5,166.4l-0.1-0.3 M581.5,166.5l0-0.2 M581.4,63.8l0.1-0.3 M581.5,63.6l0-0.2 M581.7,62.9l0.1-0.2 M581.7,62.7l0.2-0.6
		 M581.5,63.4l0.2-0.5 M582.2,61.4l-0.1,0.4 M582,61.9l-0.1,0.2 M582.8,170.5l0,0.2 M582.8,170.6l0.1,0.3 M582.4,169.2l0.2,0.6
		 M582.6,169.8l0.1,0.2 M582.6,169.9l0.2,0.5 M582.3,168.9l-0.1-0.4 M582.4,169.2l-0.1-0.2 M582.2,61.4l0.1-0.4 M582.3,61l0.1-0.2
		 M582.8,59.4l-0.2,0.5 M582.6,60l-0.1,0.2 M582.6,60.1l-0.2,0.6 M582.9,59l-0.1,0.3 M582.8,59.3l0,0.2 M583.6,173.1l0,0.1
		 M583.6,173.2l0.1,0.2 M583.2,171.8l0.2,0.6 M583.3,172.4l0.1,0.4 M583.5,172.8l0.1,0.4 M583.1,171.5l-0.2-0.6 M583.2,171.8
		l-0.1-0.3 M582.9,59l0.2-0.6 M583.1,58.4l0.1-0.3 M583.6,56.8l-0.1,0.4 M583.5,57.1l-0.1,0.4 M583.3,57.6l-0.2,0.6 M583.7,56.5
		l-0.1,0.2 M583.6,56.7l0,0.1 M584.4,175.8L584.4,175.8 M584.4,175.8l0,0.1 M584,174.4l0.2,0.5 M584.1,175l0.2,0.6 M584.3,175.5
		l0.1,0.2 M583.9,174.1l-0.2-0.7 M584,174.4l-0.1-0.3 M583.7,56.5l0.2-0.7 M583.9,55.8l0.1-0.3 M584.4,54.2l-0.1,0.2 M584.3,54.4
		l-0.2,0.6 M584.1,54.9l-0.2,0.5 M584.4,53.9l0,0.1 M584.4,54.1L584.4,54.1 M585.1,178.4L585.1,178.4 M585.2,178.5l0,0.1
		 M584.8,177.1l0.1,0.5 M584.9,177.6l0.2,0.6 M585.1,178.2l0.1,0.2 M584.6,176.7l-0.2-0.7 M584.8,177.1l-0.1-0.4 M584.4,53.9
		l0.2-0.7 M584.6,53.2l0.1-0.4 M585.1,51.5l-0.1,0.2 M585.1,51.7l-0.2,0.6 M584.9,52.3l-0.1,0.5 M585.2,51.3l0,0.1 M585.2,51.4
		L585.2,51.4 M585.9,181.1L585.9,181.1 M585.9,181.1l0,0.1 M585.5,179.7l0.1,0.5 M585.7,180.2l0.2,0.6 M585.9,180.9l0.1,0.2
		 M585.4,179.3l-0.2-0.8 M585.5,179.7l-0.1-0.4 M585.2,51.3l0.2-0.8 M585.4,50.6l0.1-0.4 M585.9,48.9l-0.1,0.2 M585.9,49l-0.2,0.6
		 M585.7,49.7l-0.1,0.5 M586,48.7l0,0.1 M585.9,48.8L585.9,48.8 M586.3,182.4L586.3,182.4 M586.3,182.4L586.3,182.4 M586.3,182.4
		L586.3,182.4 M586.2,182l-0.2-0.8 M586.3,182.4l-0.1-0.4 M586,48.7l0.2-0.8 M586.2,47.9l0.1-0.4"/>
</g>
<rect x="522.5" y="39.4" class="st3" width="125.8" height="146"/>
<text transform="matrix(1 0 0 1 522.4568 31.7276)" class="st7 st2">$\mathscr E$</text>
<text transform="matrix(1 0 0 1 545.2602 64.5152)" class="st7 st2">$\mathscr E_\eta$</text>
<text transform="matrix(1 0 0 1 609.7225 64.5152)" class="st7 st2">$\mathscr E_s$</text>
<path class="st9" d="M638,182.4l-0.7-3.1l-0.7-3l-0.7-3l-0.7-2.9l-0.7-2.8l-0.7-2.8l-0.7-2.7l-0.7-2.7l-0.7-2.6l-0.7-2.6l-0.6-2.5
	l-0.6-2.4l-0.6-2.4l-0.6-2.3l-0.6-2.3l-0.6-2.2l-0.6-2.2l-0.6-2.1l-1.2-4.1l-1.2-3.9l-1.2-3.7l-1.1-3.5l-1.1-3.3l-1.1-3.1l-1.1-2.9
	l-1-2.7l-1-2.6l-1-2.4l-1-2.2l-1-2.1l-0.9-1.9l-0.9-1.7l-0.9-1.6l-0.9-1.4l-0.8-1.3l-0.8-1.1l-0.8-1l-0.8-0.9l-0.8-0.7l-0.7-0.6
	l-0.7-0.5l-0.7-0.3l-0.7-0.2l-0.6-0.1l-0.6,0l-0.6,0.1l-0.6,0.2l-0.6,0.3l-0.5,0.4l-0.5,0.5l-0.5,0.6l-0.5,0.7l-0.5,0.7l-0.4,0.8
	l-0.4,0.9l-0.4,1l-0.4,1l-0.3,1.1l-0.3,1.1l-0.3,1.2l-0.3,1.2l-0.3,1.3l-0.2,1.3l-0.2,1.4l-0.2,1.4l-0.2,1.4l-0.1,1.4l-0.1,1.5
	l-0.1,1.5l-0.1,1.5l-0.1,1.5l0,1.5l0,1.5l0,1.5l0,1.5l0.1,1.5l0.1,1.5l0.1,1.5l0.1,1.5l0.1,1.4l0.2,1.4l0.2,1.4l0.2,1.4l0.2,1.3
	l0.3,1.3l0.3,1.2l0.3,1.2l0.3,1.1l0.3,1.1l0.4,1l0.4,0.9l0.4,0.9l0.4,0.8l0.5,0.7l0.5,0.6l0.5,0.6l0.5,0.5l0.5,0.4l0.6,0.3l0.6,0.2
	l0.6,0.1l0.6,0l0.6-0.1l0.7-0.2l0.7-0.3l0.7-0.5l0.7-0.6l0.8-0.7l0.8-0.9l0.8-1l0.8-1.1l0.8-1.3l0.9-1.4l0.9-1.6l0.9-1.7l0.9-1.9
	l1-2l1-2.2l1-2.4l1-2.6l1-2.7l1.1-2.9l1.1-3.1l1.1-3.3l1.1-3.5l1.2-3.7l1.2-3.9l1.2-4.1l0.6-2.1l0.6-2.2l0.6-2.2l0.6-2.3l0.6-2.3
	l0.6-2.4l0.6-2.4l0.6-2.5l0.7-2.6l0.7-2.6l0.7-2.7l0.7-2.7l0.7-2.8l0.7-2.8l0.7-2.9l0.7-3l0.7-3l0.7-3.1"/>
</svg>
