<?xml version="1.0" encoding="utf-8"?>
<!-- Generator: Adobe Illustrator 23.0.3, SVG Export Plug-In . SVG Version: 6.00 Build 0)  -->
<svg version="1.1"
	 id="svg8" inkscape:version="0.92.4 (unknown)" sodipodi:docname="figure.svg" xmlns:cc="http://creativecommons.org/ns#" xmlns:dc="http://purl.org/dc/elements/1.1/" xmlns:inkscape="http://www.inkscape.org/namespaces/inkscape" xmlns:rdf="http://www.w3.org/1999/02/22-rdf-syntax-ns#" xmlns:sodipodi="http://sodipodi.sourceforge.net/DTD/sodipodi-0.dtd" xmlns:svg="http://www.w3.org/2000/svg"
	 xmlns="http://www.w3.org/2000/svg" xmlns:xlink="http://www.w3.org/1999/xlink" x="0px" y="0px" viewBox="0 0 680.3 256.8"
	 style="enable-background:new 0 0 680.3 256.8;" xml:space="preserve">
<style type="text/css">
	.st0{fill:none;stroke:#020203;stroke-width:0.5;stroke-miterlimit:10;}
	.st1{fill:#020203;}
	.st2{font-family:'ArialMT';}
	.st3{font-size:12px;}
	.st4{fill:none;stroke:#727070;stroke-width:2;stroke-linecap:round;stroke-linejoin:round;stroke-miterlimit:10;}
	.st5{clip-path:url(#SVGID_2_);fill:none;stroke:#020203;stroke-width:0.5;stroke-miterlimit:10;}
	.st6{font-family:'MyriadPro-Regular';}
	.st7{fill:none;stroke:#263686;stroke-miterlimit:10;}
	.st8{clip-path:url(#SVGID_4_);fill:none;stroke:#020203;stroke-width:0.5;stroke-miterlimit:10;}
	.st9{fill:none;stroke:#891812;stroke-miterlimit:10;}
	.st10{fill:#891812;}
</style>
<sodipodi:namedview  bordercolor="#666666" borderopacity="1.0" id="base" inkscape:current-layer="layer1" inkscape:cx="284.27627" inkscape:cy="182.72055" inkscape:document-units="mm" inkscape:guide-bbox="true" inkscape:pageopacity="0.0" inkscape:pageshadow="2" inkscape:window-height="995" inkscape:window-maximized="1" inkscape:window-width="2520" inkscape:window-x="20" inkscape:window-y="65" inkscape:zoom="0.99437388" pagecolor="#ffffff" showborder="true" showgrid="false" showguides="true" width="200mm">
	<inkscape:grid  dotted="false" empspacing="4" id="grid815" spacingx="10" spacingy="10" type="xygrid" units="mm">
		</inkscape:grid>
</sodipodi:namedview>
<g id="layer1" transform="translate(0,-177)" inkscape:groupmode="layer" inkscape:label="Layer 1">
</g>
<g>
	<g>
		<line class="st0" x1="470.6" y1="179.3" x2="470.6" y2="196.1"/>
		<g>
			<path class="st1" d="M470.6,199.1c-0.5-1.4-1.4-3.2-2.4-4.3l2.4,0.9l2.4-0.9C472,196,471.1,197.7,470.6,199.1z"/>
		</g>
	</g>
</g>
<text transform="matrix(1 0 0 1 403.7334 198.8687)" class="st1 st2 st3">$\spec R$</text>
<circle class="st1" cx="428" cy="216.8" r="2.7"/>
<circle class="st1" cx="495.5" cy="216.8" r="2.7"/>
<text transform="matrix(1 0 0 1 419.9519 233.1872)" class="st1 st2 st3">$\eta$</text>
<text transform="matrix(1 0 0 1 486.7638 233.1876)" class="st1 st2 st3">$\mathfrak m$</text>
<rect x="403.7" y="207.3" class="st4" width="125.8" height="35.1"/>
<g>
	<defs>
		<rect id="SVGID_3_" x="415.5" y="36.9" width="51" height="134.8"/>
	</defs>
	<clipPath id="SVGID_2_">
		<use xlink:href="#SVGID_3_"  style="overflow:visible;"/>
	</clipPath>
	<path class="st5" d="M415.8,105.6L415.8,105.6 M415.8,105.7l0,0.6 M415.8,104.3L415.8,104.3 M415.8,104.4l0,1.3 M415.8,105.6
		L415.8,105.6 M415.8,103L415.8,103 M415.8,103l0,1.3 M415.8,104.3L415.8,104.3 M415.8,102.4l0,0.6 M415.8,103L415.8,103
		 M416.5,116.2L416.5,116.2 M416.5,116.3l0,0.2 M416.4,114.9l0,0.3 M416.4,115.2l0.1,1 M416.5,116.1L416.5,116.1 M416.2,113.6
		l0.1,0.5 M416.3,114.1l0,0.4 M416.3,114.5l0,0.4 M416.2,112.9L416.2,112.9 M416.1,112.9l-0.1-0.6 M416.2,113.6l-0.1-0.6
		 M416.1,111.8l0-0.5 M416,111.3l0-0.4 M416.1,112.3l0-0.5 M416,110.6l0-0.8 M415.9,109.8l0-0.2 M416,110.9l0-0.3 M415.9,109.4l0-1
		 M415.9,108.4l0-0.1 M415.9,109.6l0-0.2 M415.8,108.2l0-1.2 M415.8,107L415.8,107 M415.8,108.3L415.8,108.3 M415.8,106.9l0-0.7
		 M415.8,107L415.8,107 M415.8,102.4l0-0.7 M415.8,101.7L415.8,101.7 M415.8,101.6l0-1.2 M415.8,100.5L415.8,100.5 M415.8,101.7
		L415.8,101.7 M415.9,100.2l0-1 M415.9,99.2l0-0.2 M415.8,100.4l0-0.1 M415.9,98.8l0-0.8 M416,98l0-0.3 M415.9,99l0-0.2 M416,97.3
		l0-0.5 M416.1,96.9l0-0.5 M416,97.7l0-0.4 M416.1,95.8L416.1,95.8 M416.2,95.7l0.1-0.6 M416.1,96.4l0.1-0.6 M416.4,93.7l0,0.4
		 M416.3,94.2l0,0.4 M416.3,94.6l-0.1,0.5 M416.5,92.4L416.5,92.4 M416.5,92.5l-0.1,1 M416.4,93.5l0,0.3 M416.5,92.2l0,0.2
		 M416.5,92.4L416.5,92.4 M417.1,120.2l0,0.2 M417.2,120.4l0.1,0.6 M416.9,118.9l0.1,0.5 M417,119.4l0.1,0.4 M417.1,119.8l0.1,0.4
		 M416.8,118.4l-0.1-0.5 M416.8,117.9l-0.1-0.4 M416.9,118.9l-0.1-0.5 M416.7,117.3l-0.1-0.9 M416.7,117.5l0-0.2 M416.5,92.2
		l0.1-0.9 M416.7,91.3l0-0.2 M416.8,90.7l0.1-0.5 M416.8,90.3l0.1-0.5 M416.7,91.1l0.1-0.4 M417.1,88.5l-0.1,0.4 M417.1,88.9
		l-0.1,0.4 M417,89.3l-0.1,0.5 M417.3,87.6l-0.1,0.6 M417.2,88.3l0,0.2 M418.1,124.2L418.1,124.2 M418.1,124.2L418.1,124.2
		 M417.7,122.8l0.1,0.4 M417.8,123.3l0.2,0.8 M418,124.1L418,124.1 M417.6,122.3l-0.1-0.5 M417.5,121.8l-0.1-0.3 M417.7,122.8
		l-0.1-0.5 M417.4,121.4l-0.1-0.4 M417.4,121.5l0-0.1 M417.3,87.6l0.1-0.4 M417.4,87.3l0-0.1 M417.5,86.8l0.1-0.5 M417.6,86.3
		l0.1-0.5 M417.4,87.1l0.1-0.3 M418.1,84.5L418.1,84.5 M418,84.6l-0.2,0.8 M417.8,85.4l-0.1,0.4 M418.1,84.4L418.1,84.4 M418.1,84.5
		L418.1,84.5 M418.4,125.5l0.1,0.5 M418.6,125.9l0.3,0.8 M418.3,125.1l-0.2-0.8 M418.4,125.5l-0.1-0.4 M418.1,84.4l0.2-0.8
		 M418.3,83.6l0.1-0.4 M418.8,81.9l-0.3,0.8 M418.6,82.7l-0.1,0.5 M419.3,128.1l0.1,0.3 M419.4,128.4l0.1,0.4 M419.1,127.6l-0.2-0.7
		 M418.9,126.9l0-0.1 M419.3,128.1l-0.2-0.5 M418.8,126.8L418.8,126.8 M418.9,126.8L418.9,126.8 M418.8,81.9L418.8,81.9 M418.8,81.9
		L418.8,81.9 M418.9,81.8l0.2-0.7 M419.1,81.1l0.2-0.5 M418.9,81.9l0-0.1 M419.6,79.9l-0.1,0.4 M419.4,80.3l-0.1,0.3 M419.9,129.4
		l0.2,0.4 M420.1,129.9l0.2,0.5 M419.8,129.1l-0.2-0.4 M419.9,129.4l-0.1-0.3 M419.6,79.9l0.2-0.4 M419.8,79.5l0.1-0.3 M420.4,78.3
		l-0.2,0.5 M420.1,78.8l-0.2,0.4 M420.6,130.8l0.3,0.5 M420.8,131.2l0.3,0.5 M420.5,130.6l-0.1-0.2 M420.6,130.8l-0.1-0.2
		 M420.4,78.3l0.1-0.2 M420.5,78.1l0.1-0.2 M421.1,76.9l-0.3,0.5 M420.8,77.4l-0.3,0.5 M421.4,132.1l0.3,0.4 M421.6,132.5l0.2,0.3
		 M421.2,131.9l-0.1-0.2 M421.4,132.1l-0.1-0.2 M421.1,76.9l0.1-0.2 M421.2,76.8l0.1-0.2 M421.9,75.8l-0.2,0.3 M421.6,76.1l-0.3,0.4
		 M422.4,133.4l0.2,0.2 M422.5,133.6l0.1,0.1 M422.1,133.1l-0.2-0.2 M422.4,133.4l-0.3-0.3 M421.9,75.8l0.2-0.2 M422.1,75.6l0.3-0.3
		 M422.6,74.9l-0.1,0.1 M422.5,75l-0.2,0.2 M423,134.1l-0.4-0.4 M423.4,134.4l-0.3-0.3 M423.1,134.1L423.1,134.1 M422.6,74.9
		l0.4-0.4 M423,74.6L423,74.6 M423.1,74.5l0.3-0.3 M423.8,134.7l0.3,0.2 M424,134.9l0.1,0.1 M423.5,134.5l-0.1-0.1 M423.8,134.7
		l-0.3-0.2 M423.4,74.2l0.1-0.1 M423.5,74.1l0.3-0.2 M424.2,73.6l-0.1,0.1 M424,73.7l-0.3,0.2 M424.2,135l0.2,0.1 M424.4,135.2
		l0.2,0.1 M424.6,135.3l0.3,0.2 M424.4,73.5l-0.2,0.1 M424.9,73.2l-0.3,0.2 M424.6,73.4l-0.2,0.1 M425.2,135.5l-0.3-0.1
		 M425.7,135.7l-0.2-0.1 M425.4,135.6l-0.2-0.1 M424.9,73.2l0.3-0.1 M425.2,73.1l0.2-0.1 M425.4,73l0.2-0.1 M425.8,135.8l-0.2,0
		 M426.4,135.9l-0.1,0 M426.3,135.9l-0.5-0.1 M425.7,72.9l0.2,0 M425.8,72.9l0.5-0.1 M426.3,72.8l0.1,0 M426.5,135.9L426.5,135.9
		 M427.2,136L427.2,136 M427.2,136l-0.6-0.1 M426.4,72.8L426.4,72.8 M426.5,72.7l0.6-0.1 M427.2,72.7L427.2,72.7 M427.3,136
		L427.3,136 M428,135.9L428,135.9 M427.9,135.9l-0.7,0 M427.2,72.7L427.2,72.7 M427.3,72.7l0.7,0 M427.9,72.7L427.9,72.7 M428,135.9
		L428,135.9 M428.7,135.8l-0.1,0 M428.6,135.8l-0.6,0.1 M428,72.7L428,72.7 M428,72.7l0.6,0.1 M428.6,72.8l0.1,0 M428.9,135.8
		l-0.1,0 M429.5,135.6l-0.2,0.1 M429.3,135.7l-0.4,0.1 M428.7,72.8l0.1,0 M428.9,72.9l0.4,0.1 M429.3,73l0.2,0.1 M429.8,135.5
		l-0.3,0.1 M430.3,135.4l-0.3,0.1 M429.9,135.5l-0.1,0 M429.5,73l0.3,0.1 M429.8,73.1l0.1,0 M429.9,73.2l0.3,0.1 M430.3,135.4
		l0.3-0.1 M430.5,135.2l0.2-0.1 M430.8,135.1l0.2-0.1 M430.5,73.4l-0.3-0.1 M431,73.6l-0.2-0.1 M430.8,73.5l-0.2-0.1 M431,135
		l0.1-0.1 M431.1,134.9l0.4-0.2 M431.8,134.6L431.8,134.6 M431.7,134.6l-0.2,0.1 M431.6,73.9l0.2,0.1 M431.7,74L431.7,74
		 M431.1,73.7l-0.1-0.1 M431.6,73.9l-0.4-0.2 M431.9,134.5l-0.1,0.1 M432.5,134.1l-0.2,0.2 M432.3,134.3l-0.4,0.2 M431.8,74l0.1,0.1
		 M431.9,74.1l0.4,0.2 M432.3,74.3l0.2,0.2 M432.5,134.1l0.3-0.2 M432.8,133.9l0.2-0.2 M433.1,133.8l0.2-0.2 M432.8,74.7l-0.3-0.2
		 M433.3,75l-0.2-0.2 M433.1,74.9l-0.2-0.2 M433.3,133.6L433.3,133.6 M433.4,133.6l0.2-0.2 M434.1,133.1l-0.1,0.1 M433.9,133.2
		l-0.3,0.2 M433.6,75.2l0.3,0.2 M433.9,75.5l0.1,0.1 M433.4,75.1L433.4,75.1 M433.6,75.2l-0.2-0.2 M434.4,132.8l-0.3,0.3
		 M434.8,132.5l-0.4,0.3 M434.5,132.8L434.5,132.8 M434.1,75.6l0.3,0.3 M434.4,75.8L434.4,75.8 M434.5,75.9l0.4,0.3 M434.8,132.5
		l0.2-0.1 M435,132.4l0.3-0.3 M435.6,131.9L435.6,131.9 M435.5,131.9l-0.2,0.2 M435.3,76.6l0.2,0.2 M435.5,76.7L435.5,76.7
		 M435,76.3l-0.2-0.1 M435.3,76.6l-0.3-0.3 M435.8,131.6l-0.2,0.2 M436.3,131.2l-0.3,0.3 M436,131.5l-0.2,0.1 M435.6,76.8l0.2,0.2
		 M435.8,77l0.2,0.1 M436,77.1l0.3,0.3 M436.3,131.2l0.2-0.1 M436.5,131.1l0.3-0.3 M437.1,130.5L437.1,130.5 M437,130.6l-0.2,0.1
		 M436.9,77.9L437,78 M437,78L437,78 M436.5,77.6l-0.2-0.1 M436.9,77.9l-0.3-0.3 M437.4,130.3l-0.3,0.2 M437.9,129.9l-0.3,0.3
		 M437.5,130.2l-0.2,0.1 M437.1,78.1l0.3,0.2 M437.4,78.3l0.2,0.1 M437.5,78.5l0.3,0.3 M437.9,129.9l0.2-0.1 M438,129.7l0.3-0.3
		 M438.6,129.2L438.6,129.2 M438.5,129.3l-0.2,0.2 M438.4,79.2l0.2,0.2 M438.5,79.4L438.5,79.4 M438,78.9l-0.2-0.1 M438.4,79.2
		l-0.3-0.3 M438.9,129l-0.3,0.2 M439.4,128.5l-0.3,0.3 M439,128.8l-0.1,0.1 M438.6,79.4l0.3,0.2 M438.9,79.7l0.1,0.1 M439,79.8
		l0.3,0.3 M439.4,128.5l0.2-0.1 M439.6,128.4l0.3-0.3 M440.1,127.9L440.1,127.9 M440.1,128l-0.2,0.1 M439.9,80.5l0.2,0.1
		 M440.1,80.7L440.1,80.7 M439.6,80.2l-0.2-0.1 M439.9,80.5l-0.3-0.3 M440.4,127.7l-0.2,0.2 M440.9,127.3l-0.3,0.2 M440.6,127.6
		l-0.2,0.2 M440.1,80.7l0.2,0.2 M440.4,80.9l0.2,0.2 M440.6,81.1l0.3,0.2 M440.9,127.3l0.2-0.2 M441.1,127.2l0.5-0.4 M441.7,126.8
		L441.7,126.8 M441.7,126.8L441.7,126.8 M441.6,81.9L441.6,81.9 M441.7,81.9L441.7,81.9 M441.1,81.5l-0.2-0.2 M441.6,81.9l-0.5-0.4
		 M441.7,126.8L441.7,126.8 M442.4,126.3l-0.2,0.1 M442.2,126.4l-0.5,0.3 M441.7,81.9L441.7,81.9 M441.7,81.9l0.5,0.3 M442.2,82.2
		l0.2,0.1 M442.4,126.3l0.4-0.2 M442.8,126.1L442.8,126.1 M442.8,126.1l0.3-0.2 M442.8,82.5l-0.4-0.2 M443.2,82.7l-0.3-0.2
		 M442.8,82.6L442.8,82.6 M443.2,125.9l0.2-0.1 M443.4,125.8l0.5-0.2 M443.8,125.7l0.1,0 M443.4,82.8l-0.2-0.1 M444,83l-0.1,0
		 M443.8,83l-0.5-0.2 M444,125.6L444,125.6 M444,125.6l0.6-0.1 M444.7,125.5L444.7,125.5 M444.7,125.5l-0.1,0 M444.6,83.2l0.1,0
		 M444.7,83.2L444.7,83.2 M444,83L444,83 M444.6,83.2L444,83 M444.7,125.5L444.7,125.5 M445.5,125.4L445.5,125.4 M445.4,125.4
		l-0.7,0 M444.7,83.2L444.7,83.2 M444.7,83.2l0.7,0 M445.4,83.2L445.4,83.2 M446,125.5l0.2,0 M446.2,125.5L446.2,125.5 M445.5,125.4
		L445.5,125.4 M446,125.5l-0.5-0.1 M445.5,83.2L445.5,83.2 M445.5,83.2l0.5-0.1 M446.2,83.1L446.2,83.1 M446.2,83.1l-0.2,0
		 M446.2,125.5L446.2,125.5 M446.3,125.5l0.6,0.2 M446.9,125.7l0.1,0.1 M446.3,83.1L446.3,83.1 M447,82.9l-0.1,0.1 M446.9,82.9
		l-0.6,0.2 M447,125.8l0.2,0.1 M447.2,125.9l0.2,0.1 M447.4,126l0.3,0.2 M447.2,82.7l-0.2,0.1 M447.8,82.4l-0.3,0.2 M447.4,82.6
		l-0.2,0.1 M448,126.4l-0.2-0.2 M448.5,126.8L448.5,126.8 M448.5,126.8l-0.5-0.4 M447.8,82.4l0.2-0.2 M448,82.3l0.5-0.4 M448.5,81.9
		L448.5,81.9 M448.5,126.8l0.5,0.5 M449,127.3l0.3,0.3 M448.5,126.8L448.5,126.8 M448.5,126.8L448.5,126.8 M448.5,81.9L448.5,81.9
		 M448.5,81.9L448.5,81.9 M449.3,81.1l-0.3,0.3 M449,81.4l-0.5,0.5 M449.8,128.1l0.2,0.2 M449.9,128.3l0.1,0.1 M449.5,127.8
		l-0.2-0.2 M449.8,128.1l-0.3-0.4 M449.3,81.1l0.2-0.2 M449.5,80.9l0.3-0.4 M450,80.2l-0.1,0.1 M449.9,80.3l-0.2,0.2 M450.8,129.4
		L450.8,129.4 M450.8,129.5L450.8,129.5 M450.4,128.9l-0.3-0.4 M450.8,129.4l-0.4-0.6 M450,80.2l0.3-0.4 M450.4,79.8l0.4-0.6
		 M450.8,79.2L450.8,79.2 M450.8,79.2L450.8,79.2 M450.8,129.5l0.3,0.4 M451.1,129.9l0.1,0.2 M451.2,130.1l0.4,0.6 M451.1,78.8
		l-0.3,0.4 M451.6,78l-0.4,0.6 M451.2,78.6l-0.1,0.2 M451.6,130.8l0.4,0.6 M452,131.4l0.4,0.6 M451.6,130.7L451.6,130.7
		 M451.6,130.8L451.6,130.8 M451.6,78L451.6,78 M451.6,77.9L451.6,77.9 M452.3,76.6l-0.4,0.6 M452,77.3l-0.4,0.6 M453.1,133.4
		L453.1,133.4 M453.1,133.4L453.1,133.4 M452.4,132.1l0.4,0.7 M452.7,132.7L452.7,132.7 M452.7,132.8l0.3,0.6 M452.3,132.1
		L452.3,132.1 M452.4,132.1L452.4,132.1 M452.3,76.6L452.3,76.6 M452.3,76.6L452.3,76.6 M453.1,75.2l-0.3,0.6 M452.7,75.8
		L452.7,75.8 M452.7,75.9l-0.4,0.7 M453.1,75.2L453.1,75.2 M453.1,75.2L453.1,75.2 M453.7,134.7l0.1,0.1 M453.8,134.9l0.1,0.2
		 M453.4,134.1l-0.3-0.7 M453.7,134.7l-0.3-0.6 M453.1,75.2l0.3-0.7 M453.4,74.5l0.3-0.6 M453.8,73.6l-0.1,0.2 M453.8,73.8l-0.1,0.1
		 M454.3,136l0.1,0.3 M454.4,136.3l0.2,0.4 M454.1,135.6l-0.3-0.6 M454.3,136l-0.2-0.4 M453.8,73.6l0.3-0.6 M454.1,73l0.2-0.4
		 M454.6,71.9l-0.2,0.4 M454.4,72.3l-0.1,0.3 M454.9,137.4l0.2,0.5 M455.1,137.8l0.3,0.6 M454.8,137.1l-0.2-0.4 M454.9,137.4
		l-0.1-0.3 M454.6,71.9l0.2-0.4 M454.8,71.6l0.1-0.3 M455.4,70.2l-0.3,0.6 M455.1,70.8l-0.2,0.5 M456,140l0.1,0.1 M456.1,140.2
		l0.1,0.2 M455.7,139.4l-0.1-0.2 M455.7,139.2l-0.2-0.5 M456,140l-0.3-0.6 M455.4,138.6l0-0.1 M455.5,138.7L455.5,138.7 M455.4,70.2
		l0-0.1 M455.4,70L455.4,70 M455.7,69.4l0.1-0.2 M455.7,69.3l0.3-0.6 M455.5,70l0.2-0.5 M456.1,68.3l-0.1,0.2 M456.1,68.5l-0.1,0.1
		 M456.5,141.3l0.2,0.4 M456.7,141.7l0.2,0.6 M456.4,140.9l-0.2-0.6 M456.5,141.3l-0.2-0.4 M456.1,68.3l0.2-0.6 M456.4,67.7l0.2-0.4
		 M456.9,66.3l-0.2,0.6 M456.7,66.9l-0.2,0.4 M457.5,144l0,0.1 M457.6,144.1l0.1,0.2 M457,142.7l0.2,0.7 M457.3,143.3L457.3,143.3
		 M457.3,143.4l0.2,0.6 M457,142.5l-0.1-0.2 M457,142.7l-0.1-0.1 M456.9,66.3l0.1-0.2 M457,66.1L457,66 M457.5,64.7l-0.2,0.6
		 M457.3,65.3L457.3,65.3 M457.3,65.3L457,66 M457.7,64.3l-0.1,0.2 M457.6,64.5l0,0.1 M458,145.3l0.2,0.4 M458.2,145.7l0.2,0.7
		 M457.9,144.9l-0.2-0.6 M458,145.3l-0.1-0.4 M457.7,64.3l0.2-0.6 M457.9,63.7l0.1-0.4 M458.4,62.2l-0.2,0.7 M458.2,62.9l-0.2,0.4
		 M459,147.9l0.1,0.2 M459,148.2l0.1,0.4 M458.8,147.4l-0.1-0.4 M458.6,147l-0.1-0.3 M459,147.9l-0.2-0.6 M458.5,146.5l0-0.1
		 M458.5,146.6L458.5,146.6 M458.4,62.2l0-0.1 M458.5,62.1L458.5,62.1 M458.6,61.7l0.1-0.4 M458.8,61.3l0.2-0.6 M458.5,62l0.1-0.3
		 M459.2,60.1l-0.1,0.4 M459,60.5l-0.1,0.2 M459.9,150.6L459.9,150.6 M459.9,150.7l0,0.1 M459.4,149.3l0.2,0.6 M459.6,149.8l0.1,0.4
		 M459.8,150.3l0.1,0.3 M459.3,149l-0.1-0.4 M459.4,149.3l-0.1-0.3 M459.2,60.1l0.1-0.4 M459.3,59.6l0.1-0.3 M459.9,58.1l-0.1,0.3
		 M459.8,58.4l-0.1,0.4 M459.6,58.8l-0.2,0.6 M459.9,57.8l0,0.1 M459.9,58L459.9,58 M460.3,151.9l0.1,0.4 M460.5,152.3l0.2,0.8
		 M460.2,151.5l-0.2-0.7 M460.3,151.9l-0.1-0.4 M459.9,57.8l0.2-0.7 M460.2,57.1l0.1-0.4 M460.7,55.5l-0.2,0.8 M460.5,56.3l-0.1,0.4
		 M461.2,154.6l0.1,0.3 M461.3,154.9l0.2,0.6 M461,154l-0.2-0.6 M460.8,153.4l-0.1-0.2 M461.2,154.6L461,154 M460.7,153.2
		L460.7,153.2 M460.7,153.2L460.7,153.2 M460.7,55.5L460.7,55.5 M460.7,55.5L460.7,55.5 M460.8,55.2l0.2-0.6 M461,54.6l0.2-0.5
		 M460.7,55.4l0.1-0.2 M461.5,53.2l-0.2,0.6 M461.3,53.8l-0.1,0.3 M462,157.2l0.1,0.2 M462.1,157.4l0.1,0.4 M461.8,156.6l-0.1-0.2
		 M461.8,156.4l-0.2-0.5 M462,157.2l-0.2-0.6 M461.6,155.7l-0.1-0.3 M461.6,155.9l0-0.2 M461.5,53.2l0.1-0.3 M461.6,52.9l0-0.2
		 M461.8,52.2l0.1-0.2 M461.8,52.1l0.2-0.6 M461.6,52.8l0.2-0.5 M462.2,50.8l-0.1,0.4 M462.1,51.2l-0.1,0.2 M462.8,159.8l0,0.2
		 M462.9,160l0.1,0.3 M462.4,158.5l0.2,0.6 M462.6,159.1l0.1,0.2 M462.7,159.3l0.2,0.5 M462.4,158.3l-0.1-0.4 M462.4,158.5l-0.1-0.2
		 M462.2,50.8l0.1-0.4 M462.4,50.4l0.1-0.2 M462.8,48.8l-0.2,0.5 M462.7,49.3l-0.1,0.2 M462.6,49.5l-0.2,0.6 M463,48.3l-0.1,0.3
		 M462.9,48.6l0,0.2 M463.6,162.5l0,0.1 M463.7,162.6l0.1,0.2 M463.2,161.2l0.2,0.6 M463.4,161.7l0.1,0.4 M463.5,162.1l0.1,0.4
		 M463.2,160.9l-0.2-0.6 M463.2,161.2l-0.1-0.3 M463,48.3l0.2-0.6 M463.2,47.8l0.1-0.3 M463.6,46.2l-0.1,0.4 M463.5,46.5l-0.1,0.4
		 M463.4,46.9l-0.2,0.6 M463.7,45.8l-0.1,0.2 M463.7,46.1l0,0.1 M464.4,165.1L464.4,165.1 M464.5,165.2l0,0.1 M464,163.8l0.2,0.5
		 M464.2,164.3l0.2,0.6 M464.4,164.9l0.1,0.2 M463.9,163.5l-0.2-0.7 M464,163.8l-0.1-0.3 M463.7,45.8l0.2-0.7 M463.9,45.2l0.1-0.3
		 M464.4,43.5l-0.1,0.2 M464.4,43.8l-0.2,0.6 M464.2,44.3l-0.2,0.5 M464.5,43.3l0,0.1 M464.5,43.4L464.5,43.4 M465.2,167.8
		L465.2,167.8 M465.2,167.8l0,0.1 M464.8,166.5l0.1,0.5 M465,167l0.2,0.6 M465.2,167.6l0.1,0.2 M464.7,166.1l-0.2-0.7 M464.8,166.5
		l-0.1-0.4 M464.5,43.3l0.2-0.7 M464.7,42.6l0.1-0.4 M465.2,40.9l-0.1,0.2 M465.2,41.1l-0.2,0.6 M465,41.7l-0.1,0.5 M465.3,40.7
		l0,0.1 M465.2,40.8L465.2,40.8 M466,170.4L466,170.4 M466,170.5l0,0.1 M465.6,169.1l0.1,0.5 M465.7,169.6l0.2,0.6 M465.9,170.2
		l0.1,0.2 M465.5,168.7l-0.2-0.8 M465.6,169.1l-0.1-0.4 M465.3,40.7l0.2-0.8 M465.5,39.9l0.1-0.4 M466,38.2l-0.1,0.2 M465.9,38.4
		l-0.2,0.6 M465.7,39.1l-0.1,0.5 M466,38.1l0,0.1 M466,38.2L466,38.2 M466.4,171.7L466.4,171.7 M466.4,171.7L466.4,171.7
		 M466.4,171.7L466.4,171.7 M466.2,171.4l-0.2-0.8 M466.4,171.7l-0.1-0.4 M466,38.1l0.2-0.8 M466.2,37.3l0.1-0.4"/>
</g>
<rect x="402.5" y="28.7" class="st4" width="125.8" height="146"/>
<text transform="matrix(1 0 0 1 402.5301 21.0932)" class="st1 st6 st3">$\mathscr E$</text>
<text transform="matrix(1 0 0 1 425.3334 53.8809)" class="st1 st6 st3">$\mathscr E_\eta$</text>
<text transform="matrix(1 0 0 1 489.7957 53.8809)" class="st1 st6 st3">$\mathscr E_s$</text>
<path class="st7" d="M518.1,171.7l-0.7-3.1l-0.7-3l-0.7-3l-0.7-2.9l-0.7-2.8l-0.7-2.8l-0.7-2.7l-0.7-2.7l-0.7-2.6l-0.7-2.6l-0.6-2.5
	l-0.6-2.4l-0.6-2.4l-0.6-2.3l-0.6-2.3l-0.6-2.2l-0.6-2.2l-0.6-2.1l-1.2-4.1l-1.2-3.9l-1.2-3.7l-1.1-3.5l-1.1-3.3l-1.1-3.1l-1.1-2.9
	l-1-2.7l-1-2.6l-1-2.4l-1-2.2l-1-2.1l-0.9-1.9l-0.9-1.7l-0.9-1.6l-0.9-1.4l-0.8-1.3l-0.8-1.1l-0.8-1l-0.8-0.9l-0.8-0.7l-0.7-0.6
	l-0.7-0.5l-0.7-0.3l-0.7-0.2l-0.6-0.1l-0.6,0l-0.6,0.1l-0.6,0.2l-0.6,0.3l-0.5,0.4l-0.5,0.5l-0.5,0.6l-0.5,0.7l-0.5,0.7l-0.4,0.8
	l-0.4,0.9l-0.4,1l-0.4,1l-0.3,1.1l-0.3,1.1l-0.3,1.2l-0.3,1.2l-0.3,1.3l-0.2,1.3l-0.2,1.4l-0.2,1.4l-0.2,1.4l-0.1,1.4l-0.1,1.5
	l-0.1,1.5l-0.1,1.5l-0.1,1.5l0,1.5l0,1.5l0,1.5l0,1.5l0.1,1.5l0.1,1.5l0.1,1.5l0.1,1.5l0.1,1.4l0.2,1.4l0.2,1.4l0.2,1.4l0.2,1.3
	l0.3,1.3l0.3,1.2l0.3,1.2l0.3,1.1l0.3,1.1l0.4,1l0.4,0.9l0.4,0.9l0.4,0.8l0.5,0.7l0.5,0.6l0.5,0.6l0.5,0.5l0.5,0.4l0.6,0.3l0.6,0.2
	l0.6,0.1l0.6,0l0.6-0.1l0.7-0.2l0.7-0.3l0.7-0.5l0.7-0.6l0.8-0.7l0.8-0.9l0.8-1l0.8-1.1l0.8-1.3l0.9-1.4l0.9-1.6l0.9-1.7l0.9-1.9
	l1-2l1-2.2l1-2.4l1-2.6l1-2.7l1.1-2.9l1.1-3.1l1.1-3.3l1.1-3.5l1.2-3.7l1.2-3.9l1.2-4.1l0.6-2.1l0.6-2.2l0.6-2.2l0.6-2.3l0.6-2.3
	L510,70l0.6-2.4l0.6-2.5l0.7-2.6l0.7-2.6l0.7-2.7l0.7-2.7l0.7-2.8l0.7-2.8L516,46l0.7-3l0.7-3l0.7-3.1"/>
<g>
	<g>
		<line class="st0" x1="218.8" y1="179.3" x2="218.8" y2="196.1"/>
		<g>
			<path class="st1" d="M218.8,199.1c-0.5-1.4-1.4-3.2-2.4-4.3l2.4,0.9l2.4-0.9C220.2,196,219.3,197.7,218.8,199.1z"/>
		</g>
	</g>
</g>
<text transform="matrix(1 0 0 1 151.9769 198.8689)" class="st1 st2 st3">$\spec R$</text>
<circle class="st1" cx="176.3" cy="216.8" r="2.7"/>
<circle class="st1" cx="243.8" cy="216.8" r="2.7"/>
<text transform="matrix(1 0 0 1 168.1953 233.1874)" class="st1 st2 st3">$\eta$</text>
<text transform="matrix(1 0 0 1 235.0071 233.1878)" class="st1 st2 st3">$\mathfrak m$</text>
<rect x="152" y="207.3" class="st4" width="125.8" height="35.1"/>
<g>
	<defs>
		<rect id="SVGID_1_" x="156.9" y="36.9" width="51" height="134.8"/>
	</defs>
	<clipPath id="SVGID_4_">
		<use xlink:href="#SVGID_1_"  style="overflow:visible;"/>
	</clipPath>
	<path class="st8" d="M157.1,105.6L157.1,105.6 M157.1,105.7l0,0.6 M157.1,104.3L157.1,104.3 M157.1,104.4l0,1.3 M157.1,105.6
		L157.1,105.6 M157.1,103L157.1,103 M157.1,103l0,1.3 M157.1,104.3L157.1,104.3 M157.1,102.4l0,0.6 M157.1,103L157.1,103
		 M157.9,116.2L157.9,116.2 M157.9,116.3l0,0.2 M157.7,114.9l0,0.3 M157.7,115.2l0.1,1 M157.9,116.1L157.9,116.1 M157.6,113.6
		l0.1,0.5 M157.6,114.1l0,0.4 M157.7,114.5l0,0.4 M157.5,112.9L157.5,112.9 M157.5,112.9l-0.1-0.6 M157.6,113.6l-0.1-0.6
		 M157.4,111.8l0-0.5 M157.4,111.3l0-0.4 M157.4,112.3l0-0.5 M157.3,110.6l0-0.8 M157.3,109.8l0-0.2 M157.3,110.9l0-0.3
		 M157.2,109.4l0-1 M157.2,108.4l0-0.1 M157.3,109.6l0-0.2 M157.2,108.2l0-1.2 M157.2,107L157.2,107 M157.2,108.3L157.2,108.3
		 M157.2,106.9l0-0.7 M157.2,107L157.2,107 M157.1,102.4l0-0.7 M157.2,101.7L157.2,101.7 M157.2,101.6l0-1.2 M157.2,100.5
		L157.2,100.5 M157.2,101.7L157.2,101.7 M157.2,100.2l0-1 M157.2,99.2l0-0.2 M157.2,100.4l0-0.1 M157.3,98.8l0-0.8 M157.3,98l0-0.3
		 M157.3,99l0-0.2 M157.4,97.3l0-0.5 M157.4,96.9l0-0.5 M157.3,97.7l0-0.4 M157.5,95.8L157.5,95.8 M157.5,95.7l0.1-0.6 M157.4,96.4
		l0.1-0.6 M157.7,93.7l0,0.4 M157.7,94.2l0,0.4 M157.6,94.6l-0.1,0.5 M157.9,92.4L157.9,92.4 M157.9,92.5l-0.1,1 M157.7,93.5l0,0.3
		 M157.9,92.2l0,0.2 M157.9,92.4L157.9,92.4 M158.5,120.2l0,0.2 M158.5,120.4l0.1,0.6 M158.3,118.9l0.1,0.5 M158.4,119.4l0.1,0.4
		 M158.4,119.8l0.1,0.4 M158.2,118.4l-0.1-0.5 M158.1,117.9l-0.1-0.4 M158.3,118.9l-0.1-0.5 M158,117.3l-0.1-0.9 M158,117.5l0-0.2
		 M157.9,92.2l0.1-0.9 M158,91.3l0-0.2 M158.1,90.7l0.1-0.5 M158.2,90.3l0.1-0.5 M158,91.1l0.1-0.4 M158.5,88.5l-0.1,0.4
		 M158.4,88.9l-0.1,0.4 M158.4,89.3l-0.1,0.5 M158.7,87.6l-0.1,0.6 M158.5,88.3l0,0.2 M159.4,124.2L159.4,124.2 M159.4,124.2
		L159.4,124.2 M159.1,122.8l0.1,0.4 M159.2,123.3l0.2,0.8 M159.4,124.1L159.4,124.1 M158.9,122.3l-0.1-0.5 M158.8,121.8l-0.1-0.3
		 M159.1,122.8l-0.1-0.5 M158.7,121.4l-0.1-0.4 M158.8,121.5l0-0.1 M158.7,87.6l0.1-0.4 M158.7,87.3l0-0.1 M158.8,86.8l0.1-0.5
		 M158.9,86.3l0.1-0.5 M158.8,87.1l0.1-0.3 M159.4,84.5L159.4,84.5 M159.4,84.6l-0.2,0.8 M159.2,85.4l-0.1,0.4 M159.4,84.4
		L159.4,84.4 M159.4,84.5L159.4,84.5 M159.8,125.5l0.1,0.5 M159.9,125.9l0.3,0.8 M159.7,125.1l-0.2-0.8 M159.8,125.5l-0.1-0.4
		 M159.4,84.4l0.2-0.8 M159.7,83.6l0.1-0.4 M160.2,81.9l-0.3,0.8 M159.9,82.7l-0.1,0.5 M160.7,128.1l0.1,0.3 M160.8,128.4l0.1,0.4
		 M160.5,127.6l-0.2-0.7 M160.2,126.9l0-0.1 M160.7,128.1l-0.2-0.5 M160.2,126.8L160.2,126.8 M160.2,126.8L160.2,126.8 M160.2,81.9
		L160.2,81.9 M160.2,81.9L160.2,81.9 M160.2,81.8l0.2-0.7 M160.5,81.1l0.2-0.5 M160.2,81.9l0-0.1 M160.9,79.9l-0.1,0.4 M160.8,80.3
		l-0.1,0.3 M161.3,129.4l0.2,0.4 M161.5,129.9l0.2,0.5 M161.1,129.1l-0.2-0.4 M161.3,129.4l-0.1-0.3 M160.9,79.9l0.2-0.4
		 M161.1,79.5l0.1-0.3 M161.7,78.3l-0.2,0.5 M161.5,78.8l-0.2,0.4 M161.9,130.8l0.3,0.5 M162.2,131.2l0.3,0.5 M161.8,130.6l-0.1-0.2
		 M161.9,130.8l-0.1-0.2 M161.7,78.3l0.1-0.2 M161.8,78.1l0.1-0.2 M162.5,76.9l-0.3,0.5 M162.2,77.4l-0.3,0.5 M162.7,132.1l0.3,0.4
		 M163,132.5l0.2,0.3 M162.6,131.9l-0.1-0.2 M162.7,132.1l-0.1-0.2 M162.5,76.9l0.1-0.2 M162.6,76.8l0.1-0.2 M163.2,75.8l-0.2,0.3
		 M163,76.1l-0.3,0.4 M163.7,133.4l0.2,0.2 M163.9,133.6l0.1,0.1 M163.4,133.1l-0.2-0.2 M163.7,133.4l-0.3-0.3 M163.2,75.8l0.2-0.2
		 M163.4,75.6l0.3-0.3 M164,74.9l-0.1,0.1 M163.9,75l-0.2,0.2 M164.4,134.1l-0.4-0.4 M164.7,134.4l-0.3-0.3 M164.4,134.1
		L164.4,134.1 M164,74.9l0.4-0.4 M164.4,74.6L164.4,74.6 M164.4,74.5l0.3-0.3 M165.1,134.7l0.3,0.2 M165.4,134.9l0.1,0.1
		 M164.9,134.5l-0.1-0.1 M165.1,134.7l-0.3-0.2 M164.7,74.2l0.1-0.1 M164.9,74.1l0.3-0.2 M165.5,73.6l-0.1,0.1 M165.4,73.7l-0.3,0.2
		 M165.5,135l0.2,0.1 M165.8,135.2l0.2,0.1 M166,135.3l0.3,0.2 M165.8,73.5l-0.2,0.1 M166.3,73.2l-0.3,0.2 M166,73.4l-0.2,0.1
		 M166.6,135.5l-0.3-0.1 M167,135.7l-0.2-0.1 M166.8,135.6l-0.2-0.1 M166.3,73.2l0.3-0.1 M166.6,73.1l0.2-0.1 M166.8,73l0.2-0.1
		 M167.2,135.8l-0.2,0 M167.8,135.9l-0.1,0 M167.7,135.9l-0.5-0.1 M167,72.9l0.2,0 M167.2,72.9l0.5-0.1 M167.7,72.8l0.1,0
		 M167.9,135.9L167.9,135.9 M168.6,136L168.6,136 M168.5,136l-0.6-0.1 M167.8,72.8L167.8,72.8 M167.9,72.7l0.6-0.1 M168.5,72.7
		L168.5,72.7 M168.6,136L168.6,136 M169.3,135.9L169.3,135.9 M169.3,135.9l-0.7,0 M168.6,72.7L168.6,72.7 M168.6,72.7l0.7,0
		 M169.3,72.7L169.3,72.7 M169.4,135.9L169.4,135.9 M170.1,135.8l-0.1,0 M170,135.8l-0.6,0.1 M169.3,72.7L169.3,72.7 M169.4,72.7
		l0.6,0.1 M170,72.8l0.1,0 M170.2,135.8l-0.1,0 M170.8,135.6l-0.2,0.1 M170.6,135.7l-0.4,0.1 M170.1,72.8l0.1,0 M170.2,72.9l0.4,0.1
		 M170.6,73l0.2,0.1 M171.1,135.5l-0.3,0.1 M171.6,135.4l-0.3,0.1 M171.3,135.5l-0.1,0 M170.8,73l0.3,0.1 M171.1,73.1l0.1,0
		 M171.3,73.2l0.3,0.1 M171.6,135.4l0.3-0.1 M171.9,135.2l0.2-0.1 M172.1,135.1l0.2-0.1 M171.9,73.4l-0.3-0.1 M172.4,73.6l-0.2-0.1
		 M172.1,73.5l-0.2-0.1 M172.4,135l0.1-0.1 M172.5,134.9l0.4-0.2 M173.1,134.6L173.1,134.6 M173.1,134.6l-0.2,0.1 M172.9,73.9
		l0.2,0.1 M173.1,74L173.1,74 M172.5,73.7l-0.1-0.1 M172.9,73.9l-0.4-0.2 M173.2,134.5l-0.1,0.1 M173.9,134.1l-0.2,0.2 M173.6,134.3
		l-0.4,0.2 M173.1,74l0.1,0.1 M173.2,74.1l0.4,0.2 M173.6,74.3l0.2,0.2 M173.9,134.1l0.3-0.2 M174.2,133.9l0.2-0.2 M174.4,133.8
		l0.2-0.2 M174.2,74.7l-0.3-0.2 M174.6,75l-0.2-0.2 M174.4,74.9l-0.2-0.2 M174.6,133.6L174.6,133.6 M174.7,133.6l0.2-0.2
		 M175.4,133.1l-0.1,0.1 M175.3,133.2l-0.3,0.2 M175,75.2l0.3,0.2 M175.3,75.5l0.1,0.1 M174.7,75.1L174.7,75.1 M175,75.2l-0.2-0.2
		 M175.7,132.8l-0.3,0.3 M176.2,132.5l-0.4,0.3 M175.8,132.8L175.8,132.8 M175.4,75.6l0.3,0.3 M175.7,75.8L175.7,75.8 M175.8,75.9
		l0.4,0.3 M176.2,132.5l0.2-0.1 M176.3,132.4l0.3-0.3 M176.9,131.9L176.9,131.9 M176.8,131.9l-0.2,0.2 M176.7,76.6l0.2,0.2
		 M176.8,76.7L176.8,76.7 M176.3,76.3l-0.2-0.1 M176.7,76.6l-0.3-0.3 M177.2,131.6l-0.2,0.2 M177.7,131.2l-0.3,0.3 M177.4,131.5
		l-0.2,0.1 M176.9,76.8l0.2,0.2 M177.2,77l0.2,0.1 M177.4,77.1l0.3,0.3 M177.7,131.2l0.2-0.1 M177.9,131.1l0.3-0.3 M178.5,130.5
		L178.5,130.5 M178.4,130.6l-0.2,0.1 M178.2,77.9l0.2,0.1 M178.4,78L178.4,78 M177.9,77.6l-0.2-0.1 M178.2,77.9l-0.3-0.3
		 M178.7,130.3l-0.3,0.2 M179.2,129.9l-0.3,0.3 M178.9,130.2l-0.2,0.1 M178.5,78.1l0.3,0.2 M178.7,78.3l0.2,0.1 M178.9,78.5l0.3,0.3
		 M179.2,129.9l0.2-0.1 M179.4,129.7l0.3-0.3 M180,129.2L180,129.2 M179.9,129.3l-0.2,0.2 M179.7,79.2l0.2,0.2 M179.9,79.4
		L179.9,79.4 M179.4,78.9l-0.2-0.1 M179.7,79.2l-0.3-0.3 M180.2,129l-0.3,0.2 M180.7,128.5l-0.3,0.3 M180.4,128.8l-0.1,0.1
		 M180,79.4l0.3,0.2 M180.2,79.7l0.1,0.1 M180.4,79.8l0.3,0.3 M180.7,128.5l0.2-0.1 M180.9,128.4l0.3-0.3 M181.5,127.9L181.5,127.9
		 M181.4,128l-0.2,0.1 M181.2,80.5l0.2,0.1 M181.4,80.7L181.4,80.7 M180.9,80.2l-0.2-0.1 M181.2,80.5l-0.3-0.3 M181.7,127.7
		l-0.2,0.2 M182.3,127.3l-0.3,0.2 M181.9,127.6l-0.2,0.2 M181.5,80.7l0.2,0.2 M181.7,80.9l0.2,0.2 M181.9,81.1l0.3,0.2 M182.3,127.3
		l0.2-0.2 M182.5,127.2l0.5-0.4 M183,126.8L183,126.8 M183,126.8L183,126.8 M183,81.9L183,81.9 M183,81.9L183,81.9 M182.5,81.5
		l-0.2-0.2 M183,81.9l-0.5-0.4 M183,126.8L183,126.8 M183.8,126.3l-0.2,0.1 M183.6,126.4l-0.5,0.3 M183,81.9L183,81.9 M183,81.9
		l0.5,0.3 M183.6,82.2l0.2,0.1 M183.8,126.3l0.4-0.2 M184.1,126.1L184.1,126.1 M184.2,126.1l0.3-0.2 M184.1,82.5l-0.4-0.2
		 M184.5,82.7l-0.3-0.2 M184.2,82.6L184.2,82.6 M184.5,125.9l0.2-0.1 M184.7,125.8l0.5-0.2 M185.2,125.7l0.1,0 M184.7,82.8l-0.2-0.1
		 M185.3,83l-0.1,0 M185.2,83l-0.5-0.2 M185.3,125.6L185.3,125.6 M185.4,125.6l0.6-0.1 M186.1,125.5L186.1,125.5 M186.1,125.5
		l-0.1,0 M185.9,83.2l0.1,0 M186.1,83.2L186.1,83.2 M185.4,83L185.4,83 M185.9,83.2l-0.6-0.1 M186.1,125.5L186.1,125.5 M186.8,125.4
		L186.8,125.4 M186.8,125.4l-0.7,0 M186.1,83.2L186.1,83.2 M186.1,83.2l0.7,0 M186.8,83.2L186.8,83.2 M187.4,125.5l0.2,0
		 M187.6,125.5L187.6,125.5 M186.9,125.4L186.9,125.4 M187.4,125.5l-0.5-0.1 M186.8,83.2L186.8,83.2 M186.9,83.2l0.5-0.1
		 M187.6,83.1L187.6,83.1 M187.6,83.1l-0.2,0 M187.6,125.5L187.6,125.5 M187.6,125.5l0.6,0.2 M188.2,125.7l0.1,0.1 M187.6,83.1
		L187.6,83.1 M188.3,82.9l-0.1,0.1 M188.2,82.9l-0.6,0.2 M188.3,125.8l0.2,0.1 M188.6,125.9l0.2,0.1 M188.8,126l0.3,0.2 M188.6,82.7
		l-0.2,0.1 M189.1,82.4l-0.3,0.2 M188.8,82.6l-0.2,0.1 M189.4,126.4l-0.2-0.2 M189.9,126.8L189.9,126.8 M189.9,126.8l-0.5-0.4
		 M189.1,82.4l0.2-0.2 M189.4,82.3l0.5-0.4 M189.9,81.9L189.9,81.9 M189.9,126.8l0.5,0.5 M190.4,127.3l0.3,0.3 M189.9,126.8
		L189.9,126.8 M189.9,126.8L189.9,126.8 M189.9,81.9L189.9,81.9 M189.9,81.9L189.9,81.9 M190.6,81.1l-0.3,0.3 M190.4,81.4l-0.5,0.5
		 M191.1,128.1l0.2,0.2 M191.3,128.3l0.1,0.1 M190.8,127.8l-0.2-0.2 M191.1,128.1l-0.3-0.4 M190.6,81.1l0.2-0.2 M190.8,80.9l0.3-0.4
		 M191.4,80.2l-0.1,0.1 M191.3,80.3l-0.2,0.2 M192.1,129.4L192.1,129.4 M192.1,129.5L192.1,129.5 M191.7,128.9l-0.3-0.4
		 M192.1,129.4l-0.4-0.6 M191.4,80.2l0.3-0.4 M191.7,79.8l0.4-0.6 M192.2,79.2L192.2,79.2 M192.1,79.2L192.1,79.2 M192.2,129.5
		l0.3,0.4 M192.4,129.9l0.1,0.2 M192.5,130.1l0.4,0.6 M192.4,78.8l-0.3,0.4 M192.9,78l-0.4,0.6 M192.5,78.6l-0.1,0.2 M193,130.8
		l0.4,0.6 M193.3,131.4l0.4,0.6 M192.9,130.7L192.9,130.7 M193,130.8L193,130.8 M192.9,78L192.9,78 M192.9,77.9L192.9,77.9
		 M193.7,76.6l-0.4,0.6 M193.3,77.3l-0.4,0.6 M194.4,133.4L194.4,133.4 M194.4,133.4L194.4,133.4 M193.7,132.1l0.4,0.7 M194.1,132.7
		L194.1,132.7 M194.1,132.8l0.3,0.6 M193.7,132.1L193.7,132.1 M193.7,132.1L193.7,132.1 M193.7,76.6L193.7,76.6 M193.7,76.6
		L193.7,76.6 M194.4,75.2l-0.3,0.6 M194.1,75.8L194.1,75.8 M194.1,75.9l-0.4,0.7 M194.4,75.2L194.4,75.2 M194.4,75.2L194.4,75.2
		 M195,134.7l0.1,0.1 M195.1,134.9l0.1,0.2 M194.8,134.1l-0.3-0.7 M195,134.7l-0.3-0.6 M194.4,75.2l0.3-0.7 M194.8,74.5l0.3-0.6
		 M195.2,73.6l-0.1,0.2 M195.1,73.8l-0.1,0.1 M195.7,136l0.1,0.3 M195.8,136.3l0.2,0.4 M195.5,135.6l-0.3-0.6 M195.7,136l-0.2-0.4
		 M195.2,73.6l0.3-0.6 M195.5,73l0.2-0.4 M196,71.9l-0.2,0.4 M195.8,72.3l-0.1,0.3 M196.2,137.4l0.2,0.5 M196.4,137.8l0.3,0.6
		 M196.1,137.1l-0.2-0.4 M196.2,137.4l-0.1-0.3 M196,71.9l0.2-0.4 M196.1,71.6l0.1-0.3 M196.7,70.2l-0.3,0.6 M196.4,70.8l-0.2,0.5
		 M197.3,140l0.1,0.1 M197.4,140.2l0.1,0.2 M197.1,139.4l-0.1-0.2 M197,139.2l-0.2-0.5 M197.3,140l-0.3-0.6 M196.8,138.6l0-0.1
		 M196.8,138.7L196.8,138.7 M196.7,70.2l0-0.1 M196.8,70L196.8,70 M197,69.4l0.1-0.2 M197.1,69.3l0.3-0.6 M196.8,70l0.2-0.5
		 M197.5,68.3l-0.1,0.2 M197.4,68.5l-0.1,0.1 M197.9,141.3l0.2,0.4 M198,141.7l0.2,0.6 M197.7,140.9l-0.2-0.6 M197.9,141.3l-0.2-0.4
		 M197.5,68.3l0.2-0.6 M197.7,67.7l0.2-0.4 M198.2,66.3l-0.2,0.6 M198,66.9l-0.2,0.4 M198.9,144l0,0.1 M198.9,144.1l0.1,0.2
		 M198.4,142.7l0.2,0.7 M198.6,143.3L198.6,143.3 M198.6,143.4l0.2,0.6 M198.3,142.5l-0.1-0.2 M198.4,142.7l-0.1-0.1 M198.2,66.3
		l0.1-0.2 M198.3,66.1l0.1-0.1 M198.9,64.7l-0.2,0.6 M198.6,65.3L198.6,65.3 M198.6,65.3l-0.2,0.7 M199,64.3l-0.1,0.2 M198.9,64.5
		l0,0.1 M199.4,145.3l0.2,0.4 M199.5,145.7l0.2,0.7 M199.2,144.9l-0.2-0.6 M199.4,145.3l-0.1-0.4 M199,64.3l0.2-0.6 M199.2,63.7
		l0.1-0.4 M199.8,62.2l-0.2,0.7 M199.5,62.9l-0.2,0.4 M200.3,147.9l0.1,0.2 M200.4,148.2l0.1,0.4 M200.1,147.4L200,147 M200,147
		l-0.1-0.3 M200.3,147.9l-0.2-0.6 M199.8,146.5l0-0.1 M199.8,146.6L199.8,146.6 M199.8,62.2l0-0.1 M199.8,62.1L199.8,62.1 M200,61.7
		l0.1-0.4 M200.1,61.3l0.2-0.6 M199.8,62l0.1-0.3 M200.5,60.1l-0.1,0.4 M200.4,60.5l-0.1,0.2 M201.2,150.6L201.2,150.6 M201.2,150.7
		l0,0.1 M200.8,149.3l0.2,0.6 M201,149.8l0.1,0.4 M201.1,150.3l0.1,0.3 M200.7,149l-0.1-0.4 M200.8,149.3l-0.1-0.3 M200.5,60.1
		l0.1-0.4 M200.7,59.6l0.1-0.3 M201.2,58.1l-0.1,0.3 M201.1,58.4l-0.1,0.4 M201,58.8l-0.2,0.6 M201.3,57.8l0,0.1 M201.2,58L201.2,58
		 M201.7,151.9l0.1,0.4 M201.8,152.3l0.2,0.8 M201.5,151.5l-0.2-0.7 M201.7,151.9l-0.1-0.4 M201.3,57.8l0.2-0.7 M201.5,57.1l0.1-0.4
		 M202,55.5l-0.2,0.8 M201.8,56.3l-0.1,0.4 M202.5,154.6l0.1,0.3 M202.6,154.9l0.2,0.6 M202.4,154l-0.2-0.6 M202.1,153.4l-0.1-0.2
		 M202.5,154.6l-0.2-0.5 M202.1,153.2L202.1,153.2 M202.1,153.2L202.1,153.2 M202,55.5L202,55.5 M202.1,55.5L202.1,55.5 M202.1,55.2
		l0.2-0.6 M202.4,54.6l0.2-0.5 M202.1,55.4l0.1-0.2 M202.8,53.2l-0.2,0.6 M202.6,53.8l-0.1,0.3 M203.4,157.2l0.1,0.2 M203.4,157.4
		l0.1,0.4 M203.2,156.6l-0.1-0.2 M203.1,156.4l-0.2-0.5 M203.4,157.2l-0.2-0.6 M202.9,155.7l-0.1-0.3 M202.9,155.9l0-0.2
		 M202.8,53.2l0.1-0.3 M202.9,52.9l0-0.2 M203.1,52.2l0.1-0.2 M203.2,52.1l0.2-0.6 M202.9,52.8l0.2-0.5 M203.6,50.8l-0.1,0.4
		 M203.4,51.2l-0.1,0.2 M204.2,159.8l0,0.2 M204.2,160l0.1,0.3 M203.8,158.5l0.2,0.6 M204,159.1l0.1,0.2 M204,159.3l0.2,0.5
		 M203.7,158.3l-0.1-0.4 M203.8,158.5l-0.1-0.2 M203.6,50.8l0.1-0.4 M203.7,50.4l0.1-0.2 M204.2,48.8l-0.2,0.5 M204,49.3l-0.1,0.2
		 M204,49.5l-0.2,0.6 M204.3,48.3l-0.1,0.3 M204.2,48.6l0,0.2 M205,162.5l0,0.1 M205,162.6l0.1,0.2 M204.6,161.2l0.2,0.6
		 M204.8,161.7l0.1,0.4 M204.9,162.1l0.1,0.4 M204.5,160.9l-0.2-0.6 M204.6,161.2l-0.1-0.3 M204.3,48.3l0.2-0.6 M204.5,47.8l0.1-0.3
		 M205,46.2l-0.1,0.4 M204.9,46.5l-0.1,0.4 M204.8,46.9l-0.2,0.6 M205.1,45.8l-0.1,0.2 M205,46.1l0,0.1 M205.8,165.1L205.8,165.1
		 M205.8,165.2l0,0.1 M205.4,163.8l0.2,0.5 M205.6,164.3l0.2,0.6 M205.7,164.9l0.1,0.2 M205.3,163.5l-0.2-0.7 M205.4,163.8l-0.1-0.3
		 M205.1,45.8l0.2-0.7 M205.3,45.2l0.1-0.3 M205.8,43.5l-0.1,0.2 M205.7,43.8l-0.2,0.6 M205.6,44.3l-0.2,0.5 M205.9,43.3l0,0.1
		 M205.8,43.4L205.8,43.4 M206.6,167.8L206.6,167.8 M206.6,167.8l0,0.1 M206.2,166.5l0.1,0.5 M206.3,167l0.2,0.6 M206.5,167.6
		l0.1,0.2 M206.1,166.1l-0.2-0.7 M206.2,166.5l-0.1-0.4 M205.9,43.3l0.2-0.7 M206.1,42.6l0.1-0.4 M206.6,40.9l-0.1,0.2 M206.5,41.1
		l-0.2,0.6 M206.3,41.7l-0.1,0.5 M206.6,40.7l0,0.1 M206.6,40.8L206.6,40.8 M207.3,170.4L207.3,170.4 M207.3,170.5l0,0.1
		 M206.9,169.1l0.1,0.5 M207.1,169.6l0.2,0.6 M207.3,170.2l0.1,0.2 M206.8,168.7l-0.2-0.8 M206.9,169.1l-0.1-0.4 M206.6,40.7
		l0.2-0.8 M206.8,39.9l0.1-0.4 M207.3,38.2l-0.1,0.2 M207.3,38.4l-0.2,0.6 M207.1,39.1l-0.1,0.5 M207.4,38.1l0,0.1 M207.3,38.2
		L207.3,38.2 M207.7,171.7L207.7,171.7 M207.7,171.7L207.7,171.7 M207.7,171.7L207.7,171.7 M207.6,171.4l-0.2-0.8 M207.7,171.7
		l-0.1-0.4 M207.4,38.1l0.2-0.8 M207.6,37.3l0.1-0.4"/>
</g>
<rect x="150.8" y="28.7" class="st4" width="125.8" height="146"/>
<text transform="matrix(1 0 0 1 150.7735 21.0934)" class="st1 st6 st3">$\mathscr E’$</text>
<text transform="matrix(1 0 0 1 166.6807 53.881)" class="st1 st6 st3">$\mathscr E’_\eta$</text>
<text transform="matrix(1 0 0 1 256.4263 53.8809)" class="st1 st6 st3">$\mathscr E’_s$</text>
<path class="st7" d="M228.1,36.9c6.2,6.4,28.6,31.2,28.3,68.1c-0.3,36.1-22,60.2-28.3,66.7"/>
<path class="st9" d="M252.4,36.9c-6.2,6.4-28.6,31.2-28.3,68.1c0.3,36.1,22,60.2,28.3,66.7"/>
<g>
	<g>
		<line class="st0" x1="289.8" y1="104.3" x2="388.2" y2="104.3"/>
		<g>
			<path class="st1" d="M391.2,104.3c-1.4,0.5-3.2,1.4-4.3,2.4l0.9-2.4l-0.9-2.4C388,102.9,389.8,103.8,391.2,104.3z"/>
		</g>
	</g>
</g>
<text transform="matrix(1 0 0 1 332.9262 98.0416)" class="st6 st3">$p$</text>
<circle class="st1" cx="499.8" cy="104.3" r="2.7"/>
<text transform="matrix(1 0 0 1 504.3676 100.4947)" class="st10 st6 st3">$\xi$</text>
</svg>
