<?xml version="1.0" encoding="utf-8"?>
<!-- Generator: Adobe Illustrator 23.0.3, SVG Export Plug-In . SVG Version: 6.00 Build 0)  -->
<svg version="1.1"
	 id="svg8" inkscape:version="0.92.4 (unknown)" sodipodi:docname="figure.svg" xmlns:cc="http://creativecommons.org/ns#" xmlns:dc="http://purl.org/dc/elements/1.1/" xmlns:inkscape="http://www.inkscape.org/namespaces/inkscape" xmlns:rdf="http://www.w3.org/1999/02/22-rdf-syntax-ns#" xmlns:sodipodi="http://sodipodi.sourceforge.net/DTD/sodipodi-0.dtd" xmlns:svg="http://www.w3.org/2000/svg"
	 xmlns="http://www.w3.org/2000/svg" xmlns:xlink="http://www.w3.org/1999/xlink" x="0px" y="0px" viewBox="0 0 680.3 194.3"
	 style="enable-background:new 0 0 680.3 194.3;" xml:space="preserve">
<style type="text/css">
	.st0{fill:none;stroke:#727070;stroke-width:2;stroke-linecap:round;stroke-linejoin:round;stroke-miterlimit:10;}
	.st1{font-family:'MyriadPro-Regular';}
	.st2{font-size:12px;}
	.st3{fill:none;stroke:#000000;stroke-miterlimit:10;}
</style>
<sodipodi:namedview  bordercolor="#666666" borderopacity="1.0" id="base" inkscape:current-layer="layer1" inkscape:cx="284.27627" inkscape:cy="182.72055" inkscape:document-units="mm" inkscape:guide-bbox="true" inkscape:pageopacity="0.0" inkscape:pageshadow="2" inkscape:window-height="995" inkscape:window-maximized="1" inkscape:window-width="2520" inkscape:window-x="20" inkscape:window-y="65" inkscape:zoom="0.99437388" pagecolor="#ffffff" showborder="true" showgrid="false" showguides="true" width="200mm">
	<inkscape:grid  dotted="false" empspacing="4" id="grid815" spacingx="10" spacingy="10" type="xygrid" units="mm">
		</inkscape:grid>
</sodipodi:namedview>
<g id="layer1" transform="translate(0,-177)" inkscape:groupmode="layer" inkscape:label="Layer 1">
</g>
<rect x="473.1" y="16.4" class="st0" width="125.8" height="146"/>
<text transform="matrix(1 0 0 1 474.6015 12.2374)" class="st1 st2">$X$</text>
<line class="st3" x1="556.3" y1="35.1" x2="556.3" y2="134.6"/>
<path class="st3" d="M507.1,36.5c29.7,8,49.3,27.5,49.3,49.1c-0.1,21.5-19.6,41-49.3,48.9"/>
<sodipodi:namedview  bordercolor="#666666" borderopacity="1.0" id="base" inkscape:current-layer="layer1" inkscape:cx="284.27627" inkscape:cy="182.72055" inkscape:document-units="mm" inkscape:guide-bbox="true" inkscape:pageopacity="0.0" inkscape:pageshadow="2" inkscape:window-height="995" inkscape:window-maximized="1" inkscape:window-width="2520" inkscape:window-x="20" inkscape:window-y="65" inkscape:zoom="0.99437388" pagecolor="#ffffff" showborder="true" showgrid="false" showguides="true" width="200mm">
	<inkscape:grid  dotted="false" empspacing="4" id="grid815" spacingx="10" spacingy="10" type="xygrid" units="mm">
		</inkscape:grid>
</sodipodi:namedview>
<g id="layer1_1_" transform="translate(0,-177)" inkscape:groupmode="layer" inkscape:label="Layer 1">
</g>
<rect x="81.4" y="16.1" class="st0" width="125.8" height="146"/>
<text transform="matrix(1 0 0 1 82.8207 11.9002)" class="st1 st2">$X$</text>
<line class="st3" x1="164.6" y1="34.8" x2="164.6" y2="134.3"/>
<path class="st3" d="M115.3,36.2c43.5,8,72.2,27.5,72.1,49.1c-0.1,21.5-28.7,41-72.1,48.9"/>
<text transform="matrix(1 0 0 1 168.373 43.2683)" class="st1 st2">$D$</text>
<text transform="matrix(1 0 0 1 561.2097 43.184)" class="st1 st2">$D$</text>
<rect x="275" y="16.4" class="st0" width="125.8" height="146"/>
<text transform="matrix(1 0 0 1 276.4707 12.2375)" class="st1 st2">$X$</text>
<line class="st3" x1="358.2" y1="35.1" x2="358.2" y2="134.6"/>
<text transform="matrix(1 0 0 1 363.0789 43.184)" class="st1 st2">$D$</text>
<path class="st3" d="M282.7,156.6l1.5-3.1l1.4-3l1.4-3l1.4-2.9l1.4-2.8l1.4-2.8l1.4-2.7l1.4-2.7l1.4-2.6l1.3-2.6l1.3-2.5l1.3-2.4
	l1.3-2.4l1.3-2.3l1.3-2.3l1.3-2.2l1.3-2.2l1.3-2.1l2.5-4.1l2.4-3.9l2.4-3.7l2.3-3.5l2.3-3.3l2.3-3.1l2.2-2.9l2.2-2.7l2.1-2.6
	l2.1-2.4l2-2.2l2-2.1l1.9-1.9l1.9-1.7l1.8-1.6l1.8-1.4l1.8-1.3l1.7-1.1l1.7-1l1.6-0.9l1.6-0.7l1.5-0.6l1.5-0.5l1.4-0.3l1.4-0.2
	l1.3-0.1l1.3,0l1.3,0.1l1.2,0.2l1.2,0.3l1.1,0.4l1.1,0.5l1,0.6l1,0.7l0.9,0.7l0.9,0.8l0.8,0.9l0.8,1l0.8,1l0.7,1.1l0.7,1.1l0.6,1.2
	l0.6,1.2l0.5,1.3l0.5,1.3l0.4,1.4l0.4,1.4l0.3,1.4l0.3,1.4l0.3,1.5l0.2,1.5l0.2,1.5l0.1,1.5l0.1,1.5l0,1.5l0,1.5l-0.1,1.5l-0.1,1.5
	l-0.2,1.5l-0.2,1.5l-0.3,1.5l-0.3,1.5l-0.3,1.4l-0.4,1.4l-0.4,1.4l-0.5,1.3l-0.5,1.3l-0.6,1.2l-0.6,1.2l-0.7,1.1l-0.7,1.1l-0.8,1
	l-0.8,0.9l-0.8,0.9l-0.9,0.8l-0.9,0.7l-1,0.7l-1,0.6l-1.1,0.5l-1.1,0.4l-1.2,0.3l-1.2,0.2l-1.3,0.1l-1.3,0l-1.3-0.1l-1.4-0.2
	l-1.4-0.3l-1.5-0.5l-1.5-0.6l-1.6-0.7l-1.6-0.9l-1.7-1l-1.7-1.1l-1.8-1.3l-1.8-1.4l-1.8-1.6l-1.9-1.7l-1.9-1.9l-2-2.1l-2-2.2
	l-2.1-2.4l-2.1-2.6l-2.2-2.7l-2.2-2.9l-2.3-3.1l-2.3-3.3l-2.3-3.5l-2.4-3.7l-2.4-3.9l-2.5-4.1l-1.3-2.1l-1.3-2.2l-1.3-2.2l-1.3-2.3
	l-1.3-2.3l-1.3-2.4l-1.3-2.4l-1.3-2.5l-1.3-2.6l-1.4-2.6l-1.4-2.7l-1.4-2.7l-1.4-2.8l-1.4-2.8l-1.4-2.9l-1.4-3l-1.4-3l-1.5-3.1"/>
<text transform="matrix(1 0 0 1 125.762 188.6109)" class="st1 st2">\textit{snc}</text>
<text transform="matrix(1 0 0 1 279.4794 188.6103)" class="st1 st2">\textit{nc} but not \textit{snc}</text>
<text transform="matrix(1 0 0 1 515.9521 188.6107)" class="st1 st2">not \textit{nc}</text>
</svg>
