<?xml version="1.0" encoding="utf-8"?>
<!-- Generator: Adobe Illustrator 23.0.3, SVG Export Plug-In . SVG Version: 6.00 Build 0)  -->
<svg version="1.1"
	 id="svg8" inkscape:version="0.92.4 (unknown)" sodipodi:docname="figure.svg" xmlns:cc="http://creativecommons.org/ns#" xmlns:dc="http://purl.org/dc/elements/1.1/" xmlns:inkscape="http://www.inkscape.org/namespaces/inkscape" xmlns:rdf="http://www.w3.org/1999/02/22-rdf-syntax-ns#" xmlns:sodipodi="http://sodipodi.sourceforge.net/DTD/sodipodi-0.dtd" xmlns:svg="http://www.w3.org/2000/svg"
	 xmlns="http://www.w3.org/2000/svg" xmlns:xlink="http://www.w3.org/1999/xlink" x="0px" y="0px" viewBox="0 0 680.3 142.2"
	 style="enable-background:new 0 0 680.3 142.2;" xml:space="preserve">
<style type="text/css">
	.st0{fill:none;stroke:#020203;stroke-linecap:round;stroke-linejoin:round;stroke-miterlimit:10;}
	.st1{fill:none;stroke:#C91517;stroke-linecap:round;stroke-linejoin:round;stroke-miterlimit:10;}
	.st2{fill:#0070BA;}
	.st3{font-family:'MyriadPro-Regular';}
	.st4{font-size:12px;}
	.st5{fill:none;stroke:#020203;stroke-linecap:round;stroke-linejoin:round;}
	.st6{fill:#020203;}
</style>
<path class="st0" d="M631.8,117.2l-0.7-1l-0.7-1l-0.6-1l-0.6-0.9l-0.6-0.9l-0.6-0.9l-1.3-1.8l-1.2-1.7l-1.2-1.7l-1.2-1.6l-1.2-1.6
	l-1.2-1.5l-1.1-1.5l-1.1-1.4l-1.1-1.4l-1.1-1.3l-1.1-1.2l-1-1.2l-1-1.1l-1-1.1l-1-1.1l-0.9-1l-0.9-1l-0.9-0.9l-0.9-0.9l-0.9-0.8
	l-0.8-0.8l-0.8-0.8l-0.8-0.7l-0.8-0.7l-0.8-0.6l-0.7-0.6l-0.7-0.6l-0.7-0.5l-0.7-0.5l-0.7-0.5l-0.6-0.5l-0.6-0.4l-0.6-0.4l-0.6-0.4
	l-0.6-0.3l-0.5-0.3l-0.5-0.3l-0.5-0.3l-0.5-0.2l-0.5-0.2l-0.4-0.2l-0.4-0.2l-0.4-0.2l-0.4-0.2l-0.3-0.1l-0.3-0.1l-0.3-0.1L591,75
	l-0.3-0.1l-0.2-0.1l-0.2-0.1l-0.2,0l-0.2,0l-0.2,0l-0.1,0l-0.1,0l-0.1,0l-0.1,0l0.1,0l0.1,0l0.1,0l0.1,0l0.2,0l0.2,0l0.2,0l0.2,0
	l0.2-0.1l0.3-0.1l0.3-0.1l0.3-0.1l0.3-0.1l0.3-0.1l0.4-0.2l0.4-0.2l0.4-0.2l0.4-0.2l0.5-0.2l0.5-0.2l0.5-0.3l0.5-0.3l0.5-0.3
	l0.6-0.3l0.6-0.4l0.6-0.4l0.6-0.4l0.6-0.5l0.7-0.5l0.7-0.5l0.7-0.5l0.7-0.6l0.7-0.6l0.8-0.6l0.8-0.7l0.8-0.7l0.8-0.8l0.8-0.8
	l0.9-0.8l0.9-0.9l0.9-0.9l0.9-1l0.9-1l1-1.1l1-1.1l1-1.1l1-1.2l1.1-1.2l1.1-1.3l1.1-1.4l1.1-1.4l1.1-1.5l1.2-1.5l1.2-1.6l1.2-1.6
	l1.2-1.7l1.2-1.7l1.3-1.8l0.6-0.9l0.6-0.9l0.6-0.9l0.6-1l0.7-1l0.7-1"/>
<line class="st1" x1="431.9" y1="32.1" x2="431.9" y2="117.2"/>
<path class="st0" d="M471.2,32.1c-22.4,1.9-39.6,21-39.3,43.1c0.3,21.8,17.3,40.1,39.3,42"/>
<line class="st1" x1="244.9" y1="95.9" x2="318.6" y2="53.4"/>
<line class="st0" x1="318.6" y1="95.9" x2="244.9" y2="53.4"/>
<line class="st0" x1="281.8" y1="32.1" x2="281.8" y2="117.2"/>
<line class="st1" x1="42.9" y1="74.7" x2="139.7" y2="74.7"/>
<line class="st0" x1="58.6" y1="117.2" x2="58.6" y2="32.1"/>
<line class="st0" x1="91.3" y1="117.2" x2="91.3" y2="32.1"/>
<line class="st0" x1="125.4" y1="117.2" x2="125.4" y2="32.1"/>
<circle class="st2" cx="589.3" cy="74.7" r="3.9"/>
<circle class="st2" cx="431.9" cy="74.7" r="3.6"/>
<text transform="matrix(1 0 0 1 417.8077 42.6098)" class="st3 st4">2</text>
<circle class="st2" cx="281.8" cy="74.7" r="3.6"/>
<text transform="matrix(1 0 0 1 286.9865 42.61)" class="st3 st4">2</text>
<text transform="matrix(1 0 0 1 318.8931 51.5779)" class="st3 st4">4</text>
<text transform="matrix(1 0 0 1 97.2597 42.6101)" class="st3 st4">2</text>
<text transform="matrix(1 0 0 1 132.9483 42.6101)" class="st3 st4">4</text>
<text transform="matrix(1 0 0 1 42.8857 66.0523)" class="st3 st4">6</text>
<g>
	<g>
		<line class="st5" x1="168.3" y1="74.7" x2="204.7" y2="74.7"/>
		<g>
			<path class="st6" d="M210.7,74.7c-2.8,1.1-6.4,2.9-8.5,4.8l1.7-4.8l-1.7-4.8C204.4,71.8,207.9,73.6,210.7,74.7z"/>
		</g>
	</g>
</g>
<g>
	<g>
		<line class="st5" x1="352.8" y1="74.7" x2="389.2" y2="74.7"/>
		<g>
			<path class="st6" d="M395.3,74.7c-2.8,1.1-6.4,2.9-8.5,4.8l1.7-4.8l-1.7-4.8C388.9,71.8,392.4,73.6,395.3,74.7z"/>
		</g>
	</g>
</g>
<g>
	<g>
		<line class="st5" x1="507.8" y1="74.7" x2="544.2" y2="74.7"/>
		<g>
			<path class="st6" d="M550.2,74.7c-2.8,1.1-6.4,2.9-8.5,4.8l1.7-4.8l-1.7-4.8C543.9,71.8,547.4,73.6,550.2,74.7z"/>
		</g>
	</g>
</g>
</svg>
