<?xml version="1.0" encoding="utf-8"?>
<!-- Generator: Adobe Illustrator 23.0.3, SVG Export Plug-In . SVG Version: 6.00 Build 0)  -->
<svg version="1.1"
	 id="svg8" inkscape:version="0.92.4 (unknown)" sodipodi:docname="figure.svg" xmlns:cc="http://creativecommons.org/ns#" xmlns:dc="http://purl.org/dc/elements/1.1/" xmlns:inkscape="http://www.inkscape.org/namespaces/inkscape" xmlns:rdf="http://www.w3.org/1999/02/22-rdf-syntax-ns#" xmlns:sodipodi="http://sodipodi.sourceforge.net/DTD/sodipodi-0.dtd" xmlns:svg="http://www.w3.org/2000/svg"
	 xmlns="http://www.w3.org/2000/svg" xmlns:xlink="http://www.w3.org/1999/xlink" x="0px" y="0px" viewBox="0 0 680.3 198.1"
	 style="enable-background:new 0 0 680.3 198.1;" xml:space="preserve">
<style type="text/css">
	.st0{font-family:'MyriadPro-Regular';}
	.st1{font-size:12px;}
	.st2{stroke:#000000;stroke-width:2;stroke-miterlimit:10;}
	.st3{fill:#FFFFFF;}
	.st4{fill:none;stroke:#000000;stroke-width:2;stroke-miterlimit:10;}
	.st5{fill:none;stroke:#000000;stroke-width:2;stroke-miterlimit:10;stroke-dasharray:5.8003,5.8003;}
</style>
<sodipodi:namedview  bordercolor="#666666" borderopacity="1.0" id="base" inkscape:current-layer="layer1" inkscape:cx="284.27627" inkscape:cy="182.72055" inkscape:document-units="mm" inkscape:guide-bbox="true" inkscape:pageopacity="0.0" inkscape:pageshadow="2" inkscape:window-height="995" inkscape:window-maximized="1" inkscape:window-width="2520" inkscape:window-x="20" inkscape:window-y="65" inkscape:zoom="0.99437388" pagecolor="#ffffff" showborder="true" showgrid="false" showguides="true" width="200mm">
	<inkscape:grid  dotted="false" empspacing="4" id="grid815" spacingx="10" spacingy="10" type="xygrid" units="mm">
		</inkscape:grid>
</sodipodi:namedview>
<g id="layer1" transform="translate(0,-177)" inkscape:groupmode="layer" inkscape:label="Layer 1">
</g>
<text transform="matrix(1 0 0 1 154.6646 186.3612)" class="st0 st1">Type $\text{IV}$</text>
<text transform="matrix(1 0 0 1 442.7603 186.3613)" class="st0 st1">Type $\text{I}_r$</text>
<path class="st2" d="M127.6,30.4c32.5,33.5,65,67,97.5,100.5"/>
<path class="st2" d="M159.9,148c12.6-44.9,25.3-89.9,37.9-134.8"/>
<path class="st2" d="M113,100c45.3-11.4,90.5-22.9,135.8-34.3"/>
<text transform="matrix(1 0 0 1 202.5567 19.2699)" class="st0 st1">1</text>
<text transform="matrix(1 0 0 1 248.757 61.9703)" class="st0 st1">1</text>
<text transform="matrix(1 0 0 1 230.6051 123.0906)" class="st0 st1">1</text>
<path class="st2" d="M426.6,49.7c32.2-8.2,64.5-16.3,96.7-24.5"/>
<path class="st2" d="M419.9,118.3c12-31,24-62,35.9-93"/>
<path class="st2" d="M413.6,74.8c16.2,29,32.4,58.1,48.6,87.1"/>
<path class="st2" d="M437.9,146.5c33.2-1,66.5-2,99.7-3"/>
<path class="st2" d="M495.3,20.7c27,19.3,54.1,38.7,81.1,58"/>
<g>
	<path class="st3" d="M513.6,161c21-37.1,41.9-74.2,62.9-111.3"/>
	<g>
		<path class="st4" d="M513.6,161c0.5-0.9,1-1.7,1.5-2.6"/>
		<path class="st5" d="M517.9,153.3c18.5-32.8,37.1-65.6,55.6-98.5"/>
		<path class="st4" d="M575,52.4c0.5-0.9,1-1.7,1.5-2.6"/>
	</g>
</g>
<text transform="matrix(1 0 0 1 517.0729 19.2699)" class="st0 st1">$F_1$</text>
<text transform="matrix(1 0 0 1 583.2543 74.7707)" class="st0 st1">$F_r$</text>
<text transform="matrix(1 0 0 1 437.8524 17.785)" class="st0 st1">$F_2$</text>
<text transform="matrix(1 0 0 1 377.213 86.4406)" class="st0 st1">$F_3$</text>
<text transform="matrix(1 0 0 1 403.5868 150.4913)" class="st0 st1">$F_4$</text>
</svg>
