<?xml version="1.0" encoding="utf-8"?>
<!-- Generator: Adobe Illustrator 23.0.3, SVG Export Plug-In . SVG Version: 6.00 Build 0)  -->
<svg version="1.1"
	 id="svg8" inkscape:version="0.92.4 (unknown)" sodipodi:docname="figure.svg" xmlns:cc="http://creativecommons.org/ns#" xmlns:dc="http://purl.org/dc/elements/1.1/" xmlns:inkscape="http://www.inkscape.org/namespaces/inkscape" xmlns:rdf="http://www.w3.org/1999/02/22-rdf-syntax-ns#" xmlns:sodipodi="http://sodipodi.sourceforge.net/DTD/sodipodi-0.dtd" xmlns:svg="http://www.w3.org/2000/svg"
	 xmlns="http://www.w3.org/2000/svg" xmlns:xlink="http://www.w3.org/1999/xlink" x="0px" y="0px" viewBox="0 0 680.3 156.2"
	 style="enable-background:new 0 0 680.3 156.2;" xml:space="preserve">
<style type="text/css">
	.st0{font-family:'MyriadPro-Regular';}
	.st1{font-size:12px;}
	.st2{stroke:#000000;stroke-width:2;stroke-miterlimit:10;}
	.st3{fill:none;stroke:#000000;stroke-width:2;stroke-miterlimit:10;}
</style>
<sodipodi:namedview  bordercolor="#666666" borderopacity="1.0" id="base" inkscape:current-layer="layer1" inkscape:cx="284.27627" inkscape:cy="182.72055" inkscape:document-units="mm" inkscape:guide-bbox="true" inkscape:pageopacity="0.0" inkscape:pageshadow="2" inkscape:window-height="995" inkscape:window-maximized="1" inkscape:window-width="2520" inkscape:window-x="20" inkscape:window-y="65" inkscape:zoom="0.99437388" pagecolor="#ffffff" showborder="true" showgrid="false" showguides="true" width="200mm">
	<inkscape:grid  dotted="false" empspacing="4" id="grid815" spacingx="10" spacingy="10" type="xygrid" units="mm">
		</inkscape:grid>
</sodipodi:namedview>
<g id="layer1" transform="translate(0,-177)" inkscape:groupmode="layer" inkscape:label="Layer 1">
</g>
<text transform="matrix(1 0 0 1 106.5439 135.6045)" class="st0 st1">Type $\text{I}_0$</text>
<line class="st2" x1="95.5" y1="57.4" x2="207.7" y2="57.4"/>
<path class="st3" d="M373.5,21.4c-5.1,42.6-26.4,69.7-45.5,69.5c-14-0.2-32-15-31.5-32c0.4-16.3,17.6-30.2,31.2-30.1
	c19.7,0.2,40,30.5,47,77.4"/>
<text transform="matrix(1 0 0 1 301.4336 135.6044)" class="st0 st1">Type $\text{I}_1$</text>
<path class="st3" d="M561.3,23.4c-15.4,19.8-30.1,44.4-58,44.4"/>
<path class="st3" d="M561.3,23.4c-15.4,19.8-30.1,44.4-58,44.4"/>
<path class="st3" d="M561.3,112.2c-15.4-19.8-30.1-44.4-58-44.4"/>
<text transform="matrix(1 0 0 1 496.2704 135.6047)" class="st0 st1">Type $\text{II}$</text>
<text transform="matrix(1 0 0 1 149.5542 43.3352)" class="st0 st1">1</text>
<text transform="matrix(1 0 0 1 318.3602 23.3666)" class="st0 st1">1</text>
<text transform="matrix(1 0 0 1 527.4775 43.3352)" class="st0 st1">1</text>
</svg>
